%TF.GenerationSoftware,KiCad,Pcbnew,(5.1.10)-1*%
%TF.CreationDate,2021-06-29T19:18:25-07:00*%
%TF.ProjectId,HSC_Alice_plate,4853435f-416c-4696-9365-5f706c617465,rev?*%
%TF.SameCoordinates,Original*%
%TF.FileFunction,Profile,NP*%
%FSLAX46Y46*%
G04 Gerber Fmt 4.6, Leading zero omitted, Abs format (unit mm)*
G04 Created by KiCad (PCBNEW (5.1.10)-1) date 2021-06-29 19:18:25*
%MOMM*%
%LPD*%
G01*
G04 APERTURE LIST*
%TA.AperFunction,Profile*%
%ADD10C,0.200000*%
%TD*%
G04 APERTURE END LIST*
D10*
X375474599Y-105079800D02*
X375474599Y-104622600D01*
X199900862Y-172927359D02*
X98571600Y-145754800D01*
X212589041Y-178403575D02*
X214028750Y-174546550D01*
X156229624Y-144067325D02*
X169752157Y-147691040D01*
X361438241Y-26628339D02*
X387386614Y-26623700D01*
X-48851787Y-145754800D02*
G75*
G02*
X-46527893Y-147333109I0J-2500000D01*
G01*
X67870467Y-147380547D02*
G75*
G02*
X70212620Y-145754800I2342153J-874253D01*
G01*
X203241074Y-19961673D02*
X201359445Y-25002618D01*
X317373600Y-145754800D02*
X343325087Y-145754800D01*
X357096125Y-152413951D02*
X358974939Y-147380546D01*
X354880099Y-21623492D02*
G75*
G03*
X354880099Y-21623492I-2500000J0D01*
G01*
X-35078437Y-152419782D02*
X-33197446Y-147380546D01*
X47049621Y-26628365D02*
X52334283Y-26628365D01*
X347664074Y-19962423D02*
X345782725Y-25002618D01*
X212673484Y-19962694D02*
X214691207Y-25050056D01*
X358974939Y-147380547D02*
G75*
G02*
X361317092Y-145754800I2342153J-874253D01*
G01*
X361438241Y-26628339D02*
G75*
G02*
X359113899Y-25050030I-447J2500000D01*
G01*
X39483620Y-26628469D02*
X-30738833Y-26628469D01*
X56557065Y-152418761D02*
X54540021Y-147333109D01*
X203241074Y-19961673D02*
G75*
G02*
X212673484Y-19962694I4716025J-1664983D01*
G01*
X-72203435Y-26630000D02*
X-48732608Y-26630000D01*
X347663714Y-152412930D02*
X345648982Y-147333109D01*
X357096484Y-19963443D02*
X359113899Y-25050030D01*
X347664074Y-19962422D02*
G75*
G02*
X357096484Y-19963443I4716025J-1664983D01*
G01*
X343325087Y-145754800D02*
G75*
G02*
X345648982Y-147333109I0J-2500000D01*
G01*
X65989476Y-152419784D02*
G75*
G02*
X56557065Y-152418761I-4716025J1664984D01*
G01*
X65988203Y-19968781D02*
X68003512Y-25050056D01*
X-35078437Y-152419784D02*
G75*
G02*
X-44510848Y-152418761I-4716025J1664984D01*
G01*
X54676436Y-25002618D02*
G75*
G02*
X52334283Y-26628365I-2342153J874253D01*
G01*
X203156631Y-178402554D02*
X201577232Y-174420355D01*
X345782725Y-25002618D02*
G75*
G02*
X343440572Y-26628365I-2342153J874253D01*
G01*
X212589041Y-178403575D02*
G75*
G02*
X203156631Y-178402554I-4716025J1664983D01*
G01*
X-35078077Y-19968781D02*
X-33062727Y-25050160D01*
X387386600Y-145754800D02*
X361317092Y-145754800D01*
X56555793Y-19967760D02*
X54676436Y-25002618D01*
X217015101Y-26628365D02*
G75*
G02*
X214691207Y-25050056I0J2500000D01*
G01*
X210373016Y-176738592D02*
G75*
G03*
X210373016Y-176738592I-2500000J0D01*
G01*
X201359445Y-25002618D02*
G75*
G02*
X199017292Y-26628365I-2342153J874253D01*
G01*
X56555793Y-19967760D02*
G75*
G02*
X65988203Y-19968781I4716025J-1664983D01*
G01*
X-44510848Y-152418761D02*
X-46527893Y-147333109D01*
X-33197446Y-147380547D02*
G75*
G02*
X-30855293Y-145754800I2342153J-874253D01*
G01*
X52216126Y-145754800D02*
G75*
G02*
X54540021Y-147333109I0J-2500000D01*
G01*
X199900862Y-172927359D02*
G75*
G02*
X201577232Y-174420355I-647525J-2414687D01*
G01*
X70327406Y-26628365D02*
G75*
G02*
X68003512Y-25050056I0J2500000D01*
G01*
X354880100Y-150748968D02*
G75*
G03*
X354880100Y-150748968I-2500000J0D01*
G01*
X214028750Y-174546550D02*
G75*
G02*
X215723540Y-173006073I2342153J-874253D01*
G01*
X-44510488Y-19967760D02*
X-46390454Y-25004253D01*
X357096125Y-152413951D02*
G75*
G02*
X347663714Y-152412930I-4716025J1664983D01*
G01*
X-44510487Y-19967760D02*
G75*
G02*
X-35078077Y-19968781I4716025J-1664983D01*
G01*
X65989476Y-152419782D02*
X67870467Y-147380546D01*
X-46390455Y-25004253D02*
G75*
G02*
X-48732608Y-26630000I-2342153J874253D01*
G01*
X-30738833Y-26628469D02*
G75*
G02*
X-33062727Y-25050160I0J2500000D01*
G01*
X70327406Y-26628365D02*
X199017292Y-26628365D01*
X217015101Y-26628365D02*
X343440572Y-26628365D01*
X76089750Y-125099549D02*
X79390249Y-125099549D01*
X58840950Y-114830549D02*
X57315550Y-114830549D01*
X55590150Y-123900849D02*
X57315550Y-123900849D01*
X74366050Y-111600549D02*
X74366050Y-114830549D01*
X210457099Y-21622742D02*
G75*
G03*
X210457099Y-21622742I-2500000J0D01*
G01*
X63771818Y-21628829D02*
G75*
G03*
X63771818Y-21628829I-2500000J0D01*
G01*
X-37294462Y-21628829D02*
G75*
G03*
X-37294462Y-21628829I-2500000J0D01*
G01*
X58840950Y-119430449D02*
X58840950Y-124129449D01*
X389886600Y-143254800D02*
G75*
G02*
X387386600Y-145754800I-2500000J0D01*
G01*
X-30855293Y-145754800D02*
X52216126Y-145754800D01*
X385979211Y-78308806D02*
X385989893Y-75008323D01*
X-72203400Y-145754800D02*
X-48851787Y-145754800D01*
X79390250Y-123900849D02*
X81115349Y-123900849D01*
X49740350Y-114830549D02*
X49740349Y-117630550D01*
X72840250Y-110130149D02*
X58840600Y-110129799D01*
X383749349Y-103808400D02*
X384697913Y-103828693D01*
X52289550Y-125099549D02*
X55590150Y-125099549D01*
X385989893Y-75008323D02*
X384791199Y-75004444D01*
X-72203400Y-145754800D02*
G75*
G02*
X-74703400Y-143254800I0J2500000D01*
G01*
X72840250Y-124129449D02*
X72840250Y-119430450D01*
X72840250Y-119430450D02*
X74366050Y-119430450D01*
X57315550Y-114830549D02*
X57315550Y-111600549D01*
X72840250Y-114830549D02*
X72840250Y-110130150D01*
X50565850Y-114830549D02*
X49740350Y-114830549D01*
X375474599Y-104622600D02*
X376997461Y-104629276D01*
X-37294462Y-150754800D02*
G75*
G03*
X-37294462Y-150754800I-2500000J0D01*
G01*
X384703491Y-102105002D02*
X385902185Y-102108881D01*
X384697913Y-103828693D02*
X384703491Y-102105002D01*
X81939450Y-117630550D02*
X81939450Y-114830549D01*
X58840950Y-110130150D02*
X58840950Y-114830549D01*
X384791199Y-75004444D02*
X384796757Y-73287099D01*
X79390249Y-125099549D02*
X79390250Y-123900849D01*
X74366050Y-119430450D02*
X74366050Y-123900849D01*
X384780517Y-78304927D02*
X385979211Y-78308806D01*
X384719757Y-97079028D02*
X384569249Y-97078541D01*
X385912867Y-98808299D02*
X384714173Y-98804419D01*
X57315550Y-123900849D02*
X57315550Y-119430450D01*
X385902185Y-102108881D02*
X385912867Y-98808299D01*
X81115350Y-114830549D02*
X81115349Y-111600549D01*
X72840250Y-124129449D02*
X58840650Y-124129449D01*
X81939450Y-114830549D02*
X81115350Y-114830549D01*
X81115349Y-117630550D02*
X81939450Y-117630550D01*
X63773451Y-150754800D02*
G75*
G03*
X63773451Y-150754800I-2500000J0D01*
G01*
X55590150Y-125099549D02*
X55590150Y-123900849D01*
X50565849Y-111600549D02*
X50565850Y-114830549D01*
X74366050Y-114830549D02*
X72840250Y-114830549D01*
X74366050Y-123900849D02*
X76089750Y-123900849D01*
X387386615Y-26623700D02*
G75*
G02*
X389886600Y-29123700I-15J-2500000D01*
G01*
X-74703400Y-29130001D02*
G75*
G02*
X-72203435Y-26630000I2500000J1D01*
G01*
X98571600Y-145754800D02*
X70212620Y-145754800D01*
X384774939Y-80028618D02*
X384780517Y-78304927D01*
X81115349Y-111600549D02*
X74366050Y-111600549D01*
X384998600Y-81555150D02*
X382618600Y-81555150D01*
X384714173Y-98804419D02*
X384719757Y-97079028D01*
X57315550Y-119430450D02*
X58840950Y-119430449D01*
X57315550Y-111600549D02*
X50565849Y-111600549D01*
X81115349Y-123900849D02*
X81115349Y-117630550D01*
X52289550Y-123900849D02*
X52289550Y-125099549D01*
X76089750Y-123900849D02*
X76089750Y-125099549D01*
X317373600Y-145754800D02*
X215723540Y-173006073D01*
X49740349Y-117630550D02*
X50565849Y-117630550D01*
X50565849Y-117630550D02*
X50565849Y-123900849D01*
X50565849Y-123900849D02*
X52289550Y-123900849D01*
X361474949Y-95780550D02*
X359949549Y-95780550D01*
X384569249Y-97078541D02*
X384573449Y-95554800D01*
X379382199Y-57681049D02*
X377856399Y-57681049D01*
X379382199Y-66751349D02*
X381105899Y-66751350D01*
X377856399Y-62280950D02*
X379382199Y-62280950D01*
X377856749Y-52980300D02*
X363856749Y-52980300D01*
X386131499Y-60481050D02*
X386955599Y-60481050D01*
X378723749Y-106049549D02*
X382024249Y-106049550D01*
X386131499Y-57681049D02*
X386131499Y-54451050D01*
X386955599Y-57681049D02*
X386131499Y-57681049D01*
X386955599Y-60481050D02*
X386955599Y-57681049D01*
X384406399Y-66751350D02*
X386131499Y-66751349D01*
X363857099Y-62280950D02*
X363857099Y-66979949D01*
X360606299Y-66751350D02*
X362331699Y-66751350D01*
X357305699Y-67950050D02*
X360606299Y-67950050D01*
X354756499Y-60481050D02*
X355581999Y-60481050D01*
X359949549Y-95780550D02*
X359949549Y-92550550D01*
X353199849Y-95780550D02*
X352374349Y-95780550D01*
X379382199Y-54451050D02*
X379382199Y-57681049D01*
X353199849Y-92550550D02*
X353199849Y-95780550D01*
X362331699Y-62280950D02*
X363857099Y-62280950D01*
X357305699Y-66751350D02*
X357305699Y-67950050D01*
X378723749Y-104850850D02*
X378723749Y-106049549D01*
X381105899Y-66751350D02*
X381105899Y-67950049D01*
X377856399Y-57681049D02*
X377856400Y-52980650D01*
X384573449Y-95554800D02*
X385000200Y-95554450D01*
X382024249Y-106049550D02*
X382024249Y-104850850D01*
X362331699Y-66751350D02*
X362331699Y-62280950D01*
X389886600Y-29123700D02*
X389886600Y-143254800D01*
X382618600Y-72029800D02*
X382618600Y-73280050D01*
X-74703400Y-143254800D02*
X-74703400Y-29130000D01*
X386131499Y-66751349D02*
X386131499Y-60481050D01*
X379382199Y-62280950D02*
X379382199Y-66751349D01*
X377856400Y-66979949D02*
X377856399Y-62280950D01*
X354756499Y-57681049D02*
X354756499Y-60481050D01*
X355581999Y-57681049D02*
X354756499Y-57681049D01*
X355581999Y-54451050D02*
X355581999Y-57681049D01*
X384796757Y-73287099D02*
X382618600Y-73280050D01*
X361474949Y-91080150D02*
X361474949Y-95780550D01*
X382024249Y-104850850D02*
X383749349Y-104850850D01*
X363857099Y-52980650D02*
X363857099Y-57681049D01*
X381105899Y-67950049D02*
X384406399Y-67950050D01*
X360606299Y-67950050D02*
X360606299Y-66751350D01*
X382618600Y-80029750D02*
X384774939Y-80028618D01*
X352374349Y-95780550D02*
X352374349Y-98580550D01*
X359949549Y-92550550D02*
X353199849Y-92550550D01*
X362331699Y-54451050D02*
X355581999Y-54451050D01*
X355581999Y-66751350D02*
X357305699Y-66751350D01*
X355581999Y-60481050D02*
X355581999Y-66751350D01*
X362331699Y-57681049D02*
X362331699Y-54451050D01*
X363857099Y-57681049D02*
X362331699Y-57681049D01*
X386131499Y-54451050D02*
X379382199Y-54451050D01*
X384406399Y-67950050D02*
X384406399Y-66751350D01*
X383749349Y-104850850D02*
X383749349Y-103808400D01*
X334149849Y-117630550D02*
X334149849Y-123900850D01*
X237142815Y-159745517D02*
X238352076Y-164287702D01*
X229977228Y-164995712D02*
X236499348Y-163259334D01*
X356424250Y-110130150D02*
X342424949Y-110130150D01*
X228349892Y-162086447D02*
X229146253Y-161874433D01*
X339174149Y-125099549D02*
X339174149Y-123900849D01*
X335873549Y-123900849D02*
X335873549Y-125099550D01*
X340899549Y-123900850D02*
X340899549Y-119430450D01*
X252975931Y-158872791D02*
X259498437Y-157136311D01*
X251880162Y-160686134D02*
X250670900Y-156143948D01*
X357950049Y-123900849D02*
X359673749Y-123900850D01*
X258667462Y-154015032D02*
X259465176Y-153802657D01*
X334149849Y-111600550D02*
X334149849Y-114830549D01*
X365523449Y-117630550D02*
X365523449Y-114830549D01*
X250670900Y-156143948D02*
X252144956Y-155751512D01*
X377000049Y-104850850D02*
X378723749Y-104850850D01*
X376997461Y-104629276D02*
X377000049Y-104850850D01*
X356424250Y-124129449D02*
X356424249Y-119430450D01*
X259465176Y-153802657D02*
X258744826Y-151096905D01*
X361474949Y-100380450D02*
X361474950Y-105079450D01*
X357950049Y-119430450D02*
X357950049Y-123900849D01*
X359949549Y-100380450D02*
X361474949Y-100380450D01*
X356424249Y-114830549D02*
X356424250Y-110130150D01*
X252144956Y-155751512D02*
X252975931Y-158872791D01*
X229146253Y-161874433D02*
X229977228Y-164995712D01*
X358224149Y-106049550D02*
X358224149Y-104850850D01*
X235668373Y-160138056D02*
X237142815Y-159745517D01*
X359949549Y-104850850D02*
X359949549Y-100380450D01*
X358224149Y-104850850D02*
X359949549Y-104850850D01*
X354923549Y-106049550D02*
X358224149Y-106049550D01*
X356424250Y-124129449D02*
X342424649Y-124129449D01*
X234750508Y-150759616D02*
X248278593Y-147158048D01*
X354923549Y-104850850D02*
X354923549Y-106049550D01*
X340899549Y-111600550D02*
X334149849Y-111600550D01*
X353199849Y-104850850D02*
X354923549Y-104850850D01*
X353199849Y-98580550D02*
X353199849Y-104850850D01*
X359673749Y-125099549D02*
X362974249Y-125099549D01*
X362974249Y-123900849D02*
X364699349Y-123900849D01*
X364699349Y-123900849D02*
X364699349Y-117630550D01*
X364699349Y-111600550D02*
X357950049Y-111600549D01*
X357950049Y-114830549D02*
X356424249Y-114830549D01*
X357950049Y-111600549D02*
X357950049Y-114830549D01*
X340899549Y-119430450D02*
X342424949Y-119430450D01*
X352374349Y-98580550D02*
X353199849Y-98580550D01*
X333324350Y-114830549D02*
X333324349Y-117630550D01*
X334149849Y-114830549D02*
X333324350Y-114830549D01*
X342424949Y-110130150D02*
X342424949Y-114830549D01*
X238352076Y-164287702D02*
X251880162Y-160686134D01*
X236499348Y-163259334D02*
X235668373Y-160138056D01*
X364699349Y-117630550D02*
X365523449Y-117630550D01*
X340899549Y-114830549D02*
X340899549Y-111600550D01*
X259498437Y-157136311D02*
X258667462Y-154015032D01*
X362974249Y-125099549D02*
X362974249Y-123900849D01*
X365523449Y-114830549D02*
X364699349Y-114830549D01*
X359673749Y-123900850D02*
X359673749Y-125099549D01*
X364699349Y-114830549D02*
X364699349Y-111600550D01*
X333324349Y-117630550D02*
X334149849Y-117630550D01*
X342424949Y-114830549D02*
X340899549Y-114830549D01*
X356424249Y-119430450D02*
X357950049Y-119430450D01*
X335873549Y-125099550D02*
X339174149Y-125099549D01*
X342424949Y-119430450D02*
X342424950Y-124129449D01*
X339174149Y-123900849D02*
X340899549Y-123900850D01*
X334149849Y-123900850D02*
X335873549Y-123900849D01*
X155013681Y-148606640D02*
X153539872Y-148211733D01*
X153539872Y-148211733D02*
X154696896Y-143893659D01*
X176021158Y-149607477D02*
X176331404Y-148449622D01*
X254359899Y-144535137D02*
X251170397Y-145384275D01*
X177686124Y-150053604D02*
X176021158Y-149607477D01*
X153342176Y-142289677D02*
X150154138Y-141435445D01*
X154696896Y-143893659D02*
X153031930Y-143447532D01*
X227629543Y-159380695D02*
X228349892Y-162086447D01*
X172833023Y-148753219D02*
X171166415Y-148306653D01*
X149843892Y-142593300D02*
X148177573Y-142146811D01*
X228425903Y-159168680D02*
X227629543Y-159380695D01*
X144994021Y-154027989D02*
X151513344Y-155774836D01*
X226812758Y-153109438D02*
X228425903Y-159168680D01*
X249487495Y-151698880D02*
X248278593Y-147158048D01*
X174502572Y-161934781D02*
X175338558Y-158814841D01*
X-45354100Y-144150350D02*
X-42053600Y-144150350D01*
X145758680Y-147990163D02*
X145033987Y-150694756D01*
X-65853700Y-144150350D02*
X-65853700Y-143179800D01*
X228479791Y-152665625D02*
X226812758Y-153109438D01*
X228171404Y-151507273D02*
X228479791Y-152665625D01*
X145830007Y-150908048D02*
X144994021Y-154027989D01*
X254668286Y-145693489D02*
X254359899Y-144535137D01*
X171166415Y-148306653D02*
X170009390Y-152624728D01*
X170009390Y-152624728D02*
X168535967Y-152229925D01*
X231360810Y-150658161D02*
X228171404Y-151507273D01*
X231669197Y-151816513D02*
X231360810Y-150658161D01*
X233334877Y-151373061D02*
X231669197Y-151816513D01*
X234484967Y-155692988D02*
X233334877Y-151373061D01*
X235959409Y-155300448D02*
X234484967Y-155692988D01*
X234750508Y-150759616D02*
X235959409Y-155300448D01*
X250961550Y-151306444D02*
X249487495Y-151698880D01*
X258744826Y-151096905D02*
X257947112Y-151309279D01*
X168818848Y-157067890D02*
X167982863Y-160187830D01*
X167345763Y-156673178D02*
X168818848Y-157067890D01*
X168535967Y-152229925D02*
X169752157Y-147691040D01*
X-45354100Y-143179800D02*
X-45354100Y-144150350D01*
X-5679151Y-110554550D02*
X-8479151Y-110554550D01*
X152349330Y-152654896D02*
X153823139Y-153049802D01*
X176860623Y-156323904D02*
X176063251Y-156110248D01*
X-69154300Y-144150350D02*
X-65853700Y-144150350D01*
X176331404Y-148449622D02*
X173143269Y-147595364D01*
X256333966Y-145250037D02*
X254668286Y-145693489D01*
X257947112Y-151309279D02*
X256333966Y-145250037D01*
X148177573Y-142146811D02*
X146554700Y-148203456D01*
X152606586Y-157590040D02*
X166129119Y-161213754D01*
X-69154300Y-143179800D02*
X-69154300Y-144150350D01*
X-39078400Y-129179800D02*
X-72128401Y-129179800D01*
X249811460Y-146986517D02*
X250961550Y-151306444D01*
X-42053600Y-144150350D02*
X-42053600Y-143179800D01*
X251170397Y-145384275D02*
X251478783Y-146542627D01*
X167982863Y-160187830D02*
X174502572Y-161934781D01*
X176135929Y-159028496D02*
X176860623Y-156323904D01*
X153823139Y-153049802D02*
X152606586Y-157590040D01*
X-14978051Y-133654450D02*
X-14978051Y-119654850D01*
X175338558Y-158814841D02*
X176135929Y-159028496D01*
X151513344Y-155774836D02*
X152349330Y-152654896D01*
X176063251Y-156110248D02*
X177686124Y-150053604D01*
X251478783Y-146542627D02*
X249811460Y-146986517D01*
X173143269Y-147595364D02*
X172833023Y-148753219D01*
X153031930Y-143447532D02*
X153342176Y-142289677D01*
X145033987Y-150694756D02*
X145830007Y-150908048D01*
X146554700Y-148203456D02*
X145758680Y-147990163D01*
X150154138Y-141435445D02*
X149843892Y-142593300D01*
X41884600Y-129179800D02*
X27884600Y-129179800D01*
X27884600Y-143179800D02*
X41884600Y-143179800D01*
X22834600Y-143179800D02*
X22834600Y-129179800D01*
X-34028400Y-129179800D02*
X-34028400Y-143179800D01*
X8834600Y-129179800D02*
X8834600Y-143179800D01*
X22834600Y-129179800D02*
X8834600Y-129179800D01*
X-58128401Y-110129800D02*
X-72128401Y-110129800D01*
X8834600Y-143179800D02*
X22834600Y-143179800D01*
X-72128401Y-124129800D02*
X-58128401Y-124129800D01*
X-20028400Y-143179800D02*
X-20028400Y-129179800D01*
X-20028400Y-129179800D02*
X-34028400Y-129179800D01*
X-72128401Y-143179800D02*
X-69154300Y-143179800D01*
X-34028400Y-143179800D02*
X-20028400Y-143179800D01*
X-72128401Y-110129800D02*
X-72128401Y-124129800D01*
X-39078400Y-143179800D02*
X-39078400Y-129179800D01*
X-42053600Y-143179800D02*
X-39078400Y-143179800D01*
X-65853700Y-143179800D02*
X-45354100Y-143179800D01*
X-72128401Y-129179800D02*
X-72128401Y-143179800D01*
X-58128401Y-124129800D02*
X-58128401Y-110129800D01*
X-53078400Y-52979500D02*
X-53078400Y-66979499D01*
X-34028400Y-86029800D02*
X-20028400Y-86029800D01*
X8834600Y-52979500D02*
X8834600Y-66979499D01*
X-58128401Y-66979499D02*
X-58128400Y-52979499D01*
X-978400Y-66979499D02*
X-978400Y-52979500D01*
X-39078400Y-124129800D02*
X-39078400Y-110129800D01*
X-53078400Y-110129800D02*
X-53078400Y-124129800D01*
X-39078400Y-110129800D02*
X-53078400Y-110129800D01*
X-53078400Y-124129800D02*
X-39078400Y-124129800D01*
X-39078400Y-86029800D02*
X-39078400Y-72029800D01*
X-53078400Y-105079800D02*
X-39078400Y-105079800D01*
X-58128401Y-72029800D02*
X-72128401Y-72029800D01*
X-72128401Y-86029800D02*
X-58128401Y-86029800D01*
X-34028400Y-66979499D02*
X-20028400Y-66979499D01*
X39490599Y-30211100D02*
X39484599Y-30192199D01*
X-20028400Y-124129800D02*
X-20028400Y-110129800D01*
X-34028400Y-124129800D02*
X-20028400Y-124129800D01*
X-34028400Y-91079800D02*
X-34028400Y-105079800D01*
X-20028400Y-91079800D02*
X-34028400Y-91079800D01*
X-34028400Y-105079800D02*
X-20028400Y-105079800D01*
X-39078400Y-105079800D02*
X-39078400Y-91079800D01*
X-53078400Y-91079800D02*
X-53078400Y-105079800D01*
X-58128401Y-105079800D02*
X-58128401Y-91079800D01*
X-72128400Y-52979499D02*
X-72128401Y-66979499D01*
X-20028400Y-72029800D02*
X-34028400Y-72029800D01*
X22834600Y-52979500D02*
X8834600Y-52979500D01*
X-53078400Y-86029800D02*
X-39078400Y-86029800D01*
X-72128401Y-91079800D02*
X-72128401Y-105079800D01*
X-58128401Y-91079800D02*
X-72128401Y-91079800D01*
X-58128401Y-86029800D02*
X-58128401Y-72029800D01*
X-53078400Y-72029800D02*
X-53078400Y-86029800D01*
X-20028400Y-66979499D02*
X-20028400Y-52979500D01*
X22834600Y-66979499D02*
X22834600Y-52979500D01*
X-978400Y-52979500D02*
X-14978401Y-52979500D01*
X-39078400Y-66979499D02*
X-39078400Y-52979500D01*
X39483599Y-30167700D02*
X39483620Y-26628469D01*
X-72128401Y-66979499D02*
X-58128401Y-66979499D01*
X-58128400Y-52979499D02*
X-72128400Y-52979499D01*
X-14978401Y-66979499D02*
X-978400Y-66979499D01*
X-34028400Y-52979500D02*
X-34028400Y-66979499D01*
X-20028400Y-86029800D02*
X-20028400Y-72029800D01*
X8834600Y-66979499D02*
X22834600Y-66979499D01*
X-53078400Y-66979499D02*
X-39078400Y-66979499D01*
X39499599Y-30228400D02*
X39490599Y-30211100D01*
X-39078400Y-91079800D02*
X-53078400Y-91079800D01*
X-72128401Y-105079800D02*
X-58128401Y-105079800D01*
X-72128401Y-72029800D02*
X-72128401Y-86029800D01*
X-14978401Y-52979500D02*
X-14978401Y-66979499D01*
X39484599Y-30192199D02*
X39482600Y-30172600D01*
X39482600Y-30172600D02*
X39483599Y-30167700D01*
X-34028400Y-110129800D02*
X-34028400Y-124129800D01*
X-20028400Y-110129800D02*
X-34028400Y-110129800D01*
X-20028400Y-105079800D02*
X-20028400Y-91079800D01*
X-39078400Y-72029800D02*
X-53078400Y-72029800D01*
X-34028400Y-72029800D02*
X-34028400Y-86029800D01*
X-20028400Y-52979500D02*
X-34028400Y-52979500D01*
X-39078400Y-52979500D02*
X-53078400Y-52979500D01*
X47047599Y-30192199D02*
X47041600Y-30211100D01*
X47004600Y-30256100D02*
X46987600Y-30265399D01*
X39583599Y-30273100D02*
X39578599Y-30272600D01*
X39588599Y-30272600D02*
X39583599Y-30273100D01*
X46949600Y-30273100D02*
X46944600Y-30272600D01*
X39512600Y-30243700D02*
X39499599Y-30228400D01*
X39527600Y-30256100D02*
X39512600Y-30243700D01*
X39544599Y-30265399D02*
X39527600Y-30256100D01*
X39563599Y-30271200D02*
X39544599Y-30265399D01*
X39578599Y-30272600D02*
X39563599Y-30271200D01*
X46944600Y-30272600D02*
X39588599Y-30272600D01*
X46968600Y-30271200D02*
X46949600Y-30273100D01*
X46987600Y-30265399D02*
X46968600Y-30271200D01*
X47020599Y-30243700D02*
X47004600Y-30256100D01*
X47032600Y-30228400D02*
X47020599Y-30243700D01*
X47041600Y-30211100D02*
X47032600Y-30228400D01*
X47049600Y-30172600D02*
X47047599Y-30192199D01*
X47049621Y-26628365D02*
X47049600Y-30172600D01*
X-14749450Y-102104450D02*
X-14749450Y-103829550D01*
X-14978051Y-133654450D02*
X-10279051Y-133654450D01*
X-14749450Y-103829550D02*
X-8479151Y-103829550D01*
X-10279051Y-118129750D02*
X-10279051Y-119655150D01*
X-2449150Y-73280050D02*
X-5679151Y-73280050D01*
X-8479151Y-103829550D02*
X-8479151Y-104653650D01*
X-5679151Y-104653650D02*
X-5679151Y-103829550D01*
X-14749450Y-141929550D02*
X-8479151Y-141929550D01*
X-14749450Y-140204450D02*
X-14749450Y-141929550D01*
X-5679151Y-142753650D02*
X-5679151Y-141929550D01*
X-14749450Y-136903950D02*
X-15948151Y-136903950D01*
X-14749450Y-113103750D02*
X-15948151Y-113103750D01*
X-8479151Y-141929550D02*
X-8479151Y-142753650D01*
X-14749450Y-116404350D02*
X-14749450Y-118129750D01*
X-15948151Y-116404350D02*
X-14749450Y-116404350D01*
X-8479151Y-111380050D02*
X-14749450Y-111380050D01*
X-5679151Y-73280050D02*
X-5679151Y-72454550D01*
X-978750Y-81555150D02*
X-5679151Y-81555150D01*
X-2449150Y-97080250D02*
X-5679151Y-97080250D01*
X-2449150Y-103829550D02*
X-2449150Y-97080250D01*
X-14749450Y-97080250D02*
X-14749450Y-98803950D01*
X-14749450Y-98803950D02*
X-15948151Y-98803950D01*
X-8479151Y-110554550D02*
X-8479151Y-111380050D01*
X-10279051Y-133654450D02*
X-10279051Y-135180250D01*
X-5679151Y-111380050D02*
X-5679151Y-110554550D01*
X-5679151Y-119655150D02*
X-5679151Y-118129750D01*
X-978750Y-95554450D02*
X-978750Y-81555150D01*
X-15948151Y-113103750D02*
X-15948151Y-116404350D01*
X-5679151Y-135180250D02*
X-5679151Y-133654450D01*
X-15948151Y-136903950D02*
X-15948151Y-140204450D01*
X-5679151Y-95554450D02*
X-978750Y-95554450D01*
X-15948151Y-98803950D02*
X-15948151Y-102104450D01*
X-2449150Y-111380050D02*
X-5679151Y-111380050D01*
X-2449150Y-118129750D02*
X-2449150Y-111380050D01*
X-5679151Y-118129750D02*
X-2449150Y-118129750D01*
X-978750Y-119655150D02*
X-5679151Y-119655150D01*
X-10279051Y-119655150D02*
X-14978051Y-119655150D01*
X-14749450Y-118129750D02*
X-10279051Y-118129750D01*
X-978750Y-133654450D02*
X-978750Y-119655150D01*
X-5679151Y-133654450D02*
X-978750Y-133654450D01*
X-2449150Y-135180250D02*
X-5679151Y-135180250D01*
X-2449150Y-141929550D02*
X-2449150Y-135180250D01*
X-8479151Y-142753650D02*
X-5679151Y-142753650D01*
X-5679151Y-80029750D02*
X-2449150Y-80029750D01*
X-10279051Y-135180250D02*
X-14749450Y-135180250D01*
X-14749450Y-111380050D02*
X-14749450Y-113103750D01*
X-5679151Y-81555150D02*
X-5679151Y-80029750D01*
X-5679151Y-97080250D02*
X-5679151Y-95554450D01*
X-5679151Y-103829550D02*
X-2449150Y-103829550D01*
X-14978051Y-95554450D02*
X-14978051Y-81554850D01*
X-5679151Y-72454550D02*
X-8479151Y-72454550D01*
X-15948151Y-102104450D02*
X-14749450Y-102104450D01*
X-5679151Y-141929550D02*
X-2449150Y-141929550D01*
X-14749450Y-135180250D02*
X-14749450Y-136903950D01*
X-8479151Y-104653650D02*
X-5679151Y-104653650D01*
X-15948151Y-140204450D02*
X-14749450Y-140204450D01*
X-2449150Y-80029750D02*
X-2449150Y-73280050D01*
X256589100Y-75892694D02*
X260212566Y-89415655D01*
X281153100Y-93963694D02*
X284776566Y-107486655D01*
X230858528Y-146586189D02*
X227235061Y-133063227D01*
X217335566Y-150209655D02*
X230858528Y-146586189D01*
X245636061Y-128133227D02*
X232113100Y-131756694D01*
X273936566Y-149835655D02*
X287459528Y-146212189D01*
X257874061Y-100201227D02*
X244351100Y-103824694D01*
X-10279051Y-97080250D02*
X-14749450Y-97080250D01*
X-14749450Y-75003750D02*
X-15948151Y-75003750D01*
X261497528Y-113724189D02*
X257874061Y-100201227D01*
X-8479151Y-73280050D02*
X-14749450Y-73280050D01*
X261519100Y-94293694D02*
X265142566Y-107816655D01*
X222252100Y-94954694D02*
X225875566Y-108477655D01*
X232113100Y-131756694D02*
X235736566Y-145279655D01*
X283836061Y-132689227D02*
X270313100Y-136312694D01*
X287459528Y-146212189D02*
X283836061Y-132689227D01*
X266450100Y-112694694D02*
X270073566Y-126217655D01*
X227235061Y-133063227D02*
X213712100Y-136686694D01*
X275042061Y-90670227D02*
X261519100Y-94293694D01*
X278665528Y-104193189D02*
X275042061Y-90670227D01*
X240705061Y-109732227D02*
X227182100Y-113355694D01*
X239398528Y-104854189D02*
X235775061Y-91331227D01*
X-10279051Y-95554450D02*
X-10279051Y-97080250D01*
X-14978051Y-95554450D02*
X-10279051Y-95554450D01*
X-10279051Y-81555150D02*
X-14978051Y-81555150D01*
X-10279051Y-80029750D02*
X-10279051Y-81555150D01*
X244328528Y-123255189D02*
X240705061Y-109732227D01*
X227182100Y-113355694D02*
X230805566Y-126878655D01*
X262804061Y-118602227D02*
X249281100Y-122225694D01*
X213712100Y-136686694D02*
X217335566Y-150209655D01*
X-14749450Y-78304350D02*
X-14749450Y-80029750D01*
X-15948151Y-78304350D02*
X-14749450Y-78304350D01*
X-14749450Y-73280050D02*
X-14749450Y-75003750D01*
X230805566Y-126878655D02*
X244328528Y-123255189D01*
X279973061Y-109071227D02*
X266450100Y-112694694D01*
X-8479151Y-72454550D02*
X-8479151Y-73280050D01*
X270313100Y-136312694D02*
X273936566Y-149835655D01*
X256566528Y-95323189D02*
X252943061Y-81800227D01*
X243043566Y-98946655D02*
X256566528Y-95323189D01*
X270112061Y-72269227D02*
X256589100Y-75892694D01*
X286083100Y-112364694D02*
X289706566Y-125887655D01*
X244351100Y-103824694D02*
X247974566Y-117347655D01*
X283596528Y-122594189D02*
X279973061Y-109071227D01*
X235775061Y-91331227D02*
X222252100Y-94954694D01*
X249259528Y-141656189D02*
X245636061Y-128133227D01*
X266427528Y-132125189D02*
X262804061Y-118602227D01*
X270073566Y-126217655D02*
X283596528Y-122594189D01*
X-15948151Y-75003750D02*
X-15948151Y-78304350D01*
X-14749450Y-80029750D02*
X-10279051Y-80029750D01*
X249281100Y-122225694D02*
X252904566Y-135748655D01*
X252904566Y-135748655D02*
X266427528Y-132125189D01*
X303229528Y-122264189D02*
X299606061Y-108741227D01*
X299606061Y-108741227D02*
X286083100Y-112364694D01*
X247974566Y-117347655D02*
X261497528Y-113724189D01*
X289706566Y-125887655D02*
X303229528Y-122264189D01*
X298299528Y-103863189D02*
X294676061Y-90340227D01*
X265142566Y-107816655D02*
X278665528Y-104193189D01*
X235736566Y-145279655D02*
X249259528Y-141656189D01*
X294676061Y-90340227D02*
X281153100Y-93963694D01*
X284776566Y-107486655D02*
X298299528Y-103863189D01*
X225875566Y-108477655D02*
X239398528Y-104854189D01*
X239420100Y-85423694D02*
X243043566Y-98946655D01*
X252943061Y-81800227D02*
X239420100Y-85423694D01*
X198659705Y-150210299D02*
X202283172Y-136687338D01*
X268804528Y-67391789D02*
X265181061Y-53868827D01*
X166129119Y-161213754D02*
X167345763Y-156673178D01*
X279845566Y-89085655D02*
X293368528Y-85462189D01*
X284815061Y-53538527D02*
X271292100Y-57161994D01*
X265181061Y-53868827D02*
X251658100Y-57492294D01*
X251636528Y-76922189D02*
X248013061Y-63399227D01*
X234490100Y-67022694D02*
X238113566Y-80545655D01*
X278651061Y-30537427D02*
X265128100Y-34160894D01*
X248013061Y-63399227D02*
X234490100Y-67022694D01*
X238113566Y-80545655D02*
X251636528Y-76922189D01*
X234467528Y-86453189D02*
X230844061Y-72930227D01*
X231950566Y-57544855D02*
X245473528Y-53921389D01*
X230844061Y-72930227D02*
X217321100Y-76553694D01*
X217321100Y-76553694D02*
X220944566Y-90076655D01*
X180259705Y-145279299D02*
X183883172Y-131756338D01*
X220944566Y-90076655D02*
X234467528Y-86453189D01*
X163090705Y-135748299D02*
X166714172Y-122225338D01*
X185136744Y-146586833D02*
X198659705Y-150210299D01*
X282274528Y-44060389D02*
X278651061Y-30537427D01*
X183830210Y-151463871D02*
X180206744Y-164986833D01*
X180206744Y-164986833D02*
X193729705Y-168610299D01*
X197353172Y-155087338D02*
X183830210Y-151463871D01*
X268751566Y-47683855D02*
X282274528Y-44060389D01*
X245473528Y-53921389D02*
X241850061Y-40398427D01*
X259018061Y-30867727D02*
X245495100Y-34491194D01*
X241850061Y-40398427D02*
X228327100Y-44021894D01*
X123936744Y-144978833D02*
X137459705Y-148602299D01*
X228304528Y-63452089D02*
X224681061Y-49929127D01*
X136023210Y-109071871D02*
X132399744Y-122594833D01*
X188760210Y-133063871D02*
X185136744Y-146586833D01*
X224681061Y-49929127D02*
X211158100Y-53552594D01*
X193729705Y-168610299D02*
X197353172Y-155087338D01*
X137459705Y-148602299D02*
X141083172Y-135079338D01*
X156229624Y-144067325D02*
X155013681Y-148606640D01*
X166736744Y-141655833D02*
X180259705Y-145279299D01*
X132399744Y-122594833D02*
X145922705Y-126218299D01*
X202283172Y-136687338D02*
X188760210Y-133063871D01*
X170360210Y-128132871D02*
X166736744Y-141655833D01*
X153191210Y-118601871D02*
X149567744Y-132124833D01*
X214781566Y-67075555D02*
X228304528Y-63452089D01*
X245495100Y-34491194D02*
X249118566Y-48014155D01*
X262641528Y-44390689D02*
X259018061Y-30867727D01*
X211158100Y-53552594D02*
X214781566Y-67075555D01*
X249118566Y-48014155D02*
X262641528Y-44390689D01*
X166714172Y-122225338D02*
X153191210Y-118601871D01*
X149567744Y-132124833D02*
X163090705Y-135748299D01*
X289745061Y-71939227D02*
X276222100Y-75562694D01*
X273735528Y-85792189D02*
X270112061Y-72269227D01*
X260212566Y-89415655D02*
X273735528Y-85792189D01*
X141083172Y-135079338D02*
X127560210Y-131455871D01*
X149546172Y-112695338D02*
X136023210Y-109071871D01*
X276222100Y-75562694D02*
X279845566Y-89085655D01*
X145922705Y-126218299D02*
X149546172Y-112695338D01*
X127560210Y-131455871D02*
X123936744Y-144978833D01*
X293368528Y-85462189D02*
X289745061Y-71939227D01*
X251658100Y-57492294D02*
X255281566Y-71015255D01*
X288438528Y-67061489D02*
X284815061Y-53538527D01*
X274915566Y-70684955D02*
X288438528Y-67061489D01*
X228327100Y-44021894D02*
X231950566Y-57544855D01*
X183883172Y-131756338D02*
X170360210Y-128132871D01*
X265128100Y-34160894D02*
X268751566Y-47683855D01*
X271292100Y-57161994D02*
X274915566Y-70684955D01*
X255281566Y-71015255D02*
X268804528Y-67391789D01*
X112766744Y-122263833D02*
X126289705Y-125887299D01*
X116390210Y-108740871D02*
X112766744Y-122263833D01*
X121320210Y-90339871D02*
X117696744Y-103862833D01*
X126289705Y-125887299D02*
X129913172Y-112364338D01*
X129913172Y-112364338D02*
X116390210Y-108740871D01*
X184045705Y-57544799D02*
X187669172Y-44021838D01*
X187690744Y-63452133D02*
X201213705Y-67075599D01*
X181527744Y-86452833D02*
X195050705Y-90076299D01*
X154498744Y-113723833D02*
X168021705Y-117347299D01*
X193744172Y-94954338D02*
X180221210Y-91330871D01*
X176597744Y-104853833D02*
X190120705Y-108477299D01*
X122627744Y-85462833D02*
X136150705Y-89086299D01*
X188813172Y-113355338D02*
X175290210Y-109731871D01*
X337374600Y-143179800D02*
X337374600Y-129179800D01*
X145884210Y-72269871D02*
X142260744Y-85792833D01*
X185151210Y-72929871D02*
X181527744Y-86452833D01*
X191314210Y-49929171D02*
X187690744Y-63452133D01*
X156978210Y-30867671D02*
X153354744Y-44390633D01*
X150867172Y-34160838D02*
X137344210Y-30537371D01*
X187669172Y-44021838D02*
X174146210Y-40398371D01*
X170501172Y-34491138D02*
X156978210Y-30867671D01*
X163052210Y-81800871D02*
X159428744Y-95323833D01*
X155783705Y-89416299D02*
X159407172Y-75893338D01*
X136150705Y-89086299D02*
X139774172Y-75563338D01*
X127557744Y-67061433D02*
X141080705Y-70684899D01*
X198674172Y-76553338D02*
X185151210Y-72929871D01*
X147191744Y-67391733D02*
X160714705Y-71015199D01*
X167983210Y-63399871D02*
X164359744Y-76922833D01*
X164359744Y-76922833D02*
X177882705Y-80546299D01*
X147243705Y-47683799D02*
X150867172Y-34160838D01*
X176575172Y-85424338D02*
X163052210Y-81800871D01*
X142260744Y-85792833D02*
X155783705Y-89416299D01*
X180221210Y-91330871D02*
X176597744Y-104853833D01*
X166877705Y-48014099D02*
X170501172Y-34491138D01*
X160714705Y-71015199D02*
X164338172Y-57492238D01*
X159428744Y-95323833D02*
X172951705Y-98947299D01*
X181506172Y-67023338D02*
X167983210Y-63399871D01*
X137344210Y-30537371D02*
X133720744Y-44060333D01*
X134843172Y-93963338D02*
X121320210Y-90339871D01*
X150815210Y-53868771D02*
X147191744Y-67391733D01*
X131219705Y-107486299D02*
X134843172Y-93963338D01*
X175290210Y-109731871D02*
X171666744Y-123254833D01*
X117696744Y-103862833D02*
X131219705Y-107486299D01*
X140954210Y-90670871D02*
X137330744Y-104193833D01*
X154477172Y-94294338D02*
X140954210Y-90670871D01*
X150853705Y-107817299D02*
X154477172Y-94294338D01*
X190120705Y-108477299D02*
X193744172Y-94954338D01*
X172951705Y-98947299D02*
X176575172Y-85424338D01*
X153354744Y-44390633D02*
X166877705Y-48014099D01*
X137330744Y-104193833D02*
X150853705Y-107817299D01*
X170522744Y-53921333D02*
X184045705Y-57544799D01*
X158122210Y-100200871D02*
X154498744Y-113723833D01*
X195050705Y-90076299D02*
X198674172Y-76553338D01*
X131181210Y-53538471D02*
X127557744Y-67061433D01*
X171645172Y-103824338D02*
X158122210Y-100200871D01*
X171666744Y-123254833D02*
X185189705Y-126878299D01*
X159407172Y-75893338D02*
X145884210Y-72269871D01*
X126251210Y-71939871D02*
X122627744Y-85462833D01*
X144704172Y-57161938D02*
X131181210Y-53538471D01*
X164338172Y-57492238D02*
X150815210Y-53868771D01*
X177882705Y-80546299D02*
X181506172Y-67023338D01*
X174146210Y-40398371D02*
X170522744Y-53921333D01*
X139774172Y-75563338D02*
X126251210Y-71939871D01*
X168021705Y-117347299D02*
X171645172Y-103824338D01*
X204837172Y-53552638D02*
X191314210Y-49929171D01*
X185189705Y-126878299D02*
X188813172Y-113355338D01*
X133720744Y-44060333D02*
X147243705Y-47683799D01*
X141080705Y-70684899D02*
X144704172Y-57161938D01*
X201213705Y-67075599D02*
X204837172Y-53552638D01*
X387381599Y-43167000D02*
X387381599Y-29167000D01*
X325756600Y-72029800D02*
X325756600Y-86029800D01*
X363856600Y-66979499D02*
X377856600Y-66979499D01*
X320706600Y-86029800D02*
X320706600Y-72029800D01*
X323374600Y-143179800D02*
X337374600Y-143179800D01*
X335281600Y-52979500D02*
X335281600Y-66979499D01*
X335281600Y-66979499D02*
X349281600Y-66979499D01*
X339756600Y-72029800D02*
X325756600Y-72029800D01*
X361187600Y-143179800D02*
X361187600Y-129179800D01*
X316231600Y-66979499D02*
X330231600Y-66979499D01*
X347187600Y-129179800D02*
X347187600Y-143179800D01*
X384999600Y-129179800D02*
X370999600Y-129179800D01*
X311468600Y-91079800D02*
X311468600Y-105079800D01*
X325468600Y-91079800D02*
X311468600Y-91079800D01*
X370999600Y-86029800D02*
X370999600Y-91079800D01*
X344518600Y-105079800D02*
X344518600Y-91079800D01*
X358806600Y-86029800D02*
X358806600Y-72029800D01*
X330231600Y-66979499D02*
X330231600Y-52979500D01*
X370999600Y-91079800D02*
X361474599Y-91079800D01*
X325756600Y-86029800D02*
X339756600Y-86029800D01*
X311181600Y-52979500D02*
X297181599Y-52979500D01*
X358806600Y-72029800D02*
X344806600Y-72029800D01*
X344806600Y-86029800D02*
X358806600Y-86029800D01*
X373381600Y-43167000D02*
X387381599Y-43167000D01*
X347187600Y-143179800D02*
X361187600Y-143179800D01*
X370999600Y-129179800D02*
X370999600Y-143179800D01*
X370999600Y-143179800D02*
X384999600Y-143179800D01*
X325468600Y-110129800D02*
X311468600Y-110129800D01*
X368618600Y-72029800D02*
X368618600Y-86029800D01*
X387381599Y-124129800D02*
X387381599Y-110129800D01*
X330518600Y-91079800D02*
X330518600Y-105079800D01*
X373381600Y-124129800D02*
X387381599Y-124129800D01*
X311468600Y-105079800D02*
X325468600Y-105079800D01*
X325468600Y-105079800D02*
X325468600Y-91079800D01*
X306706600Y-72029800D02*
X306706600Y-86029800D01*
X387381599Y-29167000D02*
X373381600Y-29167000D01*
X373381600Y-110129800D02*
X373381600Y-124129800D01*
X344518600Y-91079800D02*
X330518600Y-91079800D01*
X361474599Y-105079800D02*
X375474599Y-105079800D01*
X387381599Y-110129800D02*
X373381600Y-110129800D01*
X382618600Y-81555150D02*
X382618600Y-80029750D01*
X339756600Y-86029800D02*
X339756600Y-72029800D01*
X311181600Y-66979499D02*
X311181600Y-52979500D01*
X330231600Y-52979500D02*
X316231600Y-52979500D01*
X297181599Y-52979500D02*
X297181599Y-66979499D01*
X361187600Y-129179800D02*
X347187600Y-129179800D01*
X306706600Y-86029800D02*
X320706600Y-86029800D01*
X323374600Y-129179800D02*
X323374600Y-143179800D01*
X337374600Y-129179800D02*
X323374600Y-129179800D01*
X384999600Y-143179800D02*
X384999600Y-129179800D01*
X311468600Y-110129800D02*
X311468600Y-124129800D01*
X325468600Y-124129800D02*
X325468600Y-110129800D01*
X311468600Y-124129800D02*
X325468600Y-124129800D01*
X344806600Y-72029800D02*
X344806600Y-86029800D01*
X368618600Y-86029800D02*
X370999600Y-86029800D01*
X330518600Y-105079800D02*
X344518600Y-105079800D01*
X384999600Y-95554800D02*
X384999600Y-81554800D01*
X373381600Y-29167000D02*
X373381600Y-43167000D01*
X382618600Y-72029800D02*
X368618600Y-72029800D01*
X320706600Y-72029800D02*
X306706600Y-72029800D01*
X349281600Y-52979500D02*
X335281600Y-52979500D01*
X297181599Y-66979499D02*
X311181600Y-66979499D01*
X316231600Y-52979500D02*
X316231600Y-66979499D01*
X349281600Y-66979499D02*
X349281600Y-52979500D01*
X85034600Y-66979499D02*
X99034600Y-66979499D01*
X113321600Y-86029800D02*
X113321600Y-72029800D01*
X89796600Y-124129800D02*
X103796600Y-124129800D01*
X106177600Y-129179800D02*
X92177600Y-129179800D01*
X89796600Y-110129800D02*
X89796600Y-124129800D01*
X103885600Y-29154300D02*
X89885600Y-29154300D01*
X108559600Y-105079800D02*
X108559600Y-91079800D01*
X311181600Y-29167000D02*
X297181599Y-29167000D01*
X122935600Y-43154300D02*
X122935600Y-29154300D01*
X94559600Y-91079800D02*
X94559600Y-105079800D01*
X89885600Y-29154300D02*
X89885600Y-43154300D01*
X99321600Y-86029800D02*
X113321600Y-86029800D01*
X82365600Y-105079800D02*
X82365600Y-91079800D01*
X103796600Y-124129800D02*
X103796600Y-110129800D01*
X89885600Y-43154300D02*
X103885600Y-43154300D01*
X89509600Y-86029800D02*
X89509600Y-72029800D01*
X75509600Y-72029800D02*
X75509600Y-86029800D01*
X92177600Y-129179800D02*
X92177600Y-143179800D01*
X68365600Y-129179800D02*
X68365600Y-143179800D01*
X68365600Y-143179800D02*
X82365600Y-143179800D01*
X63602600Y-105079800D02*
X82365600Y-105079800D01*
X46934600Y-143179800D02*
X60934600Y-143179800D01*
X75310600Y-29154300D02*
X61310600Y-29154300D01*
X61310600Y-43154300D02*
X75310600Y-43154300D01*
X368331600Y-43167000D02*
X368331600Y-29167000D01*
X354331600Y-29167000D02*
X354331600Y-43167000D01*
X92177600Y-143179800D02*
X106177600Y-143179800D01*
X82365600Y-143179800D02*
X82365600Y-129179800D01*
X106177600Y-143179800D02*
X106177600Y-129179800D01*
X60934600Y-143179800D02*
X60934600Y-129179800D01*
X61310600Y-29154300D02*
X61310600Y-43154300D01*
X368331600Y-29167000D02*
X354331600Y-29167000D01*
X118084600Y-66979499D02*
X118084600Y-52979500D01*
X82365600Y-129179800D02*
X68365600Y-129179800D01*
X46934600Y-129179800D02*
X46934600Y-143179800D01*
X354331600Y-43167000D02*
X368331600Y-43167000D01*
X297181599Y-43167000D02*
X311181600Y-43167000D01*
X316231600Y-43167000D02*
X330231600Y-43167000D01*
X311181600Y-43167000D02*
X311181600Y-29167000D01*
X108935600Y-29154300D02*
X108935600Y-43154300D01*
X297181599Y-29167000D02*
X297181599Y-43167000D01*
X99034600Y-66979499D02*
X99034600Y-52979500D01*
X75509600Y-86029800D02*
X89509600Y-86029800D01*
X104084600Y-52979500D02*
X104084600Y-66979499D01*
X122935600Y-29154300D02*
X108935600Y-29154300D01*
X94559600Y-105079800D02*
X108559600Y-105079800D01*
X108935600Y-43154300D02*
X122935600Y-43154300D01*
X118084600Y-52979500D02*
X104084600Y-52979500D01*
X63602600Y-91079800D02*
X63602600Y-105079800D01*
X103885600Y-43154300D02*
X103885600Y-29154300D01*
X330231600Y-43167000D02*
X330231600Y-29167000D01*
X75310600Y-43154300D02*
X75310600Y-29154300D01*
X108559600Y-91079800D02*
X94559600Y-91079800D01*
X82365600Y-91079800D02*
X63602600Y-91079800D01*
X60934600Y-129179800D02*
X46934600Y-129179800D01*
X330231600Y-29167000D02*
X316231600Y-29167000D01*
X99034600Y-52979500D02*
X85034600Y-52979500D01*
X89509600Y-72029800D02*
X75509600Y-72029800D01*
X103796600Y-110129800D02*
X89796600Y-110129800D01*
X316231600Y-29167000D02*
X316231600Y-43167000D01*
X85034600Y-52979500D02*
X85034600Y-66979499D01*
X104084600Y-66979499D02*
X118084600Y-66979499D01*
X113321600Y-72029800D02*
X99321600Y-72029800D01*
X99321600Y-72029800D02*
X99321600Y-86029800D01*
X41884600Y-124129800D02*
X41884600Y-110129800D01*
X27884600Y-110129800D02*
X27884600Y-124129800D01*
X27884600Y-129179800D02*
X27884600Y-143179800D01*
X41884600Y-110129800D02*
X27884600Y-110129800D01*
X27884600Y-124129800D02*
X41884600Y-124129800D01*
X41884600Y-143179800D02*
X41884600Y-129179800D01*
M02*
