  0
SECTION
  2
HEADER
  9
$ANGBASE
  50
0.0
  9
$ANGDIR
  70
1
  9
$MEASUREMENT
  70
0
  0
ENDSEC
  0
SECTION
  2
TABLES
  0
TABLE
  2
LTYPE
  70
4
  0
LTYPE
  5
40F
  2
CONTINUOUS
  70
0
  3
Solid line
  72
65
  73
0
  40
0.0
  0
LTYPE
  5
410
  2
DASHDOT
 70
0
  3
Dash Dot ____ _ ____ _
 72
65
 73
4
 40
2.0
 49
1.25
 49
-0.25
 49
0.25
 49
-0.25
  0
LTYPE
  5
411
  2
DASHED
 70
0
  3
Dashed __ __ __ __ __
 72
65
 73
2
 40
0.75
 49
0.5
 49
-0.25
  0
LTYPE
  5
43B
  2
DOTTED
 70
0
  3
Dotted .  .  .  .
 72
65
 73
2
 40
0.2
 49
0.0
 49
-0.2
  0
ENDTAB
  0
TABLE
  2
STYLE
  70
4
  0
STYLE
  2
KICAD
  70
0
  40
0
  41
1
  42
1
  50
0
  71
0
  3
isocp.shx
  0
STYLE
  2
KICADB
  70
0
  40
0
  41
1
  42
1
  50
0
  71
0
  3
isocp.shx
  0
STYLE
  2
KICADI
  70
0
  40
0
  41
1
  42
1
  50
15
  71
0
  3
isocp.shx
  0
STYLE
  2
KICADBI
  70
0
  40
0
  41
1
  42
1
  50
15
  71
0
  3
isocp.shx
  0
ENDTAB
  0
TABLE
  2
LAYER
  70
1
  0
LAYER
  2
BLACK
  70
0
  62
7
  6
CONTINUOUS
  0
ENDTAB
  0
ENDSEC
  0
SECTION
  2
ENTITIES
0
LINE
8
BLACK
6
CONTINUOUS
10
-14.2739
20
-7.46565
11
-14.3195
21
-7.47788
0
LINE
8
BLACK
6
CONTINUOUS
10
-14.3195
20
-7.47788
11
-14.3287
21
-7.44366
0
LINE
8
BLACK
6
CONTINUOUS
10
-14.3287
20
-7.44366
11
-14.2831
21
-7.43143
0
LINE
8
BLACK
6
CONTINUOUS
10
-14.2831
20
-7.43143
11
-14.2739
21
-7.46565
0
LINE
8
BLACK
6
CONTINUOUS
10
-15.0967
20
-7.42471
11
-15.1058
21
-7.45893
0
LINE
8
BLACK
6
CONTINUOUS
10
-15.1058
20
-7.45893
11
-15.1515
21
-7.4467
0
LINE
8
BLACK
6
CONTINUOUS
10
-15.1515
20
-7.4467
11
-15.1423
21
-7.41248
0
LINE
8
BLACK
6
CONTINUOUS
10
-15.1423
20
-7.41248
11
-15.0967
21
-7.42471
0
LINE
8
BLACK
6
CONTINUOUS
10
-14.3075
20
-7.34016
11
-14.3532
21
-7.35239
0
LINE
8
BLACK
6
CONTINUOUS
10
-14.3532
20
-7.35239
11
-14.3623
21
-7.31816
0
LINE
8
BLACK
6
CONTINUOUS
10
-14.3623
20
-7.31816
11
-14.3167
21
-7.30593
0
LINE
8
BLACK
6
CONTINUOUS
10
-14.3167
20
-7.30593
11
-14.3075
21
-7.34016
0
LINE
8
BLACK
6
CONTINUOUS
10
-15.063
20
-7.29921
11
-15.0722
21
-7.33344
0
LINE
8
BLACK
6
CONTINUOUS
10
-15.0722
20
-7.33344
11
-15.1179
21
-7.32121
0
LINE
8
BLACK
6
CONTINUOUS
10
-15.1179
20
-7.32121
11
-15.1087
21
-7.28698
0
LINE
8
BLACK
6
CONTINUOUS
10
-15.1087
20
-7.28698
11
-15.063
21
-7.29921
0
LINE
8
BLACK
6
CONTINUOUS
10
-15.8223
20
-7.25034
11
-15.8315
21
-7.28457
0
LINE
8
BLACK
6
CONTINUOUS
10
-15.8315
20
-7.28457
11
-15.8771
21
-7.27234
0
LINE
8
BLACK
6
CONTINUOUS
10
-15.8771
20
-7.27234
11
-15.8679
21
-7.23811
0
LINE
8
BLACK
6
CONTINUOUS
10
-15.8679
20
-7.23811
11
-15.8223
21
-7.25034
0
LINE
8
BLACK
6
CONTINUOUS
10
-15.7887
20
-7.12485
11
-15.7978
21
-7.15907
0
LINE
8
BLACK
6
CONTINUOUS
10
-15.7978
20
-7.15907
11
-15.8435
21
-7.14684
0
LINE
8
BLACK
6
CONTINUOUS
10
-15.8435
20
-7.14684
11
-15.8343
21
-7.11262
0
LINE
8
BLACK
6
CONTINUOUS
10
-15.8343
20
-7.11262
11
-15.7887
21
-7.12485
0
LINE
8
BLACK
6
CONTINUOUS
10
-12.2817
20
-6.93184
11
-12.3273
21
-6.94407
0
LINE
8
BLACK
6
CONTINUOUS
10
-12.3273
20
-6.94407
11
-12.3365
21
-6.90984
0
LINE
8
BLACK
6
CONTINUOUS
10
-12.3365
20
-6.90984
11
-12.2908
21
-6.89761
0
LINE
8
BLACK
6
CONTINUOUS
10
-12.2908
20
-6.89761
11
-12.2817
21
-6.93184
0
LINE
8
BLACK
6
CONTINUOUS
10
-12.3153
20
-6.80634
11
-12.3609
21
-6.81857
0
LINE
8
BLACK
6
CONTINUOUS
10
-12.3609
20
-6.81857
11
-12.3701
21
-6.78435
0
LINE
8
BLACK
6
CONTINUOUS
10
-12.3701
20
-6.78435
11
-12.3245
21
-6.77212
0
LINE
8
BLACK
6
CONTINUOUS
10
-12.3245
20
-6.77212
11
-12.3153
21
-6.80634
0
LINE
8
BLACK
6
CONTINUOUS
10
-14.4684
20
-6.74195
11
-14.514
21
-6.75417
0
LINE
8
BLACK
6
CONTINUOUS
10
-14.514
20
-6.75417
11
-14.5232
21
-6.71995
0
LINE
8
BLACK
6
CONTINUOUS
10
-14.5232
20
-6.71995
11
-14.4775
21
-6.70772
0
LINE
8
BLACK
6
CONTINUOUS
10
-14.4775
20
-6.70772
11
-14.4684
21
-6.74195
0
LINE
8
BLACK
6
CONTINUOUS
10
-17.8156
20
-6.71575
11
-17.8248
21
-6.74998
0
LINE
8
BLACK
6
CONTINUOUS
10
-17.8248
20
-6.74998
11
-17.8704
21
-6.73775
0
LINE
8
BLACK
6
CONTINUOUS
10
-17.8704
20
-6.73775
11
-17.8613
21
-6.70353
0
LINE
8
BLACK
6
CONTINUOUS
10
-17.8613
20
-6.70353
11
-17.8156
21
-6.71575
0
LINE
8
BLACK
6
CONTINUOUS
10
-14.9026
20
-6.70026
11
-14.9117
21
-6.73449
0
LINE
8
BLACK
6
CONTINUOUS
10
-14.9117
20
-6.73449
11
-14.9574
21
-6.72226
0
LINE
8
BLACK
6
CONTINUOUS
10
-14.9574
20
-6.72226
11
-14.9482
21
-6.68803
0
LINE
8
BLACK
6
CONTINUOUS
10
-14.9482
20
-6.68803
11
-14.9026
21
-6.70026
0
LINE
8
BLACK
6
CONTINUOUS
10
-14.502
20
-6.61645
11
-14.5476
21
-6.62868
0
LINE
8
BLACK
6
CONTINUOUS
10
-14.5476
20
-6.62868
11
-14.5568
21
-6.59445
0
LINE
8
BLACK
6
CONTINUOUS
10
-14.5568
20
-6.59445
11
-14.5112
21
-6.58223
0
LINE
8
BLACK
6
CONTINUOUS
10
-14.5112
20
-6.58223
11
-14.502
21
-6.61645
0
LINE
8
BLACK
6
CONTINUOUS
10
-17.782
20
-6.59026
11
-17.7912
21
-6.62449
0
LINE
8
BLACK
6
CONTINUOUS
10
-17.7912
20
-6.62449
11
-17.8368
21
-6.61226
0
LINE
8
BLACK
6
CONTINUOUS
10
-17.8368
20
-6.61226
11
-17.8276
21
-6.57803
0
LINE
8
BLACK
6
CONTINUOUS
10
-17.8276
20
-6.57803
11
-17.782
21
-6.59026
0
LINE
8
BLACK
6
CONTINUOUS
10
-14.8689
20
-6.57477
11
-14.8781
21
-6.60899
0
LINE
8
BLACK
6
CONTINUOUS
10
-14.8781
20
-6.60899
11
-14.9237
21
-6.59677
0
LINE
8
BLACK
6
CONTINUOUS
10
-14.9237
20
-6.59677
11
-14.9146
21
-6.56254
0
LINE
8
BLACK
6
CONTINUOUS
10
-14.9146
20
-6.56254
11
-14.8689
21
-6.57477
0
LINE
8
BLACK
6
CONTINUOUS
10
-15.627
20
-6.52583
11
-15.6362
21
-6.56006
0
LINE
8
BLACK
6
CONTINUOUS
10
-15.6362
20
-6.56006
11
-15.6818
21
-6.54783
0
LINE
8
BLACK
6
CONTINUOUS
10
-15.6818
20
-6.54783
11
-15.6726
21
-6.51361
0
LINE
8
BLACK
6
CONTINUOUS
10
-15.6726
20
-6.51361
11
-15.627
21
-6.52583
0
LINE
8
BLACK
6
CONTINUOUS
10
-13.7439
20
-6.54783
11
-13.7896
21
-6.56006
0
LINE
8
BLACK
6
CONTINUOUS
10
-13.7896
20
-6.56006
11
-13.7987
21
-6.52583
0
LINE
8
BLACK
6
CONTINUOUS
10
-13.7987
20
-6.52583
11
-13.7531
21
-6.51361
0
LINE
8
BLACK
6
CONTINUOUS
10
-13.7531
20
-6.51361
11
-13.7439
21
-6.54783
0
LINE
8
BLACK
6
CONTINUOUS
10
-8.26202
20
-6.55368
11
-8.30926
21
-6.55368
0
LINE
8
BLACK
6
CONTINUOUS
10
-8.30926
20
-6.55368
11
-8.30926
21
-6.51824
0
LINE
8
BLACK
6
CONTINUOUS
10
-8.30926
20
-6.51824
11
-8.26202
21
-6.51824
0
LINE
8
BLACK
6
CONTINUOUS
10
-8.26202
20
-6.51824
11
-8.26202
21
-6.55368
0
LINE
8
BLACK
6
CONTINUOUS
10
-10.1359
20
-6.55368
11
-10.1831
21
-6.55368
0
LINE
8
BLACK
6
CONTINUOUS
10
-10.1831
20
-6.55368
11
-10.1831
21
-6.51824
0
LINE
8
BLACK
6
CONTINUOUS
10
-10.1831
20
-6.51824
11
-10.1359
21
-6.51824
0
LINE
8
BLACK
6
CONTINUOUS
10
-10.1359
20
-6.51824
11
-10.1359
21
-6.55368
0
LINE
8
BLACK
6
CONTINUOUS
10
-9.19902
20
-6.55368
11
-9.24626
21
-6.55368
0
LINE
8
BLACK
6
CONTINUOUS
10
-9.24626
20
-6.55368
11
-9.24626
21
-6.51824
0
LINE
8
BLACK
6
CONTINUOUS
10
-9.24626
20
-6.51824
11
-9.19902
21
-6.51824
0
LINE
8
BLACK
6
CONTINUOUS
10
-9.19902
20
-6.51824
11
-9.19902
21
-6.55368
0
LINE
8
BLACK
6
CONTINUOUS
10
-24.6964
20
-6.55268
11
-24.7436
21
-6.55268
0
LINE
8
BLACK
6
CONTINUOUS
10
-24.7436
20
-6.55268
11
-24.7436
21
-6.51724
0
LINE
8
BLACK
6
CONTINUOUS
10
-24.7436
20
-6.51724
11
-24.6964
21
-6.51724
0
LINE
8
BLACK
6
CONTINUOUS
10
-24.6964
20
-6.51724
11
-24.6964
21
-6.55268
0
LINE
8
BLACK
6
CONTINUOUS
10
-20.7564
20
-6.55268
11
-20.8036
21
-6.55268
0
LINE
8
BLACK
6
CONTINUOUS
10
-20.8036
20
-6.55268
11
-20.8036
21
-6.51724
0
LINE
8
BLACK
6
CONTINUOUS
10
-20.8036
20
-6.51724
11
-20.7564
21
-6.51724
0
LINE
8
BLACK
6
CONTINUOUS
10
-20.7564
20
-6.51724
11
-20.7564
21
-6.55268
0
LINE
8
BLACK
6
CONTINUOUS
10
-18.8826
20
-6.55268
11
-18.9299
21
-6.55268
0
LINE
8
BLACK
6
CONTINUOUS
10
-18.9299
20
-6.55268
11
-18.9299
21
-6.51724
0
LINE
8
BLACK
6
CONTINUOUS
10
-18.9299
20
-6.51724
11
-18.8826
21
-6.51724
0
LINE
8
BLACK
6
CONTINUOUS
10
-18.8826
20
-6.51724
11
-18.8826
21
-6.55268
0
LINE
8
BLACK
6
CONTINUOUS
10
-19.8176
20
-6.55268
11
-19.8649
21
-6.55268
0
LINE
8
BLACK
6
CONTINUOUS
10
-19.8649
20
-6.55268
11
-19.8649
21
-6.51724
0
LINE
8
BLACK
6
CONTINUOUS
10
-19.8649
20
-6.51724
11
-19.8176
21
-6.51724
0
LINE
8
BLACK
6
CONTINUOUS
10
-19.8176
20
-6.51724
11
-19.8176
21
-6.55268
0
LINE
8
BLACK
6
CONTINUOUS
10
-22.2589
20
-6.55268
11
-22.3061
21
-6.55268
0
LINE
8
BLACK
6
CONTINUOUS
10
-22.3061
20
-6.55268
11
-22.3061
21
-6.51724
0
LINE
8
BLACK
6
CONTINUOUS
10
-22.3061
20
-6.51724
11
-22.2589
21
-6.51724
0
LINE
8
BLACK
6
CONTINUOUS
10
-22.2589
20
-6.51724
11
-22.2589
21
-6.55268
0
LINE
8
BLACK
6
CONTINUOUS
10
-21.5064
20
-6.55268
11
-21.5536
21
-6.55268
0
LINE
8
BLACK
6
CONTINUOUS
10
-21.5536
20
-6.55268
11
-21.5536
21
-6.51724
0
LINE
8
BLACK
6
CONTINUOUS
10
-21.5536
20
-6.51724
11
-21.5064
21
-6.51724
0
LINE
8
BLACK
6
CONTINUOUS
10
-21.5064
20
-6.51724
11
-21.5064
21
-6.55268
0
LINE
8
BLACK
6
CONTINUOUS
10
-15.5934
20
-6.40034
11
-15.6025
21
-6.43456
0
LINE
8
BLACK
6
CONTINUOUS
10
-15.6025
20
-6.43456
11
-15.6482
21
-6.42234
0
LINE
8
BLACK
6
CONTINUOUS
10
-15.6482
20
-6.42234
11
-15.639
21
-6.38811
0
LINE
8
BLACK
6
CONTINUOUS
10
-15.639
20
-6.38811
11
-15.5934
21
-6.40034
0
LINE
8
BLACK
6
CONTINUOUS
10
-13.7776
20
-6.42234
11
-13.8232
21
-6.43456
0
LINE
8
BLACK
6
CONTINUOUS
10
-13.8232
20
-6.43456
11
-13.8324
21
-6.40034
0
LINE
8
BLACK
6
CONTINUOUS
10
-13.8324
20
-6.40034
11
-13.7867
21
-6.38811
0
LINE
8
BLACK
6
CONTINUOUS
10
-13.7867
20
-6.38811
11
-13.7776
21
-6.42234
0
LINE
8
BLACK
6
CONTINUOUS
10
-10.1359
20
-6.42376
11
-10.1831
21
-6.42376
0
LINE
8
BLACK
6
CONTINUOUS
10
-10.1831
20
-6.42376
11
-10.1831
21
-6.38832
0
LINE
8
BLACK
6
CONTINUOUS
10
-10.1831
20
-6.38832
11
-10.1359
21
-6.38832
0
LINE
8
BLACK
6
CONTINUOUS
10
-10.1359
20
-6.38832
11
-10.1359
21
-6.42376
0
LINE
8
BLACK
6
CONTINUOUS
10
-9.19902
20
-6.42376
11
-9.24626
21
-6.42376
0
LINE
8
BLACK
6
CONTINUOUS
10
-9.24626
20
-6.42376
11
-9.24626
21
-6.38832
0
LINE
8
BLACK
6
CONTINUOUS
10
-9.24626
20
-6.38832
11
-9.19902
21
-6.38832
0
LINE
8
BLACK
6
CONTINUOUS
10
-9.19902
20
-6.38832
11
-9.19902
21
-6.42376
0
LINE
8
BLACK
6
CONTINUOUS
10
-8.26202
20
-6.42376
11
-8.30926
21
-6.42376
0
LINE
8
BLACK
6
CONTINUOUS
10
-8.30926
20
-6.42376
11
-8.30926
21
-6.38832
0
LINE
8
BLACK
6
CONTINUOUS
10
-8.30926
20
-6.38832
11
-8.26202
21
-6.38832
0
LINE
8
BLACK
6
CONTINUOUS
10
-8.26202
20
-6.38832
11
-8.26202
21
-6.42376
0
LINE
8
BLACK
6
CONTINUOUS
10
-20.7564
20
-6.42276
11
-20.8036
21
-6.42276
0
LINE
8
BLACK
6
CONTINUOUS
10
-20.8036
20
-6.42276
11
-20.8036
21
-6.38732
0
LINE
8
BLACK
6
CONTINUOUS
10
-20.8036
20
-6.38732
11
-20.7564
21
-6.38732
0
LINE
8
BLACK
6
CONTINUOUS
10
-20.7564
20
-6.38732
11
-20.7564
21
-6.42276
0
LINE
8
BLACK
6
CONTINUOUS
10
-21.5064
20
-6.42276
11
-21.5536
21
-6.42276
0
LINE
8
BLACK
6
CONTINUOUS
10
-21.5536
20
-6.42276
11
-21.5536
21
-6.38732
0
LINE
8
BLACK
6
CONTINUOUS
10
-21.5536
20
-6.38732
11
-21.5064
21
-6.38732
0
LINE
8
BLACK
6
CONTINUOUS
10
-21.5064
20
-6.38732
11
-21.5064
21
-6.42276
0
LINE
8
BLACK
6
CONTINUOUS
10
-22.2589
20
-6.42276
11
-22.3061
21
-6.42276
0
LINE
8
BLACK
6
CONTINUOUS
10
-22.3061
20
-6.42276
11
-22.3061
21
-6.38732
0
LINE
8
BLACK
6
CONTINUOUS
10
-22.3061
20
-6.38732
11
-22.2589
21
-6.38732
0
LINE
8
BLACK
6
CONTINUOUS
10
-22.2589
20
-6.38732
11
-22.2589
21
-6.42276
0
LINE
8
BLACK
6
CONTINUOUS
10
-18.8826
20
-6.42276
11
-18.9299
21
-6.42276
0
LINE
8
BLACK
6
CONTINUOUS
10
-18.9299
20
-6.42276
11
-18.9299
21
-6.38732
0
LINE
8
BLACK
6
CONTINUOUS
10
-18.9299
20
-6.38732
11
-18.8826
21
-6.38732
0
LINE
8
BLACK
6
CONTINUOUS
10
-18.8826
20
-6.38732
11
-18.8826
21
-6.42276
0
LINE
8
BLACK
6
CONTINUOUS
10
-19.8176
20
-6.42276
11
-19.8649
21
-6.42276
0
LINE
8
BLACK
6
CONTINUOUS
10
-19.8649
20
-6.42276
11
-19.8649
21
-6.38732
0
LINE
8
BLACK
6
CONTINUOUS
10
-19.8649
20
-6.38732
11
-19.8176
21
-6.38732
0
LINE
8
BLACK
6
CONTINUOUS
10
-19.8176
20
-6.38732
11
-19.8176
21
-6.42276
0
LINE
8
BLACK
6
CONTINUOUS
10
-24.6964
20
-6.42276
11
-24.7436
21
-6.42276
0
LINE
8
BLACK
6
CONTINUOUS
10
-24.7436
20
-6.42276
11
-24.7436
21
-6.38732
0
LINE
8
BLACK
6
CONTINUOUS
10
-24.7436
20
-6.38732
11
-24.6964
21
-6.38732
0
LINE
8
BLACK
6
CONTINUOUS
10
-24.6964
20
-6.38732
11
-24.6964
21
-6.42276
0
LINE
8
BLACK
6
CONTINUOUS
10
-16.3514
20
-6.33172
11
-16.3606
21
-6.36594
0
LINE
8
BLACK
6
CONTINUOUS
10
-16.3606
20
-6.36594
11
-16.4063
21
-6.35372
0
LINE
8
BLACK
6
CONTINUOUS
10
-16.4063
20
-6.35372
11
-16.3971
21
-6.31949
0
LINE
8
BLACK
6
CONTINUOUS
10
-16.3971
20
-6.31949
11
-16.3514
21
-6.33172
0
LINE
8
BLACK
6
CONTINUOUS
10
-13.0195
20
-6.35372
11
-13.0651
21
-6.36594
0
LINE
8
BLACK
6
CONTINUOUS
10
-13.0651
20
-6.36594
11
-13.0743
21
-6.33172
0
LINE
8
BLACK
6
CONTINUOUS
10
-13.0743
20
-6.33172
11
-13.0287
21
-6.31949
0
LINE
8
BLACK
6
CONTINUOUS
10
-13.0287
20
-6.31949
11
-13.0195
21
-6.35372
0
LINE
8
BLACK
6
CONTINUOUS
10
-16.3178
20
-6.20622
11
-16.327
21
-6.24045
0
LINE
8
BLACK
6
CONTINUOUS
10
-16.327
20
-6.24045
11
-16.3726
21
-6.22822
0
LINE
8
BLACK
6
CONTINUOUS
10
-16.3726
20
-6.22822
11
-16.3635
21
-6.194
0
LINE
8
BLACK
6
CONTINUOUS
10
-16.3635
20
-6.194
11
-16.3178
21
-6.20622
0
LINE
8
BLACK
6
CONTINUOUS
10
-13.0531
20
-6.22822
11
-13.0988
21
-6.24045
0
LINE
8
BLACK
6
CONTINUOUS
10
-13.0988
20
-6.24045
11
-13.1079
21
-6.20622
0
LINE
8
BLACK
6
CONTINUOUS
10
-13.1079
20
-6.20622
11
-13.0623
21
-6.194
0
LINE
8
BLACK
6
CONTINUOUS
10
-13.0623
20
-6.194
11
-13.0531
21
-6.22822
0
LINE
8
BLACK
6
CONTINUOUS
10
-23.1964
20
-6.17768
11
-23.2436
21
-6.17768
0
LINE
8
BLACK
6
CONTINUOUS
10
-23.2436
20
-6.17768
11
-23.2436
21
-6.14224
0
LINE
8
BLACK
6
CONTINUOUS
10
-23.2436
20
-6.14224
11
-23.1964
21
-6.14224
0
LINE
8
BLACK
6
CONTINUOUS
10
-23.1964
20
-6.14224
11
-23.1964
21
-6.17768
0
LINE
8
BLACK
6
CONTINUOUS
10
-12.295
20
-6.1596
11
-12.3407
21
-6.17183
0
LINE
8
BLACK
6
CONTINUOUS
10
-12.3407
20
-6.17183
11
-12.3499
21
-6.1376
0
LINE
8
BLACK
6
CONTINUOUS
10
-12.3499
20
-6.1376
11
-12.3042
21
-6.12538
0
LINE
8
BLACK
6
CONTINUOUS
10
-12.3042
20
-6.12538
11
-12.295
21
-6.1596
0
LINE
8
BLACK
6
CONTINUOUS
10
-17.0759
20
-6.1376
11
-17.0851
21
-6.17183
0
LINE
8
BLACK
6
CONTINUOUS
10
-17.0851
20
-6.17183
11
-17.1307
21
-6.1596
0
LINE
8
BLACK
6
CONTINUOUS
10
-17.1307
20
-6.1596
11
-17.1215
21
-6.12538
0
LINE
8
BLACK
6
CONTINUOUS
10
-17.1215
20
-6.12538
11
-17.0759
21
-6.1376
0
LINE
8
BLACK
6
CONTINUOUS
10
-24.3922
20
-6.11862
11
-24.4277
21
-6.11862
0
LINE
8
BLACK
6
CONTINUOUS
10
-24.4277
20
-6.11862
11
-24.4277
21
-6.07138
0
LINE
8
BLACK
6
CONTINUOUS
10
-24.4277
20
-6.07138
11
-24.3922
21
-6.07138
0
LINE
8
BLACK
6
CONTINUOUS
10
-24.3922
20
-6.07138
11
-24.3922
21
-6.11862
0
LINE
8
BLACK
6
CONTINUOUS
10
-25.7623
20
-6.11862
11
-25.7978
21
-6.11862
0
LINE
8
BLACK
6
CONTINUOUS
10
-25.7978
20
-6.11862
11
-25.7978
21
-6.07138
0
LINE
8
BLACK
6
CONTINUOUS
10
-25.7978
20
-6.07138
11
-25.7623
21
-6.07138
0
LINE
8
BLACK
6
CONTINUOUS
10
-25.7623
20
-6.07138
11
-25.7623
21
-6.11862
0
LINE
8
BLACK
6
CONTINUOUS
10
-25.8922
20
-6.11862
11
-25.9277
21
-6.11862
0
LINE
8
BLACK
6
CONTINUOUS
10
-25.9277
20
-6.11862
11
-25.9277
21
-6.07138
0
LINE
8
BLACK
6
CONTINUOUS
10
-25.9277
20
-6.07138
11
-25.8922
21
-6.07138
0
LINE
8
BLACK
6
CONTINUOUS
10
-25.8922
20
-6.07138
11
-25.8922
21
-6.11862
0
LINE
8
BLACK
6
CONTINUOUS
10
-24.2623
20
-6.11862
11
-24.2978
21
-6.11862
0
LINE
8
BLACK
6
CONTINUOUS
10
-24.2978
20
-6.11862
11
-24.2978
21
-6.07138
0
LINE
8
BLACK
6
CONTINUOUS
10
-24.2978
20
-6.07138
11
-24.2623
21
-6.07138
0
LINE
8
BLACK
6
CONTINUOUS
10
-24.2623
20
-6.07138
11
-24.2623
21
-6.11862
0
LINE
8
BLACK
6
CONTINUOUS
10
-23.1964
20
-6.04776
11
-23.2436
21
-6.04776
0
LINE
8
BLACK
6
CONTINUOUS
10
-23.2436
20
-6.04776
11
-23.2436
21
-6.01232
0
LINE
8
BLACK
6
CONTINUOUS
10
-23.2436
20
-6.01232
11
-23.1964
21
-6.01232
0
LINE
8
BLACK
6
CONTINUOUS
10
-23.1964
20
-6.01232
11
-23.1964
21
-6.04776
0
LINE
8
BLACK
6
CONTINUOUS
10
-12.3287
20
-6.03411
11
-12.3743
21
-6.04634
0
LINE
8
BLACK
6
CONTINUOUS
10
-12.3743
20
-6.04634
11
-12.3835
21
-6.01211
0
LINE
8
BLACK
6
CONTINUOUS
10
-12.3835
20
-6.01211
11
-12.3378
21
-5.99988
0
LINE
8
BLACK
6
CONTINUOUS
10
-12.3378
20
-5.99988
11
-12.3287
21
-6.03411
0
LINE
8
BLACK
6
CONTINUOUS
10
-17.0423
20
-6.01211
11
-17.0514
21
-6.04634
0
LINE
8
BLACK
6
CONTINUOUS
10
-17.0514
20
-6.04634
11
-17.0971
21
-6.03411
0
LINE
8
BLACK
6
CONTINUOUS
10
-17.0971
20
-6.03411
11
-17.0879
21
-5.99988
0
LINE
8
BLACK
6
CONTINUOUS
10
-17.0879
20
-5.99988
11
-17.0423
21
-6.01211
0
LINE
8
BLACK
6
CONTINUOUS
10
-17.8003
20
-5.94349
11
-17.8095
21
-5.97772
0
LINE
8
BLACK
6
CONTINUOUS
10
-17.8095
20
-5.97772
11
-17.8551
21
-5.96549
0
LINE
8
BLACK
6
CONTINUOUS
10
-17.8551
20
-5.96549
11
-17.846
21
-5.93126
0
LINE
8
BLACK
6
CONTINUOUS
10
-17.846
20
-5.93126
11
-17.8003
21
-5.94349
0
LINE
8
BLACK
6
CONTINUOUS
10
-11.5706
20
-5.96549
11
-11.6162
21
-5.97772
0
LINE
8
BLACK
6
CONTINUOUS
10
-11.6162
20
-5.97772
11
-11.6254
21
-5.94349
0
LINE
8
BLACK
6
CONTINUOUS
10
-11.6254
20
-5.94349
11
-11.5798
21
-5.93126
0
LINE
8
BLACK
6
CONTINUOUS
10
-11.5798
20
-5.93126
11
-11.5706
21
-5.96549
0
LINE
8
BLACK
6
CONTINUOUS
10
-17.7667
20
-5.818
11
-17.7759
21
-5.85222
0
LINE
8
BLACK
6
CONTINUOUS
10
-17.7759
20
-5.85222
11
-17.8215
21
-5.83999
0
LINE
8
BLACK
6
CONTINUOUS
10
-17.8215
20
-5.83999
11
-17.8123
21
-5.80577
0
LINE
8
BLACK
6
CONTINUOUS
10
-17.8123
20
-5.80577
11
-17.7667
21
-5.818
0
LINE
8
BLACK
6
CONTINUOUS
10
-11.6042
20
-5.83999
11
-11.6499
21
-5.85222
0
LINE
8
BLACK
6
CONTINUOUS
10
-11.6499
20
-5.85222
11
-11.659
21
-5.818
0
LINE
8
BLACK
6
CONTINUOUS
10
-11.659
20
-5.818
11
-11.6134
21
-5.80577
0
LINE
8
BLACK
6
CONTINUOUS
10
-11.6134
20
-5.80577
11
-11.6042
21
-5.83999
0
LINE
8
BLACK
6
CONTINUOUS
10
-15.492
20
-5.78583
11
-15.5012
21
-5.82006
0
LINE
8
BLACK
6
CONTINUOUS
10
-15.5012
20
-5.82006
11
-15.5468
21
-5.80783
0
LINE
8
BLACK
6
CONTINUOUS
10
-15.5468
20
-5.80783
11
-15.5376
21
-5.77361
0
LINE
8
BLACK
6
CONTINUOUS
10
-15.5376
20
-5.77361
11
-15.492
21
-5.78583
0
LINE
8
BLACK
6
CONTINUOUS
10
-13.8801
20
-5.80666
11
-13.9258
21
-5.81889
0
LINE
8
BLACK
6
CONTINUOUS
10
-13.9258
20
-5.81889
11
-13.9349
21
-5.78466
0
LINE
8
BLACK
6
CONTINUOUS
10
-13.9349
20
-5.78466
11
-13.8893
21
-5.77244
0
LINE
8
BLACK
6
CONTINUOUS
10
-13.8893
20
-5.77244
11
-13.8801
21
-5.80666
0
LINE
8
BLACK
6
CONTINUOUS
10
-9.76287
20
-5.80468
11
-9.81011
21
-5.80468
0
LINE
8
BLACK
6
CONTINUOUS
10
-9.81011
20
-5.80468
11
-9.81011
21
-5.76924
0
LINE
8
BLACK
6
CONTINUOUS
10
-9.81011
20
-5.76924
11
-9.76287
21
-5.76924
0
LINE
8
BLACK
6
CONTINUOUS
10
-9.76287
20
-5.76924
11
-9.76287
21
-5.80468
0
LINE
8
BLACK
6
CONTINUOUS
10
-25.4464
20
-5.80268
11
-25.4936
21
-5.80268
0
LINE
8
BLACK
6
CONTINUOUS
10
-25.4936
20
-5.80268
11
-25.4936
21
-5.76724
0
LINE
8
BLACK
6
CONTINUOUS
10
-25.4936
20
-5.76724
11
-25.4464
21
-5.76724
0
LINE
8
BLACK
6
CONTINUOUS
10
-25.4464
20
-5.76724
11
-25.4464
21
-5.80268
0
LINE
8
BLACK
6
CONTINUOUS
10
-19.0664
20
-5.80268
11
-19.1136
21
-5.80268
0
LINE
8
BLACK
6
CONTINUOUS
10
-19.1136
20
-5.80268
11
-19.1136
21
-5.76724
0
LINE
8
BLACK
6
CONTINUOUS
10
-19.1136
20
-5.76724
11
-19.0664
21
-5.76724
0
LINE
8
BLACK
6
CONTINUOUS
10
-19.0664
20
-5.76724
11
-19.0664
21
-5.80268
0
LINE
8
BLACK
6
CONTINUOUS
10
-21.5064
20
-5.80268
11
-21.5536
21
-5.80268
0
LINE
8
BLACK
6
CONTINUOUS
10
-21.5536
20
-5.80268
11
-21.5536
21
-5.76724
0
LINE
8
BLACK
6
CONTINUOUS
10
-21.5536
20
-5.76724
11
-21.5064
21
-5.76724
0
LINE
8
BLACK
6
CONTINUOUS
10
-21.5064
20
-5.76724
11
-21.5064
21
-5.80268
0
LINE
8
BLACK
6
CONTINUOUS
10
-23.9464
20
-5.80268
11
-23.9936
21
-5.80268
0
LINE
8
BLACK
6
CONTINUOUS
10
-23.9936
20
-5.80268
11
-23.9936
21
-5.76724
0
LINE
8
BLACK
6
CONTINUOUS
10
-23.9936
20
-5.76724
11
-23.9464
21
-5.76724
0
LINE
8
BLACK
6
CONTINUOUS
10
-23.9464
20
-5.76724
11
-23.9464
21
-5.80268
0
LINE
8
BLACK
6
CONTINUOUS
10
-8.07512
20
-5.80268
11
-8.12236
21
-5.80268
0
LINE
8
BLACK
6
CONTINUOUS
10
-8.12236
20
-5.80268
11
-8.12236
21
-5.76724
0
LINE
8
BLACK
6
CONTINUOUS
10
-8.12236
20
-5.76724
11
-8.07512
21
-5.76724
0
LINE
8
BLACK
6
CONTINUOUS
10
-8.07512
20
-5.76724
11
-8.07512
21
-5.80268
0
LINE
8
BLACK
6
CONTINUOUS
10
-24.6964
20
-5.80268
11
-24.7436
21
-5.80268
0
LINE
8
BLACK
6
CONTINUOUS
10
-24.7436
20
-5.80268
11
-24.7436
21
-5.76724
0
LINE
8
BLACK
6
CONTINUOUS
10
-24.7436
20
-5.76724
11
-24.6964
21
-5.76724
0
LINE
8
BLACK
6
CONTINUOUS
10
-24.6964
20
-5.76724
11
-24.6964
21
-5.80268
0
LINE
8
BLACK
6
CONTINUOUS
10
-19.8164
20
-5.80268
11
-19.8636
21
-5.80268
0
LINE
8
BLACK
6
CONTINUOUS
10
-19.8636
20
-5.80268
11
-19.8636
21
-5.76724
0
LINE
8
BLACK
6
CONTINUOUS
10
-19.8636
20
-5.76724
11
-19.8164
21
-5.76724
0
LINE
8
BLACK
6
CONTINUOUS
10
-19.8164
20
-5.76724
11
-19.8164
21
-5.80268
0
LINE
8
BLACK
6
CONTINUOUS
10
-10.5131
20
-5.80168
11
-10.5604
21
-5.80168
0
LINE
8
BLACK
6
CONTINUOUS
10
-10.5604
20
-5.80168
11
-10.5604
21
-5.76624
0
LINE
8
BLACK
6
CONTINUOUS
10
-10.5604
20
-5.76624
11
-10.5131
21
-5.76624
0
LINE
8
BLACK
6
CONTINUOUS
10
-10.5131
20
-5.76624
11
-10.5131
21
-5.80168
0
LINE
8
BLACK
6
CONTINUOUS
10
-15.4584
20
-5.66034
11
-15.4675
21
-5.69456
0
LINE
8
BLACK
6
CONTINUOUS
10
-15.4675
20
-5.69456
11
-15.5132
21
-5.68234
0
LINE
8
BLACK
6
CONTINUOUS
10
-15.5132
20
-5.68234
11
-15.504
21
-5.64811
0
LINE
8
BLACK
6
CONTINUOUS
10
-15.504
20
-5.64811
11
-15.4584
21
-5.66034
0
LINE
8
BLACK
6
CONTINUOUS
10
-13.9138
20
-5.68117
11
-13.9594
21
-5.69339
0
LINE
8
BLACK
6
CONTINUOUS
10
-13.9594
20
-5.69339
11
-13.9686
21
-5.65917
0
LINE
8
BLACK
6
CONTINUOUS
10
-13.9686
20
-5.65917
11
-13.9229
21
-5.64694
0
LINE
8
BLACK
6
CONTINUOUS
10
-13.9229
20
-5.64694
11
-13.9138
21
-5.68117
0
LINE
8
BLACK
6
CONTINUOUS
10
-9.76287
20
-5.67476
11
-9.81011
21
-5.67476
0
LINE
8
BLACK
6
CONTINUOUS
10
-9.81011
20
-5.67476
11
-9.81011
21
-5.63932
0
LINE
8
BLACK
6
CONTINUOUS
10
-9.81011
20
-5.63932
11
-9.76287
21
-5.63932
0
LINE
8
BLACK
6
CONTINUOUS
10
-9.76287
20
-5.63932
11
-9.76287
21
-5.67476
0
LINE
8
BLACK
6
CONTINUOUS
10
-23.9464
20
-5.67276
11
-23.9936
21
-5.67276
0
LINE
8
BLACK
6
CONTINUOUS
10
-23.9936
20
-5.67276
11
-23.9936
21
-5.63732
0
LINE
8
BLACK
6
CONTINUOUS
10
-23.9936
20
-5.63732
11
-23.9464
21
-5.63732
0
LINE
8
BLACK
6
CONTINUOUS
10
-23.9464
20
-5.63732
11
-23.9464
21
-5.67276
0
LINE
8
BLACK
6
CONTINUOUS
10
-8.07512
20
-5.67276
11
-8.12236
21
-5.67276
0
LINE
8
BLACK
6
CONTINUOUS
10
-8.12236
20
-5.67276
11
-8.12236
21
-5.63732
0
LINE
8
BLACK
6
CONTINUOUS
10
-8.12236
20
-5.63732
11
-8.07512
21
-5.63732
0
LINE
8
BLACK
6
CONTINUOUS
10
-8.07512
20
-5.63732
11
-8.07512
21
-5.67276
0
LINE
8
BLACK
6
CONTINUOUS
10
-19.0664
20
-5.67276
11
-19.1136
21
-5.67276
0
LINE
8
BLACK
6
CONTINUOUS
10
-19.1136
20
-5.67276
11
-19.1136
21
-5.63732
0
LINE
8
BLACK
6
CONTINUOUS
10
-19.1136
20
-5.63732
11
-19.0664
21
-5.63732
0
LINE
8
BLACK
6
CONTINUOUS
10
-19.0664
20
-5.63732
11
-19.0664
21
-5.67276
0
LINE
8
BLACK
6
CONTINUOUS
10
-25.4464
20
-5.67276
11
-25.4936
21
-5.67276
0
LINE
8
BLACK
6
CONTINUOUS
10
-25.4936
20
-5.67276
11
-25.4936
21
-5.63732
0
LINE
8
BLACK
6
CONTINUOUS
10
-25.4936
20
-5.63732
11
-25.4464
21
-5.63732
0
LINE
8
BLACK
6
CONTINUOUS
10
-25.4464
20
-5.63732
11
-25.4464
21
-5.67276
0
LINE
8
BLACK
6
CONTINUOUS
10
-19.8164
20
-5.67276
11
-19.8636
21
-5.67276
0
LINE
8
BLACK
6
CONTINUOUS
10
-19.8636
20
-5.67276
11
-19.8636
21
-5.63732
0
LINE
8
BLACK
6
CONTINUOUS
10
-19.8636
20
-5.63732
11
-19.8164
21
-5.63732
0
LINE
8
BLACK
6
CONTINUOUS
10
-19.8164
20
-5.63732
11
-19.8164
21
-5.67276
0
LINE
8
BLACK
6
CONTINUOUS
10
-24.6964
20
-5.67276
11
-24.7436
21
-5.67276
0
LINE
8
BLACK
6
CONTINUOUS
10
-24.7436
20
-5.67276
11
-24.7436
21
-5.63732
0
LINE
8
BLACK
6
CONTINUOUS
10
-24.7436
20
-5.63732
11
-24.6964
21
-5.63732
0
LINE
8
BLACK
6
CONTINUOUS
10
-24.6964
20
-5.63732
11
-24.6964
21
-5.67276
0
LINE
8
BLACK
6
CONTINUOUS
10
-21.5064
20
-5.67276
11
-21.5536
21
-5.67276
0
LINE
8
BLACK
6
CONTINUOUS
10
-21.5536
20
-5.67276
11
-21.5536
21
-5.63732
0
LINE
8
BLACK
6
CONTINUOUS
10
-21.5536
20
-5.63732
11
-21.5064
21
-5.63732
0
LINE
8
BLACK
6
CONTINUOUS
10
-21.5064
20
-5.63732
11
-21.5064
21
-5.67276
0
LINE
8
BLACK
6
CONTINUOUS
10
-10.5131
20
-5.67176
11
-10.5604
21
-5.67176
0
LINE
8
BLACK
6
CONTINUOUS
10
-10.5604
20
-5.67176
11
-10.5604
21
-5.63632
0
LINE
8
BLACK
6
CONTINUOUS
10
-10.5604
20
-5.63632
11
-10.5131
21
-5.63632
0
LINE
8
BLACK
6
CONTINUOUS
10
-10.5131
20
-5.63632
11
-10.5131
21
-5.67176
0
LINE
8
BLACK
6
CONTINUOUS
10
-16.2164
20
-5.59172
11
-16.2256
21
-5.62594
0
LINE
8
BLACK
6
CONTINUOUS
10
-16.2256
20
-5.62594
11
-16.2713
21
-5.61372
0
LINE
8
BLACK
6
CONTINUOUS
10
-16.2713
20
-5.61372
11
-16.2621
21
-5.57949
0
LINE
8
BLACK
6
CONTINUOUS
10
-16.2621
20
-5.57949
11
-16.2164
21
-5.59172
0
LINE
8
BLACK
6
CONTINUOUS
10
-13.1557
20
-5.61255
11
-13.2013
21
-5.62477
0
LINE
8
BLACK
6
CONTINUOUS
10
-13.2013
20
-5.62477
11
-13.2105
21
-5.59055
0
LINE
8
BLACK
6
CONTINUOUS
10
-13.2105
20
-5.59055
11
-13.1649
21
-5.57832
0
LINE
8
BLACK
6
CONTINUOUS
10
-13.1649
20
-5.57832
11
-13.1557
21
-5.61255
0
LINE
8
BLACK
6
CONTINUOUS
10
-16.1828
20
-5.46622
11
-16.192
21
-5.50045
0
LINE
8
BLACK
6
CONTINUOUS
10
-16.192
20
-5.50045
11
-16.2376
21
-5.48822
0
LINE
8
BLACK
6
CONTINUOUS
10
-16.2376
20
-5.48822
11
-16.2285
21
-5.454
0
LINE
8
BLACK
6
CONTINUOUS
10
-16.2285
20
-5.454
11
-16.1828
21
-5.46622
0
LINE
8
BLACK
6
CONTINUOUS
10
-13.1893
20
-5.48705
11
-13.2349
21
-5.49928
0
LINE
8
BLACK
6
CONTINUOUS
10
-13.2349
20
-5.49928
11
-13.2441
21
-5.46505
0
LINE
8
BLACK
6
CONTINUOUS
10
-13.2441
20
-5.46505
11
-13.1985
21
-5.45283
0
LINE
8
BLACK
6
CONTINUOUS
10
-13.1985
20
-5.45283
11
-13.1893
21
-5.48705
0
LINE
8
BLACK
6
CONTINUOUS
10
-16.9409
20
-5.3976
11
-16.9501
21
-5.43183
0
LINE
8
BLACK
6
CONTINUOUS
10
-16.9501
20
-5.43183
11
-16.9957
21
-5.4196
0
LINE
8
BLACK
6
CONTINUOUS
10
-16.9957
20
-5.4196
11
-16.9865
21
-5.38538
0
LINE
8
BLACK
6
CONTINUOUS
10
-16.9865
20
-5.38538
11
-16.9409
21
-5.3976
0
LINE
8
BLACK
6
CONTINUOUS
10
-12.4312
20
-5.41843
11
-12.4769
21
-5.43066
0
LINE
8
BLACK
6
CONTINUOUS
10
-12.4769
20
-5.43066
11
-12.486
21
-5.39644
0
LINE
8
BLACK
6
CONTINUOUS
10
-12.486
20
-5.39644
11
-12.4404
21
-5.38421
0
LINE
8
BLACK
6
CONTINUOUS
10
-12.4404
20
-5.38421
11
-12.4312
21
-5.41843
0
LINE
8
BLACK
6
CONTINUOUS
10
-16.9073
20
-5.27211
11
-16.9164
21
-5.30634
0
LINE
8
BLACK
6
CONTINUOUS
10
-16.9164
20
-5.30634
11
-16.9621
21
-5.29411
0
LINE
8
BLACK
6
CONTINUOUS
10
-16.9621
20
-5.29411
11
-16.9529
21
-5.25988
0
LINE
8
BLACK
6
CONTINUOUS
10
-16.9529
20
-5.25988
11
-16.9073
21
-5.27211
0
LINE
8
BLACK
6
CONTINUOUS
10
-12.4649
20
-5.29294
11
-12.5105
21
-5.30517
0
LINE
8
BLACK
6
CONTINUOUS
10
-12.5105
20
-5.30517
11
-12.5197
21
-5.27094
0
LINE
8
BLACK
6
CONTINUOUS
10
-12.5197
20
-5.27094
11
-12.474
21
-5.25871
0
LINE
8
BLACK
6
CONTINUOUS
10
-12.474
20
-5.25871
11
-12.4649
21
-5.29294
0
LINE
8
BLACK
6
CONTINUOUS
10
-17.6653
20
-5.20349
11
-17.6745
21
-5.23772
0
LINE
8
BLACK
6
CONTINUOUS
10
-17.6745
20
-5.23772
11
-17.7201
21
-5.22549
0
LINE
8
BLACK
6
CONTINUOUS
10
-17.7201
20
-5.22549
11
-17.711
21
-5.19126
0
LINE
8
BLACK
6
CONTINUOUS
10
-17.711
20
-5.19126
11
-17.6653
21
-5.20349
0
LINE
8
BLACK
6
CONTINUOUS
10
-11.7068
20
-5.22432
11
-11.7524
21
-5.23655
0
LINE
8
BLACK
6
CONTINUOUS
10
-11.7524
20
-5.23655
11
-11.7616
21
-5.20232
0
LINE
8
BLACK
6
CONTINUOUS
10
-11.7616
20
-5.20232
11
-11.716
21
-5.19009
0
LINE
8
BLACK
6
CONTINUOUS
10
-11.716
20
-5.19009
11
-11.7068
21
-5.22432
0
LINE
8
BLACK
6
CONTINUOUS
10
-17.6317
20
-5.078
11
-17.6409
21
-5.11222
0
LINE
8
BLACK
6
CONTINUOUS
10
-17.6409
20
-5.11222
11
-17.6865
21
-5.09999
0
LINE
8
BLACK
6
CONTINUOUS
10
-17.6865
20
-5.09999
11
-17.6773
21
-5.06577
0
LINE
8
BLACK
6
CONTINUOUS
10
-17.6773
20
-5.06577
11
-17.6317
21
-5.078
0
LINE
8
BLACK
6
CONTINUOUS
10
-11.7404
20
-5.09882
11
-11.7861
21
-5.11105
0
LINE
8
BLACK
6
CONTINUOUS
10
-11.7861
20
-5.11105
11
-11.7952
21
-5.07683
0
LINE
8
BLACK
6
CONTINUOUS
10
-11.7952
20
-5.07683
11
-11.7496
21
-5.0646
0
LINE
8
BLACK
6
CONTINUOUS
10
-11.7496
20
-5.0646
11
-11.7404
21
-5.09882
0
LINE
8
BLACK
6
CONTINUOUS
10
-14.0161
20
-5.06666
11
-14.0618
21
-5.07889
0
LINE
8
BLACK
6
CONTINUOUS
10
-14.0618
20
-5.07889
11
-14.0709
21
-5.04466
0
LINE
8
BLACK
6
CONTINUOUS
10
-14.0709
20
-5.04466
11
-14.0253
21
-5.03244
0
LINE
8
BLACK
6
CONTINUOUS
10
-14.0253
20
-5.03244
11
-14.0161
21
-5.06666
0
LINE
8
BLACK
6
CONTINUOUS
10
-15.3665
20
-5.04083
11
-15.3757
21
-5.07506
0
LINE
8
BLACK
6
CONTINUOUS
10
-15.3757
20
-5.07506
11
-15.4213
21
-5.06283
0
LINE
8
BLACK
6
CONTINUOUS
10
-15.4213
20
-5.06283
11
-15.4121
21
-5.02861
0
LINE
8
BLACK
6
CONTINUOUS
10
-15.4121
20
-5.02861
11
-15.3665
21
-5.04083
0
LINE
8
BLACK
6
CONTINUOUS
10
-24.6964
20
-5.05268
11
-24.7436
21
-5.05268
0
LINE
8
BLACK
6
CONTINUOUS
10
-24.7436
20
-5.05268
11
-24.7436
21
-5.01724
0
LINE
8
BLACK
6
CONTINUOUS
10
-24.7436
20
-5.01724
11
-24.6964
21
-5.01724
0
LINE
8
BLACK
6
CONTINUOUS
10
-24.6964
20
-5.01724
11
-24.6964
21
-5.05268
0
LINE
8
BLACK
6
CONTINUOUS
10
-23.9464
20
-5.05268
11
-23.9936
21
-5.05268
0
LINE
8
BLACK
6
CONTINUOUS
10
-23.9936
20
-5.05268
11
-23.9936
21
-5.01724
0
LINE
8
BLACK
6
CONTINUOUS
10
-23.9936
20
-5.01724
11
-23.9464
21
-5.01724
0
LINE
8
BLACK
6
CONTINUOUS
10
-23.9464
20
-5.01724
11
-23.9464
21
-5.05268
0
LINE
8
BLACK
6
CONTINUOUS
10
-19.6276
20
-5.05268
11
-19.6749
21
-5.05268
0
LINE
8
BLACK
6
CONTINUOUS
10
-19.6749
20
-5.05268
11
-19.6749
21
-5.01724
0
LINE
8
BLACK
6
CONTINUOUS
10
-19.6749
20
-5.01724
11
-19.6276
21
-5.01724
0
LINE
8
BLACK
6
CONTINUOUS
10
-19.6276
20
-5.01724
11
-19.6276
21
-5.05268
0
LINE
8
BLACK
6
CONTINUOUS
10
-9.0131
20
-5.05268
11
-9.06034
21
-5.05268
0
LINE
8
BLACK
6
CONTINUOUS
10
-9.06034
20
-5.05268
11
-9.06034
21
-5.01724
0
LINE
8
BLACK
6
CONTINUOUS
10
-9.06034
20
-5.01724
11
-9.0131
21
-5.01724
0
LINE
8
BLACK
6
CONTINUOUS
10
-9.0131
20
-5.01724
11
-9.0131
21
-5.05268
0
LINE
8
BLACK
6
CONTINUOUS
10
-18.8789
20
-5.05268
11
-18.9261
21
-5.05268
0
LINE
8
BLACK
6
CONTINUOUS
10
-18.9261
20
-5.05268
11
-18.9261
21
-5.01724
0
LINE
8
BLACK
6
CONTINUOUS
10
-18.9261
20
-5.01724
11
-18.8789
21
-5.01724
0
LINE
8
BLACK
6
CONTINUOUS
10
-18.8789
20
-5.01724
11
-18.8789
21
-5.05268
0
LINE
8
BLACK
6
CONTINUOUS
10
-25.4464
20
-5.05268
11
-25.4936
21
-5.05268
0
LINE
8
BLACK
6
CONTINUOUS
10
-25.4936
20
-5.05268
11
-25.4936
21
-5.01724
0
LINE
8
BLACK
6
CONTINUOUS
10
-25.4936
20
-5.01724
11
-25.4464
21
-5.01724
0
LINE
8
BLACK
6
CONTINUOUS
10
-25.4464
20
-5.01724
11
-25.4464
21
-5.05268
0
LINE
8
BLACK
6
CONTINUOUS
10
-10.5121
20
-5.05168
11
-10.5594
21
-5.05168
0
LINE
8
BLACK
6
CONTINUOUS
10
-10.5594
20
-5.05168
11
-10.5594
21
-5.01624
0
LINE
8
BLACK
6
CONTINUOUS
10
-10.5594
20
-5.01624
11
-10.5121
21
-5.01624
0
LINE
8
BLACK
6
CONTINUOUS
10
-10.5121
20
-5.01624
11
-10.5121
21
-5.05168
0
LINE
8
BLACK
6
CONTINUOUS
10
-9.76212
20
-5.05168
11
-9.80936
21
-5.05168
0
LINE
8
BLACK
6
CONTINUOUS
10
-9.80936
20
-5.05168
11
-9.80936
21
-5.01624
0
LINE
8
BLACK
6
CONTINUOUS
10
-9.80936
20
-5.01624
11
-9.76212
21
-5.01624
0
LINE
8
BLACK
6
CONTINUOUS
10
-9.76212
20
-5.01624
11
-9.76212
21
-5.05168
0
LINE
8
BLACK
6
CONTINUOUS
10
-14.0498
20
-4.94117
11
-14.0954
21
-4.95339
0
LINE
8
BLACK
6
CONTINUOUS
10
-14.0954
20
-4.95339
11
-14.1046
21
-4.91917
0
LINE
8
BLACK
6
CONTINUOUS
10
-14.1046
20
-4.91917
11
-14.0589
21
-4.90694
0
LINE
8
BLACK
6
CONTINUOUS
10
-14.0589
20
-4.90694
11
-14.0498
21
-4.94117
0
LINE
8
BLACK
6
CONTINUOUS
10
-15.3329
20
-4.91534
11
-15.342
21
-4.94956
0
LINE
8
BLACK
6
CONTINUOUS
10
-15.342
20
-4.94956
11
-15.3877
21
-4.93734
0
LINE
8
BLACK
6
CONTINUOUS
10
-15.3877
20
-4.93734
11
-15.3785
21
-4.90311
0
LINE
8
BLACK
6
CONTINUOUS
10
-15.3785
20
-4.90311
11
-15.3329
21
-4.91534
0
LINE
8
BLACK
6
CONTINUOUS
10
-23.9464
20
-4.92276
11
-23.9936
21
-4.92276
0
LINE
8
BLACK
6
CONTINUOUS
10
-23.9936
20
-4.92276
11
-23.9936
21
-4.88732
0
LINE
8
BLACK
6
CONTINUOUS
10
-23.9936
20
-4.88732
11
-23.9464
21
-4.88732
0
LINE
8
BLACK
6
CONTINUOUS
10
-23.9464
20
-4.88732
11
-23.9464
21
-4.92276
0
LINE
8
BLACK
6
CONTINUOUS
10
-25.4464
20
-4.92276
11
-25.4936
21
-4.92276
0
LINE
8
BLACK
6
CONTINUOUS
10
-25.4936
20
-4.92276
11
-25.4936
21
-4.88732
0
LINE
8
BLACK
6
CONTINUOUS
10
-25.4936
20
-4.88732
11
-25.4464
21
-4.88732
0
LINE
8
BLACK
6
CONTINUOUS
10
-25.4464
20
-4.88732
11
-25.4464
21
-4.92276
0
LINE
8
BLACK
6
CONTINUOUS
10
-18.8789
20
-4.92276
11
-18.9261
21
-4.92276
0
LINE
8
BLACK
6
CONTINUOUS
10
-18.9261
20
-4.92276
11
-18.9261
21
-4.88732
0
LINE
8
BLACK
6
CONTINUOUS
10
-18.9261
20
-4.88732
11
-18.8789
21
-4.88732
0
LINE
8
BLACK
6
CONTINUOUS
10
-18.8789
20
-4.88732
11
-18.8789
21
-4.92276
0
LINE
8
BLACK
6
CONTINUOUS
10
-24.6964
20
-4.92276
11
-24.7436
21
-4.92276
0
LINE
8
BLACK
6
CONTINUOUS
10
-24.7436
20
-4.92276
11
-24.7436
21
-4.88732
0
LINE
8
BLACK
6
CONTINUOUS
10
-24.7436
20
-4.88732
11
-24.6964
21
-4.88732
0
LINE
8
BLACK
6
CONTINUOUS
10
-24.6964
20
-4.88732
11
-24.6964
21
-4.92276
0
LINE
8
BLACK
6
CONTINUOUS
10
-19.6276
20
-4.92276
11
-19.6749
21
-4.92276
0
LINE
8
BLACK
6
CONTINUOUS
10
-19.6749
20
-4.92276
11
-19.6749
21
-4.88732
0
LINE
8
BLACK
6
CONTINUOUS
10
-19.6749
20
-4.88732
11
-19.6276
21
-4.88732
0
LINE
8
BLACK
6
CONTINUOUS
10
-19.6276
20
-4.88732
11
-19.6276
21
-4.92276
0
LINE
8
BLACK
6
CONTINUOUS
10
-9.0131
20
-4.92276
11
-9.06034
21
-4.92276
0
LINE
8
BLACK
6
CONTINUOUS
10
-9.06034
20
-4.92276
11
-9.06034
21
-4.88732
0
LINE
8
BLACK
6
CONTINUOUS
10
-9.06034
20
-4.88732
11
-9.0131
21
-4.88732
0
LINE
8
BLACK
6
CONTINUOUS
10
-9.0131
20
-4.88732
11
-9.0131
21
-4.92276
0
LINE
8
BLACK
6
CONTINUOUS
10
-9.76212
20
-4.92176
11
-9.80936
21
-4.92176
0
LINE
8
BLACK
6
CONTINUOUS
10
-9.80936
20
-4.92176
11
-9.80936
21
-4.88632
0
LINE
8
BLACK
6
CONTINUOUS
10
-9.80936
20
-4.88632
11
-9.76212
21
-4.88632
0
LINE
8
BLACK
6
CONTINUOUS
10
-9.76212
20
-4.88632
11
-9.76212
21
-4.92176
0
LINE
8
BLACK
6
CONTINUOUS
10
-10.5121
20
-4.92176
11
-10.5594
21
-4.92176
0
LINE
8
BLACK
6
CONTINUOUS
10
-10.5594
20
-4.92176
11
-10.5594
21
-4.88632
0
LINE
8
BLACK
6
CONTINUOUS
10
-10.5594
20
-4.88632
11
-10.5121
21
-4.88632
0
LINE
8
BLACK
6
CONTINUOUS
10
-10.5121
20
-4.88632
11
-10.5121
21
-4.92176
0
LINE
8
BLACK
6
CONTINUOUS
10
-13.2917
20
-4.87255
11
-13.3373
21
-4.88478
0
LINE
8
BLACK
6
CONTINUOUS
10
-13.3373
20
-4.88478
11
-13.3465
21
-4.85055
0
LINE
8
BLACK
6
CONTINUOUS
10
-13.3465
20
-4.85055
11
-13.3009
21
-4.83832
0
LINE
8
BLACK
6
CONTINUOUS
10
-13.3009
20
-4.83832
11
-13.2917
21
-4.87255
0
LINE
8
BLACK
6
CONTINUOUS
10
-16.0909
20
-4.84672
11
-16.1001
21
-4.88094
0
LINE
8
BLACK
6
CONTINUOUS
10
-16.1001
20
-4.88094
11
-16.1457
21
-4.86872
0
LINE
8
BLACK
6
CONTINUOUS
10
-16.1457
20
-4.86872
11
-16.1366
21
-4.83449
0
LINE
8
BLACK
6
CONTINUOUS
10
-16.1366
20
-4.83449
11
-16.0909
21
-4.84672
0
LINE
8
BLACK
6
CONTINUOUS
10
-13.3253
20
-4.74705
11
-13.3709
21
-4.75928
0
LINE
8
BLACK
6
CONTINUOUS
10
-13.3709
20
-4.75928
11
-13.3801
21
-4.72505
0
LINE
8
BLACK
6
CONTINUOUS
10
-13.3801
20
-4.72505
11
-13.3345
21
-4.71283
0
LINE
8
BLACK
6
CONTINUOUS
10
-13.3345
20
-4.71283
11
-13.3253
21
-4.74705
0
LINE
8
BLACK
6
CONTINUOUS
10
-16.0573
20
-4.72122
11
-16.0665
21
-4.75545
0
LINE
8
BLACK
6
CONTINUOUS
10
-16.0665
20
-4.75545
11
-16.1121
21
-4.74322
0
LINE
8
BLACK
6
CONTINUOUS
10
-16.1121
20
-4.74322
11
-16.1029
21
-4.709
0
LINE
8
BLACK
6
CONTINUOUS
10
-16.1029
20
-4.709
11
-16.0573
21
-4.72122
0
LINE
8
BLACK
6
CONTINUOUS
10
-12.5672
20
-4.67843
11
-12.6129
21
-4.69066
0
LINE
8
BLACK
6
CONTINUOUS
10
-12.6129
20
-4.69066
11
-12.622
21
-4.65644
0
LINE
8
BLACK
6
CONTINUOUS
10
-12.622
20
-4.65644
11
-12.5764
21
-4.64421
0
LINE
8
BLACK
6
CONTINUOUS
10
-12.5764
20
-4.64421
11
-12.5672
21
-4.67843
0
LINE
8
BLACK
6
CONTINUOUS
10
-16.8154
20
-4.6526
11
-16.8245
21
-4.68683
0
LINE
8
BLACK
6
CONTINUOUS
10
-16.8245
20
-4.68683
11
-16.8702
21
-4.6746
0
LINE
8
BLACK
6
CONTINUOUS
10
-16.8702
20
-4.6746
11
-16.861
21
-4.64038
0
LINE
8
BLACK
6
CONTINUOUS
10
-16.861
20
-4.64038
11
-16.8154
21
-4.6526
0
LINE
8
BLACK
6
CONTINUOUS
10
-23.1964
20
-4.67768
11
-23.2436
21
-4.67768
0
LINE
8
BLACK
6
CONTINUOUS
10
-23.2436
20
-4.67768
11
-23.2436
21
-4.64224
0
LINE
8
BLACK
6
CONTINUOUS
10
-23.2436
20
-4.64224
11
-23.1964
21
-4.64224
0
LINE
8
BLACK
6
CONTINUOUS
10
-23.1964
20
-4.64224
11
-23.1964
21
-4.67768
0
LINE
8
BLACK
6
CONTINUOUS
10
-12.6009
20
-4.55294
11
-12.6465
21
-4.56517
0
LINE
8
BLACK
6
CONTINUOUS
10
-12.6465
20
-4.56517
11
-12.6557
21
-4.53094
0
LINE
8
BLACK
6
CONTINUOUS
10
-12.6557
20
-4.53094
11
-12.61
21
-4.51871
0
LINE
8
BLACK
6
CONTINUOUS
10
-12.61
20
-4.51871
11
-12.6009
21
-4.55294
0
LINE
8
BLACK
6
CONTINUOUS
10
-16.7817
20
-4.52711
11
-16.7909
21
-4.56134
0
LINE
8
BLACK
6
CONTINUOUS
10
-16.7909
20
-4.56134
11
-16.8366
21
-4.54911
0
LINE
8
BLACK
6
CONTINUOUS
10
-16.8366
20
-4.54911
11
-16.8274
21
-4.51488
0
LINE
8
BLACK
6
CONTINUOUS
10
-16.8274
20
-4.51488
11
-16.7817
21
-4.52711
0
LINE
8
BLACK
6
CONTINUOUS
10
-23.1964
20
-4.54776
11
-23.2436
21
-4.54776
0
LINE
8
BLACK
6
CONTINUOUS
10
-23.2436
20
-4.54776
11
-23.2436
21
-4.51232
0
LINE
8
BLACK
6
CONTINUOUS
10
-23.2436
20
-4.51232
11
-23.1964
21
-4.51232
0
LINE
8
BLACK
6
CONTINUOUS
10
-23.1964
20
-4.51232
11
-23.1964
21
-4.54776
0
LINE
8
BLACK
6
CONTINUOUS
10
-11.8428
20
-4.48432
11
-11.8884
21
-4.49655
0
LINE
8
BLACK
6
CONTINUOUS
10
-11.8884
20
-4.49655
11
-11.8976
21
-4.46232
0
LINE
8
BLACK
6
CONTINUOUS
10
-11.8976
20
-4.46232
11
-11.852
21
-4.45009
0
LINE
8
BLACK
6
CONTINUOUS
10
-11.852
20
-4.45009
11
-11.8428
21
-4.48432
0
LINE
8
BLACK
6
CONTINUOUS
10
-17.5398
20
-4.45849
11
-17.549
21
-4.49272
0
LINE
8
BLACK
6
CONTINUOUS
10
-17.549
20
-4.49272
11
-17.5946
21
-4.48049
0
LINE
8
BLACK
6
CONTINUOUS
10
-17.5946
20
-4.48049
11
-17.5855
21
-4.44626
0
LINE
8
BLACK
6
CONTINUOUS
10
-17.5855
20
-4.44626
11
-17.5398
21
-4.45849
0
LINE
8
BLACK
6
CONTINUOUS
10
-11.8764
20
-4.35882
11
-11.9221
21
-4.37105
0
LINE
8
BLACK
6
CONTINUOUS
10
-11.9221
20
-4.37105
11
-11.9312
21
-4.33683
0
LINE
8
BLACK
6
CONTINUOUS
10
-11.9312
20
-4.33683
11
-11.8856
21
-4.3246
0
LINE
8
BLACK
6
CONTINUOUS
10
-11.8856
20
-4.3246
11
-11.8764
21
-4.35882
0
LINE
8
BLACK
6
CONTINUOUS
10
-17.5062
20
-4.333
11
-17.5154
21
-4.36722
0
LINE
8
BLACK
6
CONTINUOUS
10
-17.5154
20
-4.36722
11
-17.561
21
-4.35499
0
LINE
8
BLACK
6
CONTINUOUS
10
-17.561
20
-4.35499
11
-17.5518
21
-4.32077
0
LINE
8
BLACK
6
CONTINUOUS
10
-17.5518
20
-4.32077
11
-17.5062
21
-4.333
0
LINE
8
BLACK
6
CONTINUOUS
10
-14.1521
20
-4.32566
11
-14.1978
21
-4.33789
0
LINE
8
BLACK
6
CONTINUOUS
10
-14.1978
20
-4.33789
11
-14.2069
21
-4.30366
0
LINE
8
BLACK
6
CONTINUOUS
10
-14.2069
20
-4.30366
11
-14.1613
21
-4.29144
0
LINE
8
BLACK
6
CONTINUOUS
10
-14.1613
20
-4.29144
11
-14.1521
21
-4.32566
0
LINE
8
BLACK
6
CONTINUOUS
10
-15.2362
20
-4.30016
11
-15.2454
21
-4.33439
0
LINE
8
BLACK
6
CONTINUOUS
10
-15.2454
20
-4.33439
11
-15.2911
21
-4.32216
0
LINE
8
BLACK
6
CONTINUOUS
10
-15.2911
20
-4.32216
11
-15.2819
21
-4.28794
0
LINE
8
BLACK
6
CONTINUOUS
10
-15.2819
20
-4.28794
11
-15.2362
21
-4.30016
0
LINE
8
BLACK
6
CONTINUOUS
10
-9.95112
20
-4.30368
11
-9.99836
21
-4.30368
0
LINE
8
BLACK
6
CONTINUOUS
10
-9.99836
20
-4.30368
11
-9.99836
21
-4.26824
0
LINE
8
BLACK
6
CONTINUOUS
10
-9.99836
20
-4.26824
11
-9.95112
21
-4.26824
0
LINE
8
BLACK
6
CONTINUOUS
10
-9.95112
20
-4.26824
11
-9.95112
21
-4.30368
0
LINE
8
BLACK
6
CONTINUOUS
10
-10.7021
20
-4.30368
11
-10.7494
21
-4.30368
0
LINE
8
BLACK
6
CONTINUOUS
10
-10.7494
20
-4.30368
11
-10.7494
21
-4.26824
0
LINE
8
BLACK
6
CONTINUOUS
10
-10.7494
20
-4.26824
11
-10.7021
21
-4.26824
0
LINE
8
BLACK
6
CONTINUOUS
10
-10.7021
20
-4.26824
11
-10.7021
21
-4.30368
0
LINE
8
BLACK
6
CONTINUOUS
10
-9.20112
20
-4.30368
11
-9.24836
21
-4.30368
0
LINE
8
BLACK
6
CONTINUOUS
10
-9.24836
20
-4.30368
11
-9.24836
21
-4.26824
0
LINE
8
BLACK
6
CONTINUOUS
10
-9.24836
20
-4.26824
11
-9.20112
21
-4.26824
0
LINE
8
BLACK
6
CONTINUOUS
10
-9.20112
20
-4.26824
11
-9.20112
21
-4.30368
0
LINE
8
BLACK
6
CONTINUOUS
10
-8.45062
20
-4.30368
11
-8.49786
21
-4.30368
0
LINE
8
BLACK
6
CONTINUOUS
10
-8.49786
20
-4.30368
11
-8.49786
21
-4.26824
0
LINE
8
BLACK
6
CONTINUOUS
10
-8.49786
20
-4.26824
11
-8.45062
21
-4.26824
0
LINE
8
BLACK
6
CONTINUOUS
10
-8.45062
20
-4.26824
11
-8.45062
21
-4.30368
0
LINE
8
BLACK
6
CONTINUOUS
10
-18.6914
20
-4.30268
11
-18.7386
21
-4.30268
0
LINE
8
BLACK
6
CONTINUOUS
10
-18.7386
20
-4.30268
11
-18.7386
21
-4.26724
0
LINE
8
BLACK
6
CONTINUOUS
10
-18.7386
20
-4.26724
11
-18.6914
21
-4.26724
0
LINE
8
BLACK
6
CONTINUOUS
10
-18.6914
20
-4.26724
11
-18.6914
21
-4.30268
0
LINE
8
BLACK
6
CONTINUOUS
10
-23.9464
20
-4.30268
11
-23.9936
21
-4.30268
0
LINE
8
BLACK
6
CONTINUOUS
10
-23.9936
20
-4.30268
11
-23.9936
21
-4.26724
0
LINE
8
BLACK
6
CONTINUOUS
10
-23.9936
20
-4.26724
11
-23.9464
21
-4.26724
0
LINE
8
BLACK
6
CONTINUOUS
10
-23.9464
20
-4.26724
11
-23.9464
21
-4.30268
0
LINE
8
BLACK
6
CONTINUOUS
10
-19.4439
20
-4.30268
11
-19.4911
21
-4.30268
0
LINE
8
BLACK
6
CONTINUOUS
10
-19.4911
20
-4.30268
11
-19.4911
21
-4.26724
0
LINE
8
BLACK
6
CONTINUOUS
10
-19.4911
20
-4.26724
11
-19.4439
21
-4.26724
0
LINE
8
BLACK
6
CONTINUOUS
10
-19.4439
20
-4.26724
11
-19.4439
21
-4.30268
0
LINE
8
BLACK
6
CONTINUOUS
10
-25.4464
20
-4.30268
11
-25.4936
21
-4.30268
0
LINE
8
BLACK
6
CONTINUOUS
10
-25.4936
20
-4.30268
11
-25.4936
21
-4.26724
0
LINE
8
BLACK
6
CONTINUOUS
10
-25.4936
20
-4.26724
11
-25.4464
21
-4.26724
0
LINE
8
BLACK
6
CONTINUOUS
10
-25.4464
20
-4.26724
11
-25.4464
21
-4.30268
0
LINE
8
BLACK
6
CONTINUOUS
10
-24.6964
20
-4.30268
11
-24.7436
21
-4.30268
0
LINE
8
BLACK
6
CONTINUOUS
10
-24.7436
20
-4.30268
11
-24.7436
21
-4.26724
0
LINE
8
BLACK
6
CONTINUOUS
10
-24.7436
20
-4.26724
11
-24.6964
21
-4.26724
0
LINE
8
BLACK
6
CONTINUOUS
10
-24.6964
20
-4.26724
11
-24.6964
21
-4.30268
0
LINE
8
BLACK
6
CONTINUOUS
10
-14.1858
20
-4.20017
11
-14.2314
21
-4.21239
0
LINE
8
BLACK
6
CONTINUOUS
10
-14.2314
20
-4.21239
11
-14.2406
21
-4.17817
0
LINE
8
BLACK
6
CONTINUOUS
10
-14.2406
20
-4.17817
11
-14.1949
21
-4.16594
0
LINE
8
BLACK
6
CONTINUOUS
10
-14.1949
20
-4.16594
11
-14.1858
21
-4.20017
0
LINE
8
BLACK
6
CONTINUOUS
10
-15.2026
20
-4.17467
11
-15.2118
21
-4.2089
0
LINE
8
BLACK
6
CONTINUOUS
10
-15.2118
20
-4.2089
11
-15.2574
21
-4.19667
0
LINE
8
BLACK
6
CONTINUOUS
10
-15.2574
20
-4.19667
11
-15.2483
21
-4.16244
0
LINE
8
BLACK
6
CONTINUOUS
10
-15.2483
20
-4.16244
11
-15.2026
21
-4.17467
0
LINE
8
BLACK
6
CONTINUOUS
10
-9.95112
20
-4.17376
11
-9.99836
21
-4.17376
0
LINE
8
BLACK
6
CONTINUOUS
10
-9.99836
20
-4.17376
11
-9.99836
21
-4.13832
0
LINE
8
BLACK
6
CONTINUOUS
10
-9.99836
20
-4.13832
11
-9.95112
21
-4.13832
0
LINE
8
BLACK
6
CONTINUOUS
10
-9.95112
20
-4.13832
11
-9.95112
21
-4.17376
0
LINE
8
BLACK
6
CONTINUOUS
10
-10.7021
20
-4.17376
11
-10.7494
21
-4.17376
0
LINE
8
BLACK
6
CONTINUOUS
10
-10.7494
20
-4.17376
11
-10.7494
21
-4.13832
0
LINE
8
BLACK
6
CONTINUOUS
10
-10.7494
20
-4.13832
11
-10.7021
21
-4.13832
0
LINE
8
BLACK
6
CONTINUOUS
10
-10.7021
20
-4.13832
11
-10.7021
21
-4.17376
0
LINE
8
BLACK
6
CONTINUOUS
10
-9.20112
20
-4.17376
11
-9.24836
21
-4.17376
0
LINE
8
BLACK
6
CONTINUOUS
10
-9.24836
20
-4.17376
11
-9.24836
21
-4.13832
0
LINE
8
BLACK
6
CONTINUOUS
10
-9.24836
20
-4.13832
11
-9.20112
21
-4.13832
0
LINE
8
BLACK
6
CONTINUOUS
10
-9.20112
20
-4.13832
11
-9.20112
21
-4.17376
0
LINE
8
BLACK
6
CONTINUOUS
10
-8.45062
20
-4.17376
11
-8.49786
21
-4.17376
0
LINE
8
BLACK
6
CONTINUOUS
10
-8.49786
20
-4.17376
11
-8.49786
21
-4.13832
0
LINE
8
BLACK
6
CONTINUOUS
10
-8.49786
20
-4.13832
11
-8.45062
21
-4.13832
0
LINE
8
BLACK
6
CONTINUOUS
10
-8.45062
20
-4.13832
11
-8.45062
21
-4.17376
0
LINE
8
BLACK
6
CONTINUOUS
10
-25.4464
20
-4.17276
11
-25.4936
21
-4.17276
0
LINE
8
BLACK
6
CONTINUOUS
10
-25.4936
20
-4.17276
11
-25.4936
21
-4.13732
0
LINE
8
BLACK
6
CONTINUOUS
10
-25.4936
20
-4.13732
11
-25.4464
21
-4.13732
0
LINE
8
BLACK
6
CONTINUOUS
10
-25.4464
20
-4.13732
11
-25.4464
21
-4.17276
0
LINE
8
BLACK
6
CONTINUOUS
10
-19.4439
20
-4.17276
11
-19.4911
21
-4.17276
0
LINE
8
BLACK
6
CONTINUOUS
10
-19.4911
20
-4.17276
11
-19.4911
21
-4.13732
0
LINE
8
BLACK
6
CONTINUOUS
10
-19.4911
20
-4.13732
11
-19.4439
21
-4.13732
0
LINE
8
BLACK
6
CONTINUOUS
10
-19.4439
20
-4.13732
11
-19.4439
21
-4.17276
0
LINE
8
BLACK
6
CONTINUOUS
10
-24.6964
20
-4.17276
11
-24.7436
21
-4.17276
0
LINE
8
BLACK
6
CONTINUOUS
10
-24.7436
20
-4.17276
11
-24.7436
21
-4.13732
0
LINE
8
BLACK
6
CONTINUOUS
10
-24.7436
20
-4.13732
11
-24.6964
21
-4.13732
0
LINE
8
BLACK
6
CONTINUOUS
10
-24.6964
20
-4.13732
11
-24.6964
21
-4.17276
0
LINE
8
BLACK
6
CONTINUOUS
10
-18.6914
20
-4.17276
11
-18.7386
21
-4.17276
0
LINE
8
BLACK
6
CONTINUOUS
10
-18.7386
20
-4.17276
11
-18.7386
21
-4.13732
0
LINE
8
BLACK
6
CONTINUOUS
10
-18.7386
20
-4.13732
11
-18.6914
21
-4.13732
0
LINE
8
BLACK
6
CONTINUOUS
10
-18.6914
20
-4.13732
11
-18.6914
21
-4.17276
0
LINE
8
BLACK
6
CONTINUOUS
10
-23.9464
20
-4.17276
11
-23.9936
21
-4.17276
0
LINE
8
BLACK
6
CONTINUOUS
10
-23.9936
20
-4.17276
11
-23.9936
21
-4.13732
0
LINE
8
BLACK
6
CONTINUOUS
10
-23.9936
20
-4.13732
11
-23.9464
21
-4.13732
0
LINE
8
BLACK
6
CONTINUOUS
10
-23.9464
20
-4.13732
11
-23.9464
21
-4.17276
0
LINE
8
BLACK
6
CONTINUOUS
10
-13.4277
20
-4.13155
11
-13.4733
21
-4.14377
0
LINE
8
BLACK
6
CONTINUOUS
10
-13.4733
20
-4.14377
11
-13.4825
21
-4.10955
0
LINE
8
BLACK
6
CONTINUOUS
10
-13.4825
20
-4.10955
11
-13.4369
21
-4.09732
0
LINE
8
BLACK
6
CONTINUOUS
10
-13.4369
20
-4.09732
11
-13.4277
21
-4.13155
0
LINE
8
BLACK
6
CONTINUOUS
10
-15.9607
20
-4.10605
11
-15.9699
21
-4.14028
0
LINE
8
BLACK
6
CONTINUOUS
10
-15.9699
20
-4.14028
11
-16.0155
21
-4.12805
0
LINE
8
BLACK
6
CONTINUOUS
10
-16.0155
20
-4.12805
11
-16.0063
21
-4.09382
0
LINE
8
BLACK
6
CONTINUOUS
10
-16.0063
20
-4.09382
11
-15.9607
21
-4.10605
0
LINE
8
BLACK
6
CONTINUOUS
10
-13.4613
20
-4.00605
11
-13.5069
21
-4.01828
0
LINE
8
BLACK
6
CONTINUOUS
10
-13.5069
20
-4.01828
11
-13.5161
21
-3.98405
0
LINE
8
BLACK
6
CONTINUOUS
10
-13.5161
20
-3.98405
11
-13.4705
21
-3.97183
0
LINE
8
BLACK
6
CONTINUOUS
10
-13.4705
20
-3.97183
11
-13.4613
21
-4.00605
0
LINE
8
BLACK
6
CONTINUOUS
10
-15.9271
20
-3.98056
11
-15.9362
21
-4.01478
0
LINE
8
BLACK
6
CONTINUOUS
10
-15.9362
20
-4.01478
11
-15.9819
21
-4.00255
0
LINE
8
BLACK
6
CONTINUOUS
10
-15.9819
20
-4.00255
11
-15.9727
21
-3.96833
0
LINE
8
BLACK
6
CONTINUOUS
10
-15.9727
20
-3.96833
11
-15.9271
21
-3.98056
0
LINE
8
BLACK
6
CONTINUOUS
10
-12.7032
20
-3.93743
11
-12.7489
21
-3.94966
0
LINE
8
BLACK
6
CONTINUOUS
10
-12.7489
20
-3.94966
11
-12.758
21
-3.91544
0
LINE
8
BLACK
6
CONTINUOUS
10
-12.758
20
-3.91544
11
-12.7124
21
-3.90321
0
LINE
8
BLACK
6
CONTINUOUS
10
-12.7124
20
-3.90321
11
-12.7032
21
-3.93743
0
LINE
8
BLACK
6
CONTINUOUS
10
-16.6851
20
-3.91194
11
-16.6943
21
-3.94616
0
LINE
8
BLACK
6
CONTINUOUS
10
-16.6943
20
-3.94616
11
-16.7399
21
-3.93393
0
LINE
8
BLACK
6
CONTINUOUS
10
-16.7399
20
-3.93393
11
-16.7308
21
-3.89971
0
LINE
8
BLACK
6
CONTINUOUS
10
-16.7308
20
-3.89971
11
-16.6851
21
-3.91194
0
LINE
8
BLACK
6
CONTINUOUS
10
-12.7369
20
-3.81194
11
-12.7825
21
-3.82417
0
LINE
8
BLACK
6
CONTINUOUS
10
-12.7825
20
-3.82417
11
-12.7917
21
-3.78994
0
LINE
8
BLACK
6
CONTINUOUS
10
-12.7917
20
-3.78994
11
-12.746
21
-3.77771
0
LINE
8
BLACK
6
CONTINUOUS
10
-12.746
20
-3.77771
11
-12.7369
21
-3.81194
0
LINE
8
BLACK
6
CONTINUOUS
10
-16.6515
20
-3.78644
11
-16.6607
21
-3.82067
0
LINE
8
BLACK
6
CONTINUOUS
10
-16.6607
20
-3.82067
11
-16.7063
21
-3.80844
0
LINE
8
BLACK
6
CONTINUOUS
10
-16.7063
20
-3.80844
11
-16.6971
21
-3.77421
0
LINE
8
BLACK
6
CONTINUOUS
10
-16.6971
20
-3.77421
11
-16.6515
21
-3.78644
0
LINE
8
BLACK
6
CONTINUOUS
10
-11.9788
20
-3.74332
11
-12.0244
21
-3.75555
0
LINE
8
BLACK
6
CONTINUOUS
10
-12.0244
20
-3.75555
11
-12.0336
21
-3.72132
0
LINE
8
BLACK
6
CONTINUOUS
10
-12.0336
20
-3.72132
11
-11.988
21
-3.70909
0
LINE
8
BLACK
6
CONTINUOUS
10
-11.988
20
-3.70909
11
-11.9788
21
-3.74332
0
LINE
8
BLACK
6
CONTINUOUS
10
-17.4025
20
-3.68588
11
-17.4117
21
-3.72011
0
LINE
8
BLACK
6
CONTINUOUS
10
-17.4117
20
-3.72011
11
-17.4573
21
-3.70788
0
LINE
8
BLACK
6
CONTINUOUS
10
-17.4573
20
-3.70788
11
-17.4481
21
-3.67365
0
LINE
8
BLACK
6
CONTINUOUS
10
-17.4481
20
-3.67365
11
-17.4025
21
-3.68588
0
LINE
8
BLACK
6
CONTINUOUS
10
-12.0124
20
-3.61782
11
-12.0581
21
-3.63005
0
LINE
8
BLACK
6
CONTINUOUS
10
-12.0581
20
-3.63005
11
-12.0672
21
-3.59583
0
LINE
8
BLACK
6
CONTINUOUS
10
-12.0672
20
-3.59583
11
-12.0216
21
-3.5836
0
LINE
8
BLACK
6
CONTINUOUS
10
-12.0216
20
-3.5836
11
-12.0124
21
-3.61782
0
LINE
8
BLACK
6
CONTINUOUS
10
-17.3689
20
-3.56039
11
-17.378
21
-3.59461
0
LINE
8
BLACK
6
CONTINUOUS
10
-17.378
20
-3.59461
11
-17.4237
21
-3.58239
0
LINE
8
BLACK
6
CONTINUOUS
10
-17.4237
20
-3.58239
11
-17.4145
21
-3.54816
0
LINE
8
BLACK
6
CONTINUOUS
10
-17.4145
20
-3.54816
11
-17.3689
21
-3.56039
0
LINE
8
BLACK
6
CONTINUOUS
10
-10.3261
20
-3.55368
11
-10.3734
21
-3.55368
0
LINE
8
BLACK
6
CONTINUOUS
10
-10.3734
20
-3.55368
11
-10.3734
21
-3.51824
0
LINE
8
BLACK
6
CONTINUOUS
10
-10.3734
20
-3.51824
11
-10.3261
21
-3.51824
0
LINE
8
BLACK
6
CONTINUOUS
10
-10.3261
20
-3.51824
11
-10.3261
21
-3.55368
0
LINE
8
BLACK
6
CONTINUOUS
10
-9.57612
20
-3.55368
11
-9.62336
21
-3.55368
0
LINE
8
BLACK
6
CONTINUOUS
10
-9.62336
20
-3.55368
11
-9.62336
21
-3.51824
0
LINE
8
BLACK
6
CONTINUOUS
10
-9.62336
20
-3.51824
11
-9.57612
21
-3.51824
0
LINE
8
BLACK
6
CONTINUOUS
10
-9.57612
20
-3.51824
11
-9.57612
21
-3.55368
0
LINE
8
BLACK
6
CONTINUOUS
10
-10.9974
20
-3.55368
11
-11.0446
21
-3.55368
0
LINE
8
BLACK
6
CONTINUOUS
10
-11.0446
20
-3.55368
11
-11.0446
21
-3.51824
0
LINE
8
BLACK
6
CONTINUOUS
10
-11.0446
20
-3.51824
11
-10.9974
21
-3.51824
0
LINE
8
BLACK
6
CONTINUOUS
10
-10.9974
20
-3.51824
11
-10.9974
21
-3.55368
0
LINE
8
BLACK
6
CONTINUOUS
10
-25.4464
20
-3.55268
11
-25.4936
21
-3.55268
0
LINE
8
BLACK
6
CONTINUOUS
10
-25.4936
20
-3.55268
11
-25.4936
21
-3.51724
0
LINE
8
BLACK
6
CONTINUOUS
10
-25.4936
20
-3.51724
11
-25.4464
21
-3.51724
0
LINE
8
BLACK
6
CONTINUOUS
10
-25.4464
20
-3.51724
11
-25.4464
21
-3.55268
0
LINE
8
BLACK
6
CONTINUOUS
10
-23.9464
20
-3.55268
11
-23.9936
21
-3.55268
0
LINE
8
BLACK
6
CONTINUOUS
10
-23.9936
20
-3.55268
11
-23.9936
21
-3.51724
0
LINE
8
BLACK
6
CONTINUOUS
10
-23.9936
20
-3.51724
11
-23.9464
21
-3.51724
0
LINE
8
BLACK
6
CONTINUOUS
10
-23.9464
20
-3.51724
11
-23.9464
21
-3.55268
0
LINE
8
BLACK
6
CONTINUOUS
10
-22.2589
20
-3.55268
11
-22.3061
21
-3.55268
0
LINE
8
BLACK
6
CONTINUOUS
10
-22.3061
20
-3.55268
11
-22.3061
21
-3.51724
0
LINE
8
BLACK
6
CONTINUOUS
10
-22.3061
20
-3.51724
11
-22.2589
21
-3.51724
0
LINE
8
BLACK
6
CONTINUOUS
10
-22.2589
20
-3.51724
11
-22.2589
21
-3.55268
0
LINE
8
BLACK
6
CONTINUOUS
10
-23.1964
20
-3.55268
11
-23.2436
21
-3.55268
0
LINE
8
BLACK
6
CONTINUOUS
10
-23.2436
20
-3.55268
11
-23.2436
21
-3.51724
0
LINE
8
BLACK
6
CONTINUOUS
10
-23.2436
20
-3.51724
11
-23.1964
21
-3.51724
0
LINE
8
BLACK
6
CONTINUOUS
10
-23.1964
20
-3.51724
11
-23.1964
21
-3.55268
0
LINE
8
BLACK
6
CONTINUOUS
10
-24.6964
20
-3.55268
11
-24.7436
21
-3.55268
0
LINE
8
BLACK
6
CONTINUOUS
10
-24.7436
20
-3.55268
11
-24.7436
21
-3.51724
0
LINE
8
BLACK
6
CONTINUOUS
10
-24.7436
20
-3.51724
11
-24.6964
21
-3.51724
0
LINE
8
BLACK
6
CONTINUOUS
10
-24.6964
20
-3.51724
11
-24.6964
21
-3.55268
0
LINE
8
BLACK
6
CONTINUOUS
10
-19.2564
20
-3.55268
11
-19.3036
21
-3.55268
0
LINE
8
BLACK
6
CONTINUOUS
10
-19.3036
20
-3.55268
11
-19.3036
21
-3.51724
0
LINE
8
BLACK
6
CONTINUOUS
10
-19.3036
20
-3.51724
11
-19.2564
21
-3.51724
0
LINE
8
BLACK
6
CONTINUOUS
10
-19.2564
20
-3.51724
11
-19.2564
21
-3.55268
0
LINE
8
BLACK
6
CONTINUOUS
10
-8.82612
20
-3.55268
11
-8.87336
21
-3.55268
0
LINE
8
BLACK
6
CONTINUOUS
10
-8.87336
20
-3.55268
11
-8.87336
21
-3.51724
0
LINE
8
BLACK
6
CONTINUOUS
10
-8.87336
20
-3.51724
11
-8.82612
21
-3.51724
0
LINE
8
BLACK
6
CONTINUOUS
10
-8.82612
20
-3.51724
11
-8.82612
21
-3.55268
0
LINE
8
BLACK
6
CONTINUOUS
10
-18.5039
20
-3.55268
11
-18.5511
21
-3.55268
0
LINE
8
BLACK
6
CONTINUOUS
10
-18.5511
20
-3.55268
11
-18.5511
21
-3.51724
0
LINE
8
BLACK
6
CONTINUOUS
10
-18.5511
20
-3.51724
11
-18.5039
21
-3.51724
0
LINE
8
BLACK
6
CONTINUOUS
10
-18.5039
20
-3.51724
11
-18.5039
21
-3.55268
0
LINE
8
BLACK
6
CONTINUOUS
10
-10.3261
20
-3.42376
11
-10.3734
21
-3.42376
0
LINE
8
BLACK
6
CONTINUOUS
10
-10.3734
20
-3.42376
11
-10.3734
21
-3.38832
0
LINE
8
BLACK
6
CONTINUOUS
10
-10.3734
20
-3.38832
11
-10.3261
21
-3.38832
0
LINE
8
BLACK
6
CONTINUOUS
10
-10.3261
20
-3.38832
11
-10.3261
21
-3.42376
0
LINE
8
BLACK
6
CONTINUOUS
10
-9.57612
20
-3.42376
11
-9.62336
21
-3.42376
0
LINE
8
BLACK
6
CONTINUOUS
10
-9.62336
20
-3.42376
11
-9.62336
21
-3.38832
0
LINE
8
BLACK
6
CONTINUOUS
10
-9.62336
20
-3.38832
11
-9.57612
21
-3.38832
0
LINE
8
BLACK
6
CONTINUOUS
10
-9.57612
20
-3.38832
11
-9.57612
21
-3.42376
0
LINE
8
BLACK
6
CONTINUOUS
10
-10.9974
20
-3.42376
11
-11.0446
21
-3.42376
0
LINE
8
BLACK
6
CONTINUOUS
10
-11.0446
20
-3.42376
11
-11.0446
21
-3.38832
0
LINE
8
BLACK
6
CONTINUOUS
10
-11.0446
20
-3.38832
11
-10.9974
21
-3.38832
0
LINE
8
BLACK
6
CONTINUOUS
10
-10.9974
20
-3.38832
11
-10.9974
21
-3.42376
0
LINE
8
BLACK
6
CONTINUOUS
10
-24.6964
20
-3.42276
11
-24.7436
21
-3.42276
0
LINE
8
BLACK
6
CONTINUOUS
10
-24.7436
20
-3.42276
11
-24.7436
21
-3.38732
0
LINE
8
BLACK
6
CONTINUOUS
10
-24.7436
20
-3.38732
11
-24.6964
21
-3.38732
0
LINE
8
BLACK
6
CONTINUOUS
10
-24.6964
20
-3.38732
11
-24.6964
21
-3.42276
0
LINE
8
BLACK
6
CONTINUOUS
10
-23.9464
20
-3.42276
11
-23.9936
21
-3.42276
0
LINE
8
BLACK
6
CONTINUOUS
10
-23.9936
20
-3.42276
11
-23.9936
21
-3.38732
0
LINE
8
BLACK
6
CONTINUOUS
10
-23.9936
20
-3.38732
11
-23.9464
21
-3.38732
0
LINE
8
BLACK
6
CONTINUOUS
10
-23.9464
20
-3.38732
11
-23.9464
21
-3.42276
0
LINE
8
BLACK
6
CONTINUOUS
10
-8.82612
20
-3.42276
11
-8.87336
21
-3.42276
0
LINE
8
BLACK
6
CONTINUOUS
10
-8.87336
20
-3.42276
11
-8.87336
21
-3.38732
0
LINE
8
BLACK
6
CONTINUOUS
10
-8.87336
20
-3.38732
11
-8.82612
21
-3.38732
0
LINE
8
BLACK
6
CONTINUOUS
10
-8.82612
20
-3.38732
11
-8.82612
21
-3.42276
0
LINE
8
BLACK
6
CONTINUOUS
10
-23.1964
20
-3.42276
11
-23.2436
21
-3.42276
0
LINE
8
BLACK
6
CONTINUOUS
10
-23.2436
20
-3.42276
11
-23.2436
21
-3.38732
0
LINE
8
BLACK
6
CONTINUOUS
10
-23.2436
20
-3.38732
11
-23.1964
21
-3.38732
0
LINE
8
BLACK
6
CONTINUOUS
10
-23.1964
20
-3.38732
11
-23.1964
21
-3.42276
0
LINE
8
BLACK
6
CONTINUOUS
10
-19.2564
20
-3.42276
11
-19.3036
21
-3.42276
0
LINE
8
BLACK
6
CONTINUOUS
10
-19.3036
20
-3.42276
11
-19.3036
21
-3.38732
0
LINE
8
BLACK
6
CONTINUOUS
10
-19.3036
20
-3.38732
11
-19.2564
21
-3.38732
0
LINE
8
BLACK
6
CONTINUOUS
10
-19.2564
20
-3.38732
11
-19.2564
21
-3.42276
0
LINE
8
BLACK
6
CONTINUOUS
10
-25.4464
20
-3.42276
11
-25.4936
21
-3.42276
0
LINE
8
BLACK
6
CONTINUOUS
10
-25.4936
20
-3.42276
11
-25.4936
21
-3.38732
0
LINE
8
BLACK
6
CONTINUOUS
10
-25.4936
20
-3.38732
11
-25.4464
21
-3.38732
0
LINE
8
BLACK
6
CONTINUOUS
10
-25.4464
20
-3.38732
11
-25.4464
21
-3.42276
0
LINE
8
BLACK
6
CONTINUOUS
10
-22.2589
20
-3.42276
11
-22.3061
21
-3.42276
0
LINE
8
BLACK
6
CONTINUOUS
10
-22.3061
20
-3.42276
11
-22.3061
21
-3.38732
0
LINE
8
BLACK
6
CONTINUOUS
10
-22.3061
20
-3.38732
11
-22.2589
21
-3.38732
0
LINE
8
BLACK
6
CONTINUOUS
10
-22.2589
20
-3.38732
11
-22.2589
21
-3.42276
0
LINE
8
BLACK
6
CONTINUOUS
10
-18.5039
20
-3.42276
11
-18.5511
21
-3.42276
0
LINE
8
BLACK
6
CONTINUOUS
10
-18.5511
20
-3.42276
11
-18.5511
21
-3.38732
0
LINE
8
BLACK
6
CONTINUOUS
10
-18.5511
20
-3.38732
11
-18.5039
21
-3.38732
0
LINE
8
BLACK
6
CONTINUOUS
10
-18.5039
20
-3.38732
11
-18.5039
21
-3.42276
0
LINE
8
BLACK
6
CONTINUOUS
10
-14.3513
20
-3.37776
11
-14.397
21
-3.38998
0
LINE
8
BLACK
6
CONTINUOUS
10
-14.397
20
-3.38998
11
-14.4061
21
-3.35576
0
LINE
8
BLACK
6
CONTINUOUS
10
-14.4061
20
-3.35576
11
-14.3605
21
-3.34353
0
LINE
8
BLACK
6
CONTINUOUS
10
-14.3605
20
-3.34353
11
-14.3513
21
-3.37776
0
LINE
8
BLACK
6
CONTINUOUS
10
-15.0512
20
-3.35518
11
-15.0604
21
-3.38941
0
LINE
8
BLACK
6
CONTINUOUS
10
-15.0604
20
-3.38941
11
-15.1061
21
-3.37718
0
LINE
8
BLACK
6
CONTINUOUS
10
-15.1061
20
-3.37718
11
-15.0969
21
-3.34296
0
LINE
8
BLACK
6
CONTINUOUS
10
-15.0969
20
-3.34296
11
-15.0512
21
-3.35518
0
LINE
8
BLACK
6
CONTINUOUS
10
-14.385
20
-3.25226
11
-14.4306
21
-3.26449
0
LINE
8
BLACK
6
CONTINUOUS
10
-14.4306
20
-3.26449
11
-14.4398
21
-3.23026
0
LINE
8
BLACK
6
CONTINUOUS
10
-14.4398
20
-3.23026
11
-14.3941
21
-3.21804
0
LINE
8
BLACK
6
CONTINUOUS
10
-14.3941
20
-3.21804
11
-14.385
21
-3.25226
0
LINE
8
BLACK
6
CONTINUOUS
10
-15.0176
20
-3.22969
11
-15.0268
21
-3.26391
0
LINE
8
BLACK
6
CONTINUOUS
10
-15.0268
20
-3.26391
11
-15.0724
21
-3.25169
0
LINE
8
BLACK
6
CONTINUOUS
10
-15.0724
20
-3.25169
11
-15.0633
21
-3.21746
0
LINE
8
BLACK
6
CONTINUOUS
10
-15.0633
20
-3.21746
11
-15.0176
21
-3.22969
0
LINE
8
BLACK
6
CONTINUOUS
10
-13.6269
20
-3.18364
11
-13.6725
21
-3.19587
0
LINE
8
BLACK
6
CONTINUOUS
10
-13.6725
20
-3.19587
11
-13.6817
21
-3.16164
0
LINE
8
BLACK
6
CONTINUOUS
10
-13.6817
20
-3.16164
11
-13.6361
21
-3.14942
0
LINE
8
BLACK
6
CONTINUOUS
10
-13.6361
20
-3.14942
11
-13.6269
21
-3.18364
0
LINE
8
BLACK
6
CONTINUOUS
10
-15.7757
20
-3.16107
11
-15.7849
21
-3.19529
0
LINE
8
BLACK
6
CONTINUOUS
10
-15.7849
20
-3.19529
11
-15.8305
21
-3.18307
0
LINE
8
BLACK
6
CONTINUOUS
10
-15.8305
20
-3.18307
11
-15.8213
21
-3.14884
0
LINE
8
BLACK
6
CONTINUOUS
10
-15.8213
20
-3.14884
11
-15.7757
21
-3.16107
0
LINE
8
BLACK
6
CONTINUOUS
10
-13.6605
20
-3.05815
11
-13.7061
21
-3.07038
0
LINE
8
BLACK
6
CONTINUOUS
10
-13.7061
20
-3.07038
11
-13.7153
21
-3.03615
0
LINE
8
BLACK
6
CONTINUOUS
10
-13.7153
20
-3.03615
11
-13.6697
21
-3.02392
0
LINE
8
BLACK
6
CONTINUOUS
10
-13.6697
20
-3.02392
11
-13.6605
21
-3.05815
0
LINE
8
BLACK
6
CONTINUOUS
10
-15.7421
20
-3.03557
11
-15.7512
21
-3.0698
0
LINE
8
BLACK
6
CONTINUOUS
10
-15.7512
20
-3.0698
11
-15.7969
21
-3.05757
0
LINE
8
BLACK
6
CONTINUOUS
10
-15.7969
20
-3.05757
11
-15.7877
21
-3.02335
0
LINE
8
BLACK
6
CONTINUOUS
10
-15.7877
20
-3.02335
11
-15.7421
21
-3.03557
0
LINE
8
BLACK
6
CONTINUOUS
10
-12.9024
20
-2.98953
11
-12.9481
21
-3.00176
0
LINE
8
BLACK
6
CONTINUOUS
10
-12.9481
20
-3.00176
11
-12.9572
21
-2.96753
0
LINE
8
BLACK
6
CONTINUOUS
10
-12.9572
20
-2.96753
11
-12.9116
21
-2.9553
0
LINE
8
BLACK
6
CONTINUOUS
10
-12.9116
20
-2.9553
11
-12.9024
21
-2.98953
0
LINE
8
BLACK
6
CONTINUOUS
10
-16.5001
20
-2.96695
11
-16.5093
21
-3.00118
0
LINE
8
BLACK
6
CONTINUOUS
10
-16.5093
20
-3.00118
11
-16.5549
21
-2.98895
0
LINE
8
BLACK
6
CONTINUOUS
10
-16.5549
20
-2.98895
11
-16.5458
21
-2.95473
0
LINE
8
BLACK
6
CONTINUOUS
10
-16.5458
20
-2.95473
11
-16.5001
21
-2.96695
0
LINE
8
BLACK
6
CONTINUOUS
10
-12.9361
20
-2.86403
11
-12.9817
21
-2.87626
0
LINE
8
BLACK
6
CONTINUOUS
10
-12.9817
20
-2.87626
11
-12.9909
21
-2.84204
0
LINE
8
BLACK
6
CONTINUOUS
10
-12.9909
20
-2.84204
11
-12.9452
21
-2.82981
0
LINE
8
BLACK
6
CONTINUOUS
10
-12.9452
20
-2.82981
11
-12.9361
21
-2.86403
0
LINE
8
BLACK
6
CONTINUOUS
10
-16.4665
20
-2.84146
11
-16.4757
21
-2.87569
0
LINE
8
BLACK
6
CONTINUOUS
10
-16.4757
20
-2.87569
11
-16.5213
21
-2.86346
0
LINE
8
BLACK
6
CONTINUOUS
10
-16.5213
20
-2.86346
11
-16.5121
21
-2.82923
0
LINE
8
BLACK
6
CONTINUOUS
10
-16.5121
20
-2.82923
11
-16.4665
21
-2.84146
0
LINE
8
BLACK
6
CONTINUOUS
10
-12.178
20
-2.79541
11
-12.2236
21
-2.80764
0
LINE
8
BLACK
6
CONTINUOUS
10
-12.2236
20
-2.80764
11
-12.2328
21
-2.77342
0
LINE
8
BLACK
6
CONTINUOUS
10
-12.2328
20
-2.77342
11
-12.1872
21
-2.76119
0
LINE
8
BLACK
6
CONTINUOUS
10
-12.1872
20
-2.76119
11
-12.178
21
-2.79541
0
LINE
8
BLACK
6
CONTINUOUS
10
-17.2175
20
-2.7409
11
-17.2267
21
-2.77513
0
LINE
8
BLACK
6
CONTINUOUS
10
-17.2267
20
-2.77513
11
-17.2723
21
-2.7629
0
LINE
8
BLACK
6
CONTINUOUS
10
-17.2723
20
-2.7629
11
-17.2631
21
-2.72867
0
LINE
8
BLACK
6
CONTINUOUS
10
-17.2631
20
-2.72867
11
-17.2175
21
-2.7409
0
LINE
8
BLACK
6
CONTINUOUS
10
-12.2116
20
-2.66992
11
-12.2573
21
-2.68215
0
LINE
8
BLACK
6
CONTINUOUS
10
-12.2573
20
-2.68215
11
-12.2664
21
-2.64792
0
LINE
8
BLACK
6
CONTINUOUS
10
-12.2664
20
-2.64792
11
-12.2208
21
-2.63569
0
LINE
8
BLACK
6
CONTINUOUS
10
-12.2208
20
-2.63569
11
-12.2116
21
-2.66992
0
LINE
8
BLACK
6
CONTINUOUS
10
-17.1839
20
-2.61541
11
-17.193
21
-2.64963
0
LINE
8
BLACK
6
CONTINUOUS
10
-17.193
20
-2.64963
11
-17.2387
21
-2.63741
0
LINE
8
BLACK
6
CONTINUOUS
10
-17.2387
20
-2.63741
11
-17.2295
21
-2.60318
0
LINE
8
BLACK
6
CONTINUOUS
10
-17.2295
20
-2.60318
11
-17.1839
21
-2.61541
0
LINE
8
BLACK
6
CONTINUOUS
10
-18.3189
20
-2.63486
11
-18.3661
21
-2.63486
0
LINE
8
BLACK
6
CONTINUOUS
10
-18.3661
20
-2.63486
11
-18.3661
21
-2.59943
0
LINE
8
BLACK
6
CONTINUOUS
10
-18.3661
20
-2.59943
11
-18.3189
21
-2.59943
0
LINE
8
BLACK
6
CONTINUOUS
10
-18.3189
20
-2.59943
11
-18.3189
21
-2.63486
0
LINE
8
BLACK
6
CONTINUOUS
10
-8.82512
20
-2.61518
11
-8.87236
21
-2.61518
0
LINE
8
BLACK
6
CONTINUOUS
10
-8.87236
20
-2.61518
11
-8.87236
21
-2.57974
0
LINE
8
BLACK
6
CONTINUOUS
10
-8.87236
20
-2.57974
11
-8.82512
21
-2.57974
0
LINE
8
BLACK
6
CONTINUOUS
10
-8.82512
20
-2.57974
11
-8.82512
21
-2.61518
0
LINE
8
BLACK
6
CONTINUOUS
10
-10.4341
20
-2.61518
11
-10.4814
21
-2.61518
0
LINE
8
BLACK
6
CONTINUOUS
10
-10.4814
20
-2.61518
11
-10.4814
21
-2.57974
0
LINE
8
BLACK
6
CONTINUOUS
10
-10.4814
20
-2.57974
11
-10.4341
21
-2.57974
0
LINE
8
BLACK
6
CONTINUOUS
10
-10.4341
20
-2.57974
11
-10.4341
21
-2.61518
0
LINE
8
BLACK
6
CONTINUOUS
10
-8.07512
20
-2.61518
11
-8.12236
21
-2.61518
0
LINE
8
BLACK
6
CONTINUOUS
10
-8.12236
20
-2.61518
11
-8.12236
21
-2.57974
0
LINE
8
BLACK
6
CONTINUOUS
10
-8.12236
20
-2.57974
11
-8.07512
21
-2.57974
0
LINE
8
BLACK
6
CONTINUOUS
10
-8.07512
20
-2.57974
11
-8.07512
21
-2.61518
0
LINE
8
BLACK
6
CONTINUOUS
10
-11.1054
20
-2.61518
11
-11.1526
21
-2.61518
0
LINE
8
BLACK
6
CONTINUOUS
10
-11.1526
20
-2.61518
11
-11.1526
21
-2.57974
0
LINE
8
BLACK
6
CONTINUOUS
10
-11.1526
20
-2.57974
11
-11.1054
21
-2.57974
0
LINE
8
BLACK
6
CONTINUOUS
10
-11.1054
20
-2.57974
11
-11.1054
21
-2.61518
0
LINE
8
BLACK
6
CONTINUOUS
10
-20.1939
20
-2.61518
11
-20.2411
21
-2.61518
0
LINE
8
BLACK
6
CONTINUOUS
10
-20.2411
20
-2.61518
11
-20.2411
21
-2.57974
0
LINE
8
BLACK
6
CONTINUOUS
10
-20.2411
20
-2.57974
11
-20.1939
21
-2.57974
0
LINE
8
BLACK
6
CONTINUOUS
10
-20.1939
20
-2.57974
11
-20.1939
21
-2.61518
0
LINE
8
BLACK
6
CONTINUOUS
10
-19.0689
20
-2.61518
11
-19.1161
21
-2.61518
0
LINE
8
BLACK
6
CONTINUOUS
10
-19.1161
20
-2.61518
11
-19.1161
21
-2.57974
0
LINE
8
BLACK
6
CONTINUOUS
10
-19.1161
20
-2.57974
11
-19.0689
21
-2.57974
0
LINE
8
BLACK
6
CONTINUOUS
10
-19.0689
20
-2.57974
11
-19.0689
21
-2.61518
0
LINE
8
BLACK
6
CONTINUOUS
10
-18.3189
20
-2.50494
11
-18.3661
21
-2.50494
0
LINE
8
BLACK
6
CONTINUOUS
10
-18.3661
20
-2.50494
11
-18.3661
21
-2.46951
0
LINE
8
BLACK
6
CONTINUOUS
10
-18.3661
20
-2.46951
11
-18.3189
21
-2.46951
0
LINE
8
BLACK
6
CONTINUOUS
10
-18.3189
20
-2.46951
11
-18.3189
21
-2.50494
0
LINE
8
BLACK
6
CONTINUOUS
10
-10.4341
20
-2.48526
11
-10.4814
21
-2.48526
0
LINE
8
BLACK
6
CONTINUOUS
10
-10.4814
20
-2.48526
11
-10.4814
21
-2.44982
0
LINE
8
BLACK
6
CONTINUOUS
10
-10.4814
20
-2.44982
11
-10.4341
21
-2.44982
0
LINE
8
BLACK
6
CONTINUOUS
10
-10.4341
20
-2.44982
11
-10.4341
21
-2.48526
0
LINE
8
BLACK
6
CONTINUOUS
10
-8.82512
20
-2.48526
11
-8.87236
21
-2.48526
0
LINE
8
BLACK
6
CONTINUOUS
10
-8.87236
20
-2.48526
11
-8.87236
21
-2.44982
0
LINE
8
BLACK
6
CONTINUOUS
10
-8.87236
20
-2.44982
11
-8.82512
21
-2.44982
0
LINE
8
BLACK
6
CONTINUOUS
10
-8.82512
20
-2.44982
11
-8.82512
21
-2.48526
0
LINE
8
BLACK
6
CONTINUOUS
10
-8.07512
20
-2.48526
11
-8.12236
21
-2.48526
0
LINE
8
BLACK
6
CONTINUOUS
10
-8.12236
20
-2.48526
11
-8.12236
21
-2.44982
0
LINE
8
BLACK
6
CONTINUOUS
10
-8.12236
20
-2.44982
11
-8.07512
21
-2.44982
0
LINE
8
BLACK
6
CONTINUOUS
10
-8.07512
20
-2.44982
11
-8.07512
21
-2.48526
0
LINE
8
BLACK
6
CONTINUOUS
10
-11.1054
20
-2.48526
11
-11.1526
21
-2.48526
0
LINE
8
BLACK
6
CONTINUOUS
10
-11.1526
20
-2.48526
11
-11.1526
21
-2.44982
0
LINE
8
BLACK
6
CONTINUOUS
10
-11.1526
20
-2.44982
11
-11.1054
21
-2.44982
0
LINE
8
BLACK
6
CONTINUOUS
10
-11.1054
20
-2.44982
11
-11.1054
21
-2.48526
0
LINE
8
BLACK
6
CONTINUOUS
10
-20.1939
20
-2.48526
11
-20.2411
21
-2.48526
0
LINE
8
BLACK
6
CONTINUOUS
10
-20.2411
20
-2.48526
11
-20.2411
21
-2.44982
0
LINE
8
BLACK
6
CONTINUOUS
10
-20.2411
20
-2.44982
11
-20.1939
21
-2.44982
0
LINE
8
BLACK
6
CONTINUOUS
10
-20.1939
20
-2.44982
11
-20.1939
21
-2.48526
0
LINE
8
BLACK
6
CONTINUOUS
10
-19.0689
20
-2.48526
11
-19.1161
21
-2.48526
0
LINE
8
BLACK
6
CONTINUOUS
10
-19.1161
20
-2.48526
11
-19.1161
21
-2.44982
0
LINE
8
BLACK
6
CONTINUOUS
10
-19.1161
20
-2.44982
11
-19.0689
21
-2.44982
0
LINE
8
BLACK
6
CONTINUOUS
10
-19.0689
20
-2.44982
11
-19.0689
21
-2.48526
  0
ENDSEC
  0
EOF
