M48
; DRILL file {KiCad (5.1.10)-1} date 06/20/21 11:49:40
; FORMAT={-:-/ absolute / inch / decimal}
; #@! TF.CreationDate,2021-06-20T11:49:40-07:00
; #@! TF.GenerationSoftware,Kicad,Pcbnew,(5.1.10)-1
; #@! TF.FileFunction,Plated,1,2,PTH
FMAT,2
INCH
T1C0.0157
T2C0.0430
T3C0.0579
%
G90
G05
T1
X-25.47Y-3.405
X-24.722Y-5.13
X-24.72Y-4.285
X-24.72Y-5.785
X-24.72Y-6.059
X-24.72Y-6.535
X-24.7189Y-6.0196
X-24.672Y-3.881
X-24.093Y-5.618
X-24.09Y-5.063
X-23.97Y-4.285
X-23.97Y-4.905
X-23.968Y-3.626
X-23.22Y-3.535
X-23.22Y-4.53
X-23.22Y-6.16
X-23.217Y-6.461
X-22.344Y-6.288
X-22.342Y-6.407
X-22.291Y-4.98
X-22.2825Y-3.535
X-22.2825Y-6.535
X-22.2185Y-3.2605
X-22.179Y-3.4924
X-22.156Y-3.828
X-22.152Y-3.161
X-22.141Y-3.474
X-22.108Y-4.157
X-22.085Y-3.115
X-22.056Y-3.521
X-21.952Y-3.89
X-21.951Y-5.399
X-21.888Y-3.6134
X-21.858Y-5.189
X-21.778Y-4.972
X-21.682Y-5.291
X-21.579Y-4.659
X-21.53Y-5.655
X-21.53Y-6.405
X-21.53Y-6.535
X-21.485Y-3.709
X-21.438Y-5.302
X-21.382Y-3.807
X-21.0Y-4.657
X-20.957Y-6.353
X-20.862Y-3.609
X-20.862Y-4.539
X-20.147Y-2.911
X-20.147Y-3.405
X-20.058Y-2.966
X-20.058Y-3.306
X-19.621Y-2.84
X-19.008Y-2.856
X-18.335Y-2.759
X-18.157Y-3.106
X-18.154Y-2.3
X-18.097Y-3.215
X-18.094Y-2.3286
X-17.993Y-2.3572
X-17.99Y-2.974
X-17.93Y-2.912
X-17.9289Y-2.3896
X-17.706Y-2.99
X-17.654Y-3.713
X-17.2449Y-2.7519
X-14.952Y-7.334
X-14.93Y-6.7113
X-9.5627Y-5.638
X-9.2397Y-5.788
X-9.1987Y-5.668
X-9.0447Y-5.272
X-8.8427Y-5.522
X-8.3317Y-5.626
X-8.1327Y-6.14
T2
X-21.881Y-2.307
X-21.881Y-2.407
X-21.881Y-2.507
X-21.881Y-2.607
X-21.881Y-2.707
X-21.881Y-2.807
X-21.881Y-2.907
X-21.881Y-3.007
X-21.881Y-3.107
X-21.881Y-3.207
X-21.881Y-3.307
X-21.872Y-3.407
X-21.781Y-3.407
X-21.681Y-3.407
X-21.581Y-3.407
X-21.481Y-3.407
X-21.381Y-3.407
X-21.281Y-2.307
X-21.281Y-2.407
X-21.281Y-2.507
X-21.281Y-2.607
X-21.281Y-2.707
X-21.281Y-2.807
X-21.281Y-2.907
X-21.281Y-3.007
X-21.281Y-3.107
X-21.281Y-3.207
X-21.281Y-3.307
X-21.281Y-3.407
T3
X-25.995Y-3.37
X-25.995Y-4.12
X-25.995Y-4.87
X-25.995Y-5.62
X-25.995Y-6.37
X-25.9434Y-3.3125
X-25.9434Y-4.0625
X-25.9434Y-4.8125
X-25.9434Y-5.5625
X-25.9434Y-6.3125
X-25.7466Y-3.2928
X-25.7466Y-4.0428
X-25.7466Y-4.7928
X-25.7466Y-5.5428
X-25.7466Y-6.2928
X-25.745Y-3.27
X-25.745Y-4.02
X-25.745Y-4.77
X-25.745Y-5.52
X-25.745Y-6.27
X-25.62Y-6.37
X-25.5684Y-6.3125
X-25.3716Y-6.2928
X-25.37Y-6.27
X-25.245Y-3.37
X-25.245Y-4.12
X-25.245Y-4.87
X-25.245Y-5.62
X-25.245Y-6.37
X-25.1934Y-3.3125
X-25.1934Y-4.0625
X-25.1934Y-4.8125
X-25.1934Y-5.5625
X-25.1934Y-6.3125
X-24.9966Y-3.2928
X-24.9966Y-4.0428
X-24.9966Y-4.7928
X-24.9966Y-5.5428
X-24.9966Y-6.2928
X-24.995Y-3.27
X-24.995Y-4.02
X-24.995Y-4.77
X-24.995Y-5.52
X-24.995Y-6.27
X-24.495Y-3.37
X-24.495Y-4.12
X-24.495Y-4.87
X-24.495Y-5.62
X-24.495Y-6.37
X-24.4434Y-3.3125
X-24.4434Y-4.0625
X-24.4434Y-4.8125
X-24.4434Y-5.5625
X-24.4434Y-6.3125
X-24.2466Y-3.2928
X-24.2466Y-4.0428
X-24.2466Y-4.7928
X-24.2466Y-5.5428
X-24.2466Y-6.2928
X-24.245Y-3.27
X-24.245Y-4.02
X-24.245Y-4.77
X-24.245Y-5.52
X-24.245Y-6.27
X-23.795Y-4.495
X-23.795Y-5.995
X-23.7722Y-4.4966
X-23.7722Y-5.9966
X-23.7525Y-4.6934
X-23.7525Y-6.1934
X-23.745Y-3.37
X-23.695Y-4.745
X-23.695Y-6.245
X-23.6934Y-3.3125
X-23.4966Y-3.2928
X-23.495Y-3.27
X-22.8075Y-3.37
X-22.8075Y-6.37
X-22.7559Y-3.3125
X-22.7559Y-6.3125
X-22.5591Y-3.2928
X-22.5591Y-6.2928
X-22.5575Y-3.27
X-22.5575Y-6.27
X-22.055Y-5.62
X-22.055Y-6.37
X-22.0034Y-5.5625
X-22.0034Y-6.3125
X-21.8066Y-5.5428
X-21.8066Y-6.2928
X-21.805Y-5.52
X-21.805Y-6.27
X-21.305Y-6.37
X-21.2534Y-6.3125
X-21.0566Y-6.2928
X-21.055Y-6.27
X-20.835Y-5.62
X-20.7834Y-5.5625
X-20.7425Y-2.4325
X-20.6909Y-2.375
X-20.5866Y-5.5428
X-20.585Y-5.52
X-20.4941Y-2.3553
X-20.4925Y-2.3325
X-20.46Y-4.87
X-20.46Y-6.37
X-20.4084Y-4.8125
X-20.4084Y-6.3125
X-20.27Y-4.87
X-20.2184Y-4.8125
X-20.2116Y-4.7928
X-20.2116Y-6.2928
X-20.21Y-4.77
X-20.21Y-6.27
X-20.18Y-4.12
X-20.1284Y-4.0625
X-20.0216Y-4.7928
X-20.02Y-4.77
X-19.9316Y-4.0428
X-19.93Y-4.02
X-19.805Y-3.37
X-19.7534Y-3.3125
X-19.6175Y-2.4325
X-19.615Y-5.62
X-19.5659Y-2.375
X-19.5634Y-5.5625
X-19.5566Y-3.2928
X-19.555Y-3.27
X-19.525Y-6.37
X-19.4734Y-6.3125
X-19.4275Y-4.87
X-19.3759Y-4.8125
X-19.3691Y-2.3553
X-19.3675Y-2.3325
X-19.3666Y-5.5428
X-19.365Y-5.52
X-19.2766Y-6.2928
X-19.275Y-6.27
X-19.24Y-4.12
X-19.1884Y-4.0625
X-19.1791Y-4.7928
X-19.1775Y-4.77
X-19.0525Y-3.37
X-19.0009Y-3.3125
X-18.9916Y-4.0428
X-18.99Y-4.02
X-18.8675Y-2.4325
X-18.8159Y-2.375
X-18.8041Y-3.2928
X-18.8025Y-3.27
X-18.6191Y-2.3553
X-18.6175Y-2.3325
X-18.398Y-6.4073
X-18.3333Y-6.3651
X-18.2922Y-5.6593
X-18.2275Y-5.6171
X-18.1572Y-4.9193
X-18.1381Y-6.397
X-18.1306Y-6.3754
X-18.0925Y-4.8771
X-18.0322Y-5.649
X-18.0316Y-4.1743
X-18.0248Y-5.6274
X-17.9669Y-4.1321
X-17.9014Y-3.4336
X-17.8972Y-4.909
X-17.8898Y-4.8874
X-17.8367Y-3.3914
X-17.7717Y-4.164
X-17.7643Y-4.1424
X-17.7164Y-2.4886
X-17.6517Y-2.4464
X-17.6415Y-3.4234
X-17.634Y-3.4017
X-17.5677Y-5.8534
X-17.503Y-5.8112
X-17.4565Y-2.4784
X-17.449Y-2.4567
X-17.4327Y-5.1134
X-17.368Y-5.0712
X-17.3078Y-5.8431
X-17.3072Y-4.3684
X-17.3003Y-5.8215
X-17.2425Y-4.3262
X-17.177Y-3.6277
X-17.1728Y-5.1031
X-17.1653Y-5.0815
X-17.1123Y-3.5855
X-17.0473Y-4.3581
X-17.0398Y-4.3365
X-16.992Y-2.6827
X-16.948Y-6.7963
X-16.9273Y-2.6406
X-16.917Y-3.6175
X-16.9096Y-3.5958
X-16.8833Y-6.7541
X-16.8433Y-6.0475
X-16.7786Y-6.0053
X-16.732Y-2.6725
X-16.7246Y-2.6508
X-16.7083Y-5.3075
X-16.6881Y-6.786
X-16.6806Y-6.7644
X-16.6436Y-5.2653
X-16.5833Y-6.0373
X-16.5827Y-4.5625
X-16.5759Y-6.0156
X-16.5181Y-4.5203
X-16.4525Y-3.8218
X-16.4483Y-5.2973
X-16.4409Y-5.2756
X-16.3878Y-3.7797
X-16.3228Y-4.5523
X-16.3154Y-4.5306
X-16.2675Y-2.8768
X-16.2028Y-2.8347
X-16.1926Y-3.8116
X-16.1851Y-3.7899
X-16.1188Y-6.2416
X-16.0541Y-6.1994
X-16.0076Y-2.8666
X-16.0001Y-2.845
X-15.9838Y-5.5016
X-15.9191Y-5.4594
X-15.8589Y-6.2314
X-15.8583Y-4.7566
X-15.8515Y-6.2097
X-15.7936Y-4.7144
X-15.7281Y-4.0159
X-15.7239Y-5.4914
X-15.7165Y-5.4697
X-15.6634Y-3.9738
X-15.5984Y-4.7464
X-15.5909Y-4.7247
X-15.5885Y-7.1602
X-15.5431Y-3.071
X-15.5238Y-7.118
X-15.4784Y-3.0288
X-15.4681Y-4.0057
X-15.4607Y-3.9841
X-15.3944Y-6.4357
X-15.3297Y-6.3936
X-15.3286Y-7.1499
X-15.3211Y-7.1283
X-15.2831Y-3.0607
X-15.2757Y-3.0391
X-15.1344Y-6.4255
X-15.127Y-6.4038
X-14.3211Y-6.5134
X-14.2862Y-6.4445
X-14.2041Y-3.1492
X-14.1692Y-3.0803
X-14.1055Y-6.3521
X-14.1012Y-6.3745
X-14.0049Y-4.0971
X-13.9885Y-2.9879
X-13.9841Y-3.0103
X-13.97Y-4.0282
X-13.8689Y-4.8381
X-13.834Y-4.7692
X-13.7893Y-3.9358
X-13.7849Y-3.9583
X-13.7329Y-5.5781
X-13.698Y-5.5092
X-13.6533Y-4.6768
X-13.6489Y-4.6993
X-13.5967Y-6.3193
X-13.5618Y-6.2504
X-13.5173Y-5.4168
X-13.5129Y-5.4393
X-13.4928Y-7.0672
X-13.4797Y-2.9551
X-13.4578Y-6.9984
X-13.4447Y-2.8862
X-13.3811Y-6.158
X-13.3767Y-6.1804
X-13.2805Y-3.903
X-13.2772Y-6.9059
X-13.2728Y-6.9284
X-13.2641Y-2.7938
X-13.2597Y-2.8162
X-13.2455Y-3.8341
X-13.1445Y-4.644
X-13.1095Y-4.5751
X-13.0649Y-3.7417
X-13.0605Y-3.7641
X-13.0085Y-5.384
X-12.9735Y-5.3151
X-12.9289Y-4.4827
X-12.9245Y-4.5051
X-12.8723Y-6.1251
X-12.8373Y-6.0563
X-12.7929Y-5.2227
X-12.7885Y-5.2451
X-12.7552Y-2.761
X-12.7203Y-2.6921
X-12.6567Y-5.9638
X-12.6523Y-5.9863
X-12.556Y-3.7089
X-12.5396Y-2.5997
X-12.5352Y-2.6221
X-12.5211Y-3.64
X-12.42Y-4.4499
X-12.3851Y-4.381
X-12.3404Y-3.5476
X-12.336Y-3.57
X-12.284Y-5.1899
X-12.2491Y-5.121
X-12.2044Y-4.2886
X-12.2Y-4.311
X-12.1478Y-5.931
X-12.1129Y-5.8622
X-12.0684Y-5.0286
X-12.064Y-5.051
X-12.0439Y-6.679
X-12.0308Y-2.5668
X-12.0089Y-6.6101
X-11.9958Y-2.498
X-11.9322Y-5.7697
X-11.9278Y-5.7922
X-11.8316Y-3.5147
X-11.8283Y-6.5177
X-11.8239Y-6.5402
X-11.8152Y-2.4055
X-11.8108Y-2.428
X-11.7966Y-3.4459
X-11.6956Y-4.2557
X-11.6606Y-4.1869
X-11.616Y-3.3534
X-11.6116Y-3.3759
X-11.5596Y-4.9957
X-11.5246Y-4.9269
X-11.48Y-4.0944
X-11.4756Y-4.1169
X-11.4234Y-5.7369
X-11.3884Y-5.668
X-11.344Y-4.8344
X-11.3396Y-4.8569
X-11.2078Y-5.5756
X-11.2034Y-5.5981
X-10.9827Y-2.4325
X-10.9312Y-2.375
X-10.8747Y-3.371
X-10.8232Y-3.3135
X-10.7343Y-2.3553
X-10.7327Y-2.3325
X-10.6263Y-3.2938
X-10.6247Y-3.271
X-10.5007Y-4.121
X-10.4492Y-4.0635
X-10.3117Y-5.619
X-10.3107Y-4.869
X-10.2602Y-5.5615
X-10.2592Y-4.8115
X-10.2523Y-4.0438
X-10.2507Y-4.021
X-10.2327Y-2.4325
X-10.1812Y-2.375
X-10.1247Y-3.371
X-10.0732Y-3.3135
X-10.0633Y-5.5418
X-10.0623Y-4.7918
X-10.0617Y-5.519
X-10.0607Y-4.769
X-9.9843Y-2.3553
X-9.9827Y-2.3325
X-9.8763Y-3.2938
X-9.8747Y-3.271
X-9.8407Y-6.371
X-9.7892Y-6.3135
X-9.7497Y-4.121
X-9.6982Y-4.0635
X-9.5923Y-6.2938
X-9.5907Y-6.271
X-9.5607Y-4.869
X-9.5092Y-4.8115
X-9.5013Y-4.0438
X-9.4997Y-4.021
X-9.3747Y-3.371
X-9.3232Y-3.3135
X-9.3123Y-4.7918
X-9.3107Y-4.769
X-9.1263Y-3.2938
X-9.1247Y-3.271
X-9.0927Y-5.622
X-9.0412Y-5.5645
X-8.9997Y-4.121
X-8.9482Y-4.0635
X-8.9039Y-6.371
X-8.8523Y-6.3135
X-8.8443Y-5.5448
X-8.8427Y-5.522
X-8.7513Y-4.0438
X-8.7497Y-4.021
X-8.6555Y-6.2938
X-8.6539Y-6.271
X-8.6237Y-2.4325
X-8.5722Y-2.375
X-8.3753Y-2.3553
X-8.3737Y-2.3325
X-8.343Y-4.87
X-8.2914Y-4.8125
X-8.2497Y-3.37
X-8.1982Y-3.3125
X-8.0945Y-4.7928
X-8.093Y-4.77
X-8.0617Y-4.121
X-8.0102Y-4.0635
X-8.0013Y-3.2928
X-7.9997Y-3.27
X-7.9669Y-6.371
X-7.9153Y-6.3135
X-7.8737Y-2.4325
X-7.8737Y-5.62
X-7.8222Y-2.375
X-7.8222Y-5.5625
X-7.8133Y-4.0438
X-7.8117Y-4.021
X-7.7185Y-6.2938
X-7.7169Y-6.271
X-7.6253Y-2.3553
X-7.6253Y-5.5428
X-7.6237Y-2.3325
X-7.6237Y-5.52
T0
M30
