  0
SECTION
  2
HEADER
  9
$ANGBASE
  50
0.0
  9
$ANGDIR
  70
1
  9
$MEASUREMENT
  70
0
  0
ENDSEC
  0
SECTION
  2
TABLES
  0
TABLE
  2
LTYPE
  70
4
  0
LTYPE
  5
40F
  2
CONTINUOUS
  70
0
  3
Solid line
  72
65
  73
0
  40
0.0
  0
LTYPE
  5
410
  2
DASHDOT
 70
0
  3
Dash Dot ____ _ ____ _
 72
65
 73
4
 40
2.0
 49
1.25
 49
-0.25
 49
0.25
 49
-0.25
  0
LTYPE
  5
411
  2
DASHED
 70
0
  3
Dashed __ __ __ __ __
 72
65
 73
2
 40
0.75
 49
0.5
 49
-0.25
  0
LTYPE
  5
43B
  2
DOTTED
 70
0
  3
Dotted .  .  .  .
 72
65
 73
2
 40
0.2
 49
0.0
 49
-0.2
  0
ENDTAB
  0
TABLE
  2
STYLE
  70
4
  0
STYLE
  2
KICAD
  70
0
  40
0
  41
1
  42
1
  50
0
  71
0
  3
isocp.shx
  0
STYLE
  2
KICADB
  70
0
  40
0
  41
1
  42
1
  50
0
  71
0
  3
isocp.shx
  0
STYLE
  2
KICADI
  70
0
  40
0
  41
1
  42
1
  50
15
  71
0
  3
isocp.shx
  0
STYLE
  2
KICADBI
  70
0
  40
0
  41
1
  42
1
  50
15
  71
0
  3
isocp.shx
  0
ENDTAB
  0
TABLE
  2
LAYER
  70
1
  0
LAYER
  2
BLACK
  70
0
  62
7
  6
CONTINUOUS
  0
ENDTAB
  0
ENDSEC
  0
SECTION
  2
ENTITIES
0
LINE
8
BLACK
6
CONTINUOUS
10
-21.4416
20
-3.54598
11
-21.5204
21
-3.54598
0
LINE
8
BLACK
6
CONTINUOUS
10
-21.5204
20
-3.54598
11
-21.5204
21
-3.41802
0
LINE
8
BLACK
6
CONTINUOUS
10
-21.5204
20
-3.41802
11
-21.4416
21
-3.41802
0
LINE
8
BLACK
6
CONTINUOUS
10
-21.4416
20
-3.41802
11
-21.4416
21
-3.54598
0
LINE
8
BLACK
6
CONTINUOUS
10
-21.5416
20
-3.54598
11
-21.6204
21
-3.54598
0
LINE
8
BLACK
6
CONTINUOUS
10
-21.6204
20
-3.54598
11
-21.6204
21
-3.41802
0
LINE
8
BLACK
6
CONTINUOUS
10
-21.6204
20
-3.41802
11
-21.5416
21
-3.41802
0
LINE
8
BLACK
6
CONTINUOUS
10
-21.5416
20
-3.41802
11
-21.5416
21
-3.54598
0
LINE
8
BLACK
6
CONTINUOUS
10
-21.6416
20
-3.54598
11
-21.7204
21
-3.54598
0
LINE
8
BLACK
6
CONTINUOUS
10
-21.7204
20
-3.54598
11
-21.7204
21
-3.41802
0
LINE
8
BLACK
6
CONTINUOUS
10
-21.7204
20
-3.41802
11
-21.6416
21
-3.41802
0
LINE
8
BLACK
6
CONTINUOUS
10
-21.6416
20
-3.41802
11
-21.6416
21
-3.54598
0
LINE
8
BLACK
6
CONTINUOUS
10
-21.7416
20
-3.54598
11
-21.8204
21
-3.54598
0
LINE
8
BLACK
6
CONTINUOUS
10
-21.8204
20
-3.54598
11
-21.8204
21
-3.41802
0
LINE
8
BLACK
6
CONTINUOUS
10
-21.8204
20
-3.41802
11
-21.7416
21
-3.41802
0
LINE
8
BLACK
6
CONTINUOUS
10
-21.7416
20
-3.41802
11
-21.7416
21
-3.54598
0
LINE
8
BLACK
6
CONTINUOUS
10
-21.3416
20
-3.54598
11
-21.4204
21
-3.54598
0
LINE
8
BLACK
6
CONTINUOUS
10
-21.4204
20
-3.54598
11
-21.4204
21
-3.41802
0
LINE
8
BLACK
6
CONTINUOUS
10
-21.4204
20
-3.41802
11
-21.3416
21
-3.41802
0
LINE
8
BLACK
6
CONTINUOUS
10
-21.3416
20
-3.41802
11
-21.3416
21
-3.54598
0
LINE
8
BLACK
6
CONTINUOUS
10
-21.887
20
-3.44637
11
-22.015
21
-3.44637
0
LINE
8
BLACK
6
CONTINUOUS
10
-22.015
20
-3.44637
11
-22.015
21
-3.36763
0
LINE
8
BLACK
6
CONTINUOUS
10
-22.015
20
-3.36763
11
-21.887
21
-3.36763
0
LINE
8
BLACK
6
CONTINUOUS
10
-21.887
20
-3.36763
11
-21.887
21
-3.44637
0
LINE
8
BLACK
6
CONTINUOUS
10
-21.147
20
-3.44637
11
-21.275
21
-3.44637
0
LINE
8
BLACK
6
CONTINUOUS
10
-21.275
20
-3.44637
11
-21.275
21
-3.36763
0
LINE
8
BLACK
6
CONTINUOUS
10
-21.275
20
-3.36763
11
-21.147
21
-3.36763
0
LINE
8
BLACK
6
CONTINUOUS
10
-21.147
20
-3.36763
11
-21.147
21
-3.44637
0
LINE
8
BLACK
6
CONTINUOUS
10
-21.887
20
-3.34637
11
-22.015
21
-3.34637
0
LINE
8
BLACK
6
CONTINUOUS
10
-22.015
20
-3.34637
11
-22.015
21
-3.26763
0
LINE
8
BLACK
6
CONTINUOUS
10
-22.015
20
-3.26763
11
-21.887
21
-3.26763
0
LINE
8
BLACK
6
CONTINUOUS
10
-21.887
20
-3.26763
11
-21.887
21
-3.34637
0
LINE
8
BLACK
6
CONTINUOUS
10
-21.147
20
-3.34637
11
-21.275
21
-3.34637
0
LINE
8
BLACK
6
CONTINUOUS
10
-21.275
20
-3.34637
11
-21.275
21
-3.26763
0
LINE
8
BLACK
6
CONTINUOUS
10
-21.275
20
-3.26763
11
-21.147
21
-3.26763
0
LINE
8
BLACK
6
CONTINUOUS
10
-21.147
20
-3.26763
11
-21.147
21
-3.34637
0
LINE
8
BLACK
6
CONTINUOUS
10
-21.147
20
-3.24637
11
-21.275
21
-3.24637
0
LINE
8
BLACK
6
CONTINUOUS
10
-21.275
20
-3.24637
11
-21.275
21
-3.16763
0
LINE
8
BLACK
6
CONTINUOUS
10
-21.275
20
-3.16763
11
-21.147
21
-3.16763
0
LINE
8
BLACK
6
CONTINUOUS
10
-21.147
20
-3.16763
11
-21.147
21
-3.24637
0
LINE
8
BLACK
6
CONTINUOUS
10
-21.887
20
-3.24637
11
-22.015
21
-3.24637
0
LINE
8
BLACK
6
CONTINUOUS
10
-22.015
20
-3.24637
11
-22.015
21
-3.16763
0
LINE
8
BLACK
6
CONTINUOUS
10
-22.015
20
-3.16763
11
-21.887
21
-3.16763
0
LINE
8
BLACK
6
CONTINUOUS
10
-21.887
20
-3.16763
11
-21.887
21
-3.24637
0
LINE
8
BLACK
6
CONTINUOUS
10
-21.147
20
-3.14637
11
-21.275
21
-3.14637
0
LINE
8
BLACK
6
CONTINUOUS
10
-21.275
20
-3.14637
11
-21.275
21
-3.06763
0
LINE
8
BLACK
6
CONTINUOUS
10
-21.275
20
-3.06763
11
-21.147
21
-3.06763
0
LINE
8
BLACK
6
CONTINUOUS
10
-21.147
20
-3.06763
11
-21.147
21
-3.14637
0
LINE
8
BLACK
6
CONTINUOUS
10
-21.887
20
-3.14637
11
-22.015
21
-3.14637
0
LINE
8
BLACK
6
CONTINUOUS
10
-22.015
20
-3.14637
11
-22.015
21
-3.06763
0
LINE
8
BLACK
6
CONTINUOUS
10
-22.015
20
-3.06763
11
-21.887
21
-3.06763
0
LINE
8
BLACK
6
CONTINUOUS
10
-21.887
20
-3.06763
11
-21.887
21
-3.14637
0
LINE
8
BLACK
6
CONTINUOUS
10
-21.147
20
-3.04637
11
-21.275
21
-3.04637
0
LINE
8
BLACK
6
CONTINUOUS
10
-21.275
20
-3.04637
11
-21.275
21
-2.96763
0
LINE
8
BLACK
6
CONTINUOUS
10
-21.275
20
-2.96763
11
-21.147
21
-2.96763
0
LINE
8
BLACK
6
CONTINUOUS
10
-21.147
20
-2.96763
11
-21.147
21
-3.04637
0
LINE
8
BLACK
6
CONTINUOUS
10
-21.887
20
-3.04637
11
-22.015
21
-3.04637
0
LINE
8
BLACK
6
CONTINUOUS
10
-22.015
20
-3.04637
11
-22.015
21
-2.96763
0
LINE
8
BLACK
6
CONTINUOUS
10
-22.015
20
-2.96763
11
-21.887
21
-2.96763
0
LINE
8
BLACK
6
CONTINUOUS
10
-21.887
20
-2.96763
11
-21.887
21
-3.04637
0
LINE
8
BLACK
6
CONTINUOUS
10
-21.147
20
-2.94637
11
-21.275
21
-2.94637
0
LINE
8
BLACK
6
CONTINUOUS
10
-21.275
20
-2.94637
11
-21.275
21
-2.86763
0
LINE
8
BLACK
6
CONTINUOUS
10
-21.275
20
-2.86763
11
-21.147
21
-2.86763
0
LINE
8
BLACK
6
CONTINUOUS
10
-21.147
20
-2.86763
11
-21.147
21
-2.94637
0
LINE
8
BLACK
6
CONTINUOUS
10
-21.887
20
-2.94637
11
-22.015
21
-2.94637
0
LINE
8
BLACK
6
CONTINUOUS
10
-22.015
20
-2.94637
11
-22.015
21
-2.86763
0
LINE
8
BLACK
6
CONTINUOUS
10
-22.015
20
-2.86763
11
-21.887
21
-2.86763
0
LINE
8
BLACK
6
CONTINUOUS
10
-21.887
20
-2.86763
11
-21.887
21
-2.94637
0
LINE
8
BLACK
6
CONTINUOUS
10
-21.147
20
-2.84637
11
-21.275
21
-2.84637
0
LINE
8
BLACK
6
CONTINUOUS
10
-21.275
20
-2.84637
11
-21.275
21
-2.76763
0
LINE
8
BLACK
6
CONTINUOUS
10
-21.275
20
-2.76763
11
-21.147
21
-2.76763
0
LINE
8
BLACK
6
CONTINUOUS
10
-21.147
20
-2.76763
11
-21.147
21
-2.84637
0
LINE
8
BLACK
6
CONTINUOUS
10
-21.887
20
-2.84637
11
-22.015
21
-2.84637
0
LINE
8
BLACK
6
CONTINUOUS
10
-22.015
20
-2.84637
11
-22.015
21
-2.76763
0
LINE
8
BLACK
6
CONTINUOUS
10
-22.015
20
-2.76763
11
-21.887
21
-2.76763
0
LINE
8
BLACK
6
CONTINUOUS
10
-21.887
20
-2.76763
11
-21.887
21
-2.84637
0
LINE
8
BLACK
6
CONTINUOUS
10
-21.147
20
-2.74637
11
-21.275
21
-2.74637
0
LINE
8
BLACK
6
CONTINUOUS
10
-21.275
20
-2.74637
11
-21.275
21
-2.66763
0
LINE
8
BLACK
6
CONTINUOUS
10
-21.275
20
-2.66763
11
-21.147
21
-2.66763
0
LINE
8
BLACK
6
CONTINUOUS
10
-21.147
20
-2.66763
11
-21.147
21
-2.74637
0
LINE
8
BLACK
6
CONTINUOUS
10
-21.887
20
-2.74637
11
-22.015
21
-2.74637
0
LINE
8
BLACK
6
CONTINUOUS
10
-22.015
20
-2.74637
11
-22.015
21
-2.66763
0
LINE
8
BLACK
6
CONTINUOUS
10
-22.015
20
-2.66763
11
-21.887
21
-2.66763
0
LINE
8
BLACK
6
CONTINUOUS
10
-21.887
20
-2.66763
11
-21.887
21
-2.74637
0
LINE
8
BLACK
6
CONTINUOUS
10
-21.147
20
-2.64637
11
-21.275
21
-2.64637
0
LINE
8
BLACK
6
CONTINUOUS
10
-21.275
20
-2.64637
11
-21.275
21
-2.56763
0
LINE
8
BLACK
6
CONTINUOUS
10
-21.275
20
-2.56763
11
-21.147
21
-2.56763
0
LINE
8
BLACK
6
CONTINUOUS
10
-21.147
20
-2.56763
11
-21.147
21
-2.64637
0
LINE
8
BLACK
6
CONTINUOUS
10
-21.887
20
-2.64637
11
-22.015
21
-2.64637
0
LINE
8
BLACK
6
CONTINUOUS
10
-22.015
20
-2.64637
11
-22.015
21
-2.56763
0
LINE
8
BLACK
6
CONTINUOUS
10
-22.015
20
-2.56763
11
-21.887
21
-2.56763
0
LINE
8
BLACK
6
CONTINUOUS
10
-21.887
20
-2.56763
11
-21.887
21
-2.64637
0
LINE
8
BLACK
6
CONTINUOUS
10
-21.147
20
-2.54637
11
-21.275
21
-2.54637
0
LINE
8
BLACK
6
CONTINUOUS
10
-21.275
20
-2.54637
11
-21.275
21
-2.46763
0
LINE
8
BLACK
6
CONTINUOUS
10
-21.275
20
-2.46763
11
-21.147
21
-2.46763
0
LINE
8
BLACK
6
CONTINUOUS
10
-21.147
20
-2.46763
11
-21.147
21
-2.54637
0
LINE
8
BLACK
6
CONTINUOUS
10
-21.887
20
-2.54637
11
-22.015
21
-2.54637
0
LINE
8
BLACK
6
CONTINUOUS
10
-22.015
20
-2.54637
11
-22.015
21
-2.46763
0
LINE
8
BLACK
6
CONTINUOUS
10
-22.015
20
-2.46763
11
-21.887
21
-2.46763
0
LINE
8
BLACK
6
CONTINUOUS
10
-21.887
20
-2.46763
11
-21.887
21
-2.54637
0
LINE
8
BLACK
6
CONTINUOUS
10
-21.147
20
-2.44637
11
-21.275
21
-2.44637
0
LINE
8
BLACK
6
CONTINUOUS
10
-21.275
20
-2.44637
11
-21.275
21
-2.36763
0
LINE
8
BLACK
6
CONTINUOUS
10
-21.275
20
-2.36763
11
-21.147
21
-2.36763
0
LINE
8
BLACK
6
CONTINUOUS
10
-21.147
20
-2.36763
11
-21.147
21
-2.44637
0
LINE
8
BLACK
6
CONTINUOUS
10
-21.887
20
-2.44637
11
-22.015
21
-2.44637
0
LINE
8
BLACK
6
CONTINUOUS
10
-22.015
20
-2.44637
11
-22.015
21
-2.36763
0
LINE
8
BLACK
6
CONTINUOUS
10
-22.015
20
-2.36763
11
-21.887
21
-2.36763
0
LINE
8
BLACK
6
CONTINUOUS
10
-21.887
20
-2.36763
11
-21.887
21
-2.44637
0
LINE
8
BLACK
6
CONTINUOUS
10
-21.147
20
-2.34637
11
-21.275
21
-2.34637
0
LINE
8
BLACK
6
CONTINUOUS
10
-21.275
20
-2.34637
11
-21.275
21
-2.26763
0
LINE
8
BLACK
6
CONTINUOUS
10
-21.275
20
-2.26763
11
-21.147
21
-2.26763
0
LINE
8
BLACK
6
CONTINUOUS
10
-21.147
20
-2.26763
11
-21.147
21
-2.34637
0
LINE
8
BLACK
6
CONTINUOUS
10
-21.887
20
-2.34637
11
-22.015
21
-2.34637
0
LINE
8
BLACK
6
CONTINUOUS
10
-22.015
20
-2.34637
11
-22.015
21
-2.26763
0
LINE
8
BLACK
6
CONTINUOUS
10
-22.015
20
-2.26763
11
-21.887
21
-2.26763
0
LINE
8
BLACK
6
CONTINUOUS
10
-21.887
20
-2.26763
11
-21.887
21
-2.34637
  0
ENDSEC
  0
EOF
