%TF.GenerationSoftware,KiCad,Pcbnew,(5.1.10)-1*%
%TF.CreationDate,2021-06-20T14:11:50-07:00*%
%TF.ProjectId,HSC_Alice,4853435f-416c-4696-9365-2e6b69636164,rev?*%
%TF.SameCoordinates,Original*%
%TF.FileFunction,Copper,L1,Top*%
%TF.FilePolarity,Positive*%
%FSLAX46Y46*%
G04 Gerber Fmt 4.6, Leading zero omitted, Abs format (unit mm)*
G04 Created by KiCad (PCBNEW (5.1.10)-1) date 2021-06-20 14:11:50*
%MOMM*%
%LPD*%
G01*
G04 APERTURE LIST*
%TA.AperFunction,ComponentPad*%
%ADD10C,2.250000*%
%TD*%
%TA.AperFunction,SMDPad,CuDef*%
%ADD11R,2.000000X3.250000*%
%TD*%
%TA.AperFunction,SMDPad,CuDef*%
%ADD12R,3.250000X2.000000*%
%TD*%
%TA.AperFunction,ComponentPad*%
%ADD13C,1.752600*%
%TD*%
%TA.AperFunction,ComponentPad*%
%ADD14R,1.752600X1.752600*%
%TD*%
%TA.AperFunction,ViaPad*%
%ADD15C,0.800000*%
%TD*%
%TA.AperFunction,Conductor*%
%ADD16C,0.254000*%
%TD*%
G04 APERTURE END LIST*
D10*
%TO.P,MX16,1*%
%TO.N,Col2*%
X-620863000Y-141288000D03*
%TA.AperFunction,ComponentPad*%
G36*
G01*
X-622924312Y-143585350D02*
X-622924317Y-143585345D01*
G75*
G02*
X-623010345Y-141996683I751317J837345D01*
G01*
X-621700343Y-140536683D01*
G75*
G02*
X-620111681Y-140450655I837345J-751317D01*
G01*
X-620111681Y-140450655D01*
G75*
G02*
X-620025653Y-142039317I-751317J-837345D01*
G01*
X-621335655Y-143499317D01*
G75*
G02*
X-622924317Y-143585345I-837345J751317D01*
G01*
G37*
%TD.AperFunction*%
%TO.P,MX16,2*%
%TO.N,Net-(D16-Pad2)*%
X-615823000Y-140208000D03*
%TA.AperFunction,ComponentPad*%
G36*
G01*
X-615939517Y-141910395D02*
X-615940403Y-141910334D01*
G75*
G02*
X-616985334Y-140710597I77403J1122334D01*
G01*
X-616945334Y-140130597D01*
G75*
G02*
X-615745597Y-139085666I1122334J-77403D01*
G01*
X-615745597Y-139085666D01*
G75*
G02*
X-614700666Y-140285403I-77403J-1122334D01*
G01*
X-614740666Y-140865403D01*
G75*
G02*
X-615940403Y-141910334I-1122334J77403D01*
G01*
G37*
%TD.AperFunction*%
%TD*%
%TO.P,MX54,1*%
%TO.N,Col8*%
X-394304496Y-180797143D03*
%TA.AperFunction,ComponentPad*%
G36*
G01*
X-396890169Y-182482707D02*
X-396890173Y-182482700D01*
G75*
G02*
X-396562093Y-180925904I942438J614358D01*
G01*
X-394918853Y-179854706D01*
G75*
G02*
X-393362057Y-180182786I614358J-942438D01*
G01*
X-393362057Y-180182786D01*
G75*
G02*
X-393690137Y-181739582I-942438J-614358D01*
G01*
X-395333377Y-182810780D01*
G75*
G02*
X-396890173Y-182482700I-614358J942438D01*
G01*
G37*
%TD.AperFunction*%
%TO.P,MX54,2*%
%TO.N,Net-(D54-Pad2)*%
X-389156706Y-181058391D03*
%TA.AperFunction,ComponentPad*%
G36*
G01*
X-389709865Y-182672621D02*
X-389710705Y-182672333D01*
G75*
G02*
X-390409516Y-181243028I365247J1064058D01*
G01*
X-390220764Y-180693144D01*
G75*
G02*
X-388791459Y-179994333I1064058J-365247D01*
G01*
X-388791459Y-179994333D01*
G75*
G02*
X-388092648Y-181423638I-365247J-1064058D01*
G01*
X-388281400Y-181973522D01*
G75*
G02*
X-389710705Y-182672333I-1064058J365247D01*
G01*
G37*
%TD.AperFunction*%
%TD*%
%TO.P,MX95,1*%
%TO.N,Col15*%
X-229645600Y-141338800D03*
%TA.AperFunction,ComponentPad*%
G36*
G01*
X-231706912Y-143636150D02*
X-231706917Y-143636145D01*
G75*
G02*
X-231792945Y-142047483I751317J837345D01*
G01*
X-230482943Y-140587483D01*
G75*
G02*
X-228894281Y-140501455I837345J-751317D01*
G01*
X-228894281Y-140501455D01*
G75*
G02*
X-228808253Y-142090117I-751317J-837345D01*
G01*
X-230118255Y-143550117D01*
G75*
G02*
X-231706917Y-143636145I-837345J751317D01*
G01*
G37*
%TD.AperFunction*%
%TO.P,MX95,2*%
%TO.N,Net-(D95-Pad2)*%
X-224605600Y-140258800D03*
%TA.AperFunction,ComponentPad*%
G36*
G01*
X-224722117Y-141961195D02*
X-224723003Y-141961134D01*
G75*
G02*
X-225767934Y-140761397I77403J1122334D01*
G01*
X-225727934Y-140181397D01*
G75*
G02*
X-224528197Y-139136466I1122334J-77403D01*
G01*
X-224528197Y-139136466D01*
G75*
G02*
X-223483266Y-140336203I-77403J-1122334D01*
G01*
X-223523266Y-140916203D01*
G75*
G02*
X-224723003Y-141961134I-1122334J77403D01*
G01*
G37*
%TD.AperFunction*%
%TD*%
%TO.P,MX105,1*%
%TO.N,Col17*%
X-203458200Y-103213400D03*
%TA.AperFunction,ComponentPad*%
G36*
G01*
X-205519512Y-105510750D02*
X-205519517Y-105510745D01*
G75*
G02*
X-205605545Y-103922083I751317J837345D01*
G01*
X-204295543Y-102462083D01*
G75*
G02*
X-202706881Y-102376055I837345J-751317D01*
G01*
X-202706881Y-102376055D01*
G75*
G02*
X-202620853Y-103964717I-751317J-837345D01*
G01*
X-203930855Y-105424717D01*
G75*
G02*
X-205519517Y-105510745I-837345J751317D01*
G01*
G37*
%TD.AperFunction*%
%TO.P,MX105,2*%
%TO.N,Net-(D105-Pad2)*%
X-198418200Y-102133400D03*
%TA.AperFunction,ComponentPad*%
G36*
G01*
X-198534717Y-103835795D02*
X-198535603Y-103835734D01*
G75*
G02*
X-199580534Y-102635997I77403J1122334D01*
G01*
X-199540534Y-102055997D01*
G75*
G02*
X-198340797Y-101011066I1122334J-77403D01*
G01*
X-198340797Y-101011066D01*
G75*
G02*
X-197295866Y-102210803I-77403J-1122334D01*
G01*
X-197335866Y-102790803D01*
G75*
G02*
X-198535603Y-103835734I-1122334J77403D01*
G01*
G37*
%TD.AperFunction*%
%TD*%
%TO.P,MX48,1*%
%TO.N,Col7*%
X-428836138Y-171554049D03*
%TA.AperFunction,ComponentPad*%
G36*
G01*
X-431421811Y-173239613D02*
X-431421815Y-173239606D01*
G75*
G02*
X-431093735Y-171682810I942438J614358D01*
G01*
X-429450495Y-170611612D01*
G75*
G02*
X-427893699Y-170939692I614358J-942438D01*
G01*
X-427893699Y-170939692D01*
G75*
G02*
X-428221779Y-172496488I-942438J-614358D01*
G01*
X-429865019Y-173567686D01*
G75*
G02*
X-431421815Y-173239606I-614358J942438D01*
G01*
G37*
%TD.AperFunction*%
%TO.P,MX48,2*%
%TO.N,Net-(D48-Pad2)*%
X-423688348Y-171815297D03*
%TA.AperFunction,ComponentPad*%
G36*
G01*
X-424241507Y-173429527D02*
X-424242347Y-173429239D01*
G75*
G02*
X-424941158Y-171999934I365247J1064058D01*
G01*
X-424752406Y-171450050D01*
G75*
G02*
X-423323101Y-170751239I1064058J-365247D01*
G01*
X-423323101Y-170751239D01*
G75*
G02*
X-422624290Y-172180544I-365247J-1064058D01*
G01*
X-422813042Y-172730428D01*
G75*
G02*
X-424242347Y-173429239I-1064058J365247D01*
G01*
G37*
%TD.AperFunction*%
%TD*%
%TO.P,MX29,1*%
%TO.N,Col4*%
X-527899000Y-141288000D03*
%TA.AperFunction,ComponentPad*%
G36*
G01*
X-529960312Y-143585350D02*
X-529960317Y-143585345D01*
G75*
G02*
X-530046345Y-141996683I751317J837345D01*
G01*
X-528736343Y-140536683D01*
G75*
G02*
X-527147681Y-140450655I837345J-751317D01*
G01*
X-527147681Y-140450655D01*
G75*
G02*
X-527061653Y-142039317I-751317J-837345D01*
G01*
X-528371655Y-143499317D01*
G75*
G02*
X-529960317Y-143585345I-837345J751317D01*
G01*
G37*
%TD.AperFunction*%
%TO.P,MX29,2*%
%TO.N,Net-(D29-Pad2)*%
X-522859000Y-140208000D03*
%TA.AperFunction,ComponentPad*%
G36*
G01*
X-522975517Y-141910395D02*
X-522976403Y-141910334D01*
G75*
G02*
X-524021334Y-140710597I77403J1122334D01*
G01*
X-523981334Y-140130597D01*
G75*
G02*
X-522781597Y-139085666I1122334J-77403D01*
G01*
X-522781597Y-139085666D01*
G75*
G02*
X-521736666Y-140285403I-77403J-1122334D01*
G01*
X-521776666Y-140865403D01*
G75*
G02*
X-522976403Y-141910334I-1122334J77403D01*
G01*
G37*
%TD.AperFunction*%
%TD*%
%TO.P,MX28,1*%
%TO.N,Col4*%
X-513548000Y-122238000D03*
%TA.AperFunction,ComponentPad*%
G36*
G01*
X-515609312Y-124535350D02*
X-515609317Y-124535345D01*
G75*
G02*
X-515695345Y-122946683I751317J837345D01*
G01*
X-514385343Y-121486683D01*
G75*
G02*
X-512796681Y-121400655I837345J-751317D01*
G01*
X-512796681Y-121400655D01*
G75*
G02*
X-512710653Y-122989317I-751317J-837345D01*
G01*
X-514020655Y-124449317D01*
G75*
G02*
X-515609317Y-124535345I-837345J751317D01*
G01*
G37*
%TD.AperFunction*%
%TO.P,MX28,2*%
%TO.N,Net-(D28-Pad2)*%
X-508508000Y-121158000D03*
%TA.AperFunction,ComponentPad*%
G36*
G01*
X-508624517Y-122860395D02*
X-508625403Y-122860334D01*
G75*
G02*
X-509670334Y-121660597I77403J1122334D01*
G01*
X-509630334Y-121080597D01*
G75*
G02*
X-508430597Y-120035666I1122334J-77403D01*
G01*
X-508430597Y-120035666D01*
G75*
G02*
X-507385666Y-121235403I-77403J-1122334D01*
G01*
X-507425666Y-121815403D01*
G75*
G02*
X-508625403Y-122860334I-1122334J77403D01*
G01*
G37*
%TD.AperFunction*%
%TD*%
%TO.P,MX6,1*%
%TO.N,Col0*%
X-658963000Y-160338000D03*
%TA.AperFunction,ComponentPad*%
G36*
G01*
X-661024312Y-162635350D02*
X-661024317Y-162635345D01*
G75*
G02*
X-661110345Y-161046683I751317J837345D01*
G01*
X-659800343Y-159586683D01*
G75*
G02*
X-658211681Y-159500655I837345J-751317D01*
G01*
X-658211681Y-159500655D01*
G75*
G02*
X-658125653Y-161089317I-751317J-837345D01*
G01*
X-659435655Y-162549317D01*
G75*
G02*
X-661024317Y-162635345I-837345J751317D01*
G01*
G37*
%TD.AperFunction*%
%TO.P,MX6,2*%
%TO.N,Net-(D6-Pad2)*%
X-653923000Y-159258000D03*
%TA.AperFunction,ComponentPad*%
G36*
G01*
X-654039517Y-160960395D02*
X-654040403Y-160960334D01*
G75*
G02*
X-655085334Y-159760597I77403J1122334D01*
G01*
X-655045334Y-159180597D01*
G75*
G02*
X-653845597Y-158135666I1122334J-77403D01*
G01*
X-653845597Y-158135666D01*
G75*
G02*
X-652800666Y-159335403I-77403J-1122334D01*
G01*
X-652840666Y-159915403D01*
G75*
G02*
X-654040403Y-160960334I-1122334J77403D01*
G01*
G37*
%TD.AperFunction*%
%TD*%
D11*
%TO.P,U2,29*%
%TO.N,Col8*%
X-543077400Y-88442800D03*
%TO.P,U2,28*%
%TO.N,Col7*%
X-545617400Y-88442800D03*
%TO.P,U2,27*%
%TO.N,Row5*%
X-548157400Y-88442800D03*
%TO.P,U2,26*%
%TO.N,Row4*%
X-550697400Y-88442800D03*
%TO.P,U2,25*%
%TO.N,Row3*%
X-553237400Y-88442800D03*
D12*
%TO.P,U2,24*%
%TO.N,Col17*%
X-538759400Y-58597800D03*
%TO.P,U2,23*%
%TO.N,Net-(U2-Pad23)*%
X-538759400Y-61137800D03*
%TO.P,U2,22*%
%TO.N,Net-(U2-Pad22)*%
X-538759400Y-63677800D03*
%TO.P,U2,21*%
%TO.N,Net-(U2-Pad21)*%
X-538759400Y-66217800D03*
%TO.P,U2,20*%
%TO.N,Col16*%
X-538759400Y-68757800D03*
%TO.P,U2,19*%
%TO.N,Col15*%
X-538759400Y-71297800D03*
%TO.P,U2,18*%
%TO.N,Col14*%
X-538759400Y-73837800D03*
%TO.P,U2,17*%
%TO.N,Col13*%
X-538759400Y-76377800D03*
%TO.P,U2,16*%
%TO.N,Col12*%
X-538759400Y-78917800D03*
%TO.P,U2,15*%
%TO.N,Col11*%
X-538759400Y-81457800D03*
%TO.P,U2,14*%
%TO.N,Col10*%
X-538759400Y-83997800D03*
%TO.P,U2,13*%
%TO.N,Col9*%
X-538759400Y-86537800D03*
%TO.P,U2,12*%
%TO.N,Row2*%
X-557555400Y-86537800D03*
%TO.P,U2,11*%
%TO.N,Row1*%
X-557555400Y-83997800D03*
%TO.P,U2,10*%
%TO.N,Row0*%
X-557555400Y-81457800D03*
%TO.P,U2,9*%
%TO.N,Col6*%
X-557555400Y-78917800D03*
%TO.P,U2,8*%
%TO.N,Col5*%
X-557555400Y-76377800D03*
%TO.P,U2,7*%
%TO.N,Col4*%
X-557555400Y-73837800D03*
%TO.P,U2,6*%
%TO.N,Col3*%
X-557555400Y-71297800D03*
%TO.P,U2,5*%
%TO.N,Col2*%
X-557555400Y-68757800D03*
%TO.P,U2,4*%
%TO.N,Net-(U2-Pad4)*%
X-557555400Y-66217800D03*
%TO.P,U2,3*%
%TO.N,Net-(U2-Pad3)*%
X-557555400Y-63677800D03*
%TO.P,U2,2*%
%TO.N,Col1*%
X-557555400Y-61137800D03*
%TO.P,U2,1*%
%TO.N,Col0*%
X-557555400Y-58597800D03*
D13*
%TO.P,U2,25*%
%TO.N,Row3*%
X-553237400Y-86537800D03*
%TO.P,U2,26*%
%TO.N,Row4*%
X-550697400Y-86537800D03*
%TO.P,U2,27*%
%TO.N,Row5*%
X-548157400Y-86537800D03*
%TO.P,U2,28*%
%TO.N,Col7*%
X-545617400Y-86537800D03*
%TO.P,U2,29*%
%TO.N,Col8*%
X-543077400Y-86537800D03*
%TO.P,U2,24*%
%TO.N,Col17*%
X-540537400Y-58597800D03*
%TO.P,U2,12*%
%TO.N,Row2*%
X-555548800Y-86537800D03*
%TO.P,U2,23*%
%TO.N,Net-(U2-Pad23)*%
X-540537400Y-61137800D03*
%TO.P,U2,22*%
%TO.N,Net-(U2-Pad22)*%
X-540537400Y-63677800D03*
%TO.P,U2,21*%
%TO.N,Net-(U2-Pad21)*%
X-540537400Y-66217800D03*
%TO.P,U2,20*%
%TO.N,Col16*%
X-540537400Y-68757800D03*
%TO.P,U2,19*%
%TO.N,Col15*%
X-540537400Y-71297800D03*
%TO.P,U2,18*%
%TO.N,Col14*%
X-540537400Y-73837800D03*
%TO.P,U2,17*%
%TO.N,Col13*%
X-540537400Y-76377800D03*
%TO.P,U2,16*%
%TO.N,Col12*%
X-540537400Y-78917800D03*
%TO.P,U2,15*%
%TO.N,Col11*%
X-540537400Y-81457800D03*
%TO.P,U2,14*%
%TO.N,Col10*%
X-540537400Y-83997800D03*
%TO.P,U2,13*%
%TO.N,Col9*%
X-540537400Y-86537800D03*
%TO.P,U2,11*%
%TO.N,Row1*%
X-555777400Y-83997800D03*
%TO.P,U2,10*%
%TO.N,Row0*%
X-555777400Y-81457800D03*
%TO.P,U2,9*%
%TO.N,Col6*%
X-555777400Y-78917800D03*
%TO.P,U2,8*%
%TO.N,Col5*%
X-555777400Y-76377800D03*
%TO.P,U2,7*%
%TO.N,Col4*%
X-555777400Y-73837800D03*
%TO.P,U2,6*%
%TO.N,Col3*%
X-555777400Y-71297800D03*
%TO.P,U2,5*%
%TO.N,Col2*%
X-555777400Y-68757800D03*
%TO.P,U2,4*%
%TO.N,Net-(U2-Pad4)*%
X-555777400Y-66217800D03*
%TO.P,U2,3*%
%TO.N,Net-(U2-Pad3)*%
X-555777400Y-63677800D03*
%TO.P,U2,2*%
%TO.N,Col1*%
X-555777400Y-61137800D03*
D14*
%TO.P,U2,1*%
%TO.N,Col0*%
X-555777400Y-58597800D03*
%TD*%
D10*
%TO.P,MX104,1*%
%TO.N,Col17*%
X-208233400Y-84138000D03*
%TA.AperFunction,ComponentPad*%
G36*
G01*
X-210294712Y-86435350D02*
X-210294717Y-86435345D01*
G75*
G02*
X-210380745Y-84846683I751317J837345D01*
G01*
X-209070743Y-83386683D01*
G75*
G02*
X-207482081Y-83300655I837345J-751317D01*
G01*
X-207482081Y-83300655D01*
G75*
G02*
X-207396053Y-84889317I-751317J-837345D01*
G01*
X-208706055Y-86349317D01*
G75*
G02*
X-210294717Y-86435345I-837345J751317D01*
G01*
G37*
%TD.AperFunction*%
%TO.P,MX104,2*%
%TO.N,Net-(D104-Pad2)*%
X-203193400Y-83058000D03*
%TA.AperFunction,ComponentPad*%
G36*
G01*
X-203309917Y-84760395D02*
X-203310803Y-84760334D01*
G75*
G02*
X-204355734Y-83560597I77403J1122334D01*
G01*
X-204315734Y-82980597D01*
G75*
G02*
X-203115997Y-81935666I1122334J-77403D01*
G01*
X-203115997Y-81935666D01*
G75*
G02*
X-202071066Y-83135403I-77403J-1122334D01*
G01*
X-202111066Y-83715403D01*
G75*
G02*
X-203310803Y-84760334I-1122334J77403D01*
G01*
G37*
%TD.AperFunction*%
%TD*%
%TO.P,MX103,1*%
%TO.N,Col17*%
X-198683000Y-60325500D03*
%TA.AperFunction,ComponentPad*%
G36*
G01*
X-200744312Y-62622850D02*
X-200744317Y-62622845D01*
G75*
G02*
X-200830345Y-61034183I751317J837345D01*
G01*
X-199520343Y-59574183D01*
G75*
G02*
X-197931681Y-59488155I837345J-751317D01*
G01*
X-197931681Y-59488155D01*
G75*
G02*
X-197845653Y-61076817I-751317J-837345D01*
G01*
X-199155655Y-62536817D01*
G75*
G02*
X-200744317Y-62622845I-837345J751317D01*
G01*
G37*
%TD.AperFunction*%
%TO.P,MX103,2*%
%TO.N,Net-(D103-Pad2)*%
X-193643000Y-59245500D03*
%TA.AperFunction,ComponentPad*%
G36*
G01*
X-193759517Y-60947895D02*
X-193760403Y-60947834D01*
G75*
G02*
X-194805334Y-59748097I77403J1122334D01*
G01*
X-194765334Y-59168097D01*
G75*
G02*
X-193565597Y-58123166I1122334J-77403D01*
G01*
X-193565597Y-58123166D01*
G75*
G02*
X-192520666Y-59322903I-77403J-1122334D01*
G01*
X-192560666Y-59902903D01*
G75*
G02*
X-193760403Y-60947834I-1122334J77403D01*
G01*
G37*
%TD.AperFunction*%
%TD*%
%TO.P,MX102,1*%
%TO.N,Col16*%
X-198683000Y-141288000D03*
%TA.AperFunction,ComponentPad*%
G36*
G01*
X-200744312Y-143585350D02*
X-200744317Y-143585345D01*
G75*
G02*
X-200830345Y-141996683I751317J837345D01*
G01*
X-199520343Y-140536683D01*
G75*
G02*
X-197931681Y-140450655I837345J-751317D01*
G01*
X-197931681Y-140450655D01*
G75*
G02*
X-197845653Y-142039317I-751317J-837345D01*
G01*
X-199155655Y-143499317D01*
G75*
G02*
X-200744317Y-143585345I-837345J751317D01*
G01*
G37*
%TD.AperFunction*%
%TO.P,MX102,2*%
%TO.N,Net-(D102-Pad2)*%
X-193643000Y-140208000D03*
%TA.AperFunction,ComponentPad*%
G36*
G01*
X-193759517Y-141910395D02*
X-193760403Y-141910334D01*
G75*
G02*
X-194805334Y-140710597I77403J1122334D01*
G01*
X-194765334Y-140130597D01*
G75*
G02*
X-193565597Y-139085666I1122334J-77403D01*
G01*
X-193565597Y-139085666D01*
G75*
G02*
X-192520666Y-140285403I-77403J-1122334D01*
G01*
X-192560666Y-140865403D01*
G75*
G02*
X-193760403Y-141910334I-1122334J77403D01*
G01*
G37*
%TD.AperFunction*%
%TD*%
%TO.P,MX101,1*%
%TO.N,Col16*%
X-210601400Y-122238000D03*
%TA.AperFunction,ComponentPad*%
G36*
G01*
X-212662712Y-124535350D02*
X-212662717Y-124535345D01*
G75*
G02*
X-212748745Y-122946683I751317J837345D01*
G01*
X-211438743Y-121486683D01*
G75*
G02*
X-209850081Y-121400655I837345J-751317D01*
G01*
X-209850081Y-121400655D01*
G75*
G02*
X-209764053Y-122989317I-751317J-837345D01*
G01*
X-211074055Y-124449317D01*
G75*
G02*
X-212662717Y-124535345I-837345J751317D01*
G01*
G37*
%TD.AperFunction*%
%TO.P,MX101,2*%
%TO.N,Net-(D101-Pad2)*%
X-205561400Y-121158000D03*
%TA.AperFunction,ComponentPad*%
G36*
G01*
X-205677917Y-122860395D02*
X-205678803Y-122860334D01*
G75*
G02*
X-206723734Y-121660597I77403J1122334D01*
G01*
X-206683734Y-121080597D01*
G75*
G02*
X-205483997Y-120035666I1122334J-77403D01*
G01*
X-205483997Y-120035666D01*
G75*
G02*
X-204439066Y-121235403I-77403J-1122334D01*
G01*
X-204479066Y-121815403D01*
G75*
G02*
X-205678803Y-122860334I-1122334J77403D01*
G01*
G37*
%TD.AperFunction*%
%TD*%
%TO.P,MX99,1*%
%TO.N,Col16*%
X-227283400Y-103213400D03*
%TA.AperFunction,ComponentPad*%
G36*
G01*
X-229344712Y-105510750D02*
X-229344717Y-105510745D01*
G75*
G02*
X-229430745Y-103922083I751317J837345D01*
G01*
X-228120743Y-102462083D01*
G75*
G02*
X-226532081Y-102376055I837345J-751317D01*
G01*
X-226532081Y-102376055D01*
G75*
G02*
X-226446053Y-103964717I-751317J-837345D01*
G01*
X-227756055Y-105424717D01*
G75*
G02*
X-229344717Y-105510745I-837345J751317D01*
G01*
G37*
%TD.AperFunction*%
%TO.P,MX99,2*%
%TO.N,Net-(D99-Pad2)*%
X-222243400Y-102133400D03*
%TA.AperFunction,ComponentPad*%
G36*
G01*
X-222359917Y-103835795D02*
X-222360803Y-103835734D01*
G75*
G02*
X-223405734Y-102635997I77403J1122334D01*
G01*
X-223365734Y-102055997D01*
G75*
G02*
X-222165997Y-101011066I1122334J-77403D01*
G01*
X-222165997Y-101011066D01*
G75*
G02*
X-221121066Y-102210803I-77403J-1122334D01*
G01*
X-221161066Y-102790803D01*
G75*
G02*
X-222360803Y-103835734I-1122334J77403D01*
G01*
G37*
%TD.AperFunction*%
%TD*%
%TO.P,MX98,1*%
%TO.N,Col16*%
X-236808400Y-84163400D03*
%TA.AperFunction,ComponentPad*%
G36*
G01*
X-238869712Y-86460750D02*
X-238869717Y-86460745D01*
G75*
G02*
X-238955745Y-84872083I751317J837345D01*
G01*
X-237645743Y-83412083D01*
G75*
G02*
X-236057081Y-83326055I837345J-751317D01*
G01*
X-236057081Y-83326055D01*
G75*
G02*
X-235971053Y-84914717I-751317J-837345D01*
G01*
X-237281055Y-86374717D01*
G75*
G02*
X-238869717Y-86460745I-837345J751317D01*
G01*
G37*
%TD.AperFunction*%
%TO.P,MX98,2*%
%TO.N,Net-(D98-Pad2)*%
X-231768400Y-83083400D03*
%TA.AperFunction,ComponentPad*%
G36*
G01*
X-231884917Y-84785795D02*
X-231885803Y-84785734D01*
G75*
G02*
X-232930734Y-83585997I77403J1122334D01*
G01*
X-232890734Y-83005997D01*
G75*
G02*
X-231690997Y-81961066I1122334J-77403D01*
G01*
X-231690997Y-81961066D01*
G75*
G02*
X-230646066Y-83160803I-77403J-1122334D01*
G01*
X-230686066Y-83740803D01*
G75*
G02*
X-231885803Y-84785734I-1122334J77403D01*
G01*
G37*
%TD.AperFunction*%
%TD*%
%TO.P,MX97,1*%
%TO.N,Col16*%
X-217733000Y-60325500D03*
%TA.AperFunction,ComponentPad*%
G36*
G01*
X-219794312Y-62622850D02*
X-219794317Y-62622845D01*
G75*
G02*
X-219880345Y-61034183I751317J837345D01*
G01*
X-218570343Y-59574183D01*
G75*
G02*
X-216981681Y-59488155I837345J-751317D01*
G01*
X-216981681Y-59488155D01*
G75*
G02*
X-216895653Y-61076817I-751317J-837345D01*
G01*
X-218205655Y-62536817D01*
G75*
G02*
X-219794317Y-62622845I-837345J751317D01*
G01*
G37*
%TD.AperFunction*%
%TO.P,MX97,2*%
%TO.N,Net-(D97-Pad2)*%
X-212693000Y-59245500D03*
%TA.AperFunction,ComponentPad*%
G36*
G01*
X-212809517Y-60947895D02*
X-212810403Y-60947834D01*
G75*
G02*
X-213855334Y-59748097I77403J1122334D01*
G01*
X-213815334Y-59168097D01*
G75*
G02*
X-212615597Y-58123166I1122334J-77403D01*
G01*
X-212615597Y-58123166D01*
G75*
G02*
X-211570666Y-59322903I-77403J-1122334D01*
G01*
X-211610666Y-59902903D01*
G75*
G02*
X-212810403Y-60947834I-1122334J77403D01*
G01*
G37*
%TD.AperFunction*%
%TD*%
%TO.P,MX96,1*%
%TO.N,Col15*%
X-201049000Y-160363400D03*
%TA.AperFunction,ComponentPad*%
G36*
G01*
X-203110312Y-162660750D02*
X-203110317Y-162660745D01*
G75*
G02*
X-203196345Y-161072083I751317J837345D01*
G01*
X-201886343Y-159612083D01*
G75*
G02*
X-200297681Y-159526055I837345J-751317D01*
G01*
X-200297681Y-159526055D01*
G75*
G02*
X-200211653Y-161114717I-751317J-837345D01*
G01*
X-201521655Y-162574717D01*
G75*
G02*
X-203110317Y-162660745I-837345J751317D01*
G01*
G37*
%TD.AperFunction*%
%TO.P,MX96,2*%
%TO.N,Net-(D96-Pad2)*%
X-196009000Y-159283400D03*
%TA.AperFunction,ComponentPad*%
G36*
G01*
X-196125517Y-160985795D02*
X-196126403Y-160985734D01*
G75*
G02*
X-197171334Y-159785997I77403J1122334D01*
G01*
X-197131334Y-159205997D01*
G75*
G02*
X-195931597Y-158161066I1122334J-77403D01*
G01*
X-195931597Y-158161066D01*
G75*
G02*
X-194886666Y-159360803I-77403J-1122334D01*
G01*
X-194926666Y-159940803D01*
G75*
G02*
X-196126403Y-160985734I-1122334J77403D01*
G01*
G37*
%TD.AperFunction*%
%TD*%
%TO.P,MX94,1*%
%TO.N,Col15*%
X-241532800Y-122212600D03*
%TA.AperFunction,ComponentPad*%
G36*
G01*
X-243594112Y-124509950D02*
X-243594117Y-124509945D01*
G75*
G02*
X-243680145Y-122921283I751317J837345D01*
G01*
X-242370143Y-121461283D01*
G75*
G02*
X-240781481Y-121375255I837345J-751317D01*
G01*
X-240781481Y-121375255D01*
G75*
G02*
X-240695453Y-122963917I-751317J-837345D01*
G01*
X-242005455Y-124423917D01*
G75*
G02*
X-243594117Y-124509945I-837345J751317D01*
G01*
G37*
%TD.AperFunction*%
%TO.P,MX94,2*%
%TO.N,Net-(D94-Pad2)*%
X-236492800Y-121132600D03*
%TA.AperFunction,ComponentPad*%
G36*
G01*
X-236609317Y-122834995D02*
X-236610203Y-122834934D01*
G75*
G02*
X-237655134Y-121635197I77403J1122334D01*
G01*
X-237615134Y-121055197D01*
G75*
G02*
X-236415397Y-120010266I1122334J-77403D01*
G01*
X-236415397Y-120010266D01*
G75*
G02*
X-235370466Y-121210003I-77403J-1122334D01*
G01*
X-235410466Y-121790003D01*
G75*
G02*
X-236610203Y-122834934I-1122334J77403D01*
G01*
G37*
%TD.AperFunction*%
%TD*%
%TO.P,MX93,1*%
%TO.N,Col15*%
X-246333400Y-103213400D03*
%TA.AperFunction,ComponentPad*%
G36*
G01*
X-248394712Y-105510750D02*
X-248394717Y-105510745D01*
G75*
G02*
X-248480745Y-103922083I751317J837345D01*
G01*
X-247170743Y-102462083D01*
G75*
G02*
X-245582081Y-102376055I837345J-751317D01*
G01*
X-245582081Y-102376055D01*
G75*
G02*
X-245496053Y-103964717I-751317J-837345D01*
G01*
X-246806055Y-105424717D01*
G75*
G02*
X-248394717Y-105510745I-837345J751317D01*
G01*
G37*
%TD.AperFunction*%
%TO.P,MX93,2*%
%TO.N,Net-(D93-Pad2)*%
X-241293400Y-102133400D03*
%TA.AperFunction,ComponentPad*%
G36*
G01*
X-241409917Y-103835795D02*
X-241410803Y-103835734D01*
G75*
G02*
X-242455734Y-102635997I77403J1122334D01*
G01*
X-242415734Y-102055997D01*
G75*
G02*
X-241215997Y-101011066I1122334J-77403D01*
G01*
X-241215997Y-101011066D01*
G75*
G02*
X-240171066Y-102210803I-77403J-1122334D01*
G01*
X-240211066Y-102790803D01*
G75*
G02*
X-241410803Y-103835734I-1122334J77403D01*
G01*
G37*
%TD.AperFunction*%
%TD*%
%TO.P,MX92,1*%
%TO.N,Col15*%
X-255858400Y-84163400D03*
%TA.AperFunction,ComponentPad*%
G36*
G01*
X-257919712Y-86460750D02*
X-257919717Y-86460745D01*
G75*
G02*
X-258005745Y-84872083I751317J837345D01*
G01*
X-256695743Y-83412083D01*
G75*
G02*
X-255107081Y-83326055I837345J-751317D01*
G01*
X-255107081Y-83326055D01*
G75*
G02*
X-255021053Y-84914717I-751317J-837345D01*
G01*
X-256331055Y-86374717D01*
G75*
G02*
X-257919717Y-86460745I-837345J751317D01*
G01*
G37*
%TD.AperFunction*%
%TO.P,MX92,2*%
%TO.N,Net-(D92-Pad2)*%
X-250818400Y-83083400D03*
%TA.AperFunction,ComponentPad*%
G36*
G01*
X-250934917Y-84785795D02*
X-250935803Y-84785734D01*
G75*
G02*
X-251980734Y-83585997I77403J1122334D01*
G01*
X-251940734Y-83005997D01*
G75*
G02*
X-250740997Y-81961066I1122334J-77403D01*
G01*
X-250740997Y-81961066D01*
G75*
G02*
X-249696066Y-83160803I-77403J-1122334D01*
G01*
X-249736066Y-83740803D01*
G75*
G02*
X-250935803Y-84785734I-1122334J77403D01*
G01*
G37*
%TD.AperFunction*%
%TD*%
%TO.P,MX91,1*%
%TO.N,Col15*%
X-258601600Y-60325500D03*
%TA.AperFunction,ComponentPad*%
G36*
G01*
X-260662912Y-62622850D02*
X-260662917Y-62622845D01*
G75*
G02*
X-260748945Y-61034183I751317J837345D01*
G01*
X-259438943Y-59574183D01*
G75*
G02*
X-257850281Y-59488155I837345J-751317D01*
G01*
X-257850281Y-59488155D01*
G75*
G02*
X-257764253Y-61076817I-751317J-837345D01*
G01*
X-259074255Y-62536817D01*
G75*
G02*
X-260662917Y-62622845I-837345J751317D01*
G01*
G37*
%TD.AperFunction*%
%TO.P,MX91,2*%
%TO.N,Net-(D91-Pad2)*%
X-253561600Y-59245500D03*
%TA.AperFunction,ComponentPad*%
G36*
G01*
X-253678117Y-60947895D02*
X-253679003Y-60947834D01*
G75*
G02*
X-254723934Y-59748097I77403J1122334D01*
G01*
X-254683934Y-59168097D01*
G75*
G02*
X-253484197Y-58123166I1122334J-77403D01*
G01*
X-253484197Y-58123166D01*
G75*
G02*
X-252439266Y-59322903I-77403J-1122334D01*
G01*
X-252479266Y-59902903D01*
G75*
G02*
X-253679003Y-60947834I-1122334J77403D01*
G01*
G37*
%TD.AperFunction*%
%TD*%
%TO.P,MX90,1*%
%TO.N,Col14*%
X-224848800Y-160363400D03*
%TA.AperFunction,ComponentPad*%
G36*
G01*
X-226910112Y-162660750D02*
X-226910117Y-162660745D01*
G75*
G02*
X-226996145Y-161072083I751317J837345D01*
G01*
X-225686143Y-159612083D01*
G75*
G02*
X-224097481Y-159526055I837345J-751317D01*
G01*
X-224097481Y-159526055D01*
G75*
G02*
X-224011453Y-161114717I-751317J-837345D01*
G01*
X-225321455Y-162574717D01*
G75*
G02*
X-226910117Y-162660745I-837345J751317D01*
G01*
G37*
%TD.AperFunction*%
%TO.P,MX90,2*%
%TO.N,Net-(D90-Pad2)*%
X-219808800Y-159283400D03*
%TA.AperFunction,ComponentPad*%
G36*
G01*
X-219925317Y-160985795D02*
X-219926203Y-160985734D01*
G75*
G02*
X-220971134Y-159785997I77403J1122334D01*
G01*
X-220931134Y-159205997D01*
G75*
G02*
X-219731397Y-158161066I1122334J-77403D01*
G01*
X-219731397Y-158161066D01*
G75*
G02*
X-218686466Y-159360803I-77403J-1122334D01*
G01*
X-218726466Y-159940803D01*
G75*
G02*
X-219926203Y-160985734I-1122334J77403D01*
G01*
G37*
%TD.AperFunction*%
%TD*%
%TO.P,MX89,1*%
%TO.N,Col14*%
X-260608200Y-141262600D03*
%TA.AperFunction,ComponentPad*%
G36*
G01*
X-262669512Y-143559950D02*
X-262669517Y-143559945D01*
G75*
G02*
X-262755545Y-141971283I751317J837345D01*
G01*
X-261445543Y-140511283D01*
G75*
G02*
X-259856881Y-140425255I837345J-751317D01*
G01*
X-259856881Y-140425255D01*
G75*
G02*
X-259770853Y-142013917I-751317J-837345D01*
G01*
X-261080855Y-143473917D01*
G75*
G02*
X-262669517Y-143559945I-837345J751317D01*
G01*
G37*
%TD.AperFunction*%
%TO.P,MX89,2*%
%TO.N,Net-(D89-Pad2)*%
X-255568200Y-140182600D03*
%TA.AperFunction,ComponentPad*%
G36*
G01*
X-255684717Y-141884995D02*
X-255685603Y-141884934D01*
G75*
G02*
X-256730534Y-140685197I77403J1122334D01*
G01*
X-256690534Y-140105197D01*
G75*
G02*
X-255490797Y-139060266I1122334J-77403D01*
G01*
X-255490797Y-139060266D01*
G75*
G02*
X-254445866Y-140260003I-77403J-1122334D01*
G01*
X-254485866Y-140840003D01*
G75*
G02*
X-255685603Y-141884934I-1122334J77403D01*
G01*
G37*
%TD.AperFunction*%
%TD*%
%TO.P,MX88,1*%
%TO.N,Col14*%
X-260582800Y-122212600D03*
%TA.AperFunction,ComponentPad*%
G36*
G01*
X-262644112Y-124509950D02*
X-262644117Y-124509945D01*
G75*
G02*
X-262730145Y-122921283I751317J837345D01*
G01*
X-261420143Y-121461283D01*
G75*
G02*
X-259831481Y-121375255I837345J-751317D01*
G01*
X-259831481Y-121375255D01*
G75*
G02*
X-259745453Y-122963917I-751317J-837345D01*
G01*
X-261055455Y-124423917D01*
G75*
G02*
X-262644117Y-124509945I-837345J751317D01*
G01*
G37*
%TD.AperFunction*%
%TO.P,MX88,2*%
%TO.N,Net-(D88-Pad2)*%
X-255542800Y-121132600D03*
%TA.AperFunction,ComponentPad*%
G36*
G01*
X-255659317Y-122834995D02*
X-255660203Y-122834934D01*
G75*
G02*
X-256705134Y-121635197I77403J1122334D01*
G01*
X-256665134Y-121055197D01*
G75*
G02*
X-255465397Y-120010266I1122334J-77403D01*
G01*
X-255465397Y-120010266D01*
G75*
G02*
X-254420466Y-121210003I-77403J-1122334D01*
G01*
X-254460466Y-121790003D01*
G75*
G02*
X-255660203Y-122834934I-1122334J77403D01*
G01*
G37*
%TD.AperFunction*%
%TD*%
%TO.P,MX87,1*%
%TO.N,Col14*%
X-265408800Y-103213400D03*
%TA.AperFunction,ComponentPad*%
G36*
G01*
X-267470112Y-105510750D02*
X-267470117Y-105510745D01*
G75*
G02*
X-267556145Y-103922083I751317J837345D01*
G01*
X-266246143Y-102462083D01*
G75*
G02*
X-264657481Y-102376055I837345J-751317D01*
G01*
X-264657481Y-102376055D01*
G75*
G02*
X-264571453Y-103964717I-751317J-837345D01*
G01*
X-265881455Y-105424717D01*
G75*
G02*
X-267470117Y-105510745I-837345J751317D01*
G01*
G37*
%TD.AperFunction*%
%TO.P,MX87,2*%
%TO.N,Net-(D87-Pad2)*%
X-260368800Y-102133400D03*
%TA.AperFunction,ComponentPad*%
G36*
G01*
X-260485317Y-103835795D02*
X-260486203Y-103835734D01*
G75*
G02*
X-261531134Y-102635997I77403J1122334D01*
G01*
X-261491134Y-102055997D01*
G75*
G02*
X-260291397Y-101011066I1122334J-77403D01*
G01*
X-260291397Y-101011066D01*
G75*
G02*
X-259246466Y-102210803I-77403J-1122334D01*
G01*
X-259286466Y-102790803D01*
G75*
G02*
X-260486203Y-103835734I-1122334J77403D01*
G01*
G37*
%TD.AperFunction*%
%TD*%
%TO.P,MX86,1*%
%TO.N,Col14*%
X-274908400Y-84163400D03*
%TA.AperFunction,ComponentPad*%
G36*
G01*
X-276969712Y-86460750D02*
X-276969717Y-86460745D01*
G75*
G02*
X-277055745Y-84872083I751317J837345D01*
G01*
X-275745743Y-83412083D01*
G75*
G02*
X-274157081Y-83326055I837345J-751317D01*
G01*
X-274157081Y-83326055D01*
G75*
G02*
X-274071053Y-84914717I-751317J-837345D01*
G01*
X-275381055Y-86374717D01*
G75*
G02*
X-276969717Y-86460745I-837345J751317D01*
G01*
G37*
%TD.AperFunction*%
%TO.P,MX86,2*%
%TO.N,Net-(D86-Pad2)*%
X-269868400Y-83083400D03*
%TA.AperFunction,ComponentPad*%
G36*
G01*
X-269984917Y-84785795D02*
X-269985803Y-84785734D01*
G75*
G02*
X-271030734Y-83585997I77403J1122334D01*
G01*
X-270990734Y-83005997D01*
G75*
G02*
X-269790997Y-81961066I1122334J-77403D01*
G01*
X-269790997Y-81961066D01*
G75*
G02*
X-268746066Y-83160803I-77403J-1122334D01*
G01*
X-268786066Y-83740803D01*
G75*
G02*
X-269985803Y-84785734I-1122334J77403D01*
G01*
G37*
%TD.AperFunction*%
%TD*%
%TO.P,MX85,1*%
%TO.N,Col14*%
X-277651600Y-60325500D03*
%TA.AperFunction,ComponentPad*%
G36*
G01*
X-279712912Y-62622850D02*
X-279712917Y-62622845D01*
G75*
G02*
X-279798945Y-61034183I751317J837345D01*
G01*
X-278488943Y-59574183D01*
G75*
G02*
X-276900281Y-59488155I837345J-751317D01*
G01*
X-276900281Y-59488155D01*
G75*
G02*
X-276814253Y-61076817I-751317J-837345D01*
G01*
X-278124255Y-62536817D01*
G75*
G02*
X-279712917Y-62622845I-837345J751317D01*
G01*
G37*
%TD.AperFunction*%
%TO.P,MX85,2*%
%TO.N,Net-(D85-Pad2)*%
X-272611600Y-59245500D03*
%TA.AperFunction,ComponentPad*%
G36*
G01*
X-272728117Y-60947895D02*
X-272729003Y-60947834D01*
G75*
G02*
X-273773934Y-59748097I77403J1122334D01*
G01*
X-273733934Y-59168097D01*
G75*
G02*
X-272534197Y-58123166I1122334J-77403D01*
G01*
X-272534197Y-58123166D01*
G75*
G02*
X-271489266Y-59322903I-77403J-1122334D01*
G01*
X-271529266Y-59902903D01*
G75*
G02*
X-272729003Y-60947834I-1122334J77403D01*
G01*
G37*
%TD.AperFunction*%
%TD*%
%TO.P,MX84,1*%
%TO.N,Col13*%
X-248644800Y-160363400D03*
%TA.AperFunction,ComponentPad*%
G36*
G01*
X-250706112Y-162660750D02*
X-250706117Y-162660745D01*
G75*
G02*
X-250792145Y-161072083I751317J837345D01*
G01*
X-249482143Y-159612083D01*
G75*
G02*
X-247893481Y-159526055I837345J-751317D01*
G01*
X-247893481Y-159526055D01*
G75*
G02*
X-247807453Y-161114717I-751317J-837345D01*
G01*
X-249117455Y-162574717D01*
G75*
G02*
X-250706117Y-162660745I-837345J751317D01*
G01*
G37*
%TD.AperFunction*%
%TO.P,MX84,2*%
%TO.N,Net-(D84-Pad2)*%
X-243604800Y-159283400D03*
%TA.AperFunction,ComponentPad*%
G36*
G01*
X-243721317Y-160985795D02*
X-243722203Y-160985734D01*
G75*
G02*
X-244767134Y-159785997I77403J1122334D01*
G01*
X-244727134Y-159205997D01*
G75*
G02*
X-243527397Y-158161066I1122334J-77403D01*
G01*
X-243527397Y-158161066D01*
G75*
G02*
X-242482466Y-159360803I-77403J-1122334D01*
G01*
X-242522466Y-159940803D01*
G75*
G02*
X-243722203Y-160985734I-1122334J77403D01*
G01*
G37*
%TD.AperFunction*%
%TD*%
%TO.P,MX83,1*%
%TO.N,Col13*%
X-289266003Y-143968344D03*
%TA.AperFunction,ComponentPad*%
G36*
G01*
X-290662479Y-146720921D02*
X-290662486Y-146720918D01*
G75*
G02*
X-291156759Y-145208653I508996J1003269D01*
G01*
X-290269271Y-143459349D01*
G75*
G02*
X-288757006Y-142965076I1003269J-508996D01*
G01*
X-288757006Y-142965076D01*
G75*
G02*
X-288262733Y-144477341I-508996J-1003269D01*
G01*
X-289150221Y-146226645D01*
G75*
G02*
X-290662486Y-146720918I-1003269J508996D01*
G01*
G37*
%TD.AperFunction*%
%TO.P,MX83,2*%
%TO.N,Net-(D83-Pad2)*%
X-284677261Y-141620696D03*
%TA.AperFunction,ComponentPad*%
G36*
G01*
X-284349196Y-143295240D02*
X-284350067Y-143295411D01*
G75*
G02*
X-285669908Y-142407002I-215716J1104125D01*
G01*
X-285781386Y-141836412D01*
G75*
G02*
X-284892977Y-140516571I1104125J215716D01*
G01*
X-284892977Y-140516571D01*
G75*
G02*
X-283573136Y-141404980I215716J-1104125D01*
G01*
X-283461658Y-141975570D01*
G75*
G02*
X-284350067Y-143295411I-1104125J-215716D01*
G01*
G37*
%TD.AperFunction*%
%TD*%
%TO.P,MX82,1*%
%TO.N,Col13*%
X-292725433Y-125142638D03*
%TA.AperFunction,ComponentPad*%
G36*
G01*
X-294121909Y-127895215D02*
X-294121916Y-127895212D01*
G75*
G02*
X-294616189Y-126382947I508996J1003269D01*
G01*
X-293728701Y-124633643D01*
G75*
G02*
X-292216436Y-124139370I1003269J-508996D01*
G01*
X-292216436Y-124139370D01*
G75*
G02*
X-291722163Y-125651635I-508996J-1003269D01*
G01*
X-292609651Y-127400939D01*
G75*
G02*
X-294121916Y-127895212I-1003269J508996D01*
G01*
G37*
%TD.AperFunction*%
%TO.P,MX82,2*%
%TO.N,Net-(D82-Pad2)*%
X-288136691Y-122794990D03*
%TA.AperFunction,ComponentPad*%
G36*
G01*
X-287808626Y-124469534D02*
X-287809497Y-124469705D01*
G75*
G02*
X-289129338Y-123581296I-215716J1104125D01*
G01*
X-289240816Y-123010706D01*
G75*
G02*
X-288352407Y-121690865I1104125J215716D01*
G01*
X-288352407Y-121690865D01*
G75*
G02*
X-287032566Y-122579274I215716J-1104125D01*
G01*
X-286921088Y-123149864D01*
G75*
G02*
X-287809497Y-124469705I-1104125J-215716D01*
G01*
G37*
%TD.AperFunction*%
%TD*%
%TO.P,MX81,1*%
%TO.N,Col13*%
X-296179833Y-106346638D03*
%TA.AperFunction,ComponentPad*%
G36*
G01*
X-297576309Y-109099215D02*
X-297576316Y-109099212D01*
G75*
G02*
X-298070589Y-107586947I508996J1003269D01*
G01*
X-297183101Y-105837643D01*
G75*
G02*
X-295670836Y-105343370I1003269J-508996D01*
G01*
X-295670836Y-105343370D01*
G75*
G02*
X-295176563Y-106855635I-508996J-1003269D01*
G01*
X-296064051Y-108604939D01*
G75*
G02*
X-297576316Y-109099212I-1003269J508996D01*
G01*
G37*
%TD.AperFunction*%
%TO.P,MX81,2*%
%TO.N,Net-(D81-Pad2)*%
X-291591091Y-103998990D03*
%TA.AperFunction,ComponentPad*%
G36*
G01*
X-291263026Y-105673534D02*
X-291263897Y-105673705D01*
G75*
G02*
X-292583738Y-104785296I-215716J1104125D01*
G01*
X-292695216Y-104214706D01*
G75*
G02*
X-291806807Y-102894865I1104125J215716D01*
G01*
X-291806807Y-102894865D01*
G75*
G02*
X-290486966Y-103783274I215716J-1104125D01*
G01*
X-290375488Y-104353864D01*
G75*
G02*
X-291263897Y-105673705I-1104125J-215716D01*
G01*
G37*
%TD.AperFunction*%
%TD*%
%TO.P,MX80,1*%
%TO.N,Col13*%
X-299634233Y-87525238D03*
%TA.AperFunction,ComponentPad*%
G36*
G01*
X-301030709Y-90277815D02*
X-301030716Y-90277812D01*
G75*
G02*
X-301524989Y-88765547I508996J1003269D01*
G01*
X-300637501Y-87016243D01*
G75*
G02*
X-299125236Y-86521970I1003269J-508996D01*
G01*
X-299125236Y-86521970D01*
G75*
G02*
X-298630963Y-88034235I-508996J-1003269D01*
G01*
X-299518451Y-89783539D01*
G75*
G02*
X-301030716Y-90277812I-1003269J508996D01*
G01*
G37*
%TD.AperFunction*%
%TO.P,MX80,2*%
%TO.N,Net-(D80-Pad2)*%
X-295045491Y-85177590D03*
%TA.AperFunction,ComponentPad*%
G36*
G01*
X-294717426Y-86852134D02*
X-294718297Y-86852305D01*
G75*
G02*
X-296038138Y-85963896I-215716J1104125D01*
G01*
X-296149616Y-85393306D01*
G75*
G02*
X-295261207Y-84073465I1104125J215716D01*
G01*
X-295261207Y-84073465D01*
G75*
G02*
X-293941366Y-84961874I215716J-1104125D01*
G01*
X-293829888Y-85532464D01*
G75*
G02*
X-294718297Y-86852305I-1104125J-215716D01*
G01*
G37*
%TD.AperFunction*%
%TD*%
%TO.P,MX79,1*%
%TO.N,Col13*%
X-304693883Y-63448438D03*
%TA.AperFunction,ComponentPad*%
G36*
G01*
X-306090359Y-66201015D02*
X-306090366Y-66201012D01*
G75*
G02*
X-306584639Y-64688747I508996J1003269D01*
G01*
X-305697151Y-62939443D01*
G75*
G02*
X-304184886Y-62445170I1003269J-508996D01*
G01*
X-304184886Y-62445170D01*
G75*
G02*
X-303690613Y-63957435I-508996J-1003269D01*
G01*
X-304578101Y-65706739D01*
G75*
G02*
X-306090366Y-66201012I-1003269J508996D01*
G01*
G37*
%TD.AperFunction*%
%TO.P,MX79,2*%
%TO.N,Net-(D79-Pad2)*%
X-300105141Y-61100790D03*
%TA.AperFunction,ComponentPad*%
G36*
G01*
X-299777076Y-62775334D02*
X-299777947Y-62775505D01*
G75*
G02*
X-301097788Y-61887096I-215716J1104125D01*
G01*
X-301209266Y-61316506D01*
G75*
G02*
X-300320857Y-59996665I1104125J215716D01*
G01*
X-300320857Y-59996665D01*
G75*
G02*
X-299001016Y-60885074I215716J-1104125D01*
G01*
X-298889538Y-61455664D01*
G75*
G02*
X-299777947Y-62775505I-1104125J-215716D01*
G01*
G37*
%TD.AperFunction*%
%TD*%
%TO.P,MX78,1*%
%TO.N,Col12*%
X-305027118Y-167897339D03*
%TA.AperFunction,ComponentPad*%
G36*
G01*
X-306423594Y-170649916D02*
X-306423601Y-170649913D01*
G75*
G02*
X-306917874Y-169137648I508996J1003269D01*
G01*
X-306030386Y-167388344D01*
G75*
G02*
X-304518121Y-166894071I1003269J-508996D01*
G01*
X-304518121Y-166894071D01*
G75*
G02*
X-304023848Y-168406336I-508996J-1003269D01*
G01*
X-304911336Y-170155640D01*
G75*
G02*
X-306423601Y-170649913I-1003269J508996D01*
G01*
G37*
%TD.AperFunction*%
%TO.P,MX78,2*%
%TO.N,Net-(D78-Pad2)*%
X-300438376Y-165549691D03*
%TA.AperFunction,ComponentPad*%
G36*
G01*
X-300110311Y-167224235D02*
X-300111182Y-167224406D01*
G75*
G02*
X-301431023Y-166335997I-215716J1104125D01*
G01*
X-301542501Y-165765407D01*
G75*
G02*
X-300654092Y-164445566I1104125J215716D01*
G01*
X-300654092Y-164445566D01*
G75*
G02*
X-299334251Y-165333975I215716J-1104125D01*
G01*
X-299222773Y-165904565D01*
G75*
G02*
X-300111182Y-167224406I-1104125J-215716D01*
G01*
G37*
%TD.AperFunction*%
%TD*%
%TO.P,MX77,1*%
%TO.N,Col12*%
X-307666889Y-148898846D03*
%TA.AperFunction,ComponentPad*%
G36*
G01*
X-309063365Y-151651423D02*
X-309063372Y-151651420D01*
G75*
G02*
X-309557645Y-150139155I508996J1003269D01*
G01*
X-308670157Y-148389851D01*
G75*
G02*
X-307157892Y-147895578I1003269J-508996D01*
G01*
X-307157892Y-147895578D01*
G75*
G02*
X-306663619Y-149407843I-508996J-1003269D01*
G01*
X-307551107Y-151157147D01*
G75*
G02*
X-309063372Y-151651420I-1003269J508996D01*
G01*
G37*
%TD.AperFunction*%
%TO.P,MX77,2*%
%TO.N,Net-(D77-Pad2)*%
X-303078147Y-146551198D03*
%TA.AperFunction,ComponentPad*%
G36*
G01*
X-302750082Y-148225742D02*
X-302750953Y-148225913D01*
G75*
G02*
X-304070794Y-147337504I-215716J1104125D01*
G01*
X-304182272Y-146766914D01*
G75*
G02*
X-303293863Y-145447073I1104125J215716D01*
G01*
X-303293863Y-145447073D01*
G75*
G02*
X-301974022Y-146335482I215716J-1104125D01*
G01*
X-301862544Y-146906072D01*
G75*
G02*
X-302750953Y-148225913I-1104125J-215716D01*
G01*
G37*
%TD.AperFunction*%
%TD*%
%TO.P,MX76,1*%
%TO.N,Col12*%
X-311126319Y-130073140D03*
%TA.AperFunction,ComponentPad*%
G36*
G01*
X-312522795Y-132825717D02*
X-312522802Y-132825714D01*
G75*
G02*
X-313017075Y-131313449I508996J1003269D01*
G01*
X-312129587Y-129564145D01*
G75*
G02*
X-310617322Y-129069872I1003269J-508996D01*
G01*
X-310617322Y-129069872D01*
G75*
G02*
X-310123049Y-130582137I-508996J-1003269D01*
G01*
X-311010537Y-132331441D01*
G75*
G02*
X-312522802Y-132825714I-1003269J508996D01*
G01*
G37*
%TD.AperFunction*%
%TO.P,MX76,2*%
%TO.N,Net-(D76-Pad2)*%
X-306537577Y-127725492D03*
%TA.AperFunction,ComponentPad*%
G36*
G01*
X-306209512Y-129400036D02*
X-306210383Y-129400207D01*
G75*
G02*
X-307530224Y-128511798I-215716J1104125D01*
G01*
X-307641702Y-127941208D01*
G75*
G02*
X-306753293Y-126621367I1104125J215716D01*
G01*
X-306753293Y-126621367D01*
G75*
G02*
X-305433452Y-127509776I215716J-1104125D01*
G01*
X-305321974Y-128080366D01*
G75*
G02*
X-306210383Y-129400207I-1104125J-215716D01*
G01*
G37*
%TD.AperFunction*%
%TD*%
%TO.P,MX75,1*%
%TO.N,Col12*%
X-314580719Y-111277140D03*
%TA.AperFunction,ComponentPad*%
G36*
G01*
X-315977195Y-114029717D02*
X-315977202Y-114029714D01*
G75*
G02*
X-316471475Y-112517449I508996J1003269D01*
G01*
X-315583987Y-110768145D01*
G75*
G02*
X-314071722Y-110273872I1003269J-508996D01*
G01*
X-314071722Y-110273872D01*
G75*
G02*
X-313577449Y-111786137I-508996J-1003269D01*
G01*
X-314464937Y-113535441D01*
G75*
G02*
X-315977202Y-114029714I-1003269J508996D01*
G01*
G37*
%TD.AperFunction*%
%TO.P,MX75,2*%
%TO.N,Net-(D75-Pad2)*%
X-309991977Y-108929492D03*
%TA.AperFunction,ComponentPad*%
G36*
G01*
X-309663912Y-110604036D02*
X-309664783Y-110604207D01*
G75*
G02*
X-310984624Y-109715798I-215716J1104125D01*
G01*
X-311096102Y-109145208D01*
G75*
G02*
X-310207693Y-107825367I1104125J215716D01*
G01*
X-310207693Y-107825367D01*
G75*
G02*
X-308887852Y-108713776I215716J-1104125D01*
G01*
X-308776374Y-109284366D01*
G75*
G02*
X-309664783Y-110604207I-1104125J-215716D01*
G01*
G37*
%TD.AperFunction*%
%TD*%
%TO.P,MX74,1*%
%TO.N,Col12*%
X-318035119Y-92455740D03*
%TA.AperFunction,ComponentPad*%
G36*
G01*
X-319431595Y-95208317D02*
X-319431602Y-95208314D01*
G75*
G02*
X-319925875Y-93696049I508996J1003269D01*
G01*
X-319038387Y-91946745D01*
G75*
G02*
X-317526122Y-91452472I1003269J-508996D01*
G01*
X-317526122Y-91452472D01*
G75*
G02*
X-317031849Y-92964737I-508996J-1003269D01*
G01*
X-317919337Y-94714041D01*
G75*
G02*
X-319431602Y-95208314I-1003269J508996D01*
G01*
G37*
%TD.AperFunction*%
%TO.P,MX74,2*%
%TO.N,Net-(D74-Pad2)*%
X-313446377Y-90108092D03*
%TA.AperFunction,ComponentPad*%
G36*
G01*
X-313118312Y-91782636D02*
X-313119183Y-91782807D01*
G75*
G02*
X-314439024Y-90894398I-215716J1104125D01*
G01*
X-314550502Y-90323808D01*
G75*
G02*
X-313662093Y-89003967I1104125J215716D01*
G01*
X-313662093Y-89003967D01*
G75*
G02*
X-312342252Y-89892376I215716J-1104125D01*
G01*
X-312230774Y-90462966D01*
G75*
G02*
X-313119183Y-91782807I-1104125J-215716D01*
G01*
G37*
%TD.AperFunction*%
%TD*%
%TO.P,MX73,1*%
%TO.N,Col12*%
X-323094769Y-68378940D03*
%TA.AperFunction,ComponentPad*%
G36*
G01*
X-324491245Y-71131517D02*
X-324491252Y-71131514D01*
G75*
G02*
X-324985525Y-69619249I508996J1003269D01*
G01*
X-324098037Y-67869945D01*
G75*
G02*
X-322585772Y-67375672I1003269J-508996D01*
G01*
X-322585772Y-67375672D01*
G75*
G02*
X-322091499Y-68887937I-508996J-1003269D01*
G01*
X-322978987Y-70637241D01*
G75*
G02*
X-324491252Y-71131514I-1003269J508996D01*
G01*
G37*
%TD.AperFunction*%
%TO.P,MX73,2*%
%TO.N,Net-(D73-Pad2)*%
X-318506027Y-66031292D03*
%TA.AperFunction,ComponentPad*%
G36*
G01*
X-318177962Y-67705836D02*
X-318178833Y-67706007D01*
G75*
G02*
X-319498674Y-66817598I-215716J1104125D01*
G01*
X-319610152Y-66247008D01*
G75*
G02*
X-318721743Y-64927167I1104125J215716D01*
G01*
X-318721743Y-64927167D01*
G75*
G02*
X-317401902Y-65815576I215716J-1104125D01*
G01*
X-317290424Y-66386166D01*
G75*
G02*
X-318178833Y-67706007I-1104125J-215716D01*
G01*
G37*
%TD.AperFunction*%
%TD*%
%TO.P,MX72,1*%
%TO.N,Col11*%
X-341828891Y-177758344D03*
%TA.AperFunction,ComponentPad*%
G36*
G01*
X-343225367Y-180510921D02*
X-343225374Y-180510918D01*
G75*
G02*
X-343719647Y-178998653I508996J1003269D01*
G01*
X-342832159Y-177249349D01*
G75*
G02*
X-341319894Y-176755076I1003269J-508996D01*
G01*
X-341319894Y-176755076D01*
G75*
G02*
X-340825621Y-178267341I-508996J-1003269D01*
G01*
X-341713109Y-180016645D01*
G75*
G02*
X-343225374Y-180510918I-1003269J508996D01*
G01*
G37*
%TD.AperFunction*%
%TO.P,MX72,2*%
%TO.N,Net-(D72-Pad2)*%
X-337240149Y-175410696D03*
%TA.AperFunction,ComponentPad*%
G36*
G01*
X-336912084Y-177085240D02*
X-336912955Y-177085411D01*
G75*
G02*
X-338232796Y-176197002I-215716J1104125D01*
G01*
X-338344274Y-175626412D01*
G75*
G02*
X-337455865Y-174306571I1104125J215716D01*
G01*
X-337455865Y-174306571D01*
G75*
G02*
X-336136024Y-175194980I215716J-1104125D01*
G01*
X-336024546Y-175765570D01*
G75*
G02*
X-336912955Y-177085411I-1104125J-215716D01*
G01*
G37*
%TD.AperFunction*%
%TD*%
%TO.P,MX71,1*%
%TO.N,Col11*%
X-326067775Y-153829348D03*
%TA.AperFunction,ComponentPad*%
G36*
G01*
X-327464251Y-156581925D02*
X-327464258Y-156581922D01*
G75*
G02*
X-327958531Y-155069657I508996J1003269D01*
G01*
X-327071043Y-153320353D01*
G75*
G02*
X-325558778Y-152826080I1003269J-508996D01*
G01*
X-325558778Y-152826080D01*
G75*
G02*
X-325064505Y-154338345I-508996J-1003269D01*
G01*
X-325951993Y-156087649D01*
G75*
G02*
X-327464258Y-156581922I-1003269J508996D01*
G01*
G37*
%TD.AperFunction*%
%TO.P,MX71,2*%
%TO.N,Net-(D71-Pad2)*%
X-321479033Y-151481700D03*
%TA.AperFunction,ComponentPad*%
G36*
G01*
X-321150968Y-153156244D02*
X-321151839Y-153156415D01*
G75*
G02*
X-322471680Y-152268006I-215716J1104125D01*
G01*
X-322583158Y-151697416D01*
G75*
G02*
X-321694749Y-150377575I1104125J215716D01*
G01*
X-321694749Y-150377575D01*
G75*
G02*
X-320374908Y-151265984I215716J-1104125D01*
G01*
X-320263430Y-151836574D01*
G75*
G02*
X-321151839Y-153156415I-1104125J-215716D01*
G01*
G37*
%TD.AperFunction*%
%TD*%
%TO.P,MX70,1*%
%TO.N,Col11*%
X-329527205Y-135003642D03*
%TA.AperFunction,ComponentPad*%
G36*
G01*
X-330923681Y-137756219D02*
X-330923688Y-137756216D01*
G75*
G02*
X-331417961Y-136243951I508996J1003269D01*
G01*
X-330530473Y-134494647D01*
G75*
G02*
X-329018208Y-134000374I1003269J-508996D01*
G01*
X-329018208Y-134000374D01*
G75*
G02*
X-328523935Y-135512639I-508996J-1003269D01*
G01*
X-329411423Y-137261943D01*
G75*
G02*
X-330923688Y-137756216I-1003269J508996D01*
G01*
G37*
%TD.AperFunction*%
%TO.P,MX70,2*%
%TO.N,Net-(D70-Pad2)*%
X-324938463Y-132655994D03*
%TA.AperFunction,ComponentPad*%
G36*
G01*
X-324610398Y-134330538D02*
X-324611269Y-134330709D01*
G75*
G02*
X-325931110Y-133442300I-215716J1104125D01*
G01*
X-326042588Y-132871710D01*
G75*
G02*
X-325154179Y-131551869I1104125J215716D01*
G01*
X-325154179Y-131551869D01*
G75*
G02*
X-323834338Y-132440278I215716J-1104125D01*
G01*
X-323722860Y-133010868D01*
G75*
G02*
X-324611269Y-134330709I-1104125J-215716D01*
G01*
G37*
%TD.AperFunction*%
%TD*%
%TO.P,MX69,1*%
%TO.N,Col11*%
X-332981605Y-116207642D03*
%TA.AperFunction,ComponentPad*%
G36*
G01*
X-334378081Y-118960219D02*
X-334378088Y-118960216D01*
G75*
G02*
X-334872361Y-117447951I508996J1003269D01*
G01*
X-333984873Y-115698647D01*
G75*
G02*
X-332472608Y-115204374I1003269J-508996D01*
G01*
X-332472608Y-115204374D01*
G75*
G02*
X-331978335Y-116716639I-508996J-1003269D01*
G01*
X-332865823Y-118465943D01*
G75*
G02*
X-334378088Y-118960216I-1003269J508996D01*
G01*
G37*
%TD.AperFunction*%
%TO.P,MX69,2*%
%TO.N,Net-(D69-Pad2)*%
X-328392863Y-113859994D03*
%TA.AperFunction,ComponentPad*%
G36*
G01*
X-328064798Y-115534538D02*
X-328065669Y-115534709D01*
G75*
G02*
X-329385510Y-114646300I-215716J1104125D01*
G01*
X-329496988Y-114075710D01*
G75*
G02*
X-328608579Y-112755869I1104125J215716D01*
G01*
X-328608579Y-112755869D01*
G75*
G02*
X-327288738Y-113644278I215716J-1104125D01*
G01*
X-327177260Y-114214868D01*
G75*
G02*
X-328065669Y-115534709I-1104125J-215716D01*
G01*
G37*
%TD.AperFunction*%
%TD*%
%TO.P,MX68,1*%
%TO.N,Col11*%
X-336436005Y-97386242D03*
%TA.AperFunction,ComponentPad*%
G36*
G01*
X-337832481Y-100138819D02*
X-337832488Y-100138816D01*
G75*
G02*
X-338326761Y-98626551I508996J1003269D01*
G01*
X-337439273Y-96877247D01*
G75*
G02*
X-335927008Y-96382974I1003269J-508996D01*
G01*
X-335927008Y-96382974D01*
G75*
G02*
X-335432735Y-97895239I-508996J-1003269D01*
G01*
X-336320223Y-99644543D01*
G75*
G02*
X-337832488Y-100138816I-1003269J508996D01*
G01*
G37*
%TD.AperFunction*%
%TO.P,MX68,2*%
%TO.N,Net-(D68-Pad2)*%
X-331847263Y-95038594D03*
%TA.AperFunction,ComponentPad*%
G36*
G01*
X-331519198Y-96713138D02*
X-331520069Y-96713309D01*
G75*
G02*
X-332839910Y-95824900I-215716J1104125D01*
G01*
X-332951388Y-95254310D01*
G75*
G02*
X-332062979Y-93934469I1104125J215716D01*
G01*
X-332062979Y-93934469D01*
G75*
G02*
X-330743138Y-94822878I215716J-1104125D01*
G01*
X-330631660Y-95393468D01*
G75*
G02*
X-331520069Y-96713309I-1104125J-215716D01*
G01*
G37*
%TD.AperFunction*%
%TD*%
%TO.P,MX67,1*%
%TO.N,Col11*%
X-341495655Y-73309442D03*
%TA.AperFunction,ComponentPad*%
G36*
G01*
X-342892131Y-76062019D02*
X-342892138Y-76062016D01*
G75*
G02*
X-343386411Y-74549751I508996J1003269D01*
G01*
X-342498923Y-72800447D01*
G75*
G02*
X-340986658Y-72306174I1003269J-508996D01*
G01*
X-340986658Y-72306174D01*
G75*
G02*
X-340492385Y-73818439I-508996J-1003269D01*
G01*
X-341379873Y-75567743D01*
G75*
G02*
X-342892138Y-76062016I-1003269J508996D01*
G01*
G37*
%TD.AperFunction*%
%TO.P,MX67,2*%
%TO.N,Net-(D67-Pad2)*%
X-336906913Y-70961794D03*
%TA.AperFunction,ComponentPad*%
G36*
G01*
X-336578848Y-72636338D02*
X-336579719Y-72636509D01*
G75*
G02*
X-337899560Y-71748100I-215716J1104125D01*
G01*
X-338011038Y-71177510D01*
G75*
G02*
X-337122629Y-69857669I1104125J215716D01*
G01*
X-337122629Y-69857669D01*
G75*
G02*
X-335802788Y-70746078I215716J-1104125D01*
G01*
X-335691310Y-71316668D01*
G75*
G02*
X-336579719Y-72636509I-1104125J-215716D01*
G01*
G37*
%TD.AperFunction*%
%TD*%
%TO.P,MX66,1*%
%TO.N,Col10*%
X-362869547Y-163690352D03*
%TA.AperFunction,ComponentPad*%
G36*
G01*
X-364266023Y-166442929D02*
X-364266030Y-166442926D01*
G75*
G02*
X-364760303Y-164930661I508996J1003269D01*
G01*
X-363872815Y-163181357D01*
G75*
G02*
X-362360550Y-162687084I1003269J-508996D01*
G01*
X-362360550Y-162687084D01*
G75*
G02*
X-361866277Y-164199349I-508996J-1003269D01*
G01*
X-362753765Y-165948653D01*
G75*
G02*
X-364266030Y-166442926I-1003269J508996D01*
G01*
G37*
%TD.AperFunction*%
%TO.P,MX66,2*%
%TO.N,Net-(D66-Pad2)*%
X-358280805Y-161342704D03*
%TA.AperFunction,ComponentPad*%
G36*
G01*
X-357952740Y-163017248D02*
X-357953611Y-163017419D01*
G75*
G02*
X-359273452Y-162129010I-215716J1104125D01*
G01*
X-359384930Y-161558420D01*
G75*
G02*
X-358496521Y-160238579I1104125J215716D01*
G01*
X-358496521Y-160238579D01*
G75*
G02*
X-357176680Y-161126988I215716J-1104125D01*
G01*
X-357065202Y-161697578D01*
G75*
G02*
X-357953611Y-163017419I-1104125J-215716D01*
G01*
G37*
%TD.AperFunction*%
%TD*%
%TO.P,MX65,1*%
%TO.N,Col10*%
X-344468661Y-158759850D03*
%TA.AperFunction,ComponentPad*%
G36*
G01*
X-345865137Y-161512427D02*
X-345865144Y-161512424D01*
G75*
G02*
X-346359417Y-160000159I508996J1003269D01*
G01*
X-345471929Y-158250855D01*
G75*
G02*
X-343959664Y-157756582I1003269J-508996D01*
G01*
X-343959664Y-157756582D01*
G75*
G02*
X-343465391Y-159268847I-508996J-1003269D01*
G01*
X-344352879Y-161018151D01*
G75*
G02*
X-345865144Y-161512424I-1003269J508996D01*
G01*
G37*
%TD.AperFunction*%
%TO.P,MX65,2*%
%TO.N,Net-(D65-Pad2)*%
X-339879919Y-156412202D03*
%TA.AperFunction,ComponentPad*%
G36*
G01*
X-339551854Y-158086746D02*
X-339552725Y-158086917D01*
G75*
G02*
X-340872566Y-157198508I-215716J1104125D01*
G01*
X-340984044Y-156627918D01*
G75*
G02*
X-340095635Y-155308077I1104125J215716D01*
G01*
X-340095635Y-155308077D01*
G75*
G02*
X-338775794Y-156196486I215716J-1104125D01*
G01*
X-338664316Y-156767076D01*
G75*
G02*
X-339552725Y-158086917I-1104125J-215716D01*
G01*
G37*
%TD.AperFunction*%
%TD*%
%TO.P,MX64,2*%
%TO.N,Net-(D64-Pad2)*%
%TA.AperFunction,ComponentPad*%
G36*
G01*
X-343011284Y-139261040D02*
X-343012155Y-139261211D01*
G75*
G02*
X-344331996Y-138372802I-215716J1104125D01*
G01*
X-344443474Y-137802212D01*
G75*
G02*
X-343555065Y-136482371I1104125J215716D01*
G01*
X-343555065Y-136482371D01*
G75*
G02*
X-342235224Y-137370780I215716J-1104125D01*
G01*
X-342123746Y-137941370D01*
G75*
G02*
X-343012155Y-139261211I-1104125J-215716D01*
G01*
G37*
%TD.AperFunction*%
X-343339349Y-137586496D03*
%TO.P,MX64,1*%
%TO.N,Col10*%
%TA.AperFunction,ComponentPad*%
G36*
G01*
X-349324567Y-142686721D02*
X-349324574Y-142686718D01*
G75*
G02*
X-349818847Y-141174453I508996J1003269D01*
G01*
X-348931359Y-139425149D01*
G75*
G02*
X-347419094Y-138930876I1003269J-508996D01*
G01*
X-347419094Y-138930876D01*
G75*
G02*
X-346924821Y-140443141I-508996J-1003269D01*
G01*
X-347812309Y-142192445D01*
G75*
G02*
X-349324574Y-142686718I-1003269J508996D01*
G01*
G37*
%TD.AperFunction*%
X-347928091Y-139934144D03*
%TD*%
%TO.P,MX63,2*%
%TO.N,Net-(D63-Pad2)*%
%TA.AperFunction,ComponentPad*%
G36*
G01*
X-346465684Y-120465040D02*
X-346466555Y-120465211D01*
G75*
G02*
X-347786396Y-119576802I-215716J1104125D01*
G01*
X-347897874Y-119006212D01*
G75*
G02*
X-347009465Y-117686371I1104125J215716D01*
G01*
X-347009465Y-117686371D01*
G75*
G02*
X-345689624Y-118574780I215716J-1104125D01*
G01*
X-345578146Y-119145370D01*
G75*
G02*
X-346466555Y-120465211I-1104125J-215716D01*
G01*
G37*
%TD.AperFunction*%
X-346793749Y-118790496D03*
%TO.P,MX63,1*%
%TO.N,Col10*%
%TA.AperFunction,ComponentPad*%
G36*
G01*
X-352778967Y-123890721D02*
X-352778974Y-123890718D01*
G75*
G02*
X-353273247Y-122378453I508996J1003269D01*
G01*
X-352385759Y-120629149D01*
G75*
G02*
X-350873494Y-120134876I1003269J-508996D01*
G01*
X-350873494Y-120134876D01*
G75*
G02*
X-350379221Y-121647141I-508996J-1003269D01*
G01*
X-351266709Y-123396445D01*
G75*
G02*
X-352778974Y-123890718I-1003269J508996D01*
G01*
G37*
%TD.AperFunction*%
X-351382491Y-121138144D03*
%TD*%
%TO.P,MX62,1*%
%TO.N,Col10*%
X-354836891Y-102316744D03*
%TA.AperFunction,ComponentPad*%
G36*
G01*
X-356233367Y-105069321D02*
X-356233374Y-105069318D01*
G75*
G02*
X-356727647Y-103557053I508996J1003269D01*
G01*
X-355840159Y-101807749D01*
G75*
G02*
X-354327894Y-101313476I1003269J-508996D01*
G01*
X-354327894Y-101313476D01*
G75*
G02*
X-353833621Y-102825741I-508996J-1003269D01*
G01*
X-354721109Y-104575045D01*
G75*
G02*
X-356233374Y-105069318I-1003269J508996D01*
G01*
G37*
%TD.AperFunction*%
%TO.P,MX62,2*%
%TO.N,Net-(D62-Pad2)*%
X-350248149Y-99969096D03*
%TA.AperFunction,ComponentPad*%
G36*
G01*
X-349920084Y-101643640D02*
X-349920955Y-101643811D01*
G75*
G02*
X-351240796Y-100755402I-215716J1104125D01*
G01*
X-351352274Y-100184812D01*
G75*
G02*
X-350463865Y-98864971I1104125J215716D01*
G01*
X-350463865Y-98864971D01*
G75*
G02*
X-349144024Y-99753380I215716J-1104125D01*
G01*
X-349032546Y-100323970D01*
G75*
G02*
X-349920955Y-101643811I-1104125J-215716D01*
G01*
G37*
%TD.AperFunction*%
%TD*%
%TO.P,MX61,1*%
%TO.N,Col10*%
X-359896541Y-78239944D03*
%TA.AperFunction,ComponentPad*%
G36*
G01*
X-361293017Y-80992521D02*
X-361293024Y-80992518D01*
G75*
G02*
X-361787297Y-79480253I508996J1003269D01*
G01*
X-360899809Y-77730949D01*
G75*
G02*
X-359387544Y-77236676I1003269J-508996D01*
G01*
X-359387544Y-77236676D01*
G75*
G02*
X-358893271Y-78748941I-508996J-1003269D01*
G01*
X-359780759Y-80498245D01*
G75*
G02*
X-361293024Y-80992518I-1003269J508996D01*
G01*
G37*
%TD.AperFunction*%
%TO.P,MX61,2*%
%TO.N,Net-(D61-Pad2)*%
X-355307799Y-75892296D03*
%TA.AperFunction,ComponentPad*%
G36*
G01*
X-354979734Y-77566840D02*
X-354980605Y-77567011D01*
G75*
G02*
X-356300446Y-76678602I-215716J1104125D01*
G01*
X-356411924Y-76108012D01*
G75*
G02*
X-355523515Y-74788171I1104125J215716D01*
G01*
X-355523515Y-74788171D01*
G75*
G02*
X-354203674Y-75676580I215716J-1104125D01*
G01*
X-354092196Y-76247170D01*
G75*
G02*
X-354980605Y-77567011I-1104125J-215716D01*
G01*
G37*
%TD.AperFunction*%
%TD*%
%TO.P,MX60,1*%
%TO.N,Col9*%
X-389373994Y-162396257D03*
%TA.AperFunction,ComponentPad*%
G36*
G01*
X-391959667Y-164081821D02*
X-391959671Y-164081814D01*
G75*
G02*
X-391631591Y-162525018I942438J614358D01*
G01*
X-389988351Y-161453820D01*
G75*
G02*
X-388431555Y-161781900I614358J-942438D01*
G01*
X-388431555Y-161781900D01*
G75*
G02*
X-388759635Y-163338696I-942438J-614358D01*
G01*
X-390402875Y-164409894D01*
G75*
G02*
X-391959671Y-164081814I-614358J942438D01*
G01*
G37*
%TD.AperFunction*%
%TO.P,MX60,2*%
%TO.N,Net-(D60-Pad2)*%
X-384226204Y-162657505D03*
%TA.AperFunction,ComponentPad*%
G36*
G01*
X-384779363Y-164271735D02*
X-384780203Y-164271447D01*
G75*
G02*
X-385479014Y-162842142I365247J1064058D01*
G01*
X-385290262Y-162292258D01*
G75*
G02*
X-383860957Y-161593447I1064058J-365247D01*
G01*
X-383860957Y-161593447D01*
G75*
G02*
X-383162146Y-163022752I-365247J-1064058D01*
G01*
X-383350898Y-163572636D01*
G75*
G02*
X-384780203Y-164271447I-1064058J365247D01*
G01*
G37*
%TD.AperFunction*%
%TD*%
%TO.P,MX59,1*%
%TO.N,Col9*%
X-407774880Y-157465755D03*
%TA.AperFunction,ComponentPad*%
G36*
G01*
X-410360553Y-159151319D02*
X-410360557Y-159151312D01*
G75*
G02*
X-410032477Y-157594516I942438J614358D01*
G01*
X-408389237Y-156523318D01*
G75*
G02*
X-406832441Y-156851398I614358J-942438D01*
G01*
X-406832441Y-156851398D01*
G75*
G02*
X-407160521Y-158408194I-942438J-614358D01*
G01*
X-408803761Y-159479392D01*
G75*
G02*
X-410360557Y-159151312I-614358J942438D01*
G01*
G37*
%TD.AperFunction*%
%TO.P,MX59,2*%
%TO.N,Net-(D59-Pad2)*%
X-402627090Y-157727003D03*
%TA.AperFunction,ComponentPad*%
G36*
G01*
X-403180249Y-159341233D02*
X-403181089Y-159340945D01*
G75*
G02*
X-403879900Y-157911640I365247J1064058D01*
G01*
X-403691148Y-157361756D01*
G75*
G02*
X-402261843Y-156662945I1064058J-365247D01*
G01*
X-402261843Y-156662945D01*
G75*
G02*
X-401563032Y-158092250I-365247J-1064058D01*
G01*
X-401751784Y-158642134D01*
G75*
G02*
X-403181089Y-159340945I-1064058J365247D01*
G01*
G37*
%TD.AperFunction*%
%TD*%
%TO.P,MX58,1*%
%TO.N,Col9*%
X-404345880Y-138669755D03*
%TA.AperFunction,ComponentPad*%
G36*
G01*
X-406931553Y-140355319D02*
X-406931557Y-140355312D01*
G75*
G02*
X-406603477Y-138798516I942438J614358D01*
G01*
X-404960237Y-137727318D01*
G75*
G02*
X-403403441Y-138055398I614358J-942438D01*
G01*
X-403403441Y-138055398D01*
G75*
G02*
X-403731521Y-139612194I-942438J-614358D01*
G01*
X-405374761Y-140683392D01*
G75*
G02*
X-406931557Y-140355312I-614358J942438D01*
G01*
G37*
%TD.AperFunction*%
%TO.P,MX58,2*%
%TO.N,Net-(D58-Pad2)*%
X-399198090Y-138931003D03*
%TA.AperFunction,ComponentPad*%
G36*
G01*
X-399751249Y-140545233D02*
X-399752089Y-140544945D01*
G75*
G02*
X-400450900Y-139115640I365247J1064058D01*
G01*
X-400262148Y-138565756D01*
G75*
G02*
X-398832843Y-137866945I1064058J-365247D01*
G01*
X-398832843Y-137866945D01*
G75*
G02*
X-398134032Y-139296250I-365247J-1064058D01*
G01*
X-398322784Y-139846134D01*
G75*
G02*
X-399752089Y-140544945I-1064058J365247D01*
G01*
G37*
%TD.AperFunction*%
%TD*%
%TO.P,MX57,1*%
%TO.N,Col9*%
X-401157643Y-119746755D03*
%TA.AperFunction,ComponentPad*%
G36*
G01*
X-403743316Y-121432319D02*
X-403743320Y-121432312D01*
G75*
G02*
X-403415240Y-119875516I942438J614358D01*
G01*
X-401772000Y-118804318D01*
G75*
G02*
X-400215204Y-119132398I614358J-942438D01*
G01*
X-400215204Y-119132398D01*
G75*
G02*
X-400543284Y-120689194I-942438J-614358D01*
G01*
X-402186524Y-121760392D01*
G75*
G02*
X-403743320Y-121432312I-614358J942438D01*
G01*
G37*
%TD.AperFunction*%
%TO.P,MX57,2*%
%TO.N,Net-(D57-Pad2)*%
X-396009853Y-120008003D03*
%TA.AperFunction,ComponentPad*%
G36*
G01*
X-396563012Y-121622233D02*
X-396563852Y-121621945D01*
G75*
G02*
X-397262663Y-120192640I365247J1064058D01*
G01*
X-397073911Y-119642756D01*
G75*
G02*
X-395644606Y-118943945I1064058J-365247D01*
G01*
X-395644606Y-118943945D01*
G75*
G02*
X-394945795Y-120373250I-365247J-1064058D01*
G01*
X-395134547Y-120923134D01*
G75*
G02*
X-396563852Y-121621945I-1064058J365247D01*
G01*
G37*
%TD.AperFunction*%
%TD*%
%TO.P,MX56,1*%
%TO.N,Col9*%
X-397849646Y-100933752D03*
%TA.AperFunction,ComponentPad*%
G36*
G01*
X-400435319Y-102619316D02*
X-400435323Y-102619309D01*
G75*
G02*
X-400107243Y-101062513I942438J614358D01*
G01*
X-398464003Y-99991315D01*
G75*
G02*
X-396907207Y-100319395I614358J-942438D01*
G01*
X-396907207Y-100319395D01*
G75*
G02*
X-397235287Y-101876191I-942438J-614358D01*
G01*
X-398878527Y-102947389D01*
G75*
G02*
X-400435323Y-102619309I-614358J942438D01*
G01*
G37*
%TD.AperFunction*%
%TO.P,MX56,2*%
%TO.N,Net-(D56-Pad2)*%
X-392701856Y-101195000D03*
%TA.AperFunction,ComponentPad*%
G36*
G01*
X-393255015Y-102809230D02*
X-393255855Y-102808942D01*
G75*
G02*
X-393954666Y-101379637I365247J1064058D01*
G01*
X-393765914Y-100829753D01*
G75*
G02*
X-392336609Y-100130942I1064058J-365247D01*
G01*
X-392336609Y-100130942D01*
G75*
G02*
X-391637798Y-101560247I-365247J-1064058D01*
G01*
X-391826550Y-102110131D01*
G75*
G02*
X-393255855Y-102808942I-1064058J365247D01*
G01*
G37*
%TD.AperFunction*%
%TD*%
%TO.P,MX55,1*%
%TO.N,Col9*%
X-393150646Y-76931252D03*
%TA.AperFunction,ComponentPad*%
G36*
G01*
X-395736319Y-78616816D02*
X-395736323Y-78616809D01*
G75*
G02*
X-395408243Y-77060013I942438J614358D01*
G01*
X-393765003Y-75988815D01*
G75*
G02*
X-392208207Y-76316895I614358J-942438D01*
G01*
X-392208207Y-76316895D01*
G75*
G02*
X-392536287Y-77873691I-942438J-614358D01*
G01*
X-394179527Y-78944889D01*
G75*
G02*
X-395736323Y-78616809I-614358J942438D01*
G01*
G37*
%TD.AperFunction*%
%TO.P,MX55,2*%
%TO.N,Net-(D55-Pad2)*%
X-388002856Y-77192500D03*
%TA.AperFunction,ComponentPad*%
G36*
G01*
X-388556015Y-78806730D02*
X-388556855Y-78806442D01*
G75*
G02*
X-389255666Y-77377137I365247J1064058D01*
G01*
X-389066914Y-76827253D01*
G75*
G02*
X-387637609Y-76128442I1064058J-365247D01*
G01*
X-387637609Y-76128442D01*
G75*
G02*
X-386938798Y-77557747I-365247J-1064058D01*
G01*
X-387127550Y-78107631D01*
G75*
G02*
X-388556855Y-78806442I-1064058J365247D01*
G01*
G37*
%TD.AperFunction*%
%TD*%
%TO.P,MX53,1*%
%TO.N,Col8*%
X-426175766Y-152535253D03*
%TA.AperFunction,ComponentPad*%
G36*
G01*
X-428761439Y-154220817D02*
X-428761443Y-154220810D01*
G75*
G02*
X-428433363Y-152664014I942438J614358D01*
G01*
X-426790123Y-151592816D01*
G75*
G02*
X-425233327Y-151920896I614358J-942438D01*
G01*
X-425233327Y-151920896D01*
G75*
G02*
X-425561407Y-153477692I-942438J-614358D01*
G01*
X-427204647Y-154548890D01*
G75*
G02*
X-428761443Y-154220810I-614358J942438D01*
G01*
G37*
%TD.AperFunction*%
%TO.P,MX53,2*%
%TO.N,Net-(D53-Pad2)*%
X-421027976Y-152796501D03*
%TA.AperFunction,ComponentPad*%
G36*
G01*
X-421581135Y-154410731D02*
X-421581975Y-154410443D01*
G75*
G02*
X-422280786Y-152981138I365247J1064058D01*
G01*
X-422092034Y-152431254D01*
G75*
G02*
X-420662729Y-151732443I1064058J-365247D01*
G01*
X-420662729Y-151732443D01*
G75*
G02*
X-419963918Y-153161748I-365247J-1064058D01*
G01*
X-420152670Y-153711632D01*
G75*
G02*
X-421581975Y-154410443I-1064058J365247D01*
G01*
G37*
%TD.AperFunction*%
%TD*%
%TO.P,MX52,1*%
%TO.N,Col8*%
X-422746766Y-133739253D03*
%TA.AperFunction,ComponentPad*%
G36*
G01*
X-425332439Y-135424817D02*
X-425332443Y-135424810D01*
G75*
G02*
X-425004363Y-133868014I942438J614358D01*
G01*
X-423361123Y-132796816D01*
G75*
G02*
X-421804327Y-133124896I614358J-942438D01*
G01*
X-421804327Y-133124896D01*
G75*
G02*
X-422132407Y-134681692I-942438J-614358D01*
G01*
X-423775647Y-135752890D01*
G75*
G02*
X-425332443Y-135424810I-614358J942438D01*
G01*
G37*
%TD.AperFunction*%
%TO.P,MX52,2*%
%TO.N,Net-(D52-Pad2)*%
X-417598976Y-134000501D03*
%TA.AperFunction,ComponentPad*%
G36*
G01*
X-418152135Y-135614731D02*
X-418152975Y-135614443D01*
G75*
G02*
X-418851786Y-134185138I365247J1064058D01*
G01*
X-418663034Y-133635254D01*
G75*
G02*
X-417233729Y-132936443I1064058J-365247D01*
G01*
X-417233729Y-132936443D01*
G75*
G02*
X-416534918Y-134365748I-365247J-1064058D01*
G01*
X-416723670Y-134915632D01*
G75*
G02*
X-418152975Y-135614443I-1064058J365247D01*
G01*
G37*
%TD.AperFunction*%
%TD*%
%TO.P,MX51,1*%
%TO.N,Col8*%
X-419558529Y-114816253D03*
%TA.AperFunction,ComponentPad*%
G36*
G01*
X-422144202Y-116501817D02*
X-422144206Y-116501810D01*
G75*
G02*
X-421816126Y-114945014I942438J614358D01*
G01*
X-420172886Y-113873816D01*
G75*
G02*
X-418616090Y-114201896I614358J-942438D01*
G01*
X-418616090Y-114201896D01*
G75*
G02*
X-418944170Y-115758692I-942438J-614358D01*
G01*
X-420587410Y-116829890D01*
G75*
G02*
X-422144206Y-116501810I-614358J942438D01*
G01*
G37*
%TD.AperFunction*%
%TO.P,MX51,2*%
%TO.N,Net-(D51-Pad2)*%
X-414410739Y-115077501D03*
%TA.AperFunction,ComponentPad*%
G36*
G01*
X-414963898Y-116691731D02*
X-414964738Y-116691443D01*
G75*
G02*
X-415663549Y-115262138I365247J1064058D01*
G01*
X-415474797Y-114712254D01*
G75*
G02*
X-414045492Y-114013443I1064058J-365247D01*
G01*
X-414045492Y-114013443D01*
G75*
G02*
X-413346681Y-115442748I-365247J-1064058D01*
G01*
X-413535433Y-115992632D01*
G75*
G02*
X-414964738Y-116691443I-1064058J365247D01*
G01*
G37*
%TD.AperFunction*%
%TD*%
%TO.P,MX50,1*%
%TO.N,Col8*%
X-416250532Y-96003250D03*
%TA.AperFunction,ComponentPad*%
G36*
G01*
X-418836205Y-97688814D02*
X-418836209Y-97688807D01*
G75*
G02*
X-418508129Y-96132011I942438J614358D01*
G01*
X-416864889Y-95060813D01*
G75*
G02*
X-415308093Y-95388893I614358J-942438D01*
G01*
X-415308093Y-95388893D01*
G75*
G02*
X-415636173Y-96945689I-942438J-614358D01*
G01*
X-417279413Y-98016887D01*
G75*
G02*
X-418836209Y-97688807I-614358J942438D01*
G01*
G37*
%TD.AperFunction*%
%TO.P,MX50,2*%
%TO.N,Net-(D50-Pad2)*%
X-411102742Y-96264498D03*
%TA.AperFunction,ComponentPad*%
G36*
G01*
X-411655901Y-97878728D02*
X-411656741Y-97878440D01*
G75*
G02*
X-412355552Y-96449135I365247J1064058D01*
G01*
X-412166800Y-95899251D01*
G75*
G02*
X-410737495Y-95200440I1064058J-365247D01*
G01*
X-410737495Y-95200440D01*
G75*
G02*
X-410038684Y-96629745I-365247J-1064058D01*
G01*
X-410227436Y-97179629D01*
G75*
G02*
X-411656741Y-97878440I-1064058J365247D01*
G01*
G37*
%TD.AperFunction*%
%TD*%
%TO.P,MX49,1*%
%TO.N,Col8*%
X-411551532Y-72000750D03*
%TA.AperFunction,ComponentPad*%
G36*
G01*
X-414137205Y-73686314D02*
X-414137209Y-73686307D01*
G75*
G02*
X-413809129Y-72129511I942438J614358D01*
G01*
X-412165889Y-71058313D01*
G75*
G02*
X-410609093Y-71386393I614358J-942438D01*
G01*
X-410609093Y-71386393D01*
G75*
G02*
X-410937173Y-72943189I-942438J-614358D01*
G01*
X-412580413Y-74014387D01*
G75*
G02*
X-414137209Y-73686307I-614358J942438D01*
G01*
G37*
%TD.AperFunction*%
%TO.P,MX49,2*%
%TO.N,Net-(D49-Pad2)*%
X-406403742Y-72261998D03*
%TA.AperFunction,ComponentPad*%
G36*
G01*
X-406956901Y-73876228D02*
X-406957741Y-73875940D01*
G75*
G02*
X-407656552Y-72446635I365247J1064058D01*
G01*
X-407467800Y-71896751D01*
G75*
G02*
X-406038495Y-71197940I1064058J-365247D01*
G01*
X-406038495Y-71197940D01*
G75*
G02*
X-405339684Y-72627245I-365247J-1064058D01*
G01*
X-405528436Y-73177129D01*
G75*
G02*
X-406957741Y-73875940I-1064058J365247D01*
G01*
G37*
%TD.AperFunction*%
%TD*%
%TO.P,MX47,2*%
%TO.N,Net-(D47-Pad2)*%
%TA.AperFunction,ComponentPad*%
G36*
G01*
X-439982021Y-149480229D02*
X-439982861Y-149479941D01*
G75*
G02*
X-440681672Y-148050636I365247J1064058D01*
G01*
X-440492920Y-147500752D01*
G75*
G02*
X-439063615Y-146801941I1064058J-365247D01*
G01*
X-439063615Y-146801941D01*
G75*
G02*
X-438364804Y-148231246I-365247J-1064058D01*
G01*
X-438553556Y-148781130D01*
G75*
G02*
X-439982861Y-149479941I-1064058J365247D01*
G01*
G37*
%TD.AperFunction*%
X-439428862Y-147865999D03*
%TO.P,MX47,1*%
%TO.N,Col7*%
%TA.AperFunction,ComponentPad*%
G36*
G01*
X-447162325Y-149290315D02*
X-447162329Y-149290308D01*
G75*
G02*
X-446834249Y-147733512I942438J614358D01*
G01*
X-445191009Y-146662314D01*
G75*
G02*
X-443634213Y-146990394I614358J-942438D01*
G01*
X-443634213Y-146990394D01*
G75*
G02*
X-443962293Y-148547190I-942438J-614358D01*
G01*
X-445605533Y-149618388D01*
G75*
G02*
X-447162329Y-149290308I-614358J942438D01*
G01*
G37*
%TD.AperFunction*%
X-444576652Y-147604751D03*
%TD*%
%TO.P,MX46,2*%
%TO.N,Net-(D46-Pad2)*%
%TA.AperFunction,ComponentPad*%
G36*
G01*
X-436553021Y-130684229D02*
X-436553861Y-130683941D01*
G75*
G02*
X-437252672Y-129254636I365247J1064058D01*
G01*
X-437063920Y-128704752D01*
G75*
G02*
X-435634615Y-128005941I1064058J-365247D01*
G01*
X-435634615Y-128005941D01*
G75*
G02*
X-434935804Y-129435246I-365247J-1064058D01*
G01*
X-435124556Y-129985130D01*
G75*
G02*
X-436553861Y-130683941I-1064058J365247D01*
G01*
G37*
%TD.AperFunction*%
X-435999862Y-129069999D03*
%TO.P,MX46,1*%
%TO.N,Col7*%
%TA.AperFunction,ComponentPad*%
G36*
G01*
X-443733325Y-130494315D02*
X-443733329Y-130494308D01*
G75*
G02*
X-443405249Y-128937512I942438J614358D01*
G01*
X-441762009Y-127866314D01*
G75*
G02*
X-440205213Y-128194394I614358J-942438D01*
G01*
X-440205213Y-128194394D01*
G75*
G02*
X-440533293Y-129751190I-942438J-614358D01*
G01*
X-442176533Y-130822388D01*
G75*
G02*
X-443733329Y-130494308I-614358J942438D01*
G01*
G37*
%TD.AperFunction*%
X-441147652Y-128808751D03*
%TD*%
%TO.P,MX45,2*%
%TO.N,Net-(D45-Pad2)*%
%TA.AperFunction,ComponentPad*%
G36*
G01*
X-433364784Y-111761229D02*
X-433365624Y-111760941D01*
G75*
G02*
X-434064435Y-110331636I365247J1064058D01*
G01*
X-433875683Y-109781752D01*
G75*
G02*
X-432446378Y-109082941I1064058J-365247D01*
G01*
X-432446378Y-109082941D01*
G75*
G02*
X-431747567Y-110512246I-365247J-1064058D01*
G01*
X-431936319Y-111062130D01*
G75*
G02*
X-433365624Y-111760941I-1064058J365247D01*
G01*
G37*
%TD.AperFunction*%
X-432811625Y-110146999D03*
%TO.P,MX45,1*%
%TO.N,Col7*%
%TA.AperFunction,ComponentPad*%
G36*
G01*
X-440545088Y-111571315D02*
X-440545092Y-111571308D01*
G75*
G02*
X-440217012Y-110014512I942438J614358D01*
G01*
X-438573772Y-108943314D01*
G75*
G02*
X-437016976Y-109271394I614358J-942438D01*
G01*
X-437016976Y-109271394D01*
G75*
G02*
X-437345056Y-110828190I-942438J-614358D01*
G01*
X-438988296Y-111899388D01*
G75*
G02*
X-440545092Y-111571308I-614358J942438D01*
G01*
G37*
%TD.AperFunction*%
X-437959415Y-109885751D03*
%TD*%
%TO.P,MX44,1*%
%TO.N,Col7*%
X-434651418Y-91072748D03*
%TA.AperFunction,ComponentPad*%
G36*
G01*
X-437237091Y-92758312D02*
X-437237095Y-92758305D01*
G75*
G02*
X-436909015Y-91201509I942438J614358D01*
G01*
X-435265775Y-90130311D01*
G75*
G02*
X-433708979Y-90458391I614358J-942438D01*
G01*
X-433708979Y-90458391D01*
G75*
G02*
X-434037059Y-92015187I-942438J-614358D01*
G01*
X-435680299Y-93086385D01*
G75*
G02*
X-437237095Y-92758305I-614358J942438D01*
G01*
G37*
%TD.AperFunction*%
%TO.P,MX44,2*%
%TO.N,Net-(D44-Pad2)*%
X-429503628Y-91333996D03*
%TA.AperFunction,ComponentPad*%
G36*
G01*
X-430056787Y-92948226D02*
X-430057627Y-92947938D01*
G75*
G02*
X-430756438Y-91518633I365247J1064058D01*
G01*
X-430567686Y-90968749D01*
G75*
G02*
X-429138381Y-90269938I1064058J-365247D01*
G01*
X-429138381Y-90269938D01*
G75*
G02*
X-428439570Y-91699243I-365247J-1064058D01*
G01*
X-428628322Y-92249127D01*
G75*
G02*
X-430057627Y-92947938I-1064058J365247D01*
G01*
G37*
%TD.AperFunction*%
%TD*%
%TO.P,MX43,1*%
%TO.N,Col7*%
X-429952418Y-67070248D03*
%TA.AperFunction,ComponentPad*%
G36*
G01*
X-432538091Y-68755812D02*
X-432538095Y-68755805D01*
G75*
G02*
X-432210015Y-67199009I942438J614358D01*
G01*
X-430566775Y-66127811D01*
G75*
G02*
X-429009979Y-66455891I614358J-942438D01*
G01*
X-429009979Y-66455891D01*
G75*
G02*
X-429338059Y-68012687I-942438J-614358D01*
G01*
X-430981299Y-69083885D01*
G75*
G02*
X-432538095Y-68755805I-614358J942438D01*
G01*
G37*
%TD.AperFunction*%
%TO.P,MX43,2*%
%TO.N,Net-(D43-Pad2)*%
X-424804628Y-67331496D03*
%TA.AperFunction,ComponentPad*%
G36*
G01*
X-425357787Y-68945726D02*
X-425358627Y-68945438D01*
G75*
G02*
X-426057438Y-67516133I365247J1064058D01*
G01*
X-425868686Y-66966249D01*
G75*
G02*
X-424439381Y-66267438I1064058J-365247D01*
G01*
X-424439381Y-66267438D01*
G75*
G02*
X-423740570Y-67696743I-365247J-1064058D01*
G01*
X-423929322Y-68246627D01*
G75*
G02*
X-425358627Y-68945438I-1064058J365247D01*
G01*
G37*
%TD.AperFunction*%
%TD*%
%TO.P,MX42,1*%
%TO.N,Col6*%
X-465666138Y-161673449D03*
%TA.AperFunction,ComponentPad*%
G36*
G01*
X-468251811Y-163359013D02*
X-468251815Y-163359006D01*
G75*
G02*
X-467923735Y-161802210I942438J614358D01*
G01*
X-466280495Y-160731012D01*
G75*
G02*
X-464723699Y-161059092I614358J-942438D01*
G01*
X-464723699Y-161059092D01*
G75*
G02*
X-465051779Y-162615888I-942438J-614358D01*
G01*
X-466695019Y-163687086D01*
G75*
G02*
X-468251815Y-163359006I-614358J942438D01*
G01*
G37*
%TD.AperFunction*%
%TO.P,MX42,2*%
%TO.N,Net-(D42-Pad2)*%
X-460518348Y-161934697D03*
%TA.AperFunction,ComponentPad*%
G36*
G01*
X-461071507Y-163548927D02*
X-461072347Y-163548639D01*
G75*
G02*
X-461771158Y-162119334I365247J1064058D01*
G01*
X-461582406Y-161569450D01*
G75*
G02*
X-460153101Y-160870639I1064058J-365247D01*
G01*
X-460153101Y-160870639D01*
G75*
G02*
X-459454290Y-162299944I-365247J-1064058D01*
G01*
X-459643042Y-162849828D01*
G75*
G02*
X-461072347Y-163548639I-1064058J365247D01*
G01*
G37*
%TD.AperFunction*%
%TD*%
%TO.P,MX41,1*%
%TO.N,Col6*%
X-462977538Y-142674249D03*
%TA.AperFunction,ComponentPad*%
G36*
G01*
X-465563211Y-144359813D02*
X-465563215Y-144359806D01*
G75*
G02*
X-465235135Y-142803010I942438J614358D01*
G01*
X-463591895Y-141731812D01*
G75*
G02*
X-462035099Y-142059892I614358J-942438D01*
G01*
X-462035099Y-142059892D01*
G75*
G02*
X-462363179Y-143616688I-942438J-614358D01*
G01*
X-464006419Y-144687886D01*
G75*
G02*
X-465563215Y-144359806I-614358J942438D01*
G01*
G37*
%TD.AperFunction*%
%TO.P,MX41,2*%
%TO.N,Net-(D41-Pad2)*%
X-457829748Y-142935497D03*
%TA.AperFunction,ComponentPad*%
G36*
G01*
X-458382907Y-144549727D02*
X-458383747Y-144549439D01*
G75*
G02*
X-459082558Y-143120134I365247J1064058D01*
G01*
X-458893806Y-142570250D01*
G75*
G02*
X-457464501Y-141871439I1064058J-365247D01*
G01*
X-457464501Y-141871439D01*
G75*
G02*
X-456765690Y-143300744I-365247J-1064058D01*
G01*
X-456954442Y-143850628D01*
G75*
G02*
X-458383747Y-144549439I-1064058J365247D01*
G01*
G37*
%TD.AperFunction*%
%TD*%
%TO.P,MX40,1*%
%TO.N,Col6*%
X-459548538Y-123878249D03*
%TA.AperFunction,ComponentPad*%
G36*
G01*
X-462134211Y-125563813D02*
X-462134215Y-125563806D01*
G75*
G02*
X-461806135Y-124007010I942438J614358D01*
G01*
X-460162895Y-122935812D01*
G75*
G02*
X-458606099Y-123263892I614358J-942438D01*
G01*
X-458606099Y-123263892D01*
G75*
G02*
X-458934179Y-124820688I-942438J-614358D01*
G01*
X-460577419Y-125891886D01*
G75*
G02*
X-462134215Y-125563806I-614358J942438D01*
G01*
G37*
%TD.AperFunction*%
%TO.P,MX40,2*%
%TO.N,Net-(D40-Pad2)*%
X-454400748Y-124139497D03*
%TA.AperFunction,ComponentPad*%
G36*
G01*
X-454953907Y-125753727D02*
X-454954747Y-125753439D01*
G75*
G02*
X-455653558Y-124324134I365247J1064058D01*
G01*
X-455464806Y-123774250D01*
G75*
G02*
X-454035501Y-123075439I1064058J-365247D01*
G01*
X-454035501Y-123075439D01*
G75*
G02*
X-453336690Y-124504744I-365247J-1064058D01*
G01*
X-453525442Y-125054628D01*
G75*
G02*
X-454954747Y-125753439I-1064058J365247D01*
G01*
G37*
%TD.AperFunction*%
%TD*%
%TO.P,MX39,1*%
%TO.N,Col6*%
X-456360301Y-104955249D03*
%TA.AperFunction,ComponentPad*%
G36*
G01*
X-458945974Y-106640813D02*
X-458945978Y-106640806D01*
G75*
G02*
X-458617898Y-105084010I942438J614358D01*
G01*
X-456974658Y-104012812D01*
G75*
G02*
X-455417862Y-104340892I614358J-942438D01*
G01*
X-455417862Y-104340892D01*
G75*
G02*
X-455745942Y-105897688I-942438J-614358D01*
G01*
X-457389182Y-106968886D01*
G75*
G02*
X-458945978Y-106640806I-614358J942438D01*
G01*
G37*
%TD.AperFunction*%
%TO.P,MX39,2*%
%TO.N,Net-(D39-Pad2)*%
X-451212511Y-105216497D03*
%TA.AperFunction,ComponentPad*%
G36*
G01*
X-451765670Y-106830727D02*
X-451766510Y-106830439D01*
G75*
G02*
X-452465321Y-105401134I365247J1064058D01*
G01*
X-452276569Y-104851250D01*
G75*
G02*
X-450847264Y-104152439I1064058J-365247D01*
G01*
X-450847264Y-104152439D01*
G75*
G02*
X-450148453Y-105581744I-365247J-1064058D01*
G01*
X-450337205Y-106131628D01*
G75*
G02*
X-451766510Y-106830439I-1064058J365247D01*
G01*
G37*
%TD.AperFunction*%
%TD*%
%TO.P,MX38,1*%
%TO.N,Col6*%
X-453052304Y-86142246D03*
%TA.AperFunction,ComponentPad*%
G36*
G01*
X-455637977Y-87827810D02*
X-455637981Y-87827803D01*
G75*
G02*
X-455309901Y-86271007I942438J614358D01*
G01*
X-453666661Y-85199809D01*
G75*
G02*
X-452109865Y-85527889I614358J-942438D01*
G01*
X-452109865Y-85527889D01*
G75*
G02*
X-452437945Y-87084685I-942438J-614358D01*
G01*
X-454081185Y-88155883D01*
G75*
G02*
X-455637981Y-87827803I-614358J942438D01*
G01*
G37*
%TD.AperFunction*%
%TO.P,MX38,2*%
%TO.N,Net-(D38-Pad2)*%
X-447904514Y-86403494D03*
%TA.AperFunction,ComponentPad*%
G36*
G01*
X-448457673Y-88017724D02*
X-448458513Y-88017436D01*
G75*
G02*
X-449157324Y-86588131I365247J1064058D01*
G01*
X-448968572Y-86038247D01*
G75*
G02*
X-447539267Y-85339436I1064058J-365247D01*
G01*
X-447539267Y-85339436D01*
G75*
G02*
X-446840456Y-86768741I-365247J-1064058D01*
G01*
X-447029208Y-87318625D01*
G75*
G02*
X-448458513Y-88017436I-1064058J365247D01*
G01*
G37*
%TD.AperFunction*%
%TD*%
%TO.P,MX37,1*%
%TO.N,Col6*%
X-448353304Y-62139746D03*
%TA.AperFunction,ComponentPad*%
G36*
G01*
X-450938977Y-63825310D02*
X-450938981Y-63825303D01*
G75*
G02*
X-450610901Y-62268507I942438J614358D01*
G01*
X-448967661Y-61197309D01*
G75*
G02*
X-447410865Y-61525389I614358J-942438D01*
G01*
X-447410865Y-61525389D01*
G75*
G02*
X-447738945Y-63082185I-942438J-614358D01*
G01*
X-449382185Y-64153383D01*
G75*
G02*
X-450938981Y-63825303I-614358J942438D01*
G01*
G37*
%TD.AperFunction*%
%TO.P,MX37,2*%
%TO.N,Net-(D37-Pad2)*%
X-443205514Y-62400994D03*
%TA.AperFunction,ComponentPad*%
G36*
G01*
X-443758673Y-64015224D02*
X-443759513Y-64014936D01*
G75*
G02*
X-444458324Y-62585631I365247J1064058D01*
G01*
X-444269572Y-62035747D01*
G75*
G02*
X-442840267Y-61336936I1064058J-365247D01*
G01*
X-442840267Y-61336936D01*
G75*
G02*
X-442141456Y-62766241I-365247J-1064058D01*
G01*
X-442330208Y-63316125D01*
G75*
G02*
X-443759513Y-64014936I-1064058J365247D01*
G01*
G37*
%TD.AperFunction*%
%TD*%
%TO.P,MX36,1*%
%TO.N,Col5*%
X-494625000Y-160338000D03*
%TA.AperFunction,ComponentPad*%
G36*
G01*
X-496686312Y-162635350D02*
X-496686317Y-162635345D01*
G75*
G02*
X-496772345Y-161046683I751317J837345D01*
G01*
X-495462343Y-159586683D01*
G75*
G02*
X-493873681Y-159500655I837345J-751317D01*
G01*
X-493873681Y-159500655D01*
G75*
G02*
X-493787653Y-161089317I-751317J-837345D01*
G01*
X-495097655Y-162549317D01*
G75*
G02*
X-496686317Y-162635345I-837345J751317D01*
G01*
G37*
%TD.AperFunction*%
%TO.P,MX36,2*%
%TO.N,Net-(D36-Pad2)*%
X-489585000Y-159258000D03*
%TA.AperFunction,ComponentPad*%
G36*
G01*
X-489701517Y-160960395D02*
X-489702403Y-160960334D01*
G75*
G02*
X-490747334Y-159760597I77403J1122334D01*
G01*
X-490707334Y-159180597D01*
G75*
G02*
X-489507597Y-158135666I1122334J-77403D01*
G01*
X-489507597Y-158135666D01*
G75*
G02*
X-488462666Y-159335403I-77403J-1122334D01*
G01*
X-488502666Y-159915403D01*
G75*
G02*
X-489702403Y-160960334I-1122334J77403D01*
G01*
G37*
%TD.AperFunction*%
%TD*%
%TO.P,MX35,1*%
%TO.N,Col5*%
X-496911000Y-141288000D03*
%TA.AperFunction,ComponentPad*%
G36*
G01*
X-498972312Y-143585350D02*
X-498972317Y-143585345D01*
G75*
G02*
X-499058345Y-141996683I751317J837345D01*
G01*
X-497748343Y-140536683D01*
G75*
G02*
X-496159681Y-140450655I837345J-751317D01*
G01*
X-496159681Y-140450655D01*
G75*
G02*
X-496073653Y-142039317I-751317J-837345D01*
G01*
X-497383655Y-143499317D01*
G75*
G02*
X-498972317Y-143585345I-837345J751317D01*
G01*
G37*
%TD.AperFunction*%
%TO.P,MX35,2*%
%TO.N,Net-(D35-Pad2)*%
X-491871000Y-140208000D03*
%TA.AperFunction,ComponentPad*%
G36*
G01*
X-491987517Y-141910395D02*
X-491988403Y-141910334D01*
G75*
G02*
X-493033334Y-140710597I77403J1122334D01*
G01*
X-492993334Y-140130597D01*
G75*
G02*
X-491793597Y-139085666I1122334J-77403D01*
G01*
X-491793597Y-139085666D01*
G75*
G02*
X-490748666Y-140285403I-77403J-1122334D01*
G01*
X-490788666Y-140865403D01*
G75*
G02*
X-491988403Y-141910334I-1122334J77403D01*
G01*
G37*
%TD.AperFunction*%
%TD*%
%TO.P,MX34,1*%
%TO.N,Col5*%
X-492148500Y-122238000D03*
%TA.AperFunction,ComponentPad*%
G36*
G01*
X-494209812Y-124535350D02*
X-494209817Y-124535345D01*
G75*
G02*
X-494295845Y-122946683I751317J837345D01*
G01*
X-492985843Y-121486683D01*
G75*
G02*
X-491397181Y-121400655I837345J-751317D01*
G01*
X-491397181Y-121400655D01*
G75*
G02*
X-491311153Y-122989317I-751317J-837345D01*
G01*
X-492621155Y-124449317D01*
G75*
G02*
X-494209817Y-124535345I-837345J751317D01*
G01*
G37*
%TD.AperFunction*%
%TO.P,MX34,2*%
%TO.N,Net-(D34-Pad2)*%
X-487108500Y-121158000D03*
%TA.AperFunction,ComponentPad*%
G36*
G01*
X-487225017Y-122860395D02*
X-487225903Y-122860334D01*
G75*
G02*
X-488270834Y-121660597I77403J1122334D01*
G01*
X-488230834Y-121080597D01*
G75*
G02*
X-487031097Y-120035666I1122334J-77403D01*
G01*
X-487031097Y-120035666D01*
G75*
G02*
X-485986166Y-121235403I-77403J-1122334D01*
G01*
X-486026166Y-121815403D01*
G75*
G02*
X-487225903Y-122860334I-1122334J77403D01*
G01*
G37*
%TD.AperFunction*%
%TD*%
%TO.P,MX33,1*%
%TO.N,Col5*%
X-487386000Y-103188000D03*
%TA.AperFunction,ComponentPad*%
G36*
G01*
X-489447312Y-105485350D02*
X-489447317Y-105485345D01*
G75*
G02*
X-489533345Y-103896683I751317J837345D01*
G01*
X-488223343Y-102436683D01*
G75*
G02*
X-486634681Y-102350655I837345J-751317D01*
G01*
X-486634681Y-102350655D01*
G75*
G02*
X-486548653Y-103939317I-751317J-837345D01*
G01*
X-487858655Y-105399317D01*
G75*
G02*
X-489447317Y-105485345I-837345J751317D01*
G01*
G37*
%TD.AperFunction*%
%TO.P,MX33,2*%
%TO.N,Net-(D33-Pad2)*%
X-482346000Y-102108000D03*
%TA.AperFunction,ComponentPad*%
G36*
G01*
X-482462517Y-103810395D02*
X-482463403Y-103810334D01*
G75*
G02*
X-483508334Y-102610597I77403J1122334D01*
G01*
X-483468334Y-102030597D01*
G75*
G02*
X-482268597Y-100985666I1122334J-77403D01*
G01*
X-482268597Y-100985666D01*
G75*
G02*
X-481223666Y-102185403I-77403J-1122334D01*
G01*
X-481263666Y-102765403D01*
G75*
G02*
X-482463403Y-103810334I-1122334J77403D01*
G01*
G37*
%TD.AperFunction*%
%TD*%
%TO.P,MX32,1*%
%TO.N,Col5*%
X-482623500Y-84138000D03*
%TA.AperFunction,ComponentPad*%
G36*
G01*
X-484684812Y-86435350D02*
X-484684817Y-86435345D01*
G75*
G02*
X-484770845Y-84846683I751317J837345D01*
G01*
X-483460843Y-83386683D01*
G75*
G02*
X-481872181Y-83300655I837345J-751317D01*
G01*
X-481872181Y-83300655D01*
G75*
G02*
X-481786153Y-84889317I-751317J-837345D01*
G01*
X-483096155Y-86349317D01*
G75*
G02*
X-484684817Y-86435345I-837345J751317D01*
G01*
G37*
%TD.AperFunction*%
%TO.P,MX32,2*%
%TO.N,Net-(D32-Pad2)*%
X-477583500Y-83058000D03*
%TA.AperFunction,ComponentPad*%
G36*
G01*
X-477700017Y-84760395D02*
X-477700903Y-84760334D01*
G75*
G02*
X-478745834Y-83560597I77403J1122334D01*
G01*
X-478705834Y-82980597D01*
G75*
G02*
X-477506097Y-81935666I1122334J-77403D01*
G01*
X-477506097Y-81935666D01*
G75*
G02*
X-476461166Y-83135403I-77403J-1122334D01*
G01*
X-476501166Y-83715403D01*
G75*
G02*
X-477700903Y-84760334I-1122334J77403D01*
G01*
G37*
%TD.AperFunction*%
%TD*%
%TO.P,MX31,1*%
%TO.N,Col5*%
X-477924500Y-60325500D03*
%TA.AperFunction,ComponentPad*%
G36*
G01*
X-479985812Y-62622850D02*
X-479985817Y-62622845D01*
G75*
G02*
X-480071845Y-61034183I751317J837345D01*
G01*
X-478761843Y-59574183D01*
G75*
G02*
X-477173181Y-59488155I837345J-751317D01*
G01*
X-477173181Y-59488155D01*
G75*
G02*
X-477087153Y-61076817I-751317J-837345D01*
G01*
X-478397155Y-62536817D01*
G75*
G02*
X-479985817Y-62622845I-837345J751317D01*
G01*
G37*
%TD.AperFunction*%
%TO.P,MX31,2*%
%TO.N,Net-(D31-Pad2)*%
X-472884500Y-59245500D03*
%TA.AperFunction,ComponentPad*%
G36*
G01*
X-473001017Y-60947895D02*
X-473001903Y-60947834D01*
G75*
G02*
X-474046834Y-59748097I77403J1122334D01*
G01*
X-474006834Y-59168097D01*
G75*
G02*
X-472807097Y-58123166I1122334J-77403D01*
G01*
X-472807097Y-58123166D01*
G75*
G02*
X-471762166Y-59322903I-77403J-1122334D01*
G01*
X-471802166Y-59902903D01*
G75*
G02*
X-473001903Y-60947834I-1122334J77403D01*
G01*
G37*
%TD.AperFunction*%
%TD*%
%TO.P,MX30,1*%
%TO.N,Col4*%
X-518374000Y-160338000D03*
%TA.AperFunction,ComponentPad*%
G36*
G01*
X-520435312Y-162635350D02*
X-520435317Y-162635345D01*
G75*
G02*
X-520521345Y-161046683I751317J837345D01*
G01*
X-519211343Y-159586683D01*
G75*
G02*
X-517622681Y-159500655I837345J-751317D01*
G01*
X-517622681Y-159500655D01*
G75*
G02*
X-517536653Y-161089317I-751317J-837345D01*
G01*
X-518846655Y-162549317D01*
G75*
G02*
X-520435317Y-162635345I-837345J751317D01*
G01*
G37*
%TD.AperFunction*%
%TO.P,MX30,2*%
%TO.N,Net-(D30-Pad2)*%
X-513334000Y-159258000D03*
%TA.AperFunction,ComponentPad*%
G36*
G01*
X-513450517Y-160960395D02*
X-513451403Y-160960334D01*
G75*
G02*
X-514496334Y-159760597I77403J1122334D01*
G01*
X-514456334Y-159180597D01*
G75*
G02*
X-513256597Y-158135666I1122334J-77403D01*
G01*
X-513256597Y-158135666D01*
G75*
G02*
X-512211666Y-159335403I-77403J-1122334D01*
G01*
X-512251666Y-159915403D01*
G75*
G02*
X-513451403Y-160960334I-1122334J77403D01*
G01*
G37*
%TD.AperFunction*%
%TD*%
%TO.P,MX28,1*%
%TO.N,Col4*%
X-518374000Y-122238000D03*
%TA.AperFunction,ComponentPad*%
G36*
G01*
X-520435312Y-124535350D02*
X-520435317Y-124535345D01*
G75*
G02*
X-520521345Y-122946683I751317J837345D01*
G01*
X-519211343Y-121486683D01*
G75*
G02*
X-517622681Y-121400655I837345J-751317D01*
G01*
X-517622681Y-121400655D01*
G75*
G02*
X-517536653Y-122989317I-751317J-837345D01*
G01*
X-518846655Y-124449317D01*
G75*
G02*
X-520435317Y-124535345I-837345J751317D01*
G01*
G37*
%TD.AperFunction*%
%TO.P,MX28,2*%
%TO.N,Net-(D28-Pad2)*%
X-513334000Y-121158000D03*
%TA.AperFunction,ComponentPad*%
G36*
G01*
X-513450517Y-122860395D02*
X-513451403Y-122860334D01*
G75*
G02*
X-514496334Y-121660597I77403J1122334D01*
G01*
X-514456334Y-121080597D01*
G75*
G02*
X-513256597Y-120035666I1122334J-77403D01*
G01*
X-513256597Y-120035666D01*
G75*
G02*
X-512211666Y-121235403I-77403J-1122334D01*
G01*
X-512251666Y-121815403D01*
G75*
G02*
X-513451403Y-122860334I-1122334J77403D01*
G01*
G37*
%TD.AperFunction*%
%TD*%
%TO.P,MX27,1*%
%TO.N,Col4*%
X-511262000Y-103188000D03*
%TA.AperFunction,ComponentPad*%
G36*
G01*
X-513323312Y-105485350D02*
X-513323317Y-105485345D01*
G75*
G02*
X-513409345Y-103896683I751317J837345D01*
G01*
X-512099343Y-102436683D01*
G75*
G02*
X-510510681Y-102350655I837345J-751317D01*
G01*
X-510510681Y-102350655D01*
G75*
G02*
X-510424653Y-103939317I-751317J-837345D01*
G01*
X-511734655Y-105399317D01*
G75*
G02*
X-513323317Y-105485345I-837345J751317D01*
G01*
G37*
%TD.AperFunction*%
%TO.P,MX27,2*%
%TO.N,Net-(D27-Pad2)*%
X-506222000Y-102108000D03*
%TA.AperFunction,ComponentPad*%
G36*
G01*
X-506338517Y-103810395D02*
X-506339403Y-103810334D01*
G75*
G02*
X-507384334Y-102610597I77403J1122334D01*
G01*
X-507344334Y-102030597D01*
G75*
G02*
X-506144597Y-100985666I1122334J-77403D01*
G01*
X-506144597Y-100985666D01*
G75*
G02*
X-505099666Y-102185403I-77403J-1122334D01*
G01*
X-505139666Y-102765403D01*
G75*
G02*
X-506339403Y-103810334I-1122334J77403D01*
G01*
G37*
%TD.AperFunction*%
%TD*%
%TO.P,MX26,1*%
%TO.N,Col4*%
X-501737000Y-84138000D03*
%TA.AperFunction,ComponentPad*%
G36*
G01*
X-503798312Y-86435350D02*
X-503798317Y-86435345D01*
G75*
G02*
X-503884345Y-84846683I751317J837345D01*
G01*
X-502574343Y-83386683D01*
G75*
G02*
X-500985681Y-83300655I837345J-751317D01*
G01*
X-500985681Y-83300655D01*
G75*
G02*
X-500899653Y-84889317I-751317J-837345D01*
G01*
X-502209655Y-86349317D01*
G75*
G02*
X-503798317Y-86435345I-837345J751317D01*
G01*
G37*
%TD.AperFunction*%
%TO.P,MX26,2*%
%TO.N,Net-(D26-Pad2)*%
X-496697000Y-83058000D03*
%TA.AperFunction,ComponentPad*%
G36*
G01*
X-496813517Y-84760395D02*
X-496814403Y-84760334D01*
G75*
G02*
X-497859334Y-83560597I77403J1122334D01*
G01*
X-497819334Y-82980597D01*
G75*
G02*
X-496619597Y-81935666I1122334J-77403D01*
G01*
X-496619597Y-81935666D01*
G75*
G02*
X-495574666Y-83135403I-77403J-1122334D01*
G01*
X-495614666Y-83715403D01*
G75*
G02*
X-496814403Y-84760334I-1122334J77403D01*
G01*
G37*
%TD.AperFunction*%
%TD*%
%TO.P,MX25,1*%
%TO.N,Col4*%
X-496974500Y-60325500D03*
%TA.AperFunction,ComponentPad*%
G36*
G01*
X-499035812Y-62622850D02*
X-499035817Y-62622845D01*
G75*
G02*
X-499121845Y-61034183I751317J837345D01*
G01*
X-497811843Y-59574183D01*
G75*
G02*
X-496223181Y-59488155I837345J-751317D01*
G01*
X-496223181Y-59488155D01*
G75*
G02*
X-496137153Y-61076817I-751317J-837345D01*
G01*
X-497447155Y-62536817D01*
G75*
G02*
X-499035817Y-62622845I-837345J751317D01*
G01*
G37*
%TD.AperFunction*%
%TO.P,MX25,2*%
%TO.N,Net-(D25-Pad2)*%
X-491934500Y-59245500D03*
%TA.AperFunction,ComponentPad*%
G36*
G01*
X-492051017Y-60947895D02*
X-492051903Y-60947834D01*
G75*
G02*
X-493096834Y-59748097I77403J1122334D01*
G01*
X-493056834Y-59168097D01*
G75*
G02*
X-491857097Y-58123166I1122334J-77403D01*
G01*
X-491857097Y-58123166D01*
G75*
G02*
X-490812166Y-59322903I-77403J-1122334D01*
G01*
X-490852166Y-59902903D01*
G75*
G02*
X-492051903Y-60947834I-1122334J77403D01*
G01*
G37*
%TD.AperFunction*%
%TD*%
%TO.P,MX24,1*%
%TO.N,Col3*%
X-539837000Y-160338000D03*
%TA.AperFunction,ComponentPad*%
G36*
G01*
X-541898312Y-162635350D02*
X-541898317Y-162635345D01*
G75*
G02*
X-541984345Y-161046683I751317J837345D01*
G01*
X-540674343Y-159586683D01*
G75*
G02*
X-539085681Y-159500655I837345J-751317D01*
G01*
X-539085681Y-159500655D01*
G75*
G02*
X-538999653Y-161089317I-751317J-837345D01*
G01*
X-540309655Y-162549317D01*
G75*
G02*
X-541898317Y-162635345I-837345J751317D01*
G01*
G37*
%TD.AperFunction*%
%TO.P,MX24,2*%
%TO.N,Net-(D24-Pad2)*%
X-534797000Y-159258000D03*
%TA.AperFunction,ComponentPad*%
G36*
G01*
X-534913517Y-160960395D02*
X-534914403Y-160960334D01*
G75*
G02*
X-535959334Y-159760597I77403J1122334D01*
G01*
X-535919334Y-159180597D01*
G75*
G02*
X-534719597Y-158135666I1122334J-77403D01*
G01*
X-534719597Y-158135666D01*
G75*
G02*
X-533674666Y-159335403I-77403J-1122334D01*
G01*
X-533714666Y-159915403D01*
G75*
G02*
X-534914403Y-160960334I-1122334J77403D01*
G01*
G37*
%TD.AperFunction*%
%TD*%
%TO.P,MX23,1*%
%TO.N,Col3*%
X-558887000Y-160338000D03*
%TA.AperFunction,ComponentPad*%
G36*
G01*
X-560948312Y-162635350D02*
X-560948317Y-162635345D01*
G75*
G02*
X-561034345Y-161046683I751317J837345D01*
G01*
X-559724343Y-159586683D01*
G75*
G02*
X-558135681Y-159500655I837345J-751317D01*
G01*
X-558135681Y-159500655D01*
G75*
G02*
X-558049653Y-161089317I-751317J-837345D01*
G01*
X-559359655Y-162549317D01*
G75*
G02*
X-560948317Y-162635345I-837345J751317D01*
G01*
G37*
%TD.AperFunction*%
%TO.P,MX23,2*%
%TO.N,Net-(D23-Pad2)*%
X-553847000Y-159258000D03*
%TA.AperFunction,ComponentPad*%
G36*
G01*
X-553963517Y-160960395D02*
X-553964403Y-160960334D01*
G75*
G02*
X-555009334Y-159760597I77403J1122334D01*
G01*
X-554969334Y-159180597D01*
G75*
G02*
X-553769597Y-158135666I1122334J-77403D01*
G01*
X-553769597Y-158135666D01*
G75*
G02*
X-552724666Y-159335403I-77403J-1122334D01*
G01*
X-552764666Y-159915403D01*
G75*
G02*
X-553964403Y-160960334I-1122334J77403D01*
G01*
G37*
%TD.AperFunction*%
%TD*%
%TO.P,MX22,1*%
%TO.N,Col3*%
X-578000500Y-160338000D03*
%TA.AperFunction,ComponentPad*%
G36*
G01*
X-580061812Y-162635350D02*
X-580061817Y-162635345D01*
G75*
G02*
X-580147845Y-161046683I751317J837345D01*
G01*
X-578837843Y-159586683D01*
G75*
G02*
X-577249181Y-159500655I837345J-751317D01*
G01*
X-577249181Y-159500655D01*
G75*
G02*
X-577163153Y-161089317I-751317J-837345D01*
G01*
X-578473155Y-162549317D01*
G75*
G02*
X-580061817Y-162635345I-837345J751317D01*
G01*
G37*
%TD.AperFunction*%
%TO.P,MX22,2*%
%TO.N,Net-(D22-Pad2)*%
X-572960500Y-159258000D03*
%TA.AperFunction,ComponentPad*%
G36*
G01*
X-573077017Y-160960395D02*
X-573077903Y-160960334D01*
G75*
G02*
X-574122834Y-159760597I77403J1122334D01*
G01*
X-574082834Y-159180597D01*
G75*
G02*
X-572883097Y-158135666I1122334J-77403D01*
G01*
X-572883097Y-158135666D01*
G75*
G02*
X-571838166Y-159335403I-77403J-1122334D01*
G01*
X-571878166Y-159915403D01*
G75*
G02*
X-573077903Y-160960334I-1122334J77403D01*
G01*
G37*
%TD.AperFunction*%
%TD*%
%TO.P,MX21,1*%
%TO.N,Col3*%
X-558887000Y-141288000D03*
%TA.AperFunction,ComponentPad*%
G36*
G01*
X-560948312Y-143585350D02*
X-560948317Y-143585345D01*
G75*
G02*
X-561034345Y-141996683I751317J837345D01*
G01*
X-559724343Y-140536683D01*
G75*
G02*
X-558135681Y-140450655I837345J-751317D01*
G01*
X-558135681Y-140450655D01*
G75*
G02*
X-558049653Y-142039317I-751317J-837345D01*
G01*
X-559359655Y-143499317D01*
G75*
G02*
X-560948317Y-143585345I-837345J751317D01*
G01*
G37*
%TD.AperFunction*%
%TO.P,MX21,2*%
%TO.N,Net-(D21-Pad2)*%
X-553847000Y-140208000D03*
%TA.AperFunction,ComponentPad*%
G36*
G01*
X-553963517Y-141910395D02*
X-553964403Y-141910334D01*
G75*
G02*
X-555009334Y-140710597I77403J1122334D01*
G01*
X-554969334Y-140130597D01*
G75*
G02*
X-553769597Y-139085666I1122334J-77403D01*
G01*
X-553769597Y-139085666D01*
G75*
G02*
X-552724666Y-140285403I-77403J-1122334D01*
G01*
X-552764666Y-140865403D01*
G75*
G02*
X-553964403Y-141910334I-1122334J77403D01*
G01*
G37*
%TD.AperFunction*%
%TD*%
%TO.P,MX20,1*%
%TO.N,Col3*%
X-578000500Y-84138000D03*
%TA.AperFunction,ComponentPad*%
G36*
G01*
X-580061812Y-86435350D02*
X-580061817Y-86435345D01*
G75*
G02*
X-580147845Y-84846683I751317J837345D01*
G01*
X-578837843Y-83386683D01*
G75*
G02*
X-577249181Y-83300655I837345J-751317D01*
G01*
X-577249181Y-83300655D01*
G75*
G02*
X-577163153Y-84889317I-751317J-837345D01*
G01*
X-578473155Y-86349317D01*
G75*
G02*
X-580061817Y-86435345I-837345J751317D01*
G01*
G37*
%TD.AperFunction*%
%TO.P,MX20,2*%
%TO.N,Net-(D20-Pad2)*%
X-572960500Y-83058000D03*
%TA.AperFunction,ComponentPad*%
G36*
G01*
X-573077017Y-84760395D02*
X-573077903Y-84760334D01*
G75*
G02*
X-574122834Y-83560597I77403J1122334D01*
G01*
X-574082834Y-82980597D01*
G75*
G02*
X-572883097Y-81935666I1122334J-77403D01*
G01*
X-572883097Y-81935666D01*
G75*
G02*
X-571838166Y-83135403I-77403J-1122334D01*
G01*
X-571878166Y-83715403D01*
G75*
G02*
X-573077903Y-84760334I-1122334J77403D01*
G01*
G37*
%TD.AperFunction*%
%TD*%
%TO.P,MX19,1*%
%TO.N,Col3*%
X-525549500Y-60325500D03*
%TA.AperFunction,ComponentPad*%
G36*
G01*
X-527610812Y-62622850D02*
X-527610817Y-62622845D01*
G75*
G02*
X-527696845Y-61034183I751317J837345D01*
G01*
X-526386843Y-59574183D01*
G75*
G02*
X-524798181Y-59488155I837345J-751317D01*
G01*
X-524798181Y-59488155D01*
G75*
G02*
X-524712153Y-61076817I-751317J-837345D01*
G01*
X-526022155Y-62536817D01*
G75*
G02*
X-527610817Y-62622845I-837345J751317D01*
G01*
G37*
%TD.AperFunction*%
%TO.P,MX19,2*%
%TO.N,Net-(D19-Pad2)*%
X-520509500Y-59245500D03*
%TA.AperFunction,ComponentPad*%
G36*
G01*
X-520626017Y-60947895D02*
X-520626903Y-60947834D01*
G75*
G02*
X-521671834Y-59748097I77403J1122334D01*
G01*
X-521631834Y-59168097D01*
G75*
G02*
X-520432097Y-58123166I1122334J-77403D01*
G01*
X-520432097Y-58123166D01*
G75*
G02*
X-519387166Y-59322903I-77403J-1122334D01*
G01*
X-519427166Y-59902903D01*
G75*
G02*
X-520626903Y-60947834I-1122334J77403D01*
G01*
G37*
%TD.AperFunction*%
%TD*%
%TO.P,MX18,1*%
%TO.N,Col2*%
X-603313000Y-157313000D03*
%TA.AperFunction,ComponentPad*%
G36*
G01*
X-601015650Y-159374312D02*
X-601015655Y-159374317D01*
G75*
G02*
X-602604317Y-159460345I-837345J751317D01*
G01*
X-604064317Y-158150343D01*
G75*
G02*
X-604150345Y-156561681I751317J837345D01*
G01*
X-604150345Y-156561681D01*
G75*
G02*
X-602561683Y-156475653I837345J-751317D01*
G01*
X-601101683Y-157785655D01*
G75*
G02*
X-601015655Y-159374317I-751317J-837345D01*
G01*
G37*
%TD.AperFunction*%
%TO.P,MX18,2*%
%TO.N,Net-(D18-Pad2)*%
X-604393000Y-152273000D03*
%TA.AperFunction,ComponentPad*%
G36*
G01*
X-602690605Y-152389517D02*
X-602690666Y-152390403D01*
G75*
G02*
X-603890403Y-153435334I-1122334J77403D01*
G01*
X-604470403Y-153395334D01*
G75*
G02*
X-605515334Y-152195597I77403J1122334D01*
G01*
X-605515334Y-152195597D01*
G75*
G02*
X-604315597Y-151150666I1122334J-77403D01*
G01*
X-603735597Y-151190666D01*
G75*
G02*
X-602690666Y-152390403I-77403J-1122334D01*
G01*
G37*
%TD.AperFunction*%
%TD*%
%TO.P,MX17,1*%
%TO.N,Col2*%
X-620863000Y-160338000D03*
%TA.AperFunction,ComponentPad*%
G36*
G01*
X-622924312Y-162635350D02*
X-622924317Y-162635345D01*
G75*
G02*
X-623010345Y-161046683I751317J837345D01*
G01*
X-621700343Y-159586683D01*
G75*
G02*
X-620111681Y-159500655I837345J-751317D01*
G01*
X-620111681Y-159500655D01*
G75*
G02*
X-620025653Y-161089317I-751317J-837345D01*
G01*
X-621335655Y-162549317D01*
G75*
G02*
X-622924317Y-162635345I-837345J751317D01*
G01*
G37*
%TD.AperFunction*%
%TO.P,MX17,2*%
%TO.N,Net-(D17-Pad2)*%
X-615823000Y-159258000D03*
%TA.AperFunction,ComponentPad*%
G36*
G01*
X-615939517Y-160960395D02*
X-615940403Y-160960334D01*
G75*
G02*
X-616985334Y-159760597I77403J1122334D01*
G01*
X-616945334Y-159180597D01*
G75*
G02*
X-615745597Y-158135666I1122334J-77403D01*
G01*
X-615745597Y-158135666D01*
G75*
G02*
X-614700666Y-159335403I-77403J-1122334D01*
G01*
X-614740666Y-159915403D01*
G75*
G02*
X-615940403Y-160960334I-1122334J77403D01*
G01*
G37*
%TD.AperFunction*%
%TD*%
%TO.P,MX15,1*%
%TO.N,Col2*%
X-620863000Y-122238000D03*
%TA.AperFunction,ComponentPad*%
G36*
G01*
X-622924312Y-124535350D02*
X-622924317Y-124535345D01*
G75*
G02*
X-623010345Y-122946683I751317J837345D01*
G01*
X-621700343Y-121486683D01*
G75*
G02*
X-620111681Y-121400655I837345J-751317D01*
G01*
X-620111681Y-121400655D01*
G75*
G02*
X-620025653Y-122989317I-751317J-837345D01*
G01*
X-621335655Y-124449317D01*
G75*
G02*
X-622924317Y-124535345I-837345J751317D01*
G01*
G37*
%TD.AperFunction*%
%TO.P,MX15,2*%
%TO.N,Net-(D15-Pad2)*%
X-615823000Y-121158000D03*
%TA.AperFunction,ComponentPad*%
G36*
G01*
X-615939517Y-122860395D02*
X-615940403Y-122860334D01*
G75*
G02*
X-616985334Y-121660597I77403J1122334D01*
G01*
X-616945334Y-121080597D01*
G75*
G02*
X-615745597Y-120035666I1122334J-77403D01*
G01*
X-615745597Y-120035666D01*
G75*
G02*
X-614700666Y-121235403I-77403J-1122334D01*
G01*
X-614740666Y-121815403D01*
G75*
G02*
X-615940403Y-122860334I-1122334J77403D01*
G01*
G37*
%TD.AperFunction*%
%TD*%
%TO.P,MX14,1*%
%TO.N,Col2*%
X-603313000Y-119213000D03*
%TA.AperFunction,ComponentPad*%
G36*
G01*
X-601015650Y-121274312D02*
X-601015655Y-121274317D01*
G75*
G02*
X-602604317Y-121360345I-837345J751317D01*
G01*
X-604064317Y-120050343D01*
G75*
G02*
X-604150345Y-118461681I751317J837345D01*
G01*
X-604150345Y-118461681D01*
G75*
G02*
X-602561683Y-118375653I837345J-751317D01*
G01*
X-601101683Y-119685655D01*
G75*
G02*
X-601015655Y-121274317I-751317J-837345D01*
G01*
G37*
%TD.AperFunction*%
%TO.P,MX14,2*%
%TO.N,Net-(D14-Pad2)*%
X-604393000Y-114173000D03*
%TA.AperFunction,ComponentPad*%
G36*
G01*
X-602690605Y-114289517D02*
X-602690666Y-114290403D01*
G75*
G02*
X-603890403Y-115335334I-1122334J77403D01*
G01*
X-604470403Y-115295334D01*
G75*
G02*
X-605515334Y-114095597I77403J1122334D01*
G01*
X-605515334Y-114095597D01*
G75*
G02*
X-604315597Y-113050666I1122334J-77403D01*
G01*
X-603735597Y-113090666D01*
G75*
G02*
X-602690666Y-114290403I-77403J-1122334D01*
G01*
G37*
%TD.AperFunction*%
%TD*%
%TO.P,MX13,1*%
%TO.N,Col2*%
X-601813000Y-84138000D03*
%TA.AperFunction,ComponentPad*%
G36*
G01*
X-603874312Y-86435350D02*
X-603874317Y-86435345D01*
G75*
G02*
X-603960345Y-84846683I751317J837345D01*
G01*
X-602650343Y-83386683D01*
G75*
G02*
X-601061681Y-83300655I837345J-751317D01*
G01*
X-601061681Y-83300655D01*
G75*
G02*
X-600975653Y-84889317I-751317J-837345D01*
G01*
X-602285655Y-86349317D01*
G75*
G02*
X-603874317Y-86435345I-837345J751317D01*
G01*
G37*
%TD.AperFunction*%
%TO.P,MX13,2*%
%TO.N,Net-(D13-Pad2)*%
X-596773000Y-83058000D03*
%TA.AperFunction,ComponentPad*%
G36*
G01*
X-596889517Y-84760395D02*
X-596890403Y-84760334D01*
G75*
G02*
X-597935334Y-83560597I77403J1122334D01*
G01*
X-597895334Y-82980597D01*
G75*
G02*
X-596695597Y-81935666I1122334J-77403D01*
G01*
X-596695597Y-81935666D01*
G75*
G02*
X-595650666Y-83135403I-77403J-1122334D01*
G01*
X-595690666Y-83715403D01*
G75*
G02*
X-596890403Y-84760334I-1122334J77403D01*
G01*
G37*
%TD.AperFunction*%
%TD*%
%TO.P,MX12,1*%
%TO.N,Col1*%
X-639913000Y-160338000D03*
%TA.AperFunction,ComponentPad*%
G36*
G01*
X-641974312Y-162635350D02*
X-641974317Y-162635345D01*
G75*
G02*
X-642060345Y-161046683I751317J837345D01*
G01*
X-640750343Y-159586683D01*
G75*
G02*
X-639161681Y-159500655I837345J-751317D01*
G01*
X-639161681Y-159500655D01*
G75*
G02*
X-639075653Y-161089317I-751317J-837345D01*
G01*
X-640385655Y-162549317D01*
G75*
G02*
X-641974317Y-162635345I-837345J751317D01*
G01*
G37*
%TD.AperFunction*%
%TO.P,MX12,2*%
%TO.N,Net-(D12-Pad2)*%
X-634873000Y-159258000D03*
%TA.AperFunction,ComponentPad*%
G36*
G01*
X-634989517Y-160960395D02*
X-634990403Y-160960334D01*
G75*
G02*
X-636035334Y-159760597I77403J1122334D01*
G01*
X-635995334Y-159180597D01*
G75*
G02*
X-634795597Y-158135666I1122334J-77403D01*
G01*
X-634795597Y-158135666D01*
G75*
G02*
X-633750666Y-159335403I-77403J-1122334D01*
G01*
X-633790666Y-159915403D01*
G75*
G02*
X-634990403Y-160960334I-1122334J77403D01*
G01*
G37*
%TD.AperFunction*%
%TD*%
%TO.P,MX11,1*%
%TO.N,Col1*%
X-639913000Y-141288000D03*
%TA.AperFunction,ComponentPad*%
G36*
G01*
X-641974312Y-143585350D02*
X-641974317Y-143585345D01*
G75*
G02*
X-642060345Y-141996683I751317J837345D01*
G01*
X-640750343Y-140536683D01*
G75*
G02*
X-639161681Y-140450655I837345J-751317D01*
G01*
X-639161681Y-140450655D01*
G75*
G02*
X-639075653Y-142039317I-751317J-837345D01*
G01*
X-640385655Y-143499317D01*
G75*
G02*
X-641974317Y-143585345I-837345J751317D01*
G01*
G37*
%TD.AperFunction*%
%TO.P,MX11,2*%
%TO.N,Net-(D11-Pad2)*%
X-634873000Y-140208000D03*
%TA.AperFunction,ComponentPad*%
G36*
G01*
X-634989517Y-141910395D02*
X-634990403Y-141910334D01*
G75*
G02*
X-636035334Y-140710597I77403J1122334D01*
G01*
X-635995334Y-140130597D01*
G75*
G02*
X-634795597Y-139085666I1122334J-77403D01*
G01*
X-634795597Y-139085666D01*
G75*
G02*
X-633750666Y-140285403I-77403J-1122334D01*
G01*
X-633790666Y-140865403D01*
G75*
G02*
X-634990403Y-141910334I-1122334J77403D01*
G01*
G37*
%TD.AperFunction*%
%TD*%
%TO.P,MX10,1*%
%TO.N,Col1*%
X-639913000Y-122238000D03*
%TA.AperFunction,ComponentPad*%
G36*
G01*
X-641974312Y-124535350D02*
X-641974317Y-124535345D01*
G75*
G02*
X-642060345Y-122946683I751317J837345D01*
G01*
X-640750343Y-121486683D01*
G75*
G02*
X-639161681Y-121400655I837345J-751317D01*
G01*
X-639161681Y-121400655D01*
G75*
G02*
X-639075653Y-122989317I-751317J-837345D01*
G01*
X-640385655Y-124449317D01*
G75*
G02*
X-641974317Y-124535345I-837345J751317D01*
G01*
G37*
%TD.AperFunction*%
%TO.P,MX10,2*%
%TO.N,Net-(D10-Pad2)*%
X-634873000Y-121158000D03*
%TA.AperFunction,ComponentPad*%
G36*
G01*
X-634989517Y-122860395D02*
X-634990403Y-122860334D01*
G75*
G02*
X-636035334Y-121660597I77403J1122334D01*
G01*
X-635995334Y-121080597D01*
G75*
G02*
X-634795597Y-120035666I1122334J-77403D01*
G01*
X-634795597Y-120035666D01*
G75*
G02*
X-633750666Y-121235403I-77403J-1122334D01*
G01*
X-633790666Y-121815403D01*
G75*
G02*
X-634990403Y-122860334I-1122334J77403D01*
G01*
G37*
%TD.AperFunction*%
%TD*%
%TO.P,MX9,1*%
%TO.N,Col1*%
X-639913000Y-103188000D03*
%TA.AperFunction,ComponentPad*%
G36*
G01*
X-641974312Y-105485350D02*
X-641974317Y-105485345D01*
G75*
G02*
X-642060345Y-103896683I751317J837345D01*
G01*
X-640750343Y-102436683D01*
G75*
G02*
X-639161681Y-102350655I837345J-751317D01*
G01*
X-639161681Y-102350655D01*
G75*
G02*
X-639075653Y-103939317I-751317J-837345D01*
G01*
X-640385655Y-105399317D01*
G75*
G02*
X-641974317Y-105485345I-837345J751317D01*
G01*
G37*
%TD.AperFunction*%
%TO.P,MX9,2*%
%TO.N,Net-(D9-Pad2)*%
X-634873000Y-102108000D03*
%TA.AperFunction,ComponentPad*%
G36*
G01*
X-634989517Y-103810395D02*
X-634990403Y-103810334D01*
G75*
G02*
X-636035334Y-102610597I77403J1122334D01*
G01*
X-635995334Y-102030597D01*
G75*
G02*
X-634795597Y-100985666I1122334J-77403D01*
G01*
X-634795597Y-100985666D01*
G75*
G02*
X-633750666Y-102185403I-77403J-1122334D01*
G01*
X-633790666Y-102765403D01*
G75*
G02*
X-634990403Y-103810334I-1122334J77403D01*
G01*
G37*
%TD.AperFunction*%
%TD*%
%TO.P,MX8,1*%
%TO.N,Col1*%
X-620863000Y-103188000D03*
%TA.AperFunction,ComponentPad*%
G36*
G01*
X-622924312Y-105485350D02*
X-622924317Y-105485345D01*
G75*
G02*
X-623010345Y-103896683I751317J837345D01*
G01*
X-621700343Y-102436683D01*
G75*
G02*
X-620111681Y-102350655I837345J-751317D01*
G01*
X-620111681Y-102350655D01*
G75*
G02*
X-620025653Y-103939317I-751317J-837345D01*
G01*
X-621335655Y-105399317D01*
G75*
G02*
X-622924317Y-105485345I-837345J751317D01*
G01*
G37*
%TD.AperFunction*%
%TO.P,MX8,2*%
%TO.N,Net-(D8-Pad2)*%
X-615823000Y-102108000D03*
%TA.AperFunction,ComponentPad*%
G36*
G01*
X-615939517Y-103810395D02*
X-615940403Y-103810334D01*
G75*
G02*
X-616985334Y-102610597I77403J1122334D01*
G01*
X-616945334Y-102030597D01*
G75*
G02*
X-615745597Y-100985666I1122334J-77403D01*
G01*
X-615745597Y-100985666D01*
G75*
G02*
X-614700666Y-102185403I-77403J-1122334D01*
G01*
X-614740666Y-102765403D01*
G75*
G02*
X-615940403Y-103810334I-1122334J77403D01*
G01*
G37*
%TD.AperFunction*%
%TD*%
%TO.P,MX7,1*%
%TO.N,Col1*%
X-620863000Y-84138000D03*
%TA.AperFunction,ComponentPad*%
G36*
G01*
X-622924312Y-86435350D02*
X-622924317Y-86435345D01*
G75*
G02*
X-623010345Y-84846683I751317J837345D01*
G01*
X-621700343Y-83386683D01*
G75*
G02*
X-620111681Y-83300655I837345J-751317D01*
G01*
X-620111681Y-83300655D01*
G75*
G02*
X-620025653Y-84889317I-751317J-837345D01*
G01*
X-621335655Y-86349317D01*
G75*
G02*
X-622924317Y-86435345I-837345J751317D01*
G01*
G37*
%TD.AperFunction*%
%TO.P,MX7,2*%
%TO.N,Net-(D7-Pad2)*%
X-615823000Y-83058000D03*
%TA.AperFunction,ComponentPad*%
G36*
G01*
X-615939517Y-84760395D02*
X-615940403Y-84760334D01*
G75*
G02*
X-616985334Y-83560597I77403J1122334D01*
G01*
X-616945334Y-82980597D01*
G75*
G02*
X-615745597Y-81935666I1122334J-77403D01*
G01*
X-615745597Y-81935666D01*
G75*
G02*
X-614700666Y-83135403I-77403J-1122334D01*
G01*
X-614740666Y-83715403D01*
G75*
G02*
X-615940403Y-84760334I-1122334J77403D01*
G01*
G37*
%TD.AperFunction*%
%TD*%
%TO.P,MX6,1*%
%TO.N,Col0*%
X-649438000Y-160338000D03*
%TA.AperFunction,ComponentPad*%
G36*
G01*
X-651499312Y-162635350D02*
X-651499317Y-162635345D01*
G75*
G02*
X-651585345Y-161046683I751317J837345D01*
G01*
X-650275343Y-159586683D01*
G75*
G02*
X-648686681Y-159500655I837345J-751317D01*
G01*
X-648686681Y-159500655D01*
G75*
G02*
X-648600653Y-161089317I-751317J-837345D01*
G01*
X-649910655Y-162549317D01*
G75*
G02*
X-651499317Y-162635345I-837345J751317D01*
G01*
G37*
%TD.AperFunction*%
%TO.P,MX6,2*%
%TO.N,Net-(D6-Pad2)*%
X-644398000Y-159258000D03*
%TA.AperFunction,ComponentPad*%
G36*
G01*
X-644514517Y-160960395D02*
X-644515403Y-160960334D01*
G75*
G02*
X-645560334Y-159760597I77403J1122334D01*
G01*
X-645520334Y-159180597D01*
G75*
G02*
X-644320597Y-158135666I1122334J-77403D01*
G01*
X-644320597Y-158135666D01*
G75*
G02*
X-643275666Y-159335403I-77403J-1122334D01*
G01*
X-643315666Y-159915403D01*
G75*
G02*
X-644515403Y-160960334I-1122334J77403D01*
G01*
G37*
%TD.AperFunction*%
%TD*%
%TO.P,MX5,1*%
%TO.N,Col0*%
X-658963000Y-141288000D03*
%TA.AperFunction,ComponentPad*%
G36*
G01*
X-661024312Y-143585350D02*
X-661024317Y-143585345D01*
G75*
G02*
X-661110345Y-141996683I751317J837345D01*
G01*
X-659800343Y-140536683D01*
G75*
G02*
X-658211681Y-140450655I837345J-751317D01*
G01*
X-658211681Y-140450655D01*
G75*
G02*
X-658125653Y-142039317I-751317J-837345D01*
G01*
X-659435655Y-143499317D01*
G75*
G02*
X-661024317Y-143585345I-837345J751317D01*
G01*
G37*
%TD.AperFunction*%
%TO.P,MX5,2*%
%TO.N,Net-(D5-Pad2)*%
X-653923000Y-140208000D03*
%TA.AperFunction,ComponentPad*%
G36*
G01*
X-654039517Y-141910395D02*
X-654040403Y-141910334D01*
G75*
G02*
X-655085334Y-140710597I77403J1122334D01*
G01*
X-655045334Y-140130597D01*
G75*
G02*
X-653845597Y-139085666I1122334J-77403D01*
G01*
X-653845597Y-139085666D01*
G75*
G02*
X-652800666Y-140285403I-77403J-1122334D01*
G01*
X-652840666Y-140865403D01*
G75*
G02*
X-654040403Y-141910334I-1122334J77403D01*
G01*
G37*
%TD.AperFunction*%
%TD*%
%TO.P,MX4,1*%
%TO.N,Col0*%
X-658963000Y-122238000D03*
%TA.AperFunction,ComponentPad*%
G36*
G01*
X-661024312Y-124535350D02*
X-661024317Y-124535345D01*
G75*
G02*
X-661110345Y-122946683I751317J837345D01*
G01*
X-659800343Y-121486683D01*
G75*
G02*
X-658211681Y-121400655I837345J-751317D01*
G01*
X-658211681Y-121400655D01*
G75*
G02*
X-658125653Y-122989317I-751317J-837345D01*
G01*
X-659435655Y-124449317D01*
G75*
G02*
X-661024317Y-124535345I-837345J751317D01*
G01*
G37*
%TD.AperFunction*%
%TO.P,MX4,2*%
%TO.N,Net-(D4-Pad2)*%
X-653923000Y-121158000D03*
%TA.AperFunction,ComponentPad*%
G36*
G01*
X-654039517Y-122860395D02*
X-654040403Y-122860334D01*
G75*
G02*
X-655085334Y-121660597I77403J1122334D01*
G01*
X-655045334Y-121080597D01*
G75*
G02*
X-653845597Y-120035666I1122334J-77403D01*
G01*
X-653845597Y-120035666D01*
G75*
G02*
X-652800666Y-121235403I-77403J-1122334D01*
G01*
X-652840666Y-121815403D01*
G75*
G02*
X-654040403Y-122860334I-1122334J77403D01*
G01*
G37*
%TD.AperFunction*%
%TD*%
%TO.P,MX3,1*%
%TO.N,Col0*%
X-658963000Y-103188000D03*
%TA.AperFunction,ComponentPad*%
G36*
G01*
X-661024312Y-105485350D02*
X-661024317Y-105485345D01*
G75*
G02*
X-661110345Y-103896683I751317J837345D01*
G01*
X-659800343Y-102436683D01*
G75*
G02*
X-658211681Y-102350655I837345J-751317D01*
G01*
X-658211681Y-102350655D01*
G75*
G02*
X-658125653Y-103939317I-751317J-837345D01*
G01*
X-659435655Y-105399317D01*
G75*
G02*
X-661024317Y-105485345I-837345J751317D01*
G01*
G37*
%TD.AperFunction*%
%TO.P,MX3,2*%
%TO.N,Net-(D3-Pad2)*%
X-653923000Y-102108000D03*
%TA.AperFunction,ComponentPad*%
G36*
G01*
X-654039517Y-103810395D02*
X-654040403Y-103810334D01*
G75*
G02*
X-655085334Y-102610597I77403J1122334D01*
G01*
X-655045334Y-102030597D01*
G75*
G02*
X-653845597Y-100985666I1122334J-77403D01*
G01*
X-653845597Y-100985666D01*
G75*
G02*
X-652800666Y-102185403I-77403J-1122334D01*
G01*
X-652840666Y-102765403D01*
G75*
G02*
X-654040403Y-103810334I-1122334J77403D01*
G01*
G37*
%TD.AperFunction*%
%TD*%
%TO.P,MX2,1*%
%TO.N,Col0*%
X-658963000Y-84138000D03*
%TA.AperFunction,ComponentPad*%
G36*
G01*
X-661024312Y-86435350D02*
X-661024317Y-86435345D01*
G75*
G02*
X-661110345Y-84846683I751317J837345D01*
G01*
X-659800343Y-83386683D01*
G75*
G02*
X-658211681Y-83300655I837345J-751317D01*
G01*
X-658211681Y-83300655D01*
G75*
G02*
X-658125653Y-84889317I-751317J-837345D01*
G01*
X-659435655Y-86349317D01*
G75*
G02*
X-661024317Y-86435345I-837345J751317D01*
G01*
G37*
%TD.AperFunction*%
%TO.P,MX2,2*%
%TO.N,Net-(D2-Pad2)*%
X-653923000Y-83058000D03*
%TA.AperFunction,ComponentPad*%
G36*
G01*
X-654039517Y-84760395D02*
X-654040403Y-84760334D01*
G75*
G02*
X-655085334Y-83560597I77403J1122334D01*
G01*
X-655045334Y-82980597D01*
G75*
G02*
X-653845597Y-81935666I1122334J-77403D01*
G01*
X-653845597Y-81935666D01*
G75*
G02*
X-652800666Y-83135403I-77403J-1122334D01*
G01*
X-652840666Y-83715403D01*
G75*
G02*
X-654040403Y-84760334I-1122334J77403D01*
G01*
G37*
%TD.AperFunction*%
%TD*%
%TO.P,MX1,1*%
%TO.N,Col0*%
X-639913000Y-84138000D03*
%TA.AperFunction,ComponentPad*%
G36*
G01*
X-641974312Y-86435350D02*
X-641974317Y-86435345D01*
G75*
G02*
X-642060345Y-84846683I751317J837345D01*
G01*
X-640750343Y-83386683D01*
G75*
G02*
X-639161681Y-83300655I837345J-751317D01*
G01*
X-639161681Y-83300655D01*
G75*
G02*
X-639075653Y-84889317I-751317J-837345D01*
G01*
X-640385655Y-86349317D01*
G75*
G02*
X-641974317Y-86435345I-837345J751317D01*
G01*
G37*
%TD.AperFunction*%
%TO.P,MX1,2*%
%TO.N,Net-(D1-Pad2)*%
X-634873000Y-83058000D03*
%TA.AperFunction,ComponentPad*%
G36*
G01*
X-634989517Y-84760395D02*
X-634990403Y-84760334D01*
G75*
G02*
X-636035334Y-83560597I77403J1122334D01*
G01*
X-635995334Y-82980597D01*
G75*
G02*
X-634795597Y-81935666I1122334J-77403D01*
G01*
X-634795597Y-81935666D01*
G75*
G02*
X-633750666Y-83135403I-77403J-1122334D01*
G01*
X-633790666Y-83715403D01*
G75*
G02*
X-634990403Y-84760334I-1122334J77403D01*
G01*
G37*
%TD.AperFunction*%
%TD*%
D15*
%TO.N,Row0*%
X-589788000Y-89788000D03*
X-465709000Y-70078600D03*
X-438020524Y-69898273D03*
%TO.N,Net-(D2-Pad2)*%
X-646938000Y-86488000D03*
%TO.N,Row1*%
X-565975500Y-89788000D03*
X-608787200Y-92100400D03*
X-608838000Y-108838000D03*
X-574167000Y-115087400D03*
%TO.N,Row2*%
X-557580800Y-98806000D03*
X-626668800Y-98577400D03*
X-627888000Y-108838000D03*
X-627938800Y-130302000D03*
X-557555400Y-137134600D03*
%TO.N,Row3*%
X-553161200Y-126288800D03*
X-565975500Y-165988000D03*
X-611886000Y-128600200D03*
X-611962200Y-142697200D03*
%TO.N,Row4*%
X-546862000Y-165988000D03*
X-627888000Y-146938000D03*
X-234689400Y-147015200D03*
X-229736400Y-133908800D03*
%TO.N,Row5*%
X-589711800Y-164109400D03*
X-589788000Y-156463000D03*
X-533400000Y-118287800D03*
X-532307800Y-161366200D03*
X-379780800Y-186283600D03*
X-379221064Y-170466037D03*
%TO.N,Net-(D15-Pad2)*%
X-608838000Y-124588000D03*
%TO.N,Net-(D21-Pad2)*%
X-546862000Y-143638000D03*
%TO.N,Net-(D22-Pad2)*%
X-567486800Y-162737800D03*
%TO.N,Net-(D23-Pad2)*%
X-546862000Y-162688000D03*
%TO.N,Net-(D95-Pad2)*%
X-233648000Y-143967200D03*
X-224605600Y-140258800D03*
%TO.N,Net-(D96-Pad2)*%
X-206571600Y-155956000D03*
%TO.N,Col4*%
X-498373400Y-72136000D03*
X-562660800Y-80289400D03*
X-562381400Y-88239600D03*
X-561543200Y-105587800D03*
%TO.N,Col5*%
X-482803200Y-72542400D03*
X-564349136Y-82817464D03*
X-563346600Y-88706400D03*
%TO.N,Col6*%
X-449732400Y-75946000D03*
X-560959000Y-79121000D03*
X-555955200Y-91779800D03*
%TO.N,Col7*%
X-545719000Y-94208600D03*
X-448411600Y-94310200D03*
%TO.N,Col8*%
X-543102800Y-96697800D03*
%TO.N,Col9*%
X-511733800Y-73939400D03*
X-455422000Y-73964800D03*
X-455395221Y-60696400D03*
%TO.N,Col10*%
X-509473200Y-75336400D03*
X-456946000Y-75539600D03*
X-457022200Y-59874000D03*
%TO.N,Col11*%
X-459663800Y-81661000D03*
X-459587600Y-59147000D03*
%TO.N,Col12*%
X-461187800Y-78892400D03*
X-461111600Y-58420000D03*
%TO.N,Row1*%
X-535203400Y-112318800D03*
X-527202400Y-93345000D03*
X-589788000Y-118363000D03*
%TO.N,Row3*%
X-566191400Y-127812800D03*
%TO.N,Row4*%
X-550697400Y-132842000D03*
X-544525200Y-139319000D03*
%TO.N,Row5*%
X-548157400Y-117398800D03*
%TO.N,Net-(D22-Pad2)*%
X-569899800Y-159816800D03*
%TO.N,Col3*%
X-560222400Y-91084400D03*
%TO.N,Col5*%
X-562762400Y-97053400D03*
%TO.N,Col6*%
X-555193200Y-128320800D03*
%TO.N,Col9*%
X-517880600Y-84937600D03*
%TO.N,Col10*%
X-513054600Y-82245200D03*
%TO.N,Col15*%
X-242893600Y-143205200D03*
%TO.N,Col16*%
X-211626200Y-142900400D03*
%TD*%
D16*
%TO.N,Row0*%
X-438200851Y-70078600D02*
X-438020524Y-69898273D01*
X-465709000Y-70078600D02*
X-438200851Y-70078600D01*
X-570962439Y-90458901D02*
X-589117099Y-90458901D01*
X-589117099Y-90458901D02*
X-589788000Y-89788000D01*
X-561961338Y-81457800D02*
X-570962439Y-90458901D01*
X-555777400Y-81457800D02*
X-561961338Y-81457800D01*
%TO.N,Net-(D2-Pad2)*%
X-649788000Y-83638000D02*
X-646938000Y-86488000D01*
X-653963000Y-83638000D02*
X-649788000Y-83638000D01*
%TO.N,Row1*%
X-608787200Y-108787200D02*
X-608838000Y-108838000D01*
X-608787200Y-92100400D02*
X-608787200Y-108787200D01*
%TO.N,Row2*%
X-627888000Y-99796600D02*
X-627888000Y-108838000D01*
X-626668800Y-98577400D02*
X-627888000Y-99796600D01*
X-627888000Y-130251200D02*
X-627938800Y-130302000D01*
X-627888000Y-108838000D02*
X-627888000Y-130251200D01*
X-557580800Y-137109200D02*
X-557555400Y-137134600D01*
X-557580800Y-98806000D02*
X-557580800Y-137109200D01*
%TO.N,Row3*%
X-553237400Y-126212600D02*
X-553161200Y-126288800D01*
X-553237400Y-86537800D02*
X-553237400Y-126212600D01*
X-611886000Y-142621000D02*
X-611962200Y-142697200D01*
X-611886000Y-128600200D02*
X-611886000Y-142621000D01*
%TO.N,Row4*%
X-627859441Y-146966559D02*
X-627888000Y-146938000D01*
X-234689400Y-138861800D02*
X-229736400Y-133908800D01*
X-234689400Y-147015200D02*
X-234689400Y-138861800D01*
%TO.N,Row5*%
X-589711800Y-156539200D02*
X-589788000Y-156463000D01*
X-589711800Y-164109400D02*
X-589711800Y-156539200D01*
X-532307800Y-119380000D02*
X-532307800Y-161366200D01*
X-533400000Y-118287800D02*
X-532307800Y-119380000D01*
X-379221064Y-185723864D02*
X-379221064Y-170466037D01*
X-379780800Y-186283600D02*
X-379221064Y-185723864D01*
%TO.N,Net-(D15-Pad2)*%
X-611688000Y-121738000D02*
X-608838000Y-124588000D01*
X-615863000Y-121738000D02*
X-611688000Y-121738000D01*
%TO.N,Net-(D21-Pad2)*%
X-549712000Y-140788000D02*
X-546862000Y-143638000D01*
X-553887000Y-140788000D02*
X-549712000Y-140788000D01*
%TO.N,Net-(D23-Pad2)*%
X-549712000Y-159838000D02*
X-546862000Y-162688000D01*
X-553887000Y-159838000D02*
X-549712000Y-159838000D01*
%TO.N,Net-(D95-Pad2)*%
X-230312157Y-139856395D02*
X-225008005Y-139856395D01*
X-233648000Y-143192238D02*
X-230312157Y-139856395D01*
X-225008005Y-139856395D02*
X-224605600Y-140258800D01*
X-233648000Y-143967200D02*
X-233648000Y-143192238D01*
%TO.N,Net-(D96-Pad2)*%
X-199956400Y-155956000D02*
X-196049000Y-159863400D01*
X-206571600Y-155956000D02*
X-199956400Y-155956000D01*
%TO.N,Col0*%
X-614372800Y-58597800D02*
X-639913000Y-84138000D01*
X-555777400Y-58597800D02*
X-614372800Y-58597800D01*
X-660273000Y-85598000D02*
X-660273000Y-104648000D01*
X-660273000Y-104648000D02*
X-660273000Y-123698000D01*
X-660273000Y-123698000D02*
X-660273000Y-142748000D01*
%TO.N,Col1*%
X-597862800Y-61137800D02*
X-620863000Y-84138000D01*
X-555777400Y-61137800D02*
X-597862800Y-61137800D01*
X-622173000Y-85598000D02*
X-622173000Y-104648000D01*
X-641223000Y-120928000D02*
X-639913000Y-122238000D01*
X-641223000Y-104648000D02*
X-641223000Y-120928000D01*
X-641223000Y-123698000D02*
X-641223000Y-142748000D01*
X-641223000Y-142748000D02*
X-641223000Y-161798000D01*
%TO.N,Col2*%
X-600001962Y-84138000D02*
X-601813000Y-84138000D01*
X-584621762Y-68757800D02*
X-600001962Y-84138000D01*
X-555777400Y-68757800D02*
X-584621762Y-68757800D01*
X-602323051Y-120052949D02*
X-601853000Y-120523000D01*
X-602323051Y-86397949D02*
X-602323051Y-120052949D01*
X-603123000Y-85598000D02*
X-602323051Y-86397949D01*
X-622173000Y-123698000D02*
X-622173000Y-142748000D01*
X-622173000Y-159028000D02*
X-620863000Y-160338000D01*
X-622173000Y-142748000D02*
X-622173000Y-159028000D01*
%TO.N,Col3*%
X-565160300Y-71297800D02*
X-578000500Y-84138000D01*
X-555777400Y-71297800D02*
X-565160300Y-71297800D01*
X-560197000Y-142748000D02*
X-560197000Y-161798000D01*
%TO.N,Col4*%
X-498284500Y-72047100D02*
X-498373400Y-72136000D01*
X-498284500Y-61785500D02*
X-498284500Y-72047100D01*
X-511262000Y-93304038D02*
X-511262000Y-103188000D01*
X-503555962Y-85598000D02*
X-511262000Y-93304038D01*
X-503047000Y-85598000D02*
X-503555962Y-85598000D01*
X-515044001Y-106611039D02*
X-515044001Y-123511999D01*
X-515044001Y-123511999D02*
X-514858000Y-123698000D01*
X-514418961Y-105985999D02*
X-515044001Y-106611039D01*
X-513579799Y-105985999D02*
X-514418961Y-105985999D01*
X-512572000Y-104978200D02*
X-513579799Y-105985999D01*
X-512572000Y-104648000D02*
X-512572000Y-104978200D01*
X-529209000Y-132714038D02*
X-529209000Y-142748000D01*
X-520192962Y-123698000D02*
X-529209000Y-132714038D01*
X-519684000Y-123698000D02*
X-520192962Y-123698000D01*
X-520725400Y-161798000D02*
X-519684000Y-161798000D01*
X-529209000Y-153314400D02*
X-520725400Y-161798000D01*
X-529209000Y-142748000D02*
X-529209000Y-153314400D01*
X-561543200Y-89077800D02*
X-561543200Y-105587800D01*
X-562381400Y-88239600D02*
X-561543200Y-89077800D01*
%TO.N,Col5*%
X-479234500Y-68973700D02*
X-482803200Y-72542400D01*
X-479234500Y-61785500D02*
X-479234500Y-68973700D01*
X-488696000Y-93409462D02*
X-488696000Y-104648000D01*
X-483933500Y-88646962D02*
X-488696000Y-93409462D01*
X-483933500Y-85598000D02*
X-483933500Y-88646962D01*
X-493458500Y-108901538D02*
X-493458500Y-123698000D01*
X-489204962Y-104648000D02*
X-493458500Y-108901538D01*
X-488696000Y-104648000D02*
X-489204962Y-104648000D01*
X-498221000Y-127951538D02*
X-498221000Y-142748000D01*
X-495305461Y-125035999D02*
X-498221000Y-127951538D01*
X-494682199Y-125035999D02*
X-495305461Y-125035999D01*
X-493458500Y-123812300D02*
X-494682199Y-125035999D01*
X-493458500Y-123698000D02*
X-493458500Y-123812300D01*
X-498221000Y-156742000D02*
X-494625000Y-160338000D01*
X-498221000Y-142748000D02*
X-498221000Y-156742000D01*
%TO.N,Col6*%
X-454695543Y-80909143D02*
X-454695543Y-87213445D01*
X-449732400Y-75946000D02*
X-454695543Y-80909143D01*
X-458003540Y-92541029D02*
X-458003540Y-106026448D01*
X-454695543Y-89233032D02*
X-458003540Y-92541029D01*
X-454695543Y-87213445D02*
X-454695543Y-89233032D01*
X-461191777Y-111234272D02*
X-461191777Y-124949448D01*
X-458003540Y-108046035D02*
X-461191777Y-111234272D01*
X-458003540Y-106026448D02*
X-458003540Y-108046035D01*
X-464620777Y-126840111D02*
X-464620777Y-143745448D01*
X-462730114Y-124949448D02*
X-464620777Y-126840111D01*
X-461191777Y-124949448D02*
X-462730114Y-124949448D01*
X-467706904Y-162347121D02*
X-467309377Y-162744648D01*
X-467706904Y-145293238D02*
X-467706904Y-162347121D01*
X-466159114Y-143745448D02*
X-467706904Y-145293238D01*
X-464620777Y-143745448D02*
X-466159114Y-143745448D01*
%TO.N,Col7*%
X-448411600Y-94310200D02*
X-439602654Y-103119146D01*
X-431595657Y-88016987D02*
X-434651418Y-91072748D01*
X-431595657Y-68141447D02*
X-431595657Y-88016987D01*
X-436294657Y-99998657D02*
X-439602654Y-103306654D01*
X-436294657Y-92143947D02*
X-436294657Y-99998657D01*
X-439602654Y-103306654D02*
X-439602654Y-110956950D01*
X-439602654Y-103119146D02*
X-439602654Y-103306654D01*
X-439602654Y-127263753D02*
X-441147652Y-128808751D01*
X-439602654Y-110956950D02*
X-439602654Y-127263753D01*
X-442790891Y-145818990D02*
X-444576652Y-147604751D01*
X-442790891Y-129879950D02*
X-442790891Y-145818990D01*
X-430479377Y-170189138D02*
X-430479377Y-172625248D01*
X-439492212Y-161176303D02*
X-430479377Y-170189138D01*
X-439492212Y-152385470D02*
X-439492212Y-161176303D01*
X-443201732Y-148675950D02*
X-439492212Y-152385470D01*
X-446219891Y-148675950D02*
X-443201732Y-148675950D01*
%TO.N,Col8*%
X-413194771Y-92375449D02*
X-417893771Y-97074449D01*
X-413194771Y-73071949D02*
X-413194771Y-92375449D01*
X-421201768Y-98844109D02*
X-421201768Y-115887452D01*
X-419432108Y-97074449D02*
X-421201768Y-98844109D01*
X-417893771Y-97074449D02*
X-419432108Y-97074449D01*
X-424390005Y-117537352D02*
X-424390005Y-134810452D01*
X-422740105Y-115887452D02*
X-424390005Y-117537352D01*
X-421201768Y-115887452D02*
X-422740105Y-115887452D01*
X-425928342Y-134810452D02*
X-427819005Y-136701115D01*
X-427819005Y-136701115D02*
X-427819005Y-153606452D01*
X-424390005Y-134810452D02*
X-425928342Y-134810452D01*
X-407259488Y-170556589D02*
X-395947735Y-181868342D01*
X-414720577Y-170556589D02*
X-407259488Y-170556589D01*
X-427819005Y-157458161D02*
X-414720577Y-170556589D01*
X-427819005Y-153606452D02*
X-427819005Y-157458161D01*
%TO.N,Col9*%
X-455447400Y-73939400D02*
X-455422000Y-73964800D01*
X-511733800Y-73939400D02*
X-455447400Y-73939400D01*
X-409394153Y-60687745D02*
X-393150646Y-76931252D01*
X-455386566Y-60687745D02*
X-409394153Y-60687745D01*
X-455395221Y-60696400D02*
X-455386566Y-60687745D01*
X-394793885Y-97305951D02*
X-399492885Y-102004951D01*
X-394793885Y-78002451D02*
X-394793885Y-97305951D01*
X-402800882Y-103774611D02*
X-402800882Y-120817954D01*
X-401031222Y-102004951D02*
X-402800882Y-103774611D01*
X-399492885Y-102004951D02*
X-401031222Y-102004951D01*
X-405989119Y-122467854D02*
X-405989119Y-139740954D01*
X-404339219Y-120817954D02*
X-405989119Y-122467854D01*
X-402800882Y-120817954D02*
X-404339219Y-120817954D01*
X-409418119Y-141631617D02*
X-409418119Y-158536954D01*
X-407527456Y-139740954D02*
X-409418119Y-141631617D01*
X-405989119Y-139740954D02*
X-407527456Y-139740954D01*
X-391017233Y-165487043D02*
X-391017233Y-163467456D01*
X-405012574Y-166794208D02*
X-392324398Y-166794208D01*
X-409418119Y-162388663D02*
X-405012574Y-166794208D01*
X-392324398Y-166794208D02*
X-391017233Y-165487043D01*
X-409418119Y-158536954D02*
X-409418119Y-162388663D01*
%TO.N,Col10*%
X-457149200Y-75336400D02*
X-456946000Y-75539600D01*
X-509473200Y-75336400D02*
X-457149200Y-75336400D01*
X-455563403Y-59874000D02*
X-455468003Y-59969400D01*
X-457022200Y-59874000D02*
X-455563403Y-59874000D01*
X-378167085Y-59969400D02*
X-359896541Y-78239944D01*
X-455468003Y-59969400D02*
X-378167085Y-59969400D01*
X-363757034Y-166004364D02*
X-363757034Y-165439657D01*
X-360533489Y-169227909D02*
X-363757034Y-166004364D01*
X-350083113Y-169227909D02*
X-360533489Y-169227909D01*
X-344723472Y-163868268D02*
X-350083113Y-169227909D01*
X-344723472Y-161141831D02*
X-344723472Y-163868268D01*
X-345356148Y-160509155D02*
X-344723472Y-161141831D01*
X-348182902Y-157682401D02*
X-345356148Y-160509155D01*
X-348182902Y-142316125D02*
X-348182902Y-157682401D01*
X-348815578Y-141683449D02*
X-348182902Y-142316125D01*
X-350253301Y-124904126D02*
X-352269978Y-122887449D01*
X-350253301Y-140245726D02*
X-350253301Y-124904126D01*
X-348815578Y-141683449D02*
X-350253301Y-140245726D01*
X-355091702Y-104698725D02*
X-355724378Y-104066049D01*
X-355091702Y-106959698D02*
X-355091702Y-104698725D01*
X-352269978Y-109781422D02*
X-355091702Y-106959698D01*
X-352269978Y-122887449D02*
X-352269978Y-109781422D01*
X-358767351Y-82005926D02*
X-360784028Y-79989249D01*
X-358767351Y-101023076D02*
X-358767351Y-82005926D01*
X-355724378Y-104066049D02*
X-358767351Y-101023076D01*
%TO.N,Col11*%
X-459587600Y-59147000D02*
X-356270000Y-59147000D01*
X-342107558Y-73309442D02*
X-341495655Y-73309442D01*
X-356270000Y-59147000D02*
X-342107558Y-73309442D01*
X-337323492Y-81698548D02*
X-337323492Y-99135547D01*
X-342383142Y-76638898D02*
X-337323492Y-81698548D01*
X-342383142Y-75058747D02*
X-342383142Y-76638898D01*
X-336690816Y-115135223D02*
X-333869092Y-117956947D01*
X-336690816Y-99768223D02*
X-336690816Y-115135223D01*
X-337323492Y-99135547D02*
X-336690816Y-99768223D01*
X-333869092Y-119537098D02*
X-330414692Y-122991498D01*
X-330414692Y-122991498D02*
X-330414692Y-136752947D01*
X-333869092Y-117956947D02*
X-333869092Y-119537098D01*
X-326955262Y-141792528D02*
X-326955262Y-155578653D01*
X-330414692Y-138333098D02*
X-326955262Y-141792528D01*
X-330414692Y-136752947D02*
X-330414692Y-138333098D01*
X-341828891Y-170886147D02*
X-341828891Y-177758344D01*
X-326955262Y-156012518D02*
X-341828891Y-170886147D01*
X-326955262Y-155578653D02*
X-326955262Y-156012518D01*
%TO.N,Col12*%
X-333053709Y-58420000D02*
X-323094769Y-68378940D01*
X-461111600Y-58420000D02*
X-333053709Y-58420000D01*
X-323982256Y-71708396D02*
X-318922606Y-76768046D01*
X-318922606Y-76768046D02*
X-318922606Y-94205045D01*
X-323982256Y-70128245D02*
X-323982256Y-71708396D01*
X-315468206Y-98958606D02*
X-315468206Y-113026445D01*
X-318922606Y-95504206D02*
X-315468206Y-98958606D01*
X-318922606Y-94205045D02*
X-318922606Y-95504206D01*
X-315468206Y-114606596D02*
X-312013806Y-118060996D01*
X-312013806Y-118060996D02*
X-312013806Y-131822445D01*
X-315468206Y-113026445D02*
X-315468206Y-114606596D01*
X-308554376Y-136835036D02*
X-308554376Y-150648151D01*
X-312013806Y-133375606D02*
X-308554376Y-136835036D01*
X-312013806Y-131822445D02*
X-312013806Y-133375606D01*
X-308554376Y-152228302D02*
X-305914605Y-154868073D01*
X-305914605Y-154868073D02*
X-305914605Y-169646644D01*
X-308554376Y-150648151D02*
X-308554376Y-152228302D01*
%TO.N,Col13*%
X-300521720Y-71837544D02*
X-300521720Y-89274543D01*
X-305581370Y-66777894D02*
X-300521720Y-71837544D01*
X-305581370Y-65197743D02*
X-305581370Y-66777894D01*
X-297067320Y-94309094D02*
X-297067320Y-108095943D01*
X-300521720Y-90854694D02*
X-297067320Y-94309094D01*
X-300521720Y-89274543D02*
X-300521720Y-90854694D01*
X-293612920Y-112561720D02*
X-293612920Y-126891943D01*
X-297067320Y-109107320D02*
X-293612920Y-112561720D01*
X-297067320Y-108095943D02*
X-297067320Y-109107320D01*
X-290153490Y-131931524D02*
X-290153490Y-145717649D01*
X-293612920Y-128472094D02*
X-290153490Y-131931524D01*
X-293612920Y-126891943D02*
X-293612920Y-128472094D01*
X-288136813Y-148299033D02*
X-274612446Y-161823400D01*
X-288136813Y-146070967D02*
X-288136813Y-148299033D01*
X-288490131Y-145717649D02*
X-288136813Y-146070967D01*
X-290153490Y-145717649D02*
X-288490131Y-145717649D01*
%TO.N,Col14*%
X-266718800Y-118846600D02*
X-261892800Y-123672600D01*
X-266718800Y-104673400D02*
X-266718800Y-118846600D01*
X-261892800Y-139978000D02*
X-260608200Y-141262600D01*
X-261892800Y-123672600D02*
X-261892800Y-139978000D01*
%TO.N,Row1*%
X-565810400Y-105638600D02*
X-574217800Y-115062000D01*
X-565975500Y-91250500D02*
X-565810400Y-105638600D01*
X-565975500Y-89788000D02*
X-565975500Y-91250500D01*
X-529869400Y-108839000D02*
X-535203400Y-112318800D01*
X-529887896Y-96335296D02*
X-529869400Y-108839000D01*
X-527202400Y-93345000D02*
X-529887896Y-96335296D01*
X-560185300Y-83997800D02*
X-565975500Y-89788000D01*
X-555777400Y-83997800D02*
X-560185300Y-83997800D01*
X-594420001Y-122995001D02*
X-589788000Y-118363000D01*
X-608838000Y-115784437D02*
X-601627436Y-122995001D01*
X-601627436Y-122995001D02*
X-594420001Y-122995001D01*
X-608838000Y-108838000D02*
X-608838000Y-115784437D01*
%TO.N,Row2*%
X-557555400Y-98780600D02*
X-557580800Y-98806000D01*
X-557555400Y-86537800D02*
X-557555400Y-98780600D01*
X-557555400Y-86537800D02*
X-555548800Y-86537800D01*
%TO.N,Row3*%
X-566191400Y-165772100D02*
X-565975500Y-165988000D01*
X-566191400Y-127812800D02*
X-566191400Y-165772100D01*
X-609984199Y-130502001D02*
X-611886000Y-128600200D01*
X-596343935Y-130502001D02*
X-609984199Y-130502001D01*
X-591933935Y-126092001D02*
X-596343935Y-130502001D01*
X-568788601Y-126092001D02*
X-591933935Y-126092001D01*
X-566191400Y-127812800D02*
X-568788601Y-126092001D01*
%TO.N,Row4*%
X-546581600Y-165988000D02*
X-546862000Y-165988000D01*
X-544525200Y-163931600D02*
X-546581600Y-165988000D01*
X-544525200Y-139319000D02*
X-544525200Y-163931600D01*
X-550697400Y-132842000D02*
X-550697400Y-86537800D01*
%TO.N,Row5*%
X-548157400Y-117398800D02*
X-548157400Y-86537800D01*
%TO.N,Net-(D22-Pad2)*%
X-567537600Y-162687000D02*
X-567486800Y-162737800D01*
X-569899800Y-159816800D02*
X-567537600Y-162687000D01*
%TO.N,Col0*%
X-660727001Y-158573999D02*
X-660273000Y-161798000D01*
X-660727001Y-156464519D02*
X-660727001Y-158573999D01*
X-660247600Y-154127200D02*
X-660727001Y-156464519D01*
X-660273000Y-142748000D02*
X-660247600Y-154127200D01*
%TO.N,Col3*%
X-560222400Y-139952600D02*
X-558887000Y-141288000D01*
X-560222400Y-91084400D02*
X-560222400Y-139952600D01*
%TO.N,Col4*%
X-562660800Y-77064200D02*
X-562660800Y-80289400D01*
X-559434400Y-73837800D02*
X-562660800Y-77064200D01*
X-555777400Y-73837800D02*
X-559434400Y-73837800D01*
%TO.N,Col5*%
X-562762400Y-89290600D02*
X-563346600Y-88706400D01*
X-562762400Y-97053400D02*
X-562762400Y-89290600D01*
X-564112902Y-82817464D02*
X-564349136Y-82817464D01*
X-561933799Y-78877199D02*
X-561933799Y-80638361D01*
X-561933799Y-80638361D02*
X-564112902Y-82817464D01*
X-559434400Y-76377800D02*
X-561933799Y-78877199D01*
X-555777400Y-76377800D02*
X-559434400Y-76377800D01*
%TO.N,Col6*%
X-555193200Y-92541800D02*
X-555955200Y-91779800D01*
X-555193200Y-128320800D02*
X-555193200Y-92541800D01*
X-560755800Y-78917800D02*
X-560959000Y-79121000D01*
X-555777400Y-78917800D02*
X-560755800Y-78917800D01*
%TO.N,Col7*%
X-545617400Y-94107000D02*
X-545719000Y-94208600D01*
X-545617400Y-86537800D02*
X-545617400Y-94107000D01*
%TO.N,Col8*%
X-543077400Y-96672400D02*
X-543102800Y-96697800D01*
X-543077400Y-86537800D02*
X-543077400Y-96672400D01*
%TO.N,Col9*%
X-519785600Y-86487000D02*
X-540537400Y-86537800D01*
X-517880600Y-84937600D02*
X-519785600Y-86487000D01*
%TO.N,Col10*%
X-514705600Y-83997800D02*
X-540537400Y-83997800D01*
X-513054600Y-82245200D02*
X-514705600Y-83997800D01*
%TO.N,Col11*%
X-459867000Y-81457800D02*
X-459663800Y-81661000D01*
X-540537400Y-81457800D02*
X-459867000Y-81457800D01*
%TO.N,Col12*%
X-461213200Y-78917800D02*
X-461187800Y-78892400D01*
X-540537400Y-78917800D02*
X-461213200Y-78917800D01*
%TO.N,Col13*%
X-274599400Y-161848800D02*
X-249954800Y-161823400D01*
X-310465301Y-57677020D02*
X-304693883Y-63448438D01*
X-526455544Y-57677020D02*
X-310465301Y-57677020D01*
X-529331501Y-60552977D02*
X-526455544Y-57677020D01*
X-529331501Y-68828901D02*
X-529331501Y-60552977D01*
X-536880400Y-76377800D02*
X-529331501Y-68828901D01*
X-540537400Y-76377800D02*
X-536880400Y-76377800D01*
%TO.N,Col14*%
X-227419066Y-161823400D02*
X-226158800Y-161823400D01*
X-246519866Y-142722600D02*
X-227419066Y-161823400D01*
X-261918200Y-142722600D02*
X-246519866Y-142722600D01*
X-278961600Y-80110200D02*
X-274908400Y-84163400D01*
X-278961600Y-61785500D02*
X-278961600Y-80110200D01*
X-276218400Y-92403800D02*
X-265408800Y-103213400D01*
X-276218400Y-85623400D02*
X-276218400Y-92403800D01*
X-278754090Y-57223010D02*
X-277651600Y-60325500D01*
X-526643600Y-57223010D02*
X-278754090Y-57223010D01*
X-531012400Y-61591810D02*
X-526643600Y-57223010D01*
X-531012400Y-67969800D02*
X-531012400Y-61591810D01*
X-536880400Y-73837800D02*
X-531012400Y-67969800D01*
X-540537400Y-73837800D02*
X-536880400Y-73837800D01*
%TO.N,Col15*%
X-242842800Y-143154400D02*
X-242893600Y-143205200D01*
X-242842800Y-123672600D02*
X-242842800Y-143154400D01*
X-221383600Y-142798800D02*
X-202359000Y-161823400D01*
X-230955600Y-142798800D02*
X-221383600Y-142798800D01*
X-247643400Y-118872000D02*
X-242842800Y-123672600D01*
X-247643400Y-104673400D02*
X-247643400Y-118872000D01*
X-257168400Y-95148400D02*
X-247643400Y-104673400D01*
X-257168400Y-85623400D02*
X-257168400Y-95148400D01*
X-259911600Y-80110200D02*
X-255858400Y-84163400D01*
X-259911600Y-61785500D02*
X-259911600Y-80110200D01*
X-262158100Y-56769000D02*
X-258601600Y-60325500D01*
X-528548600Y-56769000D02*
X-262158100Y-56769000D01*
X-532663400Y-60883800D02*
X-528548600Y-56769000D01*
X-532663400Y-67080800D02*
X-532663400Y-60883800D01*
X-536880400Y-71297800D02*
X-532663400Y-67080800D01*
X-540537400Y-71297800D02*
X-536880400Y-71297800D01*
%TO.N,Col16*%
X-211626200Y-123983200D02*
X-211911400Y-123698000D01*
X-211626200Y-142900400D02*
X-211626200Y-123983200D01*
X-228593400Y-106838334D02*
X-211911400Y-123520334D01*
X-211911400Y-123520334D02*
X-211911400Y-123698000D01*
X-228593400Y-104673400D02*
X-228593400Y-106838334D01*
X-236808400Y-79041938D02*
X-236808400Y-84163400D01*
X-220165099Y-63123499D02*
X-220889961Y-63123499D01*
X-220889961Y-63123499D02*
X-236808400Y-79041938D01*
X-219043000Y-62001400D02*
X-220165099Y-63123499D01*
X-219043000Y-61785500D02*
X-219043000Y-62001400D01*
X-236629301Y-93867499D02*
X-227283400Y-103213400D01*
X-236629301Y-88204699D02*
X-236629301Y-93867499D01*
X-238118400Y-86715600D02*
X-236629301Y-88204699D01*
X-238118400Y-85623400D02*
X-238118400Y-86715600D01*
X-221772100Y-56286400D02*
X-217733000Y-60325500D01*
X-254371738Y-56286400D02*
X-221772100Y-56286400D01*
X-254400328Y-56257810D02*
X-254371738Y-56286400D01*
X-530196410Y-56257810D02*
X-254400328Y-56257810D01*
X-534238200Y-60299600D02*
X-530196410Y-56257810D01*
X-534238200Y-66115600D02*
X-534238200Y-60299600D01*
X-536880400Y-68757800D02*
X-534238200Y-66115600D01*
X-540537400Y-68757800D02*
X-536880400Y-68757800D01*
%TO.N,Col17*%
X-538759400Y-58597800D02*
X-535965400Y-55803800D01*
X-208233400Y-69516938D02*
X-208233400Y-84138000D01*
X-200501962Y-61785500D02*
X-208233400Y-69516938D01*
X-199993000Y-61785500D02*
X-200501962Y-61785500D01*
X-209543400Y-99898200D02*
X-204768200Y-104673400D01*
X-209543400Y-85598000D02*
X-209543400Y-99898200D01*
X-203204700Y-55803800D02*
X-198683000Y-60325500D01*
X-535940000Y-55778400D02*
X-203204700Y-55803800D01*
X-540537400Y-58597800D02*
X-538759400Y-58597800D01*
%TO.N,Net-(U2-Pad23)*%
X-540537400Y-61137800D02*
X-538759400Y-61137800D01*
%TO.N,Net-(U2-Pad22)*%
X-540537400Y-63677800D02*
X-538759400Y-63677800D01*
%TO.N,Net-(U2-Pad21)*%
X-540537400Y-66217800D02*
X-538759400Y-66217800D01*
%TO.N,Net-(U2-Pad4)*%
X-557555400Y-66217800D02*
X-555777400Y-66217800D01*
%TO.N,Net-(U2-Pad3)*%
X-557555400Y-63677800D02*
X-555777400Y-63677800D01*
%TD*%
M02*
