%TF.GenerationSoftware,KiCad,Pcbnew,(5.1.10)-1*%
%TF.CreationDate,2021-06-20T14:11:50-07:00*%
%TF.ProjectId,HSC_Alice,4853435f-416c-4696-9365-2e6b69636164,rev?*%
%TF.SameCoordinates,Original*%
%TF.FileFunction,Soldermask,Top*%
%TF.FilePolarity,Negative*%
%FSLAX46Y46*%
G04 Gerber Fmt 4.6, Leading zero omitted, Abs format (unit mm)*
G04 Created by KiCad (PCBNEW (5.1.10)-1) date 2021-06-20 14:11:50*
%MOMM*%
%LPD*%
G01*
G04 APERTURE LIST*
%ADD10C,1.750000*%
%ADD11C,3.987800*%
%ADD12C,3.048000*%
%ADD13R,2.000000X3.250000*%
%ADD14R,3.250000X2.000000*%
%ADD15C,1.752600*%
%ADD16R,1.752600X1.752600*%
G04 APERTURE END LIST*
D10*
%TO.C,MX16*%
X-613283000Y-145288000D03*
X-623443000Y-145288000D03*
D11*
X-618363000Y-145288000D03*
%TD*%
D10*
%TO.C,MX54*%
X-388018055Y-186622695D03*
X-397831861Y-183993093D03*
D11*
X-392924958Y-185307894D03*
%TD*%
%TO.C,MX95*%
X-215207600Y-153593800D03*
X-239083600Y-153593800D03*
D12*
X-215207600Y-138353800D03*
X-239083600Y-138353800D03*
D10*
X-222065600Y-145338800D03*
X-232225600Y-145338800D03*
D11*
X-227145600Y-145338800D03*
%TD*%
D10*
%TO.C,MX105*%
X-195878200Y-107213400D03*
X-206038200Y-107213400D03*
D11*
X-200958200Y-107213400D03*
%TD*%
%TO.C,MX48*%
X-418061929Y-187128299D03*
X-441124374Y-180948736D03*
D12*
X-414117526Y-172407590D03*
X-437179971Y-166228026D03*
D10*
X-422549697Y-177379601D03*
X-432363503Y-174749999D03*
D11*
X-427456600Y-176064800D03*
%TD*%
%TO.C,MX29*%
X-513461000Y-153543000D03*
X-537337000Y-153543000D03*
D12*
X-513461000Y-138303000D03*
X-537337000Y-138303000D03*
D10*
X-520319000Y-145288000D03*
X-530479000Y-145288000D03*
D11*
X-525399000Y-145288000D03*
%TD*%
D10*
%TO.C,MX28*%
X-505968000Y-126238000D03*
X-516128000Y-126238000D03*
D11*
X-511048000Y-126238000D03*
%TD*%
D10*
%TO.C,MX6*%
X-651383000Y-164338000D03*
X-661543000Y-164338000D03*
D11*
X-656463000Y-164338000D03*
%TD*%
D13*
%TO.C,U2*%
X-543077400Y-88442800D03*
X-545617400Y-88442800D03*
X-548157400Y-88442800D03*
X-550697400Y-88442800D03*
X-553237400Y-88442800D03*
D14*
X-538759400Y-58597800D03*
X-538759400Y-61137800D03*
X-538759400Y-63677800D03*
X-538759400Y-66217800D03*
X-538759400Y-68757800D03*
X-538759400Y-71297800D03*
X-538759400Y-73837800D03*
X-538759400Y-76377800D03*
X-538759400Y-78917800D03*
X-538759400Y-81457800D03*
X-538759400Y-83997800D03*
X-538759400Y-86537800D03*
X-557555400Y-86537800D03*
X-557555400Y-83997800D03*
X-557555400Y-81457800D03*
X-557555400Y-78917800D03*
X-557555400Y-76377800D03*
X-557555400Y-73837800D03*
X-557555400Y-71297800D03*
X-557555400Y-68757800D03*
X-557555400Y-66217800D03*
X-557555400Y-63677800D03*
X-557555400Y-61137800D03*
X-557555400Y-58597800D03*
D15*
X-553237400Y-86537800D03*
X-550697400Y-86537800D03*
X-548157400Y-86537800D03*
X-545617400Y-86537800D03*
X-543077400Y-86537800D03*
X-540537400Y-58597800D03*
X-555548800Y-86537800D03*
X-540537400Y-61137800D03*
X-540537400Y-63677800D03*
X-540537400Y-66217800D03*
X-540537400Y-68757800D03*
X-540537400Y-71297800D03*
X-540537400Y-73837800D03*
X-540537400Y-76377800D03*
X-540537400Y-78917800D03*
X-540537400Y-81457800D03*
X-540537400Y-83997800D03*
X-540537400Y-86537800D03*
X-555777400Y-83997800D03*
X-555777400Y-81457800D03*
X-555777400Y-78917800D03*
X-555777400Y-76377800D03*
X-555777400Y-73837800D03*
X-555777400Y-71297800D03*
X-555777400Y-68757800D03*
X-555777400Y-66217800D03*
X-555777400Y-63677800D03*
X-555777400Y-61137800D03*
D16*
X-555777400Y-58597800D03*
%TD*%
D11*
%TO.C,MX104*%
X-193795400Y-96393000D03*
X-217671400Y-96393000D03*
D12*
X-193795400Y-81153000D03*
X-217671400Y-81153000D03*
D10*
X-200653400Y-88138000D03*
X-210813400Y-88138000D03*
D11*
X-205733400Y-88138000D03*
%TD*%
D10*
%TO.C,MX103*%
X-191103000Y-64325500D03*
X-201263000Y-64325500D03*
D11*
X-196183000Y-64325500D03*
%TD*%
D10*
%TO.C,MX102*%
X-191103000Y-145288000D03*
X-201263000Y-145288000D03*
D11*
X-196183000Y-145288000D03*
%TD*%
%TO.C,MX101*%
X-196163400Y-134493000D03*
X-220039400Y-134493000D03*
D12*
X-196163400Y-119253000D03*
X-220039400Y-119253000D03*
D10*
X-203021400Y-126238000D03*
X-213181400Y-126238000D03*
D11*
X-208101400Y-126238000D03*
%TD*%
D10*
%TO.C,MX99*%
X-219703400Y-107213400D03*
X-229863400Y-107213400D03*
D11*
X-224783400Y-107213400D03*
%TD*%
D10*
%TO.C,MX98*%
X-229228400Y-88163400D03*
X-239388400Y-88163400D03*
D11*
X-234308400Y-88163400D03*
%TD*%
D10*
%TO.C,MX97*%
X-210153000Y-64325500D03*
X-220313000Y-64325500D03*
D11*
X-215233000Y-64325500D03*
%TD*%
D10*
%TO.C,MX96*%
X-193469000Y-164363400D03*
X-203629000Y-164363400D03*
D11*
X-198549000Y-164363400D03*
%TD*%
D10*
%TO.C,MX94*%
X-233952800Y-126212600D03*
X-244112800Y-126212600D03*
D11*
X-239032800Y-126212600D03*
%TD*%
D10*
%TO.C,MX93*%
X-238753400Y-107213400D03*
X-248913400Y-107213400D03*
D11*
X-243833400Y-107213400D03*
%TD*%
D10*
%TO.C,MX92*%
X-248278400Y-88163400D03*
X-258438400Y-88163400D03*
D11*
X-253358400Y-88163400D03*
%TD*%
D10*
%TO.C,MX91*%
X-251021600Y-64325500D03*
X-261181600Y-64325500D03*
D11*
X-256101600Y-64325500D03*
%TD*%
D10*
%TO.C,MX90*%
X-217268800Y-164363400D03*
X-227428800Y-164363400D03*
D11*
X-222348800Y-164363400D03*
%TD*%
D10*
%TO.C,MX89*%
X-253028200Y-145262600D03*
X-263188200Y-145262600D03*
D11*
X-258108200Y-145262600D03*
%TD*%
D10*
%TO.C,MX88*%
X-253002800Y-126212600D03*
X-263162800Y-126212600D03*
D11*
X-258082800Y-126212600D03*
%TD*%
D10*
%TO.C,MX87*%
X-257828800Y-107213400D03*
X-267988800Y-107213400D03*
D11*
X-262908800Y-107213400D03*
%TD*%
D10*
%TO.C,MX86*%
X-267328400Y-88163400D03*
X-277488400Y-88163400D03*
D11*
X-272408400Y-88163400D03*
%TD*%
D10*
%TO.C,MX85*%
X-270071600Y-64325500D03*
X-280231600Y-64325500D03*
D11*
X-275151600Y-64325500D03*
%TD*%
D10*
%TO.C,MX84*%
X-241064800Y-164363400D03*
X-251224800Y-164363400D03*
D11*
X-246144800Y-164363400D03*
%TD*%
D10*
%TO.C,MX83*%
X-280909009Y-145870199D03*
X-290722815Y-148499801D03*
D11*
X-285815912Y-147185000D03*
%TD*%
D10*
%TO.C,MX82*%
X-284368439Y-127044493D03*
X-294182245Y-129674095D03*
D11*
X-289275342Y-128359294D03*
%TD*%
D10*
%TO.C,MX81*%
X-287822839Y-108248493D03*
X-297636645Y-110878095D03*
D11*
X-292729742Y-109563294D03*
%TD*%
D10*
%TO.C,MX80*%
X-291277239Y-89427093D03*
X-301091045Y-92056695D03*
D11*
X-296184142Y-90741894D03*
%TD*%
D10*
%TO.C,MX79*%
X-296336889Y-65350293D03*
X-306150695Y-67979895D03*
D11*
X-301243792Y-66665094D03*
%TD*%
D10*
%TO.C,MX78*%
X-296670124Y-169799194D03*
X-306483930Y-172428796D03*
D11*
X-301577027Y-171113995D03*
%TD*%
D10*
%TO.C,MX77*%
X-299309895Y-150800701D03*
X-309123701Y-153430303D03*
D11*
X-304216798Y-152115502D03*
%TD*%
D10*
%TO.C,MX76*%
X-302769325Y-131974995D03*
X-312583131Y-134604597D03*
D11*
X-307676228Y-133289796D03*
%TD*%
D10*
%TO.C,MX75*%
X-306223725Y-113178995D03*
X-316037531Y-115808597D03*
D11*
X-311130628Y-114493796D03*
%TD*%
D10*
%TO.C,MX74*%
X-309678125Y-94357595D03*
X-319491931Y-96987197D03*
D11*
X-314585028Y-95672396D03*
%TD*%
D10*
%TO.C,MX73*%
X-314737775Y-70280795D03*
X-324551581Y-72910397D03*
D11*
X-319644678Y-71595596D03*
%TD*%
%TO.C,MX72*%
X-324711026Y-185858936D03*
X-347773471Y-192038499D03*
D12*
X-328655429Y-171138226D03*
X-351717874Y-177317790D03*
D10*
X-333471897Y-179660199D03*
X-343285703Y-182289801D03*
D11*
X-338378800Y-180975000D03*
%TD*%
D10*
%TO.C,MX71*%
X-317710781Y-155731203D03*
X-327524587Y-158360805D03*
D11*
X-322617684Y-157046004D03*
%TD*%
D10*
%TO.C,MX70*%
X-321170211Y-136905497D03*
X-330984017Y-139535099D03*
D11*
X-326077114Y-138220298D03*
%TD*%
D10*
%TO.C,MX69*%
X-324624611Y-118109497D03*
X-334438417Y-120739099D03*
D11*
X-329531514Y-119424298D03*
%TD*%
D10*
%TO.C,MX68*%
X-328079011Y-99288097D03*
X-337892817Y-101917699D03*
D11*
X-332985914Y-100602898D03*
%TD*%
D10*
%TO.C,MX67*%
X-333138661Y-75211297D03*
X-342952467Y-77840899D03*
D11*
X-338045564Y-76526098D03*
%TD*%
D10*
%TO.C,MX66*%
X-354512553Y-165592207D03*
X-364326359Y-168221809D03*
D11*
X-359419456Y-166907008D03*
%TD*%
D10*
%TO.C,MX65*%
X-336111667Y-160661705D03*
X-345925473Y-163291307D03*
D11*
X-341018570Y-161976506D03*
%TD*%
%TO.C,MX64*%
X-344478000Y-143150800D03*
D10*
X-349384903Y-144465601D03*
X-339571097Y-141835999D03*
%TD*%
D11*
%TO.C,MX63*%
X-347932400Y-124354800D03*
D10*
X-352839303Y-125669601D03*
X-343025497Y-123039999D03*
%TD*%
%TO.C,MX62*%
X-346479897Y-104218599D03*
X-356293703Y-106848201D03*
D11*
X-351386800Y-105533400D03*
%TD*%
D10*
%TO.C,MX61*%
X-351539547Y-80141799D03*
X-361353353Y-82771401D03*
D11*
X-356446450Y-81456600D03*
%TD*%
D10*
%TO.C,MX60*%
X-383087553Y-168221809D03*
X-392901359Y-165592207D03*
D11*
X-387994456Y-166907008D03*
%TD*%
D10*
%TO.C,MX59*%
X-401488439Y-163291307D03*
X-411302245Y-160661705D03*
D11*
X-406395342Y-161976506D03*
%TD*%
D10*
%TO.C,MX58*%
X-398059439Y-144495307D03*
X-407873245Y-141865705D03*
D11*
X-402966342Y-143180506D03*
%TD*%
D10*
%TO.C,MX57*%
X-394871202Y-125572307D03*
X-404685008Y-122942705D03*
D11*
X-399778105Y-124257506D03*
%TD*%
D10*
%TO.C,MX56*%
X-391563205Y-106759304D03*
X-401377011Y-104129702D03*
D11*
X-396470108Y-105444503D03*
%TD*%
D10*
%TO.C,MX55*%
X-386864205Y-82756804D03*
X-396678011Y-80127202D03*
D11*
X-391771108Y-81442003D03*
%TD*%
D10*
%TO.C,MX53*%
X-419889325Y-158360805D03*
X-429703131Y-155731203D03*
D11*
X-424796228Y-157046004D03*
%TD*%
D10*
%TO.C,MX52*%
X-416460325Y-139564805D03*
X-426274131Y-136935203D03*
D11*
X-421367228Y-138250004D03*
%TD*%
D10*
%TO.C,MX51*%
X-413272088Y-120641805D03*
X-423085894Y-118012203D03*
D11*
X-418178991Y-119327004D03*
%TD*%
D10*
%TO.C,MX50*%
X-409964091Y-101828802D03*
X-419777897Y-99199200D03*
D11*
X-414870994Y-100514001D03*
%TD*%
D10*
%TO.C,MX49*%
X-405265091Y-77826302D03*
X-415078897Y-75196700D03*
D11*
X-410171994Y-76511501D03*
%TD*%
%TO.C,MX47*%
X-443197114Y-152115502D03*
D10*
X-448104017Y-150800701D03*
X-438290211Y-153430303D03*
%TD*%
D11*
%TO.C,MX46*%
X-439768114Y-133319502D03*
D10*
X-444675017Y-132004701D03*
X-434861211Y-134634303D03*
%TD*%
D11*
%TO.C,MX45*%
X-436579877Y-114396502D03*
D10*
X-441486780Y-113081701D03*
X-431672974Y-115711303D03*
%TD*%
%TO.C,MX44*%
X-428364977Y-96898300D03*
X-438178783Y-94268698D03*
D11*
X-433271880Y-95583499D03*
%TD*%
D10*
%TO.C,MX43*%
X-423665977Y-72895800D03*
X-433479783Y-70266198D03*
D11*
X-428572880Y-71580999D03*
%TD*%
D10*
%TO.C,MX42*%
X-459379697Y-167499001D03*
X-469193503Y-164869399D03*
D11*
X-464286600Y-166184200D03*
%TD*%
D10*
%TO.C,MX41*%
X-456691097Y-148499801D03*
X-466504903Y-145870199D03*
D11*
X-461598000Y-147185000D03*
%TD*%
D10*
%TO.C,MX40*%
X-453262097Y-129703801D03*
X-463075903Y-127074199D03*
D11*
X-458169000Y-128389000D03*
%TD*%
D10*
%TO.C,MX39*%
X-450073860Y-110780801D03*
X-459887666Y-108151199D03*
D11*
X-454980763Y-109466000D03*
%TD*%
D10*
%TO.C,MX38*%
X-446765863Y-91967798D03*
X-456579669Y-89338196D03*
D11*
X-451672766Y-90652997D03*
%TD*%
D10*
%TO.C,MX37*%
X-442066863Y-67965298D03*
X-451880669Y-65335696D03*
D11*
X-446973766Y-66650497D03*
%TD*%
D10*
%TO.C,MX36*%
X-487045000Y-164338000D03*
X-497205000Y-164338000D03*
D11*
X-492125000Y-164338000D03*
%TD*%
D10*
%TO.C,MX35*%
X-489331000Y-145288000D03*
X-499491000Y-145288000D03*
D11*
X-494411000Y-145288000D03*
%TD*%
D10*
%TO.C,MX34*%
X-484568500Y-126238000D03*
X-494728500Y-126238000D03*
D11*
X-489648500Y-126238000D03*
%TD*%
D10*
%TO.C,MX33*%
X-479806000Y-107188000D03*
X-489966000Y-107188000D03*
D11*
X-484886000Y-107188000D03*
%TD*%
D10*
%TO.C,MX32*%
X-475043500Y-88138000D03*
X-485203500Y-88138000D03*
D11*
X-480123500Y-88138000D03*
%TD*%
D10*
%TO.C,MX31*%
X-470344500Y-64325500D03*
X-480504500Y-64325500D03*
D11*
X-475424500Y-64325500D03*
%TD*%
D10*
%TO.C,MX30*%
X-510794000Y-164338000D03*
X-520954000Y-164338000D03*
D11*
X-515874000Y-164338000D03*
%TD*%
D10*
%TO.C,MX28*%
X-510794000Y-126238000D03*
X-520954000Y-126238000D03*
D11*
X-515874000Y-126238000D03*
%TD*%
D10*
%TO.C,MX27*%
X-503682000Y-107188000D03*
X-513842000Y-107188000D03*
D11*
X-508762000Y-107188000D03*
%TD*%
D10*
%TO.C,MX26*%
X-494157000Y-88138000D03*
X-504317000Y-88138000D03*
D11*
X-499237000Y-88138000D03*
%TD*%
D10*
%TO.C,MX25*%
X-489394500Y-64325500D03*
X-499554500Y-64325500D03*
D11*
X-494474500Y-64325500D03*
%TD*%
D10*
%TO.C,MX24*%
X-532257000Y-164338000D03*
X-542417000Y-164338000D03*
D11*
X-537337000Y-164338000D03*
%TD*%
D10*
%TO.C,MX23*%
X-551307000Y-164338000D03*
X-561467000Y-164338000D03*
D11*
X-556387000Y-164338000D03*
%TD*%
D10*
%TO.C,MX22*%
X-570420500Y-164338000D03*
X-580580500Y-164338000D03*
D11*
X-575500500Y-164338000D03*
%TD*%
D10*
%TO.C,MX21*%
X-551307000Y-145288000D03*
X-561467000Y-145288000D03*
D11*
X-556387000Y-145288000D03*
%TD*%
D10*
%TO.C,MX20*%
X-570420500Y-88138000D03*
X-580580500Y-88138000D03*
D11*
X-575500500Y-88138000D03*
%TD*%
D10*
%TO.C,MX19*%
X-517969500Y-64325500D03*
X-528129500Y-64325500D03*
D11*
X-523049500Y-64325500D03*
%TD*%
%TO.C,MX18*%
X-591058000Y-142875000D03*
X-591058000Y-166751000D03*
D12*
X-606298000Y-142875000D03*
X-606298000Y-166751000D03*
D10*
X-599313000Y-149733000D03*
X-599313000Y-159893000D03*
D11*
X-599313000Y-154813000D03*
%TD*%
D10*
%TO.C,MX17*%
X-613283000Y-164338000D03*
X-623443000Y-164338000D03*
D11*
X-618363000Y-164338000D03*
%TD*%
D10*
%TO.C,MX15*%
X-613283000Y-126238000D03*
X-623443000Y-126238000D03*
D11*
X-618363000Y-126238000D03*
%TD*%
%TO.C,MX14*%
X-591058000Y-104775000D03*
X-591058000Y-128651000D03*
D12*
X-606298000Y-104775000D03*
X-606298000Y-128651000D03*
D10*
X-599313000Y-111633000D03*
X-599313000Y-121793000D03*
D11*
X-599313000Y-116713000D03*
%TD*%
D10*
%TO.C,MX13*%
X-594233000Y-88138000D03*
X-604393000Y-88138000D03*
D11*
X-599313000Y-88138000D03*
%TD*%
D10*
%TO.C,MX12*%
X-632333000Y-164338000D03*
X-642493000Y-164338000D03*
D11*
X-637413000Y-164338000D03*
%TD*%
D10*
%TO.C,MX11*%
X-632333000Y-145288000D03*
X-642493000Y-145288000D03*
D11*
X-637413000Y-145288000D03*
%TD*%
D10*
%TO.C,MX10*%
X-632333000Y-126238000D03*
X-642493000Y-126238000D03*
D11*
X-637413000Y-126238000D03*
%TD*%
D10*
%TO.C,MX9*%
X-632333000Y-107188000D03*
X-642493000Y-107188000D03*
D11*
X-637413000Y-107188000D03*
%TD*%
D10*
%TO.C,MX8*%
X-613283000Y-107188000D03*
X-623443000Y-107188000D03*
D11*
X-618363000Y-107188000D03*
%TD*%
D10*
%TO.C,MX7*%
X-613283000Y-88138000D03*
X-623443000Y-88138000D03*
D11*
X-618363000Y-88138000D03*
%TD*%
%TO.C,MX6*%
X-635000000Y-172593000D03*
X-658876000Y-172593000D03*
D12*
X-635000000Y-157353000D03*
X-658876000Y-157353000D03*
D10*
X-641858000Y-164338000D03*
X-652018000Y-164338000D03*
D11*
X-646938000Y-164338000D03*
%TD*%
D10*
%TO.C,MX5*%
X-651383000Y-145288000D03*
X-661543000Y-145288000D03*
D11*
X-656463000Y-145288000D03*
%TD*%
D10*
%TO.C,MX4*%
X-651383000Y-126238000D03*
X-661543000Y-126238000D03*
D11*
X-656463000Y-126238000D03*
%TD*%
D10*
%TO.C,MX3*%
X-651383000Y-107188000D03*
X-661543000Y-107188000D03*
D11*
X-656463000Y-107188000D03*
%TD*%
D10*
%TO.C,MX2*%
X-651383000Y-88138000D03*
X-661543000Y-88138000D03*
D11*
X-656463000Y-88138000D03*
%TD*%
D10*
%TO.C,MX1*%
X-632333000Y-88138000D03*
X-642493000Y-88138000D03*
D11*
X-637413000Y-88138000D03*
%TD*%
M02*
