M48
; DRILL file {KiCad (5.1.10)-1} date 06/20/21 11:49:40
; FORMAT={-:-/ absolute / inch / decimal}
; #@! TF.CreationDate,2021-06-20T11:49:40-07:00
; #@! TF.GenerationSoftware,Kicad,Pcbnew,(5.1.10)-1
; #@! TF.FileFunction,NonPlated,1,2,NPTH
FMAT,2
INCH
T1C0.0689
T2C0.1200
T3C0.1570
%
G90
G05
T1
X-26.045Y-3.47
X-26.045Y-4.22
X-26.045Y-4.97
X-26.045Y-5.72
X-26.045Y-6.47
X-25.67Y-6.47
X-25.645Y-3.47
X-25.645Y-4.22
X-25.645Y-4.97
X-25.645Y-5.72
X-25.645Y-6.47
X-25.295Y-3.47
X-25.295Y-4.22
X-25.295Y-4.97
X-25.295Y-5.72
X-25.295Y-6.47
X-25.27Y-6.47
X-24.895Y-3.47
X-24.895Y-4.22
X-24.895Y-4.97
X-24.895Y-5.72
X-24.895Y-6.47
X-24.545Y-3.47
X-24.545Y-4.22
X-24.545Y-4.97
X-24.545Y-5.72
X-24.545Y-6.47
X-24.145Y-3.47
X-24.145Y-4.22
X-24.145Y-4.97
X-24.145Y-5.72
X-24.145Y-6.47
X-23.795Y-3.47
X-23.595Y-4.395
X-23.595Y-4.795
X-23.595Y-5.895
X-23.595Y-6.295
X-23.395Y-3.47
X-22.8575Y-3.47
X-22.8575Y-6.47
X-22.4575Y-3.47
X-22.4575Y-6.47
X-22.105Y-5.72
X-22.105Y-6.47
X-21.705Y-5.72
X-21.705Y-6.47
X-21.355Y-6.47
X-20.955Y-6.47
X-20.885Y-5.72
X-20.7925Y-2.5325
X-20.51Y-4.97
X-20.51Y-6.47
X-20.485Y-5.72
X-20.3925Y-2.5325
X-20.32Y-4.97
X-20.23Y-4.22
X-20.11Y-4.97
X-20.11Y-6.47
X-19.92Y-4.97
X-19.855Y-3.47
X-19.83Y-4.22
X-19.6675Y-2.5325
X-19.665Y-5.72
X-19.575Y-6.47
X-19.4775Y-4.97
X-19.455Y-3.47
X-19.29Y-4.22
X-19.2675Y-2.5325
X-19.265Y-5.72
X-19.175Y-6.47
X-19.1025Y-3.47
X-19.0775Y-4.97
X-18.9175Y-2.5325
X-18.89Y-4.22
X-18.7025Y-3.47
X-18.5175Y-2.5325
X-18.4722Y-6.4909
X-18.3663Y-5.7429
X-18.2313Y-5.0029
X-18.1058Y-4.2579
X-18.0858Y-6.5944
X-17.98Y-5.8464
X-17.9756Y-3.5173
X-17.845Y-5.1064
X-17.7906Y-2.5723
X-17.7194Y-4.3614
X-17.6419Y-5.937
X-17.5892Y-3.6208
X-17.5069Y-5.197
X-17.4042Y-2.6758
X-17.3814Y-4.452
X-17.2555Y-6.0406
X-17.2511Y-3.7114
X-17.1205Y-5.3006
X-17.0661Y-2.7664
X-17.0222Y-6.8799
X-16.995Y-4.5556
X-16.9174Y-6.1311
X-16.8648Y-3.8149
X-16.7824Y-5.3911
X-16.6798Y-2.8699
X-16.6569Y-4.6461
X-16.6358Y-6.9834
X-16.5311Y-6.2347
X-16.5267Y-3.9055
X-16.3961Y-5.4947
X-16.3417Y-2.9605
X-16.2706Y-4.7497
X-16.193Y-6.3253
X-16.1403Y-4.009
X-16.058Y-5.5853
X-15.9553Y-3.064
X-15.9325Y-4.8403
X-15.8066Y-6.4288
X-15.8022Y-4.0996
X-15.6716Y-5.6888
X-15.6627Y-7.2438
X-15.6172Y-3.1546
X-15.5461Y-4.9438
X-15.4686Y-6.5194
X-15.4159Y-4.2031
X-15.2763Y-7.3474
X-15.2309Y-3.2581
X-15.0822Y-6.6229
X-14.3436Y-6.6229
X-14.2265Y-3.2587
X-14.0273Y-4.2066
X-13.9572Y-6.5194
X-13.8913Y-4.9476
X-13.8401Y-3.1552
X-13.7553Y-5.6876
X-13.6409Y-4.1031
X-13.6191Y-6.4288
X-13.5152Y-7.1768
X-13.5049Y-4.8441
X-13.5021Y-3.0646
X-13.3689Y-5.5841
X-13.3029Y-4.0125
X-13.2327Y-6.3253
X-13.1669Y-4.7535
X-13.1288Y-7.0732
X-13.1157Y-2.9611
X-13.0309Y-5.4935
X-12.9165Y-3.909
X-12.8947Y-6.2347
X-12.7805Y-4.65
X-12.7776Y-2.8705
X-12.6445Y-5.39
X-12.5784Y-3.8184
X-12.5083Y-6.1311
X-12.4424Y-4.5594
X-12.3913Y-2.767
X-12.3064Y-5.2994
X-12.1921Y-3.7149
X-12.1702Y-6.0406
X-12.0663Y-6.7885
X-12.0561Y-4.4559
X-12.0532Y-2.6764
X-11.9201Y-5.1959
X-11.854Y-3.6243
X-11.7839Y-5.937
X-11.718Y-4.3653
X-11.6799Y-6.685
X-11.6668Y-2.5728
X-11.582Y-5.1053
X-11.4676Y-3.5208
X-11.4458Y-5.8464
X-11.3316Y-4.2618
X-11.1956Y-5.0018
X-11.0594Y-5.7429
X-11.0327Y-2.5325
X-10.9247Y-3.471
X-10.6327Y-2.5325
X-10.5507Y-4.221
X-10.5247Y-3.471
X-10.3617Y-5.719
X-10.3607Y-4.969
X-10.2827Y-2.5325
X-10.1747Y-3.471
X-10.1507Y-4.221
X-9.9617Y-5.719
X-9.9607Y-4.969
X-9.8907Y-6.471
X-9.8827Y-2.5325
X-9.7997Y-4.221
X-9.7747Y-3.471
X-9.6107Y-4.969
X-9.4907Y-6.471
X-9.4247Y-3.471
X-9.3997Y-4.221
X-9.2107Y-4.969
X-9.1427Y-5.722
X-9.0497Y-4.221
X-9.0247Y-3.471
X-8.9539Y-6.471
X-8.7427Y-5.722
X-8.6737Y-2.5325
X-8.6497Y-4.221
X-8.5539Y-6.471
X-8.393Y-4.97
X-8.2997Y-3.47
X-8.2737Y-2.5325
X-8.1117Y-4.221
X-8.0169Y-6.471
X-7.993Y-4.97
X-7.9237Y-2.5325
X-7.9237Y-5.72
X-7.8997Y-3.47
X-7.7117Y-4.221
X-7.6169Y-6.471
X-7.5237Y-2.5325
X-7.5237Y-5.72
T2
X-25.94Y-6.195
X-25.0Y-6.195
X-23.87Y-4.125
X-23.87Y-5.065
X-23.87Y-5.625
X-23.87Y-6.565
X-21.155Y-5.445
X-20.215Y-5.445
X-17.2118Y-6.5444
X-16.3038Y-6.7877
X-13.8472Y-6.981
X-12.9392Y-6.7377
X-9.4127Y-5.447
X-8.663Y-4.695
X-8.5697Y-3.195
X-8.4727Y-5.447
X-7.723Y-4.695
X-7.6297Y-3.195
T3
X-25.94Y-6.795
X-25.845Y-3.47
X-25.845Y-4.22
X-25.845Y-4.97
X-25.845Y-5.72
X-25.845Y-6.47
X-25.47Y-6.47
X-25.095Y-3.47
X-25.095Y-4.22
X-25.095Y-4.97
X-25.095Y-5.72
X-25.095Y-6.47
X-25.0Y-6.795
X-24.345Y-3.47
X-24.345Y-4.22
X-24.345Y-4.97
X-24.345Y-5.72
X-24.345Y-6.47
X-23.595Y-3.47
X-23.595Y-4.595
X-23.595Y-6.095
X-23.27Y-4.125
X-23.27Y-5.065
X-23.27Y-5.625
X-23.27Y-6.565
X-22.6575Y-3.47
X-22.6575Y-6.47
X-21.905Y-5.72
X-21.905Y-6.47
X-21.155Y-6.045
X-21.155Y-6.47
X-20.685Y-5.72
X-20.5925Y-2.5325
X-20.31Y-4.97
X-20.31Y-6.47
X-20.215Y-6.045
X-20.12Y-4.97
X-20.03Y-4.22
X-19.655Y-3.47
X-19.4675Y-2.5325
X-19.465Y-5.72
X-19.375Y-6.47
X-19.2775Y-4.97
X-19.09Y-4.22
X-18.9025Y-3.47
X-18.7175Y-2.5325
X-18.279Y-6.5427
X-18.1731Y-5.7947
X-18.0381Y-5.0547
X-17.9126Y-4.3097
X-17.7824Y-3.569
X-17.5974Y-2.624
X-17.4487Y-5.9888
X-17.3671Y-7.124
X-17.3137Y-5.2488
X-17.1882Y-4.5038
X-17.0579Y-3.7631
X-16.8729Y-2.8181
X-16.829Y-6.9317
X-16.7243Y-6.1829
X-16.5893Y-5.4429
X-16.4637Y-4.6979
X-16.4591Y-7.3673
X-16.3335Y-3.9572
X-16.1485Y-3.0123
X-15.9998Y-6.377
X-15.8648Y-5.637
X-15.7393Y-4.892
X-15.6091Y-4.1514
X-15.4695Y-7.2956
X-15.4241Y-3.2064
X-15.2754Y-6.5711
X-14.1504Y-6.5711
X-14.0333Y-3.207
X-13.8341Y-4.1549
X-13.6981Y-4.8959
X-13.6919Y-7.5606
X-13.5621Y-5.6359
X-13.4259Y-6.377
X-13.322Y-7.125
X-13.3089Y-3.0128
X-13.1097Y-3.9607
X-12.9737Y-4.7017
X-12.8377Y-5.4417
X-12.7839Y-7.3173
X-12.7015Y-6.1829
X-12.5844Y-2.8187
X-12.3852Y-3.7666
X-12.2492Y-4.5076
X-12.1132Y-5.2476
X-11.977Y-5.9888
X-11.8731Y-6.7368
X-11.86Y-2.6246
X-11.6608Y-3.5725
X-11.5248Y-4.3135
X-11.3888Y-5.0535
X-11.2526Y-5.7947
X-10.8327Y-2.5325
X-10.7247Y-3.471
X-10.3507Y-4.221
X-10.1617Y-5.719
X-10.1607Y-4.969
X-10.0827Y-2.5325
X-9.9747Y-3.471
X-9.6907Y-6.471
X-9.5997Y-4.221
X-9.4127Y-6.047
X-9.4107Y-4.969
X-9.2247Y-3.471
X-8.9427Y-5.722
X-8.8497Y-4.221
X-8.7539Y-6.471
X-8.663Y-5.295
X-8.5697Y-3.795
X-8.4737Y-2.5325
X-8.4727Y-6.047
X-8.193Y-4.97
X-8.0997Y-3.47
X-7.9117Y-4.221
X-7.8169Y-6.471
X-7.7237Y-2.5325
X-7.7237Y-5.72
X-7.723Y-5.295
X-7.6297Y-3.795
T0
M30
