%TF.GenerationSoftware,KiCad,Pcbnew,(5.1.10)-1*%
%TF.CreationDate,2021-06-30T08:48:38-07:00*%
%TF.ProjectId,HSC_Alice,4853435f-416c-4696-9365-2e6b69636164,rev?*%
%TF.SameCoordinates,Original*%
%TF.FileFunction,Legend,Top*%
%TF.FilePolarity,Positive*%
%FSLAX46Y46*%
G04 Gerber Fmt 4.6, Leading zero omitted, Abs format (unit mm)*
G04 Created by KiCad (PCBNEW (5.1.10)-1) date 2021-06-30 08:48:38*
%MOMM*%
%LPD*%
G01*
G04 APERTURE LIST*
%ADD10C,0.381000*%
%ADD11C,0.150000*%
G04 APERTURE END LIST*
D10*
%TO.C,U2*%
X-541807400Y-57327800D02*
X-539267400Y-57327800D01*
X-557047400Y-54787800D02*
X-539267400Y-54787800D01*
X-539267400Y-54787800D02*
X-539267400Y-87807800D01*
X-539267400Y-87807800D02*
X-557047400Y-87807800D01*
X-557047400Y-87807800D02*
X-557047400Y-54787800D01*
D11*
G36*
X-554002035Y-63216830D02*
G01*
X-554002035Y-63316830D01*
X-554502035Y-63316830D01*
X-554502035Y-63216830D01*
X-554002035Y-63216830D01*
G37*
X-554002035Y-63216830D02*
X-554002035Y-63316830D01*
X-554502035Y-63316830D01*
X-554502035Y-63216830D01*
X-554002035Y-63216830D01*
G36*
X-554002035Y-63216830D02*
G01*
X-554002035Y-63516830D01*
X-554102035Y-63516830D01*
X-554102035Y-63216830D01*
X-554002035Y-63216830D01*
G37*
X-554002035Y-63216830D02*
X-554002035Y-63516830D01*
X-554102035Y-63516830D01*
X-554102035Y-63216830D01*
X-554002035Y-63216830D01*
G36*
X-554002035Y-63816830D02*
G01*
X-554002035Y-64016830D01*
X-554102035Y-64016830D01*
X-554102035Y-63816830D01*
X-554002035Y-63816830D01*
G37*
X-554002035Y-63816830D02*
X-554002035Y-64016830D01*
X-554102035Y-64016830D01*
X-554102035Y-63816830D01*
X-554002035Y-63816830D01*
G36*
X-554402035Y-63216830D02*
G01*
X-554402035Y-64016830D01*
X-554502035Y-64016830D01*
X-554502035Y-63216830D01*
X-554402035Y-63216830D01*
G37*
X-554402035Y-63216830D02*
X-554402035Y-64016830D01*
X-554502035Y-64016830D01*
X-554502035Y-63216830D01*
X-554402035Y-63216830D01*
G36*
X-554202035Y-63616830D02*
G01*
X-554202035Y-63716830D01*
X-554302035Y-63716830D01*
X-554302035Y-63616830D01*
X-554202035Y-63616830D01*
G37*
X-554202035Y-63616830D02*
X-554202035Y-63716830D01*
X-554302035Y-63716830D01*
X-554302035Y-63616830D01*
X-554202035Y-63616830D01*
D10*
X-541807400Y-57327800D02*
X-541807400Y-59867800D01*
X-541807400Y-59867800D02*
X-539267400Y-59867800D01*
D11*
X-543286876Y-61499704D02*
X-543286876Y-60699704D01*
X-543096400Y-60699704D01*
X-542982114Y-60737800D01*
X-542905923Y-60813990D01*
X-542867828Y-60890180D01*
X-542829733Y-61042561D01*
X-542829733Y-61156847D01*
X-542867828Y-61309228D01*
X-542905923Y-61385419D01*
X-542982114Y-61461609D01*
X-543096400Y-61499704D01*
X-543286876Y-61499704D01*
X-542524971Y-60775895D02*
X-542486876Y-60737800D01*
X-542410685Y-60699704D01*
X-542220209Y-60699704D01*
X-542144019Y-60737800D01*
X-542105923Y-60775895D01*
X-542067828Y-60852085D01*
X-542067828Y-60928276D01*
X-542105923Y-61042561D01*
X-542563066Y-61499704D01*
X-542067828Y-61499704D01*
X-543286876Y-71659704D02*
X-543286876Y-70859704D01*
X-543096400Y-70859704D01*
X-542982114Y-70897800D01*
X-542905923Y-70973990D01*
X-542867828Y-71050180D01*
X-542829733Y-71202561D01*
X-542829733Y-71316847D01*
X-542867828Y-71469228D01*
X-542905923Y-71545419D01*
X-542982114Y-71621609D01*
X-543096400Y-71659704D01*
X-543286876Y-71659704D01*
X-542334495Y-70859704D02*
X-542258304Y-70859704D01*
X-542182114Y-70897800D01*
X-542144019Y-70935895D01*
X-542105923Y-71012085D01*
X-542067828Y-71164466D01*
X-542067828Y-71354942D01*
X-542105923Y-71507323D01*
X-542144019Y-71583514D01*
X-542182114Y-71621609D01*
X-542258304Y-71659704D01*
X-542334495Y-71659704D01*
X-542410685Y-71621609D01*
X-542448780Y-71583514D01*
X-542486876Y-71507323D01*
X-542524971Y-71354942D01*
X-542524971Y-71164466D01*
X-542486876Y-71012085D01*
X-542448780Y-70935895D01*
X-542410685Y-70897800D01*
X-542334495Y-70859704D01*
X-543286876Y-69119704D02*
X-543286876Y-68319704D01*
X-543096400Y-68319704D01*
X-542982114Y-68357800D01*
X-542905923Y-68433990D01*
X-542867828Y-68510180D01*
X-542829733Y-68662561D01*
X-542829733Y-68776847D01*
X-542867828Y-68929228D01*
X-542905923Y-69005419D01*
X-542982114Y-69081609D01*
X-543096400Y-69119704D01*
X-543286876Y-69119704D01*
X-542067828Y-69119704D02*
X-542524971Y-69119704D01*
X-542296400Y-69119704D02*
X-542296400Y-68319704D01*
X-542372590Y-68433990D01*
X-542448780Y-68510180D01*
X-542524971Y-68548276D01*
X-543305923Y-65817800D02*
X-543382114Y-65779704D01*
X-543496400Y-65779704D01*
X-543610685Y-65817800D01*
X-543686876Y-65893990D01*
X-543724971Y-65970180D01*
X-543763066Y-66122561D01*
X-543763066Y-66236847D01*
X-543724971Y-66389228D01*
X-543686876Y-66465419D01*
X-543610685Y-66541609D01*
X-543496400Y-66579704D01*
X-543420209Y-66579704D01*
X-543305923Y-66541609D01*
X-543267828Y-66503514D01*
X-543267828Y-66236847D01*
X-543420209Y-66236847D01*
X-542924971Y-66579704D02*
X-542924971Y-65779704D01*
X-542467828Y-66579704D01*
X-542467828Y-65779704D01*
X-542086876Y-66579704D02*
X-542086876Y-65779704D01*
X-541896400Y-65779704D01*
X-541782114Y-65817800D01*
X-541705923Y-65893990D01*
X-541667828Y-65970180D01*
X-541629733Y-66122561D01*
X-541629733Y-66236847D01*
X-541667828Y-66389228D01*
X-541705923Y-66465419D01*
X-541782114Y-66541609D01*
X-541896400Y-66579704D01*
X-542086876Y-66579704D01*
X-543305923Y-63277800D02*
X-543382114Y-63239704D01*
X-543496400Y-63239704D01*
X-543610685Y-63277800D01*
X-543686876Y-63353990D01*
X-543724971Y-63430180D01*
X-543763066Y-63582561D01*
X-543763066Y-63696847D01*
X-543724971Y-63849228D01*
X-543686876Y-63925419D01*
X-543610685Y-64001609D01*
X-543496400Y-64039704D01*
X-543420209Y-64039704D01*
X-543305923Y-64001609D01*
X-543267828Y-63963514D01*
X-543267828Y-63696847D01*
X-543420209Y-63696847D01*
X-542924971Y-64039704D02*
X-542924971Y-63239704D01*
X-542467828Y-64039704D01*
X-542467828Y-63239704D01*
X-542086876Y-64039704D02*
X-542086876Y-63239704D01*
X-541896400Y-63239704D01*
X-541782114Y-63277800D01*
X-541705923Y-63353990D01*
X-541667828Y-63430180D01*
X-541629733Y-63582561D01*
X-541629733Y-63696847D01*
X-541667828Y-63849228D01*
X-541705923Y-63925419D01*
X-541782114Y-64001609D01*
X-541896400Y-64039704D01*
X-542086876Y-64039704D01*
X-543286876Y-74199704D02*
X-543286876Y-73399704D01*
X-543096400Y-73399704D01*
X-542982114Y-73437800D01*
X-542905923Y-73513990D01*
X-542867828Y-73590180D01*
X-542829733Y-73742561D01*
X-542829733Y-73856847D01*
X-542867828Y-74009228D01*
X-542905923Y-74085419D01*
X-542982114Y-74161609D01*
X-543096400Y-74199704D01*
X-543286876Y-74199704D01*
X-542144019Y-73666371D02*
X-542144019Y-74199704D01*
X-542334495Y-73361609D02*
X-542524971Y-73933038D01*
X-542029733Y-73933038D01*
X-542829733Y-76663514D02*
X-542867828Y-76701609D01*
X-542982114Y-76739704D01*
X-543058304Y-76739704D01*
X-543172590Y-76701609D01*
X-543248780Y-76625419D01*
X-543286876Y-76549228D01*
X-543324971Y-76396847D01*
X-543324971Y-76282561D01*
X-543286876Y-76130180D01*
X-543248780Y-76053990D01*
X-543172590Y-75977800D01*
X-543058304Y-75939704D01*
X-542982114Y-75939704D01*
X-542867828Y-75977800D01*
X-542829733Y-76015895D01*
X-542144019Y-75939704D02*
X-542296400Y-75939704D01*
X-542372590Y-75977800D01*
X-542410685Y-76015895D01*
X-542486876Y-76130180D01*
X-542524971Y-76282561D01*
X-542524971Y-76587323D01*
X-542486876Y-76663514D01*
X-542448780Y-76701609D01*
X-542372590Y-76739704D01*
X-542220209Y-76739704D01*
X-542144019Y-76701609D01*
X-542105923Y-76663514D01*
X-542067828Y-76587323D01*
X-542067828Y-76396847D01*
X-542105923Y-76320657D01*
X-542144019Y-76282561D01*
X-542220209Y-76244466D01*
X-542372590Y-76244466D01*
X-542448780Y-76282561D01*
X-542486876Y-76320657D01*
X-542524971Y-76396847D01*
X-543286876Y-79279704D02*
X-543286876Y-78479704D01*
X-543096400Y-78479704D01*
X-542982114Y-78517800D01*
X-542905923Y-78593990D01*
X-542867828Y-78670180D01*
X-542829733Y-78822561D01*
X-542829733Y-78936847D01*
X-542867828Y-79089228D01*
X-542905923Y-79165419D01*
X-542982114Y-79241609D01*
X-543096400Y-79279704D01*
X-543286876Y-79279704D01*
X-542563066Y-78479704D02*
X-542029733Y-78479704D01*
X-542372590Y-79279704D01*
X-543248780Y-81400657D02*
X-542982114Y-81400657D01*
X-542867828Y-81819704D02*
X-543248780Y-81819704D01*
X-543248780Y-81019704D01*
X-542867828Y-81019704D01*
X-542182114Y-81019704D02*
X-542334495Y-81019704D01*
X-542410685Y-81057800D01*
X-542448780Y-81095895D01*
X-542524971Y-81210180D01*
X-542563066Y-81362561D01*
X-542563066Y-81667323D01*
X-542524971Y-81743514D01*
X-542486876Y-81781609D01*
X-542410685Y-81819704D01*
X-542258304Y-81819704D01*
X-542182114Y-81781609D01*
X-542144019Y-81743514D01*
X-542105923Y-81667323D01*
X-542105923Y-81476847D01*
X-542144019Y-81400657D01*
X-542182114Y-81362561D01*
X-542258304Y-81324466D01*
X-542410685Y-81324466D01*
X-542486876Y-81362561D01*
X-542524971Y-81400657D01*
X-542563066Y-81476847D01*
X-543020209Y-83940657D02*
X-542905923Y-83978752D01*
X-542867828Y-84016847D01*
X-542829733Y-84093038D01*
X-542829733Y-84207323D01*
X-542867828Y-84283514D01*
X-542905923Y-84321609D01*
X-542982114Y-84359704D01*
X-543286876Y-84359704D01*
X-543286876Y-83559704D01*
X-543020209Y-83559704D01*
X-542944019Y-83597800D01*
X-542905923Y-83635895D01*
X-542867828Y-83712085D01*
X-542867828Y-83788276D01*
X-542905923Y-83864466D01*
X-542944019Y-83902561D01*
X-543020209Y-83940657D01*
X-543286876Y-83940657D01*
X-542144019Y-83826371D02*
X-542144019Y-84359704D01*
X-542334495Y-83521609D02*
X-542524971Y-84093038D01*
X-542029733Y-84093038D01*
X-541993102Y-85432791D02*
X-541898821Y-85385651D01*
X-541851680Y-85385651D01*
X-541780970Y-85409221D01*
X-541710259Y-85479932D01*
X-541686689Y-85550642D01*
X-541686689Y-85597783D01*
X-541710259Y-85668493D01*
X-541898821Y-85857055D01*
X-542393796Y-85362080D01*
X-542228804Y-85197089D01*
X-542158093Y-85173519D01*
X-542110953Y-85173519D01*
X-542040242Y-85197089D01*
X-541993102Y-85244229D01*
X-541969532Y-85314940D01*
X-541969532Y-85362080D01*
X-541993102Y-85432791D01*
X-542158093Y-85597783D01*
X-541663119Y-84631403D02*
X-541898821Y-84867106D01*
X-541686689Y-85126378D01*
X-541686689Y-85079238D01*
X-541663119Y-85008527D01*
X-541545267Y-84890676D01*
X-541474557Y-84867106D01*
X-541427416Y-84867106D01*
X-541356706Y-84890676D01*
X-541238855Y-85008527D01*
X-541215284Y-85079238D01*
X-541215284Y-85126378D01*
X-541238855Y-85197089D01*
X-541356706Y-85314940D01*
X-541427416Y-85338510D01*
X-541474557Y-85338510D01*
X-553942209Y-81400657D02*
X-553827923Y-81438752D01*
X-553789828Y-81476847D01*
X-553751733Y-81553038D01*
X-553751733Y-81667323D01*
X-553789828Y-81743514D01*
X-553827923Y-81781609D01*
X-553904114Y-81819704D01*
X-554208876Y-81819704D01*
X-554208876Y-81019704D01*
X-553942209Y-81019704D01*
X-553866019Y-81057800D01*
X-553827923Y-81095895D01*
X-553789828Y-81172085D01*
X-553789828Y-81248276D01*
X-553827923Y-81324466D01*
X-553866019Y-81362561D01*
X-553942209Y-81400657D01*
X-554208876Y-81400657D01*
X-553485066Y-81019704D02*
X-552989828Y-81019704D01*
X-553256495Y-81324466D01*
X-553142209Y-81324466D01*
X-553066019Y-81362561D01*
X-553027923Y-81400657D01*
X-552989828Y-81476847D01*
X-552989828Y-81667323D01*
X-553027923Y-81743514D01*
X-553066019Y-81781609D01*
X-553142209Y-81819704D01*
X-553370780Y-81819704D01*
X-553446971Y-81781609D01*
X-553485066Y-81743514D01*
X-553942209Y-78860657D02*
X-553827923Y-78898752D01*
X-553789828Y-78936847D01*
X-553751733Y-79013038D01*
X-553751733Y-79127323D01*
X-553789828Y-79203514D01*
X-553827923Y-79241609D01*
X-553904114Y-79279704D01*
X-554208876Y-79279704D01*
X-554208876Y-78479704D01*
X-553942209Y-78479704D01*
X-553866019Y-78517800D01*
X-553827923Y-78555895D01*
X-553789828Y-78632085D01*
X-553789828Y-78708276D01*
X-553827923Y-78784466D01*
X-553866019Y-78822561D01*
X-553942209Y-78860657D01*
X-554208876Y-78860657D01*
X-552989828Y-79279704D02*
X-553446971Y-79279704D01*
X-553218400Y-79279704D02*
X-553218400Y-78479704D01*
X-553294590Y-78593990D01*
X-553370780Y-78670180D01*
X-553446971Y-78708276D01*
X-553885066Y-68700657D02*
X-554151733Y-68700657D01*
X-554151733Y-69119704D02*
X-554151733Y-68319704D01*
X-553770780Y-68319704D01*
X-553123161Y-68586371D02*
X-553123161Y-69119704D01*
X-553313638Y-68281609D02*
X-553504114Y-68853038D01*
X-553008876Y-68853038D01*
X-554685066Y-65779704D02*
X-554418400Y-66579704D01*
X-554151733Y-65779704D01*
X-553427923Y-66503514D02*
X-553466019Y-66541609D01*
X-553580304Y-66579704D01*
X-553656495Y-66579704D01*
X-553770780Y-66541609D01*
X-553846971Y-66465419D01*
X-553885066Y-66389228D01*
X-553923161Y-66236847D01*
X-553923161Y-66122561D01*
X-553885066Y-65970180D01*
X-553846971Y-65893990D01*
X-553770780Y-65817800D01*
X-553656495Y-65779704D01*
X-553580304Y-65779704D01*
X-553466019Y-65817800D01*
X-553427923Y-65855895D01*
X-552627923Y-66503514D02*
X-552666019Y-66541609D01*
X-552780304Y-66579704D01*
X-552856495Y-66579704D01*
X-552970780Y-66541609D01*
X-553046971Y-66465419D01*
X-553085066Y-66389228D01*
X-553123161Y-66236847D01*
X-553123161Y-66122561D01*
X-553085066Y-65970180D01*
X-553046971Y-65893990D01*
X-552970780Y-65817800D01*
X-552856495Y-65779704D01*
X-552780304Y-65779704D01*
X-552666019Y-65817800D01*
X-552627923Y-65855895D01*
X-554227923Y-60737800D02*
X-554304114Y-60699704D01*
X-554418400Y-60699704D01*
X-554532685Y-60737800D01*
X-554608876Y-60813990D01*
X-554646971Y-60890180D01*
X-554685066Y-61042561D01*
X-554685066Y-61156847D01*
X-554646971Y-61309228D01*
X-554608876Y-61385419D01*
X-554532685Y-61461609D01*
X-554418400Y-61499704D01*
X-554342209Y-61499704D01*
X-554227923Y-61461609D01*
X-554189828Y-61423514D01*
X-554189828Y-61156847D01*
X-554342209Y-61156847D01*
X-553846971Y-61499704D02*
X-553846971Y-60699704D01*
X-553389828Y-61499704D01*
X-553389828Y-60699704D01*
X-553008876Y-61499704D02*
X-553008876Y-60699704D01*
X-552818400Y-60699704D01*
X-552704114Y-60737800D01*
X-552627923Y-60813990D01*
X-552589828Y-60890180D01*
X-552551733Y-61042561D01*
X-552551733Y-61156847D01*
X-552589828Y-61309228D01*
X-552627923Y-61385419D01*
X-552704114Y-61461609D01*
X-552818400Y-61499704D01*
X-553008876Y-61499704D01*
X-553942209Y-58540657D02*
X-553827923Y-58578752D01*
X-553789828Y-58616847D01*
X-553751733Y-58693038D01*
X-553751733Y-58807323D01*
X-553789828Y-58883514D01*
X-553827923Y-58921609D01*
X-553904114Y-58959704D01*
X-554208876Y-58959704D01*
X-554208876Y-58159704D01*
X-553942209Y-58159704D01*
X-553866019Y-58197800D01*
X-553827923Y-58235895D01*
X-553789828Y-58312085D01*
X-553789828Y-58388276D01*
X-553827923Y-58464466D01*
X-553866019Y-58502561D01*
X-553942209Y-58540657D01*
X-554208876Y-58540657D01*
X-553256495Y-58159704D02*
X-553180304Y-58159704D01*
X-553104114Y-58197800D01*
X-553066019Y-58235895D01*
X-553027923Y-58312085D01*
X-552989828Y-58464466D01*
X-552989828Y-58654942D01*
X-553027923Y-58807323D01*
X-553066019Y-58883514D01*
X-553104114Y-58921609D01*
X-553180304Y-58959704D01*
X-553256495Y-58959704D01*
X-553332685Y-58921609D01*
X-553370780Y-58883514D01*
X-553408876Y-58807323D01*
X-553446971Y-58654942D01*
X-553446971Y-58464466D01*
X-553408876Y-58312085D01*
X-553370780Y-58235895D01*
X-553332685Y-58197800D01*
X-553256495Y-58159704D01*
X-553885066Y-71240657D02*
X-554151733Y-71240657D01*
X-554151733Y-71659704D02*
X-554151733Y-70859704D01*
X-553770780Y-70859704D01*
X-553085066Y-70859704D02*
X-553466019Y-70859704D01*
X-553504114Y-71240657D01*
X-553466019Y-71202561D01*
X-553389828Y-71164466D01*
X-553199352Y-71164466D01*
X-553123161Y-71202561D01*
X-553085066Y-71240657D01*
X-553046971Y-71316847D01*
X-553046971Y-71507323D01*
X-553085066Y-71583514D01*
X-553123161Y-71621609D01*
X-553199352Y-71659704D01*
X-553389828Y-71659704D01*
X-553466019Y-71621609D01*
X-553504114Y-71583514D01*
X-553885066Y-73780657D02*
X-554151733Y-73780657D01*
X-554151733Y-74199704D02*
X-554151733Y-73399704D01*
X-553770780Y-73399704D01*
X-553123161Y-73399704D02*
X-553275542Y-73399704D01*
X-553351733Y-73437800D01*
X-553389828Y-73475895D01*
X-553466019Y-73590180D01*
X-553504114Y-73742561D01*
X-553504114Y-74047323D01*
X-553466019Y-74123514D01*
X-553427923Y-74161609D01*
X-553351733Y-74199704D01*
X-553199352Y-74199704D01*
X-553123161Y-74161609D01*
X-553085066Y-74123514D01*
X-553046971Y-74047323D01*
X-553046971Y-73856847D01*
X-553085066Y-73780657D01*
X-553123161Y-73742561D01*
X-553199352Y-73704466D01*
X-553351733Y-73704466D01*
X-553427923Y-73742561D01*
X-553466019Y-73780657D01*
X-553504114Y-73856847D01*
X-553885066Y-76320657D02*
X-554151733Y-76320657D01*
X-554151733Y-76739704D02*
X-554151733Y-75939704D01*
X-553770780Y-75939704D01*
X-553542209Y-75939704D02*
X-553008876Y-75939704D01*
X-553351733Y-76739704D01*
X-553942209Y-83940657D02*
X-553827923Y-83978752D01*
X-553789828Y-84016847D01*
X-553751733Y-84093038D01*
X-553751733Y-84207323D01*
X-553789828Y-84283514D01*
X-553827923Y-84321609D01*
X-553904114Y-84359704D01*
X-554208876Y-84359704D01*
X-554208876Y-83559704D01*
X-553942209Y-83559704D01*
X-553866019Y-83597800D01*
X-553827923Y-83635895D01*
X-553789828Y-83712085D01*
X-553789828Y-83788276D01*
X-553827923Y-83864466D01*
X-553866019Y-83902561D01*
X-553942209Y-83940657D01*
X-554208876Y-83940657D01*
X-553446971Y-83635895D02*
X-553408876Y-83597800D01*
X-553332685Y-83559704D01*
X-553142209Y-83559704D01*
X-553066019Y-83597800D01*
X-553027923Y-83635895D01*
X-552989828Y-83712085D01*
X-552989828Y-83788276D01*
X-553027923Y-83902561D01*
X-553485066Y-84359704D01*
X-552989828Y-84359704D01*
X-546776004Y-58159704D02*
X-546318861Y-58159704D01*
X-546547432Y-58959704D02*
X-546547432Y-58159704D01*
X-546128385Y-58159704D02*
X-545595051Y-58959704D01*
X-545595051Y-58159704D02*
X-546128385Y-58959704D01*
X-545137908Y-58159704D02*
X-545061718Y-58159704D01*
X-544985528Y-58197800D01*
X-544947432Y-58235895D01*
X-544909337Y-58312085D01*
X-544871242Y-58464466D01*
X-544871242Y-58654942D01*
X-544909337Y-58807323D01*
X-544947432Y-58883514D01*
X-544985528Y-58921609D01*
X-545061718Y-58959704D01*
X-545137908Y-58959704D01*
X-545214099Y-58921609D01*
X-545252194Y-58883514D01*
X-545290289Y-58807323D01*
X-545328385Y-58654942D01*
X-545328385Y-58464466D01*
X-545290289Y-58312085D01*
X-545252194Y-58235895D01*
X-545214099Y-58197800D01*
X-545137908Y-58159704D01*
X-543956956Y-58121609D02*
X-544642670Y-59150180D01*
X-543690289Y-58959704D02*
X-543690289Y-58159704D01*
X-543499813Y-58159704D01*
X-543385528Y-58197800D01*
X-543309337Y-58273990D01*
X-543271242Y-58350180D01*
X-543233147Y-58502561D01*
X-543233147Y-58616847D01*
X-543271242Y-58769228D01*
X-543309337Y-58845419D01*
X-543385528Y-58921609D01*
X-543499813Y-58959704D01*
X-543690289Y-58959704D01*
X-542966480Y-58159704D02*
X-542471242Y-58159704D01*
X-542737908Y-58464466D01*
X-542623623Y-58464466D01*
X-542547432Y-58502561D01*
X-542509337Y-58540657D01*
X-542471242Y-58616847D01*
X-542471242Y-58807323D01*
X-542509337Y-58883514D01*
X-542547432Y-58921609D01*
X-542623623Y-58959704D01*
X-542852194Y-58959704D01*
X-542928385Y-58921609D01*
X-542966480Y-58883514D01*
X-553730733Y-63981609D02*
X-553616447Y-64019704D01*
X-553425971Y-64019704D01*
X-553349780Y-63981609D01*
X-553311685Y-63943514D01*
X-553273590Y-63867323D01*
X-553273590Y-63791133D01*
X-553311685Y-63714942D01*
X-553349780Y-63676847D01*
X-553425971Y-63638752D01*
X-553578352Y-63600657D01*
X-553654542Y-63562561D01*
X-553692638Y-63524466D01*
X-553730733Y-63448276D01*
X-553730733Y-63372085D01*
X-553692638Y-63295895D01*
X-553654542Y-63257800D01*
X-553578352Y-63219704D01*
X-553387876Y-63219704D01*
X-553273590Y-63257800D01*
X-553045019Y-63219704D02*
X-552587876Y-63219704D01*
X-552816447Y-64019704D02*
X-552816447Y-63219704D01*
X-543940733Y-85117800D02*
X-543840733Y-85151133D01*
X-543807400Y-85184466D01*
X-543774066Y-85251133D01*
X-543774066Y-85351133D01*
X-543807400Y-85417800D01*
X-543840733Y-85451133D01*
X-543907400Y-85484466D01*
X-544174066Y-85484466D01*
X-544174066Y-84784466D01*
X-543940733Y-84784466D01*
X-543874066Y-84817800D01*
X-543840733Y-84851133D01*
X-543807400Y-84917800D01*
X-543807400Y-84984466D01*
X-543840733Y-85051133D01*
X-543874066Y-85084466D01*
X-543940733Y-85117800D01*
X-544174066Y-85117800D01*
X-543540733Y-84784466D02*
X-543074066Y-84784466D01*
X-543374066Y-85484466D01*
X-552890733Y-85117800D02*
X-553124066Y-85117800D01*
X-553124066Y-85484466D02*
X-553124066Y-84784466D01*
X-552790733Y-84784466D01*
X-552390733Y-84784466D02*
X-552324066Y-84784466D01*
X-552257400Y-84817800D01*
X-552224066Y-84851133D01*
X-552190733Y-84917800D01*
X-552157400Y-85051133D01*
X-552157400Y-85217800D01*
X-552190733Y-85351133D01*
X-552224066Y-85417800D01*
X-552257400Y-85451133D01*
X-552324066Y-85484466D01*
X-552390733Y-85484466D01*
X-552457400Y-85451133D01*
X-552490733Y-85417800D01*
X-552524066Y-85351133D01*
X-552557400Y-85217800D01*
X-552557400Y-85051133D01*
X-552524066Y-84917800D01*
X-552490733Y-84851133D01*
X-552457400Y-84817800D01*
X-552390733Y-84784466D01*
X-554392408Y-85503502D02*
X-554439548Y-85409221D01*
X-554439548Y-85362080D01*
X-554415978Y-85291370D01*
X-554345267Y-85220659D01*
X-554274557Y-85197089D01*
X-554227416Y-85197089D01*
X-554156706Y-85220659D01*
X-553968144Y-85409221D01*
X-554463119Y-85904196D01*
X-554628110Y-85739204D01*
X-554651680Y-85668493D01*
X-554651680Y-85621353D01*
X-554628110Y-85550642D01*
X-554580970Y-85503502D01*
X-554510259Y-85479932D01*
X-554463119Y-85479932D01*
X-554392408Y-85503502D01*
X-554227416Y-85668493D01*
X-555170225Y-85197089D02*
X-555075944Y-85291370D01*
X-555005234Y-85314940D01*
X-554958093Y-85314940D01*
X-554840242Y-85291370D01*
X-554722391Y-85220659D01*
X-554533829Y-85032097D01*
X-554510259Y-84961387D01*
X-554510259Y-84914246D01*
X-554533829Y-84843535D01*
X-554628110Y-84749255D01*
X-554698821Y-84725684D01*
X-554745961Y-84725684D01*
X-554816672Y-84749255D01*
X-554934523Y-84867106D01*
X-554958093Y-84937816D01*
X-554958093Y-84984957D01*
X-554934523Y-85055667D01*
X-554840242Y-85149948D01*
X-554769532Y-85173519D01*
X-554722391Y-85173519D01*
X-554651680Y-85149948D01*
X-548290733Y-85253514D02*
X-548328828Y-85291609D01*
X-548443114Y-85329704D01*
X-548519304Y-85329704D01*
X-548633590Y-85291609D01*
X-548709780Y-85215419D01*
X-548747876Y-85139228D01*
X-548785971Y-84986847D01*
X-548785971Y-84872561D01*
X-548747876Y-84720180D01*
X-548709780Y-84643990D01*
X-548633590Y-84567800D01*
X-548519304Y-84529704D01*
X-548443114Y-84529704D01*
X-548328828Y-84567800D01*
X-548290733Y-84605895D01*
X-548024066Y-84529704D02*
X-547490733Y-84529704D01*
X-547833590Y-85329704D01*
X-550964066Y-84910657D02*
X-551230733Y-84910657D01*
X-551230733Y-85329704D02*
X-551230733Y-84529704D01*
X-550849780Y-84529704D01*
X-550125971Y-85329704D02*
X-550583114Y-85329704D01*
X-550354542Y-85329704D02*
X-550354542Y-84529704D01*
X-550430733Y-84643990D01*
X-550506923Y-84720180D01*
X-550583114Y-84758276D01*
X-546207876Y-85329704D02*
X-546207876Y-84529704D01*
X-546017400Y-84529704D01*
X-545903114Y-84567800D01*
X-545826923Y-84643990D01*
X-545788828Y-84720180D01*
X-545750733Y-84872561D01*
X-545750733Y-84986847D01*
X-545788828Y-85139228D01*
X-545826923Y-85215419D01*
X-545903114Y-85291609D01*
X-546017400Y-85329704D01*
X-546207876Y-85329704D01*
X-545026923Y-84529704D02*
X-545407876Y-84529704D01*
X-545445971Y-84910657D01*
X-545407876Y-84872561D01*
X-545331685Y-84834466D01*
X-545141209Y-84834466D01*
X-545065019Y-84872561D01*
X-545026923Y-84910657D01*
X-544988828Y-84986847D01*
X-544988828Y-85177323D01*
X-545026923Y-85253514D01*
X-545065019Y-85291609D01*
X-545141209Y-85329704D01*
X-545331685Y-85329704D01*
X-545407876Y-85291609D01*
X-545445971Y-85253514D01*
%TD*%
M02*
