  0
SECTION
  2
HEADER
  9
$ANGBASE
  50
0.0
  9
$ANGDIR
  70
1
  9
$MEASUREMENT
  70
0
  0
ENDSEC
  0
SECTION
  2
TABLES
  0
TABLE
  2
LTYPE
  70
4
  0
LTYPE
  5
40F
  2
CONTINUOUS
  70
0
  3
Solid line
  72
65
  73
0
  40
0.0
  0
LTYPE
  5
410
  2
DASHDOT
 70
0
  3
Dash Dot ____ _ ____ _
 72
65
 73
4
 40
2.0
 49
1.25
 49
-0.25
 49
0.25
 49
-0.25
  0
LTYPE
  5
411
  2
DASHED
 70
0
  3
Dashed __ __ __ __ __
 72
65
 73
2
 40
0.75
 49
0.5
 49
-0.25
  0
LTYPE
  5
43B
  2
DOTTED
 70
0
  3
Dotted .  .  .  .
 72
65
 73
2
 40
0.2
 49
0.0
 49
-0.2
  0
ENDTAB
  0
TABLE
  2
STYLE
  70
4
  0
STYLE
  2
KICAD
  70
0
  40
0
  41
1
  42
1
  50
0
  71
0
  3
isocp.shx
  0
STYLE
  2
KICADB
  70
0
  40
0
  41
1
  42
1
  50
0
  71
0
  3
isocp.shx
  0
STYLE
  2
KICADI
  70
0
  40
0
  41
1
  42
1
  50
15
  71
0
  3
isocp.shx
  0
STYLE
  2
KICADBI
  70
0
  40
0
  41
1
  42
1
  50
15
  71
0
  3
isocp.shx
  0
ENDTAB
  0
TABLE
  2
LAYER
  70
1
  0
LAYER
  2
BLACK
  70
0
  62
7
  6
CONTINUOUS
  0
ENDTAB
  0
ENDSEC
  0
SECTION
  2
ENTITIES
0
LINE
8
BLACK
6
CONTINUOUS
10
-14.2207
20
-7.8329
11
-14.2208
21
-7.83292
0
LINE
8
BLACK
6
CONTINUOUS
10
-14.2208
20
-7.83292
11
-14.2209
21
-7.83293
0
LINE
8
BLACK
6
CONTINUOUS
10
-14.2209
20
-7.83293
11
-14.2209
21
-7.83294
0
LINE
8
BLACK
6
CONTINUOUS
10
-14.2209
20
-7.83294
11
-14.221
21
-7.83294
0
LINE
8
BLACK
6
CONTINUOUS
10
-14.221
20
-7.83294
11
-15.205
21
-7.83294
0
LINE
8
BLACK
6
CONTINUOUS
10
-15.205
20
-7.83294
11
-15.2051
21
-7.83294
0
LINE
8
BLACK
6
CONTINUOUS
10
-15.2051
20
-7.83294
11
-15.2051
21
-7.83293
0
LINE
8
BLACK
6
CONTINUOUS
10
-15.2051
20
-7.83293
11
-15.2052
21
-7.83292
0
LINE
8
BLACK
6
CONTINUOUS
10
-15.2052
20
-7.83292
11
-15.2053
21
-7.8329
0
LINE
8
BLACK
6
CONTINUOUS
10
-15.2053
20
-7.8329
11
-18.7491
21
-6.88398
0
LINE
8
BLACK
6
CONTINUOUS
10
-18.7491
20
-6.88398
11
-26.083
21
-6.88419
0
LINE
8
BLACK
6
CONTINUOUS
10
-26.083
20
-6.88419
11
-26.0831
21
-6.88418
0
LINE
8
BLACK
6
CONTINUOUS
10
-26.0831
20
-6.88418
11
-26.0831
21
-6.88418
0
LINE
8
BLACK
6
CONTINUOUS
10
-26.0831
20
-6.88418
11
-26.1099
21
-6.88156
0
LINE
8
BLACK
6
CONTINUOUS
10
-26.1099
20
-6.88156
11
-26.1099
21
-6.88155
0
LINE
8
BLACK
6
CONTINUOUS
10
-26.1099
20
-6.88155
11
-26.11
21
-6.88154
0
LINE
8
BLACK
6
CONTINUOUS
10
-26.11
20
-6.88154
11
-26.1101
21
-6.88152
0
LINE
8
BLACK
6
CONTINUOUS
10
-26.1101
20
-6.88152
11
-26.1359
21
-6.87373
0
LINE
8
BLACK
6
CONTINUOUS
10
-26.1359
20
-6.87373
11
-26.1359
21
-6.87373
0
LINE
8
BLACK
6
CONTINUOUS
10
-26.1359
20
-6.87373
11
-26.136
21
-6.8737
0
LINE
8
BLACK
6
CONTINUOUS
10
-26.136
20
-6.8737
11
-26.136
21
-6.87366
0
LINE
8
BLACK
6
CONTINUOUS
10
-26.136
20
-6.87366
11
-26.1598
21
-6.86102
0
LINE
8
BLACK
6
CONTINUOUS
10
-26.1598
20
-6.86102
11
-26.1598
21
-6.86101
0
LINE
8
BLACK
6
CONTINUOUS
10
-26.1598
20
-6.86101
11
-26.1599
21
-6.86096
0
LINE
8
BLACK
6
CONTINUOUS
10
-26.1599
20
-6.86096
11
-26.16
21
-6.86091
0
LINE
8
BLACK
6
CONTINUOUS
10
-26.16
20
-6.86091
11
-26.1809
21
-6.84389
0
LINE
8
BLACK
6
CONTINUOUS
10
-26.1809
20
-6.84389
11
-26.1809
21
-6.84388
0
LINE
8
BLACK
6
CONTINUOUS
10
-26.1809
20
-6.84388
11
-26.1809
21
-6.84382
0
LINE
8
BLACK
6
CONTINUOUS
10
-26.1809
20
-6.84382
11
-26.181
21
-6.84375
0
LINE
8
BLACK
6
CONTINUOUS
10
-26.181
20
-6.84375
11
-26.1982
21
-6.823
0
LINE
8
BLACK
6
CONTINUOUS
10
-26.1982
20
-6.823
11
-26.1982
21
-6.82299
0
LINE
8
BLACK
6
CONTINUOUS
10
-26.1982
20
-6.82299
11
-26.1982
21
-6.82292
0
LINE
8
BLACK
6
CONTINUOUS
10
-26.1982
20
-6.82292
11
-26.1983
21
-6.82284
0
LINE
8
BLACK
6
CONTINUOUS
10
-26.1983
20
-6.82284
11
-26.2111
21
-6.79915
0
LINE
8
BLACK
6
CONTINUOUS
10
-26.2111
20
-6.79915
11
-26.2111
21
-6.79914
0
LINE
8
BLACK
6
CONTINUOUS
10
-26.2111
20
-6.79914
11
-26.2111
21
-6.79905
0
LINE
8
BLACK
6
CONTINUOUS
10
-26.2111
20
-6.79905
11
-26.2112
21
-6.79897
0
LINE
8
BLACK
6
CONTINUOUS
10
-26.2112
20
-6.79897
11
-26.2191
21
-6.77324
0
LINE
8
BLACK
6
CONTINUOUS
10
-26.2191
20
-6.77324
11
-26.2191
21
-6.77323
0
LINE
8
BLACK
6
CONTINUOUS
10
-26.2191
20
-6.77323
11
-26.2191
21
-6.77314
0
LINE
8
BLACK
6
CONTINUOUS
10
-26.2191
20
-6.77314
11
-26.2192
21
-6.77306
0
LINE
8
BLACK
6
CONTINUOUS
10
-26.2192
20
-6.77306
11
-26.222
21
-6.74627
0
LINE
8
BLACK
6
CONTINUOUS
10
-26.222
20
-6.74627
11
-26.222
21
-6.74626
0
LINE
8
BLACK
6
CONTINUOUS
10
-26.222
20
-6.74626
11
-26.222
21
-6.74621
0
LINE
8
BLACK
6
CONTINUOUS
10
-26.222
20
-6.74621
11
-26.222
21
-6.74617
0
LINE
8
BLACK
6
CONTINUOUS
10
-26.222
20
-6.74617
11
-26.222
21
-6.74505
0
LINE
8
BLACK
6
CONTINUOUS
10
-26.222
20
-6.74505
11
-26.222
21
-6.74505
0
LINE
8
BLACK
6
CONTINUOUS
10
-26.222
20
-6.74505
11
-26.222
21
-2.29454
0
LINE
8
BLACK
6
CONTINUOUS
10
-26.222
20
-2.29454
11
-26.222
21
-2.29449
0
LINE
8
BLACK
6
CONTINUOUS
10
-26.222
20
-2.29449
11
-26.222
21
-2.29449
0
LINE
8
BLACK
6
CONTINUOUS
10
-26.222
20
-2.29449
11
-26.2193
21
-2.26773
0
LINE
8
BLACK
6
CONTINUOUS
10
-26.2193
20
-2.26773
11
-26.2193
21
-2.26772
0
LINE
8
BLACK
6
CONTINUOUS
10
-26.2193
20
-2.26772
11
-26.2193
21
-2.26763
0
LINE
8
BLACK
6
CONTINUOUS
10
-26.2193
20
-2.26763
11
-26.2193
21
-2.26754
0
LINE
8
BLACK
6
CONTINUOUS
10
-26.2193
20
-2.26754
11
-26.2115
21
-2.24181
0
LINE
8
BLACK
6
CONTINUOUS
10
-26.2115
20
-2.24181
11
-26.2115
21
-2.2418
0
LINE
8
BLACK
6
CONTINUOUS
10
-26.2115
20
-2.2418
11
-26.2114
21
-2.24171
0
LINE
8
BLACK
6
CONTINUOUS
10
-26.2114
20
-2.24171
11
-26.2114
21
-2.24163
0
LINE
8
BLACK
6
CONTINUOUS
10
-26.2114
20
-2.24163
11
-26.1987
21
-2.21791
0
LINE
8
BLACK
6
CONTINUOUS
10
-26.1987
20
-2.21791
11
-26.1987
21
-2.21789
0
LINE
8
BLACK
6
CONTINUOUS
10
-26.1987
20
-2.21789
11
-26.1987
21
-2.21782
0
LINE
8
BLACK
6
CONTINUOUS
10
-26.1987
20
-2.21782
11
-26.1986
21
-2.21775
0
LINE
8
BLACK
6
CONTINUOUS
10
-26.1986
20
-2.21775
11
-26.1816
21
-2.19693
0
LINE
8
BLACK
6
CONTINUOUS
10
-26.1816
20
-2.19693
11
-26.1816
21
-2.19693
0
LINE
8
BLACK
6
CONTINUOUS
10
-26.1816
20
-2.19693
11
-26.1816
21
-2.19693
0
LINE
8
BLACK
6
CONTINUOUS
10
-26.1816
20
-2.19693
11
-26.1816
21
-2.19692
0
LINE
8
BLACK
6
CONTINUOUS
10
-26.1816
20
-2.19692
11
-26.1815
21
-2.19686
0
LINE
8
BLACK
6
CONTINUOUS
10
-26.1815
20
-2.19686
11
-26.1815
21
-2.1968
0
LINE
8
BLACK
6
CONTINUOUS
10
-26.1815
20
-2.1968
11
-26.1607
21
-2.17968
0
LINE
8
BLACK
6
CONTINUOUS
10
-26.1607
20
-2.17968
11
-26.1607
21
-2.17968
0
LINE
8
BLACK
6
CONTINUOUS
10
-26.1607
20
-2.17968
11
-26.1607
21
-2.17968
0
LINE
8
BLACK
6
CONTINUOUS
10
-26.1607
20
-2.17968
11
-26.1607
21
-2.17968
0
LINE
8
BLACK
6
CONTINUOUS
10
-26.1607
20
-2.17968
11
-26.1606
21
-2.17963
0
LINE
8
BLACK
6
CONTINUOUS
10
-26.1606
20
-2.17963
11
-26.1606
21
-2.17958
0
LINE
8
BLACK
6
CONTINUOUS
10
-26.1606
20
-2.17958
11
-26.1369
21
-2.16682
0
LINE
8
BLACK
6
CONTINUOUS
10
-26.1369
20
-2.16682
11
-26.1369
21
-2.16681
0
LINE
8
BLACK
6
CONTINUOUS
10
-26.1369
20
-2.16681
11
-26.1368
21
-2.16678
0
LINE
8
BLACK
6
CONTINUOUS
10
-26.1368
20
-2.16678
11
-26.1367
21
-2.16675
0
LINE
8
BLACK
6
CONTINUOUS
10
-26.1367
20
-2.16675
11
-26.111
21
-2.15883
0
LINE
8
BLACK
6
CONTINUOUS
10
-26.111
20
-2.15883
11
-26.111
21
-2.15883
0
LINE
8
BLACK
6
CONTINUOUS
10
-26.111
20
-2.15883
11
-26.1109
21
-2.15881
0
LINE
8
BLACK
6
CONTINUOUS
10
-26.1109
20
-2.15881
11
-26.1108
21
-2.15879
0
LINE
8
BLACK
6
CONTINUOUS
10
-26.1108
20
-2.15879
11
-26.0841
21
-2.15602
0
LINE
8
BLACK
6
CONTINUOUS
10
-26.0841
20
-2.15602
11
-26.084
21
-2.15602
0
LINE
8
BLACK
6
CONTINUOUS
10
-26.084
20
-2.15602
11
-26.084
21
-2.15602
0
LINE
8
BLACK
6
CONTINUOUS
10
-26.084
20
-2.15602
11
-26.084
21
-2.15602
0
LINE
8
BLACK
6
CONTINUOUS
10
-26.084
20
-2.15602
11
-26.0833
21
-2.15602
0
LINE
8
BLACK
6
CONTINUOUS
10
-26.0833
20
-2.15602
11
-26.0833
21
-2.15602
0
LINE
8
BLACK
6
CONTINUOUS
10
-26.0833
20
-2.15602
11
-11.2077
21
-2.15602
0
LINE
8
BLACK
6
CONTINUOUS
10
-11.2077
20
-2.15602
11
-7.487
21
-2.15602
0
LINE
8
BLACK
6
CONTINUOUS
10
-7.487
20
-2.15602
11
-7.48695
21
-2.15602
0
LINE
8
BLACK
6
CONTINUOUS
10
-7.48695
20
-2.15602
11
-7.48695
21
-2.15602
0
LINE
8
BLACK
6
CONTINUOUS
10
-7.48695
20
-2.15602
11
-7.46018
21
-2.1586
0
LINE
8
BLACK
6
CONTINUOUS
10
-7.46018
20
-2.1586
11
-7.46017
21
-2.1586
0
LINE
8
BLACK
6
CONTINUOUS
10
-7.46017
20
-2.1586
11
-7.46008
21
-2.15862
0
LINE
8
BLACK
6
CONTINUOUS
10
-7.46008
20
-2.15862
11
-7.46
21
-2.15863
0
LINE
8
BLACK
6
CONTINUOUS
10
-7.46
20
-2.15863
11
-7.43424
21
-2.16636
0
LINE
8
BLACK
6
CONTINUOUS
10
-7.43424
20
-2.16636
11
-7.43422
21
-2.16636
0
LINE
8
BLACK
6
CONTINUOUS
10
-7.43422
20
-2.16636
11
-7.43414
21
-2.1664
0
LINE
8
BLACK
6
CONTINUOUS
10
-7.43414
20
-2.1664
11
-7.43406
21
-2.16643
0
LINE
8
BLACK
6
CONTINUOUS
10
-7.43406
20
-2.16643
11
-7.41029
21
-2.17901
0
LINE
8
BLACK
6
CONTINUOUS
10
-7.41029
20
-2.17901
11
-7.41028
21
-2.17902
0
LINE
8
BLACK
6
CONTINUOUS
10
-7.41028
20
-2.17902
11
-7.4102
21
-2.17907
0
LINE
8
BLACK
6
CONTINUOUS
10
-7.4102
20
-2.17907
11
-7.41013
21
-2.17912
0
LINE
8
BLACK
6
CONTINUOUS
10
-7.41013
20
-2.17912
11
-7.38926
21
-2.19608
0
LINE
8
BLACK
6
CONTINUOUS
10
-7.38926
20
-2.19608
11
-7.38925
21
-2.19609
0
LINE
8
BLACK
6
CONTINUOUS
10
-7.38925
20
-2.19609
11
-7.38919
21
-2.19615
0
LINE
8
BLACK
6
CONTINUOUS
10
-7.38919
20
-2.19615
11
-7.38912
21
-2.19621
0
LINE
8
BLACK
6
CONTINUOUS
10
-7.38912
20
-2.19621
11
-7.37194
21
-2.2169
0
LINE
8
BLACK
6
CONTINUOUS
10
-7.37194
20
-2.2169
11
-7.37193
21
-2.21691
0
LINE
8
BLACK
6
CONTINUOUS
10
-7.37193
20
-2.21691
11
-7.37188
21
-2.21699
0
LINE
8
BLACK
6
CONTINUOUS
10
-7.37188
20
-2.21699
11
-7.37183
21
-2.21706
0
LINE
8
BLACK
6
CONTINUOUS
10
-7.37183
20
-2.21706
11
-7.359
21
-2.2407
0
LINE
8
BLACK
6
CONTINUOUS
10
-7.359
20
-2.2407
11
-7.35899
21
-2.24071
0
LINE
8
BLACK
6
CONTINUOUS
10
-7.35899
20
-2.24071
11
-7.35896
21
-2.24079
0
LINE
8
BLACK
6
CONTINUOUS
10
-7.35896
20
-2.24079
11
-7.35893
21
-2.24087
0
LINE
8
BLACK
6
CONTINUOUS
10
-7.35893
20
-2.24087
11
-7.35093
21
-2.26655
0
LINE
8
BLACK
6
CONTINUOUS
10
-7.35093
20
-2.26655
11
-7.35092
21
-2.26656
0
LINE
8
BLACK
6
CONTINUOUS
10
-7.35092
20
-2.26656
11
-7.3509
21
-2.26665
0
LINE
8
BLACK
6
CONTINUOUS
10
-7.3509
20
-2.26665
11
-7.35089
21
-2.26674
0
LINE
8
BLACK
6
CONTINUOUS
10
-7.35089
20
-2.26674
11
-7.34803
21
-2.29348
0
LINE
8
BLACK
6
CONTINUOUS
10
-7.34803
20
-2.29348
11
-7.34803
21
-2.29349
0
LINE
8
BLACK
6
CONTINUOUS
10
-7.34803
20
-2.29349
11
-7.34803
21
-2.29353
0
LINE
8
BLACK
6
CONTINUOUS
10
-7.34803
20
-2.29353
11
-7.34802
21
-2.29358
0
LINE
8
BLACK
6
CONTINUOUS
10
-7.34802
20
-2.29358
11
-7.34802
21
-2.29495
0
LINE
8
BLACK
6
CONTINUOUS
10
-7.34802
20
-2.29495
11
-7.34802
21
-2.29495
0
LINE
8
BLACK
6
CONTINUOUS
10
-7.34802
20
-2.29495
11
-7.34802
21
-2.29499
0
LINE
8
BLACK
6
CONTINUOUS
10
-7.34802
20
-2.29499
11
-7.34802
21
-2.295
0
LINE
8
BLACK
6
CONTINUOUS
10
-7.34802
20
-2.295
11
-7.34802
21
-2.295
0
LINE
8
BLACK
6
CONTINUOUS
10
-7.34802
20
-2.295
11
-7.34802
21
-6.70825
0
LINE
8
BLACK
6
CONTINUOUS
10
-7.34802
20
-6.70825
11
-7.34802
21
-6.7083
0
LINE
8
BLACK
6
CONTINUOUS
10
-7.34802
20
-6.7083
11
-7.34802
21
-6.7083
0
LINE
8
BLACK
6
CONTINUOUS
10
-7.34802
20
-6.7083
11
-7.35064
21
-6.73507
0
LINE
8
BLACK
6
CONTINUOUS
10
-7.35064
20
-6.73507
11
-7.35065
21
-6.73508
0
LINE
8
BLACK
6
CONTINUOUS
10
-7.35065
20
-6.73508
11
-7.35066
21
-6.73517
0
LINE
8
BLACK
6
CONTINUOUS
10
-7.35066
20
-6.73517
11
-7.35068
21
-6.73525
0
LINE
8
BLACK
6
CONTINUOUS
10
-7.35068
20
-6.73525
11
-7.35845
21
-6.761
0
LINE
8
BLACK
6
CONTINUOUS
10
-7.35845
20
-6.761
11
-7.35846
21
-6.76101
0
LINE
8
BLACK
6
CONTINUOUS
10
-7.35846
20
-6.76101
11
-7.35849
21
-6.76109
0
LINE
8
BLACK
6
CONTINUOUS
10
-7.35849
20
-6.76109
11
-7.35853
21
-6.76118
0
LINE
8
BLACK
6
CONTINUOUS
10
-7.35853
20
-6.76118
11
-7.37115
21
-6.78492
0
LINE
8
BLACK
6
CONTINUOUS
10
-7.37115
20
-6.78492
11
-7.37116
21
-6.78493
0
LINE
8
BLACK
6
CONTINUOUS
10
-7.37116
20
-6.78493
11
-7.37121
21
-6.78501
0
LINE
8
BLACK
6
CONTINUOUS
10
-7.37121
20
-6.78501
11
-7.37126
21
-6.78508
0
LINE
8
BLACK
6
CONTINUOUS
10
-7.37126
20
-6.78508
11
-7.38826
21
-6.80592
0
LINE
8
BLACK
6
CONTINUOUS
10
-7.38826
20
-6.80592
11
-7.38827
21
-6.80593
0
LINE
8
BLACK
6
CONTINUOUS
10
-7.38827
20
-6.80593
11
-7.38833
21
-6.806
0
LINE
8
BLACK
6
CONTINUOUS
10
-7.38833
20
-6.806
11
-7.38839
21
-6.80606
0
LINE
8
BLACK
6
CONTINUOUS
10
-7.38839
20
-6.80606
11
-7.40911
21
-6.8232
0
LINE
8
BLACK
6
CONTINUOUS
10
-7.40911
20
-6.8232
11
-7.40912
21
-6.82321
0
LINE
8
BLACK
6
CONTINUOUS
10
-7.40912
20
-6.82321
11
-7.4092
21
-6.82326
0
LINE
8
BLACK
6
CONTINUOUS
10
-7.4092
20
-6.82326
11
-7.40927
21
-6.82331
0
LINE
8
BLACK
6
CONTINUOUS
10
-7.40927
20
-6.82331
11
-7.43293
21
-6.8361
0
LINE
8
BLACK
6
CONTINUOUS
10
-7.43293
20
-6.8361
11
-7.43294
21
-6.83611
0
LINE
8
BLACK
6
CONTINUOUS
10
-7.43294
20
-6.83611
11
-7.43303
21
-6.83614
0
LINE
8
BLACK
6
CONTINUOUS
10
-7.43303
20
-6.83614
11
-7.43311
21
-6.83617
0
LINE
8
BLACK
6
CONTINUOUS
10
-7.43311
20
-6.83617
11
-7.4588
21
-6.84413
0
LINE
8
BLACK
6
CONTINUOUS
10
-7.4588
20
-6.84413
11
-7.45881
21
-6.84413
0
LINE
8
BLACK
6
CONTINUOUS
10
-7.45881
20
-6.84413
11
-7.4589
21
-6.84415
0
LINE
8
BLACK
6
CONTINUOUS
10
-7.4589
20
-6.84415
11
-7.45898
21
-6.84416
0
LINE
8
BLACK
6
CONTINUOUS
10
-7.45898
20
-6.84416
11
-7.48573
21
-6.84698
0
LINE
8
BLACK
6
CONTINUOUS
10
-7.48573
20
-6.84698
11
-7.48574
21
-6.84698
0
LINE
8
BLACK
6
CONTINUOUS
10
-7.48574
20
-6.84698
11
-7.48579
21
-6.84698
0
LINE
8
BLACK
6
CONTINUOUS
10
-7.48579
20
-6.84698
11
-7.48583
21
-6.84698
0
LINE
8
BLACK
6
CONTINUOUS
10
-7.48583
20
-6.84698
11
-7.48675
21
-6.84698
0
LINE
8
BLACK
6
CONTINUOUS
10
-7.48675
20
-6.84698
11
-7.48675
21
-6.84698
0
LINE
8
BLACK
6
CONTINUOUS
10
-7.48675
20
-6.84698
11
-10.5429
21
-6.84698
0
LINE
8
BLACK
6
CONTINUOUS
10
-10.5429
20
-6.84698
11
-14.2207
21
-7.8329
0
LINE
8
BLACK
6
CONTINUOUS
10
-26.0839
20
-2.15799
11
-26.1105
21
-2.16074
0
LINE
8
BLACK
6
CONTINUOUS
10
-26.1105
20
-2.16074
11
-26.136
21
-2.1686
0
LINE
8
BLACK
6
CONTINUOUS
10
-26.136
20
-2.1686
11
-26.1595
21
-2.18126
0
LINE
8
BLACK
6
CONTINUOUS
10
-26.1595
20
-2.18126
11
-26.1801
21
-2.19825
0
LINE
8
BLACK
6
CONTINUOUS
10
-26.1801
20
-2.19825
11
-26.197
21
-2.21892
0
LINE
8
BLACK
6
CONTINUOUS
10
-26.197
20
-2.21892
11
-26.2096
21
-2.24247
0
LINE
8
BLACK
6
CONTINUOUS
10
-26.2096
20
-2.24247
11
-26.2174
21
-2.26802
0
LINE
8
BLACK
6
CONTINUOUS
10
-26.2174
20
-2.26802
11
-26.22
21
-2.29464
0
LINE
8
BLACK
6
CONTINUOUS
10
-26.22
20
-2.29464
11
-26.22
21
-6.745
0
LINE
8
BLACK
6
CONTINUOUS
10
-26.22
20
-6.745
11
-26.22
21
-6.745
0
LINE
8
BLACK
6
CONTINUOUS
10
-26.22
20
-6.745
11
-26.22
21
-6.74612
0
LINE
8
BLACK
6
CONTINUOUS
10
-26.22
20
-6.74612
11
-26.2172
21
-6.77275
0
LINE
8
BLACK
6
CONTINUOUS
10
-26.2172
20
-6.77275
11
-26.2093
21
-6.7983
0
LINE
8
BLACK
6
CONTINUOUS
10
-26.2093
20
-6.7983
11
-26.1966
21
-6.82182
0
LINE
8
BLACK
6
CONTINUOUS
10
-26.1966
20
-6.82182
11
-26.1795
21
-6.84242
0
LINE
8
BLACK
6
CONTINUOUS
10
-26.1795
20
-6.84242
11
-26.1588
21
-6.85932
0
LINE
8
BLACK
6
CONTINUOUS
10
-26.1588
20
-6.85932
11
-26.1352
21
-6.87188
0
LINE
8
BLACK
6
CONTINUOUS
10
-26.1352
20
-6.87188
11
-26.1096
21
-6.87961
0
LINE
8
BLACK
6
CONTINUOUS
10
-26.1096
20
-6.87961
11
-26.083
21
-6.88222
0
LINE
8
BLACK
6
CONTINUOUS
10
-26.083
20
-6.88222
11
-18.749
21
-6.88202
0
LINE
8
BLACK
6
CONTINUOUS
10
-18.749
20
-6.88202
11
-18.7489
21
-6.88201
0
LINE
8
BLACK
6
CONTINUOUS
10
-18.7489
20
-6.88201
11
-18.7489
21
-6.88202
0
LINE
8
BLACK
6
CONTINUOUS
10
-18.7489
20
-6.88202
11
-18.7488
21
-6.88203
0
LINE
8
BLACK
6
CONTINUOUS
10
-18.7488
20
-6.88203
11
-18.7487
21
-6.88205
0
LINE
8
BLACK
6
CONTINUOUS
10
-18.7487
20
-6.88205
11
-15.2049
21
-7.83097
0
LINE
8
BLACK
6
CONTINUOUS
10
-15.2049
20
-7.83097
11
-14.2211
21
-7.83097
0
LINE
8
BLACK
6
CONTINUOUS
10
-14.2211
20
-7.83097
11
-10.5433
21
-6.84505
0
LINE
8
BLACK
6
CONTINUOUS
10
-10.5433
20
-6.84505
11
-10.5432
21
-6.84503
0
LINE
8
BLACK
6
CONTINUOUS
10
-10.5432
20
-6.84503
11
-10.5431
21
-6.84502
0
LINE
8
BLACK
6
CONTINUOUS
10
-10.5431
20
-6.84502
11
-10.5431
21
-6.84501
0
LINE
8
BLACK
6
CONTINUOUS
10
-10.5431
20
-6.84501
11
-10.543
21
-6.84502
0
LINE
8
BLACK
6
CONTINUOUS
10
-10.543
20
-6.84502
11
-7.4868
21
-6.84502
0
LINE
8
BLACK
6
CONTINUOUS
10
-7.4868
20
-6.84502
11
-7.48589
21
-6.84501
0
LINE
8
BLACK
6
CONTINUOUS
10
-7.48589
20
-6.84501
11
-7.45929
21
-6.84222
0
LINE
8
BLACK
6
CONTINUOUS
10
-7.45929
20
-6.84222
11
-7.43378
21
-6.83432
0
LINE
8
BLACK
6
CONTINUOUS
10
-7.43378
20
-6.83432
11
-7.41029
21
-6.82162
0
LINE
8
BLACK
6
CONTINUOUS
10
-7.41029
20
-6.82162
11
-7.38972
21
-6.8046
0
LINE
8
BLACK
6
CONTINUOUS
10
-7.38972
20
-6.8046
11
-7.37285
21
-6.78391
0
LINE
8
BLACK
6
CONTINUOUS
10
-7.37285
20
-6.78391
11
-7.36031
21
-6.76034
0
LINE
8
BLACK
6
CONTINUOUS
10
-7.36031
20
-6.76034
11
-7.35259
21
-6.73478
0
LINE
8
BLACK
6
CONTINUOUS
10
-7.35259
20
-6.73478
11
-7.34998
21
-6.70816
0
LINE
8
BLACK
6
CONTINUOUS
10
-7.34998
20
-6.70816
11
-7.34998
21
-2.295
0
LINE
8
BLACK
6
CONTINUOUS
10
-7.34998
20
-2.295
11
-7.34999
21
-2.29364
0
LINE
8
BLACK
6
CONTINUOUS
10
-7.34999
20
-2.29364
11
-7.35283
21
-2.26704
0
LINE
8
BLACK
6
CONTINUOUS
10
-7.35283
20
-2.26704
11
-7.36078
21
-2.24155
0
LINE
8
BLACK
6
CONTINUOUS
10
-7.36078
20
-2.24155
11
-7.37352
21
-2.21809
0
LINE
8
BLACK
6
CONTINUOUS
10
-7.37352
20
-2.21809
11
-7.39057
21
-2.19755
0
LINE
8
BLACK
6
CONTINUOUS
10
-7.39057
20
-2.19755
11
-7.4113
21
-2.18071
0
LINE
8
BLACK
6
CONTINUOUS
10
-7.4113
20
-2.18071
11
-7.43489
21
-2.16822
0
LINE
8
BLACK
6
CONTINUOUS
10
-7.43489
20
-2.16822
11
-7.46047
21
-2.16055
0
LINE
8
BLACK
6
CONTINUOUS
10
-7.46047
20
-2.16055
11
-7.48709
21
-2.15798
0
LINE
8
BLACK
6
CONTINUOUS
10
-7.48709
20
-2.15798
11
-11.2077
21
-2.15798
0
LINE
8
BLACK
6
CONTINUOUS
10
-11.2077
20
-2.15798
11
-11.2077
21
-2.15798
0
LINE
8
BLACK
6
CONTINUOUS
10
-11.2077
20
-2.15798
11
-26.0832
21
-2.15798
0
LINE
8
BLACK
6
CONTINUOUS
10
-26.0832
20
-2.15798
11
-26.0839
21
-2.15799
  0
ENDSEC
  0
EOF
