%TF.GenerationSoftware,KiCad,Pcbnew,(5.1.10)-1*%
%TF.CreationDate,2021-06-20T00:30:46-07:00*%
%TF.ProjectId,HSC_Alice,4853435f-416c-4696-9365-2e6b69636164,rev?*%
%TF.SameCoordinates,Original*%
%TF.FileFunction,Soldermask,Bot*%
%TF.FilePolarity,Negative*%
%FSLAX46Y46*%
G04 Gerber Fmt 4.6, Leading zero omitted, Abs format (unit mm)*
G04 Created by KiCad (PCBNEW (5.1.10)-1) date 2021-06-20 00:30:46*
%MOMM*%
%LPD*%
G01*
G04 APERTURE LIST*
%ADD10C,3.987800*%
%ADD11C,3.048000*%
%ADD12C,1.750000*%
%ADD13C,2.250000*%
%ADD14O,1.700000X2.700000*%
%ADD15C,0.100000*%
%ADD16R,1.200000X0.900000*%
%ADD17R,0.900000X1.200000*%
G04 APERTURE END LIST*
D10*
%TO.C,MX48*%
X-418061929Y-187128299D03*
X-441124374Y-180948736D03*
D11*
X-414117526Y-172407590D03*
X-437179971Y-166228026D03*
D12*
X-422549697Y-177379601D03*
X-432363503Y-174749999D03*
D13*
X-428836138Y-171554049D03*
D10*
X-427456600Y-176064800D03*
G36*
G01*
X-431421811Y-173239613D02*
X-431421815Y-173239606D01*
G75*
G02*
X-431093735Y-171682810I942438J614358D01*
G01*
X-429450495Y-170611612D01*
G75*
G02*
X-427893699Y-170939692I614358J-942438D01*
G01*
X-427893699Y-170939692D01*
G75*
G02*
X-428221779Y-172496488I-942438J-614358D01*
G01*
X-429865019Y-173567686D01*
G75*
G02*
X-431421815Y-173239606I-614358J942438D01*
G01*
G37*
D13*
X-423688348Y-171815297D03*
G36*
G01*
X-424241507Y-173429527D02*
X-424242347Y-173429239D01*
G75*
G02*
X-424941158Y-171999934I365247J1064058D01*
G01*
X-424752406Y-171450050D01*
G75*
G02*
X-423323101Y-170751239I1064058J-365247D01*
G01*
X-423323101Y-170751239D01*
G75*
G02*
X-422624290Y-172180544I-365247J-1064058D01*
G01*
X-422813042Y-172730428D01*
G75*
G02*
X-424242347Y-173429239I-1064058J365247D01*
G01*
G37*
%TD*%
D14*
%TO.C,USB1*%
X-541637200Y-58521600D03*
X-548937200Y-58521600D03*
X-548937200Y-63021600D03*
X-541637200Y-63021600D03*
%TD*%
D12*
%TO.C,MX54*%
X-388018055Y-186622695D03*
X-397831861Y-183993093D03*
D13*
X-394304496Y-180797143D03*
D10*
X-392924958Y-185307894D03*
G36*
G01*
X-396890169Y-182482707D02*
X-396890173Y-182482700D01*
G75*
G02*
X-396562093Y-180925904I942438J614358D01*
G01*
X-394918853Y-179854706D01*
G75*
G02*
X-393362057Y-180182786I614358J-942438D01*
G01*
X-393362057Y-180182786D01*
G75*
G02*
X-393690137Y-181739582I-942438J-614358D01*
G01*
X-395333377Y-182810780D01*
G75*
G02*
X-396890173Y-182482700I-614358J942438D01*
G01*
G37*
D13*
X-389156706Y-181058391D03*
G36*
G01*
X-389709865Y-182672621D02*
X-389710705Y-182672333D01*
G75*
G02*
X-390409516Y-181243028I365247J1064058D01*
G01*
X-390220764Y-180693144D01*
G75*
G02*
X-388791459Y-179994333I1064058J-365247D01*
G01*
X-388791459Y-179994333D01*
G75*
G02*
X-388092648Y-181423638I-365247J-1064058D01*
G01*
X-388281400Y-181973522D01*
G75*
G02*
X-389710705Y-182672333I-1064058J365247D01*
G01*
G37*
%TD*%
D10*
%TO.C,MX95*%
X-214207600Y-153593800D03*
X-238083600Y-153593800D03*
D11*
X-214207600Y-138353800D03*
X-238083600Y-138353800D03*
D12*
X-221065600Y-145338800D03*
X-231225600Y-145338800D03*
D13*
X-228645600Y-141338800D03*
D10*
X-226145600Y-145338800D03*
G36*
G01*
X-230706912Y-143636150D02*
X-230706917Y-143636145D01*
G75*
G02*
X-230792945Y-142047483I751317J837345D01*
G01*
X-229482943Y-140587483D01*
G75*
G02*
X-227894281Y-140501455I837345J-751317D01*
G01*
X-227894281Y-140501455D01*
G75*
G02*
X-227808253Y-142090117I-751317J-837345D01*
G01*
X-229118255Y-143550117D01*
G75*
G02*
X-230706917Y-143636145I-837345J751317D01*
G01*
G37*
D13*
X-223605600Y-140258800D03*
G36*
G01*
X-223722117Y-141961195D02*
X-223723003Y-141961134D01*
G75*
G02*
X-224767934Y-140761397I77403J1122334D01*
G01*
X-224727934Y-140181397D01*
G75*
G02*
X-223528197Y-139136466I1122334J-77403D01*
G01*
X-223528197Y-139136466D01*
G75*
G02*
X-222483266Y-140336203I-77403J-1122334D01*
G01*
X-222523266Y-140916203D01*
G75*
G02*
X-223723003Y-141961134I-1122334J77403D01*
G01*
G37*
%TD*%
D12*
%TO.C,MX105*%
X-194878200Y-107213400D03*
X-205038200Y-107213400D03*
D13*
X-202458200Y-103213400D03*
D10*
X-199958200Y-107213400D03*
G36*
G01*
X-204519512Y-105510750D02*
X-204519517Y-105510745D01*
G75*
G02*
X-204605545Y-103922083I751317J837345D01*
G01*
X-203295543Y-102462083D01*
G75*
G02*
X-201706881Y-102376055I837345J-751317D01*
G01*
X-201706881Y-102376055D01*
G75*
G02*
X-201620853Y-103964717I-751317J-837345D01*
G01*
X-202930855Y-105424717D01*
G75*
G02*
X-204519517Y-105510745I-837345J751317D01*
G01*
G37*
D13*
X-197418200Y-102133400D03*
G36*
G01*
X-197534717Y-103835795D02*
X-197535603Y-103835734D01*
G75*
G02*
X-198580534Y-102635997I77403J1122334D01*
G01*
X-198540534Y-102055997D01*
G75*
G02*
X-197340797Y-101011066I1122334J-77403D01*
G01*
X-197340797Y-101011066D01*
G75*
G02*
X-196295866Y-102210803I-77403J-1122334D01*
G01*
X-196335866Y-102790803D01*
G75*
G02*
X-197535603Y-103835734I-1122334J77403D01*
G01*
G37*
%TD*%
D15*
%TO.C,D37*%
G36*
X-436703335Y-67300675D02*
G01*
X-437862446Y-66990092D01*
X-437629509Y-66120759D01*
X-436470398Y-66431342D01*
X-436703335Y-67300675D01*
G37*
G36*
X-437557437Y-70488231D02*
G01*
X-438716548Y-70177648D01*
X-438483611Y-69308315D01*
X-437324500Y-69618898D01*
X-437557437Y-70488231D01*
G37*
%TD*%
D16*
%TO.C,D19*%
X-513524500Y-62675500D03*
X-513524500Y-65975500D03*
%TD*%
D10*
%TO.C,MX29*%
X-513461000Y-153543000D03*
X-537337000Y-153543000D03*
D11*
X-513461000Y-138303000D03*
X-537337000Y-138303000D03*
D12*
X-520319000Y-145288000D03*
X-530479000Y-145288000D03*
D13*
X-527899000Y-141288000D03*
D10*
X-525399000Y-145288000D03*
G36*
G01*
X-529960312Y-143585350D02*
X-529960317Y-143585345D01*
G75*
G02*
X-530046345Y-141996683I751317J837345D01*
G01*
X-528736343Y-140536683D01*
G75*
G02*
X-527147681Y-140450655I837345J-751317D01*
G01*
X-527147681Y-140450655D01*
G75*
G02*
X-527061653Y-142039317I-751317J-837345D01*
G01*
X-528371655Y-143499317D01*
G75*
G02*
X-529960317Y-143585345I-837345J751317D01*
G01*
G37*
D13*
X-522859000Y-140208000D03*
G36*
G01*
X-522975517Y-141910395D02*
X-522976403Y-141910334D01*
G75*
G02*
X-524021334Y-140710597I77403J1122334D01*
G01*
X-523981334Y-140130597D01*
G75*
G02*
X-522781597Y-139085666I1122334J-77403D01*
G01*
X-522781597Y-139085666D01*
G75*
G02*
X-521736666Y-140285403I-77403J-1122334D01*
G01*
X-521776666Y-140865403D01*
G75*
G02*
X-522976403Y-141910334I-1122334J77403D01*
G01*
G37*
%TD*%
D12*
%TO.C,MX28*%
X-505968000Y-126238000D03*
X-516128000Y-126238000D03*
D13*
X-513548000Y-122238000D03*
D10*
X-511048000Y-126238000D03*
G36*
G01*
X-515609312Y-124535350D02*
X-515609317Y-124535345D01*
G75*
G02*
X-515695345Y-122946683I751317J837345D01*
G01*
X-514385343Y-121486683D01*
G75*
G02*
X-512796681Y-121400655I837345J-751317D01*
G01*
X-512796681Y-121400655D01*
G75*
G02*
X-512710653Y-122989317I-751317J-837345D01*
G01*
X-514020655Y-124449317D01*
G75*
G02*
X-515609317Y-124535345I-837345J751317D01*
G01*
G37*
D13*
X-508508000Y-121158000D03*
G36*
G01*
X-508624517Y-122860395D02*
X-508625403Y-122860334D01*
G75*
G02*
X-509670334Y-121660597I77403J1122334D01*
G01*
X-509630334Y-121080597D01*
G75*
G02*
X-508430597Y-120035666I1122334J-77403D01*
G01*
X-508430597Y-120035666D01*
G75*
G02*
X-507385666Y-121235403I-77403J-1122334D01*
G01*
X-507425666Y-121815403D01*
G75*
G02*
X-508625403Y-122860334I-1122334J77403D01*
G01*
G37*
%TD*%
D12*
%TO.C,MX6*%
X-651383000Y-164338000D03*
X-661543000Y-164338000D03*
D13*
X-658963000Y-160338000D03*
D10*
X-656463000Y-164338000D03*
G36*
G01*
X-661024312Y-162635350D02*
X-661024317Y-162635345D01*
G75*
G02*
X-661110345Y-161046683I751317J837345D01*
G01*
X-659800343Y-159586683D01*
G75*
G02*
X-658211681Y-159500655I837345J-751317D01*
G01*
X-658211681Y-159500655D01*
G75*
G02*
X-658125653Y-161089317I-751317J-837345D01*
G01*
X-659435655Y-162549317D01*
G75*
G02*
X-661024317Y-162635345I-837345J751317D01*
G01*
G37*
D13*
X-653923000Y-159258000D03*
G36*
G01*
X-654039517Y-160960395D02*
X-654040403Y-160960334D01*
G75*
G02*
X-655085334Y-159760597I77403J1122334D01*
G01*
X-655045334Y-159180597D01*
G75*
G02*
X-653845597Y-158135666I1122334J-77403D01*
G01*
X-653845597Y-158135666D01*
G75*
G02*
X-652800666Y-159335403I-77403J-1122334D01*
G01*
X-652840666Y-159915403D01*
G75*
G02*
X-654040403Y-160960334I-1122334J77403D01*
G01*
G37*
%TD*%
D10*
%TO.C,MX104*%
X-192795400Y-96393000D03*
X-216671400Y-96393000D03*
D11*
X-192795400Y-81153000D03*
X-216671400Y-81153000D03*
D12*
X-199653400Y-88138000D03*
X-209813400Y-88138000D03*
D13*
X-207233400Y-84138000D03*
D10*
X-204733400Y-88138000D03*
G36*
G01*
X-209294712Y-86435350D02*
X-209294717Y-86435345D01*
G75*
G02*
X-209380745Y-84846683I751317J837345D01*
G01*
X-208070743Y-83386683D01*
G75*
G02*
X-206482081Y-83300655I837345J-751317D01*
G01*
X-206482081Y-83300655D01*
G75*
G02*
X-206396053Y-84889317I-751317J-837345D01*
G01*
X-207706055Y-86349317D01*
G75*
G02*
X-209294717Y-86435345I-837345J751317D01*
G01*
G37*
D13*
X-202193400Y-83058000D03*
G36*
G01*
X-202309917Y-84760395D02*
X-202310803Y-84760334D01*
G75*
G02*
X-203355734Y-83560597I77403J1122334D01*
G01*
X-203315734Y-82980597D01*
G75*
G02*
X-202115997Y-81935666I1122334J-77403D01*
G01*
X-202115997Y-81935666D01*
G75*
G02*
X-201071066Y-83135403I-77403J-1122334D01*
G01*
X-201111066Y-83715403D01*
G75*
G02*
X-202310803Y-84760334I-1122334J77403D01*
G01*
G37*
%TD*%
D12*
%TO.C,MX103*%
X-190103000Y-64325500D03*
X-200263000Y-64325500D03*
D13*
X-197683000Y-60325500D03*
D10*
X-195183000Y-64325500D03*
G36*
G01*
X-199744312Y-62622850D02*
X-199744317Y-62622845D01*
G75*
G02*
X-199830345Y-61034183I751317J837345D01*
G01*
X-198520343Y-59574183D01*
G75*
G02*
X-196931681Y-59488155I837345J-751317D01*
G01*
X-196931681Y-59488155D01*
G75*
G02*
X-196845653Y-61076817I-751317J-837345D01*
G01*
X-198155655Y-62536817D01*
G75*
G02*
X-199744317Y-62622845I-837345J751317D01*
G01*
G37*
D13*
X-192643000Y-59245500D03*
G36*
G01*
X-192759517Y-60947895D02*
X-192760403Y-60947834D01*
G75*
G02*
X-193805334Y-59748097I77403J1122334D01*
G01*
X-193765334Y-59168097D01*
G75*
G02*
X-192565597Y-58123166I1122334J-77403D01*
G01*
X-192565597Y-58123166D01*
G75*
G02*
X-191520666Y-59322903I-77403J-1122334D01*
G01*
X-191560666Y-59902903D01*
G75*
G02*
X-192760403Y-60947834I-1122334J77403D01*
G01*
G37*
%TD*%
D12*
%TO.C,MX102*%
X-190103000Y-145288000D03*
X-200263000Y-145288000D03*
D13*
X-197683000Y-141288000D03*
D10*
X-195183000Y-145288000D03*
G36*
G01*
X-199744312Y-143585350D02*
X-199744317Y-143585345D01*
G75*
G02*
X-199830345Y-141996683I751317J837345D01*
G01*
X-198520343Y-140536683D01*
G75*
G02*
X-196931681Y-140450655I837345J-751317D01*
G01*
X-196931681Y-140450655D01*
G75*
G02*
X-196845653Y-142039317I-751317J-837345D01*
G01*
X-198155655Y-143499317D01*
G75*
G02*
X-199744317Y-143585345I-837345J751317D01*
G01*
G37*
D13*
X-192643000Y-140208000D03*
G36*
G01*
X-192759517Y-141910395D02*
X-192760403Y-141910334D01*
G75*
G02*
X-193805334Y-140710597I77403J1122334D01*
G01*
X-193765334Y-140130597D01*
G75*
G02*
X-192565597Y-139085666I1122334J-77403D01*
G01*
X-192565597Y-139085666D01*
G75*
G02*
X-191520666Y-140285403I-77403J-1122334D01*
G01*
X-191560666Y-140865403D01*
G75*
G02*
X-192760403Y-141910334I-1122334J77403D01*
G01*
G37*
%TD*%
D10*
%TO.C,MX101*%
X-195163400Y-134493000D03*
X-219039400Y-134493000D03*
D11*
X-195163400Y-119253000D03*
X-219039400Y-119253000D03*
D12*
X-202021400Y-126238000D03*
X-212181400Y-126238000D03*
D13*
X-209601400Y-122238000D03*
D10*
X-207101400Y-126238000D03*
G36*
G01*
X-211662712Y-124535350D02*
X-211662717Y-124535345D01*
G75*
G02*
X-211748745Y-122946683I751317J837345D01*
G01*
X-210438743Y-121486683D01*
G75*
G02*
X-208850081Y-121400655I837345J-751317D01*
G01*
X-208850081Y-121400655D01*
G75*
G02*
X-208764053Y-122989317I-751317J-837345D01*
G01*
X-210074055Y-124449317D01*
G75*
G02*
X-211662717Y-124535345I-837345J751317D01*
G01*
G37*
D13*
X-204561400Y-121158000D03*
G36*
G01*
X-204677917Y-122860395D02*
X-204678803Y-122860334D01*
G75*
G02*
X-205723734Y-121660597I77403J1122334D01*
G01*
X-205683734Y-121080597D01*
G75*
G02*
X-204483997Y-120035666I1122334J-77403D01*
G01*
X-204483997Y-120035666D01*
G75*
G02*
X-203439066Y-121235403I-77403J-1122334D01*
G01*
X-203479066Y-121815403D01*
G75*
G02*
X-204678803Y-122860334I-1122334J77403D01*
G01*
G37*
%TD*%
D12*
%TO.C,MX99*%
X-218703400Y-107213400D03*
X-228863400Y-107213400D03*
D13*
X-226283400Y-103213400D03*
D10*
X-223783400Y-107213400D03*
G36*
G01*
X-228344712Y-105510750D02*
X-228344717Y-105510745D01*
G75*
G02*
X-228430745Y-103922083I751317J837345D01*
G01*
X-227120743Y-102462083D01*
G75*
G02*
X-225532081Y-102376055I837345J-751317D01*
G01*
X-225532081Y-102376055D01*
G75*
G02*
X-225446053Y-103964717I-751317J-837345D01*
G01*
X-226756055Y-105424717D01*
G75*
G02*
X-228344717Y-105510745I-837345J751317D01*
G01*
G37*
D13*
X-221243400Y-102133400D03*
G36*
G01*
X-221359917Y-103835795D02*
X-221360803Y-103835734D01*
G75*
G02*
X-222405734Y-102635997I77403J1122334D01*
G01*
X-222365734Y-102055997D01*
G75*
G02*
X-221165997Y-101011066I1122334J-77403D01*
G01*
X-221165997Y-101011066D01*
G75*
G02*
X-220121066Y-102210803I-77403J-1122334D01*
G01*
X-220161066Y-102790803D01*
G75*
G02*
X-221360803Y-103835734I-1122334J77403D01*
G01*
G37*
%TD*%
D12*
%TO.C,MX98*%
X-228228400Y-88163400D03*
X-238388400Y-88163400D03*
D13*
X-235808400Y-84163400D03*
D10*
X-233308400Y-88163400D03*
G36*
G01*
X-237869712Y-86460750D02*
X-237869717Y-86460745D01*
G75*
G02*
X-237955745Y-84872083I751317J837345D01*
G01*
X-236645743Y-83412083D01*
G75*
G02*
X-235057081Y-83326055I837345J-751317D01*
G01*
X-235057081Y-83326055D01*
G75*
G02*
X-234971053Y-84914717I-751317J-837345D01*
G01*
X-236281055Y-86374717D01*
G75*
G02*
X-237869717Y-86460745I-837345J751317D01*
G01*
G37*
D13*
X-230768400Y-83083400D03*
G36*
G01*
X-230884917Y-84785795D02*
X-230885803Y-84785734D01*
G75*
G02*
X-231930734Y-83585997I77403J1122334D01*
G01*
X-231890734Y-83005997D01*
G75*
G02*
X-230690997Y-81961066I1122334J-77403D01*
G01*
X-230690997Y-81961066D01*
G75*
G02*
X-229646066Y-83160803I-77403J-1122334D01*
G01*
X-229686066Y-83740803D01*
G75*
G02*
X-230885803Y-84785734I-1122334J77403D01*
G01*
G37*
%TD*%
D12*
%TO.C,MX97*%
X-209153000Y-64325500D03*
X-219313000Y-64325500D03*
D13*
X-216733000Y-60325500D03*
D10*
X-214233000Y-64325500D03*
G36*
G01*
X-218794312Y-62622850D02*
X-218794317Y-62622845D01*
G75*
G02*
X-218880345Y-61034183I751317J837345D01*
G01*
X-217570343Y-59574183D01*
G75*
G02*
X-215981681Y-59488155I837345J-751317D01*
G01*
X-215981681Y-59488155D01*
G75*
G02*
X-215895653Y-61076817I-751317J-837345D01*
G01*
X-217205655Y-62536817D01*
G75*
G02*
X-218794317Y-62622845I-837345J751317D01*
G01*
G37*
D13*
X-211693000Y-59245500D03*
G36*
G01*
X-211809517Y-60947895D02*
X-211810403Y-60947834D01*
G75*
G02*
X-212855334Y-59748097I77403J1122334D01*
G01*
X-212815334Y-59168097D01*
G75*
G02*
X-211615597Y-58123166I1122334J-77403D01*
G01*
X-211615597Y-58123166D01*
G75*
G02*
X-210570666Y-59322903I-77403J-1122334D01*
G01*
X-210610666Y-59902903D01*
G75*
G02*
X-211810403Y-60947834I-1122334J77403D01*
G01*
G37*
%TD*%
D12*
%TO.C,MX96*%
X-192469000Y-164363400D03*
X-202629000Y-164363400D03*
D13*
X-200049000Y-160363400D03*
D10*
X-197549000Y-164363400D03*
G36*
G01*
X-202110312Y-162660750D02*
X-202110317Y-162660745D01*
G75*
G02*
X-202196345Y-161072083I751317J837345D01*
G01*
X-200886343Y-159612083D01*
G75*
G02*
X-199297681Y-159526055I837345J-751317D01*
G01*
X-199297681Y-159526055D01*
G75*
G02*
X-199211653Y-161114717I-751317J-837345D01*
G01*
X-200521655Y-162574717D01*
G75*
G02*
X-202110317Y-162660745I-837345J751317D01*
G01*
G37*
D13*
X-195009000Y-159283400D03*
G36*
G01*
X-195125517Y-160985795D02*
X-195126403Y-160985734D01*
G75*
G02*
X-196171334Y-159785997I77403J1122334D01*
G01*
X-196131334Y-159205997D01*
G75*
G02*
X-194931597Y-158161066I1122334J-77403D01*
G01*
X-194931597Y-158161066D01*
G75*
G02*
X-193886666Y-159360803I-77403J-1122334D01*
G01*
X-193926666Y-159940803D01*
G75*
G02*
X-195126403Y-160985734I-1122334J77403D01*
G01*
G37*
%TD*%
D12*
%TO.C,MX94*%
X-232952800Y-126212600D03*
X-243112800Y-126212600D03*
D13*
X-240532800Y-122212600D03*
D10*
X-238032800Y-126212600D03*
G36*
G01*
X-242594112Y-124509950D02*
X-242594117Y-124509945D01*
G75*
G02*
X-242680145Y-122921283I751317J837345D01*
G01*
X-241370143Y-121461283D01*
G75*
G02*
X-239781481Y-121375255I837345J-751317D01*
G01*
X-239781481Y-121375255D01*
G75*
G02*
X-239695453Y-122963917I-751317J-837345D01*
G01*
X-241005455Y-124423917D01*
G75*
G02*
X-242594117Y-124509945I-837345J751317D01*
G01*
G37*
D13*
X-235492800Y-121132600D03*
G36*
G01*
X-235609317Y-122834995D02*
X-235610203Y-122834934D01*
G75*
G02*
X-236655134Y-121635197I77403J1122334D01*
G01*
X-236615134Y-121055197D01*
G75*
G02*
X-235415397Y-120010266I1122334J-77403D01*
G01*
X-235415397Y-120010266D01*
G75*
G02*
X-234370466Y-121210003I-77403J-1122334D01*
G01*
X-234410466Y-121790003D01*
G75*
G02*
X-235610203Y-122834934I-1122334J77403D01*
G01*
G37*
%TD*%
D12*
%TO.C,MX93*%
X-237753400Y-107213400D03*
X-247913400Y-107213400D03*
D13*
X-245333400Y-103213400D03*
D10*
X-242833400Y-107213400D03*
G36*
G01*
X-247394712Y-105510750D02*
X-247394717Y-105510745D01*
G75*
G02*
X-247480745Y-103922083I751317J837345D01*
G01*
X-246170743Y-102462083D01*
G75*
G02*
X-244582081Y-102376055I837345J-751317D01*
G01*
X-244582081Y-102376055D01*
G75*
G02*
X-244496053Y-103964717I-751317J-837345D01*
G01*
X-245806055Y-105424717D01*
G75*
G02*
X-247394717Y-105510745I-837345J751317D01*
G01*
G37*
D13*
X-240293400Y-102133400D03*
G36*
G01*
X-240409917Y-103835795D02*
X-240410803Y-103835734D01*
G75*
G02*
X-241455734Y-102635997I77403J1122334D01*
G01*
X-241415734Y-102055997D01*
G75*
G02*
X-240215997Y-101011066I1122334J-77403D01*
G01*
X-240215997Y-101011066D01*
G75*
G02*
X-239171066Y-102210803I-77403J-1122334D01*
G01*
X-239211066Y-102790803D01*
G75*
G02*
X-240410803Y-103835734I-1122334J77403D01*
G01*
G37*
%TD*%
D12*
%TO.C,MX92*%
X-247278400Y-88163400D03*
X-257438400Y-88163400D03*
D13*
X-254858400Y-84163400D03*
D10*
X-252358400Y-88163400D03*
G36*
G01*
X-256919712Y-86460750D02*
X-256919717Y-86460745D01*
G75*
G02*
X-257005745Y-84872083I751317J837345D01*
G01*
X-255695743Y-83412083D01*
G75*
G02*
X-254107081Y-83326055I837345J-751317D01*
G01*
X-254107081Y-83326055D01*
G75*
G02*
X-254021053Y-84914717I-751317J-837345D01*
G01*
X-255331055Y-86374717D01*
G75*
G02*
X-256919717Y-86460745I-837345J751317D01*
G01*
G37*
D13*
X-249818400Y-83083400D03*
G36*
G01*
X-249934917Y-84785795D02*
X-249935803Y-84785734D01*
G75*
G02*
X-250980734Y-83585997I77403J1122334D01*
G01*
X-250940734Y-83005997D01*
G75*
G02*
X-249740997Y-81961066I1122334J-77403D01*
G01*
X-249740997Y-81961066D01*
G75*
G02*
X-248696066Y-83160803I-77403J-1122334D01*
G01*
X-248736066Y-83740803D01*
G75*
G02*
X-249935803Y-84785734I-1122334J77403D01*
G01*
G37*
%TD*%
D12*
%TO.C,MX91*%
X-250021600Y-64325500D03*
X-260181600Y-64325500D03*
D13*
X-257601600Y-60325500D03*
D10*
X-255101600Y-64325500D03*
G36*
G01*
X-259662912Y-62622850D02*
X-259662917Y-62622845D01*
G75*
G02*
X-259748945Y-61034183I751317J837345D01*
G01*
X-258438943Y-59574183D01*
G75*
G02*
X-256850281Y-59488155I837345J-751317D01*
G01*
X-256850281Y-59488155D01*
G75*
G02*
X-256764253Y-61076817I-751317J-837345D01*
G01*
X-258074255Y-62536817D01*
G75*
G02*
X-259662917Y-62622845I-837345J751317D01*
G01*
G37*
D13*
X-252561600Y-59245500D03*
G36*
G01*
X-252678117Y-60947895D02*
X-252679003Y-60947834D01*
G75*
G02*
X-253723934Y-59748097I77403J1122334D01*
G01*
X-253683934Y-59168097D01*
G75*
G02*
X-252484197Y-58123166I1122334J-77403D01*
G01*
X-252484197Y-58123166D01*
G75*
G02*
X-251439266Y-59322903I-77403J-1122334D01*
G01*
X-251479266Y-59902903D01*
G75*
G02*
X-252679003Y-60947834I-1122334J77403D01*
G01*
G37*
%TD*%
D12*
%TO.C,MX90*%
X-216268800Y-164363400D03*
X-226428800Y-164363400D03*
D13*
X-223848800Y-160363400D03*
D10*
X-221348800Y-164363400D03*
G36*
G01*
X-225910112Y-162660750D02*
X-225910117Y-162660745D01*
G75*
G02*
X-225996145Y-161072083I751317J837345D01*
G01*
X-224686143Y-159612083D01*
G75*
G02*
X-223097481Y-159526055I837345J-751317D01*
G01*
X-223097481Y-159526055D01*
G75*
G02*
X-223011453Y-161114717I-751317J-837345D01*
G01*
X-224321455Y-162574717D01*
G75*
G02*
X-225910117Y-162660745I-837345J751317D01*
G01*
G37*
D13*
X-218808800Y-159283400D03*
G36*
G01*
X-218925317Y-160985795D02*
X-218926203Y-160985734D01*
G75*
G02*
X-219971134Y-159785997I77403J1122334D01*
G01*
X-219931134Y-159205997D01*
G75*
G02*
X-218731397Y-158161066I1122334J-77403D01*
G01*
X-218731397Y-158161066D01*
G75*
G02*
X-217686466Y-159360803I-77403J-1122334D01*
G01*
X-217726466Y-159940803D01*
G75*
G02*
X-218926203Y-160985734I-1122334J77403D01*
G01*
G37*
%TD*%
D12*
%TO.C,MX89*%
X-252028200Y-145262600D03*
X-262188200Y-145262600D03*
D13*
X-259608200Y-141262600D03*
D10*
X-257108200Y-145262600D03*
G36*
G01*
X-261669512Y-143559950D02*
X-261669517Y-143559945D01*
G75*
G02*
X-261755545Y-141971283I751317J837345D01*
G01*
X-260445543Y-140511283D01*
G75*
G02*
X-258856881Y-140425255I837345J-751317D01*
G01*
X-258856881Y-140425255D01*
G75*
G02*
X-258770853Y-142013917I-751317J-837345D01*
G01*
X-260080855Y-143473917D01*
G75*
G02*
X-261669517Y-143559945I-837345J751317D01*
G01*
G37*
D13*
X-254568200Y-140182600D03*
G36*
G01*
X-254684717Y-141884995D02*
X-254685603Y-141884934D01*
G75*
G02*
X-255730534Y-140685197I77403J1122334D01*
G01*
X-255690534Y-140105197D01*
G75*
G02*
X-254490797Y-139060266I1122334J-77403D01*
G01*
X-254490797Y-139060266D01*
G75*
G02*
X-253445866Y-140260003I-77403J-1122334D01*
G01*
X-253485866Y-140840003D01*
G75*
G02*
X-254685603Y-141884934I-1122334J77403D01*
G01*
G37*
%TD*%
D12*
%TO.C,MX88*%
X-252002800Y-126212600D03*
X-262162800Y-126212600D03*
D13*
X-259582800Y-122212600D03*
D10*
X-257082800Y-126212600D03*
G36*
G01*
X-261644112Y-124509950D02*
X-261644117Y-124509945D01*
G75*
G02*
X-261730145Y-122921283I751317J837345D01*
G01*
X-260420143Y-121461283D01*
G75*
G02*
X-258831481Y-121375255I837345J-751317D01*
G01*
X-258831481Y-121375255D01*
G75*
G02*
X-258745453Y-122963917I-751317J-837345D01*
G01*
X-260055455Y-124423917D01*
G75*
G02*
X-261644117Y-124509945I-837345J751317D01*
G01*
G37*
D13*
X-254542800Y-121132600D03*
G36*
G01*
X-254659317Y-122834995D02*
X-254660203Y-122834934D01*
G75*
G02*
X-255705134Y-121635197I77403J1122334D01*
G01*
X-255665134Y-121055197D01*
G75*
G02*
X-254465397Y-120010266I1122334J-77403D01*
G01*
X-254465397Y-120010266D01*
G75*
G02*
X-253420466Y-121210003I-77403J-1122334D01*
G01*
X-253460466Y-121790003D01*
G75*
G02*
X-254660203Y-122834934I-1122334J77403D01*
G01*
G37*
%TD*%
D12*
%TO.C,MX87*%
X-256828800Y-107213400D03*
X-266988800Y-107213400D03*
D13*
X-264408800Y-103213400D03*
D10*
X-261908800Y-107213400D03*
G36*
G01*
X-266470112Y-105510750D02*
X-266470117Y-105510745D01*
G75*
G02*
X-266556145Y-103922083I751317J837345D01*
G01*
X-265246143Y-102462083D01*
G75*
G02*
X-263657481Y-102376055I837345J-751317D01*
G01*
X-263657481Y-102376055D01*
G75*
G02*
X-263571453Y-103964717I-751317J-837345D01*
G01*
X-264881455Y-105424717D01*
G75*
G02*
X-266470117Y-105510745I-837345J751317D01*
G01*
G37*
D13*
X-259368800Y-102133400D03*
G36*
G01*
X-259485317Y-103835795D02*
X-259486203Y-103835734D01*
G75*
G02*
X-260531134Y-102635997I77403J1122334D01*
G01*
X-260491134Y-102055997D01*
G75*
G02*
X-259291397Y-101011066I1122334J-77403D01*
G01*
X-259291397Y-101011066D01*
G75*
G02*
X-258246466Y-102210803I-77403J-1122334D01*
G01*
X-258286466Y-102790803D01*
G75*
G02*
X-259486203Y-103835734I-1122334J77403D01*
G01*
G37*
%TD*%
D12*
%TO.C,MX86*%
X-266328400Y-88163400D03*
X-276488400Y-88163400D03*
D13*
X-273908400Y-84163400D03*
D10*
X-271408400Y-88163400D03*
G36*
G01*
X-275969712Y-86460750D02*
X-275969717Y-86460745D01*
G75*
G02*
X-276055745Y-84872083I751317J837345D01*
G01*
X-274745743Y-83412083D01*
G75*
G02*
X-273157081Y-83326055I837345J-751317D01*
G01*
X-273157081Y-83326055D01*
G75*
G02*
X-273071053Y-84914717I-751317J-837345D01*
G01*
X-274381055Y-86374717D01*
G75*
G02*
X-275969717Y-86460745I-837345J751317D01*
G01*
G37*
D13*
X-268868400Y-83083400D03*
G36*
G01*
X-268984917Y-84785795D02*
X-268985803Y-84785734D01*
G75*
G02*
X-270030734Y-83585997I77403J1122334D01*
G01*
X-269990734Y-83005997D01*
G75*
G02*
X-268790997Y-81961066I1122334J-77403D01*
G01*
X-268790997Y-81961066D01*
G75*
G02*
X-267746066Y-83160803I-77403J-1122334D01*
G01*
X-267786066Y-83740803D01*
G75*
G02*
X-268985803Y-84785734I-1122334J77403D01*
G01*
G37*
%TD*%
D12*
%TO.C,MX85*%
X-269071600Y-64325500D03*
X-279231600Y-64325500D03*
D13*
X-276651600Y-60325500D03*
D10*
X-274151600Y-64325500D03*
G36*
G01*
X-278712912Y-62622850D02*
X-278712917Y-62622845D01*
G75*
G02*
X-278798945Y-61034183I751317J837345D01*
G01*
X-277488943Y-59574183D01*
G75*
G02*
X-275900281Y-59488155I837345J-751317D01*
G01*
X-275900281Y-59488155D01*
G75*
G02*
X-275814253Y-61076817I-751317J-837345D01*
G01*
X-277124255Y-62536817D01*
G75*
G02*
X-278712917Y-62622845I-837345J751317D01*
G01*
G37*
D13*
X-271611600Y-59245500D03*
G36*
G01*
X-271728117Y-60947895D02*
X-271729003Y-60947834D01*
G75*
G02*
X-272773934Y-59748097I77403J1122334D01*
G01*
X-272733934Y-59168097D01*
G75*
G02*
X-271534197Y-58123166I1122334J-77403D01*
G01*
X-271534197Y-58123166D01*
G75*
G02*
X-270489266Y-59322903I-77403J-1122334D01*
G01*
X-270529266Y-59902903D01*
G75*
G02*
X-271729003Y-60947834I-1122334J77403D01*
G01*
G37*
%TD*%
D12*
%TO.C,MX84*%
X-240064800Y-164363400D03*
X-250224800Y-164363400D03*
D13*
X-247644800Y-160363400D03*
D10*
X-245144800Y-164363400D03*
G36*
G01*
X-249706112Y-162660750D02*
X-249706117Y-162660745D01*
G75*
G02*
X-249792145Y-161072083I751317J837345D01*
G01*
X-248482143Y-159612083D01*
G75*
G02*
X-246893481Y-159526055I837345J-751317D01*
G01*
X-246893481Y-159526055D01*
G75*
G02*
X-246807453Y-161114717I-751317J-837345D01*
G01*
X-248117455Y-162574717D01*
G75*
G02*
X-249706117Y-162660745I-837345J751317D01*
G01*
G37*
D13*
X-242604800Y-159283400D03*
G36*
G01*
X-242721317Y-160985795D02*
X-242722203Y-160985734D01*
G75*
G02*
X-243767134Y-159785997I77403J1122334D01*
G01*
X-243727134Y-159205997D01*
G75*
G02*
X-242527397Y-158161066I1122334J-77403D01*
G01*
X-242527397Y-158161066D01*
G75*
G02*
X-241482466Y-159360803I-77403J-1122334D01*
G01*
X-241522466Y-159940803D01*
G75*
G02*
X-242722203Y-160985734I-1122334J77403D01*
G01*
G37*
%TD*%
D12*
%TO.C,MX83*%
X-281909009Y-145870199D03*
X-291722815Y-148499801D03*
D13*
X-290266003Y-143968344D03*
D10*
X-286815912Y-147185000D03*
G36*
G01*
X-291662479Y-146720921D02*
X-291662486Y-146720918D01*
G75*
G02*
X-292156759Y-145208653I508996J1003269D01*
G01*
X-291269271Y-143459349D01*
G75*
G02*
X-289757006Y-142965076I1003269J-508996D01*
G01*
X-289757006Y-142965076D01*
G75*
G02*
X-289262733Y-144477341I-508996J-1003269D01*
G01*
X-290150221Y-146226645D01*
G75*
G02*
X-291662486Y-146720918I-1003269J508996D01*
G01*
G37*
D13*
X-285677261Y-141620696D03*
G36*
G01*
X-285349196Y-143295240D02*
X-285350067Y-143295411D01*
G75*
G02*
X-286669908Y-142407002I-215716J1104125D01*
G01*
X-286781386Y-141836412D01*
G75*
G02*
X-285892977Y-140516571I1104125J215716D01*
G01*
X-285892977Y-140516571D01*
G75*
G02*
X-284573136Y-141404980I215716J-1104125D01*
G01*
X-284461658Y-141975570D01*
G75*
G02*
X-285350067Y-143295411I-1104125J-215716D01*
G01*
G37*
%TD*%
D12*
%TO.C,MX82*%
X-284368439Y-127044493D03*
X-294182245Y-129674095D03*
D13*
X-292725433Y-125142638D03*
D10*
X-289275342Y-128359294D03*
G36*
G01*
X-294121909Y-127895215D02*
X-294121916Y-127895212D01*
G75*
G02*
X-294616189Y-126382947I508996J1003269D01*
G01*
X-293728701Y-124633643D01*
G75*
G02*
X-292216436Y-124139370I1003269J-508996D01*
G01*
X-292216436Y-124139370D01*
G75*
G02*
X-291722163Y-125651635I-508996J-1003269D01*
G01*
X-292609651Y-127400939D01*
G75*
G02*
X-294121916Y-127895212I-1003269J508996D01*
G01*
G37*
D13*
X-288136691Y-122794990D03*
G36*
G01*
X-287808626Y-124469534D02*
X-287809497Y-124469705D01*
G75*
G02*
X-289129338Y-123581296I-215716J1104125D01*
G01*
X-289240816Y-123010706D01*
G75*
G02*
X-288352407Y-121690865I1104125J215716D01*
G01*
X-288352407Y-121690865D01*
G75*
G02*
X-287032566Y-122579274I215716J-1104125D01*
G01*
X-286921088Y-123149864D01*
G75*
G02*
X-287809497Y-124469705I-1104125J-215716D01*
G01*
G37*
%TD*%
D12*
%TO.C,MX81*%
X-287822839Y-108248493D03*
X-297636645Y-110878095D03*
D13*
X-296179833Y-106346638D03*
D10*
X-292729742Y-109563294D03*
G36*
G01*
X-297576309Y-109099215D02*
X-297576316Y-109099212D01*
G75*
G02*
X-298070589Y-107586947I508996J1003269D01*
G01*
X-297183101Y-105837643D01*
G75*
G02*
X-295670836Y-105343370I1003269J-508996D01*
G01*
X-295670836Y-105343370D01*
G75*
G02*
X-295176563Y-106855635I-508996J-1003269D01*
G01*
X-296064051Y-108604939D01*
G75*
G02*
X-297576316Y-109099212I-1003269J508996D01*
G01*
G37*
D13*
X-291591091Y-103998990D03*
G36*
G01*
X-291263026Y-105673534D02*
X-291263897Y-105673705D01*
G75*
G02*
X-292583738Y-104785296I-215716J1104125D01*
G01*
X-292695216Y-104214706D01*
G75*
G02*
X-291806807Y-102894865I1104125J215716D01*
G01*
X-291806807Y-102894865D01*
G75*
G02*
X-290486966Y-103783274I215716J-1104125D01*
G01*
X-290375488Y-104353864D01*
G75*
G02*
X-291263897Y-105673705I-1104125J-215716D01*
G01*
G37*
%TD*%
D12*
%TO.C,MX80*%
X-291277239Y-89427093D03*
X-301091045Y-92056695D03*
D13*
X-299634233Y-87525238D03*
D10*
X-296184142Y-90741894D03*
G36*
G01*
X-301030709Y-90277815D02*
X-301030716Y-90277812D01*
G75*
G02*
X-301524989Y-88765547I508996J1003269D01*
G01*
X-300637501Y-87016243D01*
G75*
G02*
X-299125236Y-86521970I1003269J-508996D01*
G01*
X-299125236Y-86521970D01*
G75*
G02*
X-298630963Y-88034235I-508996J-1003269D01*
G01*
X-299518451Y-89783539D01*
G75*
G02*
X-301030716Y-90277812I-1003269J508996D01*
G01*
G37*
D13*
X-295045491Y-85177590D03*
G36*
G01*
X-294717426Y-86852134D02*
X-294718297Y-86852305D01*
G75*
G02*
X-296038138Y-85963896I-215716J1104125D01*
G01*
X-296149616Y-85393306D01*
G75*
G02*
X-295261207Y-84073465I1104125J215716D01*
G01*
X-295261207Y-84073465D01*
G75*
G02*
X-293941366Y-84961874I215716J-1104125D01*
G01*
X-293829888Y-85532464D01*
G75*
G02*
X-294718297Y-86852305I-1104125J-215716D01*
G01*
G37*
%TD*%
D12*
%TO.C,MX79*%
X-296336889Y-65350293D03*
X-306150695Y-67979895D03*
D13*
X-304693883Y-63448438D03*
D10*
X-301243792Y-66665094D03*
G36*
G01*
X-306090359Y-66201015D02*
X-306090366Y-66201012D01*
G75*
G02*
X-306584639Y-64688747I508996J1003269D01*
G01*
X-305697151Y-62939443D01*
G75*
G02*
X-304184886Y-62445170I1003269J-508996D01*
G01*
X-304184886Y-62445170D01*
G75*
G02*
X-303690613Y-63957435I-508996J-1003269D01*
G01*
X-304578101Y-65706739D01*
G75*
G02*
X-306090366Y-66201012I-1003269J508996D01*
G01*
G37*
D13*
X-300105141Y-61100790D03*
G36*
G01*
X-299777076Y-62775334D02*
X-299777947Y-62775505D01*
G75*
G02*
X-301097788Y-61887096I-215716J1104125D01*
G01*
X-301209266Y-61316506D01*
G75*
G02*
X-300320857Y-59996665I1104125J215716D01*
G01*
X-300320857Y-59996665D01*
G75*
G02*
X-299001016Y-60885074I215716J-1104125D01*
G01*
X-298889538Y-61455664D01*
G75*
G02*
X-299777947Y-62775505I-1104125J-215716D01*
G01*
G37*
%TD*%
D12*
%TO.C,MX78*%
X-296670124Y-169799194D03*
X-306483930Y-172428796D03*
D13*
X-305027118Y-167897339D03*
D10*
X-301577027Y-171113995D03*
G36*
G01*
X-306423594Y-170649916D02*
X-306423601Y-170649913D01*
G75*
G02*
X-306917874Y-169137648I508996J1003269D01*
G01*
X-306030386Y-167388344D01*
G75*
G02*
X-304518121Y-166894071I1003269J-508996D01*
G01*
X-304518121Y-166894071D01*
G75*
G02*
X-304023848Y-168406336I-508996J-1003269D01*
G01*
X-304911336Y-170155640D01*
G75*
G02*
X-306423601Y-170649913I-1003269J508996D01*
G01*
G37*
D13*
X-300438376Y-165549691D03*
G36*
G01*
X-300110311Y-167224235D02*
X-300111182Y-167224406D01*
G75*
G02*
X-301431023Y-166335997I-215716J1104125D01*
G01*
X-301542501Y-165765407D01*
G75*
G02*
X-300654092Y-164445566I1104125J215716D01*
G01*
X-300654092Y-164445566D01*
G75*
G02*
X-299334251Y-165333975I215716J-1104125D01*
G01*
X-299222773Y-165904565D01*
G75*
G02*
X-300111182Y-167224406I-1104125J-215716D01*
G01*
G37*
%TD*%
D12*
%TO.C,MX77*%
X-299309895Y-150800701D03*
X-309123701Y-153430303D03*
D13*
X-307666889Y-148898846D03*
D10*
X-304216798Y-152115502D03*
G36*
G01*
X-309063365Y-151651423D02*
X-309063372Y-151651420D01*
G75*
G02*
X-309557645Y-150139155I508996J1003269D01*
G01*
X-308670157Y-148389851D01*
G75*
G02*
X-307157892Y-147895578I1003269J-508996D01*
G01*
X-307157892Y-147895578D01*
G75*
G02*
X-306663619Y-149407843I-508996J-1003269D01*
G01*
X-307551107Y-151157147D01*
G75*
G02*
X-309063372Y-151651420I-1003269J508996D01*
G01*
G37*
D13*
X-303078147Y-146551198D03*
G36*
G01*
X-302750082Y-148225742D02*
X-302750953Y-148225913D01*
G75*
G02*
X-304070794Y-147337504I-215716J1104125D01*
G01*
X-304182272Y-146766914D01*
G75*
G02*
X-303293863Y-145447073I1104125J215716D01*
G01*
X-303293863Y-145447073D01*
G75*
G02*
X-301974022Y-146335482I215716J-1104125D01*
G01*
X-301862544Y-146906072D01*
G75*
G02*
X-302750953Y-148225913I-1104125J-215716D01*
G01*
G37*
%TD*%
D12*
%TO.C,MX76*%
X-302769325Y-131974995D03*
X-312583131Y-134604597D03*
D13*
X-311126319Y-130073140D03*
D10*
X-307676228Y-133289796D03*
G36*
G01*
X-312522795Y-132825717D02*
X-312522802Y-132825714D01*
G75*
G02*
X-313017075Y-131313449I508996J1003269D01*
G01*
X-312129587Y-129564145D01*
G75*
G02*
X-310617322Y-129069872I1003269J-508996D01*
G01*
X-310617322Y-129069872D01*
G75*
G02*
X-310123049Y-130582137I-508996J-1003269D01*
G01*
X-311010537Y-132331441D01*
G75*
G02*
X-312522802Y-132825714I-1003269J508996D01*
G01*
G37*
D13*
X-306537577Y-127725492D03*
G36*
G01*
X-306209512Y-129400036D02*
X-306210383Y-129400207D01*
G75*
G02*
X-307530224Y-128511798I-215716J1104125D01*
G01*
X-307641702Y-127941208D01*
G75*
G02*
X-306753293Y-126621367I1104125J215716D01*
G01*
X-306753293Y-126621367D01*
G75*
G02*
X-305433452Y-127509776I215716J-1104125D01*
G01*
X-305321974Y-128080366D01*
G75*
G02*
X-306210383Y-129400207I-1104125J-215716D01*
G01*
G37*
%TD*%
D12*
%TO.C,MX75*%
X-306223725Y-113178995D03*
X-316037531Y-115808597D03*
D13*
X-314580719Y-111277140D03*
D10*
X-311130628Y-114493796D03*
G36*
G01*
X-315977195Y-114029717D02*
X-315977202Y-114029714D01*
G75*
G02*
X-316471475Y-112517449I508996J1003269D01*
G01*
X-315583987Y-110768145D01*
G75*
G02*
X-314071722Y-110273872I1003269J-508996D01*
G01*
X-314071722Y-110273872D01*
G75*
G02*
X-313577449Y-111786137I-508996J-1003269D01*
G01*
X-314464937Y-113535441D01*
G75*
G02*
X-315977202Y-114029714I-1003269J508996D01*
G01*
G37*
D13*
X-309991977Y-108929492D03*
G36*
G01*
X-309663912Y-110604036D02*
X-309664783Y-110604207D01*
G75*
G02*
X-310984624Y-109715798I-215716J1104125D01*
G01*
X-311096102Y-109145208D01*
G75*
G02*
X-310207693Y-107825367I1104125J215716D01*
G01*
X-310207693Y-107825367D01*
G75*
G02*
X-308887852Y-108713776I215716J-1104125D01*
G01*
X-308776374Y-109284366D01*
G75*
G02*
X-309664783Y-110604207I-1104125J-215716D01*
G01*
G37*
%TD*%
D12*
%TO.C,MX74*%
X-309678125Y-94357595D03*
X-319491931Y-96987197D03*
D13*
X-318035119Y-92455740D03*
D10*
X-314585028Y-95672396D03*
G36*
G01*
X-319431595Y-95208317D02*
X-319431602Y-95208314D01*
G75*
G02*
X-319925875Y-93696049I508996J1003269D01*
G01*
X-319038387Y-91946745D01*
G75*
G02*
X-317526122Y-91452472I1003269J-508996D01*
G01*
X-317526122Y-91452472D01*
G75*
G02*
X-317031849Y-92964737I-508996J-1003269D01*
G01*
X-317919337Y-94714041D01*
G75*
G02*
X-319431602Y-95208314I-1003269J508996D01*
G01*
G37*
D13*
X-313446377Y-90108092D03*
G36*
G01*
X-313118312Y-91782636D02*
X-313119183Y-91782807D01*
G75*
G02*
X-314439024Y-90894398I-215716J1104125D01*
G01*
X-314550502Y-90323808D01*
G75*
G02*
X-313662093Y-89003967I1104125J215716D01*
G01*
X-313662093Y-89003967D01*
G75*
G02*
X-312342252Y-89892376I215716J-1104125D01*
G01*
X-312230774Y-90462966D01*
G75*
G02*
X-313119183Y-91782807I-1104125J-215716D01*
G01*
G37*
%TD*%
D12*
%TO.C,MX73*%
X-314737775Y-70280795D03*
X-324551581Y-72910397D03*
D13*
X-323094769Y-68378940D03*
D10*
X-319644678Y-71595596D03*
G36*
G01*
X-324491245Y-71131517D02*
X-324491252Y-71131514D01*
G75*
G02*
X-324985525Y-69619249I508996J1003269D01*
G01*
X-324098037Y-67869945D01*
G75*
G02*
X-322585772Y-67375672I1003269J-508996D01*
G01*
X-322585772Y-67375672D01*
G75*
G02*
X-322091499Y-68887937I-508996J-1003269D01*
G01*
X-322978987Y-70637241D01*
G75*
G02*
X-324491252Y-71131514I-1003269J508996D01*
G01*
G37*
D13*
X-318506027Y-66031292D03*
G36*
G01*
X-318177962Y-67705836D02*
X-318178833Y-67706007D01*
G75*
G02*
X-319498674Y-66817598I-215716J1104125D01*
G01*
X-319610152Y-66247008D01*
G75*
G02*
X-318721743Y-64927167I1104125J215716D01*
G01*
X-318721743Y-64927167D01*
G75*
G02*
X-317401902Y-65815576I215716J-1104125D01*
G01*
X-317290424Y-66386166D01*
G75*
G02*
X-318178833Y-67706007I-1104125J-215716D01*
G01*
G37*
%TD*%
D10*
%TO.C,MX72*%
X-324711026Y-185858936D03*
X-347773471Y-192038499D03*
D11*
X-328655429Y-171138226D03*
X-351717874Y-177317790D03*
D12*
X-333471897Y-179660199D03*
X-343285703Y-182289801D03*
D13*
X-341828891Y-177758344D03*
D10*
X-338378800Y-180975000D03*
G36*
G01*
X-343225367Y-180510921D02*
X-343225374Y-180510918D01*
G75*
G02*
X-343719647Y-178998653I508996J1003269D01*
G01*
X-342832159Y-177249349D01*
G75*
G02*
X-341319894Y-176755076I1003269J-508996D01*
G01*
X-341319894Y-176755076D01*
G75*
G02*
X-340825621Y-178267341I-508996J-1003269D01*
G01*
X-341713109Y-180016645D01*
G75*
G02*
X-343225374Y-180510918I-1003269J508996D01*
G01*
G37*
D13*
X-337240149Y-175410696D03*
G36*
G01*
X-336912084Y-177085240D02*
X-336912955Y-177085411D01*
G75*
G02*
X-338232796Y-176197002I-215716J1104125D01*
G01*
X-338344274Y-175626412D01*
G75*
G02*
X-337455865Y-174306571I1104125J215716D01*
G01*
X-337455865Y-174306571D01*
G75*
G02*
X-336136024Y-175194980I215716J-1104125D01*
G01*
X-336024546Y-175765570D01*
G75*
G02*
X-336912955Y-177085411I-1104125J-215716D01*
G01*
G37*
%TD*%
D12*
%TO.C,MX71*%
X-317710781Y-155731203D03*
X-327524587Y-158360805D03*
D13*
X-326067775Y-153829348D03*
D10*
X-322617684Y-157046004D03*
G36*
G01*
X-327464251Y-156581925D02*
X-327464258Y-156581922D01*
G75*
G02*
X-327958531Y-155069657I508996J1003269D01*
G01*
X-327071043Y-153320353D01*
G75*
G02*
X-325558778Y-152826080I1003269J-508996D01*
G01*
X-325558778Y-152826080D01*
G75*
G02*
X-325064505Y-154338345I-508996J-1003269D01*
G01*
X-325951993Y-156087649D01*
G75*
G02*
X-327464258Y-156581922I-1003269J508996D01*
G01*
G37*
D13*
X-321479033Y-151481700D03*
G36*
G01*
X-321150968Y-153156244D02*
X-321151839Y-153156415D01*
G75*
G02*
X-322471680Y-152268006I-215716J1104125D01*
G01*
X-322583158Y-151697416D01*
G75*
G02*
X-321694749Y-150377575I1104125J215716D01*
G01*
X-321694749Y-150377575D01*
G75*
G02*
X-320374908Y-151265984I215716J-1104125D01*
G01*
X-320263430Y-151836574D01*
G75*
G02*
X-321151839Y-153156415I-1104125J-215716D01*
G01*
G37*
%TD*%
D12*
%TO.C,MX70*%
X-321170211Y-136905497D03*
X-330984017Y-139535099D03*
D13*
X-329527205Y-135003642D03*
D10*
X-326077114Y-138220298D03*
G36*
G01*
X-330923681Y-137756219D02*
X-330923688Y-137756216D01*
G75*
G02*
X-331417961Y-136243951I508996J1003269D01*
G01*
X-330530473Y-134494647D01*
G75*
G02*
X-329018208Y-134000374I1003269J-508996D01*
G01*
X-329018208Y-134000374D01*
G75*
G02*
X-328523935Y-135512639I-508996J-1003269D01*
G01*
X-329411423Y-137261943D01*
G75*
G02*
X-330923688Y-137756216I-1003269J508996D01*
G01*
G37*
D13*
X-324938463Y-132655994D03*
G36*
G01*
X-324610398Y-134330538D02*
X-324611269Y-134330709D01*
G75*
G02*
X-325931110Y-133442300I-215716J1104125D01*
G01*
X-326042588Y-132871710D01*
G75*
G02*
X-325154179Y-131551869I1104125J215716D01*
G01*
X-325154179Y-131551869D01*
G75*
G02*
X-323834338Y-132440278I215716J-1104125D01*
G01*
X-323722860Y-133010868D01*
G75*
G02*
X-324611269Y-134330709I-1104125J-215716D01*
G01*
G37*
%TD*%
D12*
%TO.C,MX69*%
X-324624611Y-118109497D03*
X-334438417Y-120739099D03*
D13*
X-332981605Y-116207642D03*
D10*
X-329531514Y-119424298D03*
G36*
G01*
X-334378081Y-118960219D02*
X-334378088Y-118960216D01*
G75*
G02*
X-334872361Y-117447951I508996J1003269D01*
G01*
X-333984873Y-115698647D01*
G75*
G02*
X-332472608Y-115204374I1003269J-508996D01*
G01*
X-332472608Y-115204374D01*
G75*
G02*
X-331978335Y-116716639I-508996J-1003269D01*
G01*
X-332865823Y-118465943D01*
G75*
G02*
X-334378088Y-118960216I-1003269J508996D01*
G01*
G37*
D13*
X-328392863Y-113859994D03*
G36*
G01*
X-328064798Y-115534538D02*
X-328065669Y-115534709D01*
G75*
G02*
X-329385510Y-114646300I-215716J1104125D01*
G01*
X-329496988Y-114075710D01*
G75*
G02*
X-328608579Y-112755869I1104125J215716D01*
G01*
X-328608579Y-112755869D01*
G75*
G02*
X-327288738Y-113644278I215716J-1104125D01*
G01*
X-327177260Y-114214868D01*
G75*
G02*
X-328065669Y-115534709I-1104125J-215716D01*
G01*
G37*
%TD*%
D12*
%TO.C,MX68*%
X-328079011Y-99288097D03*
X-337892817Y-101917699D03*
D13*
X-336436005Y-97386242D03*
D10*
X-332985914Y-100602898D03*
G36*
G01*
X-337832481Y-100138819D02*
X-337832488Y-100138816D01*
G75*
G02*
X-338326761Y-98626551I508996J1003269D01*
G01*
X-337439273Y-96877247D01*
G75*
G02*
X-335927008Y-96382974I1003269J-508996D01*
G01*
X-335927008Y-96382974D01*
G75*
G02*
X-335432735Y-97895239I-508996J-1003269D01*
G01*
X-336320223Y-99644543D01*
G75*
G02*
X-337832488Y-100138816I-1003269J508996D01*
G01*
G37*
D13*
X-331847263Y-95038594D03*
G36*
G01*
X-331519198Y-96713138D02*
X-331520069Y-96713309D01*
G75*
G02*
X-332839910Y-95824900I-215716J1104125D01*
G01*
X-332951388Y-95254310D01*
G75*
G02*
X-332062979Y-93934469I1104125J215716D01*
G01*
X-332062979Y-93934469D01*
G75*
G02*
X-330743138Y-94822878I215716J-1104125D01*
G01*
X-330631660Y-95393468D01*
G75*
G02*
X-331520069Y-96713309I-1104125J-215716D01*
G01*
G37*
%TD*%
D12*
%TO.C,MX67*%
X-333138661Y-75211297D03*
X-342952467Y-77840899D03*
D13*
X-341495655Y-73309442D03*
D10*
X-338045564Y-76526098D03*
G36*
G01*
X-342892131Y-76062019D02*
X-342892138Y-76062016D01*
G75*
G02*
X-343386411Y-74549751I508996J1003269D01*
G01*
X-342498923Y-72800447D01*
G75*
G02*
X-340986658Y-72306174I1003269J-508996D01*
G01*
X-340986658Y-72306174D01*
G75*
G02*
X-340492385Y-73818439I-508996J-1003269D01*
G01*
X-341379873Y-75567743D01*
G75*
G02*
X-342892138Y-76062016I-1003269J508996D01*
G01*
G37*
D13*
X-336906913Y-70961794D03*
G36*
G01*
X-336578848Y-72636338D02*
X-336579719Y-72636509D01*
G75*
G02*
X-337899560Y-71748100I-215716J1104125D01*
G01*
X-338011038Y-71177510D01*
G75*
G02*
X-337122629Y-69857669I1104125J215716D01*
G01*
X-337122629Y-69857669D01*
G75*
G02*
X-335802788Y-70746078I215716J-1104125D01*
G01*
X-335691310Y-71316668D01*
G75*
G02*
X-336579719Y-72636509I-1104125J-215716D01*
G01*
G37*
%TD*%
D12*
%TO.C,MX66*%
X-354512553Y-165592207D03*
X-364326359Y-168221809D03*
D13*
X-362869547Y-163690352D03*
D10*
X-359419456Y-166907008D03*
G36*
G01*
X-364266023Y-166442929D02*
X-364266030Y-166442926D01*
G75*
G02*
X-364760303Y-164930661I508996J1003269D01*
G01*
X-363872815Y-163181357D01*
G75*
G02*
X-362360550Y-162687084I1003269J-508996D01*
G01*
X-362360550Y-162687084D01*
G75*
G02*
X-361866277Y-164199349I-508996J-1003269D01*
G01*
X-362753765Y-165948653D01*
G75*
G02*
X-364266030Y-166442926I-1003269J508996D01*
G01*
G37*
D13*
X-358280805Y-161342704D03*
G36*
G01*
X-357952740Y-163017248D02*
X-357953611Y-163017419D01*
G75*
G02*
X-359273452Y-162129010I-215716J1104125D01*
G01*
X-359384930Y-161558420D01*
G75*
G02*
X-358496521Y-160238579I1104125J215716D01*
G01*
X-358496521Y-160238579D01*
G75*
G02*
X-357176680Y-161126988I215716J-1104125D01*
G01*
X-357065202Y-161697578D01*
G75*
G02*
X-357953611Y-163017419I-1104125J-215716D01*
G01*
G37*
%TD*%
D12*
%TO.C,MX65*%
X-336111667Y-160661705D03*
X-345925473Y-163291307D03*
D13*
X-344468661Y-158759850D03*
D10*
X-341018570Y-161976506D03*
G36*
G01*
X-345865137Y-161512427D02*
X-345865144Y-161512424D01*
G75*
G02*
X-346359417Y-160000159I508996J1003269D01*
G01*
X-345471929Y-158250855D01*
G75*
G02*
X-343959664Y-157756582I1003269J-508996D01*
G01*
X-343959664Y-157756582D01*
G75*
G02*
X-343465391Y-159268847I-508996J-1003269D01*
G01*
X-344352879Y-161018151D01*
G75*
G02*
X-345865144Y-161512424I-1003269J508996D01*
G01*
G37*
D13*
X-339879919Y-156412202D03*
G36*
G01*
X-339551854Y-158086746D02*
X-339552725Y-158086917D01*
G75*
G02*
X-340872566Y-157198508I-215716J1104125D01*
G01*
X-340984044Y-156627918D01*
G75*
G02*
X-340095635Y-155308077I1104125J215716D01*
G01*
X-340095635Y-155308077D01*
G75*
G02*
X-338775794Y-156196486I215716J-1104125D01*
G01*
X-338664316Y-156767076D01*
G75*
G02*
X-339552725Y-158086917I-1104125J-215716D01*
G01*
G37*
%TD*%
%TO.C,MX64*%
G36*
G01*
X-343011284Y-139261040D02*
X-343012155Y-139261211D01*
G75*
G02*
X-344331996Y-138372802I-215716J1104125D01*
G01*
X-344443474Y-137802212D01*
G75*
G02*
X-343555065Y-136482371I1104125J215716D01*
G01*
X-343555065Y-136482371D01*
G75*
G02*
X-342235224Y-137370780I215716J-1104125D01*
G01*
X-342123746Y-137941370D01*
G75*
G02*
X-343012155Y-139261211I-1104125J-215716D01*
G01*
G37*
X-343339349Y-137586496D03*
G36*
G01*
X-349324567Y-142686721D02*
X-349324574Y-142686718D01*
G75*
G02*
X-349818847Y-141174453I508996J1003269D01*
G01*
X-348931359Y-139425149D01*
G75*
G02*
X-347419094Y-138930876I1003269J-508996D01*
G01*
X-347419094Y-138930876D01*
G75*
G02*
X-346924821Y-140443141I-508996J-1003269D01*
G01*
X-347812309Y-142192445D01*
G75*
G02*
X-349324574Y-142686718I-1003269J508996D01*
G01*
G37*
D10*
X-344478000Y-143150800D03*
D13*
X-347928091Y-139934144D03*
D12*
X-349384903Y-144465601D03*
X-339571097Y-141835999D03*
%TD*%
%TO.C,MX63*%
G36*
G01*
X-346465684Y-120465040D02*
X-346466555Y-120465211D01*
G75*
G02*
X-347786396Y-119576802I-215716J1104125D01*
G01*
X-347897874Y-119006212D01*
G75*
G02*
X-347009465Y-117686371I1104125J215716D01*
G01*
X-347009465Y-117686371D01*
G75*
G02*
X-345689624Y-118574780I215716J-1104125D01*
G01*
X-345578146Y-119145370D01*
G75*
G02*
X-346466555Y-120465211I-1104125J-215716D01*
G01*
G37*
D13*
X-346793749Y-118790496D03*
G36*
G01*
X-352778967Y-123890721D02*
X-352778974Y-123890718D01*
G75*
G02*
X-353273247Y-122378453I508996J1003269D01*
G01*
X-352385759Y-120629149D01*
G75*
G02*
X-350873494Y-120134876I1003269J-508996D01*
G01*
X-350873494Y-120134876D01*
G75*
G02*
X-350379221Y-121647141I-508996J-1003269D01*
G01*
X-351266709Y-123396445D01*
G75*
G02*
X-352778974Y-123890718I-1003269J508996D01*
G01*
G37*
D10*
X-347932400Y-124354800D03*
D13*
X-351382491Y-121138144D03*
D12*
X-352839303Y-125669601D03*
X-343025497Y-123039999D03*
%TD*%
%TO.C,MX62*%
X-346479897Y-104218599D03*
X-356293703Y-106848201D03*
D13*
X-354836891Y-102316744D03*
D10*
X-351386800Y-105533400D03*
G36*
G01*
X-356233367Y-105069321D02*
X-356233374Y-105069318D01*
G75*
G02*
X-356727647Y-103557053I508996J1003269D01*
G01*
X-355840159Y-101807749D01*
G75*
G02*
X-354327894Y-101313476I1003269J-508996D01*
G01*
X-354327894Y-101313476D01*
G75*
G02*
X-353833621Y-102825741I-508996J-1003269D01*
G01*
X-354721109Y-104575045D01*
G75*
G02*
X-356233374Y-105069318I-1003269J508996D01*
G01*
G37*
D13*
X-350248149Y-99969096D03*
G36*
G01*
X-349920084Y-101643640D02*
X-349920955Y-101643811D01*
G75*
G02*
X-351240796Y-100755402I-215716J1104125D01*
G01*
X-351352274Y-100184812D01*
G75*
G02*
X-350463865Y-98864971I1104125J215716D01*
G01*
X-350463865Y-98864971D01*
G75*
G02*
X-349144024Y-99753380I215716J-1104125D01*
G01*
X-349032546Y-100323970D01*
G75*
G02*
X-349920955Y-101643811I-1104125J-215716D01*
G01*
G37*
%TD*%
D12*
%TO.C,MX61*%
X-351539547Y-80141799D03*
X-361353353Y-82771401D03*
D13*
X-359896541Y-78239944D03*
D10*
X-356446450Y-81456600D03*
G36*
G01*
X-361293017Y-80992521D02*
X-361293024Y-80992518D01*
G75*
G02*
X-361787297Y-79480253I508996J1003269D01*
G01*
X-360899809Y-77730949D01*
G75*
G02*
X-359387544Y-77236676I1003269J-508996D01*
G01*
X-359387544Y-77236676D01*
G75*
G02*
X-358893271Y-78748941I-508996J-1003269D01*
G01*
X-359780759Y-80498245D01*
G75*
G02*
X-361293024Y-80992518I-1003269J508996D01*
G01*
G37*
D13*
X-355307799Y-75892296D03*
G36*
G01*
X-354979734Y-77566840D02*
X-354980605Y-77567011D01*
G75*
G02*
X-356300446Y-76678602I-215716J1104125D01*
G01*
X-356411924Y-76108012D01*
G75*
G02*
X-355523515Y-74788171I1104125J215716D01*
G01*
X-355523515Y-74788171D01*
G75*
G02*
X-354203674Y-75676580I215716J-1104125D01*
G01*
X-354092196Y-76247170D01*
G75*
G02*
X-354980605Y-77567011I-1104125J-215716D01*
G01*
G37*
%TD*%
D12*
%TO.C,MX60*%
X-383087553Y-168221809D03*
X-392901359Y-165592207D03*
D13*
X-389373994Y-162396257D03*
D10*
X-387994456Y-166907008D03*
G36*
G01*
X-391959667Y-164081821D02*
X-391959671Y-164081814D01*
G75*
G02*
X-391631591Y-162525018I942438J614358D01*
G01*
X-389988351Y-161453820D01*
G75*
G02*
X-388431555Y-161781900I614358J-942438D01*
G01*
X-388431555Y-161781900D01*
G75*
G02*
X-388759635Y-163338696I-942438J-614358D01*
G01*
X-390402875Y-164409894D01*
G75*
G02*
X-391959671Y-164081814I-614358J942438D01*
G01*
G37*
D13*
X-384226204Y-162657505D03*
G36*
G01*
X-384779363Y-164271735D02*
X-384780203Y-164271447D01*
G75*
G02*
X-385479014Y-162842142I365247J1064058D01*
G01*
X-385290262Y-162292258D01*
G75*
G02*
X-383860957Y-161593447I1064058J-365247D01*
G01*
X-383860957Y-161593447D01*
G75*
G02*
X-383162146Y-163022752I-365247J-1064058D01*
G01*
X-383350898Y-163572636D01*
G75*
G02*
X-384780203Y-164271447I-1064058J365247D01*
G01*
G37*
%TD*%
D12*
%TO.C,MX59*%
X-401488439Y-163291307D03*
X-411302245Y-160661705D03*
D13*
X-407774880Y-157465755D03*
D10*
X-406395342Y-161976506D03*
G36*
G01*
X-410360553Y-159151319D02*
X-410360557Y-159151312D01*
G75*
G02*
X-410032477Y-157594516I942438J614358D01*
G01*
X-408389237Y-156523318D01*
G75*
G02*
X-406832441Y-156851398I614358J-942438D01*
G01*
X-406832441Y-156851398D01*
G75*
G02*
X-407160521Y-158408194I-942438J-614358D01*
G01*
X-408803761Y-159479392D01*
G75*
G02*
X-410360557Y-159151312I-614358J942438D01*
G01*
G37*
D13*
X-402627090Y-157727003D03*
G36*
G01*
X-403180249Y-159341233D02*
X-403181089Y-159340945D01*
G75*
G02*
X-403879900Y-157911640I365247J1064058D01*
G01*
X-403691148Y-157361756D01*
G75*
G02*
X-402261843Y-156662945I1064058J-365247D01*
G01*
X-402261843Y-156662945D01*
G75*
G02*
X-401563032Y-158092250I-365247J-1064058D01*
G01*
X-401751784Y-158642134D01*
G75*
G02*
X-403181089Y-159340945I-1064058J365247D01*
G01*
G37*
%TD*%
D12*
%TO.C,MX58*%
X-398059439Y-144495307D03*
X-407873245Y-141865705D03*
D13*
X-404345880Y-138669755D03*
D10*
X-402966342Y-143180506D03*
G36*
G01*
X-406931553Y-140355319D02*
X-406931557Y-140355312D01*
G75*
G02*
X-406603477Y-138798516I942438J614358D01*
G01*
X-404960237Y-137727318D01*
G75*
G02*
X-403403441Y-138055398I614358J-942438D01*
G01*
X-403403441Y-138055398D01*
G75*
G02*
X-403731521Y-139612194I-942438J-614358D01*
G01*
X-405374761Y-140683392D01*
G75*
G02*
X-406931557Y-140355312I-614358J942438D01*
G01*
G37*
D13*
X-399198090Y-138931003D03*
G36*
G01*
X-399751249Y-140545233D02*
X-399752089Y-140544945D01*
G75*
G02*
X-400450900Y-139115640I365247J1064058D01*
G01*
X-400262148Y-138565756D01*
G75*
G02*
X-398832843Y-137866945I1064058J-365247D01*
G01*
X-398832843Y-137866945D01*
G75*
G02*
X-398134032Y-139296250I-365247J-1064058D01*
G01*
X-398322784Y-139846134D01*
G75*
G02*
X-399752089Y-140544945I-1064058J365247D01*
G01*
G37*
%TD*%
D12*
%TO.C,MX57*%
X-394871202Y-125572307D03*
X-404685008Y-122942705D03*
D13*
X-401157643Y-119746755D03*
D10*
X-399778105Y-124257506D03*
G36*
G01*
X-403743316Y-121432319D02*
X-403743320Y-121432312D01*
G75*
G02*
X-403415240Y-119875516I942438J614358D01*
G01*
X-401772000Y-118804318D01*
G75*
G02*
X-400215204Y-119132398I614358J-942438D01*
G01*
X-400215204Y-119132398D01*
G75*
G02*
X-400543284Y-120689194I-942438J-614358D01*
G01*
X-402186524Y-121760392D01*
G75*
G02*
X-403743320Y-121432312I-614358J942438D01*
G01*
G37*
D13*
X-396009853Y-120008003D03*
G36*
G01*
X-396563012Y-121622233D02*
X-396563852Y-121621945D01*
G75*
G02*
X-397262663Y-120192640I365247J1064058D01*
G01*
X-397073911Y-119642756D01*
G75*
G02*
X-395644606Y-118943945I1064058J-365247D01*
G01*
X-395644606Y-118943945D01*
G75*
G02*
X-394945795Y-120373250I-365247J-1064058D01*
G01*
X-395134547Y-120923134D01*
G75*
G02*
X-396563852Y-121621945I-1064058J365247D01*
G01*
G37*
%TD*%
D12*
%TO.C,MX56*%
X-391563205Y-106759304D03*
X-401377011Y-104129702D03*
D13*
X-397849646Y-100933752D03*
D10*
X-396470108Y-105444503D03*
G36*
G01*
X-400435319Y-102619316D02*
X-400435323Y-102619309D01*
G75*
G02*
X-400107243Y-101062513I942438J614358D01*
G01*
X-398464003Y-99991315D01*
G75*
G02*
X-396907207Y-100319395I614358J-942438D01*
G01*
X-396907207Y-100319395D01*
G75*
G02*
X-397235287Y-101876191I-942438J-614358D01*
G01*
X-398878527Y-102947389D01*
G75*
G02*
X-400435323Y-102619309I-614358J942438D01*
G01*
G37*
D13*
X-392701856Y-101195000D03*
G36*
G01*
X-393255015Y-102809230D02*
X-393255855Y-102808942D01*
G75*
G02*
X-393954666Y-101379637I365247J1064058D01*
G01*
X-393765914Y-100829753D01*
G75*
G02*
X-392336609Y-100130942I1064058J-365247D01*
G01*
X-392336609Y-100130942D01*
G75*
G02*
X-391637798Y-101560247I-365247J-1064058D01*
G01*
X-391826550Y-102110131D01*
G75*
G02*
X-393255855Y-102808942I-1064058J365247D01*
G01*
G37*
%TD*%
D12*
%TO.C,MX55*%
X-386864205Y-82756804D03*
X-396678011Y-80127202D03*
D13*
X-393150646Y-76931252D03*
D10*
X-391771108Y-81442003D03*
G36*
G01*
X-395736319Y-78616816D02*
X-395736323Y-78616809D01*
G75*
G02*
X-395408243Y-77060013I942438J614358D01*
G01*
X-393765003Y-75988815D01*
G75*
G02*
X-392208207Y-76316895I614358J-942438D01*
G01*
X-392208207Y-76316895D01*
G75*
G02*
X-392536287Y-77873691I-942438J-614358D01*
G01*
X-394179527Y-78944889D01*
G75*
G02*
X-395736323Y-78616809I-614358J942438D01*
G01*
G37*
D13*
X-388002856Y-77192500D03*
G36*
G01*
X-388556015Y-78806730D02*
X-388556855Y-78806442D01*
G75*
G02*
X-389255666Y-77377137I365247J1064058D01*
G01*
X-389066914Y-76827253D01*
G75*
G02*
X-387637609Y-76128442I1064058J-365247D01*
G01*
X-387637609Y-76128442D01*
G75*
G02*
X-386938798Y-77557747I-365247J-1064058D01*
G01*
X-387127550Y-78107631D01*
G75*
G02*
X-388556855Y-78806442I-1064058J365247D01*
G01*
G37*
%TD*%
D12*
%TO.C,MX53*%
X-419889325Y-158360805D03*
X-429703131Y-155731203D03*
D13*
X-426175766Y-152535253D03*
D10*
X-424796228Y-157046004D03*
G36*
G01*
X-428761439Y-154220817D02*
X-428761443Y-154220810D01*
G75*
G02*
X-428433363Y-152664014I942438J614358D01*
G01*
X-426790123Y-151592816D01*
G75*
G02*
X-425233327Y-151920896I614358J-942438D01*
G01*
X-425233327Y-151920896D01*
G75*
G02*
X-425561407Y-153477692I-942438J-614358D01*
G01*
X-427204647Y-154548890D01*
G75*
G02*
X-428761443Y-154220810I-614358J942438D01*
G01*
G37*
D13*
X-421027976Y-152796501D03*
G36*
G01*
X-421581135Y-154410731D02*
X-421581975Y-154410443D01*
G75*
G02*
X-422280786Y-152981138I365247J1064058D01*
G01*
X-422092034Y-152431254D01*
G75*
G02*
X-420662729Y-151732443I1064058J-365247D01*
G01*
X-420662729Y-151732443D01*
G75*
G02*
X-419963918Y-153161748I-365247J-1064058D01*
G01*
X-420152670Y-153711632D01*
G75*
G02*
X-421581975Y-154410443I-1064058J365247D01*
G01*
G37*
%TD*%
D12*
%TO.C,MX52*%
X-416460325Y-139564805D03*
X-426274131Y-136935203D03*
D13*
X-422746766Y-133739253D03*
D10*
X-421367228Y-138250004D03*
G36*
G01*
X-425332439Y-135424817D02*
X-425332443Y-135424810D01*
G75*
G02*
X-425004363Y-133868014I942438J614358D01*
G01*
X-423361123Y-132796816D01*
G75*
G02*
X-421804327Y-133124896I614358J-942438D01*
G01*
X-421804327Y-133124896D01*
G75*
G02*
X-422132407Y-134681692I-942438J-614358D01*
G01*
X-423775647Y-135752890D01*
G75*
G02*
X-425332443Y-135424810I-614358J942438D01*
G01*
G37*
D13*
X-417598976Y-134000501D03*
G36*
G01*
X-418152135Y-135614731D02*
X-418152975Y-135614443D01*
G75*
G02*
X-418851786Y-134185138I365247J1064058D01*
G01*
X-418663034Y-133635254D01*
G75*
G02*
X-417233729Y-132936443I1064058J-365247D01*
G01*
X-417233729Y-132936443D01*
G75*
G02*
X-416534918Y-134365748I-365247J-1064058D01*
G01*
X-416723670Y-134915632D01*
G75*
G02*
X-418152975Y-135614443I-1064058J365247D01*
G01*
G37*
%TD*%
D12*
%TO.C,MX51*%
X-413272088Y-120641805D03*
X-423085894Y-118012203D03*
D13*
X-419558529Y-114816253D03*
D10*
X-418178991Y-119327004D03*
G36*
G01*
X-422144202Y-116501817D02*
X-422144206Y-116501810D01*
G75*
G02*
X-421816126Y-114945014I942438J614358D01*
G01*
X-420172886Y-113873816D01*
G75*
G02*
X-418616090Y-114201896I614358J-942438D01*
G01*
X-418616090Y-114201896D01*
G75*
G02*
X-418944170Y-115758692I-942438J-614358D01*
G01*
X-420587410Y-116829890D01*
G75*
G02*
X-422144206Y-116501810I-614358J942438D01*
G01*
G37*
D13*
X-414410739Y-115077501D03*
G36*
G01*
X-414963898Y-116691731D02*
X-414964738Y-116691443D01*
G75*
G02*
X-415663549Y-115262138I365247J1064058D01*
G01*
X-415474797Y-114712254D01*
G75*
G02*
X-414045492Y-114013443I1064058J-365247D01*
G01*
X-414045492Y-114013443D01*
G75*
G02*
X-413346681Y-115442748I-365247J-1064058D01*
G01*
X-413535433Y-115992632D01*
G75*
G02*
X-414964738Y-116691443I-1064058J365247D01*
G01*
G37*
%TD*%
D12*
%TO.C,MX50*%
X-409964091Y-101828802D03*
X-419777897Y-99199200D03*
D13*
X-416250532Y-96003250D03*
D10*
X-414870994Y-100514001D03*
G36*
G01*
X-418836205Y-97688814D02*
X-418836209Y-97688807D01*
G75*
G02*
X-418508129Y-96132011I942438J614358D01*
G01*
X-416864889Y-95060813D01*
G75*
G02*
X-415308093Y-95388893I614358J-942438D01*
G01*
X-415308093Y-95388893D01*
G75*
G02*
X-415636173Y-96945689I-942438J-614358D01*
G01*
X-417279413Y-98016887D01*
G75*
G02*
X-418836209Y-97688807I-614358J942438D01*
G01*
G37*
D13*
X-411102742Y-96264498D03*
G36*
G01*
X-411655901Y-97878728D02*
X-411656741Y-97878440D01*
G75*
G02*
X-412355552Y-96449135I365247J1064058D01*
G01*
X-412166800Y-95899251D01*
G75*
G02*
X-410737495Y-95200440I1064058J-365247D01*
G01*
X-410737495Y-95200440D01*
G75*
G02*
X-410038684Y-96629745I-365247J-1064058D01*
G01*
X-410227436Y-97179629D01*
G75*
G02*
X-411656741Y-97878440I-1064058J365247D01*
G01*
G37*
%TD*%
D12*
%TO.C,MX49*%
X-405265091Y-77826302D03*
X-415078897Y-75196700D03*
D13*
X-411551532Y-72000750D03*
D10*
X-410171994Y-76511501D03*
G36*
G01*
X-414137205Y-73686314D02*
X-414137209Y-73686307D01*
G75*
G02*
X-413809129Y-72129511I942438J614358D01*
G01*
X-412165889Y-71058313D01*
G75*
G02*
X-410609093Y-71386393I614358J-942438D01*
G01*
X-410609093Y-71386393D01*
G75*
G02*
X-410937173Y-72943189I-942438J-614358D01*
G01*
X-412580413Y-74014387D01*
G75*
G02*
X-414137209Y-73686307I-614358J942438D01*
G01*
G37*
D13*
X-406403742Y-72261998D03*
G36*
G01*
X-406956901Y-73876228D02*
X-406957741Y-73875940D01*
G75*
G02*
X-407656552Y-72446635I365247J1064058D01*
G01*
X-407467800Y-71896751D01*
G75*
G02*
X-406038495Y-71197940I1064058J-365247D01*
G01*
X-406038495Y-71197940D01*
G75*
G02*
X-405339684Y-72627245I-365247J-1064058D01*
G01*
X-405528436Y-73177129D01*
G75*
G02*
X-406957741Y-73875940I-1064058J365247D01*
G01*
G37*
%TD*%
%TO.C,MX47*%
G36*
G01*
X-439982021Y-149480229D02*
X-439982861Y-149479941D01*
G75*
G02*
X-440681672Y-148050636I365247J1064058D01*
G01*
X-440492920Y-147500752D01*
G75*
G02*
X-439063615Y-146801941I1064058J-365247D01*
G01*
X-439063615Y-146801941D01*
G75*
G02*
X-438364804Y-148231246I-365247J-1064058D01*
G01*
X-438553556Y-148781130D01*
G75*
G02*
X-439982861Y-149479941I-1064058J365247D01*
G01*
G37*
X-439428862Y-147865999D03*
G36*
G01*
X-447162325Y-149290315D02*
X-447162329Y-149290308D01*
G75*
G02*
X-446834249Y-147733512I942438J614358D01*
G01*
X-445191009Y-146662314D01*
G75*
G02*
X-443634213Y-146990394I614358J-942438D01*
G01*
X-443634213Y-146990394D01*
G75*
G02*
X-443962293Y-148547190I-942438J-614358D01*
G01*
X-445605533Y-149618388D01*
G75*
G02*
X-447162329Y-149290308I-614358J942438D01*
G01*
G37*
D10*
X-443197114Y-152115502D03*
D13*
X-444576652Y-147604751D03*
D12*
X-448104017Y-150800701D03*
X-438290211Y-153430303D03*
%TD*%
%TO.C,MX46*%
G36*
G01*
X-436553021Y-130684229D02*
X-436553861Y-130683941D01*
G75*
G02*
X-437252672Y-129254636I365247J1064058D01*
G01*
X-437063920Y-128704752D01*
G75*
G02*
X-435634615Y-128005941I1064058J-365247D01*
G01*
X-435634615Y-128005941D01*
G75*
G02*
X-434935804Y-129435246I-365247J-1064058D01*
G01*
X-435124556Y-129985130D01*
G75*
G02*
X-436553861Y-130683941I-1064058J365247D01*
G01*
G37*
D13*
X-435999862Y-129069999D03*
G36*
G01*
X-443733325Y-130494315D02*
X-443733329Y-130494308D01*
G75*
G02*
X-443405249Y-128937512I942438J614358D01*
G01*
X-441762009Y-127866314D01*
G75*
G02*
X-440205213Y-128194394I614358J-942438D01*
G01*
X-440205213Y-128194394D01*
G75*
G02*
X-440533293Y-129751190I-942438J-614358D01*
G01*
X-442176533Y-130822388D01*
G75*
G02*
X-443733329Y-130494308I-614358J942438D01*
G01*
G37*
D10*
X-439768114Y-133319502D03*
D13*
X-441147652Y-128808751D03*
D12*
X-444675017Y-132004701D03*
X-434861211Y-134634303D03*
%TD*%
%TO.C,MX45*%
G36*
G01*
X-433364784Y-111761229D02*
X-433365624Y-111760941D01*
G75*
G02*
X-434064435Y-110331636I365247J1064058D01*
G01*
X-433875683Y-109781752D01*
G75*
G02*
X-432446378Y-109082941I1064058J-365247D01*
G01*
X-432446378Y-109082941D01*
G75*
G02*
X-431747567Y-110512246I-365247J-1064058D01*
G01*
X-431936319Y-111062130D01*
G75*
G02*
X-433365624Y-111760941I-1064058J365247D01*
G01*
G37*
D13*
X-432811625Y-110146999D03*
G36*
G01*
X-440545088Y-111571315D02*
X-440545092Y-111571308D01*
G75*
G02*
X-440217012Y-110014512I942438J614358D01*
G01*
X-438573772Y-108943314D01*
G75*
G02*
X-437016976Y-109271394I614358J-942438D01*
G01*
X-437016976Y-109271394D01*
G75*
G02*
X-437345056Y-110828190I-942438J-614358D01*
G01*
X-438988296Y-111899388D01*
G75*
G02*
X-440545092Y-111571308I-614358J942438D01*
G01*
G37*
D10*
X-436579877Y-114396502D03*
D13*
X-437959415Y-109885751D03*
D12*
X-441486780Y-113081701D03*
X-431672974Y-115711303D03*
%TD*%
%TO.C,MX44*%
X-428364977Y-96898300D03*
X-438178783Y-94268698D03*
D13*
X-434651418Y-91072748D03*
D10*
X-433271880Y-95583499D03*
G36*
G01*
X-437237091Y-92758312D02*
X-437237095Y-92758305D01*
G75*
G02*
X-436909015Y-91201509I942438J614358D01*
G01*
X-435265775Y-90130311D01*
G75*
G02*
X-433708979Y-90458391I614358J-942438D01*
G01*
X-433708979Y-90458391D01*
G75*
G02*
X-434037059Y-92015187I-942438J-614358D01*
G01*
X-435680299Y-93086385D01*
G75*
G02*
X-437237095Y-92758305I-614358J942438D01*
G01*
G37*
D13*
X-429503628Y-91333996D03*
G36*
G01*
X-430056787Y-92948226D02*
X-430057627Y-92947938D01*
G75*
G02*
X-430756438Y-91518633I365247J1064058D01*
G01*
X-430567686Y-90968749D01*
G75*
G02*
X-429138381Y-90269938I1064058J-365247D01*
G01*
X-429138381Y-90269938D01*
G75*
G02*
X-428439570Y-91699243I-365247J-1064058D01*
G01*
X-428628322Y-92249127D01*
G75*
G02*
X-430057627Y-92947938I-1064058J365247D01*
G01*
G37*
%TD*%
D12*
%TO.C,MX43*%
X-423665977Y-72895800D03*
X-433479783Y-70266198D03*
D13*
X-429952418Y-67070248D03*
D10*
X-428572880Y-71580999D03*
G36*
G01*
X-432538091Y-68755812D02*
X-432538095Y-68755805D01*
G75*
G02*
X-432210015Y-67199009I942438J614358D01*
G01*
X-430566775Y-66127811D01*
G75*
G02*
X-429009979Y-66455891I614358J-942438D01*
G01*
X-429009979Y-66455891D01*
G75*
G02*
X-429338059Y-68012687I-942438J-614358D01*
G01*
X-430981299Y-69083885D01*
G75*
G02*
X-432538095Y-68755805I-614358J942438D01*
G01*
G37*
D13*
X-424804628Y-67331496D03*
G36*
G01*
X-425357787Y-68945726D02*
X-425358627Y-68945438D01*
G75*
G02*
X-426057438Y-67516133I365247J1064058D01*
G01*
X-425868686Y-66966249D01*
G75*
G02*
X-424439381Y-66267438I1064058J-365247D01*
G01*
X-424439381Y-66267438D01*
G75*
G02*
X-423740570Y-67696743I-365247J-1064058D01*
G01*
X-423929322Y-68246627D01*
G75*
G02*
X-425358627Y-68945438I-1064058J365247D01*
G01*
G37*
%TD*%
D12*
%TO.C,MX42*%
X-459379697Y-167499001D03*
X-469193503Y-164869399D03*
D13*
X-465666138Y-161673449D03*
D10*
X-464286600Y-166184200D03*
G36*
G01*
X-468251811Y-163359013D02*
X-468251815Y-163359006D01*
G75*
G02*
X-467923735Y-161802210I942438J614358D01*
G01*
X-466280495Y-160731012D01*
G75*
G02*
X-464723699Y-161059092I614358J-942438D01*
G01*
X-464723699Y-161059092D01*
G75*
G02*
X-465051779Y-162615888I-942438J-614358D01*
G01*
X-466695019Y-163687086D01*
G75*
G02*
X-468251815Y-163359006I-614358J942438D01*
G01*
G37*
D13*
X-460518348Y-161934697D03*
G36*
G01*
X-461071507Y-163548927D02*
X-461072347Y-163548639D01*
G75*
G02*
X-461771158Y-162119334I365247J1064058D01*
G01*
X-461582406Y-161569450D01*
G75*
G02*
X-460153101Y-160870639I1064058J-365247D01*
G01*
X-460153101Y-160870639D01*
G75*
G02*
X-459454290Y-162299944I-365247J-1064058D01*
G01*
X-459643042Y-162849828D01*
G75*
G02*
X-461072347Y-163548639I-1064058J365247D01*
G01*
G37*
%TD*%
D12*
%TO.C,MX41*%
X-456691097Y-148499801D03*
X-466504903Y-145870199D03*
D13*
X-462977538Y-142674249D03*
D10*
X-461598000Y-147185000D03*
G36*
G01*
X-465563211Y-144359813D02*
X-465563215Y-144359806D01*
G75*
G02*
X-465235135Y-142803010I942438J614358D01*
G01*
X-463591895Y-141731812D01*
G75*
G02*
X-462035099Y-142059892I614358J-942438D01*
G01*
X-462035099Y-142059892D01*
G75*
G02*
X-462363179Y-143616688I-942438J-614358D01*
G01*
X-464006419Y-144687886D01*
G75*
G02*
X-465563215Y-144359806I-614358J942438D01*
G01*
G37*
D13*
X-457829748Y-142935497D03*
G36*
G01*
X-458382907Y-144549727D02*
X-458383747Y-144549439D01*
G75*
G02*
X-459082558Y-143120134I365247J1064058D01*
G01*
X-458893806Y-142570250D01*
G75*
G02*
X-457464501Y-141871439I1064058J-365247D01*
G01*
X-457464501Y-141871439D01*
G75*
G02*
X-456765690Y-143300744I-365247J-1064058D01*
G01*
X-456954442Y-143850628D01*
G75*
G02*
X-458383747Y-144549439I-1064058J365247D01*
G01*
G37*
%TD*%
D12*
%TO.C,MX40*%
X-453262097Y-129703801D03*
X-463075903Y-127074199D03*
D13*
X-459548538Y-123878249D03*
D10*
X-458169000Y-128389000D03*
G36*
G01*
X-462134211Y-125563813D02*
X-462134215Y-125563806D01*
G75*
G02*
X-461806135Y-124007010I942438J614358D01*
G01*
X-460162895Y-122935812D01*
G75*
G02*
X-458606099Y-123263892I614358J-942438D01*
G01*
X-458606099Y-123263892D01*
G75*
G02*
X-458934179Y-124820688I-942438J-614358D01*
G01*
X-460577419Y-125891886D01*
G75*
G02*
X-462134215Y-125563806I-614358J942438D01*
G01*
G37*
D13*
X-454400748Y-124139497D03*
G36*
G01*
X-454953907Y-125753727D02*
X-454954747Y-125753439D01*
G75*
G02*
X-455653558Y-124324134I365247J1064058D01*
G01*
X-455464806Y-123774250D01*
G75*
G02*
X-454035501Y-123075439I1064058J-365247D01*
G01*
X-454035501Y-123075439D01*
G75*
G02*
X-453336690Y-124504744I-365247J-1064058D01*
G01*
X-453525442Y-125054628D01*
G75*
G02*
X-454954747Y-125753439I-1064058J365247D01*
G01*
G37*
%TD*%
D12*
%TO.C,MX39*%
X-450073860Y-110780801D03*
X-459887666Y-108151199D03*
D13*
X-456360301Y-104955249D03*
D10*
X-454980763Y-109466000D03*
G36*
G01*
X-458945974Y-106640813D02*
X-458945978Y-106640806D01*
G75*
G02*
X-458617898Y-105084010I942438J614358D01*
G01*
X-456974658Y-104012812D01*
G75*
G02*
X-455417862Y-104340892I614358J-942438D01*
G01*
X-455417862Y-104340892D01*
G75*
G02*
X-455745942Y-105897688I-942438J-614358D01*
G01*
X-457389182Y-106968886D01*
G75*
G02*
X-458945978Y-106640806I-614358J942438D01*
G01*
G37*
D13*
X-451212511Y-105216497D03*
G36*
G01*
X-451765670Y-106830727D02*
X-451766510Y-106830439D01*
G75*
G02*
X-452465321Y-105401134I365247J1064058D01*
G01*
X-452276569Y-104851250D01*
G75*
G02*
X-450847264Y-104152439I1064058J-365247D01*
G01*
X-450847264Y-104152439D01*
G75*
G02*
X-450148453Y-105581744I-365247J-1064058D01*
G01*
X-450337205Y-106131628D01*
G75*
G02*
X-451766510Y-106830439I-1064058J365247D01*
G01*
G37*
%TD*%
D12*
%TO.C,MX38*%
X-446765863Y-91967798D03*
X-456579669Y-89338196D03*
D13*
X-453052304Y-86142246D03*
D10*
X-451672766Y-90652997D03*
G36*
G01*
X-455637977Y-87827810D02*
X-455637981Y-87827803D01*
G75*
G02*
X-455309901Y-86271007I942438J614358D01*
G01*
X-453666661Y-85199809D01*
G75*
G02*
X-452109865Y-85527889I614358J-942438D01*
G01*
X-452109865Y-85527889D01*
G75*
G02*
X-452437945Y-87084685I-942438J-614358D01*
G01*
X-454081185Y-88155883D01*
G75*
G02*
X-455637981Y-87827803I-614358J942438D01*
G01*
G37*
D13*
X-447904514Y-86403494D03*
G36*
G01*
X-448457673Y-88017724D02*
X-448458513Y-88017436D01*
G75*
G02*
X-449157324Y-86588131I365247J1064058D01*
G01*
X-448968572Y-86038247D01*
G75*
G02*
X-447539267Y-85339436I1064058J-365247D01*
G01*
X-447539267Y-85339436D01*
G75*
G02*
X-446840456Y-86768741I-365247J-1064058D01*
G01*
X-447029208Y-87318625D01*
G75*
G02*
X-448458513Y-88017436I-1064058J365247D01*
G01*
G37*
%TD*%
D12*
%TO.C,MX37*%
X-442066863Y-67965298D03*
X-451880669Y-65335696D03*
D13*
X-448353304Y-62139746D03*
D10*
X-446973766Y-66650497D03*
G36*
G01*
X-450938977Y-63825310D02*
X-450938981Y-63825303D01*
G75*
G02*
X-450610901Y-62268507I942438J614358D01*
G01*
X-448967661Y-61197309D01*
G75*
G02*
X-447410865Y-61525389I614358J-942438D01*
G01*
X-447410865Y-61525389D01*
G75*
G02*
X-447738945Y-63082185I-942438J-614358D01*
G01*
X-449382185Y-64153383D01*
G75*
G02*
X-450938981Y-63825303I-614358J942438D01*
G01*
G37*
D13*
X-443205514Y-62400994D03*
G36*
G01*
X-443758673Y-64015224D02*
X-443759513Y-64014936D01*
G75*
G02*
X-444458324Y-62585631I365247J1064058D01*
G01*
X-444269572Y-62035747D01*
G75*
G02*
X-442840267Y-61336936I1064058J-365247D01*
G01*
X-442840267Y-61336936D01*
G75*
G02*
X-442141456Y-62766241I-365247J-1064058D01*
G01*
X-442330208Y-63316125D01*
G75*
G02*
X-443759513Y-64014936I-1064058J365247D01*
G01*
G37*
%TD*%
D12*
%TO.C,MX36*%
X-487045000Y-164338000D03*
X-497205000Y-164338000D03*
D13*
X-494625000Y-160338000D03*
D10*
X-492125000Y-164338000D03*
G36*
G01*
X-496686312Y-162635350D02*
X-496686317Y-162635345D01*
G75*
G02*
X-496772345Y-161046683I751317J837345D01*
G01*
X-495462343Y-159586683D01*
G75*
G02*
X-493873681Y-159500655I837345J-751317D01*
G01*
X-493873681Y-159500655D01*
G75*
G02*
X-493787653Y-161089317I-751317J-837345D01*
G01*
X-495097655Y-162549317D01*
G75*
G02*
X-496686317Y-162635345I-837345J751317D01*
G01*
G37*
D13*
X-489585000Y-159258000D03*
G36*
G01*
X-489701517Y-160960395D02*
X-489702403Y-160960334D01*
G75*
G02*
X-490747334Y-159760597I77403J1122334D01*
G01*
X-490707334Y-159180597D01*
G75*
G02*
X-489507597Y-158135666I1122334J-77403D01*
G01*
X-489507597Y-158135666D01*
G75*
G02*
X-488462666Y-159335403I-77403J-1122334D01*
G01*
X-488502666Y-159915403D01*
G75*
G02*
X-489702403Y-160960334I-1122334J77403D01*
G01*
G37*
%TD*%
D12*
%TO.C,MX35*%
X-489331000Y-145288000D03*
X-499491000Y-145288000D03*
D13*
X-496911000Y-141288000D03*
D10*
X-494411000Y-145288000D03*
G36*
G01*
X-498972312Y-143585350D02*
X-498972317Y-143585345D01*
G75*
G02*
X-499058345Y-141996683I751317J837345D01*
G01*
X-497748343Y-140536683D01*
G75*
G02*
X-496159681Y-140450655I837345J-751317D01*
G01*
X-496159681Y-140450655D01*
G75*
G02*
X-496073653Y-142039317I-751317J-837345D01*
G01*
X-497383655Y-143499317D01*
G75*
G02*
X-498972317Y-143585345I-837345J751317D01*
G01*
G37*
D13*
X-491871000Y-140208000D03*
G36*
G01*
X-491987517Y-141910395D02*
X-491988403Y-141910334D01*
G75*
G02*
X-493033334Y-140710597I77403J1122334D01*
G01*
X-492993334Y-140130597D01*
G75*
G02*
X-491793597Y-139085666I1122334J-77403D01*
G01*
X-491793597Y-139085666D01*
G75*
G02*
X-490748666Y-140285403I-77403J-1122334D01*
G01*
X-490788666Y-140865403D01*
G75*
G02*
X-491988403Y-141910334I-1122334J77403D01*
G01*
G37*
%TD*%
D12*
%TO.C,MX34*%
X-484568500Y-126238000D03*
X-494728500Y-126238000D03*
D13*
X-492148500Y-122238000D03*
D10*
X-489648500Y-126238000D03*
G36*
G01*
X-494209812Y-124535350D02*
X-494209817Y-124535345D01*
G75*
G02*
X-494295845Y-122946683I751317J837345D01*
G01*
X-492985843Y-121486683D01*
G75*
G02*
X-491397181Y-121400655I837345J-751317D01*
G01*
X-491397181Y-121400655D01*
G75*
G02*
X-491311153Y-122989317I-751317J-837345D01*
G01*
X-492621155Y-124449317D01*
G75*
G02*
X-494209817Y-124535345I-837345J751317D01*
G01*
G37*
D13*
X-487108500Y-121158000D03*
G36*
G01*
X-487225017Y-122860395D02*
X-487225903Y-122860334D01*
G75*
G02*
X-488270834Y-121660597I77403J1122334D01*
G01*
X-488230834Y-121080597D01*
G75*
G02*
X-487031097Y-120035666I1122334J-77403D01*
G01*
X-487031097Y-120035666D01*
G75*
G02*
X-485986166Y-121235403I-77403J-1122334D01*
G01*
X-486026166Y-121815403D01*
G75*
G02*
X-487225903Y-122860334I-1122334J77403D01*
G01*
G37*
%TD*%
D12*
%TO.C,MX33*%
X-479806000Y-107188000D03*
X-489966000Y-107188000D03*
D13*
X-487386000Y-103188000D03*
D10*
X-484886000Y-107188000D03*
G36*
G01*
X-489447312Y-105485350D02*
X-489447317Y-105485345D01*
G75*
G02*
X-489533345Y-103896683I751317J837345D01*
G01*
X-488223343Y-102436683D01*
G75*
G02*
X-486634681Y-102350655I837345J-751317D01*
G01*
X-486634681Y-102350655D01*
G75*
G02*
X-486548653Y-103939317I-751317J-837345D01*
G01*
X-487858655Y-105399317D01*
G75*
G02*
X-489447317Y-105485345I-837345J751317D01*
G01*
G37*
D13*
X-482346000Y-102108000D03*
G36*
G01*
X-482462517Y-103810395D02*
X-482463403Y-103810334D01*
G75*
G02*
X-483508334Y-102610597I77403J1122334D01*
G01*
X-483468334Y-102030597D01*
G75*
G02*
X-482268597Y-100985666I1122334J-77403D01*
G01*
X-482268597Y-100985666D01*
G75*
G02*
X-481223666Y-102185403I-77403J-1122334D01*
G01*
X-481263666Y-102765403D01*
G75*
G02*
X-482463403Y-103810334I-1122334J77403D01*
G01*
G37*
%TD*%
D12*
%TO.C,MX32*%
X-475043500Y-88138000D03*
X-485203500Y-88138000D03*
D13*
X-482623500Y-84138000D03*
D10*
X-480123500Y-88138000D03*
G36*
G01*
X-484684812Y-86435350D02*
X-484684817Y-86435345D01*
G75*
G02*
X-484770845Y-84846683I751317J837345D01*
G01*
X-483460843Y-83386683D01*
G75*
G02*
X-481872181Y-83300655I837345J-751317D01*
G01*
X-481872181Y-83300655D01*
G75*
G02*
X-481786153Y-84889317I-751317J-837345D01*
G01*
X-483096155Y-86349317D01*
G75*
G02*
X-484684817Y-86435345I-837345J751317D01*
G01*
G37*
D13*
X-477583500Y-83058000D03*
G36*
G01*
X-477700017Y-84760395D02*
X-477700903Y-84760334D01*
G75*
G02*
X-478745834Y-83560597I77403J1122334D01*
G01*
X-478705834Y-82980597D01*
G75*
G02*
X-477506097Y-81935666I1122334J-77403D01*
G01*
X-477506097Y-81935666D01*
G75*
G02*
X-476461166Y-83135403I-77403J-1122334D01*
G01*
X-476501166Y-83715403D01*
G75*
G02*
X-477700903Y-84760334I-1122334J77403D01*
G01*
G37*
%TD*%
D12*
%TO.C,MX31*%
X-470344500Y-64325500D03*
X-480504500Y-64325500D03*
D13*
X-477924500Y-60325500D03*
D10*
X-475424500Y-64325500D03*
G36*
G01*
X-479985812Y-62622850D02*
X-479985817Y-62622845D01*
G75*
G02*
X-480071845Y-61034183I751317J837345D01*
G01*
X-478761843Y-59574183D01*
G75*
G02*
X-477173181Y-59488155I837345J-751317D01*
G01*
X-477173181Y-59488155D01*
G75*
G02*
X-477087153Y-61076817I-751317J-837345D01*
G01*
X-478397155Y-62536817D01*
G75*
G02*
X-479985817Y-62622845I-837345J751317D01*
G01*
G37*
D13*
X-472884500Y-59245500D03*
G36*
G01*
X-473001017Y-60947895D02*
X-473001903Y-60947834D01*
G75*
G02*
X-474046834Y-59748097I77403J1122334D01*
G01*
X-474006834Y-59168097D01*
G75*
G02*
X-472807097Y-58123166I1122334J-77403D01*
G01*
X-472807097Y-58123166D01*
G75*
G02*
X-471762166Y-59322903I-77403J-1122334D01*
G01*
X-471802166Y-59902903D01*
G75*
G02*
X-473001903Y-60947834I-1122334J77403D01*
G01*
G37*
%TD*%
D12*
%TO.C,MX30*%
X-510794000Y-164338000D03*
X-520954000Y-164338000D03*
D13*
X-518374000Y-160338000D03*
D10*
X-515874000Y-164338000D03*
G36*
G01*
X-520435312Y-162635350D02*
X-520435317Y-162635345D01*
G75*
G02*
X-520521345Y-161046683I751317J837345D01*
G01*
X-519211343Y-159586683D01*
G75*
G02*
X-517622681Y-159500655I837345J-751317D01*
G01*
X-517622681Y-159500655D01*
G75*
G02*
X-517536653Y-161089317I-751317J-837345D01*
G01*
X-518846655Y-162549317D01*
G75*
G02*
X-520435317Y-162635345I-837345J751317D01*
G01*
G37*
D13*
X-513334000Y-159258000D03*
G36*
G01*
X-513450517Y-160960395D02*
X-513451403Y-160960334D01*
G75*
G02*
X-514496334Y-159760597I77403J1122334D01*
G01*
X-514456334Y-159180597D01*
G75*
G02*
X-513256597Y-158135666I1122334J-77403D01*
G01*
X-513256597Y-158135666D01*
G75*
G02*
X-512211666Y-159335403I-77403J-1122334D01*
G01*
X-512251666Y-159915403D01*
G75*
G02*
X-513451403Y-160960334I-1122334J77403D01*
G01*
G37*
%TD*%
D12*
%TO.C,MX28*%
X-510794000Y-126238000D03*
X-520954000Y-126238000D03*
D13*
X-518374000Y-122238000D03*
D10*
X-515874000Y-126238000D03*
G36*
G01*
X-520435312Y-124535350D02*
X-520435317Y-124535345D01*
G75*
G02*
X-520521345Y-122946683I751317J837345D01*
G01*
X-519211343Y-121486683D01*
G75*
G02*
X-517622681Y-121400655I837345J-751317D01*
G01*
X-517622681Y-121400655D01*
G75*
G02*
X-517536653Y-122989317I-751317J-837345D01*
G01*
X-518846655Y-124449317D01*
G75*
G02*
X-520435317Y-124535345I-837345J751317D01*
G01*
G37*
D13*
X-513334000Y-121158000D03*
G36*
G01*
X-513450517Y-122860395D02*
X-513451403Y-122860334D01*
G75*
G02*
X-514496334Y-121660597I77403J1122334D01*
G01*
X-514456334Y-121080597D01*
G75*
G02*
X-513256597Y-120035666I1122334J-77403D01*
G01*
X-513256597Y-120035666D01*
G75*
G02*
X-512211666Y-121235403I-77403J-1122334D01*
G01*
X-512251666Y-121815403D01*
G75*
G02*
X-513451403Y-122860334I-1122334J77403D01*
G01*
G37*
%TD*%
D12*
%TO.C,MX27*%
X-503682000Y-107188000D03*
X-513842000Y-107188000D03*
D13*
X-511262000Y-103188000D03*
D10*
X-508762000Y-107188000D03*
G36*
G01*
X-513323312Y-105485350D02*
X-513323317Y-105485345D01*
G75*
G02*
X-513409345Y-103896683I751317J837345D01*
G01*
X-512099343Y-102436683D01*
G75*
G02*
X-510510681Y-102350655I837345J-751317D01*
G01*
X-510510681Y-102350655D01*
G75*
G02*
X-510424653Y-103939317I-751317J-837345D01*
G01*
X-511734655Y-105399317D01*
G75*
G02*
X-513323317Y-105485345I-837345J751317D01*
G01*
G37*
D13*
X-506222000Y-102108000D03*
G36*
G01*
X-506338517Y-103810395D02*
X-506339403Y-103810334D01*
G75*
G02*
X-507384334Y-102610597I77403J1122334D01*
G01*
X-507344334Y-102030597D01*
G75*
G02*
X-506144597Y-100985666I1122334J-77403D01*
G01*
X-506144597Y-100985666D01*
G75*
G02*
X-505099666Y-102185403I-77403J-1122334D01*
G01*
X-505139666Y-102765403D01*
G75*
G02*
X-506339403Y-103810334I-1122334J77403D01*
G01*
G37*
%TD*%
D12*
%TO.C,MX26*%
X-494157000Y-88138000D03*
X-504317000Y-88138000D03*
D13*
X-501737000Y-84138000D03*
D10*
X-499237000Y-88138000D03*
G36*
G01*
X-503798312Y-86435350D02*
X-503798317Y-86435345D01*
G75*
G02*
X-503884345Y-84846683I751317J837345D01*
G01*
X-502574343Y-83386683D01*
G75*
G02*
X-500985681Y-83300655I837345J-751317D01*
G01*
X-500985681Y-83300655D01*
G75*
G02*
X-500899653Y-84889317I-751317J-837345D01*
G01*
X-502209655Y-86349317D01*
G75*
G02*
X-503798317Y-86435345I-837345J751317D01*
G01*
G37*
D13*
X-496697000Y-83058000D03*
G36*
G01*
X-496813517Y-84760395D02*
X-496814403Y-84760334D01*
G75*
G02*
X-497859334Y-83560597I77403J1122334D01*
G01*
X-497819334Y-82980597D01*
G75*
G02*
X-496619597Y-81935666I1122334J-77403D01*
G01*
X-496619597Y-81935666D01*
G75*
G02*
X-495574666Y-83135403I-77403J-1122334D01*
G01*
X-495614666Y-83715403D01*
G75*
G02*
X-496814403Y-84760334I-1122334J77403D01*
G01*
G37*
%TD*%
D12*
%TO.C,MX25*%
X-489394500Y-64325500D03*
X-499554500Y-64325500D03*
D13*
X-496974500Y-60325500D03*
D10*
X-494474500Y-64325500D03*
G36*
G01*
X-499035812Y-62622850D02*
X-499035817Y-62622845D01*
G75*
G02*
X-499121845Y-61034183I751317J837345D01*
G01*
X-497811843Y-59574183D01*
G75*
G02*
X-496223181Y-59488155I837345J-751317D01*
G01*
X-496223181Y-59488155D01*
G75*
G02*
X-496137153Y-61076817I-751317J-837345D01*
G01*
X-497447155Y-62536817D01*
G75*
G02*
X-499035817Y-62622845I-837345J751317D01*
G01*
G37*
D13*
X-491934500Y-59245500D03*
G36*
G01*
X-492051017Y-60947895D02*
X-492051903Y-60947834D01*
G75*
G02*
X-493096834Y-59748097I77403J1122334D01*
G01*
X-493056834Y-59168097D01*
G75*
G02*
X-491857097Y-58123166I1122334J-77403D01*
G01*
X-491857097Y-58123166D01*
G75*
G02*
X-490812166Y-59322903I-77403J-1122334D01*
G01*
X-490852166Y-59902903D01*
G75*
G02*
X-492051903Y-60947834I-1122334J77403D01*
G01*
G37*
%TD*%
D12*
%TO.C,MX24*%
X-532257000Y-164338000D03*
X-542417000Y-164338000D03*
D13*
X-539837000Y-160338000D03*
D10*
X-537337000Y-164338000D03*
G36*
G01*
X-541898312Y-162635350D02*
X-541898317Y-162635345D01*
G75*
G02*
X-541984345Y-161046683I751317J837345D01*
G01*
X-540674343Y-159586683D01*
G75*
G02*
X-539085681Y-159500655I837345J-751317D01*
G01*
X-539085681Y-159500655D01*
G75*
G02*
X-538999653Y-161089317I-751317J-837345D01*
G01*
X-540309655Y-162549317D01*
G75*
G02*
X-541898317Y-162635345I-837345J751317D01*
G01*
G37*
D13*
X-534797000Y-159258000D03*
G36*
G01*
X-534913517Y-160960395D02*
X-534914403Y-160960334D01*
G75*
G02*
X-535959334Y-159760597I77403J1122334D01*
G01*
X-535919334Y-159180597D01*
G75*
G02*
X-534719597Y-158135666I1122334J-77403D01*
G01*
X-534719597Y-158135666D01*
G75*
G02*
X-533674666Y-159335403I-77403J-1122334D01*
G01*
X-533714666Y-159915403D01*
G75*
G02*
X-534914403Y-160960334I-1122334J77403D01*
G01*
G37*
%TD*%
D12*
%TO.C,MX23*%
X-551307000Y-164338000D03*
X-561467000Y-164338000D03*
D13*
X-558887000Y-160338000D03*
D10*
X-556387000Y-164338000D03*
G36*
G01*
X-560948312Y-162635350D02*
X-560948317Y-162635345D01*
G75*
G02*
X-561034345Y-161046683I751317J837345D01*
G01*
X-559724343Y-159586683D01*
G75*
G02*
X-558135681Y-159500655I837345J-751317D01*
G01*
X-558135681Y-159500655D01*
G75*
G02*
X-558049653Y-161089317I-751317J-837345D01*
G01*
X-559359655Y-162549317D01*
G75*
G02*
X-560948317Y-162635345I-837345J751317D01*
G01*
G37*
D13*
X-553847000Y-159258000D03*
G36*
G01*
X-553963517Y-160960395D02*
X-553964403Y-160960334D01*
G75*
G02*
X-555009334Y-159760597I77403J1122334D01*
G01*
X-554969334Y-159180597D01*
G75*
G02*
X-553769597Y-158135666I1122334J-77403D01*
G01*
X-553769597Y-158135666D01*
G75*
G02*
X-552724666Y-159335403I-77403J-1122334D01*
G01*
X-552764666Y-159915403D01*
G75*
G02*
X-553964403Y-160960334I-1122334J77403D01*
G01*
G37*
%TD*%
D12*
%TO.C,MX22*%
X-570420500Y-164338000D03*
X-580580500Y-164338000D03*
D13*
X-578000500Y-160338000D03*
D10*
X-575500500Y-164338000D03*
G36*
G01*
X-580061812Y-162635350D02*
X-580061817Y-162635345D01*
G75*
G02*
X-580147845Y-161046683I751317J837345D01*
G01*
X-578837843Y-159586683D01*
G75*
G02*
X-577249181Y-159500655I837345J-751317D01*
G01*
X-577249181Y-159500655D01*
G75*
G02*
X-577163153Y-161089317I-751317J-837345D01*
G01*
X-578473155Y-162549317D01*
G75*
G02*
X-580061817Y-162635345I-837345J751317D01*
G01*
G37*
D13*
X-572960500Y-159258000D03*
G36*
G01*
X-573077017Y-160960395D02*
X-573077903Y-160960334D01*
G75*
G02*
X-574122834Y-159760597I77403J1122334D01*
G01*
X-574082834Y-159180597D01*
G75*
G02*
X-572883097Y-158135666I1122334J-77403D01*
G01*
X-572883097Y-158135666D01*
G75*
G02*
X-571838166Y-159335403I-77403J-1122334D01*
G01*
X-571878166Y-159915403D01*
G75*
G02*
X-573077903Y-160960334I-1122334J77403D01*
G01*
G37*
%TD*%
D12*
%TO.C,MX21*%
X-551307000Y-145288000D03*
X-561467000Y-145288000D03*
D13*
X-558887000Y-141288000D03*
D10*
X-556387000Y-145288000D03*
G36*
G01*
X-560948312Y-143585350D02*
X-560948317Y-143585345D01*
G75*
G02*
X-561034345Y-141996683I751317J837345D01*
G01*
X-559724343Y-140536683D01*
G75*
G02*
X-558135681Y-140450655I837345J-751317D01*
G01*
X-558135681Y-140450655D01*
G75*
G02*
X-558049653Y-142039317I-751317J-837345D01*
G01*
X-559359655Y-143499317D01*
G75*
G02*
X-560948317Y-143585345I-837345J751317D01*
G01*
G37*
D13*
X-553847000Y-140208000D03*
G36*
G01*
X-553963517Y-141910395D02*
X-553964403Y-141910334D01*
G75*
G02*
X-555009334Y-140710597I77403J1122334D01*
G01*
X-554969334Y-140130597D01*
G75*
G02*
X-553769597Y-139085666I1122334J-77403D01*
G01*
X-553769597Y-139085666D01*
G75*
G02*
X-552724666Y-140285403I-77403J-1122334D01*
G01*
X-552764666Y-140865403D01*
G75*
G02*
X-553964403Y-141910334I-1122334J77403D01*
G01*
G37*
%TD*%
D12*
%TO.C,MX20*%
X-570420500Y-88138000D03*
X-580580500Y-88138000D03*
D13*
X-578000500Y-84138000D03*
D10*
X-575500500Y-88138000D03*
G36*
G01*
X-580061812Y-86435350D02*
X-580061817Y-86435345D01*
G75*
G02*
X-580147845Y-84846683I751317J837345D01*
G01*
X-578837843Y-83386683D01*
G75*
G02*
X-577249181Y-83300655I837345J-751317D01*
G01*
X-577249181Y-83300655D01*
G75*
G02*
X-577163153Y-84889317I-751317J-837345D01*
G01*
X-578473155Y-86349317D01*
G75*
G02*
X-580061817Y-86435345I-837345J751317D01*
G01*
G37*
D13*
X-572960500Y-83058000D03*
G36*
G01*
X-573077017Y-84760395D02*
X-573077903Y-84760334D01*
G75*
G02*
X-574122834Y-83560597I77403J1122334D01*
G01*
X-574082834Y-82980597D01*
G75*
G02*
X-572883097Y-81935666I1122334J-77403D01*
G01*
X-572883097Y-81935666D01*
G75*
G02*
X-571838166Y-83135403I-77403J-1122334D01*
G01*
X-571878166Y-83715403D01*
G75*
G02*
X-573077903Y-84760334I-1122334J77403D01*
G01*
G37*
%TD*%
D12*
%TO.C,MX19*%
X-517969500Y-64325500D03*
X-528129500Y-64325500D03*
D13*
X-525549500Y-60325500D03*
D10*
X-523049500Y-64325500D03*
G36*
G01*
X-527610812Y-62622850D02*
X-527610817Y-62622845D01*
G75*
G02*
X-527696845Y-61034183I751317J837345D01*
G01*
X-526386843Y-59574183D01*
G75*
G02*
X-524798181Y-59488155I837345J-751317D01*
G01*
X-524798181Y-59488155D01*
G75*
G02*
X-524712153Y-61076817I-751317J-837345D01*
G01*
X-526022155Y-62536817D01*
G75*
G02*
X-527610817Y-62622845I-837345J751317D01*
G01*
G37*
D13*
X-520509500Y-59245500D03*
G36*
G01*
X-520626017Y-60947895D02*
X-520626903Y-60947834D01*
G75*
G02*
X-521671834Y-59748097I77403J1122334D01*
G01*
X-521631834Y-59168097D01*
G75*
G02*
X-520432097Y-58123166I1122334J-77403D01*
G01*
X-520432097Y-58123166D01*
G75*
G02*
X-519387166Y-59322903I-77403J-1122334D01*
G01*
X-519427166Y-59902903D01*
G75*
G02*
X-520626903Y-60947834I-1122334J77403D01*
G01*
G37*
%TD*%
D10*
%TO.C,MX18*%
X-591058000Y-142875000D03*
X-591058000Y-166751000D03*
D11*
X-606298000Y-142875000D03*
X-606298000Y-166751000D03*
D12*
X-599313000Y-149733000D03*
X-599313000Y-159893000D03*
D13*
X-603313000Y-157313000D03*
D10*
X-599313000Y-154813000D03*
G36*
G01*
X-601015650Y-159374312D02*
X-601015655Y-159374317D01*
G75*
G02*
X-602604317Y-159460345I-837345J751317D01*
G01*
X-604064317Y-158150343D01*
G75*
G02*
X-604150345Y-156561681I751317J837345D01*
G01*
X-604150345Y-156561681D01*
G75*
G02*
X-602561683Y-156475653I837345J-751317D01*
G01*
X-601101683Y-157785655D01*
G75*
G02*
X-601015655Y-159374317I-751317J-837345D01*
G01*
G37*
D13*
X-604393000Y-152273000D03*
G36*
G01*
X-602690605Y-152389517D02*
X-602690666Y-152390403D01*
G75*
G02*
X-603890403Y-153435334I-1122334J77403D01*
G01*
X-604470403Y-153395334D01*
G75*
G02*
X-605515334Y-152195597I77403J1122334D01*
G01*
X-605515334Y-152195597D01*
G75*
G02*
X-604315597Y-151150666I1122334J-77403D01*
G01*
X-603735597Y-151190666D01*
G75*
G02*
X-602690666Y-152390403I-77403J-1122334D01*
G01*
G37*
%TD*%
D12*
%TO.C,MX17*%
X-613283000Y-164338000D03*
X-623443000Y-164338000D03*
D13*
X-620863000Y-160338000D03*
D10*
X-618363000Y-164338000D03*
G36*
G01*
X-622924312Y-162635350D02*
X-622924317Y-162635345D01*
G75*
G02*
X-623010345Y-161046683I751317J837345D01*
G01*
X-621700343Y-159586683D01*
G75*
G02*
X-620111681Y-159500655I837345J-751317D01*
G01*
X-620111681Y-159500655D01*
G75*
G02*
X-620025653Y-161089317I-751317J-837345D01*
G01*
X-621335655Y-162549317D01*
G75*
G02*
X-622924317Y-162635345I-837345J751317D01*
G01*
G37*
D13*
X-615823000Y-159258000D03*
G36*
G01*
X-615939517Y-160960395D02*
X-615940403Y-160960334D01*
G75*
G02*
X-616985334Y-159760597I77403J1122334D01*
G01*
X-616945334Y-159180597D01*
G75*
G02*
X-615745597Y-158135666I1122334J-77403D01*
G01*
X-615745597Y-158135666D01*
G75*
G02*
X-614700666Y-159335403I-77403J-1122334D01*
G01*
X-614740666Y-159915403D01*
G75*
G02*
X-615940403Y-160960334I-1122334J77403D01*
G01*
G37*
%TD*%
D12*
%TO.C,MX16*%
X-613283000Y-145288000D03*
X-623443000Y-145288000D03*
D13*
X-620863000Y-141288000D03*
D10*
X-618363000Y-145288000D03*
G36*
G01*
X-622924312Y-143585350D02*
X-622924317Y-143585345D01*
G75*
G02*
X-623010345Y-141996683I751317J837345D01*
G01*
X-621700343Y-140536683D01*
G75*
G02*
X-620111681Y-140450655I837345J-751317D01*
G01*
X-620111681Y-140450655D01*
G75*
G02*
X-620025653Y-142039317I-751317J-837345D01*
G01*
X-621335655Y-143499317D01*
G75*
G02*
X-622924317Y-143585345I-837345J751317D01*
G01*
G37*
D13*
X-615823000Y-140208000D03*
G36*
G01*
X-615939517Y-141910395D02*
X-615940403Y-141910334D01*
G75*
G02*
X-616985334Y-140710597I77403J1122334D01*
G01*
X-616945334Y-140130597D01*
G75*
G02*
X-615745597Y-139085666I1122334J-77403D01*
G01*
X-615745597Y-139085666D01*
G75*
G02*
X-614700666Y-140285403I-77403J-1122334D01*
G01*
X-614740666Y-140865403D01*
G75*
G02*
X-615940403Y-141910334I-1122334J77403D01*
G01*
G37*
%TD*%
D12*
%TO.C,MX15*%
X-613283000Y-126238000D03*
X-623443000Y-126238000D03*
D13*
X-620863000Y-122238000D03*
D10*
X-618363000Y-126238000D03*
G36*
G01*
X-622924312Y-124535350D02*
X-622924317Y-124535345D01*
G75*
G02*
X-623010345Y-122946683I751317J837345D01*
G01*
X-621700343Y-121486683D01*
G75*
G02*
X-620111681Y-121400655I837345J-751317D01*
G01*
X-620111681Y-121400655D01*
G75*
G02*
X-620025653Y-122989317I-751317J-837345D01*
G01*
X-621335655Y-124449317D01*
G75*
G02*
X-622924317Y-124535345I-837345J751317D01*
G01*
G37*
D13*
X-615823000Y-121158000D03*
G36*
G01*
X-615939517Y-122860395D02*
X-615940403Y-122860334D01*
G75*
G02*
X-616985334Y-121660597I77403J1122334D01*
G01*
X-616945334Y-121080597D01*
G75*
G02*
X-615745597Y-120035666I1122334J-77403D01*
G01*
X-615745597Y-120035666D01*
G75*
G02*
X-614700666Y-121235403I-77403J-1122334D01*
G01*
X-614740666Y-121815403D01*
G75*
G02*
X-615940403Y-122860334I-1122334J77403D01*
G01*
G37*
%TD*%
D10*
%TO.C,MX14*%
X-591058000Y-104775000D03*
X-591058000Y-128651000D03*
D11*
X-606298000Y-104775000D03*
X-606298000Y-128651000D03*
D12*
X-599313000Y-111633000D03*
X-599313000Y-121793000D03*
D13*
X-603313000Y-119213000D03*
D10*
X-599313000Y-116713000D03*
G36*
G01*
X-601015650Y-121274312D02*
X-601015655Y-121274317D01*
G75*
G02*
X-602604317Y-121360345I-837345J751317D01*
G01*
X-604064317Y-120050343D01*
G75*
G02*
X-604150345Y-118461681I751317J837345D01*
G01*
X-604150345Y-118461681D01*
G75*
G02*
X-602561683Y-118375653I837345J-751317D01*
G01*
X-601101683Y-119685655D01*
G75*
G02*
X-601015655Y-121274317I-751317J-837345D01*
G01*
G37*
D13*
X-604393000Y-114173000D03*
G36*
G01*
X-602690605Y-114289517D02*
X-602690666Y-114290403D01*
G75*
G02*
X-603890403Y-115335334I-1122334J77403D01*
G01*
X-604470403Y-115295334D01*
G75*
G02*
X-605515334Y-114095597I77403J1122334D01*
G01*
X-605515334Y-114095597D01*
G75*
G02*
X-604315597Y-113050666I1122334J-77403D01*
G01*
X-603735597Y-113090666D01*
G75*
G02*
X-602690666Y-114290403I-77403J-1122334D01*
G01*
G37*
%TD*%
D12*
%TO.C,MX13*%
X-594233000Y-88138000D03*
X-604393000Y-88138000D03*
D13*
X-601813000Y-84138000D03*
D10*
X-599313000Y-88138000D03*
G36*
G01*
X-603874312Y-86435350D02*
X-603874317Y-86435345D01*
G75*
G02*
X-603960345Y-84846683I751317J837345D01*
G01*
X-602650343Y-83386683D01*
G75*
G02*
X-601061681Y-83300655I837345J-751317D01*
G01*
X-601061681Y-83300655D01*
G75*
G02*
X-600975653Y-84889317I-751317J-837345D01*
G01*
X-602285655Y-86349317D01*
G75*
G02*
X-603874317Y-86435345I-837345J751317D01*
G01*
G37*
D13*
X-596773000Y-83058000D03*
G36*
G01*
X-596889517Y-84760395D02*
X-596890403Y-84760334D01*
G75*
G02*
X-597935334Y-83560597I77403J1122334D01*
G01*
X-597895334Y-82980597D01*
G75*
G02*
X-596695597Y-81935666I1122334J-77403D01*
G01*
X-596695597Y-81935666D01*
G75*
G02*
X-595650666Y-83135403I-77403J-1122334D01*
G01*
X-595690666Y-83715403D01*
G75*
G02*
X-596890403Y-84760334I-1122334J77403D01*
G01*
G37*
%TD*%
D12*
%TO.C,MX12*%
X-632333000Y-164338000D03*
X-642493000Y-164338000D03*
D13*
X-639913000Y-160338000D03*
D10*
X-637413000Y-164338000D03*
G36*
G01*
X-641974312Y-162635350D02*
X-641974317Y-162635345D01*
G75*
G02*
X-642060345Y-161046683I751317J837345D01*
G01*
X-640750343Y-159586683D01*
G75*
G02*
X-639161681Y-159500655I837345J-751317D01*
G01*
X-639161681Y-159500655D01*
G75*
G02*
X-639075653Y-161089317I-751317J-837345D01*
G01*
X-640385655Y-162549317D01*
G75*
G02*
X-641974317Y-162635345I-837345J751317D01*
G01*
G37*
D13*
X-634873000Y-159258000D03*
G36*
G01*
X-634989517Y-160960395D02*
X-634990403Y-160960334D01*
G75*
G02*
X-636035334Y-159760597I77403J1122334D01*
G01*
X-635995334Y-159180597D01*
G75*
G02*
X-634795597Y-158135666I1122334J-77403D01*
G01*
X-634795597Y-158135666D01*
G75*
G02*
X-633750666Y-159335403I-77403J-1122334D01*
G01*
X-633790666Y-159915403D01*
G75*
G02*
X-634990403Y-160960334I-1122334J77403D01*
G01*
G37*
%TD*%
D12*
%TO.C,MX11*%
X-632333000Y-145288000D03*
X-642493000Y-145288000D03*
D13*
X-639913000Y-141288000D03*
D10*
X-637413000Y-145288000D03*
G36*
G01*
X-641974312Y-143585350D02*
X-641974317Y-143585345D01*
G75*
G02*
X-642060345Y-141996683I751317J837345D01*
G01*
X-640750343Y-140536683D01*
G75*
G02*
X-639161681Y-140450655I837345J-751317D01*
G01*
X-639161681Y-140450655D01*
G75*
G02*
X-639075653Y-142039317I-751317J-837345D01*
G01*
X-640385655Y-143499317D01*
G75*
G02*
X-641974317Y-143585345I-837345J751317D01*
G01*
G37*
D13*
X-634873000Y-140208000D03*
G36*
G01*
X-634989517Y-141910395D02*
X-634990403Y-141910334D01*
G75*
G02*
X-636035334Y-140710597I77403J1122334D01*
G01*
X-635995334Y-140130597D01*
G75*
G02*
X-634795597Y-139085666I1122334J-77403D01*
G01*
X-634795597Y-139085666D01*
G75*
G02*
X-633750666Y-140285403I-77403J-1122334D01*
G01*
X-633790666Y-140865403D01*
G75*
G02*
X-634990403Y-141910334I-1122334J77403D01*
G01*
G37*
%TD*%
D12*
%TO.C,MX10*%
X-632333000Y-126238000D03*
X-642493000Y-126238000D03*
D13*
X-639913000Y-122238000D03*
D10*
X-637413000Y-126238000D03*
G36*
G01*
X-641974312Y-124535350D02*
X-641974317Y-124535345D01*
G75*
G02*
X-642060345Y-122946683I751317J837345D01*
G01*
X-640750343Y-121486683D01*
G75*
G02*
X-639161681Y-121400655I837345J-751317D01*
G01*
X-639161681Y-121400655D01*
G75*
G02*
X-639075653Y-122989317I-751317J-837345D01*
G01*
X-640385655Y-124449317D01*
G75*
G02*
X-641974317Y-124535345I-837345J751317D01*
G01*
G37*
D13*
X-634873000Y-121158000D03*
G36*
G01*
X-634989517Y-122860395D02*
X-634990403Y-122860334D01*
G75*
G02*
X-636035334Y-121660597I77403J1122334D01*
G01*
X-635995334Y-121080597D01*
G75*
G02*
X-634795597Y-120035666I1122334J-77403D01*
G01*
X-634795597Y-120035666D01*
G75*
G02*
X-633750666Y-121235403I-77403J-1122334D01*
G01*
X-633790666Y-121815403D01*
G75*
G02*
X-634990403Y-122860334I-1122334J77403D01*
G01*
G37*
%TD*%
D12*
%TO.C,MX9*%
X-632333000Y-107188000D03*
X-642493000Y-107188000D03*
D13*
X-639913000Y-103188000D03*
D10*
X-637413000Y-107188000D03*
G36*
G01*
X-641974312Y-105485350D02*
X-641974317Y-105485345D01*
G75*
G02*
X-642060345Y-103896683I751317J837345D01*
G01*
X-640750343Y-102436683D01*
G75*
G02*
X-639161681Y-102350655I837345J-751317D01*
G01*
X-639161681Y-102350655D01*
G75*
G02*
X-639075653Y-103939317I-751317J-837345D01*
G01*
X-640385655Y-105399317D01*
G75*
G02*
X-641974317Y-105485345I-837345J751317D01*
G01*
G37*
D13*
X-634873000Y-102108000D03*
G36*
G01*
X-634989517Y-103810395D02*
X-634990403Y-103810334D01*
G75*
G02*
X-636035334Y-102610597I77403J1122334D01*
G01*
X-635995334Y-102030597D01*
G75*
G02*
X-634795597Y-100985666I1122334J-77403D01*
G01*
X-634795597Y-100985666D01*
G75*
G02*
X-633750666Y-102185403I-77403J-1122334D01*
G01*
X-633790666Y-102765403D01*
G75*
G02*
X-634990403Y-103810334I-1122334J77403D01*
G01*
G37*
%TD*%
D12*
%TO.C,MX8*%
X-613283000Y-107188000D03*
X-623443000Y-107188000D03*
D13*
X-620863000Y-103188000D03*
D10*
X-618363000Y-107188000D03*
G36*
G01*
X-622924312Y-105485350D02*
X-622924317Y-105485345D01*
G75*
G02*
X-623010345Y-103896683I751317J837345D01*
G01*
X-621700343Y-102436683D01*
G75*
G02*
X-620111681Y-102350655I837345J-751317D01*
G01*
X-620111681Y-102350655D01*
G75*
G02*
X-620025653Y-103939317I-751317J-837345D01*
G01*
X-621335655Y-105399317D01*
G75*
G02*
X-622924317Y-105485345I-837345J751317D01*
G01*
G37*
D13*
X-615823000Y-102108000D03*
G36*
G01*
X-615939517Y-103810395D02*
X-615940403Y-103810334D01*
G75*
G02*
X-616985334Y-102610597I77403J1122334D01*
G01*
X-616945334Y-102030597D01*
G75*
G02*
X-615745597Y-100985666I1122334J-77403D01*
G01*
X-615745597Y-100985666D01*
G75*
G02*
X-614700666Y-102185403I-77403J-1122334D01*
G01*
X-614740666Y-102765403D01*
G75*
G02*
X-615940403Y-103810334I-1122334J77403D01*
G01*
G37*
%TD*%
D12*
%TO.C,MX7*%
X-613283000Y-88138000D03*
X-623443000Y-88138000D03*
D13*
X-620863000Y-84138000D03*
D10*
X-618363000Y-88138000D03*
G36*
G01*
X-622924312Y-86435350D02*
X-622924317Y-86435345D01*
G75*
G02*
X-623010345Y-84846683I751317J837345D01*
G01*
X-621700343Y-83386683D01*
G75*
G02*
X-620111681Y-83300655I837345J-751317D01*
G01*
X-620111681Y-83300655D01*
G75*
G02*
X-620025653Y-84889317I-751317J-837345D01*
G01*
X-621335655Y-86349317D01*
G75*
G02*
X-622924317Y-86435345I-837345J751317D01*
G01*
G37*
D13*
X-615823000Y-83058000D03*
G36*
G01*
X-615939517Y-84760395D02*
X-615940403Y-84760334D01*
G75*
G02*
X-616985334Y-83560597I77403J1122334D01*
G01*
X-616945334Y-82980597D01*
G75*
G02*
X-615745597Y-81935666I1122334J-77403D01*
G01*
X-615745597Y-81935666D01*
G75*
G02*
X-614700666Y-83135403I-77403J-1122334D01*
G01*
X-614740666Y-83715403D01*
G75*
G02*
X-615940403Y-84760334I-1122334J77403D01*
G01*
G37*
%TD*%
D10*
%TO.C,MX6*%
X-635000000Y-172593000D03*
X-658876000Y-172593000D03*
D11*
X-635000000Y-157353000D03*
X-658876000Y-157353000D03*
D12*
X-641858000Y-164338000D03*
X-652018000Y-164338000D03*
D13*
X-649438000Y-160338000D03*
D10*
X-646938000Y-164338000D03*
G36*
G01*
X-651499312Y-162635350D02*
X-651499317Y-162635345D01*
G75*
G02*
X-651585345Y-161046683I751317J837345D01*
G01*
X-650275343Y-159586683D01*
G75*
G02*
X-648686681Y-159500655I837345J-751317D01*
G01*
X-648686681Y-159500655D01*
G75*
G02*
X-648600653Y-161089317I-751317J-837345D01*
G01*
X-649910655Y-162549317D01*
G75*
G02*
X-651499317Y-162635345I-837345J751317D01*
G01*
G37*
D13*
X-644398000Y-159258000D03*
G36*
G01*
X-644514517Y-160960395D02*
X-644515403Y-160960334D01*
G75*
G02*
X-645560334Y-159760597I77403J1122334D01*
G01*
X-645520334Y-159180597D01*
G75*
G02*
X-644320597Y-158135666I1122334J-77403D01*
G01*
X-644320597Y-158135666D01*
G75*
G02*
X-643275666Y-159335403I-77403J-1122334D01*
G01*
X-643315666Y-159915403D01*
G75*
G02*
X-644515403Y-160960334I-1122334J77403D01*
G01*
G37*
%TD*%
D12*
%TO.C,MX5*%
X-651383000Y-145288000D03*
X-661543000Y-145288000D03*
D13*
X-658963000Y-141288000D03*
D10*
X-656463000Y-145288000D03*
G36*
G01*
X-661024312Y-143585350D02*
X-661024317Y-143585345D01*
G75*
G02*
X-661110345Y-141996683I751317J837345D01*
G01*
X-659800343Y-140536683D01*
G75*
G02*
X-658211681Y-140450655I837345J-751317D01*
G01*
X-658211681Y-140450655D01*
G75*
G02*
X-658125653Y-142039317I-751317J-837345D01*
G01*
X-659435655Y-143499317D01*
G75*
G02*
X-661024317Y-143585345I-837345J751317D01*
G01*
G37*
D13*
X-653923000Y-140208000D03*
G36*
G01*
X-654039517Y-141910395D02*
X-654040403Y-141910334D01*
G75*
G02*
X-655085334Y-140710597I77403J1122334D01*
G01*
X-655045334Y-140130597D01*
G75*
G02*
X-653845597Y-139085666I1122334J-77403D01*
G01*
X-653845597Y-139085666D01*
G75*
G02*
X-652800666Y-140285403I-77403J-1122334D01*
G01*
X-652840666Y-140865403D01*
G75*
G02*
X-654040403Y-141910334I-1122334J77403D01*
G01*
G37*
%TD*%
D12*
%TO.C,MX4*%
X-651383000Y-126238000D03*
X-661543000Y-126238000D03*
D13*
X-658963000Y-122238000D03*
D10*
X-656463000Y-126238000D03*
G36*
G01*
X-661024312Y-124535350D02*
X-661024317Y-124535345D01*
G75*
G02*
X-661110345Y-122946683I751317J837345D01*
G01*
X-659800343Y-121486683D01*
G75*
G02*
X-658211681Y-121400655I837345J-751317D01*
G01*
X-658211681Y-121400655D01*
G75*
G02*
X-658125653Y-122989317I-751317J-837345D01*
G01*
X-659435655Y-124449317D01*
G75*
G02*
X-661024317Y-124535345I-837345J751317D01*
G01*
G37*
D13*
X-653923000Y-121158000D03*
G36*
G01*
X-654039517Y-122860395D02*
X-654040403Y-122860334D01*
G75*
G02*
X-655085334Y-121660597I77403J1122334D01*
G01*
X-655045334Y-121080597D01*
G75*
G02*
X-653845597Y-120035666I1122334J-77403D01*
G01*
X-653845597Y-120035666D01*
G75*
G02*
X-652800666Y-121235403I-77403J-1122334D01*
G01*
X-652840666Y-121815403D01*
G75*
G02*
X-654040403Y-122860334I-1122334J77403D01*
G01*
G37*
%TD*%
D12*
%TO.C,MX3*%
X-651383000Y-107188000D03*
X-661543000Y-107188000D03*
D13*
X-658963000Y-103188000D03*
D10*
X-656463000Y-107188000D03*
G36*
G01*
X-661024312Y-105485350D02*
X-661024317Y-105485345D01*
G75*
G02*
X-661110345Y-103896683I751317J837345D01*
G01*
X-659800343Y-102436683D01*
G75*
G02*
X-658211681Y-102350655I837345J-751317D01*
G01*
X-658211681Y-102350655D01*
G75*
G02*
X-658125653Y-103939317I-751317J-837345D01*
G01*
X-659435655Y-105399317D01*
G75*
G02*
X-661024317Y-105485345I-837345J751317D01*
G01*
G37*
D13*
X-653923000Y-102108000D03*
G36*
G01*
X-654039517Y-103810395D02*
X-654040403Y-103810334D01*
G75*
G02*
X-655085334Y-102610597I77403J1122334D01*
G01*
X-655045334Y-102030597D01*
G75*
G02*
X-653845597Y-100985666I1122334J-77403D01*
G01*
X-653845597Y-100985666D01*
G75*
G02*
X-652800666Y-102185403I-77403J-1122334D01*
G01*
X-652840666Y-102765403D01*
G75*
G02*
X-654040403Y-103810334I-1122334J77403D01*
G01*
G37*
%TD*%
D12*
%TO.C,MX2*%
X-651383000Y-88138000D03*
X-661543000Y-88138000D03*
D13*
X-658963000Y-84138000D03*
D10*
X-656463000Y-88138000D03*
G36*
G01*
X-661024312Y-86435350D02*
X-661024317Y-86435345D01*
G75*
G02*
X-661110345Y-84846683I751317J837345D01*
G01*
X-659800343Y-83386683D01*
G75*
G02*
X-658211681Y-83300655I837345J-751317D01*
G01*
X-658211681Y-83300655D01*
G75*
G02*
X-658125653Y-84889317I-751317J-837345D01*
G01*
X-659435655Y-86349317D01*
G75*
G02*
X-661024317Y-86435345I-837345J751317D01*
G01*
G37*
D13*
X-653923000Y-83058000D03*
G36*
G01*
X-654039517Y-84760395D02*
X-654040403Y-84760334D01*
G75*
G02*
X-655085334Y-83560597I77403J1122334D01*
G01*
X-655045334Y-82980597D01*
G75*
G02*
X-653845597Y-81935666I1122334J-77403D01*
G01*
X-653845597Y-81935666D01*
G75*
G02*
X-652800666Y-83135403I-77403J-1122334D01*
G01*
X-652840666Y-83715403D01*
G75*
G02*
X-654040403Y-84760334I-1122334J77403D01*
G01*
G37*
%TD*%
D12*
%TO.C,MX1*%
X-632333000Y-88138000D03*
X-642493000Y-88138000D03*
D13*
X-639913000Y-84138000D03*
D10*
X-637413000Y-88138000D03*
G36*
G01*
X-641974312Y-86435350D02*
X-641974317Y-86435345D01*
G75*
G02*
X-642060345Y-84846683I751317J837345D01*
G01*
X-640750343Y-83386683D01*
G75*
G02*
X-639161681Y-83300655I837345J-751317D01*
G01*
X-639161681Y-83300655D01*
G75*
G02*
X-639075653Y-84889317I-751317J-837345D01*
G01*
X-640385655Y-86349317D01*
G75*
G02*
X-641974317Y-86435345I-837345J751317D01*
G01*
G37*
D13*
X-634873000Y-83058000D03*
G36*
G01*
X-634989517Y-84760395D02*
X-634990403Y-84760334D01*
G75*
G02*
X-636035334Y-83560597I77403J1122334D01*
G01*
X-635995334Y-82980597D01*
G75*
G02*
X-634795597Y-81935666I1122334J-77403D01*
G01*
X-634795597Y-81935666D01*
G75*
G02*
X-633750666Y-83135403I-77403J-1122334D01*
G01*
X-633790666Y-83715403D01*
G75*
G02*
X-634990403Y-84760334I-1122334J77403D01*
G01*
G37*
%TD*%
D16*
%TO.C,D105*%
X-214245700Y-105563400D03*
X-214245700Y-108863400D03*
%TD*%
%TO.C,D104*%
X-223783400Y-86488000D03*
X-223783400Y-89788000D03*
%TD*%
%TO.C,D103*%
X-204708000Y-62675500D03*
X-204708000Y-65975500D03*
%TD*%
%TO.C,D102*%
X-204708000Y-143638000D03*
X-204708000Y-146938000D03*
%TD*%
%TO.C,D101*%
X-228532650Y-124588000D03*
X-228532650Y-127888000D03*
%TD*%
%TO.C,D99*%
X-233308400Y-105563400D03*
X-233308400Y-108863400D03*
%TD*%
%TO.C,D98*%
X-242833400Y-86513400D03*
X-242833400Y-89813400D03*
%TD*%
%TO.C,D97*%
X-223758000Y-62675500D03*
X-223758000Y-65975500D03*
%TD*%
%TO.C,D96*%
X-209455250Y-162713400D03*
X-209455250Y-166013400D03*
%TD*%
%TO.C,D95*%
X-247576850Y-143688800D03*
X-247576850Y-146988800D03*
%TD*%
%TO.C,D94*%
X-247557800Y-124562600D03*
X-247557800Y-127862600D03*
%TD*%
%TO.C,D93*%
X-252358400Y-105563400D03*
X-252358400Y-108863400D03*
%TD*%
%TO.C,D92*%
X-261883400Y-86513400D03*
X-261883400Y-89813400D03*
%TD*%
%TO.C,D91*%
X-264626600Y-62675500D03*
X-264626600Y-65975500D03*
%TD*%
%TO.C,D90*%
X-233255050Y-162713400D03*
X-233255050Y-166013400D03*
%TD*%
%TO.C,D89*%
X-266633200Y-143612600D03*
X-266633200Y-146912600D03*
%TD*%
%TO.C,D88*%
X-266607800Y-124562600D03*
X-266607800Y-127862600D03*
%TD*%
%TO.C,D87*%
X-271433800Y-105563400D03*
X-271433800Y-108863400D03*
%TD*%
%TO.C,D86*%
X-280933400Y-86513400D03*
X-280933400Y-89813400D03*
%TD*%
%TO.C,D85*%
X-283676600Y-62675500D03*
X-283676600Y-65975500D03*
%TD*%
%TO.C,D84*%
X-257051050Y-162713400D03*
X-257051050Y-166013400D03*
%TD*%
D15*
%TO.C,D83*%
G36*
X-294747382Y-148335848D02*
G01*
X-295906493Y-148646431D01*
X-296139430Y-147777098D01*
X-294980319Y-147466515D01*
X-294747382Y-148335848D01*
G37*
G36*
X-293893280Y-151523404D02*
G01*
X-295052391Y-151833987D01*
X-295285328Y-150964654D01*
X-294126217Y-150654071D01*
X-293893280Y-151523404D01*
G37*
%TD*%
%TO.C,D82*%
G36*
X-298206812Y-129510142D02*
G01*
X-299365923Y-129820725D01*
X-299598860Y-128951392D01*
X-298439749Y-128640809D01*
X-298206812Y-129510142D01*
G37*
G36*
X-297352710Y-132697698D02*
G01*
X-298511821Y-133008281D01*
X-298744758Y-132138948D01*
X-297585647Y-131828365D01*
X-297352710Y-132697698D01*
G37*
%TD*%
%TO.C,D81*%
G36*
X-301661212Y-110714142D02*
G01*
X-302820323Y-111024725D01*
X-303053260Y-110155392D01*
X-301894149Y-109844809D01*
X-301661212Y-110714142D01*
G37*
G36*
X-300807110Y-113901698D02*
G01*
X-301966221Y-114212281D01*
X-302199158Y-113342948D01*
X-301040047Y-113032365D01*
X-300807110Y-113901698D01*
G37*
%TD*%
%TO.C,D80*%
G36*
X-304261510Y-95080298D02*
G01*
X-305420621Y-95390881D01*
X-305653558Y-94521548D01*
X-304494447Y-94210965D01*
X-304261510Y-95080298D01*
G37*
G36*
X-305115612Y-91892742D02*
G01*
X-306274723Y-92203325D01*
X-306507660Y-91333992D01*
X-305348549Y-91023409D01*
X-305115612Y-91892742D01*
G37*
%TD*%
%TO.C,D79*%
G36*
X-310175262Y-67815942D02*
G01*
X-311334373Y-68126525D01*
X-311567310Y-67257192D01*
X-310408199Y-66946609D01*
X-310175262Y-67815942D01*
G37*
G36*
X-309321160Y-71003498D02*
G01*
X-310480271Y-71314081D01*
X-310713208Y-70444748D01*
X-309554097Y-70134165D01*
X-309321160Y-71003498D01*
G37*
%TD*%
%TO.C,D78*%
G36*
X-312808608Y-172881156D02*
G01*
X-313967719Y-173191739D01*
X-314200656Y-172322406D01*
X-313041545Y-172011823D01*
X-312808608Y-172881156D01*
G37*
G36*
X-311954506Y-176068712D02*
G01*
X-313113617Y-176379295D01*
X-313346554Y-175509962D01*
X-312187443Y-175199379D01*
X-311954506Y-176068712D01*
G37*
%TD*%
%TO.C,D77*%
G36*
X-313148268Y-153266350D02*
G01*
X-314307379Y-153576933D01*
X-314540316Y-152707600D01*
X-313381205Y-152397017D01*
X-313148268Y-153266350D01*
G37*
G36*
X-312294166Y-156453906D02*
G01*
X-313453277Y-156764489D01*
X-313686214Y-155895156D01*
X-312527103Y-155584573D01*
X-312294166Y-156453906D01*
G37*
%TD*%
%TO.C,D76*%
G36*
X-316607698Y-134440644D02*
G01*
X-317766809Y-134751227D01*
X-317999746Y-133881894D01*
X-316840635Y-133571311D01*
X-316607698Y-134440644D01*
G37*
G36*
X-315753596Y-137628200D02*
G01*
X-316912707Y-137938783D01*
X-317145644Y-137069450D01*
X-315986533Y-136758867D01*
X-315753596Y-137628200D01*
G37*
%TD*%
%TO.C,D75*%
G36*
X-320062098Y-115644644D02*
G01*
X-321221209Y-115955227D01*
X-321454146Y-115085894D01*
X-320295035Y-114775311D01*
X-320062098Y-115644644D01*
G37*
G36*
X-319207996Y-118832200D02*
G01*
X-320367107Y-119142783D01*
X-320600044Y-118273450D01*
X-319440933Y-117962867D01*
X-319207996Y-118832200D01*
G37*
%TD*%
%TO.C,D74*%
G36*
X-323516498Y-96823244D02*
G01*
X-324675609Y-97133827D01*
X-324908546Y-96264494D01*
X-323749435Y-95953911D01*
X-323516498Y-96823244D01*
G37*
G36*
X-322662396Y-100010800D02*
G01*
X-323821507Y-100321383D01*
X-324054444Y-99452050D01*
X-322895333Y-99141467D01*
X-322662396Y-100010800D01*
G37*
%TD*%
%TO.C,D73*%
G36*
X-328576148Y-72746444D02*
G01*
X-329735259Y-73057027D01*
X-329968196Y-72187694D01*
X-328809085Y-71877111D01*
X-328576148Y-72746444D01*
G37*
G36*
X-327722046Y-75934000D02*
G01*
X-328881157Y-76244583D01*
X-329114094Y-75375250D01*
X-327954983Y-75064667D01*
X-327722046Y-75934000D01*
G37*
%TD*%
%TO.C,D72*%
G36*
X-363411046Y-186440038D02*
G01*
X-364570157Y-186750621D01*
X-364803094Y-185881288D01*
X-363643983Y-185570705D01*
X-363411046Y-186440038D01*
G37*
G36*
X-362556944Y-189627594D02*
G01*
X-363716055Y-189938177D01*
X-363948992Y-189068844D01*
X-362789881Y-188758261D01*
X-362556944Y-189627594D01*
G37*
%TD*%
%TO.C,D71*%
G36*
X-331549154Y-158196852D02*
G01*
X-332708265Y-158507435D01*
X-332941202Y-157638102D01*
X-331782091Y-157327519D01*
X-331549154Y-158196852D01*
G37*
G36*
X-330695052Y-161384408D02*
G01*
X-331854163Y-161694991D01*
X-332087100Y-160825658D01*
X-330927989Y-160515075D01*
X-330695052Y-161384408D01*
G37*
%TD*%
%TO.C,D70*%
G36*
X-335008584Y-139371146D02*
G01*
X-336167695Y-139681729D01*
X-336400632Y-138812396D01*
X-335241521Y-138501813D01*
X-335008584Y-139371146D01*
G37*
G36*
X-334154482Y-142558702D02*
G01*
X-335313593Y-142869285D01*
X-335546530Y-141999952D01*
X-334387419Y-141689369D01*
X-334154482Y-142558702D01*
G37*
%TD*%
%TO.C,D69*%
G36*
X-338462984Y-120575146D02*
G01*
X-339622095Y-120885729D01*
X-339855032Y-120016396D01*
X-338695921Y-119705813D01*
X-338462984Y-120575146D01*
G37*
G36*
X-337608882Y-123762702D02*
G01*
X-338767993Y-124073285D01*
X-339000930Y-123203952D01*
X-337841819Y-122893369D01*
X-337608882Y-123762702D01*
G37*
%TD*%
%TO.C,D68*%
G36*
X-341917384Y-101753746D02*
G01*
X-343076495Y-102064329D01*
X-343309432Y-101194996D01*
X-342150321Y-100884413D01*
X-341917384Y-101753746D01*
G37*
G36*
X-341063282Y-104941302D02*
G01*
X-342222393Y-105251885D01*
X-342455330Y-104382552D01*
X-341296219Y-104071969D01*
X-341063282Y-104941302D01*
G37*
%TD*%
%TO.C,D67*%
G36*
X-346977034Y-77676946D02*
G01*
X-348136145Y-77987529D01*
X-348369082Y-77118196D01*
X-347209971Y-76807613D01*
X-346977034Y-77676946D01*
G37*
G36*
X-346122932Y-80864502D02*
G01*
X-347282043Y-81175085D01*
X-347514980Y-80305752D01*
X-346355869Y-79995169D01*
X-346122932Y-80864502D01*
G37*
%TD*%
%TO.C,D66*%
G36*
X-368350926Y-168057856D02*
G01*
X-369510037Y-168368439D01*
X-369742974Y-167499106D01*
X-368583863Y-167188523D01*
X-368350926Y-168057856D01*
G37*
G36*
X-367496824Y-171245412D02*
G01*
X-368655935Y-171555995D01*
X-368888872Y-170686662D01*
X-367729761Y-170376079D01*
X-367496824Y-171245412D01*
G37*
%TD*%
%TO.C,D65*%
G36*
X-349950040Y-163127354D02*
G01*
X-351109151Y-163437937D01*
X-351342088Y-162568604D01*
X-350182977Y-162258021D01*
X-349950040Y-163127354D01*
G37*
G36*
X-349095938Y-166314910D02*
G01*
X-350255049Y-166625493D01*
X-350487986Y-165756160D01*
X-349328875Y-165445577D01*
X-349095938Y-166314910D01*
G37*
%TD*%
%TO.C,D64*%
G36*
X-352555368Y-147489204D02*
G01*
X-353714479Y-147799787D01*
X-353947416Y-146930454D01*
X-352788305Y-146619871D01*
X-352555368Y-147489204D01*
G37*
G36*
X-353409470Y-144301648D02*
G01*
X-354568581Y-144612231D01*
X-354801518Y-143742898D01*
X-353642407Y-143432315D01*
X-353409470Y-144301648D01*
G37*
%TD*%
%TO.C,D63*%
G36*
X-356863870Y-125505648D02*
G01*
X-358022981Y-125816231D01*
X-358255918Y-124946898D01*
X-357096807Y-124636315D01*
X-356863870Y-125505648D01*
G37*
G36*
X-356009768Y-128693204D02*
G01*
X-357168879Y-129003787D01*
X-357401816Y-128134454D01*
X-356242705Y-127823871D01*
X-356009768Y-128693204D01*
G37*
%TD*%
%TO.C,D62*%
G36*
X-360318270Y-106684248D02*
G01*
X-361477381Y-106994831D01*
X-361710318Y-106125498D01*
X-360551207Y-105814915D01*
X-360318270Y-106684248D01*
G37*
G36*
X-359464168Y-109871804D02*
G01*
X-360623279Y-110182387D01*
X-360856216Y-109313054D01*
X-359697105Y-109002471D01*
X-359464168Y-109871804D01*
G37*
%TD*%
%TO.C,D61*%
G36*
X-365377920Y-82607448D02*
G01*
X-366537031Y-82918031D01*
X-366769968Y-82048698D01*
X-365610857Y-81738115D01*
X-365377920Y-82607448D01*
G37*
G36*
X-364523818Y-85795004D02*
G01*
X-365682929Y-86105587D01*
X-365915866Y-85236254D01*
X-364756755Y-84925671D01*
X-364523818Y-85795004D01*
G37*
%TD*%
%TO.C,D60*%
G36*
X-377903875Y-167868439D02*
G01*
X-379062986Y-167557856D01*
X-378830049Y-166688523D01*
X-377670938Y-166999106D01*
X-377903875Y-167868439D01*
G37*
G36*
X-378757977Y-171055995D02*
G01*
X-379917088Y-170745412D01*
X-379684151Y-169876079D01*
X-378525040Y-170186662D01*
X-378757977Y-171055995D01*
G37*
%TD*%
%TO.C,D59*%
G36*
X-396304761Y-163437937D02*
G01*
X-397463872Y-163127354D01*
X-397230935Y-162258021D01*
X-396071824Y-162568604D01*
X-396304761Y-163437937D01*
G37*
G36*
X-397158863Y-166625493D02*
G01*
X-398317974Y-166314910D01*
X-398085037Y-165445577D01*
X-396925926Y-165756160D01*
X-397158863Y-166625493D01*
G37*
%TD*%
%TO.C,D58*%
G36*
X-393729863Y-147829493D02*
G01*
X-394888974Y-147518910D01*
X-394656037Y-146649577D01*
X-393496926Y-146960160D01*
X-393729863Y-147829493D01*
G37*
G36*
X-392875761Y-144641937D02*
G01*
X-394034872Y-144331354D01*
X-393801935Y-143462021D01*
X-392642824Y-143772604D01*
X-392875761Y-144641937D01*
G37*
%TD*%
%TO.C,D57*%
G36*
X-389687524Y-125718937D02*
G01*
X-390846635Y-125408354D01*
X-390613698Y-124539021D01*
X-389454587Y-124849604D01*
X-389687524Y-125718937D01*
G37*
G36*
X-390541626Y-128906493D02*
G01*
X-391700737Y-128595910D01*
X-391467800Y-127726577D01*
X-390308689Y-128037160D01*
X-390541626Y-128906493D01*
G37*
%TD*%
%TO.C,D56*%
G36*
X-386379527Y-106905934D02*
G01*
X-387538638Y-106595351D01*
X-387305701Y-105726018D01*
X-386146590Y-106036601D01*
X-386379527Y-106905934D01*
G37*
G36*
X-387233629Y-110093490D02*
G01*
X-388392740Y-109782907D01*
X-388159803Y-108913574D01*
X-387000692Y-109224157D01*
X-387233629Y-110093490D01*
G37*
%TD*%
%TO.C,D55*%
G36*
X-381680527Y-82903434D02*
G01*
X-382839638Y-82592851D01*
X-382606701Y-81723518D01*
X-381447590Y-82034101D01*
X-381680527Y-82903434D01*
G37*
G36*
X-382534629Y-86090990D02*
G01*
X-383693740Y-85780407D01*
X-383460803Y-84911074D01*
X-382301692Y-85221657D01*
X-382534629Y-86090990D01*
G37*
%TD*%
%TO.C,D54*%
G36*
X-382834377Y-186269325D02*
G01*
X-383993488Y-185958742D01*
X-383760551Y-185089409D01*
X-382601440Y-185399992D01*
X-382834377Y-186269325D01*
G37*
G36*
X-383688479Y-189456881D02*
G01*
X-384847590Y-189146298D01*
X-384614653Y-188276965D01*
X-383455542Y-188587548D01*
X-383688479Y-189456881D01*
G37*
%TD*%
%TO.C,D53*%
G36*
X-414705647Y-158507435D02*
G01*
X-415864758Y-158196852D01*
X-415631821Y-157327519D01*
X-414472710Y-157638102D01*
X-414705647Y-158507435D01*
G37*
G36*
X-415559749Y-161694991D02*
G01*
X-416718860Y-161384408D01*
X-416485923Y-160515075D01*
X-415326812Y-160825658D01*
X-415559749Y-161694991D01*
G37*
%TD*%
%TO.C,D52*%
G36*
X-411276647Y-139711435D02*
G01*
X-412435758Y-139400852D01*
X-412202821Y-138531519D01*
X-411043710Y-138842102D01*
X-411276647Y-139711435D01*
G37*
G36*
X-412130749Y-142898991D02*
G01*
X-413289860Y-142588408D01*
X-413056923Y-141719075D01*
X-411897812Y-142029658D01*
X-412130749Y-142898991D01*
G37*
%TD*%
%TO.C,D51*%
G36*
X-408088410Y-120788435D02*
G01*
X-409247521Y-120477852D01*
X-409014584Y-119608519D01*
X-407855473Y-119919102D01*
X-408088410Y-120788435D01*
G37*
G36*
X-408942512Y-123975991D02*
G01*
X-410101623Y-123665408D01*
X-409868686Y-122796075D01*
X-408709575Y-123106658D01*
X-408942512Y-123975991D01*
G37*
%TD*%
%TO.C,D50*%
G36*
X-404780413Y-101975432D02*
G01*
X-405939524Y-101664849D01*
X-405706587Y-100795516D01*
X-404547476Y-101106099D01*
X-404780413Y-101975432D01*
G37*
G36*
X-405634515Y-105162988D02*
G01*
X-406793626Y-104852405D01*
X-406560689Y-103983072D01*
X-405401578Y-104293655D01*
X-405634515Y-105162988D01*
G37*
%TD*%
%TO.C,D49*%
G36*
X-400081413Y-77972932D02*
G01*
X-401240524Y-77662349D01*
X-401007587Y-76793016D01*
X-399848476Y-77103599D01*
X-400081413Y-77972932D01*
G37*
G36*
X-400935515Y-81160488D02*
G01*
X-402094626Y-80849905D01*
X-401861689Y-79980572D01*
X-400702578Y-80291155D01*
X-400935515Y-81160488D01*
G37*
%TD*%
%TO.C,D48*%
G36*
X-401265243Y-181840421D02*
G01*
X-402424354Y-181529838D01*
X-402191417Y-180660505D01*
X-401032306Y-180971088D01*
X-401265243Y-181840421D01*
G37*
G36*
X-402119345Y-185027977D02*
G01*
X-403278456Y-184717394D01*
X-403045519Y-183848061D01*
X-401886408Y-184158644D01*
X-402119345Y-185027977D01*
G37*
%TD*%
%TO.C,D47*%
G36*
X-433106533Y-153576933D02*
G01*
X-434265644Y-153266350D01*
X-434032707Y-152397017D01*
X-432873596Y-152707600D01*
X-433106533Y-153576933D01*
G37*
G36*
X-433960635Y-156764489D02*
G01*
X-435119746Y-156453906D01*
X-434886809Y-155584573D01*
X-433727698Y-155895156D01*
X-433960635Y-156764489D01*
G37*
%TD*%
%TO.C,D46*%
G36*
X-429677533Y-134780933D02*
G01*
X-430836644Y-134470350D01*
X-430603707Y-133601017D01*
X-429444596Y-133911600D01*
X-429677533Y-134780933D01*
G37*
G36*
X-430531635Y-137968489D02*
G01*
X-431690746Y-137657906D01*
X-431457809Y-136788573D01*
X-430298698Y-137099156D01*
X-430531635Y-137968489D01*
G37*
%TD*%
%TO.C,D45*%
G36*
X-426489296Y-115857933D02*
G01*
X-427648407Y-115547350D01*
X-427415470Y-114678017D01*
X-426256359Y-114988600D01*
X-426489296Y-115857933D01*
G37*
G36*
X-427343398Y-119045489D02*
G01*
X-428502509Y-118734906D01*
X-428269572Y-117865573D01*
X-427110461Y-118176156D01*
X-427343398Y-119045489D01*
G37*
%TD*%
%TO.C,D44*%
G36*
X-423181299Y-97044930D02*
G01*
X-424340410Y-96734347D01*
X-424107473Y-95865014D01*
X-422948362Y-96175597D01*
X-423181299Y-97044930D01*
G37*
G36*
X-424035401Y-100232486D02*
G01*
X-425194512Y-99921903D01*
X-424961575Y-99052570D01*
X-423802464Y-99363153D01*
X-424035401Y-100232486D01*
G37*
%TD*%
%TO.C,D43*%
G36*
X-419336401Y-76229986D02*
G01*
X-420495512Y-75919403D01*
X-420262575Y-75050070D01*
X-419103464Y-75360653D01*
X-419336401Y-76229986D01*
G37*
G36*
X-418482299Y-73042430D02*
G01*
X-419641410Y-72731847D01*
X-419408473Y-71862514D01*
X-418249362Y-72173097D01*
X-418482299Y-73042430D01*
G37*
%TD*%
%TO.C,D42*%
G36*
X-451895908Y-168261944D02*
G01*
X-453055019Y-167951361D01*
X-452822082Y-167082028D01*
X-451662971Y-167392611D01*
X-451895908Y-168261944D01*
G37*
G36*
X-452750010Y-171449500D02*
G01*
X-453909121Y-171138917D01*
X-453676184Y-170269584D01*
X-452517073Y-170580167D01*
X-452750010Y-171449500D01*
G37*
%TD*%
%TO.C,D41*%
G36*
X-451507419Y-148646431D02*
G01*
X-452666530Y-148335848D01*
X-452433593Y-147466515D01*
X-451274482Y-147777098D01*
X-451507419Y-148646431D01*
G37*
G36*
X-452361521Y-151833987D02*
G01*
X-453520632Y-151523404D01*
X-453287695Y-150654071D01*
X-452128584Y-150964654D01*
X-452361521Y-151833987D01*
G37*
%TD*%
%TO.C,D40*%
G36*
X-448078419Y-129850431D02*
G01*
X-449237530Y-129539848D01*
X-449004593Y-128670515D01*
X-447845482Y-128981098D01*
X-448078419Y-129850431D01*
G37*
G36*
X-448932521Y-133037987D02*
G01*
X-450091632Y-132727404D01*
X-449858695Y-131858071D01*
X-448699584Y-132168654D01*
X-448932521Y-133037987D01*
G37*
%TD*%
%TO.C,D39*%
G36*
X-444890182Y-110927431D02*
G01*
X-446049293Y-110616848D01*
X-445816356Y-109747515D01*
X-444657245Y-110058098D01*
X-444890182Y-110927431D01*
G37*
G36*
X-445744284Y-114114987D02*
G01*
X-446903395Y-113804404D01*
X-446670458Y-112935071D01*
X-445511347Y-113245654D01*
X-445744284Y-114114987D01*
G37*
%TD*%
%TO.C,D38*%
G36*
X-441402335Y-91303175D02*
G01*
X-442561446Y-90992592D01*
X-442328509Y-90123259D01*
X-441169398Y-90433842D01*
X-441402335Y-91303175D01*
G37*
G36*
X-442256437Y-94490731D02*
G01*
X-443415548Y-94180148D01*
X-443182611Y-93310815D01*
X-442023500Y-93621398D01*
X-442256437Y-94490731D01*
G37*
%TD*%
D16*
%TO.C,D36*%
X-480218750Y-162688000D03*
X-480218750Y-165988000D03*
%TD*%
%TO.C,D35*%
X-484886000Y-143638000D03*
X-484886000Y-146938000D03*
%TD*%
%TO.C,D34*%
X-480123500Y-124588000D03*
X-480123500Y-127888000D03*
%TD*%
%TO.C,D33*%
X-475361000Y-105538000D03*
X-475361000Y-108838000D03*
%TD*%
%TO.C,D32*%
X-470598500Y-86488000D03*
X-470598500Y-89788000D03*
%TD*%
%TO.C,D31*%
X-465899500Y-63175500D03*
X-465899500Y-66475500D03*
%TD*%
%TO.C,D30*%
X-503967750Y-162688000D03*
X-503967750Y-165988000D03*
%TD*%
%TO.C,D29*%
X-503936000Y-143638000D03*
X-503936000Y-146938000D03*
%TD*%
%TO.C,D28*%
X-499141750Y-124588000D03*
X-499141750Y-127888000D03*
%TD*%
%TO.C,D27*%
X-494474500Y-108838000D03*
X-494474500Y-105538000D03*
%TD*%
%TO.C,D26*%
X-489712000Y-86488000D03*
X-489712000Y-89788000D03*
%TD*%
%TO.C,D25*%
X-484949500Y-62675500D03*
X-484949500Y-65975500D03*
%TD*%
%TO.C,D24*%
X-527812000Y-162688000D03*
X-527812000Y-165988000D03*
%TD*%
%TO.C,D23*%
X-546862000Y-162688000D03*
X-546862000Y-165988000D03*
%TD*%
%TO.C,D22*%
X-565975500Y-162688000D03*
X-565975500Y-165988000D03*
%TD*%
%TO.C,D21*%
X-546862000Y-143638000D03*
X-546862000Y-146938000D03*
%TD*%
%TO.C,D20*%
X-565975500Y-86488000D03*
X-565975500Y-89788000D03*
%TD*%
%TO.C,D18*%
X-589788000Y-153163000D03*
X-589788000Y-156463000D03*
%TD*%
%TO.C,D17*%
X-608838000Y-165988000D03*
X-608838000Y-162688000D03*
%TD*%
%TO.C,D16*%
X-608838000Y-143638000D03*
X-608838000Y-146938000D03*
%TD*%
%TO.C,D15*%
X-608838000Y-124588000D03*
X-608838000Y-127888000D03*
%TD*%
%TO.C,D14*%
X-589788000Y-118363000D03*
X-589788000Y-115063000D03*
%TD*%
%TO.C,D13*%
X-589788000Y-86488000D03*
X-589788000Y-89788000D03*
%TD*%
%TO.C,D12*%
X-627888000Y-162688000D03*
X-627888000Y-165988000D03*
%TD*%
%TO.C,D11*%
X-627888000Y-143638000D03*
X-627888000Y-146938000D03*
%TD*%
%TO.C,D10*%
X-627888000Y-124588000D03*
X-627888000Y-127888000D03*
%TD*%
%TO.C,D9*%
X-627888000Y-105538000D03*
X-627888000Y-108838000D03*
%TD*%
%TO.C,D8*%
X-608838000Y-105538000D03*
X-608838000Y-108838000D03*
%TD*%
%TO.C,D7*%
X-608838000Y-86488000D03*
X-608838000Y-89788000D03*
%TD*%
D17*
%TO.C,D6*%
X-654813000Y-154813000D03*
X-658113000Y-154813000D03*
%TD*%
D16*
%TO.C,D5*%
X-646938000Y-143638000D03*
X-646938000Y-146938000D03*
%TD*%
%TO.C,D4*%
X-646938000Y-124588000D03*
X-646938000Y-127888000D03*
%TD*%
%TO.C,D3*%
X-646938000Y-105538000D03*
X-646938000Y-108838000D03*
%TD*%
%TO.C,D2*%
X-646938000Y-86488000D03*
X-646938000Y-89788000D03*
%TD*%
%TO.C,D1*%
X-627888000Y-86488000D03*
X-627888000Y-89788000D03*
%TD*%
M02*
