%TF.GenerationSoftware,KiCad,Pcbnew,(5.1.10)-1*%
%TF.CreationDate,2021-06-20T00:30:46-07:00*%
%TF.ProjectId,HSC_Alice,4853435f-416c-4696-9365-2e6b69636164,rev?*%
%TF.SameCoordinates,Original*%
%TF.FileFunction,Paste,Top*%
%TF.FilePolarity,Positive*%
%FSLAX46Y46*%
G04 Gerber Fmt 4.6, Leading zero omitted, Abs format (unit mm)*
G04 Created by KiCad (PCBNEW (5.1.10)-1) date 2021-06-20 00:30:46*
%MOMM*%
%LPD*%
G01*
G04 APERTURE LIST*
%ADD10R,1.400000X1.200000*%
%ADD11R,0.500000X2.250000*%
%ADD12R,0.550000X1.500000*%
%ADD13R,1.500000X0.550000*%
%ADD14R,1.800000X1.100000*%
G04 APERTURE END LIST*
D10*
%TO.C,Y1*%
X-550324200Y-94298400D03*
X-548124200Y-94298400D03*
X-548124200Y-95998400D03*
X-550324200Y-95998400D03*
%TD*%
D11*
%TO.C,USB1*%
X-543687200Y-63021600D03*
X-544487200Y-63021600D03*
X-545287200Y-63021600D03*
X-546087200Y-63021600D03*
X-546887200Y-63021600D03*
%TD*%
D12*
%TO.C,U1*%
X-545579800Y-120863600D03*
X-546379800Y-120863600D03*
X-547179800Y-120863600D03*
X-547979800Y-120863600D03*
X-548779800Y-120863600D03*
X-549579800Y-120863600D03*
X-550379800Y-120863600D03*
X-551179800Y-120863600D03*
X-551979800Y-120863600D03*
X-552779800Y-120863600D03*
X-553579800Y-120863600D03*
D13*
X-555279800Y-119163600D03*
X-555279800Y-118363600D03*
X-555279800Y-117563600D03*
X-555279800Y-116763600D03*
X-555279800Y-115963600D03*
X-555279800Y-115163600D03*
X-555279800Y-114363600D03*
X-555279800Y-113563600D03*
X-555279800Y-112763600D03*
X-555279800Y-111963600D03*
X-555279800Y-111163600D03*
D12*
X-553579800Y-109463600D03*
X-552779800Y-109463600D03*
X-551979800Y-109463600D03*
X-551179800Y-109463600D03*
X-550379800Y-109463600D03*
X-549579800Y-109463600D03*
X-548779800Y-109463600D03*
X-547979800Y-109463600D03*
X-547179800Y-109463600D03*
X-546379800Y-109463600D03*
X-545579800Y-109463600D03*
D13*
X-543879800Y-111163600D03*
X-543879800Y-111963600D03*
X-543879800Y-112763600D03*
X-543879800Y-113563600D03*
X-543879800Y-114363600D03*
X-543879800Y-115163600D03*
X-543879800Y-115963600D03*
X-543879800Y-116763600D03*
X-543879800Y-117563600D03*
X-543879800Y-118363600D03*
X-543879800Y-119163600D03*
%TD*%
D14*
%TO.C,SW1*%
X-559791800Y-59203200D03*
X-553591800Y-55503200D03*
X-559791800Y-55503200D03*
X-553591800Y-59203200D03*
%TD*%
%TO.C,R4*%
G36*
G01*
X-565269801Y-116554200D02*
X-564369799Y-116554200D01*
G75*
G02*
X-564119800Y-116804199I0J-249999D01*
G01*
X-564119800Y-117329201D01*
G75*
G02*
X-564369799Y-117579200I-249999J0D01*
G01*
X-565269801Y-117579200D01*
G75*
G02*
X-565519800Y-117329201I0J249999D01*
G01*
X-565519800Y-116804199D01*
G75*
G02*
X-565269801Y-116554200I249999J0D01*
G01*
G37*
G36*
G01*
X-565269801Y-114729200D02*
X-564369799Y-114729200D01*
G75*
G02*
X-564119800Y-114979199I0J-249999D01*
G01*
X-564119800Y-115504201D01*
G75*
G02*
X-564369799Y-115754200I-249999J0D01*
G01*
X-565269801Y-115754200D01*
G75*
G02*
X-565519800Y-115504201I0J249999D01*
G01*
X-565519800Y-114979199D01*
G75*
G02*
X-565269801Y-114729200I249999J0D01*
G01*
G37*
%TD*%
%TO.C,R3*%
G36*
G01*
X-565055599Y-57385000D02*
X-565955601Y-57385000D01*
G75*
G02*
X-566205600Y-57135001I0J249999D01*
G01*
X-566205600Y-56609999D01*
G75*
G02*
X-565955601Y-56360000I249999J0D01*
G01*
X-565055599Y-56360000D01*
G75*
G02*
X-564805600Y-56609999I0J-249999D01*
G01*
X-564805600Y-57135001D01*
G75*
G02*
X-565055599Y-57385000I-249999J0D01*
G01*
G37*
G36*
G01*
X-565055599Y-59210000D02*
X-565955601Y-59210000D01*
G75*
G02*
X-566205600Y-58960001I0J249999D01*
G01*
X-566205600Y-58434999D01*
G75*
G02*
X-565955601Y-58185000I249999J0D01*
G01*
X-565055599Y-58185000D01*
G75*
G02*
X-564805600Y-58434999I0J-249999D01*
G01*
X-564805600Y-58960001D01*
G75*
G02*
X-565055599Y-59210000I-249999J0D01*
G01*
G37*
%TD*%
%TO.C,R2*%
G36*
G01*
X-547364400Y-73767799D02*
X-547364400Y-74667801D01*
G75*
G02*
X-547614399Y-74917800I-249999J0D01*
G01*
X-548139401Y-74917800D01*
G75*
G02*
X-548389400Y-74667801I0J249999D01*
G01*
X-548389400Y-73767799D01*
G75*
G02*
X-548139401Y-73517800I249999J0D01*
G01*
X-547614399Y-73517800D01*
G75*
G02*
X-547364400Y-73767799I0J-249999D01*
G01*
G37*
G36*
G01*
X-545539400Y-73767799D02*
X-545539400Y-74667801D01*
G75*
G02*
X-545789399Y-74917800I-249999J0D01*
G01*
X-546314401Y-74917800D01*
G75*
G02*
X-546564400Y-74667801I0J249999D01*
G01*
X-546564400Y-73767799D01*
G75*
G02*
X-546314401Y-73517800I249999J0D01*
G01*
X-545789399Y-73517800D01*
G75*
G02*
X-545539400Y-73767799I0J-249999D01*
G01*
G37*
%TD*%
%TO.C,R1*%
G36*
G01*
X-542954400Y-73767799D02*
X-542954400Y-74667801D01*
G75*
G02*
X-543204399Y-74917800I-249999J0D01*
G01*
X-543729401Y-74917800D01*
G75*
G02*
X-543979400Y-74667801I0J249999D01*
G01*
X-543979400Y-73767799D01*
G75*
G02*
X-543729401Y-73517800I249999J0D01*
G01*
X-543204399Y-73517800D01*
G75*
G02*
X-542954400Y-73767799I0J-249999D01*
G01*
G37*
G36*
G01*
X-541129400Y-73767799D02*
X-541129400Y-74667801D01*
G75*
G02*
X-541379399Y-74917800I-249999J0D01*
G01*
X-541904401Y-74917800D01*
G75*
G02*
X-542154400Y-74667801I0J249999D01*
G01*
X-542154400Y-73767799D01*
G75*
G02*
X-541904401Y-73517800I249999J0D01*
G01*
X-541379399Y-73517800D01*
G75*
G02*
X-541129400Y-73767799I0J-249999D01*
G01*
G37*
%TD*%
%TO.C,F1*%
G36*
G01*
X-563359000Y-64226600D02*
X-563359000Y-62976600D01*
G75*
G02*
X-563109000Y-62726600I250000J0D01*
G01*
X-562359000Y-62726600D01*
G75*
G02*
X-562109000Y-62976600I0J-250000D01*
G01*
X-562109000Y-64226600D01*
G75*
G02*
X-562359000Y-64476600I-250000J0D01*
G01*
X-563109000Y-64476600D01*
G75*
G02*
X-563359000Y-64226600I0J250000D01*
G01*
G37*
G36*
G01*
X-566159000Y-64226600D02*
X-566159000Y-62976600D01*
G75*
G02*
X-565909000Y-62726600I250000J0D01*
G01*
X-565159000Y-62726600D01*
G75*
G02*
X-564909000Y-62976600I0J-250000D01*
G01*
X-564909000Y-64226600D01*
G75*
G02*
X-565159000Y-64476600I-250000J0D01*
G01*
X-565909000Y-64476600D01*
G75*
G02*
X-566159000Y-64226600I0J250000D01*
G01*
G37*
%TD*%
%TO.C,C7*%
G36*
G01*
X-517050000Y-89491400D02*
X-518000000Y-89491400D01*
G75*
G02*
X-518250000Y-89241400I0J250000D01*
G01*
X-518250000Y-88741400D01*
G75*
G02*
X-518000000Y-88491400I250000J0D01*
G01*
X-517050000Y-88491400D01*
G75*
G02*
X-516800000Y-88741400I0J-250000D01*
G01*
X-516800000Y-89241400D01*
G75*
G02*
X-517050000Y-89491400I-250000J0D01*
G01*
G37*
G36*
G01*
X-517050000Y-91391400D02*
X-518000000Y-91391400D01*
G75*
G02*
X-518250000Y-91141400I0J250000D01*
G01*
X-518250000Y-90641400D01*
G75*
G02*
X-518000000Y-90391400I250000J0D01*
G01*
X-517050000Y-90391400D01*
G75*
G02*
X-516800000Y-90641400I0J-250000D01*
G01*
X-516800000Y-91141400D01*
G75*
G02*
X-517050000Y-91391400I-250000J0D01*
G01*
G37*
%TD*%
%TO.C,C6*%
G36*
G01*
X-521063200Y-89415200D02*
X-522013200Y-89415200D01*
G75*
G02*
X-522263200Y-89165200I0J250000D01*
G01*
X-522263200Y-88665200D01*
G75*
G02*
X-522013200Y-88415200I250000J0D01*
G01*
X-521063200Y-88415200D01*
G75*
G02*
X-520813200Y-88665200I0J-250000D01*
G01*
X-520813200Y-89165200D01*
G75*
G02*
X-521063200Y-89415200I-250000J0D01*
G01*
G37*
G36*
G01*
X-521063200Y-91315200D02*
X-522013200Y-91315200D01*
G75*
G02*
X-522263200Y-91065200I0J250000D01*
G01*
X-522263200Y-90565200D01*
G75*
G02*
X-522013200Y-90315200I250000J0D01*
G01*
X-521063200Y-90315200D01*
G75*
G02*
X-520813200Y-90565200I0J-250000D01*
G01*
X-520813200Y-91065200D01*
G75*
G02*
X-521063200Y-91315200I-250000J0D01*
G01*
G37*
%TD*%
%TO.C,C5*%
G36*
G01*
X-536516600Y-116197800D02*
X-535566600Y-116197800D01*
G75*
G02*
X-535316600Y-116447800I0J-250000D01*
G01*
X-535316600Y-116947800D01*
G75*
G02*
X-535566600Y-117197800I-250000J0D01*
G01*
X-536516600Y-117197800D01*
G75*
G02*
X-536766600Y-116947800I0J250000D01*
G01*
X-536766600Y-116447800D01*
G75*
G02*
X-536516600Y-116197800I250000J0D01*
G01*
G37*
G36*
G01*
X-536516600Y-114297800D02*
X-535566600Y-114297800D01*
G75*
G02*
X-535316600Y-114547800I0J-250000D01*
G01*
X-535316600Y-115047800D01*
G75*
G02*
X-535566600Y-115297800I-250000J0D01*
G01*
X-536516600Y-115297800D01*
G75*
G02*
X-536766600Y-115047800I0J250000D01*
G01*
X-536766600Y-114547800D01*
G75*
G02*
X-536516600Y-114297800I250000J0D01*
G01*
G37*
%TD*%
%TO.C,C4*%
G36*
G01*
X-525076400Y-89440600D02*
X-526026400Y-89440600D01*
G75*
G02*
X-526276400Y-89190600I0J250000D01*
G01*
X-526276400Y-88690600D01*
G75*
G02*
X-526026400Y-88440600I250000J0D01*
G01*
X-525076400Y-88440600D01*
G75*
G02*
X-524826400Y-88690600I0J-250000D01*
G01*
X-524826400Y-89190600D01*
G75*
G02*
X-525076400Y-89440600I-250000J0D01*
G01*
G37*
G36*
G01*
X-525076400Y-91340600D02*
X-526026400Y-91340600D01*
G75*
G02*
X-526276400Y-91090600I0J250000D01*
G01*
X-526276400Y-90590600D01*
G75*
G02*
X-526026400Y-90340600I250000J0D01*
G01*
X-525076400Y-90340600D01*
G75*
G02*
X-524826400Y-90590600I0J-250000D01*
G01*
X-524826400Y-91090600D01*
G75*
G02*
X-525076400Y-91340600I-250000J0D01*
G01*
G37*
%TD*%
%TO.C,C3*%
G36*
G01*
X-529216600Y-89491400D02*
X-530166600Y-89491400D01*
G75*
G02*
X-530416600Y-89241400I0J250000D01*
G01*
X-530416600Y-88741400D01*
G75*
G02*
X-530166600Y-88491400I250000J0D01*
G01*
X-529216600Y-88491400D01*
G75*
G02*
X-528966600Y-88741400I0J-250000D01*
G01*
X-528966600Y-89241400D01*
G75*
G02*
X-529216600Y-89491400I-250000J0D01*
G01*
G37*
G36*
G01*
X-529216600Y-91391400D02*
X-530166600Y-91391400D01*
G75*
G02*
X-530416600Y-91141400I0J250000D01*
G01*
X-530416600Y-90641400D01*
G75*
G02*
X-530166600Y-90391400I250000J0D01*
G01*
X-529216600Y-90391400D01*
G75*
G02*
X-528966600Y-90641400I0J-250000D01*
G01*
X-528966600Y-91141400D01*
G75*
G02*
X-529216600Y-91391400I-250000J0D01*
G01*
G37*
%TD*%
%TO.C,C2*%
G36*
G01*
X-543501600Y-95674600D02*
X-542551600Y-95674600D01*
G75*
G02*
X-542301600Y-95924600I0J-250000D01*
G01*
X-542301600Y-96424600D01*
G75*
G02*
X-542551600Y-96674600I-250000J0D01*
G01*
X-543501600Y-96674600D01*
G75*
G02*
X-543751600Y-96424600I0J250000D01*
G01*
X-543751600Y-95924600D01*
G75*
G02*
X-543501600Y-95674600I250000J0D01*
G01*
G37*
G36*
G01*
X-543501600Y-93774600D02*
X-542551600Y-93774600D01*
G75*
G02*
X-542301600Y-94024600I0J-250000D01*
G01*
X-542301600Y-94524600D01*
G75*
G02*
X-542551600Y-94774600I-250000J0D01*
G01*
X-543501600Y-94774600D01*
G75*
G02*
X-543751600Y-94524600I0J250000D01*
G01*
X-543751600Y-94024600D01*
G75*
G02*
X-543501600Y-93774600I250000J0D01*
G01*
G37*
%TD*%
%TO.C,C1*%
G36*
G01*
X-555785000Y-94647600D02*
X-556735000Y-94647600D01*
G75*
G02*
X-556985000Y-94397600I0J250000D01*
G01*
X-556985000Y-93897600D01*
G75*
G02*
X-556735000Y-93647600I250000J0D01*
G01*
X-555785000Y-93647600D01*
G75*
G02*
X-555535000Y-93897600I0J-250000D01*
G01*
X-555535000Y-94397600D01*
G75*
G02*
X-555785000Y-94647600I-250000J0D01*
G01*
G37*
G36*
G01*
X-555785000Y-96547600D02*
X-556735000Y-96547600D01*
G75*
G02*
X-556985000Y-96297600I0J250000D01*
G01*
X-556985000Y-95797600D01*
G75*
G02*
X-556735000Y-95547600I250000J0D01*
G01*
X-555785000Y-95547600D01*
G75*
G02*
X-555535000Y-95797600I0J-250000D01*
G01*
X-555535000Y-96297600D01*
G75*
G02*
X-555785000Y-96547600I-250000J0D01*
G01*
G37*
%TD*%
M02*
