%TF.GenerationSoftware,KiCad,Pcbnew,(5.1.10)-1*%
%TF.CreationDate,2021-06-20T00:30:46-07:00*%
%TF.ProjectId,HSC_Alice,4853435f-416c-4696-9365-2e6b69636164,rev?*%
%TF.SameCoordinates,Original*%
%TF.FileFunction,Paste,Bot*%
%TF.FilePolarity,Positive*%
%FSLAX46Y46*%
G04 Gerber Fmt 4.6, Leading zero omitted, Abs format (unit mm)*
G04 Created by KiCad (PCBNEW (5.1.10)-1) date 2021-06-20 00:30:46*
%MOMM*%
%LPD*%
G01*
G04 APERTURE LIST*
%ADD10C,0.100000*%
%ADD11R,1.200000X0.900000*%
%ADD12R,0.900000X1.200000*%
G04 APERTURE END LIST*
D10*
%TO.C,D37*%
G36*
X-436703335Y-67300675D02*
G01*
X-437862446Y-66990092D01*
X-437629509Y-66120759D01*
X-436470398Y-66431342D01*
X-436703335Y-67300675D01*
G37*
G36*
X-437557437Y-70488231D02*
G01*
X-438716548Y-70177648D01*
X-438483611Y-69308315D01*
X-437324500Y-69618898D01*
X-437557437Y-70488231D01*
G37*
%TD*%
D11*
%TO.C,D19*%
X-513524500Y-62675500D03*
X-513524500Y-65975500D03*
%TD*%
%TO.C,D105*%
X-214245700Y-105563400D03*
X-214245700Y-108863400D03*
%TD*%
%TO.C,D104*%
X-223783400Y-86488000D03*
X-223783400Y-89788000D03*
%TD*%
%TO.C,D103*%
X-204708000Y-62675500D03*
X-204708000Y-65975500D03*
%TD*%
%TO.C,D102*%
X-204708000Y-143638000D03*
X-204708000Y-146938000D03*
%TD*%
%TO.C,D101*%
X-228532650Y-124588000D03*
X-228532650Y-127888000D03*
%TD*%
%TO.C,D99*%
X-233308400Y-105563400D03*
X-233308400Y-108863400D03*
%TD*%
%TO.C,D98*%
X-242833400Y-86513400D03*
X-242833400Y-89813400D03*
%TD*%
%TO.C,D97*%
X-223758000Y-62675500D03*
X-223758000Y-65975500D03*
%TD*%
%TO.C,D96*%
X-209455250Y-162713400D03*
X-209455250Y-166013400D03*
%TD*%
%TO.C,D95*%
X-247576850Y-143688800D03*
X-247576850Y-146988800D03*
%TD*%
%TO.C,D94*%
X-247557800Y-124562600D03*
X-247557800Y-127862600D03*
%TD*%
%TO.C,D93*%
X-252358400Y-105563400D03*
X-252358400Y-108863400D03*
%TD*%
%TO.C,D92*%
X-261883400Y-86513400D03*
X-261883400Y-89813400D03*
%TD*%
%TO.C,D91*%
X-264626600Y-62675500D03*
X-264626600Y-65975500D03*
%TD*%
%TO.C,D90*%
X-233255050Y-162713400D03*
X-233255050Y-166013400D03*
%TD*%
%TO.C,D89*%
X-266633200Y-143612600D03*
X-266633200Y-146912600D03*
%TD*%
%TO.C,D88*%
X-266607800Y-124562600D03*
X-266607800Y-127862600D03*
%TD*%
%TO.C,D87*%
X-271433800Y-105563400D03*
X-271433800Y-108863400D03*
%TD*%
%TO.C,D86*%
X-280933400Y-86513400D03*
X-280933400Y-89813400D03*
%TD*%
%TO.C,D85*%
X-283676600Y-62675500D03*
X-283676600Y-65975500D03*
%TD*%
%TO.C,D84*%
X-257051050Y-162713400D03*
X-257051050Y-166013400D03*
%TD*%
D10*
%TO.C,D83*%
G36*
X-294747382Y-148335848D02*
G01*
X-295906493Y-148646431D01*
X-296139430Y-147777098D01*
X-294980319Y-147466515D01*
X-294747382Y-148335848D01*
G37*
G36*
X-293893280Y-151523404D02*
G01*
X-295052391Y-151833987D01*
X-295285328Y-150964654D01*
X-294126217Y-150654071D01*
X-293893280Y-151523404D01*
G37*
%TD*%
%TO.C,D82*%
G36*
X-298206812Y-129510142D02*
G01*
X-299365923Y-129820725D01*
X-299598860Y-128951392D01*
X-298439749Y-128640809D01*
X-298206812Y-129510142D01*
G37*
G36*
X-297352710Y-132697698D02*
G01*
X-298511821Y-133008281D01*
X-298744758Y-132138948D01*
X-297585647Y-131828365D01*
X-297352710Y-132697698D01*
G37*
%TD*%
%TO.C,D81*%
G36*
X-301661212Y-110714142D02*
G01*
X-302820323Y-111024725D01*
X-303053260Y-110155392D01*
X-301894149Y-109844809D01*
X-301661212Y-110714142D01*
G37*
G36*
X-300807110Y-113901698D02*
G01*
X-301966221Y-114212281D01*
X-302199158Y-113342948D01*
X-301040047Y-113032365D01*
X-300807110Y-113901698D01*
G37*
%TD*%
%TO.C,D80*%
G36*
X-304261510Y-95080298D02*
G01*
X-305420621Y-95390881D01*
X-305653558Y-94521548D01*
X-304494447Y-94210965D01*
X-304261510Y-95080298D01*
G37*
G36*
X-305115612Y-91892742D02*
G01*
X-306274723Y-92203325D01*
X-306507660Y-91333992D01*
X-305348549Y-91023409D01*
X-305115612Y-91892742D01*
G37*
%TD*%
%TO.C,D79*%
G36*
X-310175262Y-67815942D02*
G01*
X-311334373Y-68126525D01*
X-311567310Y-67257192D01*
X-310408199Y-66946609D01*
X-310175262Y-67815942D01*
G37*
G36*
X-309321160Y-71003498D02*
G01*
X-310480271Y-71314081D01*
X-310713208Y-70444748D01*
X-309554097Y-70134165D01*
X-309321160Y-71003498D01*
G37*
%TD*%
%TO.C,D78*%
G36*
X-312808608Y-172881156D02*
G01*
X-313967719Y-173191739D01*
X-314200656Y-172322406D01*
X-313041545Y-172011823D01*
X-312808608Y-172881156D01*
G37*
G36*
X-311954506Y-176068712D02*
G01*
X-313113617Y-176379295D01*
X-313346554Y-175509962D01*
X-312187443Y-175199379D01*
X-311954506Y-176068712D01*
G37*
%TD*%
%TO.C,D77*%
G36*
X-313148268Y-153266350D02*
G01*
X-314307379Y-153576933D01*
X-314540316Y-152707600D01*
X-313381205Y-152397017D01*
X-313148268Y-153266350D01*
G37*
G36*
X-312294166Y-156453906D02*
G01*
X-313453277Y-156764489D01*
X-313686214Y-155895156D01*
X-312527103Y-155584573D01*
X-312294166Y-156453906D01*
G37*
%TD*%
%TO.C,D76*%
G36*
X-316607698Y-134440644D02*
G01*
X-317766809Y-134751227D01*
X-317999746Y-133881894D01*
X-316840635Y-133571311D01*
X-316607698Y-134440644D01*
G37*
G36*
X-315753596Y-137628200D02*
G01*
X-316912707Y-137938783D01*
X-317145644Y-137069450D01*
X-315986533Y-136758867D01*
X-315753596Y-137628200D01*
G37*
%TD*%
%TO.C,D75*%
G36*
X-320062098Y-115644644D02*
G01*
X-321221209Y-115955227D01*
X-321454146Y-115085894D01*
X-320295035Y-114775311D01*
X-320062098Y-115644644D01*
G37*
G36*
X-319207996Y-118832200D02*
G01*
X-320367107Y-119142783D01*
X-320600044Y-118273450D01*
X-319440933Y-117962867D01*
X-319207996Y-118832200D01*
G37*
%TD*%
%TO.C,D74*%
G36*
X-323516498Y-96823244D02*
G01*
X-324675609Y-97133827D01*
X-324908546Y-96264494D01*
X-323749435Y-95953911D01*
X-323516498Y-96823244D01*
G37*
G36*
X-322662396Y-100010800D02*
G01*
X-323821507Y-100321383D01*
X-324054444Y-99452050D01*
X-322895333Y-99141467D01*
X-322662396Y-100010800D01*
G37*
%TD*%
%TO.C,D73*%
G36*
X-328576148Y-72746444D02*
G01*
X-329735259Y-73057027D01*
X-329968196Y-72187694D01*
X-328809085Y-71877111D01*
X-328576148Y-72746444D01*
G37*
G36*
X-327722046Y-75934000D02*
G01*
X-328881157Y-76244583D01*
X-329114094Y-75375250D01*
X-327954983Y-75064667D01*
X-327722046Y-75934000D01*
G37*
%TD*%
%TO.C,D72*%
G36*
X-363411046Y-186440038D02*
G01*
X-364570157Y-186750621D01*
X-364803094Y-185881288D01*
X-363643983Y-185570705D01*
X-363411046Y-186440038D01*
G37*
G36*
X-362556944Y-189627594D02*
G01*
X-363716055Y-189938177D01*
X-363948992Y-189068844D01*
X-362789881Y-188758261D01*
X-362556944Y-189627594D01*
G37*
%TD*%
%TO.C,D71*%
G36*
X-331549154Y-158196852D02*
G01*
X-332708265Y-158507435D01*
X-332941202Y-157638102D01*
X-331782091Y-157327519D01*
X-331549154Y-158196852D01*
G37*
G36*
X-330695052Y-161384408D02*
G01*
X-331854163Y-161694991D01*
X-332087100Y-160825658D01*
X-330927989Y-160515075D01*
X-330695052Y-161384408D01*
G37*
%TD*%
%TO.C,D70*%
G36*
X-335008584Y-139371146D02*
G01*
X-336167695Y-139681729D01*
X-336400632Y-138812396D01*
X-335241521Y-138501813D01*
X-335008584Y-139371146D01*
G37*
G36*
X-334154482Y-142558702D02*
G01*
X-335313593Y-142869285D01*
X-335546530Y-141999952D01*
X-334387419Y-141689369D01*
X-334154482Y-142558702D01*
G37*
%TD*%
%TO.C,D69*%
G36*
X-338462984Y-120575146D02*
G01*
X-339622095Y-120885729D01*
X-339855032Y-120016396D01*
X-338695921Y-119705813D01*
X-338462984Y-120575146D01*
G37*
G36*
X-337608882Y-123762702D02*
G01*
X-338767993Y-124073285D01*
X-339000930Y-123203952D01*
X-337841819Y-122893369D01*
X-337608882Y-123762702D01*
G37*
%TD*%
%TO.C,D68*%
G36*
X-341917384Y-101753746D02*
G01*
X-343076495Y-102064329D01*
X-343309432Y-101194996D01*
X-342150321Y-100884413D01*
X-341917384Y-101753746D01*
G37*
G36*
X-341063282Y-104941302D02*
G01*
X-342222393Y-105251885D01*
X-342455330Y-104382552D01*
X-341296219Y-104071969D01*
X-341063282Y-104941302D01*
G37*
%TD*%
%TO.C,D67*%
G36*
X-346977034Y-77676946D02*
G01*
X-348136145Y-77987529D01*
X-348369082Y-77118196D01*
X-347209971Y-76807613D01*
X-346977034Y-77676946D01*
G37*
G36*
X-346122932Y-80864502D02*
G01*
X-347282043Y-81175085D01*
X-347514980Y-80305752D01*
X-346355869Y-79995169D01*
X-346122932Y-80864502D01*
G37*
%TD*%
%TO.C,D66*%
G36*
X-368350926Y-168057856D02*
G01*
X-369510037Y-168368439D01*
X-369742974Y-167499106D01*
X-368583863Y-167188523D01*
X-368350926Y-168057856D01*
G37*
G36*
X-367496824Y-171245412D02*
G01*
X-368655935Y-171555995D01*
X-368888872Y-170686662D01*
X-367729761Y-170376079D01*
X-367496824Y-171245412D01*
G37*
%TD*%
%TO.C,D65*%
G36*
X-349950040Y-163127354D02*
G01*
X-351109151Y-163437937D01*
X-351342088Y-162568604D01*
X-350182977Y-162258021D01*
X-349950040Y-163127354D01*
G37*
G36*
X-349095938Y-166314910D02*
G01*
X-350255049Y-166625493D01*
X-350487986Y-165756160D01*
X-349328875Y-165445577D01*
X-349095938Y-166314910D01*
G37*
%TD*%
%TO.C,D64*%
G36*
X-352555368Y-147489204D02*
G01*
X-353714479Y-147799787D01*
X-353947416Y-146930454D01*
X-352788305Y-146619871D01*
X-352555368Y-147489204D01*
G37*
G36*
X-353409470Y-144301648D02*
G01*
X-354568581Y-144612231D01*
X-354801518Y-143742898D01*
X-353642407Y-143432315D01*
X-353409470Y-144301648D01*
G37*
%TD*%
%TO.C,D63*%
G36*
X-356863870Y-125505648D02*
G01*
X-358022981Y-125816231D01*
X-358255918Y-124946898D01*
X-357096807Y-124636315D01*
X-356863870Y-125505648D01*
G37*
G36*
X-356009768Y-128693204D02*
G01*
X-357168879Y-129003787D01*
X-357401816Y-128134454D01*
X-356242705Y-127823871D01*
X-356009768Y-128693204D01*
G37*
%TD*%
%TO.C,D62*%
G36*
X-360318270Y-106684248D02*
G01*
X-361477381Y-106994831D01*
X-361710318Y-106125498D01*
X-360551207Y-105814915D01*
X-360318270Y-106684248D01*
G37*
G36*
X-359464168Y-109871804D02*
G01*
X-360623279Y-110182387D01*
X-360856216Y-109313054D01*
X-359697105Y-109002471D01*
X-359464168Y-109871804D01*
G37*
%TD*%
%TO.C,D61*%
G36*
X-365377920Y-82607448D02*
G01*
X-366537031Y-82918031D01*
X-366769968Y-82048698D01*
X-365610857Y-81738115D01*
X-365377920Y-82607448D01*
G37*
G36*
X-364523818Y-85795004D02*
G01*
X-365682929Y-86105587D01*
X-365915866Y-85236254D01*
X-364756755Y-84925671D01*
X-364523818Y-85795004D01*
G37*
%TD*%
%TO.C,D60*%
G36*
X-377903875Y-167868439D02*
G01*
X-379062986Y-167557856D01*
X-378830049Y-166688523D01*
X-377670938Y-166999106D01*
X-377903875Y-167868439D01*
G37*
G36*
X-378757977Y-171055995D02*
G01*
X-379917088Y-170745412D01*
X-379684151Y-169876079D01*
X-378525040Y-170186662D01*
X-378757977Y-171055995D01*
G37*
%TD*%
%TO.C,D59*%
G36*
X-396304761Y-163437937D02*
G01*
X-397463872Y-163127354D01*
X-397230935Y-162258021D01*
X-396071824Y-162568604D01*
X-396304761Y-163437937D01*
G37*
G36*
X-397158863Y-166625493D02*
G01*
X-398317974Y-166314910D01*
X-398085037Y-165445577D01*
X-396925926Y-165756160D01*
X-397158863Y-166625493D01*
G37*
%TD*%
%TO.C,D58*%
G36*
X-393729863Y-147829493D02*
G01*
X-394888974Y-147518910D01*
X-394656037Y-146649577D01*
X-393496926Y-146960160D01*
X-393729863Y-147829493D01*
G37*
G36*
X-392875761Y-144641937D02*
G01*
X-394034872Y-144331354D01*
X-393801935Y-143462021D01*
X-392642824Y-143772604D01*
X-392875761Y-144641937D01*
G37*
%TD*%
%TO.C,D57*%
G36*
X-389687524Y-125718937D02*
G01*
X-390846635Y-125408354D01*
X-390613698Y-124539021D01*
X-389454587Y-124849604D01*
X-389687524Y-125718937D01*
G37*
G36*
X-390541626Y-128906493D02*
G01*
X-391700737Y-128595910D01*
X-391467800Y-127726577D01*
X-390308689Y-128037160D01*
X-390541626Y-128906493D01*
G37*
%TD*%
%TO.C,D56*%
G36*
X-386379527Y-106905934D02*
G01*
X-387538638Y-106595351D01*
X-387305701Y-105726018D01*
X-386146590Y-106036601D01*
X-386379527Y-106905934D01*
G37*
G36*
X-387233629Y-110093490D02*
G01*
X-388392740Y-109782907D01*
X-388159803Y-108913574D01*
X-387000692Y-109224157D01*
X-387233629Y-110093490D01*
G37*
%TD*%
%TO.C,D55*%
G36*
X-381680527Y-82903434D02*
G01*
X-382839638Y-82592851D01*
X-382606701Y-81723518D01*
X-381447590Y-82034101D01*
X-381680527Y-82903434D01*
G37*
G36*
X-382534629Y-86090990D02*
G01*
X-383693740Y-85780407D01*
X-383460803Y-84911074D01*
X-382301692Y-85221657D01*
X-382534629Y-86090990D01*
G37*
%TD*%
%TO.C,D54*%
G36*
X-382834377Y-186269325D02*
G01*
X-383993488Y-185958742D01*
X-383760551Y-185089409D01*
X-382601440Y-185399992D01*
X-382834377Y-186269325D01*
G37*
G36*
X-383688479Y-189456881D02*
G01*
X-384847590Y-189146298D01*
X-384614653Y-188276965D01*
X-383455542Y-188587548D01*
X-383688479Y-189456881D01*
G37*
%TD*%
%TO.C,D53*%
G36*
X-414705647Y-158507435D02*
G01*
X-415864758Y-158196852D01*
X-415631821Y-157327519D01*
X-414472710Y-157638102D01*
X-414705647Y-158507435D01*
G37*
G36*
X-415559749Y-161694991D02*
G01*
X-416718860Y-161384408D01*
X-416485923Y-160515075D01*
X-415326812Y-160825658D01*
X-415559749Y-161694991D01*
G37*
%TD*%
%TO.C,D52*%
G36*
X-411276647Y-139711435D02*
G01*
X-412435758Y-139400852D01*
X-412202821Y-138531519D01*
X-411043710Y-138842102D01*
X-411276647Y-139711435D01*
G37*
G36*
X-412130749Y-142898991D02*
G01*
X-413289860Y-142588408D01*
X-413056923Y-141719075D01*
X-411897812Y-142029658D01*
X-412130749Y-142898991D01*
G37*
%TD*%
%TO.C,D51*%
G36*
X-408088410Y-120788435D02*
G01*
X-409247521Y-120477852D01*
X-409014584Y-119608519D01*
X-407855473Y-119919102D01*
X-408088410Y-120788435D01*
G37*
G36*
X-408942512Y-123975991D02*
G01*
X-410101623Y-123665408D01*
X-409868686Y-122796075D01*
X-408709575Y-123106658D01*
X-408942512Y-123975991D01*
G37*
%TD*%
%TO.C,D50*%
G36*
X-404780413Y-101975432D02*
G01*
X-405939524Y-101664849D01*
X-405706587Y-100795516D01*
X-404547476Y-101106099D01*
X-404780413Y-101975432D01*
G37*
G36*
X-405634515Y-105162988D02*
G01*
X-406793626Y-104852405D01*
X-406560689Y-103983072D01*
X-405401578Y-104293655D01*
X-405634515Y-105162988D01*
G37*
%TD*%
%TO.C,D49*%
G36*
X-400081413Y-77972932D02*
G01*
X-401240524Y-77662349D01*
X-401007587Y-76793016D01*
X-399848476Y-77103599D01*
X-400081413Y-77972932D01*
G37*
G36*
X-400935515Y-81160488D02*
G01*
X-402094626Y-80849905D01*
X-401861689Y-79980572D01*
X-400702578Y-80291155D01*
X-400935515Y-81160488D01*
G37*
%TD*%
%TO.C,D48*%
G36*
X-401265243Y-181840421D02*
G01*
X-402424354Y-181529838D01*
X-402191417Y-180660505D01*
X-401032306Y-180971088D01*
X-401265243Y-181840421D01*
G37*
G36*
X-402119345Y-185027977D02*
G01*
X-403278456Y-184717394D01*
X-403045519Y-183848061D01*
X-401886408Y-184158644D01*
X-402119345Y-185027977D01*
G37*
%TD*%
%TO.C,D47*%
G36*
X-433106533Y-153576933D02*
G01*
X-434265644Y-153266350D01*
X-434032707Y-152397017D01*
X-432873596Y-152707600D01*
X-433106533Y-153576933D01*
G37*
G36*
X-433960635Y-156764489D02*
G01*
X-435119746Y-156453906D01*
X-434886809Y-155584573D01*
X-433727698Y-155895156D01*
X-433960635Y-156764489D01*
G37*
%TD*%
%TO.C,D46*%
G36*
X-429677533Y-134780933D02*
G01*
X-430836644Y-134470350D01*
X-430603707Y-133601017D01*
X-429444596Y-133911600D01*
X-429677533Y-134780933D01*
G37*
G36*
X-430531635Y-137968489D02*
G01*
X-431690746Y-137657906D01*
X-431457809Y-136788573D01*
X-430298698Y-137099156D01*
X-430531635Y-137968489D01*
G37*
%TD*%
%TO.C,D45*%
G36*
X-426489296Y-115857933D02*
G01*
X-427648407Y-115547350D01*
X-427415470Y-114678017D01*
X-426256359Y-114988600D01*
X-426489296Y-115857933D01*
G37*
G36*
X-427343398Y-119045489D02*
G01*
X-428502509Y-118734906D01*
X-428269572Y-117865573D01*
X-427110461Y-118176156D01*
X-427343398Y-119045489D01*
G37*
%TD*%
%TO.C,D44*%
G36*
X-423181299Y-97044930D02*
G01*
X-424340410Y-96734347D01*
X-424107473Y-95865014D01*
X-422948362Y-96175597D01*
X-423181299Y-97044930D01*
G37*
G36*
X-424035401Y-100232486D02*
G01*
X-425194512Y-99921903D01*
X-424961575Y-99052570D01*
X-423802464Y-99363153D01*
X-424035401Y-100232486D01*
G37*
%TD*%
%TO.C,D43*%
G36*
X-419336401Y-76229986D02*
G01*
X-420495512Y-75919403D01*
X-420262575Y-75050070D01*
X-419103464Y-75360653D01*
X-419336401Y-76229986D01*
G37*
G36*
X-418482299Y-73042430D02*
G01*
X-419641410Y-72731847D01*
X-419408473Y-71862514D01*
X-418249362Y-72173097D01*
X-418482299Y-73042430D01*
G37*
%TD*%
%TO.C,D42*%
G36*
X-451895908Y-168261944D02*
G01*
X-453055019Y-167951361D01*
X-452822082Y-167082028D01*
X-451662971Y-167392611D01*
X-451895908Y-168261944D01*
G37*
G36*
X-452750010Y-171449500D02*
G01*
X-453909121Y-171138917D01*
X-453676184Y-170269584D01*
X-452517073Y-170580167D01*
X-452750010Y-171449500D01*
G37*
%TD*%
%TO.C,D41*%
G36*
X-451507419Y-148646431D02*
G01*
X-452666530Y-148335848D01*
X-452433593Y-147466515D01*
X-451274482Y-147777098D01*
X-451507419Y-148646431D01*
G37*
G36*
X-452361521Y-151833987D02*
G01*
X-453520632Y-151523404D01*
X-453287695Y-150654071D01*
X-452128584Y-150964654D01*
X-452361521Y-151833987D01*
G37*
%TD*%
%TO.C,D40*%
G36*
X-448078419Y-129850431D02*
G01*
X-449237530Y-129539848D01*
X-449004593Y-128670515D01*
X-447845482Y-128981098D01*
X-448078419Y-129850431D01*
G37*
G36*
X-448932521Y-133037987D02*
G01*
X-450091632Y-132727404D01*
X-449858695Y-131858071D01*
X-448699584Y-132168654D01*
X-448932521Y-133037987D01*
G37*
%TD*%
%TO.C,D39*%
G36*
X-444890182Y-110927431D02*
G01*
X-446049293Y-110616848D01*
X-445816356Y-109747515D01*
X-444657245Y-110058098D01*
X-444890182Y-110927431D01*
G37*
G36*
X-445744284Y-114114987D02*
G01*
X-446903395Y-113804404D01*
X-446670458Y-112935071D01*
X-445511347Y-113245654D01*
X-445744284Y-114114987D01*
G37*
%TD*%
%TO.C,D38*%
G36*
X-441402335Y-91303175D02*
G01*
X-442561446Y-90992592D01*
X-442328509Y-90123259D01*
X-441169398Y-90433842D01*
X-441402335Y-91303175D01*
G37*
G36*
X-442256437Y-94490731D02*
G01*
X-443415548Y-94180148D01*
X-443182611Y-93310815D01*
X-442023500Y-93621398D01*
X-442256437Y-94490731D01*
G37*
%TD*%
D11*
%TO.C,D36*%
X-480218750Y-162688000D03*
X-480218750Y-165988000D03*
%TD*%
%TO.C,D35*%
X-484886000Y-143638000D03*
X-484886000Y-146938000D03*
%TD*%
%TO.C,D34*%
X-480123500Y-124588000D03*
X-480123500Y-127888000D03*
%TD*%
%TO.C,D33*%
X-475361000Y-105538000D03*
X-475361000Y-108838000D03*
%TD*%
%TO.C,D32*%
X-470598500Y-86488000D03*
X-470598500Y-89788000D03*
%TD*%
%TO.C,D31*%
X-465899500Y-63175500D03*
X-465899500Y-66475500D03*
%TD*%
%TO.C,D30*%
X-503967750Y-162688000D03*
X-503967750Y-165988000D03*
%TD*%
%TO.C,D29*%
X-503936000Y-143638000D03*
X-503936000Y-146938000D03*
%TD*%
%TO.C,D28*%
X-499141750Y-124588000D03*
X-499141750Y-127888000D03*
%TD*%
%TO.C,D27*%
X-494474500Y-108838000D03*
X-494474500Y-105538000D03*
%TD*%
%TO.C,D26*%
X-489712000Y-86488000D03*
X-489712000Y-89788000D03*
%TD*%
%TO.C,D25*%
X-484949500Y-62675500D03*
X-484949500Y-65975500D03*
%TD*%
%TO.C,D24*%
X-527812000Y-162688000D03*
X-527812000Y-165988000D03*
%TD*%
%TO.C,D23*%
X-546862000Y-162688000D03*
X-546862000Y-165988000D03*
%TD*%
%TO.C,D22*%
X-565975500Y-162688000D03*
X-565975500Y-165988000D03*
%TD*%
%TO.C,D21*%
X-546862000Y-143638000D03*
X-546862000Y-146938000D03*
%TD*%
%TO.C,D20*%
X-565975500Y-86488000D03*
X-565975500Y-89788000D03*
%TD*%
%TO.C,D18*%
X-589788000Y-153163000D03*
X-589788000Y-156463000D03*
%TD*%
%TO.C,D17*%
X-608838000Y-165988000D03*
X-608838000Y-162688000D03*
%TD*%
%TO.C,D16*%
X-608838000Y-143638000D03*
X-608838000Y-146938000D03*
%TD*%
%TO.C,D15*%
X-608838000Y-124588000D03*
X-608838000Y-127888000D03*
%TD*%
%TO.C,D14*%
X-589788000Y-118363000D03*
X-589788000Y-115063000D03*
%TD*%
%TO.C,D13*%
X-589788000Y-86488000D03*
X-589788000Y-89788000D03*
%TD*%
%TO.C,D12*%
X-627888000Y-162688000D03*
X-627888000Y-165988000D03*
%TD*%
%TO.C,D11*%
X-627888000Y-143638000D03*
X-627888000Y-146938000D03*
%TD*%
%TO.C,D10*%
X-627888000Y-124588000D03*
X-627888000Y-127888000D03*
%TD*%
%TO.C,D9*%
X-627888000Y-105538000D03*
X-627888000Y-108838000D03*
%TD*%
%TO.C,D8*%
X-608838000Y-105538000D03*
X-608838000Y-108838000D03*
%TD*%
%TO.C,D7*%
X-608838000Y-86488000D03*
X-608838000Y-89788000D03*
%TD*%
D12*
%TO.C,D6*%
X-654813000Y-154813000D03*
X-658113000Y-154813000D03*
%TD*%
D11*
%TO.C,D5*%
X-646938000Y-143638000D03*
X-646938000Y-146938000D03*
%TD*%
%TO.C,D4*%
X-646938000Y-124588000D03*
X-646938000Y-127888000D03*
%TD*%
%TO.C,D3*%
X-646938000Y-105538000D03*
X-646938000Y-108838000D03*
%TD*%
%TO.C,D2*%
X-646938000Y-86488000D03*
X-646938000Y-89788000D03*
%TD*%
%TO.C,D1*%
X-627888000Y-86488000D03*
X-627888000Y-89788000D03*
%TD*%
M02*
