%TF.GenerationSoftware,KiCad,Pcbnew,(5.1.10)-1*%
%TF.CreationDate,2021-06-20T00:30:46-07:00*%
%TF.ProjectId,HSC_Alice,4853435f-416c-4696-9365-2e6b69636164,rev?*%
%TF.SameCoordinates,Original*%
%TF.FileFunction,Copper,L1,Top*%
%TF.FilePolarity,Positive*%
%FSLAX46Y46*%
G04 Gerber Fmt 4.6, Leading zero omitted, Abs format (unit mm)*
G04 Created by KiCad (PCBNEW (5.1.10)-1) date 2021-06-20 00:30:46*
%MOMM*%
%LPD*%
G01*
G04 APERTURE LIST*
%TA.AperFunction,ComponentPad*%
%ADD10C,2.250000*%
%TD*%
%TA.AperFunction,SMDPad,CuDef*%
%ADD11R,1.400000X1.200000*%
%TD*%
%TA.AperFunction,ComponentPad*%
%ADD12O,1.700000X2.700000*%
%TD*%
%TA.AperFunction,SMDPad,CuDef*%
%ADD13R,0.500000X2.250000*%
%TD*%
%TA.AperFunction,SMDPad,CuDef*%
%ADD14R,0.550000X1.500000*%
%TD*%
%TA.AperFunction,SMDPad,CuDef*%
%ADD15R,1.500000X0.550000*%
%TD*%
%TA.AperFunction,SMDPad,CuDef*%
%ADD16R,1.800000X1.100000*%
%TD*%
%TA.AperFunction,ViaPad*%
%ADD17C,0.800000*%
%TD*%
%TA.AperFunction,Conductor*%
%ADD18C,0.254000*%
%TD*%
G04 APERTURE END LIST*
D10*
%TO.P,MX48,1*%
%TO.N,Col7*%
X-428836138Y-171554049D03*
%TA.AperFunction,ComponentPad*%
G36*
G01*
X-431421811Y-173239613D02*
X-431421815Y-173239606D01*
G75*
G02*
X-431093735Y-171682810I942438J614358D01*
G01*
X-429450495Y-170611612D01*
G75*
G02*
X-427893699Y-170939692I614358J-942438D01*
G01*
X-427893699Y-170939692D01*
G75*
G02*
X-428221779Y-172496488I-942438J-614358D01*
G01*
X-429865019Y-173567686D01*
G75*
G02*
X-431421815Y-173239606I-614358J942438D01*
G01*
G37*
%TD.AperFunction*%
%TO.P,MX48,2*%
%TO.N,Net-(D48-Pad2)*%
X-423688348Y-171815297D03*
%TA.AperFunction,ComponentPad*%
G36*
G01*
X-424241507Y-173429527D02*
X-424242347Y-173429239D01*
G75*
G02*
X-424941158Y-171999934I365247J1064058D01*
G01*
X-424752406Y-171450050D01*
G75*
G02*
X-423323101Y-170751239I1064058J-365247D01*
G01*
X-423323101Y-170751239D01*
G75*
G02*
X-422624290Y-172180544I-365247J-1064058D01*
G01*
X-422813042Y-172730428D01*
G75*
G02*
X-424242347Y-173429239I-1064058J365247D01*
G01*
G37*
%TD.AperFunction*%
%TD*%
D11*
%TO.P,Y1,4*%
%TO.N,GND*%
X-550324200Y-94298400D03*
%TO.P,Y1,3*%
%TO.N,Net-(C2-Pad1)*%
X-548124200Y-94298400D03*
%TO.P,Y1,2*%
%TO.N,GND*%
X-548124200Y-95998400D03*
%TO.P,Y1,1*%
%TO.N,Net-(C1-Pad1)*%
X-550324200Y-95998400D03*
%TD*%
D12*
%TO.P,USB1,6*%
%TO.N,Net-(USB1-Pad6)*%
X-541637200Y-58521600D03*
X-548937200Y-58521600D03*
X-548937200Y-63021600D03*
X-541637200Y-63021600D03*
D13*
%TO.P,USB1,5*%
%TO.N,VCC*%
X-543687200Y-63021600D03*
%TO.P,USB1,4*%
%TO.N,D-*%
X-544487200Y-63021600D03*
%TO.P,USB1,3*%
%TO.N,D+*%
X-545287200Y-63021600D03*
%TO.P,USB1,2*%
%TO.N,Net-(USB1-Pad2)*%
X-546087200Y-63021600D03*
%TO.P,USB1,1*%
%TO.N,GND*%
X-546887200Y-63021600D03*
%TD*%
D14*
%TO.P,U1,44*%
%TO.N,+5V*%
X-545579800Y-120863600D03*
%TO.P,U1,43*%
%TO.N,GND*%
X-546379800Y-120863600D03*
%TO.P,U1,42*%
%TO.N,Net-(U1-Pad42)*%
X-547179800Y-120863600D03*
%TO.P,U1,41*%
%TO.N,Col14*%
X-547979800Y-120863600D03*
%TO.P,U1,40*%
%TO.N,Col15*%
X-548779800Y-120863600D03*
%TO.P,U1,39*%
%TO.N,Col16*%
X-549579800Y-120863600D03*
%TO.P,U1,38*%
%TO.N,Col17*%
X-550379800Y-120863600D03*
%TO.P,U1,37*%
%TO.N,Col2*%
X-551179800Y-120863600D03*
%TO.P,U1,36*%
%TO.N,Net-(U1-Pad36)*%
X-551979800Y-120863600D03*
%TO.P,U1,35*%
%TO.N,GND*%
X-552779800Y-120863600D03*
%TO.P,U1,34*%
%TO.N,+5V*%
X-553579800Y-120863600D03*
D15*
%TO.P,U1,33*%
%TO.N,Net-(R4-Pad2)*%
X-555279800Y-119163600D03*
%TO.P,U1,32*%
%TO.N,Col4*%
X-555279800Y-118363600D03*
%TO.P,U1,31*%
%TO.N,Col3*%
X-555279800Y-117563600D03*
%TO.P,U1,30*%
%TO.N,Col0*%
X-555279800Y-116763600D03*
%TO.P,U1,29*%
%TO.N,Row5*%
X-555279800Y-115963600D03*
%TO.P,U1,28*%
%TO.N,Row4*%
X-555279800Y-115163600D03*
%TO.P,U1,27*%
%TO.N,Col12*%
X-555279800Y-114363600D03*
%TO.P,U1,26*%
%TO.N,Col11*%
X-555279800Y-113563600D03*
%TO.P,U1,25*%
%TO.N,Col9*%
X-555279800Y-112763600D03*
%TO.P,U1,24*%
%TO.N,+5V*%
X-555279800Y-111963600D03*
%TO.P,U1,23*%
%TO.N,GND*%
X-555279800Y-111163600D03*
D14*
%TO.P,U1,22*%
%TO.N,Col10*%
X-553579800Y-109463600D03*
%TO.P,U1,21*%
%TO.N,Col8*%
X-552779800Y-109463600D03*
%TO.P,U1,20*%
%TO.N,Col7*%
X-551979800Y-109463600D03*
%TO.P,U1,19*%
%TO.N,Col6*%
X-551179800Y-109463600D03*
%TO.P,U1,18*%
%TO.N,Col5*%
X-550379800Y-109463600D03*
%TO.P,U1,17*%
%TO.N,Net-(C1-Pad1)*%
X-549579800Y-109463600D03*
%TO.P,U1,16*%
%TO.N,Net-(C2-Pad1)*%
X-548779800Y-109463600D03*
%TO.P,U1,15*%
%TO.N,GND*%
X-547979800Y-109463600D03*
%TO.P,U1,14*%
%TO.N,+5V*%
X-547179800Y-109463600D03*
%TO.P,U1,13*%
%TO.N,Net-(R3-Pad2)*%
X-546379800Y-109463600D03*
%TO.P,U1,12*%
%TO.N,Col1*%
X-545579800Y-109463600D03*
D15*
%TO.P,U1,11*%
%TO.N,Row3*%
X-543879800Y-111163600D03*
%TO.P,U1,10*%
%TO.N,Row2*%
X-543879800Y-111963600D03*
%TO.P,U1,9*%
%TO.N,Row1*%
X-543879800Y-112763600D03*
%TO.P,U1,8*%
%TO.N,Row0*%
X-543879800Y-113563600D03*
%TO.P,U1,7*%
%TO.N,+5V*%
X-543879800Y-114363600D03*
%TO.P,U1,6*%
%TO.N,Net-(C5-Pad1)*%
X-543879800Y-115163600D03*
%TO.P,U1,5*%
%TO.N,GND*%
X-543879800Y-115963600D03*
%TO.P,U1,4*%
%TO.N,Net-(R2-Pad1)*%
X-543879800Y-116763600D03*
%TO.P,U1,3*%
%TO.N,Net-(R1-Pad1)*%
X-543879800Y-117563600D03*
%TO.P,U1,2*%
%TO.N,+5V*%
X-543879800Y-118363600D03*
%TO.P,U1,1*%
%TO.N,Col13*%
X-543879800Y-119163600D03*
%TD*%
D16*
%TO.P,SW1,4*%
%TO.N,N/C*%
X-559791800Y-59203200D03*
%TO.P,SW1,3*%
X-553591800Y-55503200D03*
%TO.P,SW1,2*%
%TO.N,Net-(R3-Pad2)*%
X-559791800Y-55503200D03*
%TO.P,SW1,1*%
%TO.N,GND*%
X-553591800Y-59203200D03*
%TD*%
%TO.P,R4,2*%
%TO.N,Net-(R4-Pad2)*%
%TA.AperFunction,SMDPad,CuDef*%
G36*
G01*
X-565269801Y-116554200D02*
X-564369799Y-116554200D01*
G75*
G02*
X-564119800Y-116804199I0J-249999D01*
G01*
X-564119800Y-117329201D01*
G75*
G02*
X-564369799Y-117579200I-249999J0D01*
G01*
X-565269801Y-117579200D01*
G75*
G02*
X-565519800Y-117329201I0J249999D01*
G01*
X-565519800Y-116804199D01*
G75*
G02*
X-565269801Y-116554200I249999J0D01*
G01*
G37*
%TD.AperFunction*%
%TO.P,R4,1*%
%TO.N,GND*%
%TA.AperFunction,SMDPad,CuDef*%
G36*
G01*
X-565269801Y-114729200D02*
X-564369799Y-114729200D01*
G75*
G02*
X-564119800Y-114979199I0J-249999D01*
G01*
X-564119800Y-115504201D01*
G75*
G02*
X-564369799Y-115754200I-249999J0D01*
G01*
X-565269801Y-115754200D01*
G75*
G02*
X-565519800Y-115504201I0J249999D01*
G01*
X-565519800Y-114979199D01*
G75*
G02*
X-565269801Y-114729200I249999J0D01*
G01*
G37*
%TD.AperFunction*%
%TD*%
%TO.P,R3,2*%
%TO.N,Net-(R3-Pad2)*%
%TA.AperFunction,SMDPad,CuDef*%
G36*
G01*
X-565055599Y-57385000D02*
X-565955601Y-57385000D01*
G75*
G02*
X-566205600Y-57135001I0J249999D01*
G01*
X-566205600Y-56609999D01*
G75*
G02*
X-565955601Y-56360000I249999J0D01*
G01*
X-565055599Y-56360000D01*
G75*
G02*
X-564805600Y-56609999I0J-249999D01*
G01*
X-564805600Y-57135001D01*
G75*
G02*
X-565055599Y-57385000I-249999J0D01*
G01*
G37*
%TD.AperFunction*%
%TO.P,R3,1*%
%TO.N,+5V*%
%TA.AperFunction,SMDPad,CuDef*%
G36*
G01*
X-565055599Y-59210000D02*
X-565955601Y-59210000D01*
G75*
G02*
X-566205600Y-58960001I0J249999D01*
G01*
X-566205600Y-58434999D01*
G75*
G02*
X-565955601Y-58185000I249999J0D01*
G01*
X-565055599Y-58185000D01*
G75*
G02*
X-564805600Y-58434999I0J-249999D01*
G01*
X-564805600Y-58960001D01*
G75*
G02*
X-565055599Y-59210000I-249999J0D01*
G01*
G37*
%TD.AperFunction*%
%TD*%
%TO.P,R2,2*%
%TO.N,D+*%
%TA.AperFunction,SMDPad,CuDef*%
G36*
G01*
X-547364400Y-73767799D02*
X-547364400Y-74667801D01*
G75*
G02*
X-547614399Y-74917800I-249999J0D01*
G01*
X-548139401Y-74917800D01*
G75*
G02*
X-548389400Y-74667801I0J249999D01*
G01*
X-548389400Y-73767799D01*
G75*
G02*
X-548139401Y-73517800I249999J0D01*
G01*
X-547614399Y-73517800D01*
G75*
G02*
X-547364400Y-73767799I0J-249999D01*
G01*
G37*
%TD.AperFunction*%
%TO.P,R2,1*%
%TO.N,Net-(R2-Pad1)*%
%TA.AperFunction,SMDPad,CuDef*%
G36*
G01*
X-545539400Y-73767799D02*
X-545539400Y-74667801D01*
G75*
G02*
X-545789399Y-74917800I-249999J0D01*
G01*
X-546314401Y-74917800D01*
G75*
G02*
X-546564400Y-74667801I0J249999D01*
G01*
X-546564400Y-73767799D01*
G75*
G02*
X-546314401Y-73517800I249999J0D01*
G01*
X-545789399Y-73517800D01*
G75*
G02*
X-545539400Y-73767799I0J-249999D01*
G01*
G37*
%TD.AperFunction*%
%TD*%
%TO.P,R1,2*%
%TO.N,D-*%
%TA.AperFunction,SMDPad,CuDef*%
G36*
G01*
X-542954400Y-73767799D02*
X-542954400Y-74667801D01*
G75*
G02*
X-543204399Y-74917800I-249999J0D01*
G01*
X-543729401Y-74917800D01*
G75*
G02*
X-543979400Y-74667801I0J249999D01*
G01*
X-543979400Y-73767799D01*
G75*
G02*
X-543729401Y-73517800I249999J0D01*
G01*
X-543204399Y-73517800D01*
G75*
G02*
X-542954400Y-73767799I0J-249999D01*
G01*
G37*
%TD.AperFunction*%
%TO.P,R1,1*%
%TO.N,Net-(R1-Pad1)*%
%TA.AperFunction,SMDPad,CuDef*%
G36*
G01*
X-541129400Y-73767799D02*
X-541129400Y-74667801D01*
G75*
G02*
X-541379399Y-74917800I-249999J0D01*
G01*
X-541904401Y-74917800D01*
G75*
G02*
X-542154400Y-74667801I0J249999D01*
G01*
X-542154400Y-73767799D01*
G75*
G02*
X-541904401Y-73517800I249999J0D01*
G01*
X-541379399Y-73517800D01*
G75*
G02*
X-541129400Y-73767799I0J-249999D01*
G01*
G37*
%TD.AperFunction*%
%TD*%
%TO.P,F1,2*%
%TO.N,VCC*%
%TA.AperFunction,SMDPad,CuDef*%
G36*
G01*
X-563359000Y-64226600D02*
X-563359000Y-62976600D01*
G75*
G02*
X-563109000Y-62726600I250000J0D01*
G01*
X-562359000Y-62726600D01*
G75*
G02*
X-562109000Y-62976600I0J-250000D01*
G01*
X-562109000Y-64226600D01*
G75*
G02*
X-562359000Y-64476600I-250000J0D01*
G01*
X-563109000Y-64476600D01*
G75*
G02*
X-563359000Y-64226600I0J250000D01*
G01*
G37*
%TD.AperFunction*%
%TO.P,F1,1*%
%TO.N,+5V*%
%TA.AperFunction,SMDPad,CuDef*%
G36*
G01*
X-566159000Y-64226600D02*
X-566159000Y-62976600D01*
G75*
G02*
X-565909000Y-62726600I250000J0D01*
G01*
X-565159000Y-62726600D01*
G75*
G02*
X-564909000Y-62976600I0J-250000D01*
G01*
X-564909000Y-64226600D01*
G75*
G02*
X-565159000Y-64476600I-250000J0D01*
G01*
X-565909000Y-64476600D01*
G75*
G02*
X-566159000Y-64226600I0J250000D01*
G01*
G37*
%TD.AperFunction*%
%TD*%
%TO.P,C7,2*%
%TO.N,GND*%
%TA.AperFunction,SMDPad,CuDef*%
G36*
G01*
X-517050000Y-89491400D02*
X-518000000Y-89491400D01*
G75*
G02*
X-518250000Y-89241400I0J250000D01*
G01*
X-518250000Y-88741400D01*
G75*
G02*
X-518000000Y-88491400I250000J0D01*
G01*
X-517050000Y-88491400D01*
G75*
G02*
X-516800000Y-88741400I0J-250000D01*
G01*
X-516800000Y-89241400D01*
G75*
G02*
X-517050000Y-89491400I-250000J0D01*
G01*
G37*
%TD.AperFunction*%
%TO.P,C7,1*%
%TO.N,+5V*%
%TA.AperFunction,SMDPad,CuDef*%
G36*
G01*
X-517050000Y-91391400D02*
X-518000000Y-91391400D01*
G75*
G02*
X-518250000Y-91141400I0J250000D01*
G01*
X-518250000Y-90641400D01*
G75*
G02*
X-518000000Y-90391400I250000J0D01*
G01*
X-517050000Y-90391400D01*
G75*
G02*
X-516800000Y-90641400I0J-250000D01*
G01*
X-516800000Y-91141400D01*
G75*
G02*
X-517050000Y-91391400I-250000J0D01*
G01*
G37*
%TD.AperFunction*%
%TD*%
%TO.P,C6,2*%
%TO.N,GND*%
%TA.AperFunction,SMDPad,CuDef*%
G36*
G01*
X-521063200Y-89415200D02*
X-522013200Y-89415200D01*
G75*
G02*
X-522263200Y-89165200I0J250000D01*
G01*
X-522263200Y-88665200D01*
G75*
G02*
X-522013200Y-88415200I250000J0D01*
G01*
X-521063200Y-88415200D01*
G75*
G02*
X-520813200Y-88665200I0J-250000D01*
G01*
X-520813200Y-89165200D01*
G75*
G02*
X-521063200Y-89415200I-250000J0D01*
G01*
G37*
%TD.AperFunction*%
%TO.P,C6,1*%
%TO.N,+5V*%
%TA.AperFunction,SMDPad,CuDef*%
G36*
G01*
X-521063200Y-91315200D02*
X-522013200Y-91315200D01*
G75*
G02*
X-522263200Y-91065200I0J250000D01*
G01*
X-522263200Y-90565200D01*
G75*
G02*
X-522013200Y-90315200I250000J0D01*
G01*
X-521063200Y-90315200D01*
G75*
G02*
X-520813200Y-90565200I0J-250000D01*
G01*
X-520813200Y-91065200D01*
G75*
G02*
X-521063200Y-91315200I-250000J0D01*
G01*
G37*
%TD.AperFunction*%
%TD*%
%TO.P,C5,2*%
%TO.N,GND*%
%TA.AperFunction,SMDPad,CuDef*%
G36*
G01*
X-536516600Y-116197800D02*
X-535566600Y-116197800D01*
G75*
G02*
X-535316600Y-116447800I0J-250000D01*
G01*
X-535316600Y-116947800D01*
G75*
G02*
X-535566600Y-117197800I-250000J0D01*
G01*
X-536516600Y-117197800D01*
G75*
G02*
X-536766600Y-116947800I0J250000D01*
G01*
X-536766600Y-116447800D01*
G75*
G02*
X-536516600Y-116197800I250000J0D01*
G01*
G37*
%TD.AperFunction*%
%TO.P,C5,1*%
%TO.N,Net-(C5-Pad1)*%
%TA.AperFunction,SMDPad,CuDef*%
G36*
G01*
X-536516600Y-114297800D02*
X-535566600Y-114297800D01*
G75*
G02*
X-535316600Y-114547800I0J-250000D01*
G01*
X-535316600Y-115047800D01*
G75*
G02*
X-535566600Y-115297800I-250000J0D01*
G01*
X-536516600Y-115297800D01*
G75*
G02*
X-536766600Y-115047800I0J250000D01*
G01*
X-536766600Y-114547800D01*
G75*
G02*
X-536516600Y-114297800I250000J0D01*
G01*
G37*
%TD.AperFunction*%
%TD*%
%TO.P,C4,2*%
%TO.N,GND*%
%TA.AperFunction,SMDPad,CuDef*%
G36*
G01*
X-525076400Y-89440600D02*
X-526026400Y-89440600D01*
G75*
G02*
X-526276400Y-89190600I0J250000D01*
G01*
X-526276400Y-88690600D01*
G75*
G02*
X-526026400Y-88440600I250000J0D01*
G01*
X-525076400Y-88440600D01*
G75*
G02*
X-524826400Y-88690600I0J-250000D01*
G01*
X-524826400Y-89190600D01*
G75*
G02*
X-525076400Y-89440600I-250000J0D01*
G01*
G37*
%TD.AperFunction*%
%TO.P,C4,1*%
%TO.N,+5V*%
%TA.AperFunction,SMDPad,CuDef*%
G36*
G01*
X-525076400Y-91340600D02*
X-526026400Y-91340600D01*
G75*
G02*
X-526276400Y-91090600I0J250000D01*
G01*
X-526276400Y-90590600D01*
G75*
G02*
X-526026400Y-90340600I250000J0D01*
G01*
X-525076400Y-90340600D01*
G75*
G02*
X-524826400Y-90590600I0J-250000D01*
G01*
X-524826400Y-91090600D01*
G75*
G02*
X-525076400Y-91340600I-250000J0D01*
G01*
G37*
%TD.AperFunction*%
%TD*%
%TO.P,C3,2*%
%TO.N,GND*%
%TA.AperFunction,SMDPad,CuDef*%
G36*
G01*
X-529216600Y-89491400D02*
X-530166600Y-89491400D01*
G75*
G02*
X-530416600Y-89241400I0J250000D01*
G01*
X-530416600Y-88741400D01*
G75*
G02*
X-530166600Y-88491400I250000J0D01*
G01*
X-529216600Y-88491400D01*
G75*
G02*
X-528966600Y-88741400I0J-250000D01*
G01*
X-528966600Y-89241400D01*
G75*
G02*
X-529216600Y-89491400I-250000J0D01*
G01*
G37*
%TD.AperFunction*%
%TO.P,C3,1*%
%TO.N,+5V*%
%TA.AperFunction,SMDPad,CuDef*%
G36*
G01*
X-529216600Y-91391400D02*
X-530166600Y-91391400D01*
G75*
G02*
X-530416600Y-91141400I0J250000D01*
G01*
X-530416600Y-90641400D01*
G75*
G02*
X-530166600Y-90391400I250000J0D01*
G01*
X-529216600Y-90391400D01*
G75*
G02*
X-528966600Y-90641400I0J-250000D01*
G01*
X-528966600Y-91141400D01*
G75*
G02*
X-529216600Y-91391400I-250000J0D01*
G01*
G37*
%TD.AperFunction*%
%TD*%
%TO.P,C2,2*%
%TO.N,GND*%
%TA.AperFunction,SMDPad,CuDef*%
G36*
G01*
X-543501600Y-95674600D02*
X-542551600Y-95674600D01*
G75*
G02*
X-542301600Y-95924600I0J-250000D01*
G01*
X-542301600Y-96424600D01*
G75*
G02*
X-542551600Y-96674600I-250000J0D01*
G01*
X-543501600Y-96674600D01*
G75*
G02*
X-543751600Y-96424600I0J250000D01*
G01*
X-543751600Y-95924600D01*
G75*
G02*
X-543501600Y-95674600I250000J0D01*
G01*
G37*
%TD.AperFunction*%
%TO.P,C2,1*%
%TO.N,Net-(C2-Pad1)*%
%TA.AperFunction,SMDPad,CuDef*%
G36*
G01*
X-543501600Y-93774600D02*
X-542551600Y-93774600D01*
G75*
G02*
X-542301600Y-94024600I0J-250000D01*
G01*
X-542301600Y-94524600D01*
G75*
G02*
X-542551600Y-94774600I-250000J0D01*
G01*
X-543501600Y-94774600D01*
G75*
G02*
X-543751600Y-94524600I0J250000D01*
G01*
X-543751600Y-94024600D01*
G75*
G02*
X-543501600Y-93774600I250000J0D01*
G01*
G37*
%TD.AperFunction*%
%TD*%
%TO.P,C1,2*%
%TO.N,GND*%
%TA.AperFunction,SMDPad,CuDef*%
G36*
G01*
X-555785000Y-94647600D02*
X-556735000Y-94647600D01*
G75*
G02*
X-556985000Y-94397600I0J250000D01*
G01*
X-556985000Y-93897600D01*
G75*
G02*
X-556735000Y-93647600I250000J0D01*
G01*
X-555785000Y-93647600D01*
G75*
G02*
X-555535000Y-93897600I0J-250000D01*
G01*
X-555535000Y-94397600D01*
G75*
G02*
X-555785000Y-94647600I-250000J0D01*
G01*
G37*
%TD.AperFunction*%
%TO.P,C1,1*%
%TO.N,Net-(C1-Pad1)*%
%TA.AperFunction,SMDPad,CuDef*%
G36*
G01*
X-555785000Y-96547600D02*
X-556735000Y-96547600D01*
G75*
G02*
X-556985000Y-96297600I0J250000D01*
G01*
X-556985000Y-95797600D01*
G75*
G02*
X-556735000Y-95547600I250000J0D01*
G01*
X-555785000Y-95547600D01*
G75*
G02*
X-555535000Y-95797600I0J-250000D01*
G01*
X-555535000Y-96297600D01*
G75*
G02*
X-555785000Y-96547600I-250000J0D01*
G01*
G37*
%TD.AperFunction*%
%TD*%
D10*
%TO.P,MX54,1*%
%TO.N,Col8*%
X-394304496Y-180797143D03*
%TA.AperFunction,ComponentPad*%
G36*
G01*
X-396890169Y-182482707D02*
X-396890173Y-182482700D01*
G75*
G02*
X-396562093Y-180925904I942438J614358D01*
G01*
X-394918853Y-179854706D01*
G75*
G02*
X-393362057Y-180182786I614358J-942438D01*
G01*
X-393362057Y-180182786D01*
G75*
G02*
X-393690137Y-181739582I-942438J-614358D01*
G01*
X-395333377Y-182810780D01*
G75*
G02*
X-396890173Y-182482700I-614358J942438D01*
G01*
G37*
%TD.AperFunction*%
%TO.P,MX54,2*%
%TO.N,Net-(D54-Pad2)*%
X-389156706Y-181058391D03*
%TA.AperFunction,ComponentPad*%
G36*
G01*
X-389709865Y-182672621D02*
X-389710705Y-182672333D01*
G75*
G02*
X-390409516Y-181243028I365247J1064058D01*
G01*
X-390220764Y-180693144D01*
G75*
G02*
X-388791459Y-179994333I1064058J-365247D01*
G01*
X-388791459Y-179994333D01*
G75*
G02*
X-388092648Y-181423638I-365247J-1064058D01*
G01*
X-388281400Y-181973522D01*
G75*
G02*
X-389710705Y-182672333I-1064058J365247D01*
G01*
G37*
%TD.AperFunction*%
%TD*%
%TO.P,MX95,1*%
%TO.N,Col15*%
X-228645600Y-141338800D03*
%TA.AperFunction,ComponentPad*%
G36*
G01*
X-230706912Y-143636150D02*
X-230706917Y-143636145D01*
G75*
G02*
X-230792945Y-142047483I751317J837345D01*
G01*
X-229482943Y-140587483D01*
G75*
G02*
X-227894281Y-140501455I837345J-751317D01*
G01*
X-227894281Y-140501455D01*
G75*
G02*
X-227808253Y-142090117I-751317J-837345D01*
G01*
X-229118255Y-143550117D01*
G75*
G02*
X-230706917Y-143636145I-837345J751317D01*
G01*
G37*
%TD.AperFunction*%
%TO.P,MX95,2*%
%TO.N,Net-(D95-Pad2)*%
X-223605600Y-140258800D03*
%TA.AperFunction,ComponentPad*%
G36*
G01*
X-223722117Y-141961195D02*
X-223723003Y-141961134D01*
G75*
G02*
X-224767934Y-140761397I77403J1122334D01*
G01*
X-224727934Y-140181397D01*
G75*
G02*
X-223528197Y-139136466I1122334J-77403D01*
G01*
X-223528197Y-139136466D01*
G75*
G02*
X-222483266Y-140336203I-77403J-1122334D01*
G01*
X-222523266Y-140916203D01*
G75*
G02*
X-223723003Y-141961134I-1122334J77403D01*
G01*
G37*
%TD.AperFunction*%
%TD*%
%TO.P,MX105,1*%
%TO.N,Col17*%
X-202458200Y-103213400D03*
%TA.AperFunction,ComponentPad*%
G36*
G01*
X-204519512Y-105510750D02*
X-204519517Y-105510745D01*
G75*
G02*
X-204605545Y-103922083I751317J837345D01*
G01*
X-203295543Y-102462083D01*
G75*
G02*
X-201706881Y-102376055I837345J-751317D01*
G01*
X-201706881Y-102376055D01*
G75*
G02*
X-201620853Y-103964717I-751317J-837345D01*
G01*
X-202930855Y-105424717D01*
G75*
G02*
X-204519517Y-105510745I-837345J751317D01*
G01*
G37*
%TD.AperFunction*%
%TO.P,MX105,2*%
%TO.N,Net-(D105-Pad2)*%
X-197418200Y-102133400D03*
%TA.AperFunction,ComponentPad*%
G36*
G01*
X-197534717Y-103835795D02*
X-197535603Y-103835734D01*
G75*
G02*
X-198580534Y-102635997I77403J1122334D01*
G01*
X-198540534Y-102055997D01*
G75*
G02*
X-197340797Y-101011066I1122334J-77403D01*
G01*
X-197340797Y-101011066D01*
G75*
G02*
X-196295866Y-102210803I-77403J-1122334D01*
G01*
X-196335866Y-102790803D01*
G75*
G02*
X-197535603Y-103835734I-1122334J77403D01*
G01*
G37*
%TD.AperFunction*%
%TD*%
%TO.P,MX29,1*%
%TO.N,Col4*%
X-527899000Y-141288000D03*
%TA.AperFunction,ComponentPad*%
G36*
G01*
X-529960312Y-143585350D02*
X-529960317Y-143585345D01*
G75*
G02*
X-530046345Y-141996683I751317J837345D01*
G01*
X-528736343Y-140536683D01*
G75*
G02*
X-527147681Y-140450655I837345J-751317D01*
G01*
X-527147681Y-140450655D01*
G75*
G02*
X-527061653Y-142039317I-751317J-837345D01*
G01*
X-528371655Y-143499317D01*
G75*
G02*
X-529960317Y-143585345I-837345J751317D01*
G01*
G37*
%TD.AperFunction*%
%TO.P,MX29,2*%
%TO.N,Net-(D29-Pad2)*%
X-522859000Y-140208000D03*
%TA.AperFunction,ComponentPad*%
G36*
G01*
X-522975517Y-141910395D02*
X-522976403Y-141910334D01*
G75*
G02*
X-524021334Y-140710597I77403J1122334D01*
G01*
X-523981334Y-140130597D01*
G75*
G02*
X-522781597Y-139085666I1122334J-77403D01*
G01*
X-522781597Y-139085666D01*
G75*
G02*
X-521736666Y-140285403I-77403J-1122334D01*
G01*
X-521776666Y-140865403D01*
G75*
G02*
X-522976403Y-141910334I-1122334J77403D01*
G01*
G37*
%TD.AperFunction*%
%TD*%
%TO.P,MX28,1*%
%TO.N,Col4*%
X-513548000Y-122238000D03*
%TA.AperFunction,ComponentPad*%
G36*
G01*
X-515609312Y-124535350D02*
X-515609317Y-124535345D01*
G75*
G02*
X-515695345Y-122946683I751317J837345D01*
G01*
X-514385343Y-121486683D01*
G75*
G02*
X-512796681Y-121400655I837345J-751317D01*
G01*
X-512796681Y-121400655D01*
G75*
G02*
X-512710653Y-122989317I-751317J-837345D01*
G01*
X-514020655Y-124449317D01*
G75*
G02*
X-515609317Y-124535345I-837345J751317D01*
G01*
G37*
%TD.AperFunction*%
%TO.P,MX28,2*%
%TO.N,Net-(D28-Pad2)*%
X-508508000Y-121158000D03*
%TA.AperFunction,ComponentPad*%
G36*
G01*
X-508624517Y-122860395D02*
X-508625403Y-122860334D01*
G75*
G02*
X-509670334Y-121660597I77403J1122334D01*
G01*
X-509630334Y-121080597D01*
G75*
G02*
X-508430597Y-120035666I1122334J-77403D01*
G01*
X-508430597Y-120035666D01*
G75*
G02*
X-507385666Y-121235403I-77403J-1122334D01*
G01*
X-507425666Y-121815403D01*
G75*
G02*
X-508625403Y-122860334I-1122334J77403D01*
G01*
G37*
%TD.AperFunction*%
%TD*%
%TO.P,MX6,1*%
%TO.N,Col0*%
X-658963000Y-160338000D03*
%TA.AperFunction,ComponentPad*%
G36*
G01*
X-661024312Y-162635350D02*
X-661024317Y-162635345D01*
G75*
G02*
X-661110345Y-161046683I751317J837345D01*
G01*
X-659800343Y-159586683D01*
G75*
G02*
X-658211681Y-159500655I837345J-751317D01*
G01*
X-658211681Y-159500655D01*
G75*
G02*
X-658125653Y-161089317I-751317J-837345D01*
G01*
X-659435655Y-162549317D01*
G75*
G02*
X-661024317Y-162635345I-837345J751317D01*
G01*
G37*
%TD.AperFunction*%
%TO.P,MX6,2*%
%TO.N,Net-(D6-Pad2)*%
X-653923000Y-159258000D03*
%TA.AperFunction,ComponentPad*%
G36*
G01*
X-654039517Y-160960395D02*
X-654040403Y-160960334D01*
G75*
G02*
X-655085334Y-159760597I77403J1122334D01*
G01*
X-655045334Y-159180597D01*
G75*
G02*
X-653845597Y-158135666I1122334J-77403D01*
G01*
X-653845597Y-158135666D01*
G75*
G02*
X-652800666Y-159335403I-77403J-1122334D01*
G01*
X-652840666Y-159915403D01*
G75*
G02*
X-654040403Y-160960334I-1122334J77403D01*
G01*
G37*
%TD.AperFunction*%
%TD*%
%TO.P,MX104,1*%
%TO.N,Col17*%
X-207233400Y-84138000D03*
%TA.AperFunction,ComponentPad*%
G36*
G01*
X-209294712Y-86435350D02*
X-209294717Y-86435345D01*
G75*
G02*
X-209380745Y-84846683I751317J837345D01*
G01*
X-208070743Y-83386683D01*
G75*
G02*
X-206482081Y-83300655I837345J-751317D01*
G01*
X-206482081Y-83300655D01*
G75*
G02*
X-206396053Y-84889317I-751317J-837345D01*
G01*
X-207706055Y-86349317D01*
G75*
G02*
X-209294717Y-86435345I-837345J751317D01*
G01*
G37*
%TD.AperFunction*%
%TO.P,MX104,2*%
%TO.N,Net-(D104-Pad2)*%
X-202193400Y-83058000D03*
%TA.AperFunction,ComponentPad*%
G36*
G01*
X-202309917Y-84760395D02*
X-202310803Y-84760334D01*
G75*
G02*
X-203355734Y-83560597I77403J1122334D01*
G01*
X-203315734Y-82980597D01*
G75*
G02*
X-202115997Y-81935666I1122334J-77403D01*
G01*
X-202115997Y-81935666D01*
G75*
G02*
X-201071066Y-83135403I-77403J-1122334D01*
G01*
X-201111066Y-83715403D01*
G75*
G02*
X-202310803Y-84760334I-1122334J77403D01*
G01*
G37*
%TD.AperFunction*%
%TD*%
%TO.P,MX103,1*%
%TO.N,Col17*%
X-197683000Y-60325500D03*
%TA.AperFunction,ComponentPad*%
G36*
G01*
X-199744312Y-62622850D02*
X-199744317Y-62622845D01*
G75*
G02*
X-199830345Y-61034183I751317J837345D01*
G01*
X-198520343Y-59574183D01*
G75*
G02*
X-196931681Y-59488155I837345J-751317D01*
G01*
X-196931681Y-59488155D01*
G75*
G02*
X-196845653Y-61076817I-751317J-837345D01*
G01*
X-198155655Y-62536817D01*
G75*
G02*
X-199744317Y-62622845I-837345J751317D01*
G01*
G37*
%TD.AperFunction*%
%TO.P,MX103,2*%
%TO.N,Net-(D103-Pad2)*%
X-192643000Y-59245500D03*
%TA.AperFunction,ComponentPad*%
G36*
G01*
X-192759517Y-60947895D02*
X-192760403Y-60947834D01*
G75*
G02*
X-193805334Y-59748097I77403J1122334D01*
G01*
X-193765334Y-59168097D01*
G75*
G02*
X-192565597Y-58123166I1122334J-77403D01*
G01*
X-192565597Y-58123166D01*
G75*
G02*
X-191520666Y-59322903I-77403J-1122334D01*
G01*
X-191560666Y-59902903D01*
G75*
G02*
X-192760403Y-60947834I-1122334J77403D01*
G01*
G37*
%TD.AperFunction*%
%TD*%
%TO.P,MX102,1*%
%TO.N,Col16*%
X-197683000Y-141288000D03*
%TA.AperFunction,ComponentPad*%
G36*
G01*
X-199744312Y-143585350D02*
X-199744317Y-143585345D01*
G75*
G02*
X-199830345Y-141996683I751317J837345D01*
G01*
X-198520343Y-140536683D01*
G75*
G02*
X-196931681Y-140450655I837345J-751317D01*
G01*
X-196931681Y-140450655D01*
G75*
G02*
X-196845653Y-142039317I-751317J-837345D01*
G01*
X-198155655Y-143499317D01*
G75*
G02*
X-199744317Y-143585345I-837345J751317D01*
G01*
G37*
%TD.AperFunction*%
%TO.P,MX102,2*%
%TO.N,Net-(D102-Pad2)*%
X-192643000Y-140208000D03*
%TA.AperFunction,ComponentPad*%
G36*
G01*
X-192759517Y-141910395D02*
X-192760403Y-141910334D01*
G75*
G02*
X-193805334Y-140710597I77403J1122334D01*
G01*
X-193765334Y-140130597D01*
G75*
G02*
X-192565597Y-139085666I1122334J-77403D01*
G01*
X-192565597Y-139085666D01*
G75*
G02*
X-191520666Y-140285403I-77403J-1122334D01*
G01*
X-191560666Y-140865403D01*
G75*
G02*
X-192760403Y-141910334I-1122334J77403D01*
G01*
G37*
%TD.AperFunction*%
%TD*%
%TO.P,MX101,1*%
%TO.N,Col16*%
X-209601400Y-122238000D03*
%TA.AperFunction,ComponentPad*%
G36*
G01*
X-211662712Y-124535350D02*
X-211662717Y-124535345D01*
G75*
G02*
X-211748745Y-122946683I751317J837345D01*
G01*
X-210438743Y-121486683D01*
G75*
G02*
X-208850081Y-121400655I837345J-751317D01*
G01*
X-208850081Y-121400655D01*
G75*
G02*
X-208764053Y-122989317I-751317J-837345D01*
G01*
X-210074055Y-124449317D01*
G75*
G02*
X-211662717Y-124535345I-837345J751317D01*
G01*
G37*
%TD.AperFunction*%
%TO.P,MX101,2*%
%TO.N,Net-(D101-Pad2)*%
X-204561400Y-121158000D03*
%TA.AperFunction,ComponentPad*%
G36*
G01*
X-204677917Y-122860395D02*
X-204678803Y-122860334D01*
G75*
G02*
X-205723734Y-121660597I77403J1122334D01*
G01*
X-205683734Y-121080597D01*
G75*
G02*
X-204483997Y-120035666I1122334J-77403D01*
G01*
X-204483997Y-120035666D01*
G75*
G02*
X-203439066Y-121235403I-77403J-1122334D01*
G01*
X-203479066Y-121815403D01*
G75*
G02*
X-204678803Y-122860334I-1122334J77403D01*
G01*
G37*
%TD.AperFunction*%
%TD*%
%TO.P,MX99,1*%
%TO.N,Col16*%
X-226283400Y-103213400D03*
%TA.AperFunction,ComponentPad*%
G36*
G01*
X-228344712Y-105510750D02*
X-228344717Y-105510745D01*
G75*
G02*
X-228430745Y-103922083I751317J837345D01*
G01*
X-227120743Y-102462083D01*
G75*
G02*
X-225532081Y-102376055I837345J-751317D01*
G01*
X-225532081Y-102376055D01*
G75*
G02*
X-225446053Y-103964717I-751317J-837345D01*
G01*
X-226756055Y-105424717D01*
G75*
G02*
X-228344717Y-105510745I-837345J751317D01*
G01*
G37*
%TD.AperFunction*%
%TO.P,MX99,2*%
%TO.N,Net-(D99-Pad2)*%
X-221243400Y-102133400D03*
%TA.AperFunction,ComponentPad*%
G36*
G01*
X-221359917Y-103835795D02*
X-221360803Y-103835734D01*
G75*
G02*
X-222405734Y-102635997I77403J1122334D01*
G01*
X-222365734Y-102055997D01*
G75*
G02*
X-221165997Y-101011066I1122334J-77403D01*
G01*
X-221165997Y-101011066D01*
G75*
G02*
X-220121066Y-102210803I-77403J-1122334D01*
G01*
X-220161066Y-102790803D01*
G75*
G02*
X-221360803Y-103835734I-1122334J77403D01*
G01*
G37*
%TD.AperFunction*%
%TD*%
%TO.P,MX98,1*%
%TO.N,Col16*%
X-235808400Y-84163400D03*
%TA.AperFunction,ComponentPad*%
G36*
G01*
X-237869712Y-86460750D02*
X-237869717Y-86460745D01*
G75*
G02*
X-237955745Y-84872083I751317J837345D01*
G01*
X-236645743Y-83412083D01*
G75*
G02*
X-235057081Y-83326055I837345J-751317D01*
G01*
X-235057081Y-83326055D01*
G75*
G02*
X-234971053Y-84914717I-751317J-837345D01*
G01*
X-236281055Y-86374717D01*
G75*
G02*
X-237869717Y-86460745I-837345J751317D01*
G01*
G37*
%TD.AperFunction*%
%TO.P,MX98,2*%
%TO.N,Net-(D98-Pad2)*%
X-230768400Y-83083400D03*
%TA.AperFunction,ComponentPad*%
G36*
G01*
X-230884917Y-84785795D02*
X-230885803Y-84785734D01*
G75*
G02*
X-231930734Y-83585997I77403J1122334D01*
G01*
X-231890734Y-83005997D01*
G75*
G02*
X-230690997Y-81961066I1122334J-77403D01*
G01*
X-230690997Y-81961066D01*
G75*
G02*
X-229646066Y-83160803I-77403J-1122334D01*
G01*
X-229686066Y-83740803D01*
G75*
G02*
X-230885803Y-84785734I-1122334J77403D01*
G01*
G37*
%TD.AperFunction*%
%TD*%
%TO.P,MX97,1*%
%TO.N,Col16*%
X-216733000Y-60325500D03*
%TA.AperFunction,ComponentPad*%
G36*
G01*
X-218794312Y-62622850D02*
X-218794317Y-62622845D01*
G75*
G02*
X-218880345Y-61034183I751317J837345D01*
G01*
X-217570343Y-59574183D01*
G75*
G02*
X-215981681Y-59488155I837345J-751317D01*
G01*
X-215981681Y-59488155D01*
G75*
G02*
X-215895653Y-61076817I-751317J-837345D01*
G01*
X-217205655Y-62536817D01*
G75*
G02*
X-218794317Y-62622845I-837345J751317D01*
G01*
G37*
%TD.AperFunction*%
%TO.P,MX97,2*%
%TO.N,Net-(D97-Pad2)*%
X-211693000Y-59245500D03*
%TA.AperFunction,ComponentPad*%
G36*
G01*
X-211809517Y-60947895D02*
X-211810403Y-60947834D01*
G75*
G02*
X-212855334Y-59748097I77403J1122334D01*
G01*
X-212815334Y-59168097D01*
G75*
G02*
X-211615597Y-58123166I1122334J-77403D01*
G01*
X-211615597Y-58123166D01*
G75*
G02*
X-210570666Y-59322903I-77403J-1122334D01*
G01*
X-210610666Y-59902903D01*
G75*
G02*
X-211810403Y-60947834I-1122334J77403D01*
G01*
G37*
%TD.AperFunction*%
%TD*%
%TO.P,MX96,1*%
%TO.N,Col15*%
X-200049000Y-160363400D03*
%TA.AperFunction,ComponentPad*%
G36*
G01*
X-202110312Y-162660750D02*
X-202110317Y-162660745D01*
G75*
G02*
X-202196345Y-161072083I751317J837345D01*
G01*
X-200886343Y-159612083D01*
G75*
G02*
X-199297681Y-159526055I837345J-751317D01*
G01*
X-199297681Y-159526055D01*
G75*
G02*
X-199211653Y-161114717I-751317J-837345D01*
G01*
X-200521655Y-162574717D01*
G75*
G02*
X-202110317Y-162660745I-837345J751317D01*
G01*
G37*
%TD.AperFunction*%
%TO.P,MX96,2*%
%TO.N,Net-(D96-Pad2)*%
X-195009000Y-159283400D03*
%TA.AperFunction,ComponentPad*%
G36*
G01*
X-195125517Y-160985795D02*
X-195126403Y-160985734D01*
G75*
G02*
X-196171334Y-159785997I77403J1122334D01*
G01*
X-196131334Y-159205997D01*
G75*
G02*
X-194931597Y-158161066I1122334J-77403D01*
G01*
X-194931597Y-158161066D01*
G75*
G02*
X-193886666Y-159360803I-77403J-1122334D01*
G01*
X-193926666Y-159940803D01*
G75*
G02*
X-195126403Y-160985734I-1122334J77403D01*
G01*
G37*
%TD.AperFunction*%
%TD*%
%TO.P,MX94,1*%
%TO.N,Col15*%
X-240532800Y-122212600D03*
%TA.AperFunction,ComponentPad*%
G36*
G01*
X-242594112Y-124509950D02*
X-242594117Y-124509945D01*
G75*
G02*
X-242680145Y-122921283I751317J837345D01*
G01*
X-241370143Y-121461283D01*
G75*
G02*
X-239781481Y-121375255I837345J-751317D01*
G01*
X-239781481Y-121375255D01*
G75*
G02*
X-239695453Y-122963917I-751317J-837345D01*
G01*
X-241005455Y-124423917D01*
G75*
G02*
X-242594117Y-124509945I-837345J751317D01*
G01*
G37*
%TD.AperFunction*%
%TO.P,MX94,2*%
%TO.N,Net-(D94-Pad2)*%
X-235492800Y-121132600D03*
%TA.AperFunction,ComponentPad*%
G36*
G01*
X-235609317Y-122834995D02*
X-235610203Y-122834934D01*
G75*
G02*
X-236655134Y-121635197I77403J1122334D01*
G01*
X-236615134Y-121055197D01*
G75*
G02*
X-235415397Y-120010266I1122334J-77403D01*
G01*
X-235415397Y-120010266D01*
G75*
G02*
X-234370466Y-121210003I-77403J-1122334D01*
G01*
X-234410466Y-121790003D01*
G75*
G02*
X-235610203Y-122834934I-1122334J77403D01*
G01*
G37*
%TD.AperFunction*%
%TD*%
%TO.P,MX93,1*%
%TO.N,Col15*%
X-245333400Y-103213400D03*
%TA.AperFunction,ComponentPad*%
G36*
G01*
X-247394712Y-105510750D02*
X-247394717Y-105510745D01*
G75*
G02*
X-247480745Y-103922083I751317J837345D01*
G01*
X-246170743Y-102462083D01*
G75*
G02*
X-244582081Y-102376055I837345J-751317D01*
G01*
X-244582081Y-102376055D01*
G75*
G02*
X-244496053Y-103964717I-751317J-837345D01*
G01*
X-245806055Y-105424717D01*
G75*
G02*
X-247394717Y-105510745I-837345J751317D01*
G01*
G37*
%TD.AperFunction*%
%TO.P,MX93,2*%
%TO.N,Net-(D93-Pad2)*%
X-240293400Y-102133400D03*
%TA.AperFunction,ComponentPad*%
G36*
G01*
X-240409917Y-103835795D02*
X-240410803Y-103835734D01*
G75*
G02*
X-241455734Y-102635997I77403J1122334D01*
G01*
X-241415734Y-102055997D01*
G75*
G02*
X-240215997Y-101011066I1122334J-77403D01*
G01*
X-240215997Y-101011066D01*
G75*
G02*
X-239171066Y-102210803I-77403J-1122334D01*
G01*
X-239211066Y-102790803D01*
G75*
G02*
X-240410803Y-103835734I-1122334J77403D01*
G01*
G37*
%TD.AperFunction*%
%TD*%
%TO.P,MX92,1*%
%TO.N,Col15*%
X-254858400Y-84163400D03*
%TA.AperFunction,ComponentPad*%
G36*
G01*
X-256919712Y-86460750D02*
X-256919717Y-86460745D01*
G75*
G02*
X-257005745Y-84872083I751317J837345D01*
G01*
X-255695743Y-83412083D01*
G75*
G02*
X-254107081Y-83326055I837345J-751317D01*
G01*
X-254107081Y-83326055D01*
G75*
G02*
X-254021053Y-84914717I-751317J-837345D01*
G01*
X-255331055Y-86374717D01*
G75*
G02*
X-256919717Y-86460745I-837345J751317D01*
G01*
G37*
%TD.AperFunction*%
%TO.P,MX92,2*%
%TO.N,Net-(D92-Pad2)*%
X-249818400Y-83083400D03*
%TA.AperFunction,ComponentPad*%
G36*
G01*
X-249934917Y-84785795D02*
X-249935803Y-84785734D01*
G75*
G02*
X-250980734Y-83585997I77403J1122334D01*
G01*
X-250940734Y-83005997D01*
G75*
G02*
X-249740997Y-81961066I1122334J-77403D01*
G01*
X-249740997Y-81961066D01*
G75*
G02*
X-248696066Y-83160803I-77403J-1122334D01*
G01*
X-248736066Y-83740803D01*
G75*
G02*
X-249935803Y-84785734I-1122334J77403D01*
G01*
G37*
%TD.AperFunction*%
%TD*%
%TO.P,MX91,1*%
%TO.N,Col15*%
X-257601600Y-60325500D03*
%TA.AperFunction,ComponentPad*%
G36*
G01*
X-259662912Y-62622850D02*
X-259662917Y-62622845D01*
G75*
G02*
X-259748945Y-61034183I751317J837345D01*
G01*
X-258438943Y-59574183D01*
G75*
G02*
X-256850281Y-59488155I837345J-751317D01*
G01*
X-256850281Y-59488155D01*
G75*
G02*
X-256764253Y-61076817I-751317J-837345D01*
G01*
X-258074255Y-62536817D01*
G75*
G02*
X-259662917Y-62622845I-837345J751317D01*
G01*
G37*
%TD.AperFunction*%
%TO.P,MX91,2*%
%TO.N,Net-(D91-Pad2)*%
X-252561600Y-59245500D03*
%TA.AperFunction,ComponentPad*%
G36*
G01*
X-252678117Y-60947895D02*
X-252679003Y-60947834D01*
G75*
G02*
X-253723934Y-59748097I77403J1122334D01*
G01*
X-253683934Y-59168097D01*
G75*
G02*
X-252484197Y-58123166I1122334J-77403D01*
G01*
X-252484197Y-58123166D01*
G75*
G02*
X-251439266Y-59322903I-77403J-1122334D01*
G01*
X-251479266Y-59902903D01*
G75*
G02*
X-252679003Y-60947834I-1122334J77403D01*
G01*
G37*
%TD.AperFunction*%
%TD*%
%TO.P,MX90,1*%
%TO.N,Col14*%
X-223848800Y-160363400D03*
%TA.AperFunction,ComponentPad*%
G36*
G01*
X-225910112Y-162660750D02*
X-225910117Y-162660745D01*
G75*
G02*
X-225996145Y-161072083I751317J837345D01*
G01*
X-224686143Y-159612083D01*
G75*
G02*
X-223097481Y-159526055I837345J-751317D01*
G01*
X-223097481Y-159526055D01*
G75*
G02*
X-223011453Y-161114717I-751317J-837345D01*
G01*
X-224321455Y-162574717D01*
G75*
G02*
X-225910117Y-162660745I-837345J751317D01*
G01*
G37*
%TD.AperFunction*%
%TO.P,MX90,2*%
%TO.N,Net-(D90-Pad2)*%
X-218808800Y-159283400D03*
%TA.AperFunction,ComponentPad*%
G36*
G01*
X-218925317Y-160985795D02*
X-218926203Y-160985734D01*
G75*
G02*
X-219971134Y-159785997I77403J1122334D01*
G01*
X-219931134Y-159205997D01*
G75*
G02*
X-218731397Y-158161066I1122334J-77403D01*
G01*
X-218731397Y-158161066D01*
G75*
G02*
X-217686466Y-159360803I-77403J-1122334D01*
G01*
X-217726466Y-159940803D01*
G75*
G02*
X-218926203Y-160985734I-1122334J77403D01*
G01*
G37*
%TD.AperFunction*%
%TD*%
%TO.P,MX89,1*%
%TO.N,Col14*%
X-259608200Y-141262600D03*
%TA.AperFunction,ComponentPad*%
G36*
G01*
X-261669512Y-143559950D02*
X-261669517Y-143559945D01*
G75*
G02*
X-261755545Y-141971283I751317J837345D01*
G01*
X-260445543Y-140511283D01*
G75*
G02*
X-258856881Y-140425255I837345J-751317D01*
G01*
X-258856881Y-140425255D01*
G75*
G02*
X-258770853Y-142013917I-751317J-837345D01*
G01*
X-260080855Y-143473917D01*
G75*
G02*
X-261669517Y-143559945I-837345J751317D01*
G01*
G37*
%TD.AperFunction*%
%TO.P,MX89,2*%
%TO.N,Net-(D89-Pad2)*%
X-254568200Y-140182600D03*
%TA.AperFunction,ComponentPad*%
G36*
G01*
X-254684717Y-141884995D02*
X-254685603Y-141884934D01*
G75*
G02*
X-255730534Y-140685197I77403J1122334D01*
G01*
X-255690534Y-140105197D01*
G75*
G02*
X-254490797Y-139060266I1122334J-77403D01*
G01*
X-254490797Y-139060266D01*
G75*
G02*
X-253445866Y-140260003I-77403J-1122334D01*
G01*
X-253485866Y-140840003D01*
G75*
G02*
X-254685603Y-141884934I-1122334J77403D01*
G01*
G37*
%TD.AperFunction*%
%TD*%
%TO.P,MX88,1*%
%TO.N,Col14*%
X-259582800Y-122212600D03*
%TA.AperFunction,ComponentPad*%
G36*
G01*
X-261644112Y-124509950D02*
X-261644117Y-124509945D01*
G75*
G02*
X-261730145Y-122921283I751317J837345D01*
G01*
X-260420143Y-121461283D01*
G75*
G02*
X-258831481Y-121375255I837345J-751317D01*
G01*
X-258831481Y-121375255D01*
G75*
G02*
X-258745453Y-122963917I-751317J-837345D01*
G01*
X-260055455Y-124423917D01*
G75*
G02*
X-261644117Y-124509945I-837345J751317D01*
G01*
G37*
%TD.AperFunction*%
%TO.P,MX88,2*%
%TO.N,Net-(D88-Pad2)*%
X-254542800Y-121132600D03*
%TA.AperFunction,ComponentPad*%
G36*
G01*
X-254659317Y-122834995D02*
X-254660203Y-122834934D01*
G75*
G02*
X-255705134Y-121635197I77403J1122334D01*
G01*
X-255665134Y-121055197D01*
G75*
G02*
X-254465397Y-120010266I1122334J-77403D01*
G01*
X-254465397Y-120010266D01*
G75*
G02*
X-253420466Y-121210003I-77403J-1122334D01*
G01*
X-253460466Y-121790003D01*
G75*
G02*
X-254660203Y-122834934I-1122334J77403D01*
G01*
G37*
%TD.AperFunction*%
%TD*%
%TO.P,MX87,1*%
%TO.N,Col14*%
X-264408800Y-103213400D03*
%TA.AperFunction,ComponentPad*%
G36*
G01*
X-266470112Y-105510750D02*
X-266470117Y-105510745D01*
G75*
G02*
X-266556145Y-103922083I751317J837345D01*
G01*
X-265246143Y-102462083D01*
G75*
G02*
X-263657481Y-102376055I837345J-751317D01*
G01*
X-263657481Y-102376055D01*
G75*
G02*
X-263571453Y-103964717I-751317J-837345D01*
G01*
X-264881455Y-105424717D01*
G75*
G02*
X-266470117Y-105510745I-837345J751317D01*
G01*
G37*
%TD.AperFunction*%
%TO.P,MX87,2*%
%TO.N,Net-(D87-Pad2)*%
X-259368800Y-102133400D03*
%TA.AperFunction,ComponentPad*%
G36*
G01*
X-259485317Y-103835795D02*
X-259486203Y-103835734D01*
G75*
G02*
X-260531134Y-102635997I77403J1122334D01*
G01*
X-260491134Y-102055997D01*
G75*
G02*
X-259291397Y-101011066I1122334J-77403D01*
G01*
X-259291397Y-101011066D01*
G75*
G02*
X-258246466Y-102210803I-77403J-1122334D01*
G01*
X-258286466Y-102790803D01*
G75*
G02*
X-259486203Y-103835734I-1122334J77403D01*
G01*
G37*
%TD.AperFunction*%
%TD*%
%TO.P,MX86,1*%
%TO.N,Col14*%
X-273908400Y-84163400D03*
%TA.AperFunction,ComponentPad*%
G36*
G01*
X-275969712Y-86460750D02*
X-275969717Y-86460745D01*
G75*
G02*
X-276055745Y-84872083I751317J837345D01*
G01*
X-274745743Y-83412083D01*
G75*
G02*
X-273157081Y-83326055I837345J-751317D01*
G01*
X-273157081Y-83326055D01*
G75*
G02*
X-273071053Y-84914717I-751317J-837345D01*
G01*
X-274381055Y-86374717D01*
G75*
G02*
X-275969717Y-86460745I-837345J751317D01*
G01*
G37*
%TD.AperFunction*%
%TO.P,MX86,2*%
%TO.N,Net-(D86-Pad2)*%
X-268868400Y-83083400D03*
%TA.AperFunction,ComponentPad*%
G36*
G01*
X-268984917Y-84785795D02*
X-268985803Y-84785734D01*
G75*
G02*
X-270030734Y-83585997I77403J1122334D01*
G01*
X-269990734Y-83005997D01*
G75*
G02*
X-268790997Y-81961066I1122334J-77403D01*
G01*
X-268790997Y-81961066D01*
G75*
G02*
X-267746066Y-83160803I-77403J-1122334D01*
G01*
X-267786066Y-83740803D01*
G75*
G02*
X-268985803Y-84785734I-1122334J77403D01*
G01*
G37*
%TD.AperFunction*%
%TD*%
%TO.P,MX85,1*%
%TO.N,Col14*%
X-276651600Y-60325500D03*
%TA.AperFunction,ComponentPad*%
G36*
G01*
X-278712912Y-62622850D02*
X-278712917Y-62622845D01*
G75*
G02*
X-278798945Y-61034183I751317J837345D01*
G01*
X-277488943Y-59574183D01*
G75*
G02*
X-275900281Y-59488155I837345J-751317D01*
G01*
X-275900281Y-59488155D01*
G75*
G02*
X-275814253Y-61076817I-751317J-837345D01*
G01*
X-277124255Y-62536817D01*
G75*
G02*
X-278712917Y-62622845I-837345J751317D01*
G01*
G37*
%TD.AperFunction*%
%TO.P,MX85,2*%
%TO.N,Net-(D85-Pad2)*%
X-271611600Y-59245500D03*
%TA.AperFunction,ComponentPad*%
G36*
G01*
X-271728117Y-60947895D02*
X-271729003Y-60947834D01*
G75*
G02*
X-272773934Y-59748097I77403J1122334D01*
G01*
X-272733934Y-59168097D01*
G75*
G02*
X-271534197Y-58123166I1122334J-77403D01*
G01*
X-271534197Y-58123166D01*
G75*
G02*
X-270489266Y-59322903I-77403J-1122334D01*
G01*
X-270529266Y-59902903D01*
G75*
G02*
X-271729003Y-60947834I-1122334J77403D01*
G01*
G37*
%TD.AperFunction*%
%TD*%
%TO.P,MX84,1*%
%TO.N,Col13*%
X-247644800Y-160363400D03*
%TA.AperFunction,ComponentPad*%
G36*
G01*
X-249706112Y-162660750D02*
X-249706117Y-162660745D01*
G75*
G02*
X-249792145Y-161072083I751317J837345D01*
G01*
X-248482143Y-159612083D01*
G75*
G02*
X-246893481Y-159526055I837345J-751317D01*
G01*
X-246893481Y-159526055D01*
G75*
G02*
X-246807453Y-161114717I-751317J-837345D01*
G01*
X-248117455Y-162574717D01*
G75*
G02*
X-249706117Y-162660745I-837345J751317D01*
G01*
G37*
%TD.AperFunction*%
%TO.P,MX84,2*%
%TO.N,Net-(D84-Pad2)*%
X-242604800Y-159283400D03*
%TA.AperFunction,ComponentPad*%
G36*
G01*
X-242721317Y-160985795D02*
X-242722203Y-160985734D01*
G75*
G02*
X-243767134Y-159785997I77403J1122334D01*
G01*
X-243727134Y-159205997D01*
G75*
G02*
X-242527397Y-158161066I1122334J-77403D01*
G01*
X-242527397Y-158161066D01*
G75*
G02*
X-241482466Y-159360803I-77403J-1122334D01*
G01*
X-241522466Y-159940803D01*
G75*
G02*
X-242722203Y-160985734I-1122334J77403D01*
G01*
G37*
%TD.AperFunction*%
%TD*%
%TO.P,MX83,1*%
%TO.N,Col13*%
X-290266003Y-143968344D03*
%TA.AperFunction,ComponentPad*%
G36*
G01*
X-291662479Y-146720921D02*
X-291662486Y-146720918D01*
G75*
G02*
X-292156759Y-145208653I508996J1003269D01*
G01*
X-291269271Y-143459349D01*
G75*
G02*
X-289757006Y-142965076I1003269J-508996D01*
G01*
X-289757006Y-142965076D01*
G75*
G02*
X-289262733Y-144477341I-508996J-1003269D01*
G01*
X-290150221Y-146226645D01*
G75*
G02*
X-291662486Y-146720918I-1003269J508996D01*
G01*
G37*
%TD.AperFunction*%
%TO.P,MX83,2*%
%TO.N,Net-(D83-Pad2)*%
X-285677261Y-141620696D03*
%TA.AperFunction,ComponentPad*%
G36*
G01*
X-285349196Y-143295240D02*
X-285350067Y-143295411D01*
G75*
G02*
X-286669908Y-142407002I-215716J1104125D01*
G01*
X-286781386Y-141836412D01*
G75*
G02*
X-285892977Y-140516571I1104125J215716D01*
G01*
X-285892977Y-140516571D01*
G75*
G02*
X-284573136Y-141404980I215716J-1104125D01*
G01*
X-284461658Y-141975570D01*
G75*
G02*
X-285350067Y-143295411I-1104125J-215716D01*
G01*
G37*
%TD.AperFunction*%
%TD*%
%TO.P,MX82,1*%
%TO.N,Col13*%
X-292725433Y-125142638D03*
%TA.AperFunction,ComponentPad*%
G36*
G01*
X-294121909Y-127895215D02*
X-294121916Y-127895212D01*
G75*
G02*
X-294616189Y-126382947I508996J1003269D01*
G01*
X-293728701Y-124633643D01*
G75*
G02*
X-292216436Y-124139370I1003269J-508996D01*
G01*
X-292216436Y-124139370D01*
G75*
G02*
X-291722163Y-125651635I-508996J-1003269D01*
G01*
X-292609651Y-127400939D01*
G75*
G02*
X-294121916Y-127895212I-1003269J508996D01*
G01*
G37*
%TD.AperFunction*%
%TO.P,MX82,2*%
%TO.N,Net-(D82-Pad2)*%
X-288136691Y-122794990D03*
%TA.AperFunction,ComponentPad*%
G36*
G01*
X-287808626Y-124469534D02*
X-287809497Y-124469705D01*
G75*
G02*
X-289129338Y-123581296I-215716J1104125D01*
G01*
X-289240816Y-123010706D01*
G75*
G02*
X-288352407Y-121690865I1104125J215716D01*
G01*
X-288352407Y-121690865D01*
G75*
G02*
X-287032566Y-122579274I215716J-1104125D01*
G01*
X-286921088Y-123149864D01*
G75*
G02*
X-287809497Y-124469705I-1104125J-215716D01*
G01*
G37*
%TD.AperFunction*%
%TD*%
%TO.P,MX81,1*%
%TO.N,Col13*%
X-296179833Y-106346638D03*
%TA.AperFunction,ComponentPad*%
G36*
G01*
X-297576309Y-109099215D02*
X-297576316Y-109099212D01*
G75*
G02*
X-298070589Y-107586947I508996J1003269D01*
G01*
X-297183101Y-105837643D01*
G75*
G02*
X-295670836Y-105343370I1003269J-508996D01*
G01*
X-295670836Y-105343370D01*
G75*
G02*
X-295176563Y-106855635I-508996J-1003269D01*
G01*
X-296064051Y-108604939D01*
G75*
G02*
X-297576316Y-109099212I-1003269J508996D01*
G01*
G37*
%TD.AperFunction*%
%TO.P,MX81,2*%
%TO.N,Net-(D81-Pad2)*%
X-291591091Y-103998990D03*
%TA.AperFunction,ComponentPad*%
G36*
G01*
X-291263026Y-105673534D02*
X-291263897Y-105673705D01*
G75*
G02*
X-292583738Y-104785296I-215716J1104125D01*
G01*
X-292695216Y-104214706D01*
G75*
G02*
X-291806807Y-102894865I1104125J215716D01*
G01*
X-291806807Y-102894865D01*
G75*
G02*
X-290486966Y-103783274I215716J-1104125D01*
G01*
X-290375488Y-104353864D01*
G75*
G02*
X-291263897Y-105673705I-1104125J-215716D01*
G01*
G37*
%TD.AperFunction*%
%TD*%
%TO.P,MX80,1*%
%TO.N,Col13*%
X-299634233Y-87525238D03*
%TA.AperFunction,ComponentPad*%
G36*
G01*
X-301030709Y-90277815D02*
X-301030716Y-90277812D01*
G75*
G02*
X-301524989Y-88765547I508996J1003269D01*
G01*
X-300637501Y-87016243D01*
G75*
G02*
X-299125236Y-86521970I1003269J-508996D01*
G01*
X-299125236Y-86521970D01*
G75*
G02*
X-298630963Y-88034235I-508996J-1003269D01*
G01*
X-299518451Y-89783539D01*
G75*
G02*
X-301030716Y-90277812I-1003269J508996D01*
G01*
G37*
%TD.AperFunction*%
%TO.P,MX80,2*%
%TO.N,Net-(D80-Pad2)*%
X-295045491Y-85177590D03*
%TA.AperFunction,ComponentPad*%
G36*
G01*
X-294717426Y-86852134D02*
X-294718297Y-86852305D01*
G75*
G02*
X-296038138Y-85963896I-215716J1104125D01*
G01*
X-296149616Y-85393306D01*
G75*
G02*
X-295261207Y-84073465I1104125J215716D01*
G01*
X-295261207Y-84073465D01*
G75*
G02*
X-293941366Y-84961874I215716J-1104125D01*
G01*
X-293829888Y-85532464D01*
G75*
G02*
X-294718297Y-86852305I-1104125J-215716D01*
G01*
G37*
%TD.AperFunction*%
%TD*%
%TO.P,MX79,1*%
%TO.N,Col13*%
X-304693883Y-63448438D03*
%TA.AperFunction,ComponentPad*%
G36*
G01*
X-306090359Y-66201015D02*
X-306090366Y-66201012D01*
G75*
G02*
X-306584639Y-64688747I508996J1003269D01*
G01*
X-305697151Y-62939443D01*
G75*
G02*
X-304184886Y-62445170I1003269J-508996D01*
G01*
X-304184886Y-62445170D01*
G75*
G02*
X-303690613Y-63957435I-508996J-1003269D01*
G01*
X-304578101Y-65706739D01*
G75*
G02*
X-306090366Y-66201012I-1003269J508996D01*
G01*
G37*
%TD.AperFunction*%
%TO.P,MX79,2*%
%TO.N,Net-(D79-Pad2)*%
X-300105141Y-61100790D03*
%TA.AperFunction,ComponentPad*%
G36*
G01*
X-299777076Y-62775334D02*
X-299777947Y-62775505D01*
G75*
G02*
X-301097788Y-61887096I-215716J1104125D01*
G01*
X-301209266Y-61316506D01*
G75*
G02*
X-300320857Y-59996665I1104125J215716D01*
G01*
X-300320857Y-59996665D01*
G75*
G02*
X-299001016Y-60885074I215716J-1104125D01*
G01*
X-298889538Y-61455664D01*
G75*
G02*
X-299777947Y-62775505I-1104125J-215716D01*
G01*
G37*
%TD.AperFunction*%
%TD*%
%TO.P,MX78,1*%
%TO.N,Col12*%
X-305027118Y-167897339D03*
%TA.AperFunction,ComponentPad*%
G36*
G01*
X-306423594Y-170649916D02*
X-306423601Y-170649913D01*
G75*
G02*
X-306917874Y-169137648I508996J1003269D01*
G01*
X-306030386Y-167388344D01*
G75*
G02*
X-304518121Y-166894071I1003269J-508996D01*
G01*
X-304518121Y-166894071D01*
G75*
G02*
X-304023848Y-168406336I-508996J-1003269D01*
G01*
X-304911336Y-170155640D01*
G75*
G02*
X-306423601Y-170649913I-1003269J508996D01*
G01*
G37*
%TD.AperFunction*%
%TO.P,MX78,2*%
%TO.N,Net-(D78-Pad2)*%
X-300438376Y-165549691D03*
%TA.AperFunction,ComponentPad*%
G36*
G01*
X-300110311Y-167224235D02*
X-300111182Y-167224406D01*
G75*
G02*
X-301431023Y-166335997I-215716J1104125D01*
G01*
X-301542501Y-165765407D01*
G75*
G02*
X-300654092Y-164445566I1104125J215716D01*
G01*
X-300654092Y-164445566D01*
G75*
G02*
X-299334251Y-165333975I215716J-1104125D01*
G01*
X-299222773Y-165904565D01*
G75*
G02*
X-300111182Y-167224406I-1104125J-215716D01*
G01*
G37*
%TD.AperFunction*%
%TD*%
%TO.P,MX77,1*%
%TO.N,Col12*%
X-307666889Y-148898846D03*
%TA.AperFunction,ComponentPad*%
G36*
G01*
X-309063365Y-151651423D02*
X-309063372Y-151651420D01*
G75*
G02*
X-309557645Y-150139155I508996J1003269D01*
G01*
X-308670157Y-148389851D01*
G75*
G02*
X-307157892Y-147895578I1003269J-508996D01*
G01*
X-307157892Y-147895578D01*
G75*
G02*
X-306663619Y-149407843I-508996J-1003269D01*
G01*
X-307551107Y-151157147D01*
G75*
G02*
X-309063372Y-151651420I-1003269J508996D01*
G01*
G37*
%TD.AperFunction*%
%TO.P,MX77,2*%
%TO.N,Net-(D77-Pad2)*%
X-303078147Y-146551198D03*
%TA.AperFunction,ComponentPad*%
G36*
G01*
X-302750082Y-148225742D02*
X-302750953Y-148225913D01*
G75*
G02*
X-304070794Y-147337504I-215716J1104125D01*
G01*
X-304182272Y-146766914D01*
G75*
G02*
X-303293863Y-145447073I1104125J215716D01*
G01*
X-303293863Y-145447073D01*
G75*
G02*
X-301974022Y-146335482I215716J-1104125D01*
G01*
X-301862544Y-146906072D01*
G75*
G02*
X-302750953Y-148225913I-1104125J-215716D01*
G01*
G37*
%TD.AperFunction*%
%TD*%
%TO.P,MX76,1*%
%TO.N,Col12*%
X-311126319Y-130073140D03*
%TA.AperFunction,ComponentPad*%
G36*
G01*
X-312522795Y-132825717D02*
X-312522802Y-132825714D01*
G75*
G02*
X-313017075Y-131313449I508996J1003269D01*
G01*
X-312129587Y-129564145D01*
G75*
G02*
X-310617322Y-129069872I1003269J-508996D01*
G01*
X-310617322Y-129069872D01*
G75*
G02*
X-310123049Y-130582137I-508996J-1003269D01*
G01*
X-311010537Y-132331441D01*
G75*
G02*
X-312522802Y-132825714I-1003269J508996D01*
G01*
G37*
%TD.AperFunction*%
%TO.P,MX76,2*%
%TO.N,Net-(D76-Pad2)*%
X-306537577Y-127725492D03*
%TA.AperFunction,ComponentPad*%
G36*
G01*
X-306209512Y-129400036D02*
X-306210383Y-129400207D01*
G75*
G02*
X-307530224Y-128511798I-215716J1104125D01*
G01*
X-307641702Y-127941208D01*
G75*
G02*
X-306753293Y-126621367I1104125J215716D01*
G01*
X-306753293Y-126621367D01*
G75*
G02*
X-305433452Y-127509776I215716J-1104125D01*
G01*
X-305321974Y-128080366D01*
G75*
G02*
X-306210383Y-129400207I-1104125J-215716D01*
G01*
G37*
%TD.AperFunction*%
%TD*%
%TO.P,MX75,1*%
%TO.N,Col12*%
X-314580719Y-111277140D03*
%TA.AperFunction,ComponentPad*%
G36*
G01*
X-315977195Y-114029717D02*
X-315977202Y-114029714D01*
G75*
G02*
X-316471475Y-112517449I508996J1003269D01*
G01*
X-315583987Y-110768145D01*
G75*
G02*
X-314071722Y-110273872I1003269J-508996D01*
G01*
X-314071722Y-110273872D01*
G75*
G02*
X-313577449Y-111786137I-508996J-1003269D01*
G01*
X-314464937Y-113535441D01*
G75*
G02*
X-315977202Y-114029714I-1003269J508996D01*
G01*
G37*
%TD.AperFunction*%
%TO.P,MX75,2*%
%TO.N,Net-(D75-Pad2)*%
X-309991977Y-108929492D03*
%TA.AperFunction,ComponentPad*%
G36*
G01*
X-309663912Y-110604036D02*
X-309664783Y-110604207D01*
G75*
G02*
X-310984624Y-109715798I-215716J1104125D01*
G01*
X-311096102Y-109145208D01*
G75*
G02*
X-310207693Y-107825367I1104125J215716D01*
G01*
X-310207693Y-107825367D01*
G75*
G02*
X-308887852Y-108713776I215716J-1104125D01*
G01*
X-308776374Y-109284366D01*
G75*
G02*
X-309664783Y-110604207I-1104125J-215716D01*
G01*
G37*
%TD.AperFunction*%
%TD*%
%TO.P,MX74,1*%
%TO.N,Col12*%
X-318035119Y-92455740D03*
%TA.AperFunction,ComponentPad*%
G36*
G01*
X-319431595Y-95208317D02*
X-319431602Y-95208314D01*
G75*
G02*
X-319925875Y-93696049I508996J1003269D01*
G01*
X-319038387Y-91946745D01*
G75*
G02*
X-317526122Y-91452472I1003269J-508996D01*
G01*
X-317526122Y-91452472D01*
G75*
G02*
X-317031849Y-92964737I-508996J-1003269D01*
G01*
X-317919337Y-94714041D01*
G75*
G02*
X-319431602Y-95208314I-1003269J508996D01*
G01*
G37*
%TD.AperFunction*%
%TO.P,MX74,2*%
%TO.N,Net-(D74-Pad2)*%
X-313446377Y-90108092D03*
%TA.AperFunction,ComponentPad*%
G36*
G01*
X-313118312Y-91782636D02*
X-313119183Y-91782807D01*
G75*
G02*
X-314439024Y-90894398I-215716J1104125D01*
G01*
X-314550502Y-90323808D01*
G75*
G02*
X-313662093Y-89003967I1104125J215716D01*
G01*
X-313662093Y-89003967D01*
G75*
G02*
X-312342252Y-89892376I215716J-1104125D01*
G01*
X-312230774Y-90462966D01*
G75*
G02*
X-313119183Y-91782807I-1104125J-215716D01*
G01*
G37*
%TD.AperFunction*%
%TD*%
%TO.P,MX73,1*%
%TO.N,Col12*%
X-323094769Y-68378940D03*
%TA.AperFunction,ComponentPad*%
G36*
G01*
X-324491245Y-71131517D02*
X-324491252Y-71131514D01*
G75*
G02*
X-324985525Y-69619249I508996J1003269D01*
G01*
X-324098037Y-67869945D01*
G75*
G02*
X-322585772Y-67375672I1003269J-508996D01*
G01*
X-322585772Y-67375672D01*
G75*
G02*
X-322091499Y-68887937I-508996J-1003269D01*
G01*
X-322978987Y-70637241D01*
G75*
G02*
X-324491252Y-71131514I-1003269J508996D01*
G01*
G37*
%TD.AperFunction*%
%TO.P,MX73,2*%
%TO.N,Net-(D73-Pad2)*%
X-318506027Y-66031292D03*
%TA.AperFunction,ComponentPad*%
G36*
G01*
X-318177962Y-67705836D02*
X-318178833Y-67706007D01*
G75*
G02*
X-319498674Y-66817598I-215716J1104125D01*
G01*
X-319610152Y-66247008D01*
G75*
G02*
X-318721743Y-64927167I1104125J215716D01*
G01*
X-318721743Y-64927167D01*
G75*
G02*
X-317401902Y-65815576I215716J-1104125D01*
G01*
X-317290424Y-66386166D01*
G75*
G02*
X-318178833Y-67706007I-1104125J-215716D01*
G01*
G37*
%TD.AperFunction*%
%TD*%
%TO.P,MX72,1*%
%TO.N,Col11*%
X-341828891Y-177758344D03*
%TA.AperFunction,ComponentPad*%
G36*
G01*
X-343225367Y-180510921D02*
X-343225374Y-180510918D01*
G75*
G02*
X-343719647Y-178998653I508996J1003269D01*
G01*
X-342832159Y-177249349D01*
G75*
G02*
X-341319894Y-176755076I1003269J-508996D01*
G01*
X-341319894Y-176755076D01*
G75*
G02*
X-340825621Y-178267341I-508996J-1003269D01*
G01*
X-341713109Y-180016645D01*
G75*
G02*
X-343225374Y-180510918I-1003269J508996D01*
G01*
G37*
%TD.AperFunction*%
%TO.P,MX72,2*%
%TO.N,Net-(D72-Pad2)*%
X-337240149Y-175410696D03*
%TA.AperFunction,ComponentPad*%
G36*
G01*
X-336912084Y-177085240D02*
X-336912955Y-177085411D01*
G75*
G02*
X-338232796Y-176197002I-215716J1104125D01*
G01*
X-338344274Y-175626412D01*
G75*
G02*
X-337455865Y-174306571I1104125J215716D01*
G01*
X-337455865Y-174306571D01*
G75*
G02*
X-336136024Y-175194980I215716J-1104125D01*
G01*
X-336024546Y-175765570D01*
G75*
G02*
X-336912955Y-177085411I-1104125J-215716D01*
G01*
G37*
%TD.AperFunction*%
%TD*%
%TO.P,MX71,1*%
%TO.N,Col11*%
X-326067775Y-153829348D03*
%TA.AperFunction,ComponentPad*%
G36*
G01*
X-327464251Y-156581925D02*
X-327464258Y-156581922D01*
G75*
G02*
X-327958531Y-155069657I508996J1003269D01*
G01*
X-327071043Y-153320353D01*
G75*
G02*
X-325558778Y-152826080I1003269J-508996D01*
G01*
X-325558778Y-152826080D01*
G75*
G02*
X-325064505Y-154338345I-508996J-1003269D01*
G01*
X-325951993Y-156087649D01*
G75*
G02*
X-327464258Y-156581922I-1003269J508996D01*
G01*
G37*
%TD.AperFunction*%
%TO.P,MX71,2*%
%TO.N,Net-(D71-Pad2)*%
X-321479033Y-151481700D03*
%TA.AperFunction,ComponentPad*%
G36*
G01*
X-321150968Y-153156244D02*
X-321151839Y-153156415D01*
G75*
G02*
X-322471680Y-152268006I-215716J1104125D01*
G01*
X-322583158Y-151697416D01*
G75*
G02*
X-321694749Y-150377575I1104125J215716D01*
G01*
X-321694749Y-150377575D01*
G75*
G02*
X-320374908Y-151265984I215716J-1104125D01*
G01*
X-320263430Y-151836574D01*
G75*
G02*
X-321151839Y-153156415I-1104125J-215716D01*
G01*
G37*
%TD.AperFunction*%
%TD*%
%TO.P,MX70,1*%
%TO.N,Col11*%
X-329527205Y-135003642D03*
%TA.AperFunction,ComponentPad*%
G36*
G01*
X-330923681Y-137756219D02*
X-330923688Y-137756216D01*
G75*
G02*
X-331417961Y-136243951I508996J1003269D01*
G01*
X-330530473Y-134494647D01*
G75*
G02*
X-329018208Y-134000374I1003269J-508996D01*
G01*
X-329018208Y-134000374D01*
G75*
G02*
X-328523935Y-135512639I-508996J-1003269D01*
G01*
X-329411423Y-137261943D01*
G75*
G02*
X-330923688Y-137756216I-1003269J508996D01*
G01*
G37*
%TD.AperFunction*%
%TO.P,MX70,2*%
%TO.N,Net-(D70-Pad2)*%
X-324938463Y-132655994D03*
%TA.AperFunction,ComponentPad*%
G36*
G01*
X-324610398Y-134330538D02*
X-324611269Y-134330709D01*
G75*
G02*
X-325931110Y-133442300I-215716J1104125D01*
G01*
X-326042588Y-132871710D01*
G75*
G02*
X-325154179Y-131551869I1104125J215716D01*
G01*
X-325154179Y-131551869D01*
G75*
G02*
X-323834338Y-132440278I215716J-1104125D01*
G01*
X-323722860Y-133010868D01*
G75*
G02*
X-324611269Y-134330709I-1104125J-215716D01*
G01*
G37*
%TD.AperFunction*%
%TD*%
%TO.P,MX69,1*%
%TO.N,Col11*%
X-332981605Y-116207642D03*
%TA.AperFunction,ComponentPad*%
G36*
G01*
X-334378081Y-118960219D02*
X-334378088Y-118960216D01*
G75*
G02*
X-334872361Y-117447951I508996J1003269D01*
G01*
X-333984873Y-115698647D01*
G75*
G02*
X-332472608Y-115204374I1003269J-508996D01*
G01*
X-332472608Y-115204374D01*
G75*
G02*
X-331978335Y-116716639I-508996J-1003269D01*
G01*
X-332865823Y-118465943D01*
G75*
G02*
X-334378088Y-118960216I-1003269J508996D01*
G01*
G37*
%TD.AperFunction*%
%TO.P,MX69,2*%
%TO.N,Net-(D69-Pad2)*%
X-328392863Y-113859994D03*
%TA.AperFunction,ComponentPad*%
G36*
G01*
X-328064798Y-115534538D02*
X-328065669Y-115534709D01*
G75*
G02*
X-329385510Y-114646300I-215716J1104125D01*
G01*
X-329496988Y-114075710D01*
G75*
G02*
X-328608579Y-112755869I1104125J215716D01*
G01*
X-328608579Y-112755869D01*
G75*
G02*
X-327288738Y-113644278I215716J-1104125D01*
G01*
X-327177260Y-114214868D01*
G75*
G02*
X-328065669Y-115534709I-1104125J-215716D01*
G01*
G37*
%TD.AperFunction*%
%TD*%
%TO.P,MX68,1*%
%TO.N,Col11*%
X-336436005Y-97386242D03*
%TA.AperFunction,ComponentPad*%
G36*
G01*
X-337832481Y-100138819D02*
X-337832488Y-100138816D01*
G75*
G02*
X-338326761Y-98626551I508996J1003269D01*
G01*
X-337439273Y-96877247D01*
G75*
G02*
X-335927008Y-96382974I1003269J-508996D01*
G01*
X-335927008Y-96382974D01*
G75*
G02*
X-335432735Y-97895239I-508996J-1003269D01*
G01*
X-336320223Y-99644543D01*
G75*
G02*
X-337832488Y-100138816I-1003269J508996D01*
G01*
G37*
%TD.AperFunction*%
%TO.P,MX68,2*%
%TO.N,Net-(D68-Pad2)*%
X-331847263Y-95038594D03*
%TA.AperFunction,ComponentPad*%
G36*
G01*
X-331519198Y-96713138D02*
X-331520069Y-96713309D01*
G75*
G02*
X-332839910Y-95824900I-215716J1104125D01*
G01*
X-332951388Y-95254310D01*
G75*
G02*
X-332062979Y-93934469I1104125J215716D01*
G01*
X-332062979Y-93934469D01*
G75*
G02*
X-330743138Y-94822878I215716J-1104125D01*
G01*
X-330631660Y-95393468D01*
G75*
G02*
X-331520069Y-96713309I-1104125J-215716D01*
G01*
G37*
%TD.AperFunction*%
%TD*%
%TO.P,MX67,1*%
%TO.N,Col11*%
X-341495655Y-73309442D03*
%TA.AperFunction,ComponentPad*%
G36*
G01*
X-342892131Y-76062019D02*
X-342892138Y-76062016D01*
G75*
G02*
X-343386411Y-74549751I508996J1003269D01*
G01*
X-342498923Y-72800447D01*
G75*
G02*
X-340986658Y-72306174I1003269J-508996D01*
G01*
X-340986658Y-72306174D01*
G75*
G02*
X-340492385Y-73818439I-508996J-1003269D01*
G01*
X-341379873Y-75567743D01*
G75*
G02*
X-342892138Y-76062016I-1003269J508996D01*
G01*
G37*
%TD.AperFunction*%
%TO.P,MX67,2*%
%TO.N,Net-(D67-Pad2)*%
X-336906913Y-70961794D03*
%TA.AperFunction,ComponentPad*%
G36*
G01*
X-336578848Y-72636338D02*
X-336579719Y-72636509D01*
G75*
G02*
X-337899560Y-71748100I-215716J1104125D01*
G01*
X-338011038Y-71177510D01*
G75*
G02*
X-337122629Y-69857669I1104125J215716D01*
G01*
X-337122629Y-69857669D01*
G75*
G02*
X-335802788Y-70746078I215716J-1104125D01*
G01*
X-335691310Y-71316668D01*
G75*
G02*
X-336579719Y-72636509I-1104125J-215716D01*
G01*
G37*
%TD.AperFunction*%
%TD*%
%TO.P,MX66,1*%
%TO.N,Col10*%
X-362869547Y-163690352D03*
%TA.AperFunction,ComponentPad*%
G36*
G01*
X-364266023Y-166442929D02*
X-364266030Y-166442926D01*
G75*
G02*
X-364760303Y-164930661I508996J1003269D01*
G01*
X-363872815Y-163181357D01*
G75*
G02*
X-362360550Y-162687084I1003269J-508996D01*
G01*
X-362360550Y-162687084D01*
G75*
G02*
X-361866277Y-164199349I-508996J-1003269D01*
G01*
X-362753765Y-165948653D01*
G75*
G02*
X-364266030Y-166442926I-1003269J508996D01*
G01*
G37*
%TD.AperFunction*%
%TO.P,MX66,2*%
%TO.N,Net-(D66-Pad2)*%
X-358280805Y-161342704D03*
%TA.AperFunction,ComponentPad*%
G36*
G01*
X-357952740Y-163017248D02*
X-357953611Y-163017419D01*
G75*
G02*
X-359273452Y-162129010I-215716J1104125D01*
G01*
X-359384930Y-161558420D01*
G75*
G02*
X-358496521Y-160238579I1104125J215716D01*
G01*
X-358496521Y-160238579D01*
G75*
G02*
X-357176680Y-161126988I215716J-1104125D01*
G01*
X-357065202Y-161697578D01*
G75*
G02*
X-357953611Y-163017419I-1104125J-215716D01*
G01*
G37*
%TD.AperFunction*%
%TD*%
%TO.P,MX65,1*%
%TO.N,Col10*%
X-344468661Y-158759850D03*
%TA.AperFunction,ComponentPad*%
G36*
G01*
X-345865137Y-161512427D02*
X-345865144Y-161512424D01*
G75*
G02*
X-346359417Y-160000159I508996J1003269D01*
G01*
X-345471929Y-158250855D01*
G75*
G02*
X-343959664Y-157756582I1003269J-508996D01*
G01*
X-343959664Y-157756582D01*
G75*
G02*
X-343465391Y-159268847I-508996J-1003269D01*
G01*
X-344352879Y-161018151D01*
G75*
G02*
X-345865144Y-161512424I-1003269J508996D01*
G01*
G37*
%TD.AperFunction*%
%TO.P,MX65,2*%
%TO.N,Net-(D65-Pad2)*%
X-339879919Y-156412202D03*
%TA.AperFunction,ComponentPad*%
G36*
G01*
X-339551854Y-158086746D02*
X-339552725Y-158086917D01*
G75*
G02*
X-340872566Y-157198508I-215716J1104125D01*
G01*
X-340984044Y-156627918D01*
G75*
G02*
X-340095635Y-155308077I1104125J215716D01*
G01*
X-340095635Y-155308077D01*
G75*
G02*
X-338775794Y-156196486I215716J-1104125D01*
G01*
X-338664316Y-156767076D01*
G75*
G02*
X-339552725Y-158086917I-1104125J-215716D01*
G01*
G37*
%TD.AperFunction*%
%TD*%
%TO.P,MX64,2*%
%TO.N,Net-(D64-Pad2)*%
%TA.AperFunction,ComponentPad*%
G36*
G01*
X-343011284Y-139261040D02*
X-343012155Y-139261211D01*
G75*
G02*
X-344331996Y-138372802I-215716J1104125D01*
G01*
X-344443474Y-137802212D01*
G75*
G02*
X-343555065Y-136482371I1104125J215716D01*
G01*
X-343555065Y-136482371D01*
G75*
G02*
X-342235224Y-137370780I215716J-1104125D01*
G01*
X-342123746Y-137941370D01*
G75*
G02*
X-343012155Y-139261211I-1104125J-215716D01*
G01*
G37*
%TD.AperFunction*%
X-343339349Y-137586496D03*
%TO.P,MX64,1*%
%TO.N,Col10*%
%TA.AperFunction,ComponentPad*%
G36*
G01*
X-349324567Y-142686721D02*
X-349324574Y-142686718D01*
G75*
G02*
X-349818847Y-141174453I508996J1003269D01*
G01*
X-348931359Y-139425149D01*
G75*
G02*
X-347419094Y-138930876I1003269J-508996D01*
G01*
X-347419094Y-138930876D01*
G75*
G02*
X-346924821Y-140443141I-508996J-1003269D01*
G01*
X-347812309Y-142192445D01*
G75*
G02*
X-349324574Y-142686718I-1003269J508996D01*
G01*
G37*
%TD.AperFunction*%
X-347928091Y-139934144D03*
%TD*%
%TO.P,MX63,2*%
%TO.N,Net-(D63-Pad2)*%
%TA.AperFunction,ComponentPad*%
G36*
G01*
X-346465684Y-120465040D02*
X-346466555Y-120465211D01*
G75*
G02*
X-347786396Y-119576802I-215716J1104125D01*
G01*
X-347897874Y-119006212D01*
G75*
G02*
X-347009465Y-117686371I1104125J215716D01*
G01*
X-347009465Y-117686371D01*
G75*
G02*
X-345689624Y-118574780I215716J-1104125D01*
G01*
X-345578146Y-119145370D01*
G75*
G02*
X-346466555Y-120465211I-1104125J-215716D01*
G01*
G37*
%TD.AperFunction*%
X-346793749Y-118790496D03*
%TO.P,MX63,1*%
%TO.N,Col10*%
%TA.AperFunction,ComponentPad*%
G36*
G01*
X-352778967Y-123890721D02*
X-352778974Y-123890718D01*
G75*
G02*
X-353273247Y-122378453I508996J1003269D01*
G01*
X-352385759Y-120629149D01*
G75*
G02*
X-350873494Y-120134876I1003269J-508996D01*
G01*
X-350873494Y-120134876D01*
G75*
G02*
X-350379221Y-121647141I-508996J-1003269D01*
G01*
X-351266709Y-123396445D01*
G75*
G02*
X-352778974Y-123890718I-1003269J508996D01*
G01*
G37*
%TD.AperFunction*%
X-351382491Y-121138144D03*
%TD*%
%TO.P,MX62,1*%
%TO.N,Col10*%
X-354836891Y-102316744D03*
%TA.AperFunction,ComponentPad*%
G36*
G01*
X-356233367Y-105069321D02*
X-356233374Y-105069318D01*
G75*
G02*
X-356727647Y-103557053I508996J1003269D01*
G01*
X-355840159Y-101807749D01*
G75*
G02*
X-354327894Y-101313476I1003269J-508996D01*
G01*
X-354327894Y-101313476D01*
G75*
G02*
X-353833621Y-102825741I-508996J-1003269D01*
G01*
X-354721109Y-104575045D01*
G75*
G02*
X-356233374Y-105069318I-1003269J508996D01*
G01*
G37*
%TD.AperFunction*%
%TO.P,MX62,2*%
%TO.N,Net-(D62-Pad2)*%
X-350248149Y-99969096D03*
%TA.AperFunction,ComponentPad*%
G36*
G01*
X-349920084Y-101643640D02*
X-349920955Y-101643811D01*
G75*
G02*
X-351240796Y-100755402I-215716J1104125D01*
G01*
X-351352274Y-100184812D01*
G75*
G02*
X-350463865Y-98864971I1104125J215716D01*
G01*
X-350463865Y-98864971D01*
G75*
G02*
X-349144024Y-99753380I215716J-1104125D01*
G01*
X-349032546Y-100323970D01*
G75*
G02*
X-349920955Y-101643811I-1104125J-215716D01*
G01*
G37*
%TD.AperFunction*%
%TD*%
%TO.P,MX61,1*%
%TO.N,Col10*%
X-359896541Y-78239944D03*
%TA.AperFunction,ComponentPad*%
G36*
G01*
X-361293017Y-80992521D02*
X-361293024Y-80992518D01*
G75*
G02*
X-361787297Y-79480253I508996J1003269D01*
G01*
X-360899809Y-77730949D01*
G75*
G02*
X-359387544Y-77236676I1003269J-508996D01*
G01*
X-359387544Y-77236676D01*
G75*
G02*
X-358893271Y-78748941I-508996J-1003269D01*
G01*
X-359780759Y-80498245D01*
G75*
G02*
X-361293024Y-80992518I-1003269J508996D01*
G01*
G37*
%TD.AperFunction*%
%TO.P,MX61,2*%
%TO.N,Net-(D61-Pad2)*%
X-355307799Y-75892296D03*
%TA.AperFunction,ComponentPad*%
G36*
G01*
X-354979734Y-77566840D02*
X-354980605Y-77567011D01*
G75*
G02*
X-356300446Y-76678602I-215716J1104125D01*
G01*
X-356411924Y-76108012D01*
G75*
G02*
X-355523515Y-74788171I1104125J215716D01*
G01*
X-355523515Y-74788171D01*
G75*
G02*
X-354203674Y-75676580I215716J-1104125D01*
G01*
X-354092196Y-76247170D01*
G75*
G02*
X-354980605Y-77567011I-1104125J-215716D01*
G01*
G37*
%TD.AperFunction*%
%TD*%
%TO.P,MX60,1*%
%TO.N,Col9*%
X-389373994Y-162396257D03*
%TA.AperFunction,ComponentPad*%
G36*
G01*
X-391959667Y-164081821D02*
X-391959671Y-164081814D01*
G75*
G02*
X-391631591Y-162525018I942438J614358D01*
G01*
X-389988351Y-161453820D01*
G75*
G02*
X-388431555Y-161781900I614358J-942438D01*
G01*
X-388431555Y-161781900D01*
G75*
G02*
X-388759635Y-163338696I-942438J-614358D01*
G01*
X-390402875Y-164409894D01*
G75*
G02*
X-391959671Y-164081814I-614358J942438D01*
G01*
G37*
%TD.AperFunction*%
%TO.P,MX60,2*%
%TO.N,Net-(D60-Pad2)*%
X-384226204Y-162657505D03*
%TA.AperFunction,ComponentPad*%
G36*
G01*
X-384779363Y-164271735D02*
X-384780203Y-164271447D01*
G75*
G02*
X-385479014Y-162842142I365247J1064058D01*
G01*
X-385290262Y-162292258D01*
G75*
G02*
X-383860957Y-161593447I1064058J-365247D01*
G01*
X-383860957Y-161593447D01*
G75*
G02*
X-383162146Y-163022752I-365247J-1064058D01*
G01*
X-383350898Y-163572636D01*
G75*
G02*
X-384780203Y-164271447I-1064058J365247D01*
G01*
G37*
%TD.AperFunction*%
%TD*%
%TO.P,MX59,1*%
%TO.N,Col9*%
X-407774880Y-157465755D03*
%TA.AperFunction,ComponentPad*%
G36*
G01*
X-410360553Y-159151319D02*
X-410360557Y-159151312D01*
G75*
G02*
X-410032477Y-157594516I942438J614358D01*
G01*
X-408389237Y-156523318D01*
G75*
G02*
X-406832441Y-156851398I614358J-942438D01*
G01*
X-406832441Y-156851398D01*
G75*
G02*
X-407160521Y-158408194I-942438J-614358D01*
G01*
X-408803761Y-159479392D01*
G75*
G02*
X-410360557Y-159151312I-614358J942438D01*
G01*
G37*
%TD.AperFunction*%
%TO.P,MX59,2*%
%TO.N,Net-(D59-Pad2)*%
X-402627090Y-157727003D03*
%TA.AperFunction,ComponentPad*%
G36*
G01*
X-403180249Y-159341233D02*
X-403181089Y-159340945D01*
G75*
G02*
X-403879900Y-157911640I365247J1064058D01*
G01*
X-403691148Y-157361756D01*
G75*
G02*
X-402261843Y-156662945I1064058J-365247D01*
G01*
X-402261843Y-156662945D01*
G75*
G02*
X-401563032Y-158092250I-365247J-1064058D01*
G01*
X-401751784Y-158642134D01*
G75*
G02*
X-403181089Y-159340945I-1064058J365247D01*
G01*
G37*
%TD.AperFunction*%
%TD*%
%TO.P,MX58,1*%
%TO.N,Col9*%
X-404345880Y-138669755D03*
%TA.AperFunction,ComponentPad*%
G36*
G01*
X-406931553Y-140355319D02*
X-406931557Y-140355312D01*
G75*
G02*
X-406603477Y-138798516I942438J614358D01*
G01*
X-404960237Y-137727318D01*
G75*
G02*
X-403403441Y-138055398I614358J-942438D01*
G01*
X-403403441Y-138055398D01*
G75*
G02*
X-403731521Y-139612194I-942438J-614358D01*
G01*
X-405374761Y-140683392D01*
G75*
G02*
X-406931557Y-140355312I-614358J942438D01*
G01*
G37*
%TD.AperFunction*%
%TO.P,MX58,2*%
%TO.N,Net-(D58-Pad2)*%
X-399198090Y-138931003D03*
%TA.AperFunction,ComponentPad*%
G36*
G01*
X-399751249Y-140545233D02*
X-399752089Y-140544945D01*
G75*
G02*
X-400450900Y-139115640I365247J1064058D01*
G01*
X-400262148Y-138565756D01*
G75*
G02*
X-398832843Y-137866945I1064058J-365247D01*
G01*
X-398832843Y-137866945D01*
G75*
G02*
X-398134032Y-139296250I-365247J-1064058D01*
G01*
X-398322784Y-139846134D01*
G75*
G02*
X-399752089Y-140544945I-1064058J365247D01*
G01*
G37*
%TD.AperFunction*%
%TD*%
%TO.P,MX57,1*%
%TO.N,Col9*%
X-401157643Y-119746755D03*
%TA.AperFunction,ComponentPad*%
G36*
G01*
X-403743316Y-121432319D02*
X-403743320Y-121432312D01*
G75*
G02*
X-403415240Y-119875516I942438J614358D01*
G01*
X-401772000Y-118804318D01*
G75*
G02*
X-400215204Y-119132398I614358J-942438D01*
G01*
X-400215204Y-119132398D01*
G75*
G02*
X-400543284Y-120689194I-942438J-614358D01*
G01*
X-402186524Y-121760392D01*
G75*
G02*
X-403743320Y-121432312I-614358J942438D01*
G01*
G37*
%TD.AperFunction*%
%TO.P,MX57,2*%
%TO.N,Net-(D57-Pad2)*%
X-396009853Y-120008003D03*
%TA.AperFunction,ComponentPad*%
G36*
G01*
X-396563012Y-121622233D02*
X-396563852Y-121621945D01*
G75*
G02*
X-397262663Y-120192640I365247J1064058D01*
G01*
X-397073911Y-119642756D01*
G75*
G02*
X-395644606Y-118943945I1064058J-365247D01*
G01*
X-395644606Y-118943945D01*
G75*
G02*
X-394945795Y-120373250I-365247J-1064058D01*
G01*
X-395134547Y-120923134D01*
G75*
G02*
X-396563852Y-121621945I-1064058J365247D01*
G01*
G37*
%TD.AperFunction*%
%TD*%
%TO.P,MX56,1*%
%TO.N,Col9*%
X-397849646Y-100933752D03*
%TA.AperFunction,ComponentPad*%
G36*
G01*
X-400435319Y-102619316D02*
X-400435323Y-102619309D01*
G75*
G02*
X-400107243Y-101062513I942438J614358D01*
G01*
X-398464003Y-99991315D01*
G75*
G02*
X-396907207Y-100319395I614358J-942438D01*
G01*
X-396907207Y-100319395D01*
G75*
G02*
X-397235287Y-101876191I-942438J-614358D01*
G01*
X-398878527Y-102947389D01*
G75*
G02*
X-400435323Y-102619309I-614358J942438D01*
G01*
G37*
%TD.AperFunction*%
%TO.P,MX56,2*%
%TO.N,Net-(D56-Pad2)*%
X-392701856Y-101195000D03*
%TA.AperFunction,ComponentPad*%
G36*
G01*
X-393255015Y-102809230D02*
X-393255855Y-102808942D01*
G75*
G02*
X-393954666Y-101379637I365247J1064058D01*
G01*
X-393765914Y-100829753D01*
G75*
G02*
X-392336609Y-100130942I1064058J-365247D01*
G01*
X-392336609Y-100130942D01*
G75*
G02*
X-391637798Y-101560247I-365247J-1064058D01*
G01*
X-391826550Y-102110131D01*
G75*
G02*
X-393255855Y-102808942I-1064058J365247D01*
G01*
G37*
%TD.AperFunction*%
%TD*%
%TO.P,MX55,1*%
%TO.N,Col9*%
X-393150646Y-76931252D03*
%TA.AperFunction,ComponentPad*%
G36*
G01*
X-395736319Y-78616816D02*
X-395736323Y-78616809D01*
G75*
G02*
X-395408243Y-77060013I942438J614358D01*
G01*
X-393765003Y-75988815D01*
G75*
G02*
X-392208207Y-76316895I614358J-942438D01*
G01*
X-392208207Y-76316895D01*
G75*
G02*
X-392536287Y-77873691I-942438J-614358D01*
G01*
X-394179527Y-78944889D01*
G75*
G02*
X-395736323Y-78616809I-614358J942438D01*
G01*
G37*
%TD.AperFunction*%
%TO.P,MX55,2*%
%TO.N,Net-(D55-Pad2)*%
X-388002856Y-77192500D03*
%TA.AperFunction,ComponentPad*%
G36*
G01*
X-388556015Y-78806730D02*
X-388556855Y-78806442D01*
G75*
G02*
X-389255666Y-77377137I365247J1064058D01*
G01*
X-389066914Y-76827253D01*
G75*
G02*
X-387637609Y-76128442I1064058J-365247D01*
G01*
X-387637609Y-76128442D01*
G75*
G02*
X-386938798Y-77557747I-365247J-1064058D01*
G01*
X-387127550Y-78107631D01*
G75*
G02*
X-388556855Y-78806442I-1064058J365247D01*
G01*
G37*
%TD.AperFunction*%
%TD*%
%TO.P,MX53,1*%
%TO.N,Col8*%
X-426175766Y-152535253D03*
%TA.AperFunction,ComponentPad*%
G36*
G01*
X-428761439Y-154220817D02*
X-428761443Y-154220810D01*
G75*
G02*
X-428433363Y-152664014I942438J614358D01*
G01*
X-426790123Y-151592816D01*
G75*
G02*
X-425233327Y-151920896I614358J-942438D01*
G01*
X-425233327Y-151920896D01*
G75*
G02*
X-425561407Y-153477692I-942438J-614358D01*
G01*
X-427204647Y-154548890D01*
G75*
G02*
X-428761443Y-154220810I-614358J942438D01*
G01*
G37*
%TD.AperFunction*%
%TO.P,MX53,2*%
%TO.N,Net-(D53-Pad2)*%
X-421027976Y-152796501D03*
%TA.AperFunction,ComponentPad*%
G36*
G01*
X-421581135Y-154410731D02*
X-421581975Y-154410443D01*
G75*
G02*
X-422280786Y-152981138I365247J1064058D01*
G01*
X-422092034Y-152431254D01*
G75*
G02*
X-420662729Y-151732443I1064058J-365247D01*
G01*
X-420662729Y-151732443D01*
G75*
G02*
X-419963918Y-153161748I-365247J-1064058D01*
G01*
X-420152670Y-153711632D01*
G75*
G02*
X-421581975Y-154410443I-1064058J365247D01*
G01*
G37*
%TD.AperFunction*%
%TD*%
%TO.P,MX52,1*%
%TO.N,Col8*%
X-422746766Y-133739253D03*
%TA.AperFunction,ComponentPad*%
G36*
G01*
X-425332439Y-135424817D02*
X-425332443Y-135424810D01*
G75*
G02*
X-425004363Y-133868014I942438J614358D01*
G01*
X-423361123Y-132796816D01*
G75*
G02*
X-421804327Y-133124896I614358J-942438D01*
G01*
X-421804327Y-133124896D01*
G75*
G02*
X-422132407Y-134681692I-942438J-614358D01*
G01*
X-423775647Y-135752890D01*
G75*
G02*
X-425332443Y-135424810I-614358J942438D01*
G01*
G37*
%TD.AperFunction*%
%TO.P,MX52,2*%
%TO.N,Net-(D52-Pad2)*%
X-417598976Y-134000501D03*
%TA.AperFunction,ComponentPad*%
G36*
G01*
X-418152135Y-135614731D02*
X-418152975Y-135614443D01*
G75*
G02*
X-418851786Y-134185138I365247J1064058D01*
G01*
X-418663034Y-133635254D01*
G75*
G02*
X-417233729Y-132936443I1064058J-365247D01*
G01*
X-417233729Y-132936443D01*
G75*
G02*
X-416534918Y-134365748I-365247J-1064058D01*
G01*
X-416723670Y-134915632D01*
G75*
G02*
X-418152975Y-135614443I-1064058J365247D01*
G01*
G37*
%TD.AperFunction*%
%TD*%
%TO.P,MX51,1*%
%TO.N,Col8*%
X-419558529Y-114816253D03*
%TA.AperFunction,ComponentPad*%
G36*
G01*
X-422144202Y-116501817D02*
X-422144206Y-116501810D01*
G75*
G02*
X-421816126Y-114945014I942438J614358D01*
G01*
X-420172886Y-113873816D01*
G75*
G02*
X-418616090Y-114201896I614358J-942438D01*
G01*
X-418616090Y-114201896D01*
G75*
G02*
X-418944170Y-115758692I-942438J-614358D01*
G01*
X-420587410Y-116829890D01*
G75*
G02*
X-422144206Y-116501810I-614358J942438D01*
G01*
G37*
%TD.AperFunction*%
%TO.P,MX51,2*%
%TO.N,Net-(D51-Pad2)*%
X-414410739Y-115077501D03*
%TA.AperFunction,ComponentPad*%
G36*
G01*
X-414963898Y-116691731D02*
X-414964738Y-116691443D01*
G75*
G02*
X-415663549Y-115262138I365247J1064058D01*
G01*
X-415474797Y-114712254D01*
G75*
G02*
X-414045492Y-114013443I1064058J-365247D01*
G01*
X-414045492Y-114013443D01*
G75*
G02*
X-413346681Y-115442748I-365247J-1064058D01*
G01*
X-413535433Y-115992632D01*
G75*
G02*
X-414964738Y-116691443I-1064058J365247D01*
G01*
G37*
%TD.AperFunction*%
%TD*%
%TO.P,MX50,1*%
%TO.N,Col8*%
X-416250532Y-96003250D03*
%TA.AperFunction,ComponentPad*%
G36*
G01*
X-418836205Y-97688814D02*
X-418836209Y-97688807D01*
G75*
G02*
X-418508129Y-96132011I942438J614358D01*
G01*
X-416864889Y-95060813D01*
G75*
G02*
X-415308093Y-95388893I614358J-942438D01*
G01*
X-415308093Y-95388893D01*
G75*
G02*
X-415636173Y-96945689I-942438J-614358D01*
G01*
X-417279413Y-98016887D01*
G75*
G02*
X-418836209Y-97688807I-614358J942438D01*
G01*
G37*
%TD.AperFunction*%
%TO.P,MX50,2*%
%TO.N,Net-(D50-Pad2)*%
X-411102742Y-96264498D03*
%TA.AperFunction,ComponentPad*%
G36*
G01*
X-411655901Y-97878728D02*
X-411656741Y-97878440D01*
G75*
G02*
X-412355552Y-96449135I365247J1064058D01*
G01*
X-412166800Y-95899251D01*
G75*
G02*
X-410737495Y-95200440I1064058J-365247D01*
G01*
X-410737495Y-95200440D01*
G75*
G02*
X-410038684Y-96629745I-365247J-1064058D01*
G01*
X-410227436Y-97179629D01*
G75*
G02*
X-411656741Y-97878440I-1064058J365247D01*
G01*
G37*
%TD.AperFunction*%
%TD*%
%TO.P,MX49,1*%
%TO.N,Col8*%
X-411551532Y-72000750D03*
%TA.AperFunction,ComponentPad*%
G36*
G01*
X-414137205Y-73686314D02*
X-414137209Y-73686307D01*
G75*
G02*
X-413809129Y-72129511I942438J614358D01*
G01*
X-412165889Y-71058313D01*
G75*
G02*
X-410609093Y-71386393I614358J-942438D01*
G01*
X-410609093Y-71386393D01*
G75*
G02*
X-410937173Y-72943189I-942438J-614358D01*
G01*
X-412580413Y-74014387D01*
G75*
G02*
X-414137209Y-73686307I-614358J942438D01*
G01*
G37*
%TD.AperFunction*%
%TO.P,MX49,2*%
%TO.N,Net-(D49-Pad2)*%
X-406403742Y-72261998D03*
%TA.AperFunction,ComponentPad*%
G36*
G01*
X-406956901Y-73876228D02*
X-406957741Y-73875940D01*
G75*
G02*
X-407656552Y-72446635I365247J1064058D01*
G01*
X-407467800Y-71896751D01*
G75*
G02*
X-406038495Y-71197940I1064058J-365247D01*
G01*
X-406038495Y-71197940D01*
G75*
G02*
X-405339684Y-72627245I-365247J-1064058D01*
G01*
X-405528436Y-73177129D01*
G75*
G02*
X-406957741Y-73875940I-1064058J365247D01*
G01*
G37*
%TD.AperFunction*%
%TD*%
%TO.P,MX47,2*%
%TO.N,Net-(D47-Pad2)*%
%TA.AperFunction,ComponentPad*%
G36*
G01*
X-439982021Y-149480229D02*
X-439982861Y-149479941D01*
G75*
G02*
X-440681672Y-148050636I365247J1064058D01*
G01*
X-440492920Y-147500752D01*
G75*
G02*
X-439063615Y-146801941I1064058J-365247D01*
G01*
X-439063615Y-146801941D01*
G75*
G02*
X-438364804Y-148231246I-365247J-1064058D01*
G01*
X-438553556Y-148781130D01*
G75*
G02*
X-439982861Y-149479941I-1064058J365247D01*
G01*
G37*
%TD.AperFunction*%
X-439428862Y-147865999D03*
%TO.P,MX47,1*%
%TO.N,Col7*%
%TA.AperFunction,ComponentPad*%
G36*
G01*
X-447162325Y-149290315D02*
X-447162329Y-149290308D01*
G75*
G02*
X-446834249Y-147733512I942438J614358D01*
G01*
X-445191009Y-146662314D01*
G75*
G02*
X-443634213Y-146990394I614358J-942438D01*
G01*
X-443634213Y-146990394D01*
G75*
G02*
X-443962293Y-148547190I-942438J-614358D01*
G01*
X-445605533Y-149618388D01*
G75*
G02*
X-447162329Y-149290308I-614358J942438D01*
G01*
G37*
%TD.AperFunction*%
X-444576652Y-147604751D03*
%TD*%
%TO.P,MX46,2*%
%TO.N,Net-(D46-Pad2)*%
%TA.AperFunction,ComponentPad*%
G36*
G01*
X-436553021Y-130684229D02*
X-436553861Y-130683941D01*
G75*
G02*
X-437252672Y-129254636I365247J1064058D01*
G01*
X-437063920Y-128704752D01*
G75*
G02*
X-435634615Y-128005941I1064058J-365247D01*
G01*
X-435634615Y-128005941D01*
G75*
G02*
X-434935804Y-129435246I-365247J-1064058D01*
G01*
X-435124556Y-129985130D01*
G75*
G02*
X-436553861Y-130683941I-1064058J365247D01*
G01*
G37*
%TD.AperFunction*%
X-435999862Y-129069999D03*
%TO.P,MX46,1*%
%TO.N,Col7*%
%TA.AperFunction,ComponentPad*%
G36*
G01*
X-443733325Y-130494315D02*
X-443733329Y-130494308D01*
G75*
G02*
X-443405249Y-128937512I942438J614358D01*
G01*
X-441762009Y-127866314D01*
G75*
G02*
X-440205213Y-128194394I614358J-942438D01*
G01*
X-440205213Y-128194394D01*
G75*
G02*
X-440533293Y-129751190I-942438J-614358D01*
G01*
X-442176533Y-130822388D01*
G75*
G02*
X-443733329Y-130494308I-614358J942438D01*
G01*
G37*
%TD.AperFunction*%
X-441147652Y-128808751D03*
%TD*%
%TO.P,MX45,2*%
%TO.N,Net-(D45-Pad2)*%
%TA.AperFunction,ComponentPad*%
G36*
G01*
X-433364784Y-111761229D02*
X-433365624Y-111760941D01*
G75*
G02*
X-434064435Y-110331636I365247J1064058D01*
G01*
X-433875683Y-109781752D01*
G75*
G02*
X-432446378Y-109082941I1064058J-365247D01*
G01*
X-432446378Y-109082941D01*
G75*
G02*
X-431747567Y-110512246I-365247J-1064058D01*
G01*
X-431936319Y-111062130D01*
G75*
G02*
X-433365624Y-111760941I-1064058J365247D01*
G01*
G37*
%TD.AperFunction*%
X-432811625Y-110146999D03*
%TO.P,MX45,1*%
%TO.N,Col7*%
%TA.AperFunction,ComponentPad*%
G36*
G01*
X-440545088Y-111571315D02*
X-440545092Y-111571308D01*
G75*
G02*
X-440217012Y-110014512I942438J614358D01*
G01*
X-438573772Y-108943314D01*
G75*
G02*
X-437016976Y-109271394I614358J-942438D01*
G01*
X-437016976Y-109271394D01*
G75*
G02*
X-437345056Y-110828190I-942438J-614358D01*
G01*
X-438988296Y-111899388D01*
G75*
G02*
X-440545092Y-111571308I-614358J942438D01*
G01*
G37*
%TD.AperFunction*%
X-437959415Y-109885751D03*
%TD*%
%TO.P,MX44,1*%
%TO.N,Col7*%
X-434651418Y-91072748D03*
%TA.AperFunction,ComponentPad*%
G36*
G01*
X-437237091Y-92758312D02*
X-437237095Y-92758305D01*
G75*
G02*
X-436909015Y-91201509I942438J614358D01*
G01*
X-435265775Y-90130311D01*
G75*
G02*
X-433708979Y-90458391I614358J-942438D01*
G01*
X-433708979Y-90458391D01*
G75*
G02*
X-434037059Y-92015187I-942438J-614358D01*
G01*
X-435680299Y-93086385D01*
G75*
G02*
X-437237095Y-92758305I-614358J942438D01*
G01*
G37*
%TD.AperFunction*%
%TO.P,MX44,2*%
%TO.N,Net-(D44-Pad2)*%
X-429503628Y-91333996D03*
%TA.AperFunction,ComponentPad*%
G36*
G01*
X-430056787Y-92948226D02*
X-430057627Y-92947938D01*
G75*
G02*
X-430756438Y-91518633I365247J1064058D01*
G01*
X-430567686Y-90968749D01*
G75*
G02*
X-429138381Y-90269938I1064058J-365247D01*
G01*
X-429138381Y-90269938D01*
G75*
G02*
X-428439570Y-91699243I-365247J-1064058D01*
G01*
X-428628322Y-92249127D01*
G75*
G02*
X-430057627Y-92947938I-1064058J365247D01*
G01*
G37*
%TD.AperFunction*%
%TD*%
%TO.P,MX43,1*%
%TO.N,Col7*%
X-429952418Y-67070248D03*
%TA.AperFunction,ComponentPad*%
G36*
G01*
X-432538091Y-68755812D02*
X-432538095Y-68755805D01*
G75*
G02*
X-432210015Y-67199009I942438J614358D01*
G01*
X-430566775Y-66127811D01*
G75*
G02*
X-429009979Y-66455891I614358J-942438D01*
G01*
X-429009979Y-66455891D01*
G75*
G02*
X-429338059Y-68012687I-942438J-614358D01*
G01*
X-430981299Y-69083885D01*
G75*
G02*
X-432538095Y-68755805I-614358J942438D01*
G01*
G37*
%TD.AperFunction*%
%TO.P,MX43,2*%
%TO.N,Net-(D43-Pad2)*%
X-424804628Y-67331496D03*
%TA.AperFunction,ComponentPad*%
G36*
G01*
X-425357787Y-68945726D02*
X-425358627Y-68945438D01*
G75*
G02*
X-426057438Y-67516133I365247J1064058D01*
G01*
X-425868686Y-66966249D01*
G75*
G02*
X-424439381Y-66267438I1064058J-365247D01*
G01*
X-424439381Y-66267438D01*
G75*
G02*
X-423740570Y-67696743I-365247J-1064058D01*
G01*
X-423929322Y-68246627D01*
G75*
G02*
X-425358627Y-68945438I-1064058J365247D01*
G01*
G37*
%TD.AperFunction*%
%TD*%
%TO.P,MX42,1*%
%TO.N,Col6*%
X-465666138Y-161673449D03*
%TA.AperFunction,ComponentPad*%
G36*
G01*
X-468251811Y-163359013D02*
X-468251815Y-163359006D01*
G75*
G02*
X-467923735Y-161802210I942438J614358D01*
G01*
X-466280495Y-160731012D01*
G75*
G02*
X-464723699Y-161059092I614358J-942438D01*
G01*
X-464723699Y-161059092D01*
G75*
G02*
X-465051779Y-162615888I-942438J-614358D01*
G01*
X-466695019Y-163687086D01*
G75*
G02*
X-468251815Y-163359006I-614358J942438D01*
G01*
G37*
%TD.AperFunction*%
%TO.P,MX42,2*%
%TO.N,Net-(D42-Pad2)*%
X-460518348Y-161934697D03*
%TA.AperFunction,ComponentPad*%
G36*
G01*
X-461071507Y-163548927D02*
X-461072347Y-163548639D01*
G75*
G02*
X-461771158Y-162119334I365247J1064058D01*
G01*
X-461582406Y-161569450D01*
G75*
G02*
X-460153101Y-160870639I1064058J-365247D01*
G01*
X-460153101Y-160870639D01*
G75*
G02*
X-459454290Y-162299944I-365247J-1064058D01*
G01*
X-459643042Y-162849828D01*
G75*
G02*
X-461072347Y-163548639I-1064058J365247D01*
G01*
G37*
%TD.AperFunction*%
%TD*%
%TO.P,MX41,1*%
%TO.N,Col6*%
X-462977538Y-142674249D03*
%TA.AperFunction,ComponentPad*%
G36*
G01*
X-465563211Y-144359813D02*
X-465563215Y-144359806D01*
G75*
G02*
X-465235135Y-142803010I942438J614358D01*
G01*
X-463591895Y-141731812D01*
G75*
G02*
X-462035099Y-142059892I614358J-942438D01*
G01*
X-462035099Y-142059892D01*
G75*
G02*
X-462363179Y-143616688I-942438J-614358D01*
G01*
X-464006419Y-144687886D01*
G75*
G02*
X-465563215Y-144359806I-614358J942438D01*
G01*
G37*
%TD.AperFunction*%
%TO.P,MX41,2*%
%TO.N,Net-(D41-Pad2)*%
X-457829748Y-142935497D03*
%TA.AperFunction,ComponentPad*%
G36*
G01*
X-458382907Y-144549727D02*
X-458383747Y-144549439D01*
G75*
G02*
X-459082558Y-143120134I365247J1064058D01*
G01*
X-458893806Y-142570250D01*
G75*
G02*
X-457464501Y-141871439I1064058J-365247D01*
G01*
X-457464501Y-141871439D01*
G75*
G02*
X-456765690Y-143300744I-365247J-1064058D01*
G01*
X-456954442Y-143850628D01*
G75*
G02*
X-458383747Y-144549439I-1064058J365247D01*
G01*
G37*
%TD.AperFunction*%
%TD*%
%TO.P,MX40,1*%
%TO.N,Col6*%
X-459548538Y-123878249D03*
%TA.AperFunction,ComponentPad*%
G36*
G01*
X-462134211Y-125563813D02*
X-462134215Y-125563806D01*
G75*
G02*
X-461806135Y-124007010I942438J614358D01*
G01*
X-460162895Y-122935812D01*
G75*
G02*
X-458606099Y-123263892I614358J-942438D01*
G01*
X-458606099Y-123263892D01*
G75*
G02*
X-458934179Y-124820688I-942438J-614358D01*
G01*
X-460577419Y-125891886D01*
G75*
G02*
X-462134215Y-125563806I-614358J942438D01*
G01*
G37*
%TD.AperFunction*%
%TO.P,MX40,2*%
%TO.N,Net-(D40-Pad2)*%
X-454400748Y-124139497D03*
%TA.AperFunction,ComponentPad*%
G36*
G01*
X-454953907Y-125753727D02*
X-454954747Y-125753439D01*
G75*
G02*
X-455653558Y-124324134I365247J1064058D01*
G01*
X-455464806Y-123774250D01*
G75*
G02*
X-454035501Y-123075439I1064058J-365247D01*
G01*
X-454035501Y-123075439D01*
G75*
G02*
X-453336690Y-124504744I-365247J-1064058D01*
G01*
X-453525442Y-125054628D01*
G75*
G02*
X-454954747Y-125753439I-1064058J365247D01*
G01*
G37*
%TD.AperFunction*%
%TD*%
%TO.P,MX39,1*%
%TO.N,Col6*%
X-456360301Y-104955249D03*
%TA.AperFunction,ComponentPad*%
G36*
G01*
X-458945974Y-106640813D02*
X-458945978Y-106640806D01*
G75*
G02*
X-458617898Y-105084010I942438J614358D01*
G01*
X-456974658Y-104012812D01*
G75*
G02*
X-455417862Y-104340892I614358J-942438D01*
G01*
X-455417862Y-104340892D01*
G75*
G02*
X-455745942Y-105897688I-942438J-614358D01*
G01*
X-457389182Y-106968886D01*
G75*
G02*
X-458945978Y-106640806I-614358J942438D01*
G01*
G37*
%TD.AperFunction*%
%TO.P,MX39,2*%
%TO.N,Net-(D39-Pad2)*%
X-451212511Y-105216497D03*
%TA.AperFunction,ComponentPad*%
G36*
G01*
X-451765670Y-106830727D02*
X-451766510Y-106830439D01*
G75*
G02*
X-452465321Y-105401134I365247J1064058D01*
G01*
X-452276569Y-104851250D01*
G75*
G02*
X-450847264Y-104152439I1064058J-365247D01*
G01*
X-450847264Y-104152439D01*
G75*
G02*
X-450148453Y-105581744I-365247J-1064058D01*
G01*
X-450337205Y-106131628D01*
G75*
G02*
X-451766510Y-106830439I-1064058J365247D01*
G01*
G37*
%TD.AperFunction*%
%TD*%
%TO.P,MX38,1*%
%TO.N,Col6*%
X-453052304Y-86142246D03*
%TA.AperFunction,ComponentPad*%
G36*
G01*
X-455637977Y-87827810D02*
X-455637981Y-87827803D01*
G75*
G02*
X-455309901Y-86271007I942438J614358D01*
G01*
X-453666661Y-85199809D01*
G75*
G02*
X-452109865Y-85527889I614358J-942438D01*
G01*
X-452109865Y-85527889D01*
G75*
G02*
X-452437945Y-87084685I-942438J-614358D01*
G01*
X-454081185Y-88155883D01*
G75*
G02*
X-455637981Y-87827803I-614358J942438D01*
G01*
G37*
%TD.AperFunction*%
%TO.P,MX38,2*%
%TO.N,Net-(D38-Pad2)*%
X-447904514Y-86403494D03*
%TA.AperFunction,ComponentPad*%
G36*
G01*
X-448457673Y-88017724D02*
X-448458513Y-88017436D01*
G75*
G02*
X-449157324Y-86588131I365247J1064058D01*
G01*
X-448968572Y-86038247D01*
G75*
G02*
X-447539267Y-85339436I1064058J-365247D01*
G01*
X-447539267Y-85339436D01*
G75*
G02*
X-446840456Y-86768741I-365247J-1064058D01*
G01*
X-447029208Y-87318625D01*
G75*
G02*
X-448458513Y-88017436I-1064058J365247D01*
G01*
G37*
%TD.AperFunction*%
%TD*%
%TO.P,MX37,1*%
%TO.N,Col6*%
X-448353304Y-62139746D03*
%TA.AperFunction,ComponentPad*%
G36*
G01*
X-450938977Y-63825310D02*
X-450938981Y-63825303D01*
G75*
G02*
X-450610901Y-62268507I942438J614358D01*
G01*
X-448967661Y-61197309D01*
G75*
G02*
X-447410865Y-61525389I614358J-942438D01*
G01*
X-447410865Y-61525389D01*
G75*
G02*
X-447738945Y-63082185I-942438J-614358D01*
G01*
X-449382185Y-64153383D01*
G75*
G02*
X-450938981Y-63825303I-614358J942438D01*
G01*
G37*
%TD.AperFunction*%
%TO.P,MX37,2*%
%TO.N,Net-(D37-Pad2)*%
X-443205514Y-62400994D03*
%TA.AperFunction,ComponentPad*%
G36*
G01*
X-443758673Y-64015224D02*
X-443759513Y-64014936D01*
G75*
G02*
X-444458324Y-62585631I365247J1064058D01*
G01*
X-444269572Y-62035747D01*
G75*
G02*
X-442840267Y-61336936I1064058J-365247D01*
G01*
X-442840267Y-61336936D01*
G75*
G02*
X-442141456Y-62766241I-365247J-1064058D01*
G01*
X-442330208Y-63316125D01*
G75*
G02*
X-443759513Y-64014936I-1064058J365247D01*
G01*
G37*
%TD.AperFunction*%
%TD*%
%TO.P,MX36,1*%
%TO.N,Col5*%
X-494625000Y-160338000D03*
%TA.AperFunction,ComponentPad*%
G36*
G01*
X-496686312Y-162635350D02*
X-496686317Y-162635345D01*
G75*
G02*
X-496772345Y-161046683I751317J837345D01*
G01*
X-495462343Y-159586683D01*
G75*
G02*
X-493873681Y-159500655I837345J-751317D01*
G01*
X-493873681Y-159500655D01*
G75*
G02*
X-493787653Y-161089317I-751317J-837345D01*
G01*
X-495097655Y-162549317D01*
G75*
G02*
X-496686317Y-162635345I-837345J751317D01*
G01*
G37*
%TD.AperFunction*%
%TO.P,MX36,2*%
%TO.N,Net-(D36-Pad2)*%
X-489585000Y-159258000D03*
%TA.AperFunction,ComponentPad*%
G36*
G01*
X-489701517Y-160960395D02*
X-489702403Y-160960334D01*
G75*
G02*
X-490747334Y-159760597I77403J1122334D01*
G01*
X-490707334Y-159180597D01*
G75*
G02*
X-489507597Y-158135666I1122334J-77403D01*
G01*
X-489507597Y-158135666D01*
G75*
G02*
X-488462666Y-159335403I-77403J-1122334D01*
G01*
X-488502666Y-159915403D01*
G75*
G02*
X-489702403Y-160960334I-1122334J77403D01*
G01*
G37*
%TD.AperFunction*%
%TD*%
%TO.P,MX35,1*%
%TO.N,Col5*%
X-496911000Y-141288000D03*
%TA.AperFunction,ComponentPad*%
G36*
G01*
X-498972312Y-143585350D02*
X-498972317Y-143585345D01*
G75*
G02*
X-499058345Y-141996683I751317J837345D01*
G01*
X-497748343Y-140536683D01*
G75*
G02*
X-496159681Y-140450655I837345J-751317D01*
G01*
X-496159681Y-140450655D01*
G75*
G02*
X-496073653Y-142039317I-751317J-837345D01*
G01*
X-497383655Y-143499317D01*
G75*
G02*
X-498972317Y-143585345I-837345J751317D01*
G01*
G37*
%TD.AperFunction*%
%TO.P,MX35,2*%
%TO.N,Net-(D35-Pad2)*%
X-491871000Y-140208000D03*
%TA.AperFunction,ComponentPad*%
G36*
G01*
X-491987517Y-141910395D02*
X-491988403Y-141910334D01*
G75*
G02*
X-493033334Y-140710597I77403J1122334D01*
G01*
X-492993334Y-140130597D01*
G75*
G02*
X-491793597Y-139085666I1122334J-77403D01*
G01*
X-491793597Y-139085666D01*
G75*
G02*
X-490748666Y-140285403I-77403J-1122334D01*
G01*
X-490788666Y-140865403D01*
G75*
G02*
X-491988403Y-141910334I-1122334J77403D01*
G01*
G37*
%TD.AperFunction*%
%TD*%
%TO.P,MX34,1*%
%TO.N,Col5*%
X-492148500Y-122238000D03*
%TA.AperFunction,ComponentPad*%
G36*
G01*
X-494209812Y-124535350D02*
X-494209817Y-124535345D01*
G75*
G02*
X-494295845Y-122946683I751317J837345D01*
G01*
X-492985843Y-121486683D01*
G75*
G02*
X-491397181Y-121400655I837345J-751317D01*
G01*
X-491397181Y-121400655D01*
G75*
G02*
X-491311153Y-122989317I-751317J-837345D01*
G01*
X-492621155Y-124449317D01*
G75*
G02*
X-494209817Y-124535345I-837345J751317D01*
G01*
G37*
%TD.AperFunction*%
%TO.P,MX34,2*%
%TO.N,Net-(D34-Pad2)*%
X-487108500Y-121158000D03*
%TA.AperFunction,ComponentPad*%
G36*
G01*
X-487225017Y-122860395D02*
X-487225903Y-122860334D01*
G75*
G02*
X-488270834Y-121660597I77403J1122334D01*
G01*
X-488230834Y-121080597D01*
G75*
G02*
X-487031097Y-120035666I1122334J-77403D01*
G01*
X-487031097Y-120035666D01*
G75*
G02*
X-485986166Y-121235403I-77403J-1122334D01*
G01*
X-486026166Y-121815403D01*
G75*
G02*
X-487225903Y-122860334I-1122334J77403D01*
G01*
G37*
%TD.AperFunction*%
%TD*%
%TO.P,MX33,1*%
%TO.N,Col5*%
X-487386000Y-103188000D03*
%TA.AperFunction,ComponentPad*%
G36*
G01*
X-489447312Y-105485350D02*
X-489447317Y-105485345D01*
G75*
G02*
X-489533345Y-103896683I751317J837345D01*
G01*
X-488223343Y-102436683D01*
G75*
G02*
X-486634681Y-102350655I837345J-751317D01*
G01*
X-486634681Y-102350655D01*
G75*
G02*
X-486548653Y-103939317I-751317J-837345D01*
G01*
X-487858655Y-105399317D01*
G75*
G02*
X-489447317Y-105485345I-837345J751317D01*
G01*
G37*
%TD.AperFunction*%
%TO.P,MX33,2*%
%TO.N,Net-(D33-Pad2)*%
X-482346000Y-102108000D03*
%TA.AperFunction,ComponentPad*%
G36*
G01*
X-482462517Y-103810395D02*
X-482463403Y-103810334D01*
G75*
G02*
X-483508334Y-102610597I77403J1122334D01*
G01*
X-483468334Y-102030597D01*
G75*
G02*
X-482268597Y-100985666I1122334J-77403D01*
G01*
X-482268597Y-100985666D01*
G75*
G02*
X-481223666Y-102185403I-77403J-1122334D01*
G01*
X-481263666Y-102765403D01*
G75*
G02*
X-482463403Y-103810334I-1122334J77403D01*
G01*
G37*
%TD.AperFunction*%
%TD*%
%TO.P,MX32,1*%
%TO.N,Col5*%
X-482623500Y-84138000D03*
%TA.AperFunction,ComponentPad*%
G36*
G01*
X-484684812Y-86435350D02*
X-484684817Y-86435345D01*
G75*
G02*
X-484770845Y-84846683I751317J837345D01*
G01*
X-483460843Y-83386683D01*
G75*
G02*
X-481872181Y-83300655I837345J-751317D01*
G01*
X-481872181Y-83300655D01*
G75*
G02*
X-481786153Y-84889317I-751317J-837345D01*
G01*
X-483096155Y-86349317D01*
G75*
G02*
X-484684817Y-86435345I-837345J751317D01*
G01*
G37*
%TD.AperFunction*%
%TO.P,MX32,2*%
%TO.N,Net-(D32-Pad2)*%
X-477583500Y-83058000D03*
%TA.AperFunction,ComponentPad*%
G36*
G01*
X-477700017Y-84760395D02*
X-477700903Y-84760334D01*
G75*
G02*
X-478745834Y-83560597I77403J1122334D01*
G01*
X-478705834Y-82980597D01*
G75*
G02*
X-477506097Y-81935666I1122334J-77403D01*
G01*
X-477506097Y-81935666D01*
G75*
G02*
X-476461166Y-83135403I-77403J-1122334D01*
G01*
X-476501166Y-83715403D01*
G75*
G02*
X-477700903Y-84760334I-1122334J77403D01*
G01*
G37*
%TD.AperFunction*%
%TD*%
%TO.P,MX31,1*%
%TO.N,Col5*%
X-477924500Y-60325500D03*
%TA.AperFunction,ComponentPad*%
G36*
G01*
X-479985812Y-62622850D02*
X-479985817Y-62622845D01*
G75*
G02*
X-480071845Y-61034183I751317J837345D01*
G01*
X-478761843Y-59574183D01*
G75*
G02*
X-477173181Y-59488155I837345J-751317D01*
G01*
X-477173181Y-59488155D01*
G75*
G02*
X-477087153Y-61076817I-751317J-837345D01*
G01*
X-478397155Y-62536817D01*
G75*
G02*
X-479985817Y-62622845I-837345J751317D01*
G01*
G37*
%TD.AperFunction*%
%TO.P,MX31,2*%
%TO.N,Net-(D31-Pad2)*%
X-472884500Y-59245500D03*
%TA.AperFunction,ComponentPad*%
G36*
G01*
X-473001017Y-60947895D02*
X-473001903Y-60947834D01*
G75*
G02*
X-474046834Y-59748097I77403J1122334D01*
G01*
X-474006834Y-59168097D01*
G75*
G02*
X-472807097Y-58123166I1122334J-77403D01*
G01*
X-472807097Y-58123166D01*
G75*
G02*
X-471762166Y-59322903I-77403J-1122334D01*
G01*
X-471802166Y-59902903D01*
G75*
G02*
X-473001903Y-60947834I-1122334J77403D01*
G01*
G37*
%TD.AperFunction*%
%TD*%
%TO.P,MX30,1*%
%TO.N,Col4*%
X-518374000Y-160338000D03*
%TA.AperFunction,ComponentPad*%
G36*
G01*
X-520435312Y-162635350D02*
X-520435317Y-162635345D01*
G75*
G02*
X-520521345Y-161046683I751317J837345D01*
G01*
X-519211343Y-159586683D01*
G75*
G02*
X-517622681Y-159500655I837345J-751317D01*
G01*
X-517622681Y-159500655D01*
G75*
G02*
X-517536653Y-161089317I-751317J-837345D01*
G01*
X-518846655Y-162549317D01*
G75*
G02*
X-520435317Y-162635345I-837345J751317D01*
G01*
G37*
%TD.AperFunction*%
%TO.P,MX30,2*%
%TO.N,Net-(D30-Pad2)*%
X-513334000Y-159258000D03*
%TA.AperFunction,ComponentPad*%
G36*
G01*
X-513450517Y-160960395D02*
X-513451403Y-160960334D01*
G75*
G02*
X-514496334Y-159760597I77403J1122334D01*
G01*
X-514456334Y-159180597D01*
G75*
G02*
X-513256597Y-158135666I1122334J-77403D01*
G01*
X-513256597Y-158135666D01*
G75*
G02*
X-512211666Y-159335403I-77403J-1122334D01*
G01*
X-512251666Y-159915403D01*
G75*
G02*
X-513451403Y-160960334I-1122334J77403D01*
G01*
G37*
%TD.AperFunction*%
%TD*%
%TO.P,MX28,1*%
%TO.N,Col4*%
X-518374000Y-122238000D03*
%TA.AperFunction,ComponentPad*%
G36*
G01*
X-520435312Y-124535350D02*
X-520435317Y-124535345D01*
G75*
G02*
X-520521345Y-122946683I751317J837345D01*
G01*
X-519211343Y-121486683D01*
G75*
G02*
X-517622681Y-121400655I837345J-751317D01*
G01*
X-517622681Y-121400655D01*
G75*
G02*
X-517536653Y-122989317I-751317J-837345D01*
G01*
X-518846655Y-124449317D01*
G75*
G02*
X-520435317Y-124535345I-837345J751317D01*
G01*
G37*
%TD.AperFunction*%
%TO.P,MX28,2*%
%TO.N,Net-(D28-Pad2)*%
X-513334000Y-121158000D03*
%TA.AperFunction,ComponentPad*%
G36*
G01*
X-513450517Y-122860395D02*
X-513451403Y-122860334D01*
G75*
G02*
X-514496334Y-121660597I77403J1122334D01*
G01*
X-514456334Y-121080597D01*
G75*
G02*
X-513256597Y-120035666I1122334J-77403D01*
G01*
X-513256597Y-120035666D01*
G75*
G02*
X-512211666Y-121235403I-77403J-1122334D01*
G01*
X-512251666Y-121815403D01*
G75*
G02*
X-513451403Y-122860334I-1122334J77403D01*
G01*
G37*
%TD.AperFunction*%
%TD*%
%TO.P,MX27,1*%
%TO.N,Col4*%
X-511262000Y-103188000D03*
%TA.AperFunction,ComponentPad*%
G36*
G01*
X-513323312Y-105485350D02*
X-513323317Y-105485345D01*
G75*
G02*
X-513409345Y-103896683I751317J837345D01*
G01*
X-512099343Y-102436683D01*
G75*
G02*
X-510510681Y-102350655I837345J-751317D01*
G01*
X-510510681Y-102350655D01*
G75*
G02*
X-510424653Y-103939317I-751317J-837345D01*
G01*
X-511734655Y-105399317D01*
G75*
G02*
X-513323317Y-105485345I-837345J751317D01*
G01*
G37*
%TD.AperFunction*%
%TO.P,MX27,2*%
%TO.N,Net-(D27-Pad2)*%
X-506222000Y-102108000D03*
%TA.AperFunction,ComponentPad*%
G36*
G01*
X-506338517Y-103810395D02*
X-506339403Y-103810334D01*
G75*
G02*
X-507384334Y-102610597I77403J1122334D01*
G01*
X-507344334Y-102030597D01*
G75*
G02*
X-506144597Y-100985666I1122334J-77403D01*
G01*
X-506144597Y-100985666D01*
G75*
G02*
X-505099666Y-102185403I-77403J-1122334D01*
G01*
X-505139666Y-102765403D01*
G75*
G02*
X-506339403Y-103810334I-1122334J77403D01*
G01*
G37*
%TD.AperFunction*%
%TD*%
%TO.P,MX26,1*%
%TO.N,Col4*%
X-501737000Y-84138000D03*
%TA.AperFunction,ComponentPad*%
G36*
G01*
X-503798312Y-86435350D02*
X-503798317Y-86435345D01*
G75*
G02*
X-503884345Y-84846683I751317J837345D01*
G01*
X-502574343Y-83386683D01*
G75*
G02*
X-500985681Y-83300655I837345J-751317D01*
G01*
X-500985681Y-83300655D01*
G75*
G02*
X-500899653Y-84889317I-751317J-837345D01*
G01*
X-502209655Y-86349317D01*
G75*
G02*
X-503798317Y-86435345I-837345J751317D01*
G01*
G37*
%TD.AperFunction*%
%TO.P,MX26,2*%
%TO.N,Net-(D26-Pad2)*%
X-496697000Y-83058000D03*
%TA.AperFunction,ComponentPad*%
G36*
G01*
X-496813517Y-84760395D02*
X-496814403Y-84760334D01*
G75*
G02*
X-497859334Y-83560597I77403J1122334D01*
G01*
X-497819334Y-82980597D01*
G75*
G02*
X-496619597Y-81935666I1122334J-77403D01*
G01*
X-496619597Y-81935666D01*
G75*
G02*
X-495574666Y-83135403I-77403J-1122334D01*
G01*
X-495614666Y-83715403D01*
G75*
G02*
X-496814403Y-84760334I-1122334J77403D01*
G01*
G37*
%TD.AperFunction*%
%TD*%
%TO.P,MX25,1*%
%TO.N,Col4*%
X-496974500Y-60325500D03*
%TA.AperFunction,ComponentPad*%
G36*
G01*
X-499035812Y-62622850D02*
X-499035817Y-62622845D01*
G75*
G02*
X-499121845Y-61034183I751317J837345D01*
G01*
X-497811843Y-59574183D01*
G75*
G02*
X-496223181Y-59488155I837345J-751317D01*
G01*
X-496223181Y-59488155D01*
G75*
G02*
X-496137153Y-61076817I-751317J-837345D01*
G01*
X-497447155Y-62536817D01*
G75*
G02*
X-499035817Y-62622845I-837345J751317D01*
G01*
G37*
%TD.AperFunction*%
%TO.P,MX25,2*%
%TO.N,Net-(D25-Pad2)*%
X-491934500Y-59245500D03*
%TA.AperFunction,ComponentPad*%
G36*
G01*
X-492051017Y-60947895D02*
X-492051903Y-60947834D01*
G75*
G02*
X-493096834Y-59748097I77403J1122334D01*
G01*
X-493056834Y-59168097D01*
G75*
G02*
X-491857097Y-58123166I1122334J-77403D01*
G01*
X-491857097Y-58123166D01*
G75*
G02*
X-490812166Y-59322903I-77403J-1122334D01*
G01*
X-490852166Y-59902903D01*
G75*
G02*
X-492051903Y-60947834I-1122334J77403D01*
G01*
G37*
%TD.AperFunction*%
%TD*%
%TO.P,MX24,1*%
%TO.N,Col3*%
X-539837000Y-160338000D03*
%TA.AperFunction,ComponentPad*%
G36*
G01*
X-541898312Y-162635350D02*
X-541898317Y-162635345D01*
G75*
G02*
X-541984345Y-161046683I751317J837345D01*
G01*
X-540674343Y-159586683D01*
G75*
G02*
X-539085681Y-159500655I837345J-751317D01*
G01*
X-539085681Y-159500655D01*
G75*
G02*
X-538999653Y-161089317I-751317J-837345D01*
G01*
X-540309655Y-162549317D01*
G75*
G02*
X-541898317Y-162635345I-837345J751317D01*
G01*
G37*
%TD.AperFunction*%
%TO.P,MX24,2*%
%TO.N,Net-(D24-Pad2)*%
X-534797000Y-159258000D03*
%TA.AperFunction,ComponentPad*%
G36*
G01*
X-534913517Y-160960395D02*
X-534914403Y-160960334D01*
G75*
G02*
X-535959334Y-159760597I77403J1122334D01*
G01*
X-535919334Y-159180597D01*
G75*
G02*
X-534719597Y-158135666I1122334J-77403D01*
G01*
X-534719597Y-158135666D01*
G75*
G02*
X-533674666Y-159335403I-77403J-1122334D01*
G01*
X-533714666Y-159915403D01*
G75*
G02*
X-534914403Y-160960334I-1122334J77403D01*
G01*
G37*
%TD.AperFunction*%
%TD*%
%TO.P,MX23,1*%
%TO.N,Col3*%
X-558887000Y-160338000D03*
%TA.AperFunction,ComponentPad*%
G36*
G01*
X-560948312Y-162635350D02*
X-560948317Y-162635345D01*
G75*
G02*
X-561034345Y-161046683I751317J837345D01*
G01*
X-559724343Y-159586683D01*
G75*
G02*
X-558135681Y-159500655I837345J-751317D01*
G01*
X-558135681Y-159500655D01*
G75*
G02*
X-558049653Y-161089317I-751317J-837345D01*
G01*
X-559359655Y-162549317D01*
G75*
G02*
X-560948317Y-162635345I-837345J751317D01*
G01*
G37*
%TD.AperFunction*%
%TO.P,MX23,2*%
%TO.N,Net-(D23-Pad2)*%
X-553847000Y-159258000D03*
%TA.AperFunction,ComponentPad*%
G36*
G01*
X-553963517Y-160960395D02*
X-553964403Y-160960334D01*
G75*
G02*
X-555009334Y-159760597I77403J1122334D01*
G01*
X-554969334Y-159180597D01*
G75*
G02*
X-553769597Y-158135666I1122334J-77403D01*
G01*
X-553769597Y-158135666D01*
G75*
G02*
X-552724666Y-159335403I-77403J-1122334D01*
G01*
X-552764666Y-159915403D01*
G75*
G02*
X-553964403Y-160960334I-1122334J77403D01*
G01*
G37*
%TD.AperFunction*%
%TD*%
%TO.P,MX22,1*%
%TO.N,Col3*%
X-578000500Y-160338000D03*
%TA.AperFunction,ComponentPad*%
G36*
G01*
X-580061812Y-162635350D02*
X-580061817Y-162635345D01*
G75*
G02*
X-580147845Y-161046683I751317J837345D01*
G01*
X-578837843Y-159586683D01*
G75*
G02*
X-577249181Y-159500655I837345J-751317D01*
G01*
X-577249181Y-159500655D01*
G75*
G02*
X-577163153Y-161089317I-751317J-837345D01*
G01*
X-578473155Y-162549317D01*
G75*
G02*
X-580061817Y-162635345I-837345J751317D01*
G01*
G37*
%TD.AperFunction*%
%TO.P,MX22,2*%
%TO.N,Net-(D22-Pad2)*%
X-572960500Y-159258000D03*
%TA.AperFunction,ComponentPad*%
G36*
G01*
X-573077017Y-160960395D02*
X-573077903Y-160960334D01*
G75*
G02*
X-574122834Y-159760597I77403J1122334D01*
G01*
X-574082834Y-159180597D01*
G75*
G02*
X-572883097Y-158135666I1122334J-77403D01*
G01*
X-572883097Y-158135666D01*
G75*
G02*
X-571838166Y-159335403I-77403J-1122334D01*
G01*
X-571878166Y-159915403D01*
G75*
G02*
X-573077903Y-160960334I-1122334J77403D01*
G01*
G37*
%TD.AperFunction*%
%TD*%
%TO.P,MX21,1*%
%TO.N,Col3*%
X-558887000Y-141288000D03*
%TA.AperFunction,ComponentPad*%
G36*
G01*
X-560948312Y-143585350D02*
X-560948317Y-143585345D01*
G75*
G02*
X-561034345Y-141996683I751317J837345D01*
G01*
X-559724343Y-140536683D01*
G75*
G02*
X-558135681Y-140450655I837345J-751317D01*
G01*
X-558135681Y-140450655D01*
G75*
G02*
X-558049653Y-142039317I-751317J-837345D01*
G01*
X-559359655Y-143499317D01*
G75*
G02*
X-560948317Y-143585345I-837345J751317D01*
G01*
G37*
%TD.AperFunction*%
%TO.P,MX21,2*%
%TO.N,Net-(D21-Pad2)*%
X-553847000Y-140208000D03*
%TA.AperFunction,ComponentPad*%
G36*
G01*
X-553963517Y-141910395D02*
X-553964403Y-141910334D01*
G75*
G02*
X-555009334Y-140710597I77403J1122334D01*
G01*
X-554969334Y-140130597D01*
G75*
G02*
X-553769597Y-139085666I1122334J-77403D01*
G01*
X-553769597Y-139085666D01*
G75*
G02*
X-552724666Y-140285403I-77403J-1122334D01*
G01*
X-552764666Y-140865403D01*
G75*
G02*
X-553964403Y-141910334I-1122334J77403D01*
G01*
G37*
%TD.AperFunction*%
%TD*%
%TO.P,MX20,1*%
%TO.N,Col3*%
X-578000500Y-84138000D03*
%TA.AperFunction,ComponentPad*%
G36*
G01*
X-580061812Y-86435350D02*
X-580061817Y-86435345D01*
G75*
G02*
X-580147845Y-84846683I751317J837345D01*
G01*
X-578837843Y-83386683D01*
G75*
G02*
X-577249181Y-83300655I837345J-751317D01*
G01*
X-577249181Y-83300655D01*
G75*
G02*
X-577163153Y-84889317I-751317J-837345D01*
G01*
X-578473155Y-86349317D01*
G75*
G02*
X-580061817Y-86435345I-837345J751317D01*
G01*
G37*
%TD.AperFunction*%
%TO.P,MX20,2*%
%TO.N,Net-(D20-Pad2)*%
X-572960500Y-83058000D03*
%TA.AperFunction,ComponentPad*%
G36*
G01*
X-573077017Y-84760395D02*
X-573077903Y-84760334D01*
G75*
G02*
X-574122834Y-83560597I77403J1122334D01*
G01*
X-574082834Y-82980597D01*
G75*
G02*
X-572883097Y-81935666I1122334J-77403D01*
G01*
X-572883097Y-81935666D01*
G75*
G02*
X-571838166Y-83135403I-77403J-1122334D01*
G01*
X-571878166Y-83715403D01*
G75*
G02*
X-573077903Y-84760334I-1122334J77403D01*
G01*
G37*
%TD.AperFunction*%
%TD*%
%TO.P,MX19,1*%
%TO.N,Col3*%
X-525549500Y-60325500D03*
%TA.AperFunction,ComponentPad*%
G36*
G01*
X-527610812Y-62622850D02*
X-527610817Y-62622845D01*
G75*
G02*
X-527696845Y-61034183I751317J837345D01*
G01*
X-526386843Y-59574183D01*
G75*
G02*
X-524798181Y-59488155I837345J-751317D01*
G01*
X-524798181Y-59488155D01*
G75*
G02*
X-524712153Y-61076817I-751317J-837345D01*
G01*
X-526022155Y-62536817D01*
G75*
G02*
X-527610817Y-62622845I-837345J751317D01*
G01*
G37*
%TD.AperFunction*%
%TO.P,MX19,2*%
%TO.N,Net-(D19-Pad2)*%
X-520509500Y-59245500D03*
%TA.AperFunction,ComponentPad*%
G36*
G01*
X-520626017Y-60947895D02*
X-520626903Y-60947834D01*
G75*
G02*
X-521671834Y-59748097I77403J1122334D01*
G01*
X-521631834Y-59168097D01*
G75*
G02*
X-520432097Y-58123166I1122334J-77403D01*
G01*
X-520432097Y-58123166D01*
G75*
G02*
X-519387166Y-59322903I-77403J-1122334D01*
G01*
X-519427166Y-59902903D01*
G75*
G02*
X-520626903Y-60947834I-1122334J77403D01*
G01*
G37*
%TD.AperFunction*%
%TD*%
%TO.P,MX18,1*%
%TO.N,Col2*%
X-603313000Y-157313000D03*
%TA.AperFunction,ComponentPad*%
G36*
G01*
X-601015650Y-159374312D02*
X-601015655Y-159374317D01*
G75*
G02*
X-602604317Y-159460345I-837345J751317D01*
G01*
X-604064317Y-158150343D01*
G75*
G02*
X-604150345Y-156561681I751317J837345D01*
G01*
X-604150345Y-156561681D01*
G75*
G02*
X-602561683Y-156475653I837345J-751317D01*
G01*
X-601101683Y-157785655D01*
G75*
G02*
X-601015655Y-159374317I-751317J-837345D01*
G01*
G37*
%TD.AperFunction*%
%TO.P,MX18,2*%
%TO.N,Net-(D18-Pad2)*%
X-604393000Y-152273000D03*
%TA.AperFunction,ComponentPad*%
G36*
G01*
X-602690605Y-152389517D02*
X-602690666Y-152390403D01*
G75*
G02*
X-603890403Y-153435334I-1122334J77403D01*
G01*
X-604470403Y-153395334D01*
G75*
G02*
X-605515334Y-152195597I77403J1122334D01*
G01*
X-605515334Y-152195597D01*
G75*
G02*
X-604315597Y-151150666I1122334J-77403D01*
G01*
X-603735597Y-151190666D01*
G75*
G02*
X-602690666Y-152390403I-77403J-1122334D01*
G01*
G37*
%TD.AperFunction*%
%TD*%
%TO.P,MX17,1*%
%TO.N,Col2*%
X-620863000Y-160338000D03*
%TA.AperFunction,ComponentPad*%
G36*
G01*
X-622924312Y-162635350D02*
X-622924317Y-162635345D01*
G75*
G02*
X-623010345Y-161046683I751317J837345D01*
G01*
X-621700343Y-159586683D01*
G75*
G02*
X-620111681Y-159500655I837345J-751317D01*
G01*
X-620111681Y-159500655D01*
G75*
G02*
X-620025653Y-161089317I-751317J-837345D01*
G01*
X-621335655Y-162549317D01*
G75*
G02*
X-622924317Y-162635345I-837345J751317D01*
G01*
G37*
%TD.AperFunction*%
%TO.P,MX17,2*%
%TO.N,Net-(D17-Pad2)*%
X-615823000Y-159258000D03*
%TA.AperFunction,ComponentPad*%
G36*
G01*
X-615939517Y-160960395D02*
X-615940403Y-160960334D01*
G75*
G02*
X-616985334Y-159760597I77403J1122334D01*
G01*
X-616945334Y-159180597D01*
G75*
G02*
X-615745597Y-158135666I1122334J-77403D01*
G01*
X-615745597Y-158135666D01*
G75*
G02*
X-614700666Y-159335403I-77403J-1122334D01*
G01*
X-614740666Y-159915403D01*
G75*
G02*
X-615940403Y-160960334I-1122334J77403D01*
G01*
G37*
%TD.AperFunction*%
%TD*%
%TO.P,MX16,1*%
%TO.N,Col2*%
X-620863000Y-141288000D03*
%TA.AperFunction,ComponentPad*%
G36*
G01*
X-622924312Y-143585350D02*
X-622924317Y-143585345D01*
G75*
G02*
X-623010345Y-141996683I751317J837345D01*
G01*
X-621700343Y-140536683D01*
G75*
G02*
X-620111681Y-140450655I837345J-751317D01*
G01*
X-620111681Y-140450655D01*
G75*
G02*
X-620025653Y-142039317I-751317J-837345D01*
G01*
X-621335655Y-143499317D01*
G75*
G02*
X-622924317Y-143585345I-837345J751317D01*
G01*
G37*
%TD.AperFunction*%
%TO.P,MX16,2*%
%TO.N,Net-(D16-Pad2)*%
X-615823000Y-140208000D03*
%TA.AperFunction,ComponentPad*%
G36*
G01*
X-615939517Y-141910395D02*
X-615940403Y-141910334D01*
G75*
G02*
X-616985334Y-140710597I77403J1122334D01*
G01*
X-616945334Y-140130597D01*
G75*
G02*
X-615745597Y-139085666I1122334J-77403D01*
G01*
X-615745597Y-139085666D01*
G75*
G02*
X-614700666Y-140285403I-77403J-1122334D01*
G01*
X-614740666Y-140865403D01*
G75*
G02*
X-615940403Y-141910334I-1122334J77403D01*
G01*
G37*
%TD.AperFunction*%
%TD*%
%TO.P,MX15,1*%
%TO.N,Col2*%
X-620863000Y-122238000D03*
%TA.AperFunction,ComponentPad*%
G36*
G01*
X-622924312Y-124535350D02*
X-622924317Y-124535345D01*
G75*
G02*
X-623010345Y-122946683I751317J837345D01*
G01*
X-621700343Y-121486683D01*
G75*
G02*
X-620111681Y-121400655I837345J-751317D01*
G01*
X-620111681Y-121400655D01*
G75*
G02*
X-620025653Y-122989317I-751317J-837345D01*
G01*
X-621335655Y-124449317D01*
G75*
G02*
X-622924317Y-124535345I-837345J751317D01*
G01*
G37*
%TD.AperFunction*%
%TO.P,MX15,2*%
%TO.N,Net-(D15-Pad2)*%
X-615823000Y-121158000D03*
%TA.AperFunction,ComponentPad*%
G36*
G01*
X-615939517Y-122860395D02*
X-615940403Y-122860334D01*
G75*
G02*
X-616985334Y-121660597I77403J1122334D01*
G01*
X-616945334Y-121080597D01*
G75*
G02*
X-615745597Y-120035666I1122334J-77403D01*
G01*
X-615745597Y-120035666D01*
G75*
G02*
X-614700666Y-121235403I-77403J-1122334D01*
G01*
X-614740666Y-121815403D01*
G75*
G02*
X-615940403Y-122860334I-1122334J77403D01*
G01*
G37*
%TD.AperFunction*%
%TD*%
%TO.P,MX14,1*%
%TO.N,Col2*%
X-603313000Y-119213000D03*
%TA.AperFunction,ComponentPad*%
G36*
G01*
X-601015650Y-121274312D02*
X-601015655Y-121274317D01*
G75*
G02*
X-602604317Y-121360345I-837345J751317D01*
G01*
X-604064317Y-120050343D01*
G75*
G02*
X-604150345Y-118461681I751317J837345D01*
G01*
X-604150345Y-118461681D01*
G75*
G02*
X-602561683Y-118375653I837345J-751317D01*
G01*
X-601101683Y-119685655D01*
G75*
G02*
X-601015655Y-121274317I-751317J-837345D01*
G01*
G37*
%TD.AperFunction*%
%TO.P,MX14,2*%
%TO.N,Net-(D14-Pad2)*%
X-604393000Y-114173000D03*
%TA.AperFunction,ComponentPad*%
G36*
G01*
X-602690605Y-114289517D02*
X-602690666Y-114290403D01*
G75*
G02*
X-603890403Y-115335334I-1122334J77403D01*
G01*
X-604470403Y-115295334D01*
G75*
G02*
X-605515334Y-114095597I77403J1122334D01*
G01*
X-605515334Y-114095597D01*
G75*
G02*
X-604315597Y-113050666I1122334J-77403D01*
G01*
X-603735597Y-113090666D01*
G75*
G02*
X-602690666Y-114290403I-77403J-1122334D01*
G01*
G37*
%TD.AperFunction*%
%TD*%
%TO.P,MX13,1*%
%TO.N,Col2*%
X-601813000Y-84138000D03*
%TA.AperFunction,ComponentPad*%
G36*
G01*
X-603874312Y-86435350D02*
X-603874317Y-86435345D01*
G75*
G02*
X-603960345Y-84846683I751317J837345D01*
G01*
X-602650343Y-83386683D01*
G75*
G02*
X-601061681Y-83300655I837345J-751317D01*
G01*
X-601061681Y-83300655D01*
G75*
G02*
X-600975653Y-84889317I-751317J-837345D01*
G01*
X-602285655Y-86349317D01*
G75*
G02*
X-603874317Y-86435345I-837345J751317D01*
G01*
G37*
%TD.AperFunction*%
%TO.P,MX13,2*%
%TO.N,Net-(D13-Pad2)*%
X-596773000Y-83058000D03*
%TA.AperFunction,ComponentPad*%
G36*
G01*
X-596889517Y-84760395D02*
X-596890403Y-84760334D01*
G75*
G02*
X-597935334Y-83560597I77403J1122334D01*
G01*
X-597895334Y-82980597D01*
G75*
G02*
X-596695597Y-81935666I1122334J-77403D01*
G01*
X-596695597Y-81935666D01*
G75*
G02*
X-595650666Y-83135403I-77403J-1122334D01*
G01*
X-595690666Y-83715403D01*
G75*
G02*
X-596890403Y-84760334I-1122334J77403D01*
G01*
G37*
%TD.AperFunction*%
%TD*%
%TO.P,MX12,1*%
%TO.N,Col1*%
X-639913000Y-160338000D03*
%TA.AperFunction,ComponentPad*%
G36*
G01*
X-641974312Y-162635350D02*
X-641974317Y-162635345D01*
G75*
G02*
X-642060345Y-161046683I751317J837345D01*
G01*
X-640750343Y-159586683D01*
G75*
G02*
X-639161681Y-159500655I837345J-751317D01*
G01*
X-639161681Y-159500655D01*
G75*
G02*
X-639075653Y-161089317I-751317J-837345D01*
G01*
X-640385655Y-162549317D01*
G75*
G02*
X-641974317Y-162635345I-837345J751317D01*
G01*
G37*
%TD.AperFunction*%
%TO.P,MX12,2*%
%TO.N,Net-(D12-Pad2)*%
X-634873000Y-159258000D03*
%TA.AperFunction,ComponentPad*%
G36*
G01*
X-634989517Y-160960395D02*
X-634990403Y-160960334D01*
G75*
G02*
X-636035334Y-159760597I77403J1122334D01*
G01*
X-635995334Y-159180597D01*
G75*
G02*
X-634795597Y-158135666I1122334J-77403D01*
G01*
X-634795597Y-158135666D01*
G75*
G02*
X-633750666Y-159335403I-77403J-1122334D01*
G01*
X-633790666Y-159915403D01*
G75*
G02*
X-634990403Y-160960334I-1122334J77403D01*
G01*
G37*
%TD.AperFunction*%
%TD*%
%TO.P,MX11,1*%
%TO.N,Col1*%
X-639913000Y-141288000D03*
%TA.AperFunction,ComponentPad*%
G36*
G01*
X-641974312Y-143585350D02*
X-641974317Y-143585345D01*
G75*
G02*
X-642060345Y-141996683I751317J837345D01*
G01*
X-640750343Y-140536683D01*
G75*
G02*
X-639161681Y-140450655I837345J-751317D01*
G01*
X-639161681Y-140450655D01*
G75*
G02*
X-639075653Y-142039317I-751317J-837345D01*
G01*
X-640385655Y-143499317D01*
G75*
G02*
X-641974317Y-143585345I-837345J751317D01*
G01*
G37*
%TD.AperFunction*%
%TO.P,MX11,2*%
%TO.N,Net-(D11-Pad2)*%
X-634873000Y-140208000D03*
%TA.AperFunction,ComponentPad*%
G36*
G01*
X-634989517Y-141910395D02*
X-634990403Y-141910334D01*
G75*
G02*
X-636035334Y-140710597I77403J1122334D01*
G01*
X-635995334Y-140130597D01*
G75*
G02*
X-634795597Y-139085666I1122334J-77403D01*
G01*
X-634795597Y-139085666D01*
G75*
G02*
X-633750666Y-140285403I-77403J-1122334D01*
G01*
X-633790666Y-140865403D01*
G75*
G02*
X-634990403Y-141910334I-1122334J77403D01*
G01*
G37*
%TD.AperFunction*%
%TD*%
%TO.P,MX10,1*%
%TO.N,Col1*%
X-639913000Y-122238000D03*
%TA.AperFunction,ComponentPad*%
G36*
G01*
X-641974312Y-124535350D02*
X-641974317Y-124535345D01*
G75*
G02*
X-642060345Y-122946683I751317J837345D01*
G01*
X-640750343Y-121486683D01*
G75*
G02*
X-639161681Y-121400655I837345J-751317D01*
G01*
X-639161681Y-121400655D01*
G75*
G02*
X-639075653Y-122989317I-751317J-837345D01*
G01*
X-640385655Y-124449317D01*
G75*
G02*
X-641974317Y-124535345I-837345J751317D01*
G01*
G37*
%TD.AperFunction*%
%TO.P,MX10,2*%
%TO.N,Net-(D10-Pad2)*%
X-634873000Y-121158000D03*
%TA.AperFunction,ComponentPad*%
G36*
G01*
X-634989517Y-122860395D02*
X-634990403Y-122860334D01*
G75*
G02*
X-636035334Y-121660597I77403J1122334D01*
G01*
X-635995334Y-121080597D01*
G75*
G02*
X-634795597Y-120035666I1122334J-77403D01*
G01*
X-634795597Y-120035666D01*
G75*
G02*
X-633750666Y-121235403I-77403J-1122334D01*
G01*
X-633790666Y-121815403D01*
G75*
G02*
X-634990403Y-122860334I-1122334J77403D01*
G01*
G37*
%TD.AperFunction*%
%TD*%
%TO.P,MX9,1*%
%TO.N,Col1*%
X-639913000Y-103188000D03*
%TA.AperFunction,ComponentPad*%
G36*
G01*
X-641974312Y-105485350D02*
X-641974317Y-105485345D01*
G75*
G02*
X-642060345Y-103896683I751317J837345D01*
G01*
X-640750343Y-102436683D01*
G75*
G02*
X-639161681Y-102350655I837345J-751317D01*
G01*
X-639161681Y-102350655D01*
G75*
G02*
X-639075653Y-103939317I-751317J-837345D01*
G01*
X-640385655Y-105399317D01*
G75*
G02*
X-641974317Y-105485345I-837345J751317D01*
G01*
G37*
%TD.AperFunction*%
%TO.P,MX9,2*%
%TO.N,Net-(D9-Pad2)*%
X-634873000Y-102108000D03*
%TA.AperFunction,ComponentPad*%
G36*
G01*
X-634989517Y-103810395D02*
X-634990403Y-103810334D01*
G75*
G02*
X-636035334Y-102610597I77403J1122334D01*
G01*
X-635995334Y-102030597D01*
G75*
G02*
X-634795597Y-100985666I1122334J-77403D01*
G01*
X-634795597Y-100985666D01*
G75*
G02*
X-633750666Y-102185403I-77403J-1122334D01*
G01*
X-633790666Y-102765403D01*
G75*
G02*
X-634990403Y-103810334I-1122334J77403D01*
G01*
G37*
%TD.AperFunction*%
%TD*%
%TO.P,MX8,1*%
%TO.N,Col1*%
X-620863000Y-103188000D03*
%TA.AperFunction,ComponentPad*%
G36*
G01*
X-622924312Y-105485350D02*
X-622924317Y-105485345D01*
G75*
G02*
X-623010345Y-103896683I751317J837345D01*
G01*
X-621700343Y-102436683D01*
G75*
G02*
X-620111681Y-102350655I837345J-751317D01*
G01*
X-620111681Y-102350655D01*
G75*
G02*
X-620025653Y-103939317I-751317J-837345D01*
G01*
X-621335655Y-105399317D01*
G75*
G02*
X-622924317Y-105485345I-837345J751317D01*
G01*
G37*
%TD.AperFunction*%
%TO.P,MX8,2*%
%TO.N,Net-(D8-Pad2)*%
X-615823000Y-102108000D03*
%TA.AperFunction,ComponentPad*%
G36*
G01*
X-615939517Y-103810395D02*
X-615940403Y-103810334D01*
G75*
G02*
X-616985334Y-102610597I77403J1122334D01*
G01*
X-616945334Y-102030597D01*
G75*
G02*
X-615745597Y-100985666I1122334J-77403D01*
G01*
X-615745597Y-100985666D01*
G75*
G02*
X-614700666Y-102185403I-77403J-1122334D01*
G01*
X-614740666Y-102765403D01*
G75*
G02*
X-615940403Y-103810334I-1122334J77403D01*
G01*
G37*
%TD.AperFunction*%
%TD*%
%TO.P,MX7,1*%
%TO.N,Col1*%
X-620863000Y-84138000D03*
%TA.AperFunction,ComponentPad*%
G36*
G01*
X-622924312Y-86435350D02*
X-622924317Y-86435345D01*
G75*
G02*
X-623010345Y-84846683I751317J837345D01*
G01*
X-621700343Y-83386683D01*
G75*
G02*
X-620111681Y-83300655I837345J-751317D01*
G01*
X-620111681Y-83300655D01*
G75*
G02*
X-620025653Y-84889317I-751317J-837345D01*
G01*
X-621335655Y-86349317D01*
G75*
G02*
X-622924317Y-86435345I-837345J751317D01*
G01*
G37*
%TD.AperFunction*%
%TO.P,MX7,2*%
%TO.N,Net-(D7-Pad2)*%
X-615823000Y-83058000D03*
%TA.AperFunction,ComponentPad*%
G36*
G01*
X-615939517Y-84760395D02*
X-615940403Y-84760334D01*
G75*
G02*
X-616985334Y-83560597I77403J1122334D01*
G01*
X-616945334Y-82980597D01*
G75*
G02*
X-615745597Y-81935666I1122334J-77403D01*
G01*
X-615745597Y-81935666D01*
G75*
G02*
X-614700666Y-83135403I-77403J-1122334D01*
G01*
X-614740666Y-83715403D01*
G75*
G02*
X-615940403Y-84760334I-1122334J77403D01*
G01*
G37*
%TD.AperFunction*%
%TD*%
%TO.P,MX6,1*%
%TO.N,Col0*%
X-649438000Y-160338000D03*
%TA.AperFunction,ComponentPad*%
G36*
G01*
X-651499312Y-162635350D02*
X-651499317Y-162635345D01*
G75*
G02*
X-651585345Y-161046683I751317J837345D01*
G01*
X-650275343Y-159586683D01*
G75*
G02*
X-648686681Y-159500655I837345J-751317D01*
G01*
X-648686681Y-159500655D01*
G75*
G02*
X-648600653Y-161089317I-751317J-837345D01*
G01*
X-649910655Y-162549317D01*
G75*
G02*
X-651499317Y-162635345I-837345J751317D01*
G01*
G37*
%TD.AperFunction*%
%TO.P,MX6,2*%
%TO.N,Net-(D6-Pad2)*%
X-644398000Y-159258000D03*
%TA.AperFunction,ComponentPad*%
G36*
G01*
X-644514517Y-160960395D02*
X-644515403Y-160960334D01*
G75*
G02*
X-645560334Y-159760597I77403J1122334D01*
G01*
X-645520334Y-159180597D01*
G75*
G02*
X-644320597Y-158135666I1122334J-77403D01*
G01*
X-644320597Y-158135666D01*
G75*
G02*
X-643275666Y-159335403I-77403J-1122334D01*
G01*
X-643315666Y-159915403D01*
G75*
G02*
X-644515403Y-160960334I-1122334J77403D01*
G01*
G37*
%TD.AperFunction*%
%TD*%
%TO.P,MX5,1*%
%TO.N,Col0*%
X-658963000Y-141288000D03*
%TA.AperFunction,ComponentPad*%
G36*
G01*
X-661024312Y-143585350D02*
X-661024317Y-143585345D01*
G75*
G02*
X-661110345Y-141996683I751317J837345D01*
G01*
X-659800343Y-140536683D01*
G75*
G02*
X-658211681Y-140450655I837345J-751317D01*
G01*
X-658211681Y-140450655D01*
G75*
G02*
X-658125653Y-142039317I-751317J-837345D01*
G01*
X-659435655Y-143499317D01*
G75*
G02*
X-661024317Y-143585345I-837345J751317D01*
G01*
G37*
%TD.AperFunction*%
%TO.P,MX5,2*%
%TO.N,Net-(D5-Pad2)*%
X-653923000Y-140208000D03*
%TA.AperFunction,ComponentPad*%
G36*
G01*
X-654039517Y-141910395D02*
X-654040403Y-141910334D01*
G75*
G02*
X-655085334Y-140710597I77403J1122334D01*
G01*
X-655045334Y-140130597D01*
G75*
G02*
X-653845597Y-139085666I1122334J-77403D01*
G01*
X-653845597Y-139085666D01*
G75*
G02*
X-652800666Y-140285403I-77403J-1122334D01*
G01*
X-652840666Y-140865403D01*
G75*
G02*
X-654040403Y-141910334I-1122334J77403D01*
G01*
G37*
%TD.AperFunction*%
%TD*%
%TO.P,MX4,1*%
%TO.N,Col0*%
X-658963000Y-122238000D03*
%TA.AperFunction,ComponentPad*%
G36*
G01*
X-661024312Y-124535350D02*
X-661024317Y-124535345D01*
G75*
G02*
X-661110345Y-122946683I751317J837345D01*
G01*
X-659800343Y-121486683D01*
G75*
G02*
X-658211681Y-121400655I837345J-751317D01*
G01*
X-658211681Y-121400655D01*
G75*
G02*
X-658125653Y-122989317I-751317J-837345D01*
G01*
X-659435655Y-124449317D01*
G75*
G02*
X-661024317Y-124535345I-837345J751317D01*
G01*
G37*
%TD.AperFunction*%
%TO.P,MX4,2*%
%TO.N,Net-(D4-Pad2)*%
X-653923000Y-121158000D03*
%TA.AperFunction,ComponentPad*%
G36*
G01*
X-654039517Y-122860395D02*
X-654040403Y-122860334D01*
G75*
G02*
X-655085334Y-121660597I77403J1122334D01*
G01*
X-655045334Y-121080597D01*
G75*
G02*
X-653845597Y-120035666I1122334J-77403D01*
G01*
X-653845597Y-120035666D01*
G75*
G02*
X-652800666Y-121235403I-77403J-1122334D01*
G01*
X-652840666Y-121815403D01*
G75*
G02*
X-654040403Y-122860334I-1122334J77403D01*
G01*
G37*
%TD.AperFunction*%
%TD*%
%TO.P,MX3,1*%
%TO.N,Col0*%
X-658963000Y-103188000D03*
%TA.AperFunction,ComponentPad*%
G36*
G01*
X-661024312Y-105485350D02*
X-661024317Y-105485345D01*
G75*
G02*
X-661110345Y-103896683I751317J837345D01*
G01*
X-659800343Y-102436683D01*
G75*
G02*
X-658211681Y-102350655I837345J-751317D01*
G01*
X-658211681Y-102350655D01*
G75*
G02*
X-658125653Y-103939317I-751317J-837345D01*
G01*
X-659435655Y-105399317D01*
G75*
G02*
X-661024317Y-105485345I-837345J751317D01*
G01*
G37*
%TD.AperFunction*%
%TO.P,MX3,2*%
%TO.N,Net-(D3-Pad2)*%
X-653923000Y-102108000D03*
%TA.AperFunction,ComponentPad*%
G36*
G01*
X-654039517Y-103810395D02*
X-654040403Y-103810334D01*
G75*
G02*
X-655085334Y-102610597I77403J1122334D01*
G01*
X-655045334Y-102030597D01*
G75*
G02*
X-653845597Y-100985666I1122334J-77403D01*
G01*
X-653845597Y-100985666D01*
G75*
G02*
X-652800666Y-102185403I-77403J-1122334D01*
G01*
X-652840666Y-102765403D01*
G75*
G02*
X-654040403Y-103810334I-1122334J77403D01*
G01*
G37*
%TD.AperFunction*%
%TD*%
%TO.P,MX2,1*%
%TO.N,Col0*%
X-658963000Y-84138000D03*
%TA.AperFunction,ComponentPad*%
G36*
G01*
X-661024312Y-86435350D02*
X-661024317Y-86435345D01*
G75*
G02*
X-661110345Y-84846683I751317J837345D01*
G01*
X-659800343Y-83386683D01*
G75*
G02*
X-658211681Y-83300655I837345J-751317D01*
G01*
X-658211681Y-83300655D01*
G75*
G02*
X-658125653Y-84889317I-751317J-837345D01*
G01*
X-659435655Y-86349317D01*
G75*
G02*
X-661024317Y-86435345I-837345J751317D01*
G01*
G37*
%TD.AperFunction*%
%TO.P,MX2,2*%
%TO.N,Net-(D2-Pad2)*%
X-653923000Y-83058000D03*
%TA.AperFunction,ComponentPad*%
G36*
G01*
X-654039517Y-84760395D02*
X-654040403Y-84760334D01*
G75*
G02*
X-655085334Y-83560597I77403J1122334D01*
G01*
X-655045334Y-82980597D01*
G75*
G02*
X-653845597Y-81935666I1122334J-77403D01*
G01*
X-653845597Y-81935666D01*
G75*
G02*
X-652800666Y-83135403I-77403J-1122334D01*
G01*
X-652840666Y-83715403D01*
G75*
G02*
X-654040403Y-84760334I-1122334J77403D01*
G01*
G37*
%TD.AperFunction*%
%TD*%
%TO.P,MX1,1*%
%TO.N,Col0*%
X-639913000Y-84138000D03*
%TA.AperFunction,ComponentPad*%
G36*
G01*
X-641974312Y-86435350D02*
X-641974317Y-86435345D01*
G75*
G02*
X-642060345Y-84846683I751317J837345D01*
G01*
X-640750343Y-83386683D01*
G75*
G02*
X-639161681Y-83300655I837345J-751317D01*
G01*
X-639161681Y-83300655D01*
G75*
G02*
X-639075653Y-84889317I-751317J-837345D01*
G01*
X-640385655Y-86349317D01*
G75*
G02*
X-641974317Y-86435345I-837345J751317D01*
G01*
G37*
%TD.AperFunction*%
%TO.P,MX1,2*%
%TO.N,Net-(D1-Pad2)*%
X-634873000Y-83058000D03*
%TA.AperFunction,ComponentPad*%
G36*
G01*
X-634989517Y-84760395D02*
X-634990403Y-84760334D01*
G75*
G02*
X-636035334Y-83560597I77403J1122334D01*
G01*
X-635995334Y-82980597D01*
G75*
G02*
X-634795597Y-81935666I1122334J-77403D01*
G01*
X-634795597Y-81935666D01*
G75*
G02*
X-633750666Y-83135403I-77403J-1122334D01*
G01*
X-633790666Y-83715403D01*
G75*
G02*
X-634990403Y-84760334I-1122334J77403D01*
G01*
G37*
%TD.AperFunction*%
%TD*%
D17*
%TO.N,GND*%
X-556234600Y-94183200D03*
%TO.N,Row4*%
X-608863400Y-162661600D03*
%TO.N,Row0*%
X-527812000Y-95046800D03*
X-513105400Y-95123000D03*
X-513524500Y-65975500D03*
X-559536600Y-64236600D03*
X-553796200Y-85648800D03*
X-405866600Y-81254600D03*
X-401398602Y-80570530D03*
%TO.N,Row1*%
X-602640400Y-92379800D03*
X-602640400Y-108966000D03*
X-528523200Y-94107000D03*
X-528650200Y-94056200D03*
X-531545800Y-95123000D03*
%TO.N,Row2*%
X-611987600Y-111683800D03*
X-608838000Y-127888000D03*
X-601929200Y-145719800D03*
X-536219400Y-104698800D03*
X-501599200Y-113969800D03*
X-494474500Y-108838000D03*
X-502818400Y-151231600D03*
%TO.N,Row3*%
X-610133400Y-131089400D03*
X-608838000Y-146938000D03*
X-568706000Y-146939000D03*
X-565975500Y-165988000D03*
X-530047200Y-126720600D03*
X-533730200Y-109296200D03*
X-538505400Y-104749600D03*
X-562483000Y-126974600D03*
%TO.N,Row4*%
X-608812600Y-149758400D03*
X-548538400Y-169291000D03*
X-546862000Y-165988000D03*
X-544195000Y-149758400D03*
X-244255800Y-130276600D03*
X-247576850Y-146988800D03*
X-562914800Y-116339700D03*
X-587451200Y-120802400D03*
%TO.N,Row5*%
X-625271800Y-153695400D03*
X-627888000Y-165988000D03*
X-384151566Y-188866923D03*
X-379221064Y-170466037D03*
X-368192848Y-170966037D03*
X-363252968Y-189348219D03*
X-209455250Y-166013400D03*
X-204708000Y-146938000D03*
X-561431683Y-115890600D03*
X-586540832Y-121529400D03*
X-589788000Y-156463000D03*
%TO.N,Col0*%
X-561340000Y-117170200D03*
%TO.N,Col1*%
X-545525400Y-104317800D03*
%TO.N,Col2*%
X-559470000Y-135204200D03*
%TO.N,Col3*%
X-560324000Y-117703600D03*
X-563867300Y-120942100D03*
%TO.N,Col4*%
X-559435000Y-118436600D03*
%TO.N,Col5*%
X-550392600Y-103352600D03*
X-544322000Y-103352600D03*
X-540867600Y-99822000D03*
%TO.N,Col6*%
X-551076867Y-102258867D03*
X-546979400Y-98628200D03*
X-546252399Y-81838800D03*
%TO.N,Col7*%
X-552042067Y-101293667D03*
%TO.N,Col8*%
X-558231600Y-77952600D03*
%TO.N,Col9*%
X-566267600Y-76987400D03*
%TO.N,Col10*%
X-558698400Y-80238600D03*
X-354836891Y-91771309D03*
%TO.N,Col11*%
X-565936467Y-104139067D03*
X-543487669Y-103903865D03*
X-531001233Y-93229167D03*
%TO.N,Col12*%
X-565073800Y-106070400D03*
X-542375951Y-105015583D03*
X-534797000Y-98294809D03*
%TO.N,Col13*%
X-534974800Y-128092200D03*
X-451256400Y-133680200D03*
X-436422800Y-182270400D03*
X-373253000Y-190119000D03*
X-373253000Y-97942400D03*
X-307352696Y-79806775D03*
%TO.N,Col14*%
X-532130000Y-137083800D03*
X-441397617Y-144776417D03*
X-418109400Y-89839800D03*
X-335330800Y-81889600D03*
X-330377800Y-89738200D03*
X-276961600Y-80110200D03*
%TO.N,Col15*%
X-536575000Y-133801000D03*
X-452653400Y-133801000D03*
X-447700400Y-96189800D03*
X-273008600Y-102844600D03*
X-264702800Y-119405400D03*
X-242935000Y-118719600D03*
%TO.N,Col16*%
X-539550892Y-134528000D03*
X-410438600Y-147421600D03*
X-405053800Y-110871000D03*
%TO.N,Col17*%
X-540258000Y-135255000D03*
%TO.N,GND*%
X-550324200Y-94298400D03*
X-548124200Y-95998400D03*
X-543026600Y-96174600D03*
X-566750200Y-93954600D03*
X-559425400Y-97383600D03*
X-559470000Y-129362200D03*
X-569874400Y-130606800D03*
X-580313800Y-93827600D03*
X-546258333Y-122560933D03*
X-536270200Y-122971000D03*
X-539851600Y-128930400D03*
%TO.N,Net-(C2-Pad1)*%
X-548124200Y-94298400D03*
X-543026600Y-94274600D03*
%TO.N,+5V*%
X-536727400Y-97840800D03*
X-547090600Y-102057200D03*
X-559028600Y-127762000D03*
X-572693800Y-129768600D03*
X-542290000Y-125526800D03*
X-525703800Y-125577600D03*
X-540308800Y-121234200D03*
X-525830800Y-121285000D03*
X-541909000Y-114436600D03*
X-521512800Y-118973600D03*
%TO.N,VCC*%
X-558444400Y-71577200D03*
X-543712400Y-71551800D03*
%TO.N,Net-(R1-Pad1)*%
X-543814000Y-100685600D03*
X-537972000Y-117576600D03*
%TO.N,Net-(R2-Pad1)*%
X-545525400Y-100838000D03*
X-538759400Y-116763800D03*
%TO.N,Net-(R3-Pad2)*%
X-557504600Y-90271600D03*
X-546252400Y-90881200D03*
%TO.N,Net-(USB1-Pad6)*%
X-547674800Y-66929000D03*
X-542925000Y-66954400D03*
%TD*%
D18*
%TO.N,Row0*%
X-527812000Y-98499800D02*
X-527812000Y-95046800D01*
X-542875800Y-113563600D02*
X-527812000Y-98499800D01*
X-543879800Y-113563600D02*
X-542875800Y-113563600D01*
X-513524500Y-94703900D02*
X-513524500Y-65975500D01*
X-513105400Y-95123000D02*
X-513524500Y-94703900D01*
X-553796200Y-69977000D02*
X-553796200Y-85648800D01*
X-559536600Y-64236600D02*
X-553796200Y-69977000D01*
X-402082672Y-81254600D02*
X-401398602Y-80570530D01*
X-405866600Y-81254600D02*
X-402082672Y-81254600D01*
%TO.N,Row1*%
X-602640400Y-92379800D02*
X-602640400Y-108966000D01*
X-528539001Y-94122801D02*
X-528523200Y-94107000D01*
X-528539001Y-98426801D02*
X-528539001Y-94122801D01*
X-542875800Y-112763600D02*
X-528539001Y-98426801D01*
X-543879800Y-112763600D02*
X-542875800Y-112763600D01*
X-530529800Y-94107000D02*
X-528523200Y-94107000D01*
X-531545800Y-95123000D02*
X-530529800Y-94107000D01*
%TO.N,Row2*%
X-611987600Y-124738400D02*
X-608838000Y-127888000D01*
X-611987600Y-111683800D02*
X-611987600Y-124738400D01*
X-608838000Y-128850482D02*
X-608838000Y-127888000D01*
X-601929200Y-135759282D02*
X-608838000Y-128850482D01*
X-601929200Y-145719800D02*
X-601929200Y-135759282D01*
X-536219400Y-105307200D02*
X-536219400Y-104698800D01*
X-542875800Y-111963600D02*
X-536219400Y-105307200D01*
X-543879800Y-111963600D02*
X-542875800Y-111963600D01*
X-499606300Y-113969800D02*
X-494474500Y-108838000D01*
X-501599200Y-113969800D02*
X-499606300Y-113969800D01*
X-501599200Y-150012400D02*
X-502818400Y-151231600D01*
X-501599200Y-113969800D02*
X-501599200Y-150012400D01*
%TO.N,Row3*%
X-610133400Y-145642600D02*
X-608838000Y-146938000D01*
X-610133400Y-131089400D02*
X-610133400Y-145642600D01*
X-568706000Y-146939000D02*
X-568706000Y-163804600D01*
X-568158900Y-163804600D02*
X-565975500Y-165988000D01*
X-568706000Y-163804600D02*
X-568158900Y-163804600D01*
X-533730200Y-123037600D02*
X-533730200Y-109296200D01*
X-530047200Y-126720600D02*
X-533730200Y-123037600D01*
X-538505400Y-105789200D02*
X-543879800Y-111163600D01*
X-538505400Y-104749600D02*
X-538505400Y-105789200D01*
X-568706000Y-133197600D02*
X-562483000Y-126974600D01*
X-568706000Y-146939000D02*
X-568706000Y-133197600D01*
%TO.N,Row4*%
X-608863400Y-149809200D02*
X-608812600Y-149758400D01*
X-608863400Y-162661600D02*
X-608863400Y-149809200D01*
X-548538400Y-167664400D02*
X-546862000Y-165988000D01*
X-548538400Y-169291000D02*
X-548538400Y-167664400D01*
X-546862000Y-152425400D02*
X-544195000Y-149758400D01*
X-546862000Y-165988000D02*
X-546862000Y-152425400D01*
X-244255800Y-143667750D02*
X-247576850Y-146988800D01*
X-244255800Y-130276600D02*
X-244255800Y-143667750D01*
X-561738700Y-115163600D02*
X-562914800Y-116339700D01*
X-555279800Y-115163600D02*
X-561738700Y-115163600D01*
X-600302638Y-162661600D02*
X-608863400Y-162661600D01*
X-587451200Y-149810162D02*
X-600302638Y-162661600D01*
X-587451200Y-120802400D02*
X-587451200Y-149810162D01*
%TO.N,Row5*%
X-625271800Y-163371800D02*
X-627888000Y-165988000D01*
X-625271800Y-153695400D02*
X-625271800Y-163371800D01*
X-384151566Y-175396539D02*
X-379221064Y-170466037D01*
X-384151566Y-188866923D02*
X-384151566Y-175396539D01*
X-368192848Y-170966037D02*
X-363321600Y-175837285D01*
X-363321600Y-189279587D02*
X-363252968Y-189348219D01*
X-363321600Y-175837285D02*
X-363321600Y-189279587D01*
X-209455250Y-166013400D02*
X-208390000Y-166013400D01*
X-204708000Y-162331400D02*
X-204708000Y-146938000D01*
X-208390000Y-166013400D02*
X-204708000Y-162331400D01*
X-561358683Y-115963600D02*
X-561431683Y-115890600D01*
X-555279800Y-115963600D02*
X-561358683Y-115963600D01*
X-586540832Y-153215832D02*
X-589788000Y-156463000D01*
X-586540832Y-121529400D02*
X-586540832Y-153215832D01*
%TO.N,Net-(D19-Pad2)*%
X-520549500Y-59285500D02*
X-520509500Y-59245500D01*
X-520549500Y-59825500D02*
X-520549500Y-59285500D01*
%TO.N,Col0*%
X-660273000Y-101878000D02*
X-658963000Y-103188000D01*
X-660273000Y-85598000D02*
X-660273000Y-101878000D01*
X-660273000Y-120928000D02*
X-658963000Y-122238000D01*
X-660273000Y-104648000D02*
X-660273000Y-120928000D01*
X-660273000Y-139978000D02*
X-658963000Y-141288000D01*
X-660273000Y-123698000D02*
X-660273000Y-139978000D01*
X-660727001Y-156464519D02*
X-660727001Y-158573999D01*
X-660727001Y-158573999D02*
X-658963000Y-160338000D01*
X-660273000Y-156010518D02*
X-660727001Y-156464519D01*
X-660273000Y-142748000D02*
X-660273000Y-156010518D01*
X-560933400Y-116763600D02*
X-561340000Y-117170200D01*
X-555279800Y-116763600D02*
X-560933400Y-116763600D01*
%TO.N,Col1*%
X-622173000Y-85598000D02*
X-622173000Y-104648000D01*
X-641223000Y-120928000D02*
X-639913000Y-122238000D01*
X-641223000Y-104648000D02*
X-641223000Y-120928000D01*
X-641223000Y-139978000D02*
X-639913000Y-141288000D01*
X-641223000Y-123698000D02*
X-641223000Y-139978000D01*
X-641223000Y-159028000D02*
X-639913000Y-160338000D01*
X-641223000Y-142748000D02*
X-641223000Y-159028000D01*
X-545579800Y-104372200D02*
X-545525400Y-104317800D01*
X-545579800Y-109463600D02*
X-545579800Y-104372200D01*
%TO.N,Col2*%
X-605845001Y-116680999D02*
X-603313000Y-119213000D01*
X-605845001Y-113517895D02*
X-605845001Y-116680999D01*
X-604446999Y-112119893D02*
X-605845001Y-113517895D01*
X-604446999Y-103886519D02*
X-604446999Y-112119893D01*
X-605595001Y-102738517D02*
X-604446999Y-103886519D01*
X-605595001Y-87561039D02*
X-605595001Y-102738517D01*
X-603631962Y-85598000D02*
X-605595001Y-87561039D01*
X-603123000Y-85598000D02*
X-603631962Y-85598000D01*
X-622173000Y-139978000D02*
X-620863000Y-141288000D01*
X-622173000Y-123698000D02*
X-622173000Y-139978000D01*
X-551179800Y-122147962D02*
X-559562000Y-130530162D01*
X-551179800Y-120863600D02*
X-551179800Y-122147962D01*
X-559562000Y-135112200D02*
X-559470000Y-135204200D01*
X-559562000Y-130530162D02*
X-559562000Y-135112200D01*
X-622173000Y-159028000D02*
X-620863000Y-160338000D01*
X-622173000Y-142748000D02*
X-622173000Y-159028000D01*
X-619477033Y-147608901D02*
X-622173000Y-144912934D01*
X-609886137Y-147608901D02*
X-619477033Y-147608901D01*
X-608085599Y-149409439D02*
X-609886137Y-147608901D01*
X-608085599Y-152390401D02*
X-608085599Y-149409439D01*
X-622173000Y-144912934D02*
X-622173000Y-142748000D01*
X-601853000Y-158623000D02*
X-608085599Y-152390401D01*
%TO.N,Col3*%
X-560197000Y-159028000D02*
X-558887000Y-160338000D01*
X-560197000Y-142748000D02*
X-560197000Y-159028000D01*
X-579310500Y-105498900D02*
X-579310500Y-85598000D01*
X-560197000Y-142748000D02*
X-560197000Y-124612400D01*
X-560184000Y-117563600D02*
X-560324000Y-117703600D01*
X-555279800Y-117563600D02*
X-560184000Y-117563600D01*
X-563867300Y-120942100D02*
X-579310500Y-105498900D01*
X-560197000Y-124612400D02*
X-563867300Y-120942100D01*
%TO.N,Col4*%
X-501737000Y-64729038D02*
X-501737000Y-84138000D01*
X-498793462Y-61785500D02*
X-501737000Y-64729038D01*
X-498284500Y-61785500D02*
X-498793462Y-61785500D01*
X-511262000Y-93304038D02*
X-511262000Y-103188000D01*
X-503555962Y-85598000D02*
X-511262000Y-93304038D01*
X-503047000Y-85598000D02*
X-503555962Y-85598000D01*
X-515044001Y-123511999D02*
X-514858000Y-123698000D01*
X-515044001Y-106611039D02*
X-515044001Y-123511999D01*
X-513080962Y-104648000D02*
X-515044001Y-106611039D01*
X-512572000Y-104648000D02*
X-513080962Y-104648000D01*
X-516914000Y-123698000D02*
X-518374000Y-122238000D01*
X-514858000Y-123698000D02*
X-516914000Y-123698000D01*
X-527899000Y-131404038D02*
X-527899000Y-141288000D01*
X-520192962Y-123698000D02*
X-527899000Y-131404038D01*
X-519684000Y-123698000D02*
X-520192962Y-123698000D01*
X-531681001Y-144711039D02*
X-531681001Y-149800999D01*
X-529717962Y-142748000D02*
X-531681001Y-144711039D01*
X-531681001Y-149800999D02*
X-519684000Y-161798000D01*
X-529209000Y-142748000D02*
X-529717962Y-142748000D01*
X-559362000Y-118363600D02*
X-559435000Y-118436600D01*
X-555279800Y-118363600D02*
X-559362000Y-118363600D01*
%TO.N,Col5*%
X-482623500Y-64665538D02*
X-482623500Y-84138000D01*
X-479743462Y-61785500D02*
X-482623500Y-64665538D01*
X-479234500Y-61785500D02*
X-479743462Y-61785500D01*
X-487386000Y-88541538D02*
X-487386000Y-103188000D01*
X-484442462Y-85598000D02*
X-487386000Y-88541538D01*
X-483933500Y-85598000D02*
X-484442462Y-85598000D01*
X-492148500Y-107591538D02*
X-492148500Y-122238000D01*
X-489204962Y-104648000D02*
X-492148500Y-107591538D01*
X-488696000Y-104648000D02*
X-489204962Y-104648000D01*
X-496911000Y-126641538D02*
X-496911000Y-141288000D01*
X-493967462Y-123698000D02*
X-496911000Y-126641538D01*
X-493458500Y-123698000D02*
X-493967462Y-123698000D01*
X-500693001Y-157039999D02*
X-495935000Y-161798000D01*
X-500693001Y-144711039D02*
X-500693001Y-157039999D01*
X-498729962Y-142748000D02*
X-500693001Y-144711039D01*
X-498221000Y-142748000D02*
X-498729962Y-142748000D01*
X-550379800Y-103365400D02*
X-550392600Y-103352600D01*
X-550379800Y-109463600D02*
X-550379800Y-103365400D01*
X-540867600Y-99898200D02*
X-540867600Y-99822000D01*
X-544322000Y-103352600D02*
X-540867600Y-99898200D01*
%TO.N,Col6*%
X-454177303Y-85017247D02*
X-453052304Y-86142246D01*
X-454177303Y-65853368D02*
X-454177303Y-85017247D01*
X-451534880Y-63210945D02*
X-454177303Y-65853368D01*
X-449996543Y-63210945D02*
X-451534880Y-63210945D01*
X-457781670Y-88761235D02*
X-457781670Y-102237530D01*
X-456233880Y-87213445D02*
X-457781670Y-88761235D01*
X-454695543Y-87213445D02*
X-456233880Y-87213445D01*
X-456360301Y-103658899D02*
X-456360301Y-104955249D01*
X-457781670Y-102237530D02*
X-456360301Y-103658899D01*
X-459541877Y-106026448D02*
X-461089667Y-107574238D01*
X-461089667Y-107574238D02*
X-461089667Y-120621133D01*
X-458003540Y-106026448D02*
X-459541877Y-106026448D01*
X-459548538Y-122162262D02*
X-459548538Y-123878249D01*
X-461089667Y-120621133D02*
X-459548538Y-122162262D01*
X-464277904Y-126497238D02*
X-464277904Y-138413296D01*
X-462730114Y-124949448D02*
X-464277904Y-126497238D01*
X-461191777Y-124949448D02*
X-462730114Y-124949448D01*
X-462977538Y-139713662D02*
X-462977538Y-142674249D01*
X-464277904Y-138413296D02*
X-462977538Y-139713662D01*
X-467706904Y-159632683D02*
X-465666138Y-161673449D01*
X-467706904Y-145293238D02*
X-467706904Y-159632683D01*
X-466159114Y-143745448D02*
X-467706904Y-145293238D01*
X-464620777Y-143745448D02*
X-466159114Y-143745448D01*
X-551179800Y-102361800D02*
X-551076867Y-102258867D01*
X-551179800Y-109463600D02*
X-551179800Y-102361800D01*
X-546979400Y-82565801D02*
X-546252399Y-81838800D01*
X-546979400Y-98628200D02*
X-546979400Y-82565801D01*
%TO.N,Col7*%
X-435776417Y-89947749D02*
X-434651418Y-91072748D01*
X-435776417Y-70783870D02*
X-435776417Y-89947749D01*
X-433133994Y-68141447D02*
X-435776417Y-70783870D01*
X-431595657Y-68141447D02*
X-433133994Y-68141447D01*
X-437832994Y-92143947D02*
X-439394600Y-93705553D01*
X-436294657Y-92143947D02*
X-437832994Y-92143947D01*
X-439394600Y-108450566D02*
X-437959415Y-109885751D01*
X-439394600Y-93705553D02*
X-439394600Y-108450566D01*
X-442688781Y-112504740D02*
X-442688781Y-124645619D01*
X-441140991Y-110956950D02*
X-442688781Y-112504740D01*
X-439602654Y-110956950D02*
X-441140991Y-110956950D01*
X-441147652Y-126186748D02*
X-441147652Y-128808751D01*
X-442688781Y-124645619D02*
X-441147652Y-126186748D01*
X-445877018Y-131427740D02*
X-445877018Y-136113182D01*
X-444329228Y-129879950D02*
X-445877018Y-131427740D01*
X-442790891Y-129879950D02*
X-444329228Y-129879950D01*
X-444576652Y-137413548D02*
X-444576652Y-147604751D01*
X-445877018Y-136113182D02*
X-444576652Y-137413548D01*
X-447758228Y-148675950D02*
X-449376800Y-150294522D01*
X-446219891Y-148675950D02*
X-447758228Y-148675950D01*
X-449376800Y-151306880D02*
X-437615680Y-163068000D01*
X-449376800Y-150294522D02*
X-449376800Y-151306880D01*
X-437615680Y-163068000D02*
X-435813200Y-163068000D01*
X-430479377Y-168401823D02*
X-430479377Y-172625248D01*
X-435813200Y-163068000D02*
X-430479377Y-168401823D01*
X-551979800Y-101355934D02*
X-552042067Y-101293667D01*
X-551979800Y-109463600D02*
X-551979800Y-101355934D01*
%TO.N,Col8*%
X-414733108Y-73071949D02*
X-416712400Y-75051241D01*
X-413194771Y-73071949D02*
X-414733108Y-73071949D01*
X-416712400Y-95541382D02*
X-416250532Y-96003250D01*
X-416712400Y-75051241D02*
X-416712400Y-95541382D01*
X-419432108Y-97074449D02*
X-422249600Y-99891941D01*
X-417893771Y-97074449D02*
X-419432108Y-97074449D01*
X-422249600Y-112125182D02*
X-419558529Y-114816253D01*
X-422249600Y-99891941D02*
X-422249600Y-112125182D01*
X-424287895Y-117435242D02*
X-424287895Y-118589164D01*
X-422740105Y-115887452D02*
X-424287895Y-117435242D01*
X-421201768Y-115887452D02*
X-422740105Y-115887452D01*
X-422746766Y-120130293D02*
X-422746766Y-133739253D01*
X-424287895Y-118589164D02*
X-422746766Y-120130293D01*
X-427476132Y-151234887D02*
X-426175766Y-152535253D01*
X-427476132Y-136358242D02*
X-427476132Y-151234887D01*
X-425928342Y-134810452D02*
X-427476132Y-136358242D01*
X-424390005Y-134810452D02*
X-425928342Y-134810452D01*
X-417942835Y-157158804D02*
X-394304496Y-180797143D01*
X-419622672Y-157158804D02*
X-417942835Y-157158804D01*
X-423175024Y-153606452D02*
X-419622672Y-157158804D01*
X-427819005Y-153606452D02*
X-423175024Y-153606452D01*
X-557958610Y-78225590D02*
X-558231600Y-77952600D01*
X-558231601Y-89922639D02*
X-557958610Y-89649648D01*
X-558231601Y-95617017D02*
X-558231601Y-89922639D01*
X-557958610Y-89649648D02*
X-557958610Y-78225590D01*
X-552779800Y-101068818D02*
X-558231601Y-95617017D01*
X-552779800Y-109463600D02*
X-552779800Y-101068818D01*
%TO.N,Col9*%
X-392395383Y-162089306D02*
X-391017233Y-163467456D01*
X-401714494Y-162089306D02*
X-392395383Y-162089306D01*
X-405266846Y-158536954D02*
X-401714494Y-162089306D01*
X-409418119Y-158536954D02*
X-405266846Y-158536954D01*
X-394793885Y-97877991D02*
X-397849646Y-100933752D01*
X-394793885Y-78002451D02*
X-394793885Y-97877991D01*
X-399492885Y-102004951D02*
X-401318551Y-102004951D01*
X-402579012Y-118325386D02*
X-401157643Y-119746755D01*
X-402579012Y-103265412D02*
X-402579012Y-118325386D01*
X-401318551Y-102004951D02*
X-402579012Y-103265412D01*
X-405887009Y-122365744D02*
X-405887009Y-128909991D01*
X-404339219Y-120817954D02*
X-405887009Y-122365744D01*
X-402800882Y-120817954D02*
X-404339219Y-120817954D01*
X-404345880Y-130451120D02*
X-404345880Y-138669755D01*
X-405887009Y-128909991D02*
X-404345880Y-130451120D01*
X-409075246Y-141288744D02*
X-409075246Y-142993754D01*
X-407527456Y-139740954D02*
X-409075246Y-141288744D01*
X-405989119Y-139740954D02*
X-407527456Y-139740954D01*
X-407774880Y-144294120D02*
X-407774880Y-157465755D01*
X-409075246Y-142993754D02*
X-407774880Y-144294120D01*
X-565988010Y-77266990D02*
X-566267600Y-76987400D01*
X-565988010Y-103059390D02*
X-565988010Y-77266990D01*
X-556283800Y-112763600D02*
X-565988010Y-103059390D01*
X-555279800Y-112763600D02*
X-556283800Y-112763600D01*
%TO.N,Col10*%
X-360151352Y-80621925D02*
X-360151352Y-86253648D01*
X-360784028Y-79989249D02*
X-360151352Y-80621925D01*
X-360151352Y-86253648D02*
X-354836891Y-91568109D01*
X-351382491Y-109698465D02*
X-351382491Y-121138144D01*
X-355724378Y-105356578D02*
X-351382491Y-109698465D01*
X-355724378Y-104066049D02*
X-355724378Y-105356578D01*
X-351637302Y-123520125D02*
X-351637302Y-125298498D01*
X-352269978Y-122887449D02*
X-351637302Y-123520125D01*
X-347928091Y-129007709D02*
X-347928091Y-139934144D01*
X-351637302Y-125298498D02*
X-347928091Y-129007709D01*
X-344468661Y-147610517D02*
X-344468661Y-158759850D01*
X-348815578Y-143263600D02*
X-344468661Y-147610517D01*
X-348815578Y-141683449D02*
X-348815578Y-143263600D01*
X-363757034Y-166004364D02*
X-363757034Y-165439657D01*
X-360533489Y-169227909D02*
X-363757034Y-166004364D01*
X-356369293Y-169227909D02*
X-360533489Y-169227909D01*
X-347650539Y-160509155D02*
X-356369293Y-169227909D01*
X-345356148Y-160509155D02*
X-347650539Y-160509155D01*
X-558698400Y-104345000D02*
X-558698400Y-80238600D01*
X-553579800Y-109463600D02*
X-558698400Y-104345000D01*
X-354836891Y-91771309D02*
X-354836891Y-102316744D01*
X-354836891Y-91568109D02*
X-354836891Y-91771309D01*
%TO.N,Col11*%
X-341750466Y-75691423D02*
X-341750466Y-81972334D01*
X-342383142Y-75058747D02*
X-341750466Y-75691423D01*
X-336436005Y-87286795D02*
X-336436005Y-97386242D01*
X-341750466Y-81972334D02*
X-336436005Y-87286795D01*
X-332981605Y-104734179D02*
X-332981605Y-116207642D01*
X-337323492Y-100392292D02*
X-332981605Y-104734179D01*
X-337323492Y-99135547D02*
X-337323492Y-100392292D01*
X-329527205Y-123878985D02*
X-329527205Y-135003642D01*
X-333869092Y-119537098D02*
X-329527205Y-123878985D01*
X-333869092Y-117956947D02*
X-333869092Y-119537098D01*
X-329782016Y-137385623D02*
X-329782016Y-140930784D01*
X-330414692Y-136752947D02*
X-329782016Y-137385623D01*
X-326067775Y-144645025D02*
X-326067775Y-153829348D01*
X-329782016Y-140930784D02*
X-326067775Y-144645025D01*
X-326955262Y-155578653D02*
X-333806800Y-162430191D01*
X-333806800Y-162430191D02*
X-333806800Y-169900600D01*
X-342716378Y-178810178D02*
X-342716378Y-179507649D01*
X-333806800Y-169900600D02*
X-342716378Y-178810178D01*
X-556511934Y-113563600D02*
X-565936467Y-104139067D01*
X-555279800Y-113563600D02*
X-556511934Y-113563600D01*
X-541675931Y-103903865D02*
X-531001233Y-93229167D01*
X-543487669Y-103903865D02*
X-541675931Y-103903865D01*
%TO.N,Col12*%
X-318035119Y-77655533D02*
X-318035119Y-92455740D01*
X-323982256Y-71708396D02*
X-318035119Y-77655533D01*
X-323982256Y-70128245D02*
X-323982256Y-71708396D01*
X-314580719Y-100127083D02*
X-314580719Y-111277140D01*
X-318922606Y-95785196D02*
X-314580719Y-100127083D01*
X-318922606Y-94205045D02*
X-318922606Y-95785196D01*
X-311126319Y-118819893D02*
X-311126319Y-130073140D01*
X-315468206Y-114478006D02*
X-311126319Y-118819893D01*
X-315468206Y-113026445D02*
X-315468206Y-114478006D01*
X-312013806Y-133394960D02*
X-307666889Y-137741877D01*
X-307666889Y-137741877D02*
X-307666889Y-148898846D01*
X-312013806Y-131822445D02*
X-312013806Y-133394960D01*
X-307921700Y-165002757D02*
X-305027118Y-167897339D01*
X-307921700Y-151280827D02*
X-307921700Y-165002757D01*
X-308554376Y-150648151D02*
X-307921700Y-151280827D01*
X-556780600Y-114363600D02*
X-565073800Y-106070400D01*
X-555279800Y-114363600D02*
X-556780600Y-114363600D01*
X-541517774Y-105015583D02*
X-534797000Y-98294809D01*
X-542375951Y-105015583D02*
X-541517774Y-105015583D01*
%TO.N,Col13*%
X-307352696Y-67402934D02*
X-307352696Y-79806775D01*
X-307352696Y-79806775D02*
X-299634233Y-87525238D01*
X-305581370Y-65631608D02*
X-307352696Y-67402934D01*
X-305581370Y-65197743D02*
X-305581370Y-65631608D01*
X-296179833Y-95196581D02*
X-296179833Y-106346638D01*
X-300521720Y-90854694D02*
X-296179833Y-95196581D01*
X-300521720Y-89274543D02*
X-300521720Y-90854694D01*
X-292725433Y-114017981D02*
X-292725433Y-125142638D01*
X-297067320Y-109676094D02*
X-292725433Y-114017981D01*
X-297067320Y-108095943D02*
X-297067320Y-109676094D01*
X-292980244Y-140254103D02*
X-289266003Y-143968344D01*
X-292980244Y-127524619D02*
X-292980244Y-140254103D01*
X-293612920Y-126891943D02*
X-292980244Y-127524619D01*
X-276047200Y-160375600D02*
X-246619554Y-160375600D01*
X-288136813Y-148299033D02*
X-276072446Y-160363400D01*
X-288136813Y-146070967D02*
X-288136813Y-148299033D01*
X-288490131Y-145717649D02*
X-288136813Y-146070967D01*
X-290153490Y-145717649D02*
X-288490131Y-145717649D01*
X-543879800Y-119187200D02*
X-534974800Y-128092200D01*
X-543879800Y-119163600D02*
X-543879800Y-119187200D01*
X-451256400Y-167436800D02*
X-436422800Y-182270400D01*
X-451256400Y-133680200D02*
X-451256400Y-167436800D01*
X-373253000Y-190119000D02*
X-373253000Y-97942400D01*
%TO.N,Col14*%
X-248303851Y-147337761D02*
X-244867212Y-150774400D01*
X-248303851Y-147207987D02*
X-248303851Y-147337761D01*
X-252789238Y-142722600D02*
X-248303851Y-147207987D01*
X-260918200Y-142722600D02*
X-252789238Y-142722600D01*
X-236207800Y-150774400D02*
X-225158800Y-161823400D01*
X-244867212Y-150774400D02*
X-236207800Y-150774400D01*
X-260892800Y-139978000D02*
X-259608200Y-141262600D01*
X-260892800Y-123672600D02*
X-260892800Y-139978000D01*
X-265718800Y-116076600D02*
X-259582800Y-122212600D01*
X-265718800Y-104673400D02*
X-265718800Y-116076600D01*
X-275218400Y-92403800D02*
X-264408800Y-103213400D01*
X-275218400Y-85623400D02*
X-275218400Y-92403800D01*
X-276961600Y-61785500D02*
X-276961600Y-80110200D01*
X-536139801Y-133073999D02*
X-532130000Y-137083800D01*
X-536773401Y-133073999D02*
X-536139801Y-133073999D01*
X-547979800Y-121867600D02*
X-536773401Y-133073999D01*
X-547979800Y-120863600D02*
X-547979800Y-121867600D01*
X-441397617Y-144776417D02*
X-429641000Y-133019800D01*
X-429641000Y-101371400D02*
X-418109400Y-89839800D01*
X-429641000Y-133019800D02*
X-429641000Y-101371400D01*
X-335330800Y-81889600D02*
X-333883000Y-83337400D01*
X-333883000Y-86233000D02*
X-330377800Y-89738200D01*
X-333883000Y-83337400D02*
X-333883000Y-86233000D01*
X-276961600Y-83880200D02*
X-275218400Y-85623400D01*
X-276961600Y-80110200D02*
X-276961600Y-83880200D01*
%TO.N,Col15*%
X-258911600Y-80110200D02*
X-254858400Y-84163400D01*
X-258911600Y-61785500D02*
X-258911600Y-80110200D01*
X-256168400Y-92378400D02*
X-245333400Y-103213400D01*
X-256168400Y-85623400D02*
X-256168400Y-92378400D01*
X-240532800Y-113832962D02*
X-240532800Y-122212600D01*
X-246643400Y-107722362D02*
X-240532800Y-113832962D01*
X-246643400Y-104673400D02*
X-246643400Y-107722362D01*
X-240353701Y-129630699D02*
X-228645600Y-141338800D01*
X-240353701Y-126812699D02*
X-240353701Y-129630699D01*
X-241842800Y-125323600D02*
X-240353701Y-126812699D01*
X-241842800Y-123672600D02*
X-241842800Y-125323600D01*
X-201867962Y-161823400D02*
X-201359000Y-161823400D01*
X-206784963Y-166740401D02*
X-201867962Y-161823400D01*
X-209804211Y-166740401D02*
X-206784963Y-166740401D01*
X-210182251Y-166362361D02*
X-209804211Y-166740401D01*
X-229955600Y-145987638D02*
X-210182251Y-165760987D01*
X-210182251Y-165760987D02*
X-210182251Y-166362361D01*
X-229955600Y-142798800D02*
X-229955600Y-145987638D01*
X-536846400Y-133801000D02*
X-536575000Y-133801000D01*
X-548779800Y-121867600D02*
X-536846400Y-133801000D01*
X-548779800Y-120863600D02*
X-548779800Y-121867600D01*
X-447700400Y-128848000D02*
X-447700400Y-96189800D01*
X-452653400Y-133801000D02*
X-447700400Y-128848000D01*
X-273008600Y-111099600D02*
X-264702800Y-119405400D01*
X-273008600Y-102844600D02*
X-273008600Y-111099600D01*
X-242935000Y-122580400D02*
X-241842800Y-123672600D01*
X-242935000Y-118719600D02*
X-242935000Y-122580400D01*
%TO.N,Col16*%
X-235808400Y-79041938D02*
X-235808400Y-84163400D01*
X-219889961Y-63123499D02*
X-235808400Y-79041938D01*
X-219165099Y-63123499D02*
X-219889961Y-63123499D01*
X-218043000Y-62001400D02*
X-219165099Y-63123499D01*
X-218043000Y-61785500D02*
X-218043000Y-62001400D01*
X-237118400Y-92378400D02*
X-226283400Y-103213400D01*
X-237118400Y-85623400D02*
X-237118400Y-92378400D01*
X-212193734Y-122238000D02*
X-209601400Y-122238000D01*
X-227593400Y-106838334D02*
X-212193734Y-122238000D01*
X-227593400Y-104673400D02*
X-227593400Y-106838334D01*
X-210911400Y-128059600D02*
X-197683000Y-141288000D01*
X-210911400Y-123698000D02*
X-210911400Y-128059600D01*
X-549579800Y-124499092D02*
X-539550892Y-134528000D01*
X-549579800Y-120863600D02*
X-549579800Y-124499092D01*
X-410438600Y-116255800D02*
X-405053800Y-110871000D01*
X-410438600Y-147421600D02*
X-410438600Y-116255800D01*
%TO.N,Col17*%
X-199060999Y-75965599D02*
X-207233400Y-84138000D01*
X-199060999Y-63821999D02*
X-199060999Y-75965599D01*
X-198993000Y-63754000D02*
X-199060999Y-63821999D01*
X-198993000Y-61785500D02*
X-198993000Y-63754000D01*
X-208543400Y-97128200D02*
X-202458200Y-103213400D01*
X-208543400Y-85598000D02*
X-208543400Y-97128200D01*
X-550379800Y-125133200D02*
X-540258000Y-135255000D01*
X-550379800Y-120863600D02*
X-550379800Y-125133200D01*
%TO.N,GND*%
X-529691600Y-88991400D02*
X-517525000Y-88991400D01*
X-548124200Y-109319200D02*
X-547979800Y-109463600D01*
X-548124200Y-95998400D02*
X-548124200Y-109319200D01*
X-536874800Y-96174600D02*
X-529691600Y-88991400D01*
X-543026600Y-96174600D02*
X-536874800Y-96174600D01*
X-536041600Y-116697800D02*
X-536818800Y-116697800D01*
X-543806601Y-116036799D02*
X-543879800Y-115963600D01*
X-537479801Y-116036799D02*
X-543806601Y-116036799D01*
X-536818800Y-116697800D02*
X-537479801Y-116036799D01*
X-566750200Y-113311300D02*
X-566750200Y-93954600D01*
X-564819800Y-115241700D02*
X-566750200Y-113311300D01*
X-559425400Y-107018000D02*
X-559425400Y-97383600D01*
X-555279800Y-111163600D02*
X-559425400Y-107018000D01*
X-552779800Y-122672000D02*
X-559470000Y-129362200D01*
X-552779800Y-120863600D02*
X-552779800Y-122672000D01*
X-580313800Y-120167400D02*
X-580313800Y-93827600D01*
X-569874400Y-130606800D02*
X-580313800Y-120167400D01*
X-546379800Y-122439466D02*
X-546258333Y-122560933D01*
X-546379800Y-120863600D02*
X-546379800Y-122439466D01*
X-536270200Y-116926400D02*
X-536041600Y-116697800D01*
X-536270200Y-122971000D02*
X-536270200Y-116926400D01*
X-539962362Y-128930400D02*
X-539851600Y-128930400D01*
X-546258333Y-122634429D02*
X-539962362Y-128930400D01*
X-546258333Y-122560933D02*
X-546258333Y-122634429D01*
X-550324200Y-75136582D02*
X-550324200Y-94298400D01*
X-546887200Y-63021600D02*
X-546912600Y-71724982D01*
X-546912600Y-62419400D02*
X-546887200Y-63021600D01*
X-553342190Y-59452810D02*
X-553342190Y-69770610D01*
X-553591800Y-59203200D02*
X-553342190Y-59452810D01*
X-549150209Y-73962591D02*
X-550324200Y-75136582D01*
X-553342190Y-69770610D02*
X-549150209Y-73962591D01*
X-546912600Y-71724982D02*
X-549150209Y-73962591D01*
%TO.N,Net-(C1-Pad1)*%
X-549579800Y-102727800D02*
X-549579800Y-109463600D01*
X-556260000Y-96047600D02*
X-549579800Y-102727800D01*
X-550324200Y-95998400D02*
X-550324200Y-96690000D01*
X-549579800Y-97434400D02*
X-549579800Y-102727800D01*
X-550324200Y-96690000D02*
X-549579800Y-97434400D01*
%TO.N,Net-(C2-Pad1)*%
X-549078200Y-94298400D02*
X-548124200Y-94298400D01*
X-549151201Y-94371401D02*
X-549078200Y-94298400D01*
X-549151201Y-96860001D02*
X-549151201Y-94371401D01*
X-548779800Y-97231402D02*
X-549151201Y-96860001D01*
X-548779800Y-109463600D02*
X-548779800Y-97231402D01*
%TO.N,+5V*%
X-565505600Y-63573200D02*
X-565534000Y-63601600D01*
X-565505600Y-58697500D02*
X-565505600Y-63573200D01*
X-556283800Y-111963600D02*
X-555279800Y-111963600D01*
X-565534000Y-102713400D02*
X-556283800Y-111963600D01*
X-565534000Y-63601600D02*
X-565534000Y-102713400D01*
X-525602200Y-90891400D02*
X-525551400Y-90840600D01*
X-529691600Y-90891400D02*
X-525602200Y-90891400D01*
X-521563600Y-90840600D02*
X-521538200Y-90815200D01*
X-525551400Y-90840600D02*
X-521563600Y-90840600D01*
X-517601200Y-90815200D02*
X-517525000Y-90891400D01*
X-521538200Y-90815200D02*
X-517601200Y-90815200D01*
X-536641000Y-97840800D02*
X-536727400Y-97840800D01*
X-529691600Y-90891400D02*
X-536641000Y-97840800D01*
X-547090600Y-109374400D02*
X-547179800Y-109463600D01*
X-547090600Y-102057200D02*
X-547090600Y-109374400D01*
X-553579800Y-122313200D02*
X-559028600Y-127762000D01*
X-553579800Y-120863600D02*
X-553579800Y-122313200D01*
X-581782501Y-79850101D02*
X-565534000Y-63601600D01*
X-581782501Y-120679899D02*
X-581782501Y-79850101D01*
X-572693800Y-129768600D02*
X-581782501Y-120679899D01*
X-545579800Y-122237000D02*
X-542290000Y-125526800D01*
X-545579800Y-120863600D02*
X-545579800Y-122237000D01*
X-517525000Y-117398800D02*
X-517525000Y-90891400D01*
X-525703800Y-125577600D02*
X-517525000Y-117398800D01*
X-543179400Y-118363600D02*
X-540308800Y-121234200D01*
X-543879800Y-118363600D02*
X-543179400Y-118363600D01*
X-525830800Y-91120000D02*
X-525551400Y-90840600D01*
X-525830800Y-121285000D02*
X-525830800Y-91120000D01*
X-541982000Y-114363600D02*
X-541909000Y-114436600D01*
X-543879800Y-114363600D02*
X-541982000Y-114363600D01*
X-521512800Y-90840600D02*
X-521538200Y-90815200D01*
X-521512800Y-118973600D02*
X-521512800Y-90840600D01*
%TO.N,Net-(C5-Pad1)*%
X-536041600Y-114797800D02*
X-537174400Y-114797800D01*
X-537540200Y-115163600D02*
X-543879800Y-115163600D01*
X-537174400Y-114797800D02*
X-537540200Y-115163600D01*
%TO.N,VCC*%
X-562734000Y-67287600D02*
X-558444400Y-71577200D01*
X-562734000Y-63601600D02*
X-562734000Y-67287600D01*
X-543712600Y-70409000D02*
X-543712600Y-61040400D01*
X-543712400Y-71551800D02*
X-543712600Y-70409000D01*
%TO.N,D-*%
X-544512600Y-73172100D02*
X-543466900Y-74217800D01*
X-544512600Y-61040400D02*
X-544512600Y-73172100D01*
%TO.N,Net-(R1-Pad1)*%
X-544078610Y-100420990D02*
X-543814000Y-100685600D01*
X-544078610Y-76654510D02*
X-544078610Y-100420990D01*
X-541641900Y-74217800D02*
X-544078610Y-76654510D01*
X-543866800Y-117576600D02*
X-543879800Y-117563600D01*
X-537972000Y-117576600D02*
X-543866800Y-117576600D01*
%TO.N,D+*%
X-547876900Y-73497338D02*
X-547876900Y-74217800D01*
X-545312600Y-70933038D02*
X-547876900Y-73497338D01*
X-545312600Y-61040400D02*
X-545312600Y-70933038D01*
%TO.N,Net-(R2-Pad1)*%
X-545525399Y-100837999D02*
X-545525400Y-100838000D01*
X-545525399Y-74744301D02*
X-545525399Y-100837999D01*
X-546051900Y-74217800D02*
X-545525399Y-74744301D01*
X-543879600Y-116763800D02*
X-543879800Y-116763600D01*
X-538759400Y-116763800D02*
X-543879600Y-116763800D01*
%TO.N,Net-(R3-Pad2)*%
X-564136300Y-55503200D02*
X-565505600Y-56872500D01*
X-559791800Y-55503200D02*
X-564136300Y-55503200D01*
X-557504600Y-71441038D02*
X-557504600Y-90271600D01*
X-561018801Y-67926837D02*
X-557504600Y-71441038D01*
X-561018801Y-56730201D02*
X-561018801Y-67926837D01*
X-559791800Y-55503200D02*
X-561018801Y-56730201D01*
X-546252400Y-109336200D02*
X-546379800Y-109463600D01*
X-546252400Y-90881200D02*
X-546252400Y-109336200D01*
%TO.N,Net-(R4-Pad2)*%
X-564819800Y-117066700D02*
X-562662700Y-117066700D01*
X-560565800Y-119163600D02*
X-555279800Y-119163600D01*
X-562662700Y-117066700D02*
X-560565800Y-119163600D01*
%TO.N,Net-(USB1-Pad6)*%
X-548937200Y-58521600D02*
X-548937200Y-63021600D01*
X-541637200Y-58521600D02*
X-541637200Y-63021600D01*
X-548937200Y-65666600D02*
X-547674800Y-66929000D01*
X-548937200Y-63021600D02*
X-548937200Y-65666600D01*
X-541637200Y-65666600D02*
X-541637200Y-63021600D01*
X-542925000Y-66954400D02*
X-541637200Y-65666600D01*
%TD*%
M02*
