M48
; DRILL file {KiCad (5.1.10)-1} date 06/30/21 08:48:35
; FORMAT={-:-/ absolute / metric / decimal}
; #@! TF.CreationDate,2021-06-30T08:48:35-07:00
; #@! TF.GenerationSoftware,Kicad,Pcbnew,(5.1.10)-1
FMAT,2
METRIC
T1C0.400
T2C1.040
T3C1.092
T4C1.470
T5C1.702
T6C1.750
T7C3.048
T8C3.988
%
G90
G05
T1
X-599.389Y-169.393
X-589.788Y-156.463
X-578.688Y-153.137
X-577.901Y-77.216
X-565.976Y-165.988
X-551.69Y-110.822
X-551.424Y-112.116
X-546.862Y-146.938
X-537.922Y-115.367
X-535.991Y-98.12
X-535.295Y-114.958
X-527.812Y-165.988
X-526.637Y-155.943
X-523.494Y-77.765
X-521.535Y-132.783
X-513.524Y-65.975
X-510.184Y-79.086
X-507.187Y-73.454
X-495.452Y-93.634
X-494.474Y-108.838
X-419.743Y-76.685
T2
X-218.377Y-115.456
X-218.377Y-117.996
T3
X-555.777Y-58.598
X-555.777Y-61.138
X-555.777Y-63.678
X-555.777Y-66.218
X-555.777Y-68.758
X-555.777Y-71.298
X-555.777Y-73.838
X-555.777Y-76.378
X-555.777Y-78.918
X-555.777Y-81.458
X-555.777Y-83.998
X-555.777Y-86.538
X-553.237Y-86.538
X-550.697Y-86.538
X-548.157Y-86.538
X-545.617Y-86.538
X-543.077Y-86.538
X-540.766Y-86.538
X-540.537Y-58.598
X-540.537Y-61.138
X-540.537Y-63.678
X-540.537Y-66.218
X-540.537Y-68.758
X-540.537Y-71.298
X-540.537Y-73.838
X-540.537Y-76.378
X-540.537Y-78.918
X-540.537Y-81.458
X-540.537Y-83.998
T4
X-660.235Y-85.611
X-660.235Y-104.661
X-660.235Y-123.711
X-660.235Y-142.761
X-660.235Y-161.811
X-658.925Y-84.151
X-658.925Y-103.201
X-658.925Y-122.251
X-658.925Y-141.301
X-658.925Y-160.351
X-653.925Y-83.651
X-653.925Y-102.701
X-653.925Y-121.751
X-653.925Y-140.801
X-653.925Y-159.851
X-653.885Y-83.071
X-653.885Y-102.121
X-653.885Y-121.171
X-653.885Y-140.221
X-653.885Y-159.271
X-650.71Y-161.811
X-649.4Y-160.351
X-644.4Y-159.851
X-644.36Y-159.271
X-641.185Y-85.611
X-641.185Y-104.661
X-641.185Y-123.711
X-641.185Y-142.761
X-641.185Y-161.811
X-639.875Y-84.151
X-639.875Y-103.201
X-639.875Y-122.251
X-639.875Y-141.301
X-639.875Y-160.351
X-634.875Y-83.651
X-634.875Y-102.701
X-634.875Y-121.751
X-634.875Y-140.801
X-634.875Y-159.851
X-634.835Y-83.071
X-634.835Y-102.121
X-634.835Y-121.171
X-634.835Y-140.221
X-634.835Y-159.271
X-622.135Y-85.611
X-622.135Y-104.661
X-622.135Y-123.711
X-622.135Y-142.761
X-622.135Y-161.811
X-620.825Y-84.151
X-620.825Y-103.201
X-620.825Y-122.251
X-620.825Y-141.301
X-620.825Y-160.351
X-615.825Y-83.651
X-615.825Y-102.701
X-615.825Y-121.751
X-615.825Y-140.801
X-615.825Y-159.851
X-615.785Y-83.071
X-615.785Y-102.121
X-615.785Y-121.171
X-615.785Y-140.221
X-615.785Y-159.271
X-604.355Y-114.186
X-604.355Y-152.286
X-603.775Y-114.226
X-603.775Y-152.326
X-603.275Y-119.226
X-603.275Y-157.326
X-603.085Y-85.611
X-601.815Y-120.536
X-601.815Y-158.636
X-601.775Y-84.151
X-596.775Y-83.651
X-596.735Y-83.071
X-579.272Y-85.611
X-579.272Y-161.811
X-577.962Y-84.151
X-577.962Y-160.351
X-572.962Y-83.651
X-572.962Y-159.851
X-572.922Y-83.071
X-572.922Y-159.271
X-560.222Y-142.761
X-560.222Y-161.811
X-558.912Y-141.301
X-558.912Y-160.351
X-553.912Y-140.801
X-553.912Y-159.851
X-553.872Y-140.221
X-553.872Y-159.271
X-541.172Y-161.811
X-539.862Y-160.351
X-534.862Y-159.851
X-534.822Y-159.271
X-529.266Y-142.761
X-527.956Y-141.301
X-526.796Y-61.785
X-525.486Y-60.325
X-524.504Y-123.711
X-523.194Y-122.251
X-522.956Y-140.801
X-522.916Y-140.221
X-520.486Y-59.825
X-520.446Y-59.245
X-519.741Y-161.811
X-518.471Y-131.331
X-518.431Y-130.751
X-518.431Y-160.351
X-518.194Y-121.751
X-518.154Y-121.171
X-513.431Y-130.251
X-513.431Y-159.851
X-513.391Y-159.271
X-512.597Y-104.661
X-512.121Y-128.791
X-511.287Y-103.201
X-506.287Y-102.701
X-506.247Y-102.121
X-503.072Y-85.611
X-501.762Y-84.151
X-498.31Y-142.761
X-498.221Y-61.785
X-497.0Y-141.301
X-496.911Y-60.325
X-496.762Y-83.651
X-496.722Y-83.071
X-495.929Y-161.811
X-494.619Y-160.351
X-493.547Y-123.711
X-492.237Y-122.251
X-492.0Y-140.801
X-491.96Y-140.221
X-491.911Y-59.825
X-491.871Y-59.245
X-489.619Y-159.851
X-489.579Y-159.271
X-488.785Y-104.661
X-487.475Y-103.201
X-487.237Y-121.751
X-487.197Y-121.171
X-484.022Y-85.611
X-482.712Y-84.151
X-482.475Y-102.701
X-482.435Y-102.121
X-479.171Y-61.785
X-477.861Y-60.325
X-477.712Y-83.651
X-477.672Y-83.071
X-472.98Y-142.046
X-472.861Y-59.825
X-472.821Y-59.245
X-471.337Y-140.975
X-468.049Y-123.645
X-466.406Y-122.574
X-466.378Y-141.786
X-466.189Y-141.236
X-463.119Y-105.244
X-461.81Y-164.761
X-461.476Y-104.173
X-461.447Y-123.385
X-461.258Y-122.835
X-460.166Y-163.69
X-458.188Y-86.843
X-456.545Y-85.772
X-456.517Y-104.984
X-456.328Y-104.434
X-455.207Y-164.501
X-455.019Y-163.951
X-453.346Y-142.376
X-452.025Y-63.842
X-451.703Y-141.305
X-451.586Y-86.583
X-451.397Y-86.033
X-450.382Y-62.771
X-448.416Y-123.975
X-446.773Y-122.904
X-446.744Y-142.116
X-446.555Y-141.566
X-445.423Y-63.582
X-445.234Y-63.032
X-443.485Y-105.575
X-441.842Y-104.503
X-441.814Y-123.715
X-441.625Y-123.165
X-438.555Y-87.174
X-436.912Y-86.102
X-436.883Y-105.314
X-436.694Y-104.765
X-436.178Y-151.907
X-434.535Y-150.836
X-433.141Y-177.373
X-432.392Y-64.173
X-431.953Y-86.914
X-431.764Y-86.364
X-431.498Y-176.302
X-431.248Y-133.506
X-430.748Y-63.101
X-429.604Y-132.435
X-429.576Y-151.647
X-429.387Y-151.097
X-426.539Y-177.113
X-426.35Y-176.563
X-426.317Y-115.105
X-425.789Y-63.912
X-425.601Y-63.363
X-424.674Y-114.034
X-424.645Y-133.246
X-424.457Y-132.696
X-421.387Y-96.704
X-419.743Y-95.633
X-419.715Y-114.845
X-419.526Y-114.295
X-419.01Y-161.438
X-417.367Y-160.367
X-415.223Y-73.703
X-414.784Y-96.444
X-414.596Y-95.894
X-414.079Y-143.037
X-413.58Y-72.632
X-412.436Y-141.966
X-412.408Y-161.178
X-412.219Y-160.628
X-409.149Y-124.636
X-408.621Y-73.443
X-408.432Y-72.893
X-407.506Y-123.565
X-407.477Y-142.777
X-407.288Y-142.227
X-405.539Y-184.769
X-404.218Y-106.235
X-403.896Y-183.698
X-402.575Y-105.164
X-402.547Y-124.376
X-402.358Y-123.826
X-400.609Y-166.368
X-398.966Y-165.297
X-398.937Y-184.509
X-398.748Y-183.959
X-398.055Y-83.234
X-397.616Y-105.975
X-397.427Y-105.425
X-396.412Y-82.163
X-394.007Y-166.108
X-393.818Y-165.558
X-391.453Y-82.974
X-391.264Y-82.424
X-375.902Y-85.206
X-375.015Y-83.457
X-373.349Y-168.34
X-372.461Y-166.591
X-370.426Y-81.109
X-370.315Y-81.68
X-369.739Y-108.207
X-368.852Y-106.458
X-367.873Y-164.244
X-367.761Y-164.814
X-364.809Y-126.608
X-364.263Y-104.11
X-364.152Y-104.681
X-363.921Y-124.859
X-359.878Y-145.009
X-359.333Y-122.511
X-359.221Y-123.082
X-358.991Y-143.26
X-358.734Y-75.675
X-357.847Y-73.926
X-354.948Y-163.41
X-354.402Y-140.912
X-354.291Y-141.483
X-354.06Y-161.661
X-353.258Y-71.579
X-353.147Y-72.149
X-352.571Y-98.677
X-352.317Y-182.427
X-351.684Y-96.927
X-351.43Y-180.678
X-349.472Y-159.313
X-349.36Y-159.884
X-347.641Y-117.077
X-347.095Y-94.58
X-346.983Y-95.15
X-346.841Y-178.33
X-346.753Y-115.328
X-346.73Y-178.901
X-342.71Y-135.478
X-342.164Y-112.981
X-342.053Y-113.551
X-341.823Y-133.729
X-341.566Y-66.145
X-340.678Y-64.395
X-337.78Y-153.879
X-337.234Y-131.381
X-337.122Y-131.952
X-336.892Y-152.13
X-336.09Y-62.048
X-335.978Y-62.618
X-335.403Y-89.146
X-334.515Y-87.397
X-332.303Y-149.782
X-332.192Y-150.353
X-330.472Y-107.547
X-329.927Y-85.049
X-329.815Y-85.619
X-329.585Y-105.797
X-325.542Y-125.948
X-324.996Y-103.45
X-324.885Y-104.02
X-324.654Y-124.198
X-321.932Y-65.814
X-321.045Y-64.065
X-320.611Y-144.349
X-320.066Y-121.851
X-319.954Y-122.421
X-319.724Y-142.599
X-316.748Y-167.966
X-316.456Y-61.718
X-316.345Y-62.288
X-315.861Y-166.217
X-315.769Y-88.816
X-315.135Y-140.252
X-315.024Y-140.822
X-314.882Y-87.066
X-311.272Y-163.869
X-311.161Y-164.44
X-310.839Y-107.216
X-310.293Y-84.719
X-310.182Y-85.289
X-309.951Y-105.467
X-305.908Y-125.617
X-305.363Y-103.12
X-305.251Y-103.69
X-305.021Y-123.868
X-300.978Y-144.018
X-300.432Y-121.52
X-300.321Y-122.091
X-300.09Y-142.269
X-295.502Y-139.921
X-295.39Y-140.492
X-290.925Y-61.798
X-290.925Y-85.611
X-289.615Y-60.338
X-289.615Y-84.151
X-284.615Y-59.838
X-284.615Y-83.651
X-284.575Y-59.258
X-284.575Y-83.071
X-281.4Y-104.661
X-280.09Y-103.201
X-276.638Y-123.711
X-276.638Y-142.761
X-275.328Y-122.251
X-275.328Y-141.301
X-275.09Y-102.701
X-275.05Y-102.121
X-271.875Y-61.798
X-271.875Y-85.611
X-270.565Y-60.338
X-270.565Y-84.151
X-270.328Y-121.751
X-270.328Y-140.801
X-270.288Y-121.171
X-270.288Y-140.221
X-265.565Y-59.838
X-265.565Y-83.651
X-265.525Y-59.258
X-265.525Y-83.071
X-264.732Y-161.811
X-263.422Y-160.351
X-262.35Y-104.661
X-261.04Y-103.201
X-258.422Y-159.851
X-258.382Y-159.271
X-257.588Y-123.711
X-256.278Y-122.251
X-256.04Y-102.701
X-256.0Y-102.121
X-252.825Y-85.611
X-251.515Y-84.151
X-251.278Y-121.751
X-251.238Y-121.171
X-246.515Y-83.651
X-246.475Y-83.071
X-245.682Y-142.761
X-244.372Y-141.301
X-243.3Y-104.661
X-241.99Y-103.201
X-240.919Y-161.811
X-239.609Y-160.351
X-239.372Y-140.801
X-239.332Y-140.221
X-236.99Y-102.701
X-236.95Y-102.121
X-234.609Y-159.851
X-234.569Y-159.271
X-233.775Y-61.798
X-232.465Y-60.338
X-227.465Y-59.838
X-227.425Y-59.258
X-226.632Y-123.711
X-225.322Y-122.251
X-224.25Y-85.611
X-222.94Y-84.151
X-220.322Y-121.751
X-220.282Y-121.171
X-219.488Y-104.661
X-218.178Y-103.201
X-217.94Y-83.651
X-217.9Y-83.071
X-217.107Y-161.811
X-215.797Y-121.226
X-215.797Y-160.351
X-214.725Y-61.798
X-214.725Y-142.761
X-213.415Y-60.338
X-213.415Y-141.301
X-213.178Y-102.701
X-213.138Y-102.121
X-210.797Y-120.726
X-210.797Y-159.851
X-210.757Y-112.916
X-210.757Y-159.271
X-209.297Y-114.226
X-208.797Y-119.226
X-208.415Y-59.838
X-208.415Y-140.801
X-208.375Y-59.258
X-208.375Y-140.221
X-208.217Y-119.266
T5
X-213.297Y-111.646
X-213.297Y-121.806
T6
X-661.505Y-88.151
X-661.505Y-107.201
X-661.505Y-126.251
X-661.505Y-145.301
X-661.505Y-164.351
X-651.98Y-164.351
X-651.345Y-88.151
X-651.345Y-107.201
X-651.345Y-126.251
X-651.345Y-145.301
X-651.345Y-164.351
X-642.455Y-88.151
X-642.455Y-107.201
X-642.455Y-126.251
X-642.455Y-145.301
X-642.455Y-164.351
X-641.82Y-164.351
X-632.295Y-88.151
X-632.295Y-107.201
X-632.295Y-126.251
X-632.295Y-145.301
X-632.295Y-164.351
X-623.405Y-88.151
X-623.405Y-107.201
X-623.405Y-126.251
X-623.405Y-145.301
X-623.405Y-164.351
X-613.245Y-88.151
X-613.245Y-107.201
X-613.245Y-126.251
X-613.245Y-145.301
X-613.245Y-164.351
X-604.355Y-88.151
X-599.275Y-111.646
X-599.275Y-121.806
X-599.275Y-149.746
X-599.275Y-159.906
X-594.195Y-88.151
X-580.542Y-88.151
X-580.542Y-164.351
X-570.382Y-88.151
X-570.382Y-164.351
X-561.492Y-145.301
X-561.492Y-164.351
X-551.332Y-145.301
X-551.332Y-164.351
X-542.442Y-164.351
X-532.282Y-164.351
X-530.536Y-145.301
X-528.066Y-64.325
X-525.774Y-126.251
X-521.011Y-126.251
X-521.011Y-164.351
X-520.376Y-145.301
X-517.906Y-64.325
X-515.614Y-126.251
X-513.867Y-107.201
X-510.851Y-126.251
X-510.851Y-164.351
X-504.342Y-88.151
X-503.707Y-107.201
X-499.58Y-145.301
X-499.491Y-64.325
X-497.199Y-164.351
X-494.817Y-126.251
X-494.182Y-88.151
X-490.055Y-107.201
X-489.42Y-145.301
X-489.331Y-64.325
X-487.039Y-164.351
X-485.292Y-88.151
X-484.657Y-126.251
X-480.441Y-64.325
X-479.895Y-107.201
X-475.132Y-88.151
X-474.864Y-144.171
X-470.281Y-64.325
X-469.933Y-125.77
X-465.05Y-146.8
X-465.003Y-107.369
X-463.694Y-166.886
X-460.12Y-128.4
X-460.072Y-88.968
X-455.23Y-144.501
X-455.189Y-109.999
X-453.909Y-65.967
X-453.88Y-169.515
X-450.3Y-126.1
X-450.259Y-91.598
X-445.417Y-147.131
X-445.369Y-107.699
X-444.096Y-68.597
X-440.486Y-128.73
X-440.439Y-89.298
X-438.062Y-154.032
X-435.556Y-110.329
X-435.025Y-179.498
X-434.276Y-66.297
X-433.132Y-135.631
X-430.625Y-91.928
X-428.248Y-156.661
X-428.201Y-117.23
X-425.211Y-182.128
X-424.462Y-68.927
X-423.318Y-138.261
X-423.271Y-98.829
X-420.894Y-163.563
X-418.387Y-119.86
X-417.108Y-75.828
X-415.963Y-145.162
X-413.457Y-101.459
X-411.08Y-166.192
X-411.033Y-126.761
X-407.424Y-186.894
X-407.294Y-78.458
X-406.15Y-147.791
X-406.102Y-108.36
X-402.493Y-168.493
X-401.219Y-129.39
X-399.939Y-85.359
X-397.61Y-189.524
X-396.289Y-110.989
X-392.679Y-171.123
X-390.126Y-87.988
X-376.472Y-87.988
X-373.918Y-171.123
X-370.309Y-110.989
X-366.658Y-85.359
X-365.378Y-129.39
X-364.104Y-168.493
X-360.495Y-108.36
X-360.448Y-147.791
X-359.304Y-78.458
X-355.564Y-126.761
X-355.517Y-166.192
X-353.14Y-101.459
X-352.887Y-185.209
X-350.634Y-145.162
X-349.49Y-75.828
X-348.21Y-119.86
X-345.703Y-163.563
X-343.327Y-98.829
X-343.279Y-138.261
X-343.073Y-182.58
X-342.135Y-68.927
X-338.396Y-117.23
X-338.349Y-156.661
X-335.972Y-91.928
X-333.466Y-135.631
X-332.321Y-66.297
X-331.042Y-110.329
X-328.535Y-154.032
X-326.158Y-89.298
X-326.111Y-128.73
X-322.502Y-68.597
X-321.228Y-107.699
X-321.181Y-147.131
X-317.318Y-170.748
X-316.339Y-91.598
X-316.297Y-126.1
X-312.688Y-65.967
X-311.408Y-109.999
X-311.367Y-144.501
X-307.504Y-168.118
X-306.525Y-88.968
X-306.478Y-128.4
X-301.594Y-107.369
X-301.547Y-146.8
X-296.664Y-125.77
X-292.195Y-64.338
X-292.195Y-88.151
X-291.733Y-144.171
X-282.67Y-107.201
X-282.035Y-64.338
X-282.035Y-88.151
X-277.908Y-126.251
X-277.908Y-145.301
X-273.145Y-64.338
X-273.145Y-88.151
X-272.51Y-107.201
X-267.748Y-126.251
X-267.748Y-145.301
X-266.002Y-164.351
X-263.62Y-107.201
X-262.985Y-64.338
X-262.985Y-88.151
X-258.858Y-126.251
X-255.842Y-164.351
X-254.095Y-88.151
X-253.46Y-107.201
X-248.698Y-126.251
X-246.952Y-145.301
X-244.57Y-107.201
X-243.935Y-88.151
X-242.189Y-164.351
X-236.792Y-145.301
X-235.045Y-64.338
X-234.41Y-107.201
X-232.029Y-164.351
X-227.902Y-126.251
X-225.52Y-88.151
X-224.885Y-64.338
X-220.758Y-107.201
X-218.377Y-164.351
X-217.742Y-126.251
X-215.995Y-64.338
X-215.995Y-145.301
X-215.36Y-88.151
X-210.598Y-107.201
X-208.217Y-164.351
X-205.835Y-64.338
X-205.835Y-145.301
T7
X-658.838Y-171.336
X-634.962Y-171.336
X-606.26Y-104.788
X-606.26Y-128.664
X-606.26Y-142.888
X-606.26Y-166.764
X-537.394Y-138.316
X-513.518Y-138.316
X-443.457Y-184.47
X-420.395Y-190.65
X-357.703Y-193.731
X-334.641Y-187.552
X-253.81Y-138.316
X-234.76Y-119.266
X-232.378Y-81.166
X-229.934Y-138.316
X-220.282Y-104.788
X-220.282Y-128.664
X-210.884Y-119.266
X-208.502Y-81.166
T8
X-658.838Y-156.096
X-656.425Y-88.151
X-656.425Y-107.201
X-656.425Y-126.251
X-656.425Y-145.301
X-656.425Y-164.351
X-646.9Y-164.351
X-637.375Y-88.151
X-637.375Y-107.201
X-637.375Y-126.251
X-637.375Y-145.301
X-637.375Y-164.351
X-634.962Y-156.096
X-618.325Y-88.151
X-618.325Y-107.201
X-618.325Y-126.251
X-618.325Y-145.301
X-618.325Y-164.351
X-599.275Y-88.151
X-599.275Y-116.726
X-599.275Y-154.826
X-591.02Y-104.788
X-591.02Y-128.664
X-591.02Y-142.888
X-591.02Y-166.764
X-575.462Y-88.151
X-575.462Y-164.351
X-556.412Y-145.301
X-556.412Y-164.351
X-537.394Y-153.556
X-537.362Y-164.351
X-525.456Y-145.301
X-522.986Y-64.325
X-520.694Y-126.251
X-515.931Y-126.251
X-515.931Y-164.351
X-513.518Y-153.556
X-508.787Y-107.201
X-499.262Y-88.151
X-494.5Y-145.301
X-494.411Y-64.325
X-492.119Y-164.351
X-489.737Y-126.251
X-484.975Y-107.201
X-480.212Y-88.151
X-475.361Y-64.325
X-469.957Y-145.486
X-465.027Y-127.085
X-460.096Y-108.684
X-458.787Y-168.201
X-455.166Y-90.283
X-450.324Y-145.816
X-449.002Y-67.282
X-445.393Y-127.415
X-440.463Y-109.014
X-439.513Y-169.749
X-435.532Y-90.613
X-433.155Y-155.347
X-430.118Y-180.813
X-429.369Y-67.612
X-428.225Y-136.946
X-423.294Y-118.545
X-418.364Y-100.144
X-416.45Y-175.929
X-415.987Y-164.877
X-412.201Y-77.143
X-411.057Y-146.476
X-406.126Y-128.076
X-402.517Y-188.209
X-401.196Y-109.675
X-397.586Y-169.808
X-395.032Y-86.674
X-371.565Y-86.674
X-369.011Y-169.808
X-365.402Y-109.675
X-361.648Y-179.011
X-360.471Y-128.076
X-355.541Y-146.476
X-354.397Y-77.143
X-350.61Y-164.877
X-348.234Y-100.144
X-347.98Y-183.895
X-343.303Y-118.545
X-338.585Y-172.831
X-338.373Y-136.946
X-337.228Y-67.612
X-333.442Y-155.347
X-331.065Y-90.613
X-326.135Y-109.014
X-321.204Y-127.415
X-317.595Y-67.282
X-316.274Y-145.816
X-312.411Y-169.433
X-311.432Y-90.283
X-306.501Y-108.684
X-301.571Y-127.085
X-296.64Y-145.486
X-287.115Y-64.338
X-287.115Y-88.151
X-277.59Y-107.201
X-272.828Y-126.251
X-272.828Y-145.301
X-268.065Y-64.338
X-268.065Y-88.151
X-260.922Y-164.351
X-258.54Y-107.201
X-253.81Y-153.556
X-253.778Y-126.251
X-249.015Y-88.151
X-241.872Y-145.301
X-239.49Y-107.201
X-237.109Y-164.351
X-234.76Y-134.506
X-232.378Y-96.406
X-229.965Y-64.338
X-229.934Y-153.556
X-222.822Y-126.251
X-220.44Y-88.151
X-215.678Y-107.201
X-213.297Y-116.726
X-213.297Y-164.351
X-210.915Y-64.338
X-210.915Y-145.301
X-210.884Y-134.506
X-208.502Y-96.406
X-205.042Y-104.788
X-205.042Y-128.664
T0
M30
