%TF.GenerationSoftware,KiCad,Pcbnew,(5.1.10)-1*%
%TF.CreationDate,2021-06-30T08:48:38-07:00*%
%TF.ProjectId,HSC_Alice,4853435f-416c-4696-9365-2e6b69636164,rev?*%
%TF.SameCoordinates,Original*%
%TF.FileFunction,Copper,L1,Top*%
%TF.FilePolarity,Positive*%
%FSLAX46Y46*%
G04 Gerber Fmt 4.6, Leading zero omitted, Abs format (unit mm)*
G04 Created by KiCad (PCBNEW (5.1.10)-1) date 2021-06-30 08:48:38*
%MOMM*%
%LPD*%
G01*
G04 APERTURE LIST*
%TA.AperFunction,ComponentPad*%
%ADD10C,2.250000*%
%TD*%
%TA.AperFunction,ComponentPad*%
%ADD11R,1.905000X1.905000*%
%TD*%
%TA.AperFunction,ComponentPad*%
%ADD12C,1.905000*%
%TD*%
%TA.AperFunction,ComponentPad*%
%ADD13C,1.752600*%
%TD*%
%TA.AperFunction,ComponentPad*%
%ADD14R,1.752600X1.752600*%
%TD*%
%TA.AperFunction,ViaPad*%
%ADD15C,0.800000*%
%TD*%
%TA.AperFunction,Conductor*%
%ADD16C,0.254000*%
%TD*%
G04 APERTURE END LIST*
D10*
%TO.P,MX15,1*%
%TO.N,Col2*%
X-620824900Y-122250700D03*
%TA.AperFunction,ComponentPad*%
G36*
G01*
X-622886212Y-124548050D02*
X-622886217Y-124548045D01*
G75*
G02*
X-622972245Y-122959383I751317J837345D01*
G01*
X-621662243Y-121499383D01*
G75*
G02*
X-620073581Y-121413355I837345J-751317D01*
G01*
X-620073581Y-121413355D01*
G75*
G02*
X-619987553Y-123002017I-751317J-837345D01*
G01*
X-621297555Y-124462017D01*
G75*
G02*
X-622886217Y-124548045I-837345J751317D01*
G01*
G37*
%TD.AperFunction*%
%TO.P,MX15,2*%
%TO.N,Net-(D15-Pad2)*%
X-615784900Y-121170700D03*
%TA.AperFunction,ComponentPad*%
G36*
G01*
X-615901417Y-122873095D02*
X-615902303Y-122873034D01*
G75*
G02*
X-616947234Y-121673297I77403J1122334D01*
G01*
X-616907234Y-121093297D01*
G75*
G02*
X-615707497Y-120048366I1122334J-77403D01*
G01*
X-615707497Y-120048366D01*
G75*
G02*
X-614662566Y-121248103I-77403J-1122334D01*
G01*
X-614702566Y-121828103D01*
G75*
G02*
X-615902303Y-122873034I-1122334J77403D01*
G01*
G37*
%TD.AperFunction*%
%TD*%
%TO.P,MX48,1*%
%TO.N,Col7*%
X-431497543Y-176302199D03*
%TA.AperFunction,ComponentPad*%
G36*
G01*
X-434083216Y-177987763D02*
X-434083220Y-177987756D01*
G75*
G02*
X-433755140Y-176430960I942438J614358D01*
G01*
X-432111900Y-175359762D01*
G75*
G02*
X-430555104Y-175687842I614358J-942438D01*
G01*
X-430555104Y-175687842D01*
G75*
G02*
X-430883184Y-177244638I-942438J-614358D01*
G01*
X-432526424Y-178315836D01*
G75*
G02*
X-434083220Y-177987756I-614358J942438D01*
G01*
G37*
%TD.AperFunction*%
%TO.P,MX48,2*%
%TO.N,Net-(D48-Pad2)*%
X-426349753Y-176563447D03*
%TA.AperFunction,ComponentPad*%
G36*
G01*
X-426902912Y-178177677D02*
X-426903752Y-178177389D01*
G75*
G02*
X-427602563Y-176748084I365247J1064058D01*
G01*
X-427413811Y-176198200D01*
G75*
G02*
X-425984506Y-175499389I1064058J-365247D01*
G01*
X-425984506Y-175499389D01*
G75*
G02*
X-425285695Y-176928694I-365247J-1064058D01*
G01*
X-425474447Y-177478578D01*
G75*
G02*
X-426903752Y-178177389I-1064058J365247D01*
G01*
G37*
%TD.AperFunction*%
%TD*%
%TO.P,MX13,2*%
%TO.N,Net-(D13-Pad2)*%
%TA.AperFunction,ComponentPad*%
G36*
G01*
X-596851417Y-84773095D02*
X-596852303Y-84773034D01*
G75*
G02*
X-597897234Y-83573297I77403J1122334D01*
G01*
X-597857234Y-82993297D01*
G75*
G02*
X-596657497Y-81948366I1122334J-77403D01*
G01*
X-596657497Y-81948366D01*
G75*
G02*
X-595612566Y-83148103I-77403J-1122334D01*
G01*
X-595652566Y-83728103D01*
G75*
G02*
X-596852303Y-84773034I-1122334J77403D01*
G01*
G37*
%TD.AperFunction*%
X-596734900Y-83070700D03*
%TO.P,MX13,1*%
%TO.N,Col2*%
%TA.AperFunction,ComponentPad*%
G36*
G01*
X-603836212Y-86448050D02*
X-603836217Y-86448045D01*
G75*
G02*
X-603922245Y-84859383I751317J837345D01*
G01*
X-602612243Y-83399383D01*
G75*
G02*
X-601023581Y-83313355I837345J-751317D01*
G01*
X-601023581Y-83313355D01*
G75*
G02*
X-600937553Y-84902017I-751317J-837345D01*
G01*
X-602247555Y-86362017D01*
G75*
G02*
X-603836217Y-86448045I-837345J751317D01*
G01*
G37*
%TD.AperFunction*%
X-601774900Y-84150700D03*
%TD*%
%TO.P,MX106,2*%
%TO.N,Net-(D28-Pad2)*%
%TA.AperFunction,ComponentPad*%
G36*
G01*
X-518270167Y-122873095D02*
X-518271053Y-122873034D01*
G75*
G02*
X-519315984Y-121673297I77403J1122334D01*
G01*
X-519275984Y-121093297D01*
G75*
G02*
X-518076247Y-120048366I1122334J-77403D01*
G01*
X-518076247Y-120048366D01*
G75*
G02*
X-517031316Y-121248103I-77403J-1122334D01*
G01*
X-517071316Y-121828103D01*
G75*
G02*
X-518271053Y-122873034I-1122334J77403D01*
G01*
G37*
%TD.AperFunction*%
X-518153650Y-121170700D03*
%TO.P,MX106,1*%
%TO.N,Col4*%
%TA.AperFunction,ComponentPad*%
G36*
G01*
X-525254962Y-124548050D02*
X-525254967Y-124548045D01*
G75*
G02*
X-525340995Y-122959383I751317J837345D01*
G01*
X-524030993Y-121499383D01*
G75*
G02*
X-522442331Y-121413355I837345J-751317D01*
G01*
X-522442331Y-121413355D01*
G75*
G02*
X-522356303Y-123002017I-751317J-837345D01*
G01*
X-523666305Y-124462017D01*
G75*
G02*
X-525254967Y-124548045I-837345J751317D01*
G01*
G37*
%TD.AperFunction*%
X-523193650Y-122250700D03*
%TD*%
%TO.P,MX95,2*%
%TO.N,Net-(D95-Pad2)*%
%TA.AperFunction,ComponentPad*%
G36*
G01*
X-239448021Y-141923095D02*
X-239448907Y-141923034D01*
G75*
G02*
X-240493838Y-140723297I77403J1122334D01*
G01*
X-240453838Y-140143297D01*
G75*
G02*
X-239254101Y-139098366I1122334J-77403D01*
G01*
X-239254101Y-139098366D01*
G75*
G02*
X-238209170Y-140298103I-77403J-1122334D01*
G01*
X-238249170Y-140878103D01*
G75*
G02*
X-239448907Y-141923034I-1122334J77403D01*
G01*
G37*
%TD.AperFunction*%
X-239331504Y-140220700D03*
%TO.P,MX95,1*%
%TO.N,Col15*%
%TA.AperFunction,ComponentPad*%
G36*
G01*
X-246432816Y-143598050D02*
X-246432821Y-143598045D01*
G75*
G02*
X-246518849Y-142009383I751317J837345D01*
G01*
X-245208847Y-140549383D01*
G75*
G02*
X-243620185Y-140463355I837345J-751317D01*
G01*
X-243620185Y-140463355D01*
G75*
G02*
X-243534157Y-142052017I-751317J-837345D01*
G01*
X-244844159Y-143512017D01*
G75*
G02*
X-246432821Y-143598045I-837345J751317D01*
G01*
G37*
%TD.AperFunction*%
X-244371504Y-141300700D03*
%TD*%
%TO.P,MX29,1*%
%TO.N,Col4*%
X-527956150Y-141300700D03*
%TA.AperFunction,ComponentPad*%
G36*
G01*
X-530017462Y-143598050D02*
X-530017467Y-143598045D01*
G75*
G02*
X-530103495Y-142009383I751317J837345D01*
G01*
X-528793493Y-140549383D01*
G75*
G02*
X-527204831Y-140463355I837345J-751317D01*
G01*
X-527204831Y-140463355D01*
G75*
G02*
X-527118803Y-142052017I-751317J-837345D01*
G01*
X-528428805Y-143512017D01*
G75*
G02*
X-530017467Y-143598045I-837345J751317D01*
G01*
G37*
%TD.AperFunction*%
%TO.P,MX29,2*%
%TO.N,Net-(D29-Pad2)*%
X-522916150Y-140220700D03*
%TA.AperFunction,ComponentPad*%
G36*
G01*
X-523032667Y-141923095D02*
X-523033553Y-141923034D01*
G75*
G02*
X-524078484Y-140723297I77403J1122334D01*
G01*
X-524038484Y-140143297D01*
G75*
G02*
X-522838747Y-139098366I1122334J-77403D01*
G01*
X-522838747Y-139098366D01*
G75*
G02*
X-521793816Y-140298103I-77403J-1122334D01*
G01*
X-521833816Y-140878103D01*
G75*
G02*
X-523033553Y-141923034I-1122334J77403D01*
G01*
G37*
%TD.AperFunction*%
%TD*%
%TO.P,MX6,2*%
%TO.N,Net-(D6-Pad2)*%
%TA.AperFunction,ComponentPad*%
G36*
G01*
X-644476417Y-160973095D02*
X-644477303Y-160973034D01*
G75*
G02*
X-645522234Y-159773297I77403J1122334D01*
G01*
X-645482234Y-159193297D01*
G75*
G02*
X-644282497Y-158148366I1122334J-77403D01*
G01*
X-644282497Y-158148366D01*
G75*
G02*
X-643237566Y-159348103I-77403J-1122334D01*
G01*
X-643277566Y-159928103D01*
G75*
G02*
X-644477303Y-160973034I-1122334J77403D01*
G01*
G37*
%TD.AperFunction*%
X-644359900Y-159270700D03*
%TO.P,MX6,1*%
%TO.N,Col0*%
%TA.AperFunction,ComponentPad*%
G36*
G01*
X-651461212Y-162648050D02*
X-651461217Y-162648045D01*
G75*
G02*
X-651547245Y-161059383I751317J837345D01*
G01*
X-650237243Y-159599383D01*
G75*
G02*
X-648648581Y-159513355I837345J-751317D01*
G01*
X-648648581Y-159513355D01*
G75*
G02*
X-648562553Y-161102017I-751317J-837345D01*
G01*
X-649872555Y-162562017D01*
G75*
G02*
X-651461217Y-162648045I-837345J751317D01*
G01*
G37*
%TD.AperFunction*%
X-649399900Y-160350700D03*
%TD*%
%TO.P,MX107,1*%
%TO.N,Col16*%
%TA.AperFunction,ComponentPad*%
G36*
G01*
X-209918764Y-119147224D02*
X-209918838Y-119148301D01*
G75*
G02*
X-208719105Y-118103366I1122334J-77399D01*
G01*
X-208139105Y-118143364D01*
G75*
G02*
X-207094170Y-119343097I-77399J-1122334D01*
G01*
X-207094170Y-119343097D01*
G75*
G02*
X-208293903Y-120388032I-1122334J77399D01*
G01*
X-208873903Y-120348034D01*
G75*
G02*
X-209918838Y-119148301I77399J1122334D01*
G01*
G37*
%TD.AperFunction*%
X-208216504Y-119265700D03*
%TO.P,MX107,2*%
%TO.N,Net-(D101-Pad2)*%
%TA.AperFunction,ComponentPad*%
G36*
G01*
X-211593854Y-112164388D02*
X-211593854Y-112164388D01*
G75*
G02*
X-210005192Y-112078350I837350J-751312D01*
G01*
X-208545184Y-113388340D01*
G75*
G02*
X-208459146Y-114977002I-751312J-837350D01*
G01*
X-208459146Y-114977002D01*
G75*
G02*
X-210047808Y-115063040I-837350J751312D01*
G01*
X-211507816Y-113753050D01*
G75*
G02*
X-211593854Y-112164388I751312J837350D01*
G01*
G37*
%TD.AperFunction*%
X-209296504Y-114225700D03*
D11*
%TO.P,MX107,4*%
%TO.N,N/C*%
X-218376504Y-117995700D03*
D12*
%TO.P,MX107,3*%
X-218376504Y-115455700D03*
D10*
%TO.P,MX107,1*%
%TO.N,Col16*%
X-210796504Y-120725700D03*
%TO.P,MX107,2*%
%TO.N,Net-(D101-Pad2)*%
X-215796504Y-121225700D03*
%TD*%
%TO.P,MX105,1*%
%TO.N,Col17*%
X-218177754Y-103200700D03*
%TA.AperFunction,ComponentPad*%
G36*
G01*
X-220239066Y-105498050D02*
X-220239071Y-105498045D01*
G75*
G02*
X-220325099Y-103909383I751317J837345D01*
G01*
X-219015097Y-102449383D01*
G75*
G02*
X-217426435Y-102363355I837345J-751317D01*
G01*
X-217426435Y-102363355D01*
G75*
G02*
X-217340407Y-103952017I-751317J-837345D01*
G01*
X-218650409Y-105412017D01*
G75*
G02*
X-220239071Y-105498045I-837345J751317D01*
G01*
G37*
%TD.AperFunction*%
%TO.P,MX105,2*%
%TO.N,Net-(D105-Pad2)*%
X-213137754Y-102120700D03*
%TA.AperFunction,ComponentPad*%
G36*
G01*
X-213254271Y-103823095D02*
X-213255157Y-103823034D01*
G75*
G02*
X-214300088Y-102623297I77403J1122334D01*
G01*
X-214260088Y-102043297D01*
G75*
G02*
X-213060351Y-100998366I1122334J-77403D01*
G01*
X-213060351Y-100998366D01*
G75*
G02*
X-212015420Y-102198103I-77403J-1122334D01*
G01*
X-212055420Y-102778103D01*
G75*
G02*
X-213255157Y-103823034I-1122334J77403D01*
G01*
G37*
%TD.AperFunction*%
%TD*%
%TO.P,MX96,2*%
%TO.N,Net-(D96-Pad2)*%
%TA.AperFunction,ComponentPad*%
G36*
G01*
X-210873021Y-160973095D02*
X-210873907Y-160973034D01*
G75*
G02*
X-211918838Y-159773297I77403J1122334D01*
G01*
X-211878838Y-159193297D01*
G75*
G02*
X-210679101Y-158148366I1122334J-77403D01*
G01*
X-210679101Y-158148366D01*
G75*
G02*
X-209634170Y-159348103I-77403J-1122334D01*
G01*
X-209674170Y-159928103D01*
G75*
G02*
X-210873907Y-160973034I-1122334J77403D01*
G01*
G37*
%TD.AperFunction*%
X-210756504Y-159270700D03*
%TO.P,MX96,1*%
%TO.N,Col15*%
%TA.AperFunction,ComponentPad*%
G36*
G01*
X-217857816Y-162648050D02*
X-217857821Y-162648045D01*
G75*
G02*
X-217943849Y-161059383I751317J837345D01*
G01*
X-216633847Y-159599383D01*
G75*
G02*
X-215045185Y-159513355I837345J-751317D01*
G01*
X-215045185Y-159513355D01*
G75*
G02*
X-214959157Y-161102017I-751317J-837345D01*
G01*
X-216269159Y-162562017D01*
G75*
G02*
X-217857821Y-162648045I-837345J751317D01*
G01*
G37*
%TD.AperFunction*%
X-215796504Y-160350700D03*
%TD*%
%TO.P,MX36,2*%
%TO.N,Net-(D36-Pad2)*%
%TA.AperFunction,ComponentPad*%
G36*
G01*
X-489695167Y-160973095D02*
X-489696053Y-160973034D01*
G75*
G02*
X-490740984Y-159773297I77403J1122334D01*
G01*
X-490700984Y-159193297D01*
G75*
G02*
X-489501247Y-158148366I1122334J-77403D01*
G01*
X-489501247Y-158148366D01*
G75*
G02*
X-488456316Y-159348103I-77403J-1122334D01*
G01*
X-488496316Y-159928103D01*
G75*
G02*
X-489696053Y-160973034I-1122334J77403D01*
G01*
G37*
%TD.AperFunction*%
X-489578650Y-159270700D03*
%TO.P,MX36,1*%
%TO.N,Col5*%
%TA.AperFunction,ComponentPad*%
G36*
G01*
X-496679962Y-162648050D02*
X-496679967Y-162648045D01*
G75*
G02*
X-496765995Y-161059383I751317J837345D01*
G01*
X-495455993Y-159599383D01*
G75*
G02*
X-493867331Y-159513355I837345J-751317D01*
G01*
X-493867331Y-159513355D01*
G75*
G02*
X-493781303Y-161102017I-751317J-837345D01*
G01*
X-495091305Y-162562017D01*
G75*
G02*
X-496679967Y-162648045I-837345J751317D01*
G01*
G37*
%TD.AperFunction*%
X-494618650Y-160350700D03*
%TD*%
%TO.P,MX72,2*%
%TO.N,Net-(D72-Pad2)*%
%TA.AperFunction,ComponentPad*%
G36*
G01*
X-346513179Y-180004755D02*
X-346514050Y-180004926D01*
G75*
G02*
X-347833891Y-179116517I-215716J1104125D01*
G01*
X-347945369Y-178545927D01*
G75*
G02*
X-347056960Y-177226086I1104125J215716D01*
G01*
X-347056960Y-177226086D01*
G75*
G02*
X-345737119Y-178114495I215716J-1104125D01*
G01*
X-345625641Y-178685085D01*
G75*
G02*
X-346514050Y-180004926I-1104125J-215716D01*
G01*
G37*
%TD.AperFunction*%
X-346841244Y-178330211D03*
%TO.P,MX72,1*%
%TO.N,Col11*%
%TA.AperFunction,ComponentPad*%
G36*
G01*
X-352826462Y-183430436D02*
X-352826469Y-183430433D01*
G75*
G02*
X-353320742Y-181918168I508996J1003269D01*
G01*
X-352433254Y-180168864D01*
G75*
G02*
X-350920989Y-179674591I1003269J-508996D01*
G01*
X-350920989Y-179674591D01*
G75*
G02*
X-350426716Y-181186856I-508996J-1003269D01*
G01*
X-351314204Y-182936160D01*
G75*
G02*
X-352826469Y-183430433I-1003269J508996D01*
G01*
G37*
%TD.AperFunction*%
X-351429986Y-180677859D03*
%TD*%
%TO.P,MX100,2*%
%TO.N,Net-(D6-Pad2)*%
%TA.AperFunction,ComponentPad*%
G36*
G01*
X-654001417Y-160973095D02*
X-654002303Y-160973034D01*
G75*
G02*
X-655047234Y-159773297I77403J1122334D01*
G01*
X-655007234Y-159193297D01*
G75*
G02*
X-653807497Y-158148366I1122334J-77403D01*
G01*
X-653807497Y-158148366D01*
G75*
G02*
X-652762566Y-159348103I-77403J-1122334D01*
G01*
X-652802566Y-159928103D01*
G75*
G02*
X-654002303Y-160973034I-1122334J77403D01*
G01*
G37*
%TD.AperFunction*%
X-653884900Y-159270700D03*
%TO.P,MX100,1*%
%TO.N,Col0*%
%TA.AperFunction,ComponentPad*%
G36*
G01*
X-660986212Y-162648050D02*
X-660986217Y-162648045D01*
G75*
G02*
X-661072245Y-161059383I751317J837345D01*
G01*
X-659762243Y-159599383D01*
G75*
G02*
X-658173581Y-159513355I837345J-751317D01*
G01*
X-658173581Y-159513355D01*
G75*
G02*
X-658087553Y-161102017I-751317J-837345D01*
G01*
X-659397555Y-162562017D01*
G75*
G02*
X-660986217Y-162648045I-837345J751317D01*
G01*
G37*
%TD.AperFunction*%
X-658924900Y-160350700D03*
%TD*%
%TO.P,MX14,2*%
%TO.N,Net-(D14-Pad2)*%
%TA.AperFunction,ComponentPad*%
G36*
G01*
X-602652505Y-114302217D02*
X-602652566Y-114303103D01*
G75*
G02*
X-603852303Y-115348034I-1122334J77403D01*
G01*
X-604432303Y-115308034D01*
G75*
G02*
X-605477234Y-114108297I77403J1122334D01*
G01*
X-605477234Y-114108297D01*
G75*
G02*
X-604277497Y-113063366I1122334J-77403D01*
G01*
X-603697497Y-113103366D01*
G75*
G02*
X-602652566Y-114303103I-77403J-1122334D01*
G01*
G37*
%TD.AperFunction*%
X-604354900Y-114185700D03*
%TO.P,MX14,1*%
%TO.N,Col2*%
%TA.AperFunction,ComponentPad*%
G36*
G01*
X-600977550Y-121287012D02*
X-600977555Y-121287017D01*
G75*
G02*
X-602566217Y-121373045I-837345J751317D01*
G01*
X-604026217Y-120063043D01*
G75*
G02*
X-604112245Y-118474381I751317J837345D01*
G01*
X-604112245Y-118474381D01*
G75*
G02*
X-602523583Y-118388353I837345J-751317D01*
G01*
X-601063583Y-119698355D01*
G75*
G02*
X-600977555Y-121287017I-751317J-837345D01*
G01*
G37*
%TD.AperFunction*%
X-603274900Y-119225700D03*
%TD*%
%TO.P,MX18,2*%
%TO.N,Net-(D18-Pad2)*%
%TA.AperFunction,ComponentPad*%
G36*
G01*
X-602652505Y-152402217D02*
X-602652566Y-152403103D01*
G75*
G02*
X-603852303Y-153448034I-1122334J77403D01*
G01*
X-604432303Y-153408034D01*
G75*
G02*
X-605477234Y-152208297I77403J1122334D01*
G01*
X-605477234Y-152208297D01*
G75*
G02*
X-604277497Y-151163366I1122334J-77403D01*
G01*
X-603697497Y-151203366D01*
G75*
G02*
X-602652566Y-152403103I-77403J-1122334D01*
G01*
G37*
%TD.AperFunction*%
X-604354900Y-152285700D03*
%TO.P,MX18,1*%
%TO.N,Col2*%
%TA.AperFunction,ComponentPad*%
G36*
G01*
X-600977550Y-159387012D02*
X-600977555Y-159387017D01*
G75*
G02*
X-602566217Y-159473045I-837345J751317D01*
G01*
X-604026217Y-158163043D01*
G75*
G02*
X-604112245Y-156574381I751317J837345D01*
G01*
X-604112245Y-156574381D01*
G75*
G02*
X-602523583Y-156488353I837345J-751317D01*
G01*
X-601063583Y-157798355D01*
G75*
G02*
X-600977555Y-159387017I-751317J-837345D01*
G01*
G37*
%TD.AperFunction*%
X-603274900Y-157325700D03*
%TD*%
%TO.P,MX104,2*%
%TO.N,Net-(D104-Pad2)*%
%TA.AperFunction,ComponentPad*%
G36*
G01*
X-218016771Y-84773095D02*
X-218017657Y-84773034D01*
G75*
G02*
X-219062588Y-83573297I77403J1122334D01*
G01*
X-219022588Y-82993297D01*
G75*
G02*
X-217822851Y-81948366I1122334J-77403D01*
G01*
X-217822851Y-81948366D01*
G75*
G02*
X-216777920Y-83148103I-77403J-1122334D01*
G01*
X-216817920Y-83728103D01*
G75*
G02*
X-218017657Y-84773034I-1122334J77403D01*
G01*
G37*
%TD.AperFunction*%
X-217900254Y-83070700D03*
%TO.P,MX104,1*%
%TO.N,Col17*%
%TA.AperFunction,ComponentPad*%
G36*
G01*
X-225001566Y-86448050D02*
X-225001571Y-86448045D01*
G75*
G02*
X-225087599Y-84859383I751317J837345D01*
G01*
X-223777597Y-83399383D01*
G75*
G02*
X-222188935Y-83313355I837345J-751317D01*
G01*
X-222188935Y-83313355D01*
G75*
G02*
X-222102907Y-84902017I-751317J-837345D01*
G01*
X-223412909Y-86362017D01*
G75*
G02*
X-225001571Y-86448045I-837345J751317D01*
G01*
G37*
%TD.AperFunction*%
X-222940254Y-84150700D03*
%TD*%
%TO.P,MX16,2*%
%TO.N,Net-(D16-Pad2)*%
%TA.AperFunction,ComponentPad*%
G36*
G01*
X-615901417Y-141923095D02*
X-615902303Y-141923034D01*
G75*
G02*
X-616947234Y-140723297I77403J1122334D01*
G01*
X-616907234Y-140143297D01*
G75*
G02*
X-615707497Y-139098366I1122334J-77403D01*
G01*
X-615707497Y-139098366D01*
G75*
G02*
X-614662566Y-140298103I-77403J-1122334D01*
G01*
X-614702566Y-140878103D01*
G75*
G02*
X-615902303Y-141923034I-1122334J77403D01*
G01*
G37*
%TD.AperFunction*%
X-615784900Y-140220700D03*
%TO.P,MX16,1*%
%TO.N,Col2*%
%TA.AperFunction,ComponentPad*%
G36*
G01*
X-622886212Y-143598050D02*
X-622886217Y-143598045D01*
G75*
G02*
X-622972245Y-142009383I751317J837345D01*
G01*
X-621662243Y-140549383D01*
G75*
G02*
X-620073581Y-140463355I837345J-751317D01*
G01*
X-620073581Y-140463355D01*
G75*
G02*
X-619987553Y-142052017I-751317J-837345D01*
G01*
X-621297555Y-143512017D01*
G75*
G02*
X-622886217Y-143598045I-837345J751317D01*
G01*
G37*
%TD.AperFunction*%
X-620824900Y-141300700D03*
%TD*%
%TO.P,MX54,2*%
%TO.N,Net-(D54-Pad2)*%
%TA.AperFunction,ComponentPad*%
G36*
G01*
X-399301582Y-185573431D02*
X-399302422Y-185573143D01*
G75*
G02*
X-400001233Y-184143838I365247J1064058D01*
G01*
X-399812481Y-183593954D01*
G75*
G02*
X-398383176Y-182895143I1064058J-365247D01*
G01*
X-398383176Y-182895143D01*
G75*
G02*
X-397684365Y-184324448I-365247J-1064058D01*
G01*
X-397873117Y-184874332D01*
G75*
G02*
X-399302422Y-185573143I-1064058J365247D01*
G01*
G37*
%TD.AperFunction*%
X-398748423Y-183959201D03*
%TO.P,MX54,1*%
%TO.N,Col8*%
%TA.AperFunction,ComponentPad*%
G36*
G01*
X-406481886Y-185383517D02*
X-406481890Y-185383510D01*
G75*
G02*
X-406153810Y-183826714I942438J614358D01*
G01*
X-404510570Y-182755516D01*
G75*
G02*
X-402953774Y-183083596I614358J-942438D01*
G01*
X-402953774Y-183083596D01*
G75*
G02*
X-403281854Y-184640392I-942438J-614358D01*
G01*
X-404925094Y-185711590D01*
G75*
G02*
X-406481890Y-185383510I-614358J942438D01*
G01*
G37*
%TD.AperFunction*%
X-403896213Y-183697953D03*
%TD*%
D13*
%TO.P,U2,25*%
%TO.N,Row3*%
X-543077400Y-86537800D03*
%TO.P,U2,26*%
%TO.N,Row4*%
X-545617400Y-86537800D03*
%TO.P,U2,27*%
%TO.N,Row5*%
X-548157400Y-86537800D03*
%TO.P,U2,28*%
%TO.N,Row2*%
X-550697400Y-86537800D03*
%TO.P,U2,29*%
%TO.N,Row1*%
X-553237400Y-86537800D03*
%TO.P,U2,24*%
%TO.N,Col0*%
X-555777400Y-58597800D03*
%TO.P,U2,12*%
%TO.N,Col8*%
X-540766000Y-86537800D03*
%TO.P,U2,23*%
%TO.N,Net-(U2-Pad23)*%
X-555777400Y-61137800D03*
%TO.P,U2,22*%
%TO.N,Net-(U2-Pad22)*%
X-555777400Y-63677800D03*
%TO.P,U2,21*%
%TO.N,Net-(U2-Pad21)*%
X-555777400Y-66217800D03*
%TO.P,U2,20*%
%TO.N,Col1*%
X-555777400Y-68757800D03*
%TO.P,U2,19*%
%TO.N,Col2*%
X-555777400Y-71297800D03*
%TO.P,U2,18*%
%TO.N,Col3*%
X-555777400Y-73837800D03*
%TO.P,U2,17*%
%TO.N,Row0*%
X-555777400Y-76377800D03*
%TO.P,U2,16*%
%TO.N,Col5*%
X-555777400Y-78917800D03*
%TO.P,U2,15*%
%TO.N,Col6*%
X-555777400Y-81457800D03*
%TO.P,U2,14*%
%TO.N,Col10*%
X-555777400Y-83997800D03*
%TO.P,U2,13*%
%TO.N,Col9*%
X-555777400Y-86537800D03*
%TO.P,U2,11*%
%TO.N,Col7*%
X-540537400Y-83997800D03*
%TO.P,U2,10*%
%TO.N,Col4*%
X-540537400Y-81457800D03*
%TO.P,U2,9*%
%TO.N,Col11*%
X-540537400Y-78917800D03*
%TO.P,U2,8*%
%TO.N,Col12*%
X-540537400Y-76377800D03*
%TO.P,U2,7*%
%TO.N,Col13*%
X-540537400Y-73837800D03*
%TO.P,U2,6*%
%TO.N,Col14*%
X-540537400Y-71297800D03*
%TO.P,U2,5*%
%TO.N,Col15*%
X-540537400Y-68757800D03*
%TO.P,U2,4*%
%TO.N,Net-(U2-Pad4)*%
X-540537400Y-66217800D03*
%TO.P,U2,3*%
%TO.N,Net-(U2-Pad3)*%
X-540537400Y-63677800D03*
%TO.P,U2,2*%
%TO.N,Col16*%
X-540537400Y-61137800D03*
D14*
%TO.P,U2,1*%
%TO.N,Col17*%
X-540537400Y-58597800D03*
%TD*%
%TO.P,MX103,2*%
%TO.N,Net-(D103-Pad2)*%
%TA.AperFunction,ComponentPad*%
G36*
G01*
X-208491771Y-60960595D02*
X-208492657Y-60960534D01*
G75*
G02*
X-209537588Y-59760797I77403J1122334D01*
G01*
X-209497588Y-59180797D01*
G75*
G02*
X-208297851Y-58135866I1122334J-77403D01*
G01*
X-208297851Y-58135866D01*
G75*
G02*
X-207252920Y-59335603I-77403J-1122334D01*
G01*
X-207292920Y-59915603D01*
G75*
G02*
X-208492657Y-60960534I-1122334J77403D01*
G01*
G37*
%TD.AperFunction*%
D10*
X-208375254Y-59258200D03*
%TO.P,MX103,1*%
%TO.N,Col17*%
%TA.AperFunction,ComponentPad*%
G36*
G01*
X-215476566Y-62635550D02*
X-215476571Y-62635545D01*
G75*
G02*
X-215562599Y-61046883I751317J837345D01*
G01*
X-214252597Y-59586883D01*
G75*
G02*
X-212663935Y-59500855I837345J-751317D01*
G01*
X-212663935Y-59500855D01*
G75*
G02*
X-212577907Y-61089517I-751317J-837345D01*
G01*
X-213887909Y-62549517D01*
G75*
G02*
X-215476571Y-62635545I-837345J751317D01*
G01*
G37*
%TD.AperFunction*%
X-213415254Y-60338200D03*
%TD*%
%TO.P,MX102,2*%
%TO.N,Net-(D102-Pad2)*%
%TA.AperFunction,ComponentPad*%
G36*
G01*
X-208491771Y-141923095D02*
X-208492657Y-141923034D01*
G75*
G02*
X-209537588Y-140723297I77403J1122334D01*
G01*
X-209497588Y-140143297D01*
G75*
G02*
X-208297851Y-139098366I1122334J-77403D01*
G01*
X-208297851Y-139098366D01*
G75*
G02*
X-207252920Y-140298103I-77403J-1122334D01*
G01*
X-207292920Y-140878103D01*
G75*
G02*
X-208492657Y-141923034I-1122334J77403D01*
G01*
G37*
%TD.AperFunction*%
X-208375254Y-140220700D03*
%TO.P,MX102,1*%
%TO.N,Col16*%
%TA.AperFunction,ComponentPad*%
G36*
G01*
X-215476566Y-143598050D02*
X-215476571Y-143598045D01*
G75*
G02*
X-215562599Y-142009383I751317J837345D01*
G01*
X-214252597Y-140549383D01*
G75*
G02*
X-212663935Y-140463355I837345J-751317D01*
G01*
X-212663935Y-140463355D01*
G75*
G02*
X-212577907Y-142052017I-751317J-837345D01*
G01*
X-213887909Y-143512017D01*
G75*
G02*
X-215476571Y-143598045I-837345J751317D01*
G01*
G37*
%TD.AperFunction*%
X-213415254Y-141300700D03*
%TD*%
%TO.P,MX101,2*%
%TO.N,Net-(D101-Pad2)*%
%TA.AperFunction,ComponentPad*%
G36*
G01*
X-220398021Y-122873095D02*
X-220398907Y-122873034D01*
G75*
G02*
X-221443838Y-121673297I77403J1122334D01*
G01*
X-221403838Y-121093297D01*
G75*
G02*
X-220204101Y-120048366I1122334J-77403D01*
G01*
X-220204101Y-120048366D01*
G75*
G02*
X-219159170Y-121248103I-77403J-1122334D01*
G01*
X-219199170Y-121828103D01*
G75*
G02*
X-220398907Y-122873034I-1122334J77403D01*
G01*
G37*
%TD.AperFunction*%
X-220281504Y-121170700D03*
%TO.P,MX101,1*%
%TO.N,Col16*%
%TA.AperFunction,ComponentPad*%
G36*
G01*
X-227382816Y-124548050D02*
X-227382821Y-124548045D01*
G75*
G02*
X-227468849Y-122959383I751317J837345D01*
G01*
X-226158847Y-121499383D01*
G75*
G02*
X-224570185Y-121413355I837345J-751317D01*
G01*
X-224570185Y-121413355D01*
G75*
G02*
X-224484157Y-123002017I-751317J-837345D01*
G01*
X-225794159Y-124462017D01*
G75*
G02*
X-227382821Y-124548045I-837345J751317D01*
G01*
G37*
%TD.AperFunction*%
X-225321504Y-122250700D03*
%TD*%
%TO.P,MX99,2*%
%TO.N,Net-(D99-Pad2)*%
%TA.AperFunction,ComponentPad*%
G36*
G01*
X-237066771Y-103823095D02*
X-237067657Y-103823034D01*
G75*
G02*
X-238112588Y-102623297I77403J1122334D01*
G01*
X-238072588Y-102043297D01*
G75*
G02*
X-236872851Y-100998366I1122334J-77403D01*
G01*
X-236872851Y-100998366D01*
G75*
G02*
X-235827920Y-102198103I-77403J-1122334D01*
G01*
X-235867920Y-102778103D01*
G75*
G02*
X-237067657Y-103823034I-1122334J77403D01*
G01*
G37*
%TD.AperFunction*%
X-236950254Y-102120700D03*
%TO.P,MX99,1*%
%TO.N,Col16*%
%TA.AperFunction,ComponentPad*%
G36*
G01*
X-244051566Y-105498050D02*
X-244051571Y-105498045D01*
G75*
G02*
X-244137599Y-103909383I751317J837345D01*
G01*
X-242827597Y-102449383D01*
G75*
G02*
X-241238935Y-102363355I837345J-751317D01*
G01*
X-241238935Y-102363355D01*
G75*
G02*
X-241152907Y-103952017I-751317J-837345D01*
G01*
X-242462909Y-105412017D01*
G75*
G02*
X-244051571Y-105498045I-837345J751317D01*
G01*
G37*
%TD.AperFunction*%
X-241990254Y-103200700D03*
%TD*%
%TO.P,MX98,2*%
%TO.N,Net-(D98-Pad2)*%
%TA.AperFunction,ComponentPad*%
G36*
G01*
X-246591771Y-84773095D02*
X-246592657Y-84773034D01*
G75*
G02*
X-247637588Y-83573297I77403J1122334D01*
G01*
X-247597588Y-82993297D01*
G75*
G02*
X-246397851Y-81948366I1122334J-77403D01*
G01*
X-246397851Y-81948366D01*
G75*
G02*
X-245352920Y-83148103I-77403J-1122334D01*
G01*
X-245392920Y-83728103D01*
G75*
G02*
X-246592657Y-84773034I-1122334J77403D01*
G01*
G37*
%TD.AperFunction*%
X-246475254Y-83070700D03*
%TO.P,MX98,1*%
%TO.N,Col16*%
%TA.AperFunction,ComponentPad*%
G36*
G01*
X-253576566Y-86448050D02*
X-253576571Y-86448045D01*
G75*
G02*
X-253662599Y-84859383I751317J837345D01*
G01*
X-252352597Y-83399383D01*
G75*
G02*
X-250763935Y-83313355I837345J-751317D01*
G01*
X-250763935Y-83313355D01*
G75*
G02*
X-250677907Y-84902017I-751317J-837345D01*
G01*
X-251987909Y-86362017D01*
G75*
G02*
X-253576571Y-86448045I-837345J751317D01*
G01*
G37*
%TD.AperFunction*%
X-251515254Y-84150700D03*
%TD*%
%TO.P,MX97,2*%
%TO.N,Net-(D97-Pad2)*%
%TA.AperFunction,ComponentPad*%
G36*
G01*
X-227541771Y-60960595D02*
X-227542657Y-60960534D01*
G75*
G02*
X-228587588Y-59760797I77403J1122334D01*
G01*
X-228547588Y-59180797D01*
G75*
G02*
X-227347851Y-58135866I1122334J-77403D01*
G01*
X-227347851Y-58135866D01*
G75*
G02*
X-226302920Y-59335603I-77403J-1122334D01*
G01*
X-226342920Y-59915603D01*
G75*
G02*
X-227542657Y-60960534I-1122334J77403D01*
G01*
G37*
%TD.AperFunction*%
X-227425254Y-59258200D03*
%TO.P,MX97,1*%
%TO.N,Col16*%
%TA.AperFunction,ComponentPad*%
G36*
G01*
X-234526566Y-62635550D02*
X-234526571Y-62635545D01*
G75*
G02*
X-234612599Y-61046883I751317J837345D01*
G01*
X-233302597Y-59586883D01*
G75*
G02*
X-231713935Y-59500855I837345J-751317D01*
G01*
X-231713935Y-59500855D01*
G75*
G02*
X-231627907Y-61089517I-751317J-837345D01*
G01*
X-232937909Y-62549517D01*
G75*
G02*
X-234526571Y-62635545I-837345J751317D01*
G01*
G37*
%TD.AperFunction*%
X-232465254Y-60338200D03*
%TD*%
%TO.P,MX94,2*%
%TO.N,Net-(D94-Pad2)*%
%TA.AperFunction,ComponentPad*%
G36*
G01*
X-251354271Y-122873095D02*
X-251355157Y-122873034D01*
G75*
G02*
X-252400088Y-121673297I77403J1122334D01*
G01*
X-252360088Y-121093297D01*
G75*
G02*
X-251160351Y-120048366I1122334J-77403D01*
G01*
X-251160351Y-120048366D01*
G75*
G02*
X-250115420Y-121248103I-77403J-1122334D01*
G01*
X-250155420Y-121828103D01*
G75*
G02*
X-251355157Y-122873034I-1122334J77403D01*
G01*
G37*
%TD.AperFunction*%
X-251237754Y-121170700D03*
%TO.P,MX94,1*%
%TO.N,Col15*%
%TA.AperFunction,ComponentPad*%
G36*
G01*
X-258339066Y-124548050D02*
X-258339071Y-124548045D01*
G75*
G02*
X-258425099Y-122959383I751317J837345D01*
G01*
X-257115097Y-121499383D01*
G75*
G02*
X-255526435Y-121413355I837345J-751317D01*
G01*
X-255526435Y-121413355D01*
G75*
G02*
X-255440407Y-123002017I-751317J-837345D01*
G01*
X-256750409Y-124462017D01*
G75*
G02*
X-258339071Y-124548045I-837345J751317D01*
G01*
G37*
%TD.AperFunction*%
X-256277754Y-122250700D03*
%TD*%
%TO.P,MX93,2*%
%TO.N,Net-(D93-Pad2)*%
%TA.AperFunction,ComponentPad*%
G36*
G01*
X-256116771Y-103823095D02*
X-256117657Y-103823034D01*
G75*
G02*
X-257162588Y-102623297I77403J1122334D01*
G01*
X-257122588Y-102043297D01*
G75*
G02*
X-255922851Y-100998366I1122334J-77403D01*
G01*
X-255922851Y-100998366D01*
G75*
G02*
X-254877920Y-102198103I-77403J-1122334D01*
G01*
X-254917920Y-102778103D01*
G75*
G02*
X-256117657Y-103823034I-1122334J77403D01*
G01*
G37*
%TD.AperFunction*%
X-256000254Y-102120700D03*
%TO.P,MX93,1*%
%TO.N,Col15*%
%TA.AperFunction,ComponentPad*%
G36*
G01*
X-263101566Y-105498050D02*
X-263101571Y-105498045D01*
G75*
G02*
X-263187599Y-103909383I751317J837345D01*
G01*
X-261877597Y-102449383D01*
G75*
G02*
X-260288935Y-102363355I837345J-751317D01*
G01*
X-260288935Y-102363355D01*
G75*
G02*
X-260202907Y-103952017I-751317J-837345D01*
G01*
X-261512909Y-105412017D01*
G75*
G02*
X-263101571Y-105498045I-837345J751317D01*
G01*
G37*
%TD.AperFunction*%
X-261040254Y-103200700D03*
%TD*%
%TO.P,MX92,2*%
%TO.N,Net-(D92-Pad2)*%
%TA.AperFunction,ComponentPad*%
G36*
G01*
X-265641771Y-84773095D02*
X-265642657Y-84773034D01*
G75*
G02*
X-266687588Y-83573297I77403J1122334D01*
G01*
X-266647588Y-82993297D01*
G75*
G02*
X-265447851Y-81948366I1122334J-77403D01*
G01*
X-265447851Y-81948366D01*
G75*
G02*
X-264402920Y-83148103I-77403J-1122334D01*
G01*
X-264442920Y-83728103D01*
G75*
G02*
X-265642657Y-84773034I-1122334J77403D01*
G01*
G37*
%TD.AperFunction*%
X-265525254Y-83070700D03*
%TO.P,MX92,1*%
%TO.N,Col15*%
%TA.AperFunction,ComponentPad*%
G36*
G01*
X-272626566Y-86448050D02*
X-272626571Y-86448045D01*
G75*
G02*
X-272712599Y-84859383I751317J837345D01*
G01*
X-271402597Y-83399383D01*
G75*
G02*
X-269813935Y-83313355I837345J-751317D01*
G01*
X-269813935Y-83313355D01*
G75*
G02*
X-269727907Y-84902017I-751317J-837345D01*
G01*
X-271037909Y-86362017D01*
G75*
G02*
X-272626571Y-86448045I-837345J751317D01*
G01*
G37*
%TD.AperFunction*%
X-270565254Y-84150700D03*
%TD*%
%TO.P,MX91,2*%
%TO.N,Net-(D91-Pad2)*%
%TA.AperFunction,ComponentPad*%
G36*
G01*
X-265641771Y-60960595D02*
X-265642657Y-60960534D01*
G75*
G02*
X-266687588Y-59760797I77403J1122334D01*
G01*
X-266647588Y-59180797D01*
G75*
G02*
X-265447851Y-58135866I1122334J-77403D01*
G01*
X-265447851Y-58135866D01*
G75*
G02*
X-264402920Y-59335603I-77403J-1122334D01*
G01*
X-264442920Y-59915603D01*
G75*
G02*
X-265642657Y-60960534I-1122334J77403D01*
G01*
G37*
%TD.AperFunction*%
X-265525254Y-59258200D03*
%TO.P,MX91,1*%
%TO.N,Col15*%
%TA.AperFunction,ComponentPad*%
G36*
G01*
X-272626566Y-62635550D02*
X-272626571Y-62635545D01*
G75*
G02*
X-272712599Y-61046883I751317J837345D01*
G01*
X-271402597Y-59586883D01*
G75*
G02*
X-269813935Y-59500855I837345J-751317D01*
G01*
X-269813935Y-59500855D01*
G75*
G02*
X-269727907Y-61089517I-751317J-837345D01*
G01*
X-271037909Y-62549517D01*
G75*
G02*
X-272626571Y-62635545I-837345J751317D01*
G01*
G37*
%TD.AperFunction*%
X-270565254Y-60338200D03*
%TD*%
%TO.P,MX90,2*%
%TO.N,Net-(D90-Pad2)*%
%TA.AperFunction,ComponentPad*%
G36*
G01*
X-234685521Y-160973095D02*
X-234686407Y-160973034D01*
G75*
G02*
X-235731338Y-159773297I77403J1122334D01*
G01*
X-235691338Y-159193297D01*
G75*
G02*
X-234491601Y-158148366I1122334J-77403D01*
G01*
X-234491601Y-158148366D01*
G75*
G02*
X-233446670Y-159348103I-77403J-1122334D01*
G01*
X-233486670Y-159928103D01*
G75*
G02*
X-234686407Y-160973034I-1122334J77403D01*
G01*
G37*
%TD.AperFunction*%
X-234569004Y-159270700D03*
%TO.P,MX90,1*%
%TO.N,Col14*%
%TA.AperFunction,ComponentPad*%
G36*
G01*
X-241670316Y-162648050D02*
X-241670321Y-162648045D01*
G75*
G02*
X-241756349Y-161059383I751317J837345D01*
G01*
X-240446347Y-159599383D01*
G75*
G02*
X-238857685Y-159513355I837345J-751317D01*
G01*
X-238857685Y-159513355D01*
G75*
G02*
X-238771657Y-161102017I-751317J-837345D01*
G01*
X-240081659Y-162562017D01*
G75*
G02*
X-241670321Y-162648045I-837345J751317D01*
G01*
G37*
%TD.AperFunction*%
X-239609004Y-160350700D03*
%TD*%
%TO.P,MX89,2*%
%TO.N,Net-(D89-Pad2)*%
%TA.AperFunction,ComponentPad*%
G36*
G01*
X-270404271Y-141923095D02*
X-270405157Y-141923034D01*
G75*
G02*
X-271450088Y-140723297I77403J1122334D01*
G01*
X-271410088Y-140143297D01*
G75*
G02*
X-270210351Y-139098366I1122334J-77403D01*
G01*
X-270210351Y-139098366D01*
G75*
G02*
X-269165420Y-140298103I-77403J-1122334D01*
G01*
X-269205420Y-140878103D01*
G75*
G02*
X-270405157Y-141923034I-1122334J77403D01*
G01*
G37*
%TD.AperFunction*%
X-270287754Y-140220700D03*
%TO.P,MX89,1*%
%TO.N,Col14*%
%TA.AperFunction,ComponentPad*%
G36*
G01*
X-277389066Y-143598050D02*
X-277389071Y-143598045D01*
G75*
G02*
X-277475099Y-142009383I751317J837345D01*
G01*
X-276165097Y-140549383D01*
G75*
G02*
X-274576435Y-140463355I837345J-751317D01*
G01*
X-274576435Y-140463355D01*
G75*
G02*
X-274490407Y-142052017I-751317J-837345D01*
G01*
X-275800409Y-143512017D01*
G75*
G02*
X-277389071Y-143598045I-837345J751317D01*
G01*
G37*
%TD.AperFunction*%
X-275327754Y-141300700D03*
%TD*%
%TO.P,MX88,2*%
%TO.N,Net-(D88-Pad2)*%
%TA.AperFunction,ComponentPad*%
G36*
G01*
X-270404271Y-122873095D02*
X-270405157Y-122873034D01*
G75*
G02*
X-271450088Y-121673297I77403J1122334D01*
G01*
X-271410088Y-121093297D01*
G75*
G02*
X-270210351Y-120048366I1122334J-77403D01*
G01*
X-270210351Y-120048366D01*
G75*
G02*
X-269165420Y-121248103I-77403J-1122334D01*
G01*
X-269205420Y-121828103D01*
G75*
G02*
X-270405157Y-122873034I-1122334J77403D01*
G01*
G37*
%TD.AperFunction*%
X-270287754Y-121170700D03*
%TO.P,MX88,1*%
%TO.N,Col14*%
%TA.AperFunction,ComponentPad*%
G36*
G01*
X-277389066Y-124548050D02*
X-277389071Y-124548045D01*
G75*
G02*
X-277475099Y-122959383I751317J837345D01*
G01*
X-276165097Y-121499383D01*
G75*
G02*
X-274576435Y-121413355I837345J-751317D01*
G01*
X-274576435Y-121413355D01*
G75*
G02*
X-274490407Y-123002017I-751317J-837345D01*
G01*
X-275800409Y-124462017D01*
G75*
G02*
X-277389071Y-124548045I-837345J751317D01*
G01*
G37*
%TD.AperFunction*%
X-275327754Y-122250700D03*
%TD*%
%TO.P,MX87,2*%
%TO.N,Net-(D87-Pad2)*%
%TA.AperFunction,ComponentPad*%
G36*
G01*
X-275166771Y-103823095D02*
X-275167657Y-103823034D01*
G75*
G02*
X-276212588Y-102623297I77403J1122334D01*
G01*
X-276172588Y-102043297D01*
G75*
G02*
X-274972851Y-100998366I1122334J-77403D01*
G01*
X-274972851Y-100998366D01*
G75*
G02*
X-273927920Y-102198103I-77403J-1122334D01*
G01*
X-273967920Y-102778103D01*
G75*
G02*
X-275167657Y-103823034I-1122334J77403D01*
G01*
G37*
%TD.AperFunction*%
X-275050254Y-102120700D03*
%TO.P,MX87,1*%
%TO.N,Col14*%
%TA.AperFunction,ComponentPad*%
G36*
G01*
X-282151566Y-105498050D02*
X-282151571Y-105498045D01*
G75*
G02*
X-282237599Y-103909383I751317J837345D01*
G01*
X-280927597Y-102449383D01*
G75*
G02*
X-279338935Y-102363355I837345J-751317D01*
G01*
X-279338935Y-102363355D01*
G75*
G02*
X-279252907Y-103952017I-751317J-837345D01*
G01*
X-280562909Y-105412017D01*
G75*
G02*
X-282151571Y-105498045I-837345J751317D01*
G01*
G37*
%TD.AperFunction*%
X-280090254Y-103200700D03*
%TD*%
%TO.P,MX86,2*%
%TO.N,Net-(D86-Pad2)*%
%TA.AperFunction,ComponentPad*%
G36*
G01*
X-284691771Y-84773095D02*
X-284692657Y-84773034D01*
G75*
G02*
X-285737588Y-83573297I77403J1122334D01*
G01*
X-285697588Y-82993297D01*
G75*
G02*
X-284497851Y-81948366I1122334J-77403D01*
G01*
X-284497851Y-81948366D01*
G75*
G02*
X-283452920Y-83148103I-77403J-1122334D01*
G01*
X-283492920Y-83728103D01*
G75*
G02*
X-284692657Y-84773034I-1122334J77403D01*
G01*
G37*
%TD.AperFunction*%
X-284575254Y-83070700D03*
%TO.P,MX86,1*%
%TO.N,Col14*%
%TA.AperFunction,ComponentPad*%
G36*
G01*
X-291676566Y-86448050D02*
X-291676571Y-86448045D01*
G75*
G02*
X-291762599Y-84859383I751317J837345D01*
G01*
X-290452597Y-83399383D01*
G75*
G02*
X-288863935Y-83313355I837345J-751317D01*
G01*
X-288863935Y-83313355D01*
G75*
G02*
X-288777907Y-84902017I-751317J-837345D01*
G01*
X-290087909Y-86362017D01*
G75*
G02*
X-291676571Y-86448045I-837345J751317D01*
G01*
G37*
%TD.AperFunction*%
X-289615254Y-84150700D03*
%TD*%
%TO.P,MX85,2*%
%TO.N,Net-(D85-Pad2)*%
%TA.AperFunction,ComponentPad*%
G36*
G01*
X-284691771Y-60960595D02*
X-284692657Y-60960534D01*
G75*
G02*
X-285737588Y-59760797I77403J1122334D01*
G01*
X-285697588Y-59180797D01*
G75*
G02*
X-284497851Y-58135866I1122334J-77403D01*
G01*
X-284497851Y-58135866D01*
G75*
G02*
X-283452920Y-59335603I-77403J-1122334D01*
G01*
X-283492920Y-59915603D01*
G75*
G02*
X-284692657Y-60960534I-1122334J77403D01*
G01*
G37*
%TD.AperFunction*%
X-284575254Y-59258200D03*
%TO.P,MX85,1*%
%TO.N,Col14*%
%TA.AperFunction,ComponentPad*%
G36*
G01*
X-291676566Y-62635550D02*
X-291676571Y-62635545D01*
G75*
G02*
X-291762599Y-61046883I751317J837345D01*
G01*
X-290452597Y-59586883D01*
G75*
G02*
X-288863935Y-59500855I837345J-751317D01*
G01*
X-288863935Y-59500855D01*
G75*
G02*
X-288777907Y-61089517I-751317J-837345D01*
G01*
X-290087909Y-62549517D01*
G75*
G02*
X-291676571Y-62635545I-837345J751317D01*
G01*
G37*
%TD.AperFunction*%
X-289615254Y-60338200D03*
%TD*%
%TO.P,MX84,2*%
%TO.N,Net-(D84-Pad2)*%
%TA.AperFunction,ComponentPad*%
G36*
G01*
X-258498021Y-160973095D02*
X-258498907Y-160973034D01*
G75*
G02*
X-259543838Y-159773297I77403J1122334D01*
G01*
X-259503838Y-159193297D01*
G75*
G02*
X-258304101Y-158148366I1122334J-77403D01*
G01*
X-258304101Y-158148366D01*
G75*
G02*
X-257259170Y-159348103I-77403J-1122334D01*
G01*
X-257299170Y-159928103D01*
G75*
G02*
X-258498907Y-160973034I-1122334J77403D01*
G01*
G37*
%TD.AperFunction*%
X-258381504Y-159270700D03*
%TO.P,MX84,1*%
%TO.N,Col13*%
%TA.AperFunction,ComponentPad*%
G36*
G01*
X-265482816Y-162648050D02*
X-265482821Y-162648045D01*
G75*
G02*
X-265568849Y-161059383I751317J837345D01*
G01*
X-264258847Y-159599383D01*
G75*
G02*
X-262670185Y-159513355I837345J-751317D01*
G01*
X-262670185Y-159513355D01*
G75*
G02*
X-262584157Y-161102017I-751317J-837345D01*
G01*
X-263894159Y-162562017D01*
G75*
G02*
X-265482821Y-162648045I-837345J751317D01*
G01*
G37*
%TD.AperFunction*%
X-263421504Y-160350700D03*
%TD*%
%TO.P,MX83,2*%
%TO.N,Net-(D83-Pad2)*%
%TA.AperFunction,ComponentPad*%
G36*
G01*
X-295173538Y-141595827D02*
X-295174409Y-141595998D01*
G75*
G02*
X-296494250Y-140707589I-215716J1104125D01*
G01*
X-296605728Y-140136999D01*
G75*
G02*
X-295717319Y-138817158I1104125J215716D01*
G01*
X-295717319Y-138817158D01*
G75*
G02*
X-294397478Y-139705567I215716J-1104125D01*
G01*
X-294286000Y-140276157D01*
G75*
G02*
X-295174409Y-141595998I-1104125J-215716D01*
G01*
G37*
%TD.AperFunction*%
X-295501603Y-139921283D03*
%TO.P,MX83,1*%
%TO.N,Col13*%
%TA.AperFunction,ComponentPad*%
G36*
G01*
X-301486821Y-145021508D02*
X-301486828Y-145021505D01*
G75*
G02*
X-301981101Y-143509240I508996J1003269D01*
G01*
X-301093613Y-141759936D01*
G75*
G02*
X-299581348Y-141265663I1003269J-508996D01*
G01*
X-299581348Y-141265663D01*
G75*
G02*
X-299087075Y-142777928I-508996J-1003269D01*
G01*
X-299974563Y-144527232D01*
G75*
G02*
X-301486828Y-145021505I-1003269J508996D01*
G01*
G37*
%TD.AperFunction*%
X-300090345Y-142268931D03*
%TD*%
%TO.P,MX82,2*%
%TO.N,Net-(D82-Pad2)*%
%TA.AperFunction,ComponentPad*%
G36*
G01*
X-300104040Y-123194941D02*
X-300104911Y-123195112D01*
G75*
G02*
X-301424752Y-122306703I-215716J1104125D01*
G01*
X-301536230Y-121736113D01*
G75*
G02*
X-300647821Y-120416272I1104125J215716D01*
G01*
X-300647821Y-120416272D01*
G75*
G02*
X-299327980Y-121304681I215716J-1104125D01*
G01*
X-299216502Y-121875271D01*
G75*
G02*
X-300104911Y-123195112I-1104125J-215716D01*
G01*
G37*
%TD.AperFunction*%
X-300432105Y-121520397D03*
%TO.P,MX82,1*%
%TO.N,Col13*%
%TA.AperFunction,ComponentPad*%
G36*
G01*
X-306417323Y-126620622D02*
X-306417330Y-126620619D01*
G75*
G02*
X-306911603Y-125108354I508996J1003269D01*
G01*
X-306024115Y-123359050D01*
G75*
G02*
X-304511850Y-122864777I1003269J-508996D01*
G01*
X-304511850Y-122864777D01*
G75*
G02*
X-304017577Y-124377042I-508996J-1003269D01*
G01*
X-304905065Y-126126346D01*
G75*
G02*
X-306417330Y-126620619I-1003269J508996D01*
G01*
G37*
%TD.AperFunction*%
X-305020847Y-123868045D03*
%TD*%
%TO.P,MX81,2*%
%TO.N,Net-(D81-Pad2)*%
%TA.AperFunction,ComponentPad*%
G36*
G01*
X-305034542Y-104794055D02*
X-305035413Y-104794226D01*
G75*
G02*
X-306355254Y-103905817I-215716J1104125D01*
G01*
X-306466732Y-103335227D01*
G75*
G02*
X-305578323Y-102015386I1104125J215716D01*
G01*
X-305578323Y-102015386D01*
G75*
G02*
X-304258482Y-102903795I215716J-1104125D01*
G01*
X-304147004Y-103474385D01*
G75*
G02*
X-305035413Y-104794226I-1104125J-215716D01*
G01*
G37*
%TD.AperFunction*%
X-305362607Y-103119511D03*
%TO.P,MX81,1*%
%TO.N,Col13*%
%TA.AperFunction,ComponentPad*%
G36*
G01*
X-311347825Y-108219736D02*
X-311347832Y-108219733D01*
G75*
G02*
X-311842105Y-106707468I508996J1003269D01*
G01*
X-310954617Y-104958164D01*
G75*
G02*
X-309442352Y-104463891I1003269J-508996D01*
G01*
X-309442352Y-104463891D01*
G75*
G02*
X-308948079Y-105976156I-508996J-1003269D01*
G01*
X-309835567Y-107725460D01*
G75*
G02*
X-311347832Y-108219733I-1003269J508996D01*
G01*
G37*
%TD.AperFunction*%
X-309951349Y-105467159D03*
%TD*%
%TO.P,MX80,2*%
%TO.N,Net-(D80-Pad2)*%
%TA.AperFunction,ComponentPad*%
G36*
G01*
X-309965044Y-86393169D02*
X-309965915Y-86393340D01*
G75*
G02*
X-311285756Y-85504931I-215716J1104125D01*
G01*
X-311397234Y-84934341D01*
G75*
G02*
X-310508825Y-83614500I1104125J215716D01*
G01*
X-310508825Y-83614500D01*
G75*
G02*
X-309188984Y-84502909I215716J-1104125D01*
G01*
X-309077506Y-85073499D01*
G75*
G02*
X-309965915Y-86393340I-1104125J-215716D01*
G01*
G37*
%TD.AperFunction*%
X-310293109Y-84718625D03*
%TO.P,MX80,1*%
%TO.N,Col13*%
%TA.AperFunction,ComponentPad*%
G36*
G01*
X-316278327Y-89818850D02*
X-316278334Y-89818847D01*
G75*
G02*
X-316772607Y-88306582I508996J1003269D01*
G01*
X-315885119Y-86557278D01*
G75*
G02*
X-314372854Y-86063005I1003269J-508996D01*
G01*
X-314372854Y-86063005D01*
G75*
G02*
X-313878581Y-87575270I-508996J-1003269D01*
G01*
X-314766069Y-89324574D01*
G75*
G02*
X-316278334Y-89818847I-1003269J508996D01*
G01*
G37*
%TD.AperFunction*%
X-314881851Y-87066273D03*
%TD*%
%TO.P,MX79,2*%
%TO.N,Net-(D79-Pad2)*%
%TA.AperFunction,ComponentPad*%
G36*
G01*
X-316128172Y-63392061D02*
X-316129043Y-63392232D01*
G75*
G02*
X-317448884Y-62503823I-215716J1104125D01*
G01*
X-317560362Y-61933233D01*
G75*
G02*
X-316671953Y-60613392I1104125J215716D01*
G01*
X-316671953Y-60613392D01*
G75*
G02*
X-315352112Y-61501801I215716J-1104125D01*
G01*
X-315240634Y-62072391D01*
G75*
G02*
X-316129043Y-63392232I-1104125J-215716D01*
G01*
G37*
%TD.AperFunction*%
X-316456237Y-61717517D03*
%TO.P,MX79,1*%
%TO.N,Col13*%
%TA.AperFunction,ComponentPad*%
G36*
G01*
X-322441455Y-66817742D02*
X-322441462Y-66817739D01*
G75*
G02*
X-322935735Y-65305474I508996J1003269D01*
G01*
X-322048247Y-63556170D01*
G75*
G02*
X-320535982Y-63061897I1003269J-508996D01*
G01*
X-320535982Y-63061897D01*
G75*
G02*
X-320041709Y-64574162I-508996J-1003269D01*
G01*
X-320929197Y-66323466D01*
G75*
G02*
X-322441462Y-66817739I-1003269J508996D01*
G01*
G37*
%TD.AperFunction*%
X-321044979Y-64065165D03*
%TD*%
%TO.P,MX78,2*%
%TO.N,Net-(D78-Pad2)*%
%TA.AperFunction,ComponentPad*%
G36*
G01*
X-310944031Y-165543529D02*
X-310944902Y-165543700D01*
G75*
G02*
X-312264743Y-164655291I-215716J1104125D01*
G01*
X-312376221Y-164084701D01*
G75*
G02*
X-311487812Y-162764860I1104125J215716D01*
G01*
X-311487812Y-162764860D01*
G75*
G02*
X-310167971Y-163653269I215716J-1104125D01*
G01*
X-310056493Y-164223859D01*
G75*
G02*
X-310944902Y-165543700I-1104125J-215716D01*
G01*
G37*
%TD.AperFunction*%
X-311272096Y-163868985D03*
%TO.P,MX78,1*%
%TO.N,Col12*%
%TA.AperFunction,ComponentPad*%
G36*
G01*
X-317257314Y-168969210D02*
X-317257321Y-168969207D01*
G75*
G02*
X-317751594Y-167456942I508996J1003269D01*
G01*
X-316864106Y-165707638D01*
G75*
G02*
X-315351841Y-165213365I1003269J-508996D01*
G01*
X-315351841Y-165213365D01*
G75*
G02*
X-314857568Y-166725630I-508996J-1003269D01*
G01*
X-315745056Y-168474934D01*
G75*
G02*
X-317257321Y-168969207I-1003269J508996D01*
G01*
G37*
%TD.AperFunction*%
X-315860838Y-166216633D03*
%TD*%
%TO.P,MX77,1*%
%TO.N,Col12*%
X-319723858Y-142599212D03*
%TA.AperFunction,ComponentPad*%
G36*
G01*
X-321120334Y-145351789D02*
X-321120341Y-145351786D01*
G75*
G02*
X-321614614Y-143839521I508996J1003269D01*
G01*
X-320727126Y-142090217D01*
G75*
G02*
X-319214861Y-141595944I1003269J-508996D01*
G01*
X-319214861Y-141595944D01*
G75*
G02*
X-318720588Y-143108209I-508996J-1003269D01*
G01*
X-319608076Y-144857513D01*
G75*
G02*
X-321120341Y-145351786I-1003269J508996D01*
G01*
G37*
%TD.AperFunction*%
%TO.P,MX77,2*%
%TO.N,Net-(D77-Pad2)*%
X-315135116Y-140251564D03*
%TA.AperFunction,ComponentPad*%
G36*
G01*
X-314807051Y-141926108D02*
X-314807922Y-141926279D01*
G75*
G02*
X-316127763Y-141037870I-215716J1104125D01*
G01*
X-316239241Y-140467280D01*
G75*
G02*
X-315350832Y-139147439I1104125J215716D01*
G01*
X-315350832Y-139147439D01*
G75*
G02*
X-314030991Y-140035848I215716J-1104125D01*
G01*
X-313919513Y-140606438D01*
G75*
G02*
X-314807922Y-141926279I-1104125J-215716D01*
G01*
G37*
%TD.AperFunction*%
%TD*%
%TO.P,MX76,2*%
%TO.N,Net-(D76-Pad2)*%
%TA.AperFunction,ComponentPad*%
G36*
G01*
X-319737553Y-123525222D02*
X-319738424Y-123525393D01*
G75*
G02*
X-321058265Y-122636984I-215716J1104125D01*
G01*
X-321169743Y-122066394D01*
G75*
G02*
X-320281334Y-120746553I1104125J215716D01*
G01*
X-320281334Y-120746553D01*
G75*
G02*
X-318961493Y-121634962I215716J-1104125D01*
G01*
X-318850015Y-122205552D01*
G75*
G02*
X-319738424Y-123525393I-1104125J-215716D01*
G01*
G37*
%TD.AperFunction*%
X-320065618Y-121850678D03*
%TO.P,MX76,1*%
%TO.N,Col12*%
%TA.AperFunction,ComponentPad*%
G36*
G01*
X-326050836Y-126950903D02*
X-326050843Y-126950900D01*
G75*
G02*
X-326545116Y-125438635I508996J1003269D01*
G01*
X-325657628Y-123689331D01*
G75*
G02*
X-324145363Y-123195058I1003269J-508996D01*
G01*
X-324145363Y-123195058D01*
G75*
G02*
X-323651090Y-124707323I-508996J-1003269D01*
G01*
X-324538578Y-126456627D01*
G75*
G02*
X-326050843Y-126950900I-1003269J508996D01*
G01*
G37*
%TD.AperFunction*%
X-324654360Y-124198326D03*
%TD*%
%TO.P,MX75,2*%
%TO.N,Net-(D75-Pad2)*%
%TA.AperFunction,ComponentPad*%
G36*
G01*
X-324668055Y-105124336D02*
X-324668926Y-105124507D01*
G75*
G02*
X-325988767Y-104236098I-215716J1104125D01*
G01*
X-326100245Y-103665508D01*
G75*
G02*
X-325211836Y-102345667I1104125J215716D01*
G01*
X-325211836Y-102345667D01*
G75*
G02*
X-323891995Y-103234076I215716J-1104125D01*
G01*
X-323780517Y-103804666D01*
G75*
G02*
X-324668926Y-105124507I-1104125J-215716D01*
G01*
G37*
%TD.AperFunction*%
X-324996120Y-103449792D03*
%TO.P,MX75,1*%
%TO.N,Col12*%
%TA.AperFunction,ComponentPad*%
G36*
G01*
X-330981338Y-108550017D02*
X-330981345Y-108550014D01*
G75*
G02*
X-331475618Y-107037749I508996J1003269D01*
G01*
X-330588130Y-105288445D01*
G75*
G02*
X-329075865Y-104794172I1003269J-508996D01*
G01*
X-329075865Y-104794172D01*
G75*
G02*
X-328581592Y-106306437I-508996J-1003269D01*
G01*
X-329469080Y-108055741D01*
G75*
G02*
X-330981345Y-108550014I-1003269J508996D01*
G01*
G37*
%TD.AperFunction*%
X-329584862Y-105797440D03*
%TD*%
%TO.P,MX74,2*%
%TO.N,Net-(D74-Pad2)*%
%TA.AperFunction,ComponentPad*%
G36*
G01*
X-329598557Y-86723450D02*
X-329599428Y-86723621D01*
G75*
G02*
X-330919269Y-85835212I-215716J1104125D01*
G01*
X-331030747Y-85264622D01*
G75*
G02*
X-330142338Y-83944781I1104125J215716D01*
G01*
X-330142338Y-83944781D01*
G75*
G02*
X-328822497Y-84833190I215716J-1104125D01*
G01*
X-328711019Y-85403780D01*
G75*
G02*
X-329599428Y-86723621I-1104125J-215716D01*
G01*
G37*
%TD.AperFunction*%
X-329926622Y-85048906D03*
%TO.P,MX74,1*%
%TO.N,Col12*%
%TA.AperFunction,ComponentPad*%
G36*
G01*
X-335911840Y-90149131D02*
X-335911847Y-90149128D01*
G75*
G02*
X-336406120Y-88636863I508996J1003269D01*
G01*
X-335518632Y-86887559D01*
G75*
G02*
X-334006367Y-86393286I1003269J-508996D01*
G01*
X-334006367Y-86393286D01*
G75*
G02*
X-333512094Y-87905551I-508996J-1003269D01*
G01*
X-334399582Y-89654855D01*
G75*
G02*
X-335911847Y-90149128I-1003269J508996D01*
G01*
G37*
%TD.AperFunction*%
X-334515364Y-87396554D03*
%TD*%
%TO.P,MX73,2*%
%TO.N,Net-(D73-Pad2)*%
%TA.AperFunction,ComponentPad*%
G36*
G01*
X-335761685Y-63722342D02*
X-335762556Y-63722513D01*
G75*
G02*
X-337082397Y-62834104I-215716J1104125D01*
G01*
X-337193875Y-62263514D01*
G75*
G02*
X-336305466Y-60943673I1104125J215716D01*
G01*
X-336305466Y-60943673D01*
G75*
G02*
X-334985625Y-61832082I215716J-1104125D01*
G01*
X-334874147Y-62402672D01*
G75*
G02*
X-335762556Y-63722513I-1104125J-215716D01*
G01*
G37*
%TD.AperFunction*%
X-336089750Y-62047798D03*
%TO.P,MX73,1*%
%TO.N,Col12*%
%TA.AperFunction,ComponentPad*%
G36*
G01*
X-342074968Y-67148023D02*
X-342074975Y-67148020D01*
G75*
G02*
X-342569248Y-65635755I508996J1003269D01*
G01*
X-341681760Y-63886451D01*
G75*
G02*
X-340169495Y-63392178I1003269J-508996D01*
G01*
X-340169495Y-63392178D01*
G75*
G02*
X-339675222Y-64904443I-508996J-1003269D01*
G01*
X-340562710Y-66653747D01*
G75*
G02*
X-342074975Y-67148020I-1003269J508996D01*
G01*
G37*
%TD.AperFunction*%
X-340678492Y-64395446D03*
%TD*%
%TO.P,MX71,2*%
%TO.N,Net-(D71-Pad2)*%
%TA.AperFunction,ComponentPad*%
G36*
G01*
X-331975311Y-151456832D02*
X-331976182Y-151457003D01*
G75*
G02*
X-333296023Y-150568594I-215716J1104125D01*
G01*
X-333407501Y-149998004D01*
G75*
G02*
X-332519092Y-148678163I1104125J215716D01*
G01*
X-332519092Y-148678163D01*
G75*
G02*
X-331199251Y-149566572I215716J-1104125D01*
G01*
X-331087773Y-150137162D01*
G75*
G02*
X-331976182Y-151457003I-1104125J-215716D01*
G01*
G37*
%TD.AperFunction*%
X-332303376Y-149782288D03*
%TO.P,MX71,1*%
%TO.N,Col11*%
%TA.AperFunction,ComponentPad*%
G36*
G01*
X-338288594Y-154882513D02*
X-338288601Y-154882510D01*
G75*
G02*
X-338782874Y-153370245I508996J1003269D01*
G01*
X-337895386Y-151620941D01*
G75*
G02*
X-336383121Y-151126668I1003269J-508996D01*
G01*
X-336383121Y-151126668D01*
G75*
G02*
X-335888848Y-152638933I-508996J-1003269D01*
G01*
X-336776336Y-154388237D01*
G75*
G02*
X-338288601Y-154882510I-1003269J508996D01*
G01*
G37*
%TD.AperFunction*%
X-336892118Y-152129936D03*
%TD*%
%TO.P,MX70,2*%
%TO.N,Net-(D70-Pad2)*%
%TA.AperFunction,ComponentPad*%
G36*
G01*
X-336905813Y-133055946D02*
X-336906684Y-133056117D01*
G75*
G02*
X-338226525Y-132167708I-215716J1104125D01*
G01*
X-338338003Y-131597118D01*
G75*
G02*
X-337449594Y-130277277I1104125J215716D01*
G01*
X-337449594Y-130277277D01*
G75*
G02*
X-336129753Y-131165686I215716J-1104125D01*
G01*
X-336018275Y-131736276D01*
G75*
G02*
X-336906684Y-133056117I-1104125J-215716D01*
G01*
G37*
%TD.AperFunction*%
X-337233878Y-131381402D03*
%TO.P,MX70,1*%
%TO.N,Col11*%
%TA.AperFunction,ComponentPad*%
G36*
G01*
X-343219096Y-136481627D02*
X-343219103Y-136481624D01*
G75*
G02*
X-343713376Y-134969359I508996J1003269D01*
G01*
X-342825888Y-133220055D01*
G75*
G02*
X-341313623Y-132725782I1003269J-508996D01*
G01*
X-341313623Y-132725782D01*
G75*
G02*
X-340819350Y-134238047I-508996J-1003269D01*
G01*
X-341706838Y-135987351D01*
G75*
G02*
X-343219103Y-136481624I-1003269J508996D01*
G01*
G37*
%TD.AperFunction*%
X-341822620Y-133729050D03*
%TD*%
%TO.P,MX69,2*%
%TO.N,Net-(D69-Pad2)*%
%TA.AperFunction,ComponentPad*%
G36*
G01*
X-341836315Y-114655060D02*
X-341837186Y-114655231D01*
G75*
G02*
X-343157027Y-113766822I-215716J1104125D01*
G01*
X-343268505Y-113196232D01*
G75*
G02*
X-342380096Y-111876391I1104125J215716D01*
G01*
X-342380096Y-111876391D01*
G75*
G02*
X-341060255Y-112764800I215716J-1104125D01*
G01*
X-340948777Y-113335390D01*
G75*
G02*
X-341837186Y-114655231I-1104125J-215716D01*
G01*
G37*
%TD.AperFunction*%
X-342164380Y-112980516D03*
%TO.P,MX69,1*%
%TO.N,Col11*%
%TA.AperFunction,ComponentPad*%
G36*
G01*
X-348149598Y-118080741D02*
X-348149605Y-118080738D01*
G75*
G02*
X-348643878Y-116568473I508996J1003269D01*
G01*
X-347756390Y-114819169D01*
G75*
G02*
X-346244125Y-114324896I1003269J-508996D01*
G01*
X-346244125Y-114324896D01*
G75*
G02*
X-345749852Y-115837161I-508996J-1003269D01*
G01*
X-346637340Y-117586465D01*
G75*
G02*
X-348149605Y-118080738I-1003269J508996D01*
G01*
G37*
%TD.AperFunction*%
X-346753122Y-115328164D03*
%TD*%
%TO.P,MX68,2*%
%TO.N,Net-(D68-Pad2)*%
%TA.AperFunction,ComponentPad*%
G36*
G01*
X-346766817Y-96254174D02*
X-346767688Y-96254345D01*
G75*
G02*
X-348087529Y-95365936I-215716J1104125D01*
G01*
X-348199007Y-94795346D01*
G75*
G02*
X-347310598Y-93475505I1104125J215716D01*
G01*
X-347310598Y-93475505D01*
G75*
G02*
X-345990757Y-94363914I215716J-1104125D01*
G01*
X-345879279Y-94934504D01*
G75*
G02*
X-346767688Y-96254345I-1104125J-215716D01*
G01*
G37*
%TD.AperFunction*%
X-347094882Y-94579630D03*
%TO.P,MX68,1*%
%TO.N,Col11*%
%TA.AperFunction,ComponentPad*%
G36*
G01*
X-353080100Y-99679855D02*
X-353080107Y-99679852D01*
G75*
G02*
X-353574380Y-98167587I508996J1003269D01*
G01*
X-352686892Y-96418283D01*
G75*
G02*
X-351174627Y-95924010I1003269J-508996D01*
G01*
X-351174627Y-95924010D01*
G75*
G02*
X-350680354Y-97436275I-508996J-1003269D01*
G01*
X-351567842Y-99185579D01*
G75*
G02*
X-353080107Y-99679852I-1003269J508996D01*
G01*
G37*
%TD.AperFunction*%
X-351683624Y-96927278D03*
%TD*%
%TO.P,MX67,2*%
%TO.N,Net-(D67-Pad2)*%
%TA.AperFunction,ComponentPad*%
G36*
G01*
X-352929945Y-73253066D02*
X-352930816Y-73253237D01*
G75*
G02*
X-354250657Y-72364828I-215716J1104125D01*
G01*
X-354362135Y-71794238D01*
G75*
G02*
X-353473726Y-70474397I1104125J215716D01*
G01*
X-353473726Y-70474397D01*
G75*
G02*
X-352153885Y-71362806I215716J-1104125D01*
G01*
X-352042407Y-71933396D01*
G75*
G02*
X-352930816Y-73253237I-1104125J-215716D01*
G01*
G37*
%TD.AperFunction*%
X-353258010Y-71578522D03*
%TO.P,MX67,1*%
%TO.N,Col11*%
%TA.AperFunction,ComponentPad*%
G36*
G01*
X-359243228Y-76678747D02*
X-359243235Y-76678744D01*
G75*
G02*
X-359737508Y-75166479I508996J1003269D01*
G01*
X-358850020Y-73417175D01*
G75*
G02*
X-357337755Y-72922902I1003269J-508996D01*
G01*
X-357337755Y-72922902D01*
G75*
G02*
X-356843482Y-74435167I-508996J-1003269D01*
G01*
X-357730970Y-76184471D01*
G75*
G02*
X-359243235Y-76678744I-1003269J508996D01*
G01*
G37*
%TD.AperFunction*%
X-357846752Y-73926170D03*
%TD*%
%TO.P,MX66,1*%
%TO.N,Col10*%
X-372461264Y-166591162D03*
%TA.AperFunction,ComponentPad*%
G36*
G01*
X-373857740Y-169343739D02*
X-373857747Y-169343736D01*
G75*
G02*
X-374352020Y-167831471I508996J1003269D01*
G01*
X-373464532Y-166082167D01*
G75*
G02*
X-371952267Y-165587894I1003269J-508996D01*
G01*
X-371952267Y-165587894D01*
G75*
G02*
X-371457994Y-167100159I-508996J-1003269D01*
G01*
X-372345482Y-168849463D01*
G75*
G02*
X-373857747Y-169343736I-1003269J508996D01*
G01*
G37*
%TD.AperFunction*%
%TO.P,MX66,2*%
%TO.N,Net-(D66-Pad2)*%
X-367872522Y-164243514D03*
%TA.AperFunction,ComponentPad*%
G36*
G01*
X-367544457Y-165918058D02*
X-367545328Y-165918229D01*
G75*
G02*
X-368865169Y-165029820I-215716J1104125D01*
G01*
X-368976647Y-164459230D01*
G75*
G02*
X-368088238Y-163139389I1104125J215716D01*
G01*
X-368088238Y-163139389D01*
G75*
G02*
X-366768397Y-164027798I215716J-1104125D01*
G01*
X-366656919Y-164598388D01*
G75*
G02*
X-367545328Y-165918229I-1104125J-215716D01*
G01*
G37*
%TD.AperFunction*%
%TD*%
%TO.P,MX65,2*%
%TO.N,Net-(D65-Pad2)*%
%TA.AperFunction,ComponentPad*%
G36*
G01*
X-349143571Y-160987556D02*
X-349144442Y-160987727D01*
G75*
G02*
X-350464283Y-160099318I-215716J1104125D01*
G01*
X-350575761Y-159528728D01*
G75*
G02*
X-349687352Y-158208887I1104125J215716D01*
G01*
X-349687352Y-158208887D01*
G75*
G02*
X-348367511Y-159097296I215716J-1104125D01*
G01*
X-348256033Y-159667886D01*
G75*
G02*
X-349144442Y-160987727I-1104125J-215716D01*
G01*
G37*
%TD.AperFunction*%
X-349471636Y-159313012D03*
%TO.P,MX65,1*%
%TO.N,Col10*%
%TA.AperFunction,ComponentPad*%
G36*
G01*
X-355456854Y-164413237D02*
X-355456861Y-164413234D01*
G75*
G02*
X-355951134Y-162900969I508996J1003269D01*
G01*
X-355063646Y-161151665D01*
G75*
G02*
X-353551381Y-160657392I1003269J-508996D01*
G01*
X-353551381Y-160657392D01*
G75*
G02*
X-353057108Y-162169657I-508996J-1003269D01*
G01*
X-353944596Y-163918961D01*
G75*
G02*
X-355456861Y-164413234I-1003269J508996D01*
G01*
G37*
%TD.AperFunction*%
X-354060378Y-161660660D03*
%TD*%
%TO.P,MX64,2*%
%TO.N,Net-(D64-Pad2)*%
%TA.AperFunction,ComponentPad*%
G36*
G01*
X-354074073Y-142586670D02*
X-354074944Y-142586841D01*
G75*
G02*
X-355394785Y-141698432I-215716J1104125D01*
G01*
X-355506263Y-141127842D01*
G75*
G02*
X-354617854Y-139808001I1104125J215716D01*
G01*
X-354617854Y-139808001D01*
G75*
G02*
X-353298013Y-140696410I215716J-1104125D01*
G01*
X-353186535Y-141267000D01*
G75*
G02*
X-354074944Y-142586841I-1104125J-215716D01*
G01*
G37*
%TD.AperFunction*%
X-354402138Y-140912126D03*
%TO.P,MX64,1*%
%TO.N,Col10*%
%TA.AperFunction,ComponentPad*%
G36*
G01*
X-360387356Y-146012351D02*
X-360387363Y-146012348D01*
G75*
G02*
X-360881636Y-144500083I508996J1003269D01*
G01*
X-359994148Y-142750779D01*
G75*
G02*
X-358481883Y-142256506I1003269J-508996D01*
G01*
X-358481883Y-142256506D01*
G75*
G02*
X-357987610Y-143768771I-508996J-1003269D01*
G01*
X-358875098Y-145518075D01*
G75*
G02*
X-360387363Y-146012348I-1003269J508996D01*
G01*
G37*
%TD.AperFunction*%
X-358990880Y-143259774D03*
%TD*%
%TO.P,MX63,1*%
%TO.N,Col10*%
X-363921382Y-124858888D03*
%TA.AperFunction,ComponentPad*%
G36*
G01*
X-365317858Y-127611465D02*
X-365317865Y-127611462D01*
G75*
G02*
X-365812138Y-126099197I508996J1003269D01*
G01*
X-364924650Y-124349893D01*
G75*
G02*
X-363412385Y-123855620I1003269J-508996D01*
G01*
X-363412385Y-123855620D01*
G75*
G02*
X-362918112Y-125367885I-508996J-1003269D01*
G01*
X-363805600Y-127117189D01*
G75*
G02*
X-365317865Y-127611462I-1003269J508996D01*
G01*
G37*
%TD.AperFunction*%
%TO.P,MX63,2*%
%TO.N,Net-(D63-Pad2)*%
X-359332640Y-122511240D03*
%TA.AperFunction,ComponentPad*%
G36*
G01*
X-359004575Y-124185784D02*
X-359005446Y-124185955D01*
G75*
G02*
X-360325287Y-123297546I-215716J1104125D01*
G01*
X-360436765Y-122726956D01*
G75*
G02*
X-359548356Y-121407115I1104125J215716D01*
G01*
X-359548356Y-121407115D01*
G75*
G02*
X-358228515Y-122295524I215716J-1104125D01*
G01*
X-358117037Y-122866114D01*
G75*
G02*
X-359005446Y-124185955I-1104125J-215716D01*
G01*
G37*
%TD.AperFunction*%
%TD*%
%TO.P,MX62,2*%
%TO.N,Net-(D62-Pad2)*%
%TA.AperFunction,ComponentPad*%
G36*
G01*
X-363935077Y-105784898D02*
X-363935948Y-105785069D01*
G75*
G02*
X-365255789Y-104896660I-215716J1104125D01*
G01*
X-365367267Y-104326070D01*
G75*
G02*
X-364478858Y-103006229I1104125J215716D01*
G01*
X-364478858Y-103006229D01*
G75*
G02*
X-363159017Y-103894638I215716J-1104125D01*
G01*
X-363047539Y-104465228D01*
G75*
G02*
X-363935948Y-105785069I-1104125J-215716D01*
G01*
G37*
%TD.AperFunction*%
X-364263142Y-104110354D03*
%TO.P,MX62,1*%
%TO.N,Col10*%
%TA.AperFunction,ComponentPad*%
G36*
G01*
X-370248360Y-109210579D02*
X-370248367Y-109210576D01*
G75*
G02*
X-370742640Y-107698311I508996J1003269D01*
G01*
X-369855152Y-105949007D01*
G75*
G02*
X-368342887Y-105454734I1003269J-508996D01*
G01*
X-368342887Y-105454734D01*
G75*
G02*
X-367848614Y-106966999I-508996J-1003269D01*
G01*
X-368736102Y-108716303D01*
G75*
G02*
X-370248367Y-109210576I-1003269J508996D01*
G01*
G37*
%TD.AperFunction*%
X-368851884Y-106458002D03*
%TD*%
%TO.P,MX61,2*%
%TO.N,Net-(D61-Pad2)*%
%TA.AperFunction,ComponentPad*%
G36*
G01*
X-370098205Y-82783790D02*
X-370099076Y-82783961D01*
G75*
G02*
X-371418917Y-81895552I-215716J1104125D01*
G01*
X-371530395Y-81324962D01*
G75*
G02*
X-370641986Y-80005121I1104125J215716D01*
G01*
X-370641986Y-80005121D01*
G75*
G02*
X-369322145Y-80893530I215716J-1104125D01*
G01*
X-369210667Y-81464120D01*
G75*
G02*
X-370099076Y-82783961I-1104125J-215716D01*
G01*
G37*
%TD.AperFunction*%
X-370426270Y-81109246D03*
%TO.P,MX61,1*%
%TO.N,Col10*%
%TA.AperFunction,ComponentPad*%
G36*
G01*
X-376411488Y-86209471D02*
X-376411495Y-86209468D01*
G75*
G02*
X-376905768Y-84697203I508996J1003269D01*
G01*
X-376018280Y-82947899D01*
G75*
G02*
X-374506015Y-82453626I1003269J-508996D01*
G01*
X-374506015Y-82453626D01*
G75*
G02*
X-374011742Y-83965891I-508996J-1003269D01*
G01*
X-374899230Y-85715195D01*
G75*
G02*
X-376411495Y-86209468I-1003269J508996D01*
G01*
G37*
%TD.AperFunction*%
X-375015012Y-83456894D03*
%TD*%
%TO.P,MX60,2*%
%TO.N,Net-(D60-Pad2)*%
%TA.AperFunction,ComponentPad*%
G36*
G01*
X-394371080Y-167172545D02*
X-394371920Y-167172257D01*
G75*
G02*
X-395070731Y-165742952I365247J1064058D01*
G01*
X-394881979Y-165193068D01*
G75*
G02*
X-393452674Y-164494257I1064058J-365247D01*
G01*
X-393452674Y-164494257D01*
G75*
G02*
X-392753863Y-165923562I-365247J-1064058D01*
G01*
X-392942615Y-166473446D01*
G75*
G02*
X-394371920Y-167172257I-1064058J365247D01*
G01*
G37*
%TD.AperFunction*%
X-393817921Y-165558315D03*
%TO.P,MX60,1*%
%TO.N,Col9*%
%TA.AperFunction,ComponentPad*%
G36*
G01*
X-401551384Y-166982631D02*
X-401551388Y-166982624D01*
G75*
G02*
X-401223308Y-165425828I942438J614358D01*
G01*
X-399580068Y-164354630D01*
G75*
G02*
X-398023272Y-164682710I614358J-942438D01*
G01*
X-398023272Y-164682710D01*
G75*
G02*
X-398351352Y-166239506I-942438J-614358D01*
G01*
X-399994592Y-167310704D01*
G75*
G02*
X-401551388Y-166982624I-614358J942438D01*
G01*
G37*
%TD.AperFunction*%
X-398965711Y-165297067D03*
%TD*%
%TO.P,MX59,2*%
%TO.N,Net-(D59-Pad2)*%
%TA.AperFunction,ComponentPad*%
G36*
G01*
X-412771966Y-162242043D02*
X-412772806Y-162241755D01*
G75*
G02*
X-413471617Y-160812450I365247J1064058D01*
G01*
X-413282865Y-160262566D01*
G75*
G02*
X-411853560Y-159563755I1064058J-365247D01*
G01*
X-411853560Y-159563755D01*
G75*
G02*
X-411154749Y-160993060I-365247J-1064058D01*
G01*
X-411343501Y-161542944D01*
G75*
G02*
X-412772806Y-162241755I-1064058J365247D01*
G01*
G37*
%TD.AperFunction*%
X-412218807Y-160627813D03*
%TO.P,MX59,1*%
%TO.N,Col9*%
%TA.AperFunction,ComponentPad*%
G36*
G01*
X-419952270Y-162052129D02*
X-419952274Y-162052122D01*
G75*
G02*
X-419624194Y-160495326I942438J614358D01*
G01*
X-417980954Y-159424128D01*
G75*
G02*
X-416424158Y-159752208I614358J-942438D01*
G01*
X-416424158Y-159752208D01*
G75*
G02*
X-416752238Y-161309004I-942438J-614358D01*
G01*
X-418395478Y-162380202D01*
G75*
G02*
X-419952274Y-162052122I-614358J942438D01*
G01*
G37*
%TD.AperFunction*%
X-417366597Y-160366565D03*
%TD*%
%TO.P,MX58,2*%
%TO.N,Net-(D58-Pad2)*%
%TA.AperFunction,ComponentPad*%
G36*
G01*
X-407841464Y-143841157D02*
X-407842304Y-143840869D01*
G75*
G02*
X-408541115Y-142411564I365247J1064058D01*
G01*
X-408352363Y-141861680D01*
G75*
G02*
X-406923058Y-141162869I1064058J-365247D01*
G01*
X-406923058Y-141162869D01*
G75*
G02*
X-406224247Y-142592174I-365247J-1064058D01*
G01*
X-406412999Y-143142058D01*
G75*
G02*
X-407842304Y-143840869I-1064058J365247D01*
G01*
G37*
%TD.AperFunction*%
X-407288305Y-142226927D03*
%TO.P,MX58,1*%
%TO.N,Col9*%
%TA.AperFunction,ComponentPad*%
G36*
G01*
X-415021768Y-143651243D02*
X-415021772Y-143651236D01*
G75*
G02*
X-414693692Y-142094440I942438J614358D01*
G01*
X-413050452Y-141023242D01*
G75*
G02*
X-411493656Y-141351322I614358J-942438D01*
G01*
X-411493656Y-141351322D01*
G75*
G02*
X-411821736Y-142908118I-942438J-614358D01*
G01*
X-413464976Y-143979316D01*
G75*
G02*
X-415021772Y-143651236I-614358J942438D01*
G01*
G37*
%TD.AperFunction*%
X-412436095Y-141965679D03*
%TD*%
%TO.P,MX57,2*%
%TO.N,Net-(D57-Pad2)*%
%TA.AperFunction,ComponentPad*%
G36*
G01*
X-402910962Y-125440271D02*
X-402911802Y-125439983D01*
G75*
G02*
X-403610613Y-124010678I365247J1064058D01*
G01*
X-403421861Y-123460794D01*
G75*
G02*
X-401992556Y-122761983I1064058J-365247D01*
G01*
X-401992556Y-122761983D01*
G75*
G02*
X-401293745Y-124191288I-365247J-1064058D01*
G01*
X-401482497Y-124741172D01*
G75*
G02*
X-402911802Y-125439983I-1064058J365247D01*
G01*
G37*
%TD.AperFunction*%
X-402357803Y-123826041D03*
%TO.P,MX57,1*%
%TO.N,Col9*%
%TA.AperFunction,ComponentPad*%
G36*
G01*
X-410091266Y-125250357D02*
X-410091270Y-125250350D01*
G75*
G02*
X-409763190Y-123693554I942438J614358D01*
G01*
X-408119950Y-122622356D01*
G75*
G02*
X-406563154Y-122950436I614358J-942438D01*
G01*
X-406563154Y-122950436D01*
G75*
G02*
X-406891234Y-124507232I-942438J-614358D01*
G01*
X-408534474Y-125578430D01*
G75*
G02*
X-410091270Y-125250350I-614358J942438D01*
G01*
G37*
%TD.AperFunction*%
X-407505593Y-123564793D03*
%TD*%
%TO.P,MX56,2*%
%TO.N,Net-(D56-Pad2)*%
%TA.AperFunction,ComponentPad*%
G36*
G01*
X-397980460Y-107039385D02*
X-397981300Y-107039097D01*
G75*
G02*
X-398680111Y-105609792I365247J1064058D01*
G01*
X-398491359Y-105059908D01*
G75*
G02*
X-397062054Y-104361097I1064058J-365247D01*
G01*
X-397062054Y-104361097D01*
G75*
G02*
X-396363243Y-105790402I-365247J-1064058D01*
G01*
X-396551995Y-106340286D01*
G75*
G02*
X-397981300Y-107039097I-1064058J365247D01*
G01*
G37*
%TD.AperFunction*%
X-397427301Y-105425155D03*
%TO.P,MX56,1*%
%TO.N,Col9*%
%TA.AperFunction,ComponentPad*%
G36*
G01*
X-405160764Y-106849471D02*
X-405160768Y-106849464D01*
G75*
G02*
X-404832688Y-105292668I942438J614358D01*
G01*
X-403189448Y-104221470D01*
G75*
G02*
X-401632652Y-104549550I614358J-942438D01*
G01*
X-401632652Y-104549550D01*
G75*
G02*
X-401960732Y-106106346I-942438J-614358D01*
G01*
X-403603972Y-107177544D01*
G75*
G02*
X-405160768Y-106849464I-614358J942438D01*
G01*
G37*
%TD.AperFunction*%
X-402575091Y-105163907D03*
%TD*%
%TO.P,MX55,2*%
%TO.N,Net-(D55-Pad2)*%
%TA.AperFunction,ComponentPad*%
G36*
G01*
X-391817332Y-84038277D02*
X-391818172Y-84037989D01*
G75*
G02*
X-392516983Y-82608684I365247J1064058D01*
G01*
X-392328231Y-82058800D01*
G75*
G02*
X-390898926Y-81359989I1064058J-365247D01*
G01*
X-390898926Y-81359989D01*
G75*
G02*
X-390200115Y-82789294I-365247J-1064058D01*
G01*
X-390388867Y-83339178D01*
G75*
G02*
X-391818172Y-84037989I-1064058J365247D01*
G01*
G37*
%TD.AperFunction*%
X-391264173Y-82424047D03*
%TO.P,MX55,1*%
%TO.N,Col9*%
%TA.AperFunction,ComponentPad*%
G36*
G01*
X-398997636Y-83848363D02*
X-398997640Y-83848356D01*
G75*
G02*
X-398669560Y-82291560I942438J614358D01*
G01*
X-397026320Y-81220362D01*
G75*
G02*
X-395469524Y-81548442I614358J-942438D01*
G01*
X-395469524Y-81548442D01*
G75*
G02*
X-395797604Y-83105238I-942438J-614358D01*
G01*
X-397440844Y-84176436D01*
G75*
G02*
X-398997640Y-83848356I-614358J942438D01*
G01*
G37*
%TD.AperFunction*%
X-396411963Y-82162799D03*
%TD*%
%TO.P,MX53,2*%
%TO.N,Net-(D53-Pad2)*%
%TA.AperFunction,ComponentPad*%
G36*
G01*
X-429940226Y-152711319D02*
X-429941066Y-152711031D01*
G75*
G02*
X-430639877Y-151281726I365247J1064058D01*
G01*
X-430451125Y-150731842D01*
G75*
G02*
X-429021820Y-150033031I1064058J-365247D01*
G01*
X-429021820Y-150033031D01*
G75*
G02*
X-428323009Y-151462336I-365247J-1064058D01*
G01*
X-428511761Y-152012220D01*
G75*
G02*
X-429941066Y-152711031I-1064058J365247D01*
G01*
G37*
%TD.AperFunction*%
X-429387067Y-151097089D03*
%TO.P,MX53,1*%
%TO.N,Col8*%
%TA.AperFunction,ComponentPad*%
G36*
G01*
X-437120530Y-152521405D02*
X-437120534Y-152521398D01*
G75*
G02*
X-436792454Y-150964602I942438J614358D01*
G01*
X-435149214Y-149893404D01*
G75*
G02*
X-433592418Y-150221484I614358J-942438D01*
G01*
X-433592418Y-150221484D01*
G75*
G02*
X-433920498Y-151778280I-942438J-614358D01*
G01*
X-435563738Y-152849478D01*
G75*
G02*
X-437120534Y-152521398I-614358J942438D01*
G01*
G37*
%TD.AperFunction*%
X-434534857Y-150835841D03*
%TD*%
%TO.P,MX52,2*%
%TO.N,Net-(D52-Pad2)*%
%TA.AperFunction,ComponentPad*%
G36*
G01*
X-425009724Y-134310433D02*
X-425010564Y-134310145D01*
G75*
G02*
X-425709375Y-132880840I365247J1064058D01*
G01*
X-425520623Y-132330956D01*
G75*
G02*
X-424091318Y-131632145I1064058J-365247D01*
G01*
X-424091318Y-131632145D01*
G75*
G02*
X-423392507Y-133061450I-365247J-1064058D01*
G01*
X-423581259Y-133611334D01*
G75*
G02*
X-425010564Y-134310145I-1064058J365247D01*
G01*
G37*
%TD.AperFunction*%
X-424456565Y-132696203D03*
%TO.P,MX52,1*%
%TO.N,Col8*%
%TA.AperFunction,ComponentPad*%
G36*
G01*
X-432190028Y-134120519D02*
X-432190032Y-134120512D01*
G75*
G02*
X-431861952Y-132563716I942438J614358D01*
G01*
X-430218712Y-131492518D01*
G75*
G02*
X-428661916Y-131820598I614358J-942438D01*
G01*
X-428661916Y-131820598D01*
G75*
G02*
X-428989996Y-133377394I-942438J-614358D01*
G01*
X-430633236Y-134448592D01*
G75*
G02*
X-432190032Y-134120512I-614358J942438D01*
G01*
G37*
%TD.AperFunction*%
X-429604355Y-132434955D03*
%TD*%
%TO.P,MX51,2*%
%TO.N,Net-(D51-Pad2)*%
%TA.AperFunction,ComponentPad*%
G36*
G01*
X-420079222Y-115909547D02*
X-420080062Y-115909259D01*
G75*
G02*
X-420778873Y-114479954I365247J1064058D01*
G01*
X-420590121Y-113930070D01*
G75*
G02*
X-419160816Y-113231259I1064058J-365247D01*
G01*
X-419160816Y-113231259D01*
G75*
G02*
X-418462005Y-114660564I-365247J-1064058D01*
G01*
X-418650757Y-115210448D01*
G75*
G02*
X-420080062Y-115909259I-1064058J365247D01*
G01*
G37*
%TD.AperFunction*%
X-419526063Y-114295317D03*
%TO.P,MX51,1*%
%TO.N,Col8*%
%TA.AperFunction,ComponentPad*%
G36*
G01*
X-427259526Y-115719633D02*
X-427259530Y-115719626D01*
G75*
G02*
X-426931450Y-114162830I942438J614358D01*
G01*
X-425288210Y-113091632D01*
G75*
G02*
X-423731414Y-113419712I614358J-942438D01*
G01*
X-423731414Y-113419712D01*
G75*
G02*
X-424059494Y-114976508I-942438J-614358D01*
G01*
X-425702734Y-116047706D01*
G75*
G02*
X-427259530Y-115719626I-614358J942438D01*
G01*
G37*
%TD.AperFunction*%
X-424673853Y-114034069D03*
%TD*%
%TO.P,MX50,2*%
%TO.N,Net-(D50-Pad2)*%
%TA.AperFunction,ComponentPad*%
G36*
G01*
X-415148720Y-97508661D02*
X-415149560Y-97508373D01*
G75*
G02*
X-415848371Y-96079068I365247J1064058D01*
G01*
X-415659619Y-95529184D01*
G75*
G02*
X-414230314Y-94830373I1064058J-365247D01*
G01*
X-414230314Y-94830373D01*
G75*
G02*
X-413531503Y-96259678I-365247J-1064058D01*
G01*
X-413720255Y-96809562D01*
G75*
G02*
X-415149560Y-97508373I-1064058J365247D01*
G01*
G37*
%TD.AperFunction*%
X-414595561Y-95894431D03*
%TO.P,MX50,1*%
%TO.N,Col8*%
%TA.AperFunction,ComponentPad*%
G36*
G01*
X-422329024Y-97318747D02*
X-422329028Y-97318740D01*
G75*
G02*
X-422000948Y-95761944I942438J614358D01*
G01*
X-420357708Y-94690746D01*
G75*
G02*
X-418800912Y-95018826I614358J-942438D01*
G01*
X-418800912Y-95018826D01*
G75*
G02*
X-419128992Y-96575622I-942438J-614358D01*
G01*
X-420772232Y-97646820D01*
G75*
G02*
X-422329028Y-97318740I-614358J942438D01*
G01*
G37*
%TD.AperFunction*%
X-419743351Y-95633183D03*
%TD*%
%TO.P,MX49,2*%
%TO.N,Net-(D49-Pad2)*%
%TA.AperFunction,ComponentPad*%
G36*
G01*
X-408985592Y-74507553D02*
X-408986432Y-74507265D01*
G75*
G02*
X-409685243Y-73077960I365247J1064058D01*
G01*
X-409496491Y-72528076D01*
G75*
G02*
X-408067186Y-71829265I1064058J-365247D01*
G01*
X-408067186Y-71829265D01*
G75*
G02*
X-407368375Y-73258570I-365247J-1064058D01*
G01*
X-407557127Y-73808454D01*
G75*
G02*
X-408986432Y-74507265I-1064058J365247D01*
G01*
G37*
%TD.AperFunction*%
X-408432433Y-72893323D03*
%TO.P,MX49,1*%
%TO.N,Col8*%
%TA.AperFunction,ComponentPad*%
G36*
G01*
X-416165896Y-74317639D02*
X-416165900Y-74317632D01*
G75*
G02*
X-415837820Y-72760836I942438J614358D01*
G01*
X-414194580Y-71689638D01*
G75*
G02*
X-412637784Y-72017718I614358J-942438D01*
G01*
X-412637784Y-72017718D01*
G75*
G02*
X-412965864Y-73574514I-942438J-614358D01*
G01*
X-414609104Y-74645712D01*
G75*
G02*
X-416165900Y-74317632I-614358J942438D01*
G01*
G37*
%TD.AperFunction*%
X-413580223Y-72632075D03*
%TD*%
%TO.P,MX47,2*%
%TO.N,Net-(D47-Pad2)*%
%TA.AperFunction,ComponentPad*%
G36*
G01*
X-447108486Y-143180595D02*
X-447109326Y-143180307D01*
G75*
G02*
X-447808137Y-141751002I365247J1064058D01*
G01*
X-447619385Y-141201118D01*
G75*
G02*
X-446190080Y-140502307I1064058J-365247D01*
G01*
X-446190080Y-140502307D01*
G75*
G02*
X-445491269Y-141931612I-365247J-1064058D01*
G01*
X-445680021Y-142481496D01*
G75*
G02*
X-447109326Y-143180307I-1064058J365247D01*
G01*
G37*
%TD.AperFunction*%
X-446555327Y-141566365D03*
%TO.P,MX47,1*%
%TO.N,Col7*%
%TA.AperFunction,ComponentPad*%
G36*
G01*
X-454288790Y-142990681D02*
X-454288794Y-142990674D01*
G75*
G02*
X-453960714Y-141433878I942438J614358D01*
G01*
X-452317474Y-140362680D01*
G75*
G02*
X-450760678Y-140690760I614358J-942438D01*
G01*
X-450760678Y-140690760D01*
G75*
G02*
X-451088758Y-142247556I-942438J-614358D01*
G01*
X-452731998Y-143318754D01*
G75*
G02*
X-454288794Y-142990674I-614358J942438D01*
G01*
G37*
%TD.AperFunction*%
X-451703117Y-141305117D03*
%TD*%
%TO.P,MX46,1*%
%TO.N,Col7*%
X-446772615Y-122904231D03*
%TA.AperFunction,ComponentPad*%
G36*
G01*
X-449358288Y-124589795D02*
X-449358292Y-124589788D01*
G75*
G02*
X-449030212Y-123032992I942438J614358D01*
G01*
X-447386972Y-121961794D01*
G75*
G02*
X-445830176Y-122289874I614358J-942438D01*
G01*
X-445830176Y-122289874D01*
G75*
G02*
X-446158256Y-123846670I-942438J-614358D01*
G01*
X-447801496Y-124917868D01*
G75*
G02*
X-449358292Y-124589788I-614358J942438D01*
G01*
G37*
%TD.AperFunction*%
%TO.P,MX46,2*%
%TO.N,Net-(D46-Pad2)*%
X-441624825Y-123165479D03*
%TA.AperFunction,ComponentPad*%
G36*
G01*
X-442177984Y-124779709D02*
X-442178824Y-124779421D01*
G75*
G02*
X-442877635Y-123350116I365247J1064058D01*
G01*
X-442688883Y-122800232D01*
G75*
G02*
X-441259578Y-122101421I1064058J-365247D01*
G01*
X-441259578Y-122101421D01*
G75*
G02*
X-440560767Y-123530726I-365247J-1064058D01*
G01*
X-440749519Y-124080610D01*
G75*
G02*
X-442178824Y-124779421I-1064058J365247D01*
G01*
G37*
%TD.AperFunction*%
%TD*%
%TO.P,MX45,1*%
%TO.N,Col7*%
X-441842113Y-104503345D03*
%TA.AperFunction,ComponentPad*%
G36*
G01*
X-444427786Y-106188909D02*
X-444427790Y-106188902D01*
G75*
G02*
X-444099710Y-104632106I942438J614358D01*
G01*
X-442456470Y-103560908D01*
G75*
G02*
X-440899674Y-103888988I614358J-942438D01*
G01*
X-440899674Y-103888988D01*
G75*
G02*
X-441227754Y-105445784I-942438J-614358D01*
G01*
X-442870994Y-106516982D01*
G75*
G02*
X-444427790Y-106188902I-614358J942438D01*
G01*
G37*
%TD.AperFunction*%
%TO.P,MX45,2*%
%TO.N,Net-(D45-Pad2)*%
X-436694323Y-104764593D03*
%TA.AperFunction,ComponentPad*%
G36*
G01*
X-437247482Y-106378823D02*
X-437248322Y-106378535D01*
G75*
G02*
X-437947133Y-104949230I365247J1064058D01*
G01*
X-437758381Y-104399346D01*
G75*
G02*
X-436329076Y-103700535I1064058J-365247D01*
G01*
X-436329076Y-103700535D01*
G75*
G02*
X-435630265Y-105129840I-365247J-1064058D01*
G01*
X-435819017Y-105679724D01*
G75*
G02*
X-437248322Y-106378535I-1064058J365247D01*
G01*
G37*
%TD.AperFunction*%
%TD*%
%TO.P,MX44,2*%
%TO.N,Net-(D44-Pad2)*%
%TA.AperFunction,ComponentPad*%
G36*
G01*
X-432316980Y-87977937D02*
X-432317820Y-87977649D01*
G75*
G02*
X-433016631Y-86548344I365247J1064058D01*
G01*
X-432827879Y-85998460D01*
G75*
G02*
X-431398574Y-85299649I1064058J-365247D01*
G01*
X-431398574Y-85299649D01*
G75*
G02*
X-430699763Y-86728954I-365247J-1064058D01*
G01*
X-430888515Y-87278838D01*
G75*
G02*
X-432317820Y-87977649I-1064058J365247D01*
G01*
G37*
%TD.AperFunction*%
X-431763821Y-86363707D03*
%TO.P,MX44,1*%
%TO.N,Col7*%
%TA.AperFunction,ComponentPad*%
G36*
G01*
X-439497284Y-87788023D02*
X-439497288Y-87788016D01*
G75*
G02*
X-439169208Y-86231220I942438J614358D01*
G01*
X-437525968Y-85160022D01*
G75*
G02*
X-435969172Y-85488102I614358J-942438D01*
G01*
X-435969172Y-85488102D01*
G75*
G02*
X-436297252Y-87044898I-942438J-614358D01*
G01*
X-437940492Y-88116096D01*
G75*
G02*
X-439497288Y-87788016I-614358J942438D01*
G01*
G37*
%TD.AperFunction*%
X-436911611Y-86102459D03*
%TD*%
%TO.P,MX43,2*%
%TO.N,Net-(D43-Pad2)*%
%TA.AperFunction,ComponentPad*%
G36*
G01*
X-426153852Y-64976829D02*
X-426154692Y-64976541D01*
G75*
G02*
X-426853503Y-63547236I365247J1064058D01*
G01*
X-426664751Y-62997352D01*
G75*
G02*
X-425235446Y-62298541I1064058J-365247D01*
G01*
X-425235446Y-62298541D01*
G75*
G02*
X-424536635Y-63727846I-365247J-1064058D01*
G01*
X-424725387Y-64277730D01*
G75*
G02*
X-426154692Y-64976541I-1064058J365247D01*
G01*
G37*
%TD.AperFunction*%
X-425600693Y-63362599D03*
%TO.P,MX43,1*%
%TO.N,Col7*%
%TA.AperFunction,ComponentPad*%
G36*
G01*
X-433334156Y-64786915D02*
X-433334160Y-64786908D01*
G75*
G02*
X-433006080Y-63230112I942438J614358D01*
G01*
X-431362840Y-62158914D01*
G75*
G02*
X-429806044Y-62486994I614358J-942438D01*
G01*
X-429806044Y-62486994D01*
G75*
G02*
X-430134124Y-64043790I-942438J-614358D01*
G01*
X-431777364Y-65114988D01*
G75*
G02*
X-433334160Y-64786908I-614358J942438D01*
G01*
G37*
%TD.AperFunction*%
X-430748483Y-63101351D03*
%TD*%
%TO.P,MX42,1*%
%TO.N,Col6*%
X-460166356Y-163689912D03*
%TA.AperFunction,ComponentPad*%
G36*
G01*
X-462752029Y-165375476D02*
X-462752033Y-165375469D01*
G75*
G02*
X-462423953Y-163818673I942438J614358D01*
G01*
X-460780713Y-162747475D01*
G75*
G02*
X-459223917Y-163075555I614358J-942438D01*
G01*
X-459223917Y-163075555D01*
G75*
G02*
X-459551997Y-164632351I-942438J-614358D01*
G01*
X-461195237Y-165703549D01*
G75*
G02*
X-462752033Y-165375469I-614358J942438D01*
G01*
G37*
%TD.AperFunction*%
%TO.P,MX42,2*%
%TO.N,Net-(D42-Pad2)*%
X-455018566Y-163951160D03*
%TA.AperFunction,ComponentPad*%
G36*
G01*
X-455571725Y-165565390D02*
X-455572565Y-165565102D01*
G75*
G02*
X-456271376Y-164135797I365247J1064058D01*
G01*
X-456082624Y-163585913D01*
G75*
G02*
X-454653319Y-162887102I1064058J-365247D01*
G01*
X-454653319Y-162887102D01*
G75*
G02*
X-453954508Y-164316407I-365247J-1064058D01*
G01*
X-454143260Y-164866291D01*
G75*
G02*
X-455572565Y-165565102I-1064058J365247D01*
G01*
G37*
%TD.AperFunction*%
%TD*%
%TO.P,MX41,1*%
%TO.N,Col6*%
X-471336629Y-140974837D03*
%TA.AperFunction,ComponentPad*%
G36*
G01*
X-473922302Y-142660401D02*
X-473922306Y-142660394D01*
G75*
G02*
X-473594226Y-141103598I942438J614358D01*
G01*
X-471950986Y-140032400D01*
G75*
G02*
X-470394190Y-140360480I614358J-942438D01*
G01*
X-470394190Y-140360480D01*
G75*
G02*
X-470722270Y-141917276I-942438J-614358D01*
G01*
X-472365510Y-142988474D01*
G75*
G02*
X-473922306Y-142660394I-614358J942438D01*
G01*
G37*
%TD.AperFunction*%
%TO.P,MX41,2*%
%TO.N,Net-(D41-Pad2)*%
X-466188839Y-141236085D03*
%TA.AperFunction,ComponentPad*%
G36*
G01*
X-466741998Y-142850315D02*
X-466742838Y-142850027D01*
G75*
G02*
X-467441649Y-141420722I365247J1064058D01*
G01*
X-467252897Y-140870838D01*
G75*
G02*
X-465823592Y-140172027I1064058J-365247D01*
G01*
X-465823592Y-140172027D01*
G75*
G02*
X-465124781Y-141601332I-365247J-1064058D01*
G01*
X-465313533Y-142151216D01*
G75*
G02*
X-466742838Y-142850027I-1064058J365247D01*
G01*
G37*
%TD.AperFunction*%
%TD*%
%TO.P,MX40,2*%
%TO.N,Net-(D40-Pad2)*%
%TA.AperFunction,ComponentPad*%
G36*
G01*
X-461811496Y-124449429D02*
X-461812336Y-124449141D01*
G75*
G02*
X-462511147Y-123019836I365247J1064058D01*
G01*
X-462322395Y-122469952D01*
G75*
G02*
X-460893090Y-121771141I1064058J-365247D01*
G01*
X-460893090Y-121771141D01*
G75*
G02*
X-460194279Y-123200446I-365247J-1064058D01*
G01*
X-460383031Y-123750330D01*
G75*
G02*
X-461812336Y-124449141I-1064058J365247D01*
G01*
G37*
%TD.AperFunction*%
X-461258337Y-122835199D03*
%TO.P,MX40,1*%
%TO.N,Col6*%
%TA.AperFunction,ComponentPad*%
G36*
G01*
X-468991800Y-124259515D02*
X-468991804Y-124259508D01*
G75*
G02*
X-468663724Y-122702712I942438J614358D01*
G01*
X-467020484Y-121631514D01*
G75*
G02*
X-465463688Y-121959594I614358J-942438D01*
G01*
X-465463688Y-121959594D01*
G75*
G02*
X-465791768Y-123516390I-942438J-614358D01*
G01*
X-467435008Y-124587588D01*
G75*
G02*
X-468991804Y-124259508I-614358J942438D01*
G01*
G37*
%TD.AperFunction*%
X-466406127Y-122573951D03*
%TD*%
%TO.P,MX39,2*%
%TO.N,Net-(D39-Pad2)*%
%TA.AperFunction,ComponentPad*%
G36*
G01*
X-456880994Y-106048543D02*
X-456881834Y-106048255D01*
G75*
G02*
X-457580645Y-104618950I365247J1064058D01*
G01*
X-457391893Y-104069066D01*
G75*
G02*
X-455962588Y-103370255I1064058J-365247D01*
G01*
X-455962588Y-103370255D01*
G75*
G02*
X-455263777Y-104799560I-365247J-1064058D01*
G01*
X-455452529Y-105349444D01*
G75*
G02*
X-456881834Y-106048255I-1064058J365247D01*
G01*
G37*
%TD.AperFunction*%
X-456327835Y-104434313D03*
%TO.P,MX39,1*%
%TO.N,Col6*%
%TA.AperFunction,ComponentPad*%
G36*
G01*
X-464061298Y-105858629D02*
X-464061302Y-105858622D01*
G75*
G02*
X-463733222Y-104301826I942438J614358D01*
G01*
X-462089982Y-103230628D01*
G75*
G02*
X-460533186Y-103558708I614358J-942438D01*
G01*
X-460533186Y-103558708D01*
G75*
G02*
X-460861266Y-105115504I-942438J-614358D01*
G01*
X-462504506Y-106186702D01*
G75*
G02*
X-464061302Y-105858622I-614358J942438D01*
G01*
G37*
%TD.AperFunction*%
X-461475625Y-104173065D03*
%TD*%
%TO.P,MX38,2*%
%TO.N,Net-(D38-Pad2)*%
%TA.AperFunction,ComponentPad*%
G36*
G01*
X-451950492Y-87647657D02*
X-451951332Y-87647369D01*
G75*
G02*
X-452650143Y-86218064I365247J1064058D01*
G01*
X-452461391Y-85668180D01*
G75*
G02*
X-451032086Y-84969369I1064058J-365247D01*
G01*
X-451032086Y-84969369D01*
G75*
G02*
X-450333275Y-86398674I-365247J-1064058D01*
G01*
X-450522027Y-86948558D01*
G75*
G02*
X-451951332Y-87647369I-1064058J365247D01*
G01*
G37*
%TD.AperFunction*%
X-451397333Y-86033427D03*
%TO.P,MX38,1*%
%TO.N,Col6*%
%TA.AperFunction,ComponentPad*%
G36*
G01*
X-459130796Y-87457743D02*
X-459130800Y-87457736D01*
G75*
G02*
X-458802720Y-85900940I942438J614358D01*
G01*
X-457159480Y-84829742D01*
G75*
G02*
X-455602684Y-85157822I614358J-942438D01*
G01*
X-455602684Y-85157822D01*
G75*
G02*
X-455930764Y-86714618I-942438J-614358D01*
G01*
X-457574004Y-87785816D01*
G75*
G02*
X-459130800Y-87457736I-614358J942438D01*
G01*
G37*
%TD.AperFunction*%
X-456545123Y-85772179D03*
%TD*%
%TO.P,MX37,2*%
%TO.N,Net-(D37-Pad2)*%
%TA.AperFunction,ComponentPad*%
G36*
G01*
X-445787364Y-64646549D02*
X-445788204Y-64646261D01*
G75*
G02*
X-446487015Y-63216956I365247J1064058D01*
G01*
X-446298263Y-62667072D01*
G75*
G02*
X-444868958Y-61968261I1064058J-365247D01*
G01*
X-444868958Y-61968261D01*
G75*
G02*
X-444170147Y-63397566I-365247J-1064058D01*
G01*
X-444358899Y-63947450D01*
G75*
G02*
X-445788204Y-64646261I-1064058J365247D01*
G01*
G37*
%TD.AperFunction*%
X-445234205Y-63032319D03*
%TO.P,MX37,1*%
%TO.N,Col6*%
%TA.AperFunction,ComponentPad*%
G36*
G01*
X-452967668Y-64456635D02*
X-452967672Y-64456628D01*
G75*
G02*
X-452639592Y-62899832I942438J614358D01*
G01*
X-450996352Y-61828634D01*
G75*
G02*
X-449439556Y-62156714I614358J-942438D01*
G01*
X-449439556Y-62156714D01*
G75*
G02*
X-449767636Y-63713510I-942438J-614358D01*
G01*
X-451410876Y-64784708D01*
G75*
G02*
X-452967672Y-64456628I-614358J942438D01*
G01*
G37*
%TD.AperFunction*%
X-450381995Y-62771071D03*
%TD*%
%TO.P,MX35,2*%
%TO.N,Net-(D35-Pad2)*%
%TA.AperFunction,ComponentPad*%
G36*
G01*
X-492076417Y-141923095D02*
X-492077303Y-141923034D01*
G75*
G02*
X-493122234Y-140723297I77403J1122334D01*
G01*
X-493082234Y-140143297D01*
G75*
G02*
X-491882497Y-139098366I1122334J-77403D01*
G01*
X-491882497Y-139098366D01*
G75*
G02*
X-490837566Y-140298103I-77403J-1122334D01*
G01*
X-490877566Y-140878103D01*
G75*
G02*
X-492077303Y-141923034I-1122334J77403D01*
G01*
G37*
%TD.AperFunction*%
X-491959900Y-140220700D03*
%TO.P,MX35,1*%
%TO.N,Col5*%
%TA.AperFunction,ComponentPad*%
G36*
G01*
X-499061212Y-143598050D02*
X-499061217Y-143598045D01*
G75*
G02*
X-499147245Y-142009383I751317J837345D01*
G01*
X-497837243Y-140549383D01*
G75*
G02*
X-496248581Y-140463355I837345J-751317D01*
G01*
X-496248581Y-140463355D01*
G75*
G02*
X-496162553Y-142052017I-751317J-837345D01*
G01*
X-497472555Y-143512017D01*
G75*
G02*
X-499061217Y-143598045I-837345J751317D01*
G01*
G37*
%TD.AperFunction*%
X-496999900Y-141300700D03*
%TD*%
%TO.P,MX34,2*%
%TO.N,Net-(D34-Pad2)*%
%TA.AperFunction,ComponentPad*%
G36*
G01*
X-487313917Y-122873095D02*
X-487314803Y-122873034D01*
G75*
G02*
X-488359734Y-121673297I77403J1122334D01*
G01*
X-488319734Y-121093297D01*
G75*
G02*
X-487119997Y-120048366I1122334J-77403D01*
G01*
X-487119997Y-120048366D01*
G75*
G02*
X-486075066Y-121248103I-77403J-1122334D01*
G01*
X-486115066Y-121828103D01*
G75*
G02*
X-487314803Y-122873034I-1122334J77403D01*
G01*
G37*
%TD.AperFunction*%
X-487197400Y-121170700D03*
%TO.P,MX34,1*%
%TO.N,Col5*%
%TA.AperFunction,ComponentPad*%
G36*
G01*
X-494298712Y-124548050D02*
X-494298717Y-124548045D01*
G75*
G02*
X-494384745Y-122959383I751317J837345D01*
G01*
X-493074743Y-121499383D01*
G75*
G02*
X-491486081Y-121413355I837345J-751317D01*
G01*
X-491486081Y-121413355D01*
G75*
G02*
X-491400053Y-123002017I-751317J-837345D01*
G01*
X-492710055Y-124462017D01*
G75*
G02*
X-494298717Y-124548045I-837345J751317D01*
G01*
G37*
%TD.AperFunction*%
X-492237400Y-122250700D03*
%TD*%
%TO.P,MX33,2*%
%TO.N,Net-(D33-Pad2)*%
%TA.AperFunction,ComponentPad*%
G36*
G01*
X-482551417Y-103823095D02*
X-482552303Y-103823034D01*
G75*
G02*
X-483597234Y-102623297I77403J1122334D01*
G01*
X-483557234Y-102043297D01*
G75*
G02*
X-482357497Y-100998366I1122334J-77403D01*
G01*
X-482357497Y-100998366D01*
G75*
G02*
X-481312566Y-102198103I-77403J-1122334D01*
G01*
X-481352566Y-102778103D01*
G75*
G02*
X-482552303Y-103823034I-1122334J77403D01*
G01*
G37*
%TD.AperFunction*%
X-482434900Y-102120700D03*
%TO.P,MX33,1*%
%TO.N,Col5*%
%TA.AperFunction,ComponentPad*%
G36*
G01*
X-489536212Y-105498050D02*
X-489536217Y-105498045D01*
G75*
G02*
X-489622245Y-103909383I751317J837345D01*
G01*
X-488312243Y-102449383D01*
G75*
G02*
X-486723581Y-102363355I837345J-751317D01*
G01*
X-486723581Y-102363355D01*
G75*
G02*
X-486637553Y-103952017I-751317J-837345D01*
G01*
X-487947555Y-105412017D01*
G75*
G02*
X-489536217Y-105498045I-837345J751317D01*
G01*
G37*
%TD.AperFunction*%
X-487474900Y-103200700D03*
%TD*%
%TO.P,MX32,2*%
%TO.N,Net-(D32-Pad2)*%
%TA.AperFunction,ComponentPad*%
G36*
G01*
X-477788917Y-84773095D02*
X-477789803Y-84773034D01*
G75*
G02*
X-478834734Y-83573297I77403J1122334D01*
G01*
X-478794734Y-82993297D01*
G75*
G02*
X-477594997Y-81948366I1122334J-77403D01*
G01*
X-477594997Y-81948366D01*
G75*
G02*
X-476550066Y-83148103I-77403J-1122334D01*
G01*
X-476590066Y-83728103D01*
G75*
G02*
X-477789803Y-84773034I-1122334J77403D01*
G01*
G37*
%TD.AperFunction*%
X-477672400Y-83070700D03*
%TO.P,MX32,1*%
%TO.N,Col5*%
%TA.AperFunction,ComponentPad*%
G36*
G01*
X-484773712Y-86448050D02*
X-484773717Y-86448045D01*
G75*
G02*
X-484859745Y-84859383I751317J837345D01*
G01*
X-483549743Y-83399383D01*
G75*
G02*
X-481961081Y-83313355I837345J-751317D01*
G01*
X-481961081Y-83313355D01*
G75*
G02*
X-481875053Y-84902017I-751317J-837345D01*
G01*
X-483185055Y-86362017D01*
G75*
G02*
X-484773717Y-86448045I-837345J751317D01*
G01*
G37*
%TD.AperFunction*%
X-482712400Y-84150700D03*
%TD*%
%TO.P,MX31,2*%
%TO.N,Net-(D31-Pad2)*%
%TA.AperFunction,ComponentPad*%
G36*
G01*
X-472937517Y-60947895D02*
X-472938403Y-60947834D01*
G75*
G02*
X-473983334Y-59748097I77403J1122334D01*
G01*
X-473943334Y-59168097D01*
G75*
G02*
X-472743597Y-58123166I1122334J-77403D01*
G01*
X-472743597Y-58123166D01*
G75*
G02*
X-471698666Y-59322903I-77403J-1122334D01*
G01*
X-471738666Y-59902903D01*
G75*
G02*
X-472938403Y-60947834I-1122334J77403D01*
G01*
G37*
%TD.AperFunction*%
X-472821000Y-59245500D03*
%TO.P,MX31,1*%
%TO.N,Col5*%
%TA.AperFunction,ComponentPad*%
G36*
G01*
X-479922312Y-62622850D02*
X-479922317Y-62622845D01*
G75*
G02*
X-480008345Y-61034183I751317J837345D01*
G01*
X-478698343Y-59574183D01*
G75*
G02*
X-477109681Y-59488155I837345J-751317D01*
G01*
X-477109681Y-59488155D01*
G75*
G02*
X-477023653Y-61076817I-751317J-837345D01*
G01*
X-478333655Y-62536817D01*
G75*
G02*
X-479922317Y-62622845I-837345J751317D01*
G01*
G37*
%TD.AperFunction*%
X-477861000Y-60325500D03*
%TD*%
%TO.P,MX30,2*%
%TO.N,Net-(D30-Pad2)*%
%TA.AperFunction,ComponentPad*%
G36*
G01*
X-513507667Y-160973095D02*
X-513508553Y-160973034D01*
G75*
G02*
X-514553484Y-159773297I77403J1122334D01*
G01*
X-514513484Y-159193297D01*
G75*
G02*
X-513313747Y-158148366I1122334J-77403D01*
G01*
X-513313747Y-158148366D01*
G75*
G02*
X-512268816Y-159348103I-77403J-1122334D01*
G01*
X-512308816Y-159928103D01*
G75*
G02*
X-513508553Y-160973034I-1122334J77403D01*
G01*
G37*
%TD.AperFunction*%
X-513391150Y-159270700D03*
%TO.P,MX30,1*%
%TO.N,Col4*%
%TA.AperFunction,ComponentPad*%
G36*
G01*
X-520492462Y-162648050D02*
X-520492467Y-162648045D01*
G75*
G02*
X-520578495Y-161059383I751317J837345D01*
G01*
X-519268493Y-159599383D01*
G75*
G02*
X-517679831Y-159513355I837345J-751317D01*
G01*
X-517679831Y-159513355D01*
G75*
G02*
X-517593803Y-161102017I-751317J-837345D01*
G01*
X-518903805Y-162562017D01*
G75*
G02*
X-520492467Y-162648045I-837345J751317D01*
G01*
G37*
%TD.AperFunction*%
X-518431150Y-160350700D03*
%TD*%
%TO.P,MX28,2*%
%TO.N,Net-(D28-Pad2)*%
%TA.AperFunction,ComponentPad*%
G36*
G01*
X-518352674Y-129628440D02*
X-518353747Y-129628366D01*
G75*
G02*
X-517308816Y-130828103I-77403J-1122334D01*
G01*
X-517348816Y-131408103D01*
G75*
G02*
X-518548553Y-132453034I-1122334J77403D01*
G01*
X-518548553Y-132453034D01*
G75*
G02*
X-519593484Y-131253297I77403J1122334D01*
G01*
X-519553484Y-130673297D01*
G75*
G02*
X-518353747Y-129628366I1122334J-77403D01*
G01*
G37*
%TD.AperFunction*%
X-518471150Y-131330700D03*
%TO.P,MX28,1*%
%TO.N,Col4*%
%TA.AperFunction,ComponentPad*%
G36*
G01*
X-511368378Y-127954662D02*
X-511369833Y-127953355D01*
G75*
G02*
X-511283805Y-129542017I-751317J-837345D01*
G01*
X-512593807Y-131002017D01*
G75*
G02*
X-514182469Y-131088045I-837345J751317D01*
G01*
X-514182469Y-131088045D01*
G75*
G02*
X-514268497Y-129499383I751317J837345D01*
G01*
X-512958495Y-128039383D01*
G75*
G02*
X-511369833Y-127953355I837345J-751317D01*
G01*
G37*
%TD.AperFunction*%
X-513431150Y-130250700D03*
%TD*%
%TO.P,MX27,2*%
%TO.N,Net-(D27-Pad2)*%
%TA.AperFunction,ComponentPad*%
G36*
G01*
X-506363917Y-103823095D02*
X-506364803Y-103823034D01*
G75*
G02*
X-507409734Y-102623297I77403J1122334D01*
G01*
X-507369734Y-102043297D01*
G75*
G02*
X-506169997Y-100998366I1122334J-77403D01*
G01*
X-506169997Y-100998366D01*
G75*
G02*
X-505125066Y-102198103I-77403J-1122334D01*
G01*
X-505165066Y-102778103D01*
G75*
G02*
X-506364803Y-103823034I-1122334J77403D01*
G01*
G37*
%TD.AperFunction*%
X-506247400Y-102120700D03*
%TO.P,MX27,1*%
%TO.N,Col4*%
%TA.AperFunction,ComponentPad*%
G36*
G01*
X-513348712Y-105498050D02*
X-513348717Y-105498045D01*
G75*
G02*
X-513434745Y-103909383I751317J837345D01*
G01*
X-512124743Y-102449383D01*
G75*
G02*
X-510536081Y-102363355I837345J-751317D01*
G01*
X-510536081Y-102363355D01*
G75*
G02*
X-510450053Y-103952017I-751317J-837345D01*
G01*
X-511760055Y-105412017D01*
G75*
G02*
X-513348717Y-105498045I-837345J751317D01*
G01*
G37*
%TD.AperFunction*%
X-511287400Y-103200700D03*
%TD*%
%TO.P,MX26,2*%
%TO.N,Net-(D26-Pad2)*%
%TA.AperFunction,ComponentPad*%
G36*
G01*
X-496838917Y-84773095D02*
X-496839803Y-84773034D01*
G75*
G02*
X-497884734Y-83573297I77403J1122334D01*
G01*
X-497844734Y-82993297D01*
G75*
G02*
X-496644997Y-81948366I1122334J-77403D01*
G01*
X-496644997Y-81948366D01*
G75*
G02*
X-495600066Y-83148103I-77403J-1122334D01*
G01*
X-495640066Y-83728103D01*
G75*
G02*
X-496839803Y-84773034I-1122334J77403D01*
G01*
G37*
%TD.AperFunction*%
X-496722400Y-83070700D03*
%TO.P,MX26,1*%
%TO.N,Col4*%
%TA.AperFunction,ComponentPad*%
G36*
G01*
X-503823712Y-86448050D02*
X-503823717Y-86448045D01*
G75*
G02*
X-503909745Y-84859383I751317J837345D01*
G01*
X-502599743Y-83399383D01*
G75*
G02*
X-501011081Y-83313355I837345J-751317D01*
G01*
X-501011081Y-83313355D01*
G75*
G02*
X-500925053Y-84902017I-751317J-837345D01*
G01*
X-502235055Y-86362017D01*
G75*
G02*
X-503823717Y-86448045I-837345J751317D01*
G01*
G37*
%TD.AperFunction*%
X-501762400Y-84150700D03*
%TD*%
%TO.P,MX25,2*%
%TO.N,Net-(D25-Pad2)*%
%TA.AperFunction,ComponentPad*%
G36*
G01*
X-491987517Y-60947895D02*
X-491988403Y-60947834D01*
G75*
G02*
X-493033334Y-59748097I77403J1122334D01*
G01*
X-492993334Y-59168097D01*
G75*
G02*
X-491793597Y-58123166I1122334J-77403D01*
G01*
X-491793597Y-58123166D01*
G75*
G02*
X-490748666Y-59322903I-77403J-1122334D01*
G01*
X-490788666Y-59902903D01*
G75*
G02*
X-491988403Y-60947834I-1122334J77403D01*
G01*
G37*
%TD.AperFunction*%
X-491871000Y-59245500D03*
%TO.P,MX25,1*%
%TO.N,Col4*%
%TA.AperFunction,ComponentPad*%
G36*
G01*
X-498972312Y-62622850D02*
X-498972317Y-62622845D01*
G75*
G02*
X-499058345Y-61034183I751317J837345D01*
G01*
X-497748343Y-59574183D01*
G75*
G02*
X-496159681Y-59488155I837345J-751317D01*
G01*
X-496159681Y-59488155D01*
G75*
G02*
X-496073653Y-61076817I-751317J-837345D01*
G01*
X-497383655Y-62536817D01*
G75*
G02*
X-498972317Y-62622845I-837345J751317D01*
G01*
G37*
%TD.AperFunction*%
X-496911000Y-60325500D03*
%TD*%
%TO.P,MX24,2*%
%TO.N,Net-(D24-Pad2)*%
%TA.AperFunction,ComponentPad*%
G36*
G01*
X-534938917Y-160973095D02*
X-534939803Y-160973034D01*
G75*
G02*
X-535984734Y-159773297I77403J1122334D01*
G01*
X-535944734Y-159193297D01*
G75*
G02*
X-534744997Y-158148366I1122334J-77403D01*
G01*
X-534744997Y-158148366D01*
G75*
G02*
X-533700066Y-159348103I-77403J-1122334D01*
G01*
X-533740066Y-159928103D01*
G75*
G02*
X-534939803Y-160973034I-1122334J77403D01*
G01*
G37*
%TD.AperFunction*%
X-534822400Y-159270700D03*
%TO.P,MX24,1*%
%TO.N,Col3*%
%TA.AperFunction,ComponentPad*%
G36*
G01*
X-541923712Y-162648050D02*
X-541923717Y-162648045D01*
G75*
G02*
X-542009745Y-161059383I751317J837345D01*
G01*
X-540699743Y-159599383D01*
G75*
G02*
X-539111081Y-159513355I837345J-751317D01*
G01*
X-539111081Y-159513355D01*
G75*
G02*
X-539025053Y-161102017I-751317J-837345D01*
G01*
X-540335055Y-162562017D01*
G75*
G02*
X-541923717Y-162648045I-837345J751317D01*
G01*
G37*
%TD.AperFunction*%
X-539862400Y-160350700D03*
%TD*%
%TO.P,MX23,2*%
%TO.N,Net-(D23-Pad2)*%
%TA.AperFunction,ComponentPad*%
G36*
G01*
X-553988917Y-160973095D02*
X-553989803Y-160973034D01*
G75*
G02*
X-555034734Y-159773297I77403J1122334D01*
G01*
X-554994734Y-159193297D01*
G75*
G02*
X-553794997Y-158148366I1122334J-77403D01*
G01*
X-553794997Y-158148366D01*
G75*
G02*
X-552750066Y-159348103I-77403J-1122334D01*
G01*
X-552790066Y-159928103D01*
G75*
G02*
X-553989803Y-160973034I-1122334J77403D01*
G01*
G37*
%TD.AperFunction*%
X-553872400Y-159270700D03*
%TO.P,MX23,1*%
%TO.N,Col3*%
%TA.AperFunction,ComponentPad*%
G36*
G01*
X-560973712Y-162648050D02*
X-560973717Y-162648045D01*
G75*
G02*
X-561059745Y-161059383I751317J837345D01*
G01*
X-559749743Y-159599383D01*
G75*
G02*
X-558161081Y-159513355I837345J-751317D01*
G01*
X-558161081Y-159513355D01*
G75*
G02*
X-558075053Y-161102017I-751317J-837345D01*
G01*
X-559385055Y-162562017D01*
G75*
G02*
X-560973717Y-162648045I-837345J751317D01*
G01*
G37*
%TD.AperFunction*%
X-558912400Y-160350700D03*
%TD*%
%TO.P,MX22,2*%
%TO.N,Net-(D22-Pad2)*%
%TA.AperFunction,ComponentPad*%
G36*
G01*
X-573038917Y-160973095D02*
X-573039803Y-160973034D01*
G75*
G02*
X-574084734Y-159773297I77403J1122334D01*
G01*
X-574044734Y-159193297D01*
G75*
G02*
X-572844997Y-158148366I1122334J-77403D01*
G01*
X-572844997Y-158148366D01*
G75*
G02*
X-571800066Y-159348103I-77403J-1122334D01*
G01*
X-571840066Y-159928103D01*
G75*
G02*
X-573039803Y-160973034I-1122334J77403D01*
G01*
G37*
%TD.AperFunction*%
X-572922400Y-159270700D03*
%TO.P,MX22,1*%
%TO.N,Col3*%
%TA.AperFunction,ComponentPad*%
G36*
G01*
X-580023712Y-162648050D02*
X-580023717Y-162648045D01*
G75*
G02*
X-580109745Y-161059383I751317J837345D01*
G01*
X-578799743Y-159599383D01*
G75*
G02*
X-577211081Y-159513355I837345J-751317D01*
G01*
X-577211081Y-159513355D01*
G75*
G02*
X-577125053Y-161102017I-751317J-837345D01*
G01*
X-578435055Y-162562017D01*
G75*
G02*
X-580023717Y-162648045I-837345J751317D01*
G01*
G37*
%TD.AperFunction*%
X-577962400Y-160350700D03*
%TD*%
%TO.P,MX21,1*%
%TO.N,Col3*%
X-558912400Y-141300700D03*
%TA.AperFunction,ComponentPad*%
G36*
G01*
X-560973712Y-143598050D02*
X-560973717Y-143598045D01*
G75*
G02*
X-561059745Y-142009383I751317J837345D01*
G01*
X-559749743Y-140549383D01*
G75*
G02*
X-558161081Y-140463355I837345J-751317D01*
G01*
X-558161081Y-140463355D01*
G75*
G02*
X-558075053Y-142052017I-751317J-837345D01*
G01*
X-559385055Y-143512017D01*
G75*
G02*
X-560973717Y-143598045I-837345J751317D01*
G01*
G37*
%TD.AperFunction*%
%TO.P,MX21,2*%
%TO.N,Net-(D21-Pad2)*%
X-553872400Y-140220700D03*
%TA.AperFunction,ComponentPad*%
G36*
G01*
X-553988917Y-141923095D02*
X-553989803Y-141923034D01*
G75*
G02*
X-555034734Y-140723297I77403J1122334D01*
G01*
X-554994734Y-140143297D01*
G75*
G02*
X-553794997Y-139098366I1122334J-77403D01*
G01*
X-553794997Y-139098366D01*
G75*
G02*
X-552750066Y-140298103I-77403J-1122334D01*
G01*
X-552790066Y-140878103D01*
G75*
G02*
X-553989803Y-141923034I-1122334J77403D01*
G01*
G37*
%TD.AperFunction*%
%TD*%
%TO.P,MX20,2*%
%TO.N,Net-(D20-Pad2)*%
%TA.AperFunction,ComponentPad*%
G36*
G01*
X-573038917Y-84773095D02*
X-573039803Y-84773034D01*
G75*
G02*
X-574084734Y-83573297I77403J1122334D01*
G01*
X-574044734Y-82993297D01*
G75*
G02*
X-572844997Y-81948366I1122334J-77403D01*
G01*
X-572844997Y-81948366D01*
G75*
G02*
X-571800066Y-83148103I-77403J-1122334D01*
G01*
X-571840066Y-83728103D01*
G75*
G02*
X-573039803Y-84773034I-1122334J77403D01*
G01*
G37*
%TD.AperFunction*%
X-572922400Y-83070700D03*
%TO.P,MX20,1*%
%TO.N,Col3*%
%TA.AperFunction,ComponentPad*%
G36*
G01*
X-580023712Y-86448050D02*
X-580023717Y-86448045D01*
G75*
G02*
X-580109745Y-84859383I751317J837345D01*
G01*
X-578799743Y-83399383D01*
G75*
G02*
X-577211081Y-83313355I837345J-751317D01*
G01*
X-577211081Y-83313355D01*
G75*
G02*
X-577125053Y-84902017I-751317J-837345D01*
G01*
X-578435055Y-86362017D01*
G75*
G02*
X-580023717Y-86448045I-837345J751317D01*
G01*
G37*
%TD.AperFunction*%
X-577962400Y-84150700D03*
%TD*%
%TO.P,MX19,2*%
%TO.N,Net-(D19-Pad2)*%
%TA.AperFunction,ComponentPad*%
G36*
G01*
X-520562517Y-60947895D02*
X-520563403Y-60947834D01*
G75*
G02*
X-521608334Y-59748097I77403J1122334D01*
G01*
X-521568334Y-59168097D01*
G75*
G02*
X-520368597Y-58123166I1122334J-77403D01*
G01*
X-520368597Y-58123166D01*
G75*
G02*
X-519323666Y-59322903I-77403J-1122334D01*
G01*
X-519363666Y-59902903D01*
G75*
G02*
X-520563403Y-60947834I-1122334J77403D01*
G01*
G37*
%TD.AperFunction*%
X-520446000Y-59245500D03*
%TO.P,MX19,1*%
%TO.N,Col3*%
%TA.AperFunction,ComponentPad*%
G36*
G01*
X-527547312Y-62622850D02*
X-527547317Y-62622845D01*
G75*
G02*
X-527633345Y-61034183I751317J837345D01*
G01*
X-526323343Y-59574183D01*
G75*
G02*
X-524734681Y-59488155I837345J-751317D01*
G01*
X-524734681Y-59488155D01*
G75*
G02*
X-524648653Y-61076817I-751317J-837345D01*
G01*
X-525958655Y-62536817D01*
G75*
G02*
X-527547317Y-62622845I-837345J751317D01*
G01*
G37*
%TD.AperFunction*%
X-525486000Y-60325500D03*
%TD*%
%TO.P,MX17,2*%
%TO.N,Net-(D17-Pad2)*%
%TA.AperFunction,ComponentPad*%
G36*
G01*
X-615901417Y-160973095D02*
X-615902303Y-160973034D01*
G75*
G02*
X-616947234Y-159773297I77403J1122334D01*
G01*
X-616907234Y-159193297D01*
G75*
G02*
X-615707497Y-158148366I1122334J-77403D01*
G01*
X-615707497Y-158148366D01*
G75*
G02*
X-614662566Y-159348103I-77403J-1122334D01*
G01*
X-614702566Y-159928103D01*
G75*
G02*
X-615902303Y-160973034I-1122334J77403D01*
G01*
G37*
%TD.AperFunction*%
X-615784900Y-159270700D03*
%TO.P,MX17,1*%
%TO.N,Col2*%
%TA.AperFunction,ComponentPad*%
G36*
G01*
X-622886212Y-162648050D02*
X-622886217Y-162648045D01*
G75*
G02*
X-622972245Y-161059383I751317J837345D01*
G01*
X-621662243Y-159599383D01*
G75*
G02*
X-620073581Y-159513355I837345J-751317D01*
G01*
X-620073581Y-159513355D01*
G75*
G02*
X-619987553Y-161102017I-751317J-837345D01*
G01*
X-621297555Y-162562017D01*
G75*
G02*
X-622886217Y-162648045I-837345J751317D01*
G01*
G37*
%TD.AperFunction*%
X-620824900Y-160350700D03*
%TD*%
%TO.P,MX12,2*%
%TO.N,Net-(D12-Pad2)*%
%TA.AperFunction,ComponentPad*%
G36*
G01*
X-634951417Y-160973095D02*
X-634952303Y-160973034D01*
G75*
G02*
X-635997234Y-159773297I77403J1122334D01*
G01*
X-635957234Y-159193297D01*
G75*
G02*
X-634757497Y-158148366I1122334J-77403D01*
G01*
X-634757497Y-158148366D01*
G75*
G02*
X-633712566Y-159348103I-77403J-1122334D01*
G01*
X-633752566Y-159928103D01*
G75*
G02*
X-634952303Y-160973034I-1122334J77403D01*
G01*
G37*
%TD.AperFunction*%
X-634834900Y-159270700D03*
%TO.P,MX12,1*%
%TO.N,Col1*%
%TA.AperFunction,ComponentPad*%
G36*
G01*
X-641936212Y-162648050D02*
X-641936217Y-162648045D01*
G75*
G02*
X-642022245Y-161059383I751317J837345D01*
G01*
X-640712243Y-159599383D01*
G75*
G02*
X-639123581Y-159513355I837345J-751317D01*
G01*
X-639123581Y-159513355D01*
G75*
G02*
X-639037553Y-161102017I-751317J-837345D01*
G01*
X-640347555Y-162562017D01*
G75*
G02*
X-641936217Y-162648045I-837345J751317D01*
G01*
G37*
%TD.AperFunction*%
X-639874900Y-160350700D03*
%TD*%
%TO.P,MX11,2*%
%TO.N,Net-(D11-Pad2)*%
%TA.AperFunction,ComponentPad*%
G36*
G01*
X-634951417Y-141923095D02*
X-634952303Y-141923034D01*
G75*
G02*
X-635997234Y-140723297I77403J1122334D01*
G01*
X-635957234Y-140143297D01*
G75*
G02*
X-634757497Y-139098366I1122334J-77403D01*
G01*
X-634757497Y-139098366D01*
G75*
G02*
X-633712566Y-140298103I-77403J-1122334D01*
G01*
X-633752566Y-140878103D01*
G75*
G02*
X-634952303Y-141923034I-1122334J77403D01*
G01*
G37*
%TD.AperFunction*%
X-634834900Y-140220700D03*
%TO.P,MX11,1*%
%TO.N,Col1*%
%TA.AperFunction,ComponentPad*%
G36*
G01*
X-641936212Y-143598050D02*
X-641936217Y-143598045D01*
G75*
G02*
X-642022245Y-142009383I751317J837345D01*
G01*
X-640712243Y-140549383D01*
G75*
G02*
X-639123581Y-140463355I837345J-751317D01*
G01*
X-639123581Y-140463355D01*
G75*
G02*
X-639037553Y-142052017I-751317J-837345D01*
G01*
X-640347555Y-143512017D01*
G75*
G02*
X-641936217Y-143598045I-837345J751317D01*
G01*
G37*
%TD.AperFunction*%
X-639874900Y-141300700D03*
%TD*%
%TO.P,MX10,2*%
%TO.N,Net-(D10-Pad2)*%
%TA.AperFunction,ComponentPad*%
G36*
G01*
X-634951417Y-122873095D02*
X-634952303Y-122873034D01*
G75*
G02*
X-635997234Y-121673297I77403J1122334D01*
G01*
X-635957234Y-121093297D01*
G75*
G02*
X-634757497Y-120048366I1122334J-77403D01*
G01*
X-634757497Y-120048366D01*
G75*
G02*
X-633712566Y-121248103I-77403J-1122334D01*
G01*
X-633752566Y-121828103D01*
G75*
G02*
X-634952303Y-122873034I-1122334J77403D01*
G01*
G37*
%TD.AperFunction*%
X-634834900Y-121170700D03*
%TO.P,MX10,1*%
%TO.N,Col1*%
%TA.AperFunction,ComponentPad*%
G36*
G01*
X-641936212Y-124548050D02*
X-641936217Y-124548045D01*
G75*
G02*
X-642022245Y-122959383I751317J837345D01*
G01*
X-640712243Y-121499383D01*
G75*
G02*
X-639123581Y-121413355I837345J-751317D01*
G01*
X-639123581Y-121413355D01*
G75*
G02*
X-639037553Y-123002017I-751317J-837345D01*
G01*
X-640347555Y-124462017D01*
G75*
G02*
X-641936217Y-124548045I-837345J751317D01*
G01*
G37*
%TD.AperFunction*%
X-639874900Y-122250700D03*
%TD*%
%TO.P,MX9,2*%
%TO.N,Net-(D9-Pad2)*%
%TA.AperFunction,ComponentPad*%
G36*
G01*
X-634951417Y-103823095D02*
X-634952303Y-103823034D01*
G75*
G02*
X-635997234Y-102623297I77403J1122334D01*
G01*
X-635957234Y-102043297D01*
G75*
G02*
X-634757497Y-100998366I1122334J-77403D01*
G01*
X-634757497Y-100998366D01*
G75*
G02*
X-633712566Y-102198103I-77403J-1122334D01*
G01*
X-633752566Y-102778103D01*
G75*
G02*
X-634952303Y-103823034I-1122334J77403D01*
G01*
G37*
%TD.AperFunction*%
X-634834900Y-102120700D03*
%TO.P,MX9,1*%
%TO.N,Col1*%
%TA.AperFunction,ComponentPad*%
G36*
G01*
X-641936212Y-105498050D02*
X-641936217Y-105498045D01*
G75*
G02*
X-642022245Y-103909383I751317J837345D01*
G01*
X-640712243Y-102449383D01*
G75*
G02*
X-639123581Y-102363355I837345J-751317D01*
G01*
X-639123581Y-102363355D01*
G75*
G02*
X-639037553Y-103952017I-751317J-837345D01*
G01*
X-640347555Y-105412017D01*
G75*
G02*
X-641936217Y-105498045I-837345J751317D01*
G01*
G37*
%TD.AperFunction*%
X-639874900Y-103200700D03*
%TD*%
%TO.P,MX8,2*%
%TO.N,Net-(D8-Pad2)*%
%TA.AperFunction,ComponentPad*%
G36*
G01*
X-615901417Y-103823095D02*
X-615902303Y-103823034D01*
G75*
G02*
X-616947234Y-102623297I77403J1122334D01*
G01*
X-616907234Y-102043297D01*
G75*
G02*
X-615707497Y-100998366I1122334J-77403D01*
G01*
X-615707497Y-100998366D01*
G75*
G02*
X-614662566Y-102198103I-77403J-1122334D01*
G01*
X-614702566Y-102778103D01*
G75*
G02*
X-615902303Y-103823034I-1122334J77403D01*
G01*
G37*
%TD.AperFunction*%
X-615784900Y-102120700D03*
%TO.P,MX8,1*%
%TO.N,Col1*%
%TA.AperFunction,ComponentPad*%
G36*
G01*
X-622886212Y-105498050D02*
X-622886217Y-105498045D01*
G75*
G02*
X-622972245Y-103909383I751317J837345D01*
G01*
X-621662243Y-102449383D01*
G75*
G02*
X-620073581Y-102363355I837345J-751317D01*
G01*
X-620073581Y-102363355D01*
G75*
G02*
X-619987553Y-103952017I-751317J-837345D01*
G01*
X-621297555Y-105412017D01*
G75*
G02*
X-622886217Y-105498045I-837345J751317D01*
G01*
G37*
%TD.AperFunction*%
X-620824900Y-103200700D03*
%TD*%
%TO.P,MX7,2*%
%TO.N,Net-(D7-Pad2)*%
%TA.AperFunction,ComponentPad*%
G36*
G01*
X-615901417Y-84773095D02*
X-615902303Y-84773034D01*
G75*
G02*
X-616947234Y-83573297I77403J1122334D01*
G01*
X-616907234Y-82993297D01*
G75*
G02*
X-615707497Y-81948366I1122334J-77403D01*
G01*
X-615707497Y-81948366D01*
G75*
G02*
X-614662566Y-83148103I-77403J-1122334D01*
G01*
X-614702566Y-83728103D01*
G75*
G02*
X-615902303Y-84773034I-1122334J77403D01*
G01*
G37*
%TD.AperFunction*%
X-615784900Y-83070700D03*
%TO.P,MX7,1*%
%TO.N,Col1*%
%TA.AperFunction,ComponentPad*%
G36*
G01*
X-622886212Y-86448050D02*
X-622886217Y-86448045D01*
G75*
G02*
X-622972245Y-84859383I751317J837345D01*
G01*
X-621662243Y-83399383D01*
G75*
G02*
X-620073581Y-83313355I837345J-751317D01*
G01*
X-620073581Y-83313355D01*
G75*
G02*
X-619987553Y-84902017I-751317J-837345D01*
G01*
X-621297555Y-86362017D01*
G75*
G02*
X-622886217Y-86448045I-837345J751317D01*
G01*
G37*
%TD.AperFunction*%
X-620824900Y-84150700D03*
%TD*%
%TO.P,MX5,2*%
%TO.N,Net-(D5-Pad2)*%
%TA.AperFunction,ComponentPad*%
G36*
G01*
X-654001417Y-141923095D02*
X-654002303Y-141923034D01*
G75*
G02*
X-655047234Y-140723297I77403J1122334D01*
G01*
X-655007234Y-140143297D01*
G75*
G02*
X-653807497Y-139098366I1122334J-77403D01*
G01*
X-653807497Y-139098366D01*
G75*
G02*
X-652762566Y-140298103I-77403J-1122334D01*
G01*
X-652802566Y-140878103D01*
G75*
G02*
X-654002303Y-141923034I-1122334J77403D01*
G01*
G37*
%TD.AperFunction*%
X-653884900Y-140220700D03*
%TO.P,MX5,1*%
%TO.N,Col0*%
%TA.AperFunction,ComponentPad*%
G36*
G01*
X-660986212Y-143598050D02*
X-660986217Y-143598045D01*
G75*
G02*
X-661072245Y-142009383I751317J837345D01*
G01*
X-659762243Y-140549383D01*
G75*
G02*
X-658173581Y-140463355I837345J-751317D01*
G01*
X-658173581Y-140463355D01*
G75*
G02*
X-658087553Y-142052017I-751317J-837345D01*
G01*
X-659397555Y-143512017D01*
G75*
G02*
X-660986217Y-143598045I-837345J751317D01*
G01*
G37*
%TD.AperFunction*%
X-658924900Y-141300700D03*
%TD*%
%TO.P,MX4,2*%
%TO.N,Net-(D4-Pad2)*%
%TA.AperFunction,ComponentPad*%
G36*
G01*
X-654001417Y-122873095D02*
X-654002303Y-122873034D01*
G75*
G02*
X-655047234Y-121673297I77403J1122334D01*
G01*
X-655007234Y-121093297D01*
G75*
G02*
X-653807497Y-120048366I1122334J-77403D01*
G01*
X-653807497Y-120048366D01*
G75*
G02*
X-652762566Y-121248103I-77403J-1122334D01*
G01*
X-652802566Y-121828103D01*
G75*
G02*
X-654002303Y-122873034I-1122334J77403D01*
G01*
G37*
%TD.AperFunction*%
X-653884900Y-121170700D03*
%TO.P,MX4,1*%
%TO.N,Col0*%
%TA.AperFunction,ComponentPad*%
G36*
G01*
X-660986212Y-124548050D02*
X-660986217Y-124548045D01*
G75*
G02*
X-661072245Y-122959383I751317J837345D01*
G01*
X-659762243Y-121499383D01*
G75*
G02*
X-658173581Y-121413355I837345J-751317D01*
G01*
X-658173581Y-121413355D01*
G75*
G02*
X-658087553Y-123002017I-751317J-837345D01*
G01*
X-659397555Y-124462017D01*
G75*
G02*
X-660986217Y-124548045I-837345J751317D01*
G01*
G37*
%TD.AperFunction*%
X-658924900Y-122250700D03*
%TD*%
%TO.P,MX3,2*%
%TO.N,Net-(D3-Pad2)*%
%TA.AperFunction,ComponentPad*%
G36*
G01*
X-654001417Y-103823095D02*
X-654002303Y-103823034D01*
G75*
G02*
X-655047234Y-102623297I77403J1122334D01*
G01*
X-655007234Y-102043297D01*
G75*
G02*
X-653807497Y-100998366I1122334J-77403D01*
G01*
X-653807497Y-100998366D01*
G75*
G02*
X-652762566Y-102198103I-77403J-1122334D01*
G01*
X-652802566Y-102778103D01*
G75*
G02*
X-654002303Y-103823034I-1122334J77403D01*
G01*
G37*
%TD.AperFunction*%
X-653884900Y-102120700D03*
%TO.P,MX3,1*%
%TO.N,Col0*%
%TA.AperFunction,ComponentPad*%
G36*
G01*
X-660986212Y-105498050D02*
X-660986217Y-105498045D01*
G75*
G02*
X-661072245Y-103909383I751317J837345D01*
G01*
X-659762243Y-102449383D01*
G75*
G02*
X-658173581Y-102363355I837345J-751317D01*
G01*
X-658173581Y-102363355D01*
G75*
G02*
X-658087553Y-103952017I-751317J-837345D01*
G01*
X-659397555Y-105412017D01*
G75*
G02*
X-660986217Y-105498045I-837345J751317D01*
G01*
G37*
%TD.AperFunction*%
X-658924900Y-103200700D03*
%TD*%
%TO.P,MX2,2*%
%TO.N,Net-(D2-Pad2)*%
%TA.AperFunction,ComponentPad*%
G36*
G01*
X-654001417Y-84773095D02*
X-654002303Y-84773034D01*
G75*
G02*
X-655047234Y-83573297I77403J1122334D01*
G01*
X-655007234Y-82993297D01*
G75*
G02*
X-653807497Y-81948366I1122334J-77403D01*
G01*
X-653807497Y-81948366D01*
G75*
G02*
X-652762566Y-83148103I-77403J-1122334D01*
G01*
X-652802566Y-83728103D01*
G75*
G02*
X-654002303Y-84773034I-1122334J77403D01*
G01*
G37*
%TD.AperFunction*%
X-653884900Y-83070700D03*
%TO.P,MX2,1*%
%TO.N,Col0*%
%TA.AperFunction,ComponentPad*%
G36*
G01*
X-660986212Y-86448050D02*
X-660986217Y-86448045D01*
G75*
G02*
X-661072245Y-84859383I751317J837345D01*
G01*
X-659762243Y-83399383D01*
G75*
G02*
X-658173581Y-83313355I837345J-751317D01*
G01*
X-658173581Y-83313355D01*
G75*
G02*
X-658087553Y-84902017I-751317J-837345D01*
G01*
X-659397555Y-86362017D01*
G75*
G02*
X-660986217Y-86448045I-837345J751317D01*
G01*
G37*
%TD.AperFunction*%
X-658924900Y-84150700D03*
%TD*%
%TO.P,MX1,2*%
%TO.N,Net-(D1-Pad2)*%
%TA.AperFunction,ComponentPad*%
G36*
G01*
X-634951417Y-84773095D02*
X-634952303Y-84773034D01*
G75*
G02*
X-635997234Y-83573297I77403J1122334D01*
G01*
X-635957234Y-82993297D01*
G75*
G02*
X-634757497Y-81948366I1122334J-77403D01*
G01*
X-634757497Y-81948366D01*
G75*
G02*
X-633712566Y-83148103I-77403J-1122334D01*
G01*
X-633752566Y-83728103D01*
G75*
G02*
X-634952303Y-84773034I-1122334J77403D01*
G01*
G37*
%TD.AperFunction*%
X-634834900Y-83070700D03*
%TO.P,MX1,1*%
%TO.N,Col0*%
%TA.AperFunction,ComponentPad*%
G36*
G01*
X-641936212Y-86448050D02*
X-641936217Y-86448045D01*
G75*
G02*
X-642022245Y-84859383I751317J837345D01*
G01*
X-640712243Y-83399383D01*
G75*
G02*
X-639123581Y-83313355I837345J-751317D01*
G01*
X-639123581Y-83313355D01*
G75*
G02*
X-639037553Y-84902017I-751317J-837345D01*
G01*
X-640347555Y-86362017D01*
G75*
G02*
X-641936217Y-86448045I-837345J751317D01*
G01*
G37*
%TD.AperFunction*%
X-639874900Y-84150700D03*
%TD*%
D15*
%TO.N,Row0*%
X-513524500Y-65975500D03*
%TO.N,Row1*%
X-535990800Y-98120200D03*
%TO.N,Row2*%
X-546862000Y-146938000D03*
X-495452400Y-93634000D03*
X-494474500Y-108838000D03*
%TO.N,Row3*%
X-578688200Y-153136600D03*
X-565975500Y-165988000D03*
X-521534588Y-132782701D03*
%TO.N,Row4*%
X-526636991Y-155942993D03*
%TO.N,Row5*%
X-527812000Y-165988000D03*
X-599389200Y-169392600D03*
X-589788000Y-156463000D03*
%TO.N,Col3*%
X-577900800Y-77216000D03*
%TO.N,Col5*%
X-523494000Y-77765200D03*
%TO.N,Col6*%
X-535294862Y-114958404D03*
%TO.N,Col7*%
X-537921775Y-115367379D03*
%TO.N,Col8*%
X-510184400Y-79086000D03*
X-507187329Y-73454030D03*
X-419743351Y-76684826D03*
%TO.N,Col9*%
X-551689833Y-110822033D03*
%TO.N,Col10*%
X-551424400Y-112115600D03*
%TD*%
D16*
%TO.N,Row0*%
X-525130101Y-77581101D02*
X-513524500Y-65975500D01*
X-554574099Y-77581101D02*
X-525130101Y-77581101D01*
X-555777400Y-76377800D02*
X-554574099Y-77581101D01*
%TO.N,Row2*%
X-550697400Y-143102600D02*
X-546862000Y-146938000D01*
X-550697400Y-86537800D02*
X-550697400Y-143102600D01*
X-495452400Y-107860100D02*
X-494474500Y-108838000D01*
X-495452400Y-93634000D02*
X-495452400Y-107860100D01*
%TO.N,Row3*%
X-565975500Y-164110494D02*
X-565975500Y-165988000D01*
X-576949394Y-153136600D02*
X-565975500Y-164110494D01*
X-578688200Y-153136600D02*
X-576949394Y-153136600D01*
X-543077400Y-111239889D02*
X-521534588Y-132782701D01*
X-543077400Y-86537800D02*
X-543077400Y-111239889D01*
%TO.N,Row4*%
X-545617400Y-86537800D02*
X-543531410Y-88623790D01*
X-543531410Y-111427946D02*
X-532638000Y-122321356D01*
X-543531410Y-88623790D02*
X-543531410Y-111427946D01*
X-532638000Y-149941984D02*
X-526636991Y-155942993D01*
X-532638000Y-122321356D02*
X-532638000Y-149941984D01*
%TO.N,Row5*%
X-589788000Y-159791400D02*
X-589788000Y-156463000D01*
X-599389200Y-169392600D02*
X-589788000Y-159791400D01*
X-589788000Y-156463000D02*
X-588263000Y-156463000D01*
X-548157400Y-86537800D02*
X-543985420Y-90709780D01*
X-543985420Y-111616003D02*
X-533092010Y-122509413D01*
X-543985420Y-90709780D02*
X-543985420Y-111616003D01*
X-528866138Y-165988000D02*
X-527812000Y-165988000D01*
X-533092010Y-161762128D02*
X-528866138Y-165988000D01*
X-533092010Y-122509413D02*
X-533092010Y-161762128D01*
%TO.N,Net-(D101-Pad2)*%
X-219796504Y-121225700D02*
X-220321504Y-121750700D01*
X-215796504Y-121225700D02*
X-219796504Y-121225700D01*
X-215796504Y-114806104D02*
X-215796504Y-121225700D01*
X-213906100Y-112915700D02*
X-215796504Y-114806104D01*
X-210756504Y-112915700D02*
X-213906100Y-112915700D01*
%TO.N,Col0*%
X-656354951Y-81580751D02*
X-658924900Y-84150700D01*
X-645214849Y-81580751D02*
X-656354951Y-81580751D01*
X-641184900Y-85610700D02*
X-645214849Y-81580751D01*
X-658924900Y-89969662D02*
X-658924900Y-103200700D01*
X-660234900Y-88659662D02*
X-658924900Y-89969662D01*
X-660234900Y-85610700D02*
X-660234900Y-88659662D01*
X-660234900Y-120940700D02*
X-658924900Y-122250700D01*
X-660234900Y-104660700D02*
X-660234900Y-120940700D01*
X-661158801Y-158116799D02*
X-658924900Y-160350700D01*
X-661158801Y-154981667D02*
X-661158801Y-158116799D01*
X-660234900Y-154057766D02*
X-661158801Y-154981667D01*
X-660234900Y-142760700D02*
X-660234900Y-154057766D01*
X-660234900Y-161810700D02*
X-650709900Y-161810700D01*
X-660234900Y-139990700D02*
X-658924900Y-141300700D01*
X-660234900Y-123710700D02*
X-660234900Y-139990700D01*
%TO.N,Col1*%
X-622134900Y-101890700D02*
X-620824900Y-103200700D01*
X-622134900Y-85610700D02*
X-622134900Y-101890700D01*
X-637342899Y-100668699D02*
X-639874900Y-103200700D01*
X-626126901Y-100668699D02*
X-637342899Y-100668699D01*
X-622134900Y-104660700D02*
X-626126901Y-100668699D01*
X-641184900Y-120940700D02*
X-639874900Y-122250700D01*
X-641184900Y-104660700D02*
X-641184900Y-120940700D01*
X-641184900Y-139990700D02*
X-639874900Y-141300700D01*
X-641184900Y-123710700D02*
X-641184900Y-139990700D01*
X-641184900Y-159040700D02*
X-639874900Y-160350700D01*
X-641184900Y-142760700D02*
X-641184900Y-159040700D01*
%TO.N,Col2*%
X-602284951Y-118235751D02*
X-603274900Y-119225700D01*
X-602284951Y-86410649D02*
X-602284951Y-118235751D01*
X-603084900Y-85610700D02*
X-602284951Y-86410649D01*
X-622134900Y-139990700D02*
X-620824900Y-141300700D01*
X-622134900Y-123710700D02*
X-622134900Y-123710700D01*
X-622134900Y-159040700D02*
X-620824900Y-160350700D01*
X-622134900Y-142760700D02*
X-622134900Y-159040700D01*
X-622134900Y-123710700D02*
X-622134900Y-139990700D01*
%TO.N,Col3*%
X-579323200Y-85661500D02*
X-579272400Y-85610700D01*
X-545202349Y-157780751D02*
X-541172400Y-161810700D01*
X-556192451Y-157780751D02*
X-545202349Y-157780751D01*
X-560222400Y-161810700D02*
X-556192451Y-157780751D01*
X-560222400Y-159040700D02*
X-558912400Y-160350700D01*
X-560222400Y-142760700D02*
X-560222400Y-159040700D01*
X-579272400Y-78587600D02*
X-579272400Y-85610700D01*
X-577900800Y-77216000D02*
X-579272400Y-78587600D01*
X-527304962Y-61785500D02*
X-526796000Y-61785500D01*
X-533073961Y-67554499D02*
X-527304962Y-61785500D01*
X-549494099Y-67554499D02*
X-533073961Y-67554499D01*
X-555777400Y-73837800D02*
X-549494099Y-67554499D01*
X-579272400Y-85610700D02*
X-579272400Y-104470200D01*
X-560222400Y-123520200D02*
X-560222400Y-142760700D01*
X-579272400Y-104470200D02*
X-560222400Y-123520200D01*
%TO.N,Col4*%
X-529266150Y-152285700D02*
X-519741150Y-161810700D01*
X-529266150Y-142760700D02*
X-529266150Y-152285700D01*
X-522061201Y-138730751D02*
X-512121150Y-128790700D01*
X-525236201Y-138730751D02*
X-522061201Y-138730751D01*
X-529266150Y-142760700D02*
X-525236201Y-138730751D01*
X-513106362Y-104660700D02*
X-512597400Y-104660700D01*
X-524503650Y-116057988D02*
X-513106362Y-104660700D01*
X-524503650Y-123710700D02*
X-524503650Y-116057988D01*
X-522068651Y-123375699D02*
X-523193650Y-122250700D01*
X-515371217Y-123375699D02*
X-522068651Y-123375699D01*
X-512121150Y-126625766D02*
X-515371217Y-123375699D01*
X-512121150Y-128790700D02*
X-512121150Y-126625766D01*
X-511287400Y-93316738D02*
X-511287400Y-103200700D01*
X-503581362Y-85610700D02*
X-511287400Y-93316738D01*
X-503072400Y-85610700D02*
X-503581362Y-85610700D01*
X-498729962Y-61785500D02*
X-498221000Y-61785500D01*
X-503072400Y-66127938D02*
X-498729962Y-61785500D01*
X-503072400Y-85610700D02*
X-503072400Y-66127938D01*
%TO.N,Col5*%
X-479238999Y-80827299D02*
X-484022400Y-85610700D01*
X-479238999Y-63796599D02*
X-479238999Y-80827299D01*
X-479171000Y-63728600D02*
X-479238999Y-63796599D01*
X-479171000Y-61785500D02*
X-479171000Y-63728600D01*
X-488784900Y-89864238D02*
X-488784900Y-104660700D01*
X-485869361Y-86948699D02*
X-488784900Y-89864238D01*
X-484022400Y-85826600D02*
X-485144499Y-86948699D01*
X-485144499Y-86948699D02*
X-485869361Y-86948699D01*
X-484022400Y-85610700D02*
X-484022400Y-85826600D01*
X-493547400Y-108914238D02*
X-493547400Y-123710700D01*
X-489293862Y-104660700D02*
X-493547400Y-108914238D01*
X-488784900Y-104660700D02*
X-489293862Y-104660700D01*
X-498309900Y-127964238D02*
X-498309900Y-142760700D01*
X-494056362Y-123710700D02*
X-498309900Y-127964238D01*
X-493547400Y-123710700D02*
X-494056362Y-123710700D01*
X-498309900Y-156659450D02*
X-494618650Y-160350700D01*
X-498309900Y-142760700D02*
X-498309900Y-156659450D01*
X-554574099Y-80121101D02*
X-555777400Y-78917800D01*
X-525849901Y-80121101D02*
X-554574099Y-80121101D01*
X-523494000Y-77765200D02*
X-525849901Y-80121101D01*
%TO.N,Col6*%
X-458188362Y-68467061D02*
X-458188362Y-86843378D01*
X-453563571Y-63842270D02*
X-458188362Y-68467061D01*
X-452025234Y-63842270D02*
X-453563571Y-63842270D01*
X-463118864Y-90235543D02*
X-463118864Y-105244264D01*
X-459726699Y-86843378D02*
X-463118864Y-90235543D01*
X-458188362Y-86843378D02*
X-459726699Y-86843378D01*
X-464657201Y-105244264D02*
X-468049366Y-108636429D01*
X-468049366Y-108636429D02*
X-468049366Y-123645150D01*
X-463118864Y-105244264D02*
X-464657201Y-105244264D01*
X-472979868Y-127037315D02*
X-472979868Y-142046036D01*
X-469587703Y-123645150D02*
X-472979868Y-127037315D01*
X-468049366Y-123645150D02*
X-469587703Y-123645150D01*
X-472979868Y-153590838D02*
X-461809595Y-164761111D01*
X-472979868Y-142046036D02*
X-472979868Y-153590838D01*
X-539108689Y-111144577D02*
X-535294862Y-114958404D01*
X-539959815Y-82794499D02*
X-539108689Y-83645625D01*
X-554440701Y-82794499D02*
X-539959815Y-82794499D01*
X-539108689Y-83645625D02*
X-539108689Y-111144577D01*
X-555777400Y-81457800D02*
X-554440701Y-82794499D01*
%TO.N,Col7*%
X-438554850Y-68797341D02*
X-438554850Y-87173658D01*
X-433930059Y-64172550D02*
X-438554850Y-68797341D01*
X-432391722Y-64172550D02*
X-433930059Y-64172550D01*
X-440093187Y-87173658D02*
X-443485352Y-90565823D01*
X-443485352Y-90565823D02*
X-443485352Y-105574544D01*
X-438554850Y-87173658D02*
X-440093187Y-87173658D01*
X-448415854Y-108966709D02*
X-448415854Y-123975430D01*
X-445023689Y-105574544D02*
X-448415854Y-108966709D01*
X-443485352Y-105574544D02*
X-445023689Y-105574544D01*
X-453346356Y-127367595D02*
X-453346356Y-142376316D01*
X-449954191Y-123975430D02*
X-453346356Y-127367595D01*
X-448415854Y-123975430D02*
X-449954191Y-123975430D01*
X-433140782Y-172686411D02*
X-433140782Y-177373398D01*
X-453346356Y-152480837D02*
X-433140782Y-172686411D01*
X-453346356Y-142376316D02*
X-453346356Y-152480837D01*
X-539562699Y-89881099D02*
X-542623390Y-92941790D01*
X-539562699Y-84972501D02*
X-539562699Y-89881099D01*
X-540537400Y-83997800D02*
X-539562699Y-84972501D01*
X-542623390Y-110665764D02*
X-537921775Y-115367379D01*
X-542623390Y-92941790D02*
X-542623390Y-110665764D01*
%TO.N,Col8*%
X-419743351Y-76684826D02*
X-419743351Y-95633183D01*
X-416761799Y-73703274D02*
X-419743351Y-76684826D01*
X-415223462Y-73703274D02*
X-416761799Y-73703274D01*
X-424673853Y-98453308D02*
X-424673853Y-114034069D01*
X-422924927Y-96704382D02*
X-424673853Y-98453308D01*
X-421386590Y-96704382D02*
X-422924927Y-96704382D01*
X-429604355Y-116854194D02*
X-429604355Y-132434955D01*
X-427855429Y-115105268D02*
X-429604355Y-116854194D01*
X-426317092Y-115105268D02*
X-427855429Y-115105268D01*
X-434534857Y-135255080D02*
X-434534857Y-150835841D01*
X-432785931Y-133506154D02*
X-434534857Y-135255080D01*
X-431247594Y-133506154D02*
X-432785931Y-133506154D01*
X-405539452Y-183404859D02*
X-405539452Y-184769152D01*
X-415336198Y-173608113D02*
X-405539452Y-183404859D01*
X-418328732Y-173608113D02*
X-415336198Y-173608113D01*
X-436178096Y-155758749D02*
X-418328732Y-173608113D01*
X-436178096Y-151907040D02*
X-436178096Y-155758749D01*
X-510184400Y-76451101D02*
X-507187329Y-73454030D01*
X-510184400Y-79086000D02*
X-510184400Y-76451101D01*
%TO.N,Col9*%
X-417062876Y-160366565D02*
X-417366597Y-160366565D01*
X-413666158Y-163763283D02*
X-417062876Y-160366565D01*
X-403213933Y-163763283D02*
X-413666158Y-163763283D01*
X-400608950Y-166368266D02*
X-403213933Y-163763283D01*
X-415617671Y-143036878D02*
X-414079334Y-143036878D01*
X-419009836Y-146429043D02*
X-415617671Y-143036878D01*
X-419009836Y-161437764D02*
X-419009836Y-146429043D01*
X-410687169Y-124635992D02*
X-409148832Y-124635992D01*
X-414079334Y-128028157D02*
X-410687169Y-124635992D01*
X-414079334Y-143036878D02*
X-414079334Y-128028157D01*
X-405756667Y-106235106D02*
X-404218330Y-106235106D01*
X-409148832Y-109627271D02*
X-405756667Y-106235106D01*
X-409148832Y-124635992D02*
X-409148832Y-109627271D01*
X-399593539Y-83233998D02*
X-398055202Y-83233998D01*
X-404218330Y-87858789D02*
X-399593539Y-83233998D01*
X-404218330Y-106235106D02*
X-404218330Y-87858789D01*
X-555777400Y-106734466D02*
X-551689833Y-110822033D01*
X-555777400Y-86537800D02*
X-555777400Y-106734466D01*
%TO.N,Col10*%
X-375269823Y-102676855D02*
X-369739371Y-108207307D01*
X-375269823Y-85838875D02*
X-375269823Y-102676855D01*
X-375902499Y-85206199D02*
X-375269823Y-85838875D01*
X-369106695Y-122310367D02*
X-364808869Y-126608193D01*
X-369106695Y-108839983D02*
X-369106695Y-122310367D01*
X-369739371Y-108207307D02*
X-369106695Y-108839983D01*
X-364176193Y-140711253D02*
X-359878367Y-145009079D01*
X-364176193Y-127240869D02*
X-364176193Y-140711253D01*
X-364808869Y-126608193D02*
X-364176193Y-127240869D01*
X-359245691Y-159112139D02*
X-354947865Y-163409965D01*
X-359245691Y-145641755D02*
X-359245691Y-159112139D01*
X-359878367Y-145009079D02*
X-359245691Y-145641755D01*
X-368510572Y-162703123D02*
X-373348751Y-167541302D01*
X-373348751Y-167541302D02*
X-373348751Y-168340467D01*
X-355654707Y-162703123D02*
X-368510572Y-162703123D01*
X-354947865Y-163409965D02*
X-355654707Y-162703123D01*
X-556980701Y-106559299D02*
X-551424400Y-112115600D01*
X-556980701Y-85201101D02*
X-556980701Y-106559299D01*
X-555777400Y-83997800D02*
X-556980701Y-85201101D01*
%TO.N,Col11*%
X-358101563Y-93146131D02*
X-352571111Y-98676583D01*
X-358101563Y-76308151D02*
X-358101563Y-93146131D01*
X-358734239Y-75675475D02*
X-358101563Y-76308151D01*
X-347640609Y-105187236D02*
X-347640609Y-117077469D01*
X-352571111Y-100256734D02*
X-347640609Y-105187236D01*
X-352571111Y-98676583D02*
X-352571111Y-100256734D01*
X-347007933Y-131180529D02*
X-342710107Y-135478355D01*
X-347007933Y-117710145D02*
X-347007933Y-131180529D01*
X-347640609Y-117077469D02*
X-347007933Y-117710145D01*
X-337779605Y-141722809D02*
X-337779605Y-153879241D01*
X-342710107Y-136792307D02*
X-337779605Y-141722809D01*
X-342710107Y-135478355D02*
X-342710107Y-136792307D01*
X-352317473Y-181627999D02*
X-352317473Y-182427164D01*
X-337146929Y-166457455D02*
X-352317473Y-181627999D01*
X-337146929Y-154511917D02*
X-337146929Y-166457455D01*
X-337779605Y-153879241D02*
X-337146929Y-154511917D01*
%TO.N,Col12*%
X-340933303Y-83615407D02*
X-335402851Y-89145859D01*
X-340933303Y-66777427D02*
X-340933303Y-83615407D01*
X-341565979Y-66144751D02*
X-340933303Y-66777427D01*
X-330472349Y-95656512D02*
X-330472349Y-107546745D01*
X-335402851Y-90726010D02*
X-330472349Y-95656512D01*
X-335402851Y-89145859D02*
X-335402851Y-90726010D01*
X-325541847Y-114057398D02*
X-325541847Y-125947631D01*
X-330472349Y-109126896D02*
X-325541847Y-114057398D01*
X-330472349Y-107546745D02*
X-330472349Y-109126896D01*
X-320611345Y-132458284D02*
X-320611345Y-144348517D01*
X-325541847Y-127527782D02*
X-320611345Y-132458284D01*
X-325541847Y-125947631D02*
X-325541847Y-127527782D01*
X-316748325Y-149791688D02*
X-316748325Y-167965938D01*
X-320611345Y-145928668D02*
X-316748325Y-149791688D01*
X-320611345Y-144348517D02*
X-320611345Y-145928668D01*
%TO.N,Col13*%
X-321299790Y-83285126D02*
X-315769338Y-88815578D01*
X-321299790Y-66447146D02*
X-321299790Y-83285126D01*
X-321932466Y-65814470D02*
X-321299790Y-66447146D01*
X-310838836Y-95326231D02*
X-310838836Y-107216464D01*
X-315769338Y-90395729D02*
X-310838836Y-95326231D01*
X-315769338Y-88815578D02*
X-315769338Y-90395729D01*
X-310206160Y-121319524D02*
X-305908334Y-125617350D01*
X-310206160Y-107849140D02*
X-310206160Y-121319524D01*
X-310838836Y-107216464D02*
X-310206160Y-107849140D01*
X-300977832Y-131794236D02*
X-300977832Y-144018236D01*
X-305908334Y-126863734D02*
X-300977832Y-131794236D01*
X-305908334Y-125617350D02*
X-305908334Y-126863734D01*
X-284765519Y-161810700D02*
X-264731504Y-161810700D01*
X-300977832Y-145598387D02*
X-284765519Y-161810700D01*
X-300977832Y-144018236D02*
X-300977832Y-145598387D01*
%TO.N,Col14*%
X-290925254Y-82840700D02*
X-289615254Y-84150700D01*
X-290925254Y-61798200D02*
X-290925254Y-82840700D01*
X-290925254Y-95135700D02*
X-281400254Y-104660700D01*
X-290925254Y-85610700D02*
X-290925254Y-95135700D01*
X-281400254Y-118948200D02*
X-276637754Y-123710700D01*
X-281400254Y-104660700D02*
X-281400254Y-118948200D01*
X-276637754Y-139990700D02*
X-275327754Y-141300700D01*
X-276637754Y-123710700D02*
X-276637754Y-139990700D01*
X-270328589Y-151234799D02*
X-251990201Y-151234799D01*
X-276637754Y-144925634D02*
X-270328589Y-151234799D01*
X-276637754Y-142760700D02*
X-276637754Y-144925634D01*
X-241414300Y-161810700D02*
X-240919004Y-161810700D01*
X-251990201Y-151234799D02*
X-241414300Y-161810700D01*
%TO.N,Col15*%
X-245681504Y-144925634D02*
X-245681504Y-142760700D01*
X-228796438Y-161810700D02*
X-245681504Y-144925634D01*
X-217106504Y-161810700D02*
X-228796438Y-161810700D01*
X-245681504Y-137781884D02*
X-257587754Y-125875634D01*
X-257587754Y-125875634D02*
X-257587754Y-123710700D01*
X-245681504Y-142760700D02*
X-245681504Y-137781884D01*
X-262350254Y-118948200D02*
X-262350254Y-104660700D01*
X-257587754Y-123710700D02*
X-262350254Y-118948200D01*
X-271875254Y-95135700D02*
X-262350254Y-104660700D01*
X-271875254Y-85610700D02*
X-271875254Y-95135700D01*
X-271875254Y-61798200D02*
X-271875254Y-85610700D01*
%TO.N,Col16*%
X-208796504Y-119918182D02*
X-208796504Y-119225700D01*
X-209995023Y-121116701D02*
X-208796504Y-119918182D01*
X-210864211Y-121116701D02*
X-209995023Y-121116701D01*
X-213458210Y-123710700D02*
X-210864211Y-121116701D01*
X-226631504Y-123710700D02*
X-213458210Y-123710700D01*
X-213458210Y-141493656D02*
X-214725254Y-142760700D01*
X-213458210Y-123710700D02*
X-213458210Y-141493656D01*
X-252825254Y-83897162D02*
X-252825254Y-85610700D01*
X-233775254Y-64847162D02*
X-252825254Y-83897162D01*
X-233775254Y-61798200D02*
X-233775254Y-64847162D01*
X-252825254Y-95135700D02*
X-243300254Y-104660700D01*
X-252825254Y-85610700D02*
X-252825254Y-95135700D01*
X-243300254Y-106825634D02*
X-226631504Y-123494384D01*
X-226631504Y-123494384D02*
X-226631504Y-123710700D01*
X-243300254Y-104660700D02*
X-243300254Y-106825634D01*
%TO.N,Col17*%
X-214725254Y-75935700D02*
X-222940254Y-84150700D01*
X-214725254Y-61798200D02*
X-214725254Y-75935700D01*
X-218430503Y-103899219D02*
X-218430503Y-104660700D01*
X-224250254Y-98079468D02*
X-218430503Y-103899219D01*
X-224250254Y-85610700D02*
X-224250254Y-98079468D01*
%TD*%
M02*
