%TF.GenerationSoftware,KiCad,Pcbnew,(5.1.10)-1*%
%TF.CreationDate,2021-06-23T23:40:24-07:00*%
%TF.ProjectId,HSC_Alice,4853435f-416c-4696-9365-2e6b69636164,rev?*%
%TF.SameCoordinates,Original*%
%TF.FileFunction,Soldermask,Top*%
%TF.FilePolarity,Negative*%
%FSLAX46Y46*%
G04 Gerber Fmt 4.6, Leading zero omitted, Abs format (unit mm)*
G04 Created by KiCad (PCBNEW (5.1.10)-1) date 2021-06-23 23:40:24*
%MOMM*%
%LPD*%
G01*
G04 APERTURE LIST*
%ADD10C,1.750000*%
%ADD11C,3.987800*%
%ADD12C,3.048000*%
%ADD13O,1.700000X2.700000*%
G04 APERTURE END LIST*
D10*
%TO.C,MX105*%
X-194821050Y-107188000D03*
X-204981050Y-107188000D03*
D11*
X-199901050Y-107188000D03*
%TD*%
D10*
%TO.C,MX106*%
X-516286750Y-126238000D03*
X-506126750Y-126238000D03*
D11*
X-511206750Y-126238000D03*
%TD*%
%TO.C,MX95*%
X-214156800Y-153543000D03*
X-238032800Y-153543000D03*
D12*
X-214156800Y-138303000D03*
X-238032800Y-138303000D03*
D10*
X-221014800Y-145288000D03*
X-231174800Y-145288000D03*
D11*
X-226094800Y-145288000D03*
%TD*%
D10*
%TO.C,MX29*%
X-520414250Y-145288000D03*
X-530574250Y-145288000D03*
D11*
X-525494250Y-145288000D03*
%TD*%
D10*
%TO.C,MX6*%
X-651383000Y-164338000D03*
X-661543000Y-164338000D03*
D11*
X-656463000Y-164338000D03*
%TD*%
%TO.C,MX100*%
X-635000000Y-156083000D03*
X-658876000Y-156083000D03*
D12*
X-635000000Y-171323000D03*
X-658876000Y-171323000D03*
D10*
X-641858000Y-164338000D03*
X-652018000Y-164338000D03*
D11*
X-646938000Y-164338000D03*
%TD*%
%TO.C,MX72*%
X-329051715Y-169912210D03*
X-352114160Y-176091773D03*
D12*
X-325107312Y-184632919D03*
X-348169757Y-190812483D03*
D10*
X-333539483Y-179660908D03*
X-343353289Y-182290510D03*
D11*
X-338446386Y-180975709D03*
%TD*%
%TO.C,MX48*%
X-413817053Y-171161269D03*
X-436879498Y-164981706D03*
D12*
X-417761456Y-185881979D03*
X-440823901Y-179702415D03*
D10*
X-422577924Y-177360006D03*
X-432391730Y-174730404D03*
D11*
X-427484827Y-176045205D03*
%TD*%
D10*
%TO.C,MX28*%
X-510889250Y-126238000D03*
X-521049250Y-126238000D03*
D11*
X-515969250Y-126238000D03*
%TD*%
D13*
%TO.C,USB1*%
X-564228000Y-56565800D03*
X-556928000Y-56565800D03*
X-556928000Y-61065800D03*
X-564228000Y-61065800D03*
%TD*%
D10*
%TO.C,MX54*%
X-388076261Y-186604698D03*
X-397890067Y-183975096D03*
D11*
X-392983164Y-185289897D03*
%TD*%
%TO.C,MX104*%
X-192725550Y-96393000D03*
X-216601550Y-96393000D03*
D12*
X-192725550Y-81153000D03*
X-216601550Y-81153000D03*
D10*
X-199583550Y-88138000D03*
X-209743550Y-88138000D03*
D11*
X-204663550Y-88138000D03*
%TD*%
D10*
%TO.C,MX103*%
X-190058550Y-64325500D03*
X-200218550Y-64325500D03*
D11*
X-195138550Y-64325500D03*
%TD*%
D10*
%TO.C,MX102*%
X-190058550Y-145288000D03*
X-200218550Y-145288000D03*
D11*
X-195138550Y-145288000D03*
%TD*%
%TO.C,MX101*%
X-195106800Y-134493000D03*
X-218982800Y-134493000D03*
D12*
X-195106800Y-119253000D03*
X-218982800Y-119253000D03*
D10*
X-201964800Y-126238000D03*
X-212124800Y-126238000D03*
D11*
X-207044800Y-126238000D03*
%TD*%
D10*
%TO.C,MX99*%
X-218633550Y-107188000D03*
X-228793550Y-107188000D03*
D11*
X-223713550Y-107188000D03*
%TD*%
D10*
%TO.C,MX98*%
X-228158550Y-88138000D03*
X-238318550Y-88138000D03*
D11*
X-233238550Y-88138000D03*
%TD*%
D10*
%TO.C,MX97*%
X-209108550Y-64325500D03*
X-219268550Y-64325500D03*
D11*
X-214188550Y-64325500D03*
%TD*%
D10*
%TO.C,MX96*%
X-192439800Y-164338000D03*
X-202599800Y-164338000D03*
D11*
X-197519800Y-164338000D03*
%TD*%
D10*
%TO.C,MX94*%
X-232921050Y-126238000D03*
X-243081050Y-126238000D03*
D11*
X-238001050Y-126238000D03*
%TD*%
D10*
%TO.C,MX93*%
X-237683550Y-107188000D03*
X-247843550Y-107188000D03*
D11*
X-242763550Y-107188000D03*
%TD*%
D10*
%TO.C,MX92*%
X-247208550Y-88138000D03*
X-257368550Y-88138000D03*
D11*
X-252288550Y-88138000D03*
%TD*%
D10*
%TO.C,MX91*%
X-249589800Y-64325500D03*
X-259749800Y-64325500D03*
D11*
X-254669800Y-64325500D03*
%TD*%
D10*
%TO.C,MX90*%
X-216252300Y-164338000D03*
X-226412300Y-164338000D03*
D11*
X-221332300Y-164338000D03*
%TD*%
D10*
%TO.C,MX89*%
X-251971050Y-145288000D03*
X-262131050Y-145288000D03*
D11*
X-257051050Y-145288000D03*
%TD*%
D10*
%TO.C,MX88*%
X-251971050Y-126238000D03*
X-262131050Y-126238000D03*
D11*
X-257051050Y-126238000D03*
%TD*%
D10*
%TO.C,MX87*%
X-256733550Y-107188000D03*
X-266893550Y-107188000D03*
D11*
X-261813550Y-107188000D03*
%TD*%
D10*
%TO.C,MX86*%
X-266258550Y-88138000D03*
X-276418550Y-88138000D03*
D11*
X-271338550Y-88138000D03*
%TD*%
D10*
%TO.C,MX85*%
X-268639800Y-64325500D03*
X-278799800Y-64325500D03*
D11*
X-273719800Y-64325500D03*
%TD*%
%TO.C,MX84*%
X-245144800Y-164338000D03*
D10*
X-250224800Y-164338000D03*
X-240064800Y-164338000D03*
%TD*%
%TO.C,MX83*%
X-280967215Y-145852202D03*
X-290781021Y-148481804D03*
D11*
X-285874118Y-147167003D03*
%TD*%
D10*
%TO.C,MX82*%
X-284368439Y-127044493D03*
X-294182245Y-129674095D03*
D11*
X-289275342Y-128359294D03*
%TD*%
D10*
%TO.C,MX81*%
X-287822839Y-108248493D03*
X-297636645Y-110878095D03*
D11*
X-292729742Y-109563294D03*
%TD*%
D10*
%TO.C,MX80*%
X-291277239Y-89427093D03*
X-301091045Y-92056695D03*
D11*
X-296184142Y-90741894D03*
%TD*%
D10*
%TO.C,MX79*%
X-296336889Y-65350293D03*
X-306150695Y-67979895D03*
D11*
X-301243792Y-66665094D03*
%TD*%
D10*
%TO.C,MX78*%
X-296737710Y-169799903D03*
X-306551516Y-172429505D03*
D11*
X-301644613Y-171114704D03*
%TD*%
D10*
%TO.C,MX77*%
X-299368101Y-150782704D03*
X-309181907Y-153412306D03*
D11*
X-304275004Y-152097505D03*
%TD*%
D10*
%TO.C,MX76*%
X-302769325Y-131974995D03*
X-312583131Y-134604597D03*
D11*
X-307676228Y-133289796D03*
%TD*%
D10*
%TO.C,MX75*%
X-306223725Y-113178995D03*
X-316037531Y-115808597D03*
D11*
X-311130628Y-114493796D03*
%TD*%
D10*
%TO.C,MX74*%
X-309678125Y-94357595D03*
X-319491931Y-96987197D03*
D11*
X-314585028Y-95672396D03*
%TD*%
D10*
%TO.C,MX73*%
X-314737775Y-70280795D03*
X-324551581Y-72910397D03*
D11*
X-319644678Y-71595596D03*
%TD*%
D10*
%TO.C,MX71*%
X-317768987Y-155713206D03*
X-327582793Y-158342808D03*
D11*
X-322675890Y-157028007D03*
%TD*%
D10*
%TO.C,MX70*%
X-321170211Y-136905497D03*
X-330984017Y-139535099D03*
D11*
X-326077114Y-138220298D03*
%TD*%
D10*
%TO.C,MX69*%
X-324624611Y-118109497D03*
X-334438417Y-120739099D03*
D11*
X-329531514Y-119424298D03*
%TD*%
D10*
%TO.C,MX68*%
X-328079011Y-99288097D03*
X-337892817Y-101917699D03*
D11*
X-332985914Y-100602898D03*
%TD*%
D10*
%TO.C,MX67*%
X-333138661Y-75211297D03*
X-342952467Y-77840899D03*
D11*
X-338045564Y-76526098D03*
%TD*%
D10*
%TO.C,MX66*%
X-354570759Y-165574210D03*
X-364384565Y-168203812D03*
D11*
X-359477662Y-166889011D03*
%TD*%
D10*
%TO.C,MX65*%
X-336169873Y-160643708D03*
X-345983679Y-163273310D03*
D11*
X-341076776Y-161958509D03*
%TD*%
%TO.C,MX64*%
X-344478000Y-143150800D03*
D10*
X-349384903Y-144465601D03*
X-339571097Y-141835999D03*
%TD*%
D11*
%TO.C,MX63*%
X-347932400Y-124354800D03*
D10*
X-352839303Y-125669601D03*
X-343025497Y-123039999D03*
%TD*%
%TO.C,MX62*%
X-346479897Y-104218599D03*
X-356293703Y-106848201D03*
D11*
X-351386800Y-105533400D03*
%TD*%
D10*
%TO.C,MX61*%
X-351539547Y-80141799D03*
X-361353353Y-82771401D03*
D11*
X-356446450Y-81456600D03*
%TD*%
D10*
%TO.C,MX60*%
X-383145759Y-168203812D03*
X-392959565Y-165574210D03*
D11*
X-388052662Y-166889011D03*
%TD*%
D10*
%TO.C,MX59*%
X-401546645Y-163273310D03*
X-411360451Y-160643708D03*
D11*
X-406453548Y-161958509D03*
%TD*%
D10*
%TO.C,MX58*%
X-398059439Y-144495307D03*
X-407873245Y-141865705D03*
D11*
X-402966342Y-143180506D03*
%TD*%
D10*
%TO.C,MX57*%
X-394871202Y-125572307D03*
X-404685008Y-122942705D03*
D11*
X-399778105Y-124257506D03*
%TD*%
D10*
%TO.C,MX56*%
X-391563205Y-106759304D03*
X-401377011Y-104129702D03*
D11*
X-396470108Y-105444503D03*
%TD*%
D10*
%TO.C,MX55*%
X-386864205Y-82756804D03*
X-396678011Y-80127202D03*
D11*
X-391771108Y-81442003D03*
%TD*%
D10*
%TO.C,MX53*%
X-419947531Y-158342808D03*
X-429761337Y-155713206D03*
D11*
X-424854434Y-157028007D03*
%TD*%
D10*
%TO.C,MX52*%
X-416460325Y-139564805D03*
X-426274131Y-136935203D03*
D11*
X-421367228Y-138250004D03*
%TD*%
D10*
%TO.C,MX51*%
X-413272088Y-120641805D03*
X-423085894Y-118012203D03*
D11*
X-418178991Y-119327004D03*
%TD*%
D10*
%TO.C,MX50*%
X-409964091Y-101828802D03*
X-419777897Y-99199200D03*
D11*
X-414870994Y-100514001D03*
%TD*%
D10*
%TO.C,MX49*%
X-405265091Y-77826302D03*
X-415078897Y-75196700D03*
D11*
X-410171994Y-76511501D03*
%TD*%
%TO.C,MX47*%
X-443255320Y-152097505D03*
D10*
X-448162223Y-150782704D03*
X-438348417Y-153412306D03*
%TD*%
D11*
%TO.C,MX46*%
X-439768114Y-133319502D03*
D10*
X-444675017Y-132004701D03*
X-434861211Y-134634303D03*
%TD*%
D11*
%TO.C,MX45*%
X-436579877Y-114396502D03*
D10*
X-441486780Y-113081701D03*
X-431672974Y-115711303D03*
%TD*%
%TO.C,MX44*%
X-428364977Y-96898300D03*
X-438178783Y-94268698D03*
D11*
X-433271880Y-95583499D03*
%TD*%
D10*
%TO.C,MX43*%
X-423665977Y-72895800D03*
X-433479783Y-70266198D03*
D11*
X-428572880Y-71580999D03*
%TD*%
%TO.C,MX42*%
X-464286600Y-166184200D03*
D10*
X-469193503Y-164869399D03*
X-459379697Y-167499001D03*
%TD*%
%TO.C,MX41*%
X-456749303Y-148481804D03*
X-466563109Y-145852202D03*
D11*
X-461656206Y-147167003D03*
%TD*%
D10*
%TO.C,MX40*%
X-453262097Y-129703801D03*
X-463075903Y-127074199D03*
D11*
X-458169000Y-128389000D03*
%TD*%
D10*
%TO.C,MX39*%
X-450073860Y-110780801D03*
X-459887666Y-108151199D03*
D11*
X-454980763Y-109466000D03*
%TD*%
D10*
%TO.C,MX38*%
X-446765863Y-91967798D03*
X-456579669Y-89338196D03*
D11*
X-451672766Y-90652997D03*
%TD*%
D10*
%TO.C,MX37*%
X-442066863Y-67965298D03*
X-451880669Y-65335696D03*
D11*
X-446973766Y-66650497D03*
%TD*%
D10*
%TO.C,MX36*%
X-487076750Y-164338000D03*
X-497236750Y-164338000D03*
D11*
X-492156750Y-164338000D03*
%TD*%
D10*
%TO.C,MX35*%
X-489458000Y-145288000D03*
X-499618000Y-145288000D03*
D11*
X-494538000Y-145288000D03*
%TD*%
D10*
%TO.C,MX34*%
X-484695500Y-126238000D03*
X-494855500Y-126238000D03*
D11*
X-489775500Y-126238000D03*
%TD*%
D10*
%TO.C,MX33*%
X-479933000Y-107188000D03*
X-490093000Y-107188000D03*
D11*
X-485013000Y-107188000D03*
%TD*%
D10*
%TO.C,MX32*%
X-475170500Y-88138000D03*
X-485330500Y-88138000D03*
D11*
X-480250500Y-88138000D03*
%TD*%
D10*
%TO.C,MX31*%
X-470344500Y-64325500D03*
X-480504500Y-64325500D03*
D11*
X-475424500Y-64325500D03*
%TD*%
D10*
%TO.C,MX30*%
X-510889250Y-164338000D03*
X-521049250Y-164338000D03*
D11*
X-515969250Y-164338000D03*
%TD*%
D10*
%TO.C,MX27*%
X-503745500Y-107188000D03*
X-513905500Y-107188000D03*
D11*
X-508825500Y-107188000D03*
%TD*%
D10*
%TO.C,MX26*%
X-494220500Y-88138000D03*
X-504380500Y-88138000D03*
D11*
X-499300500Y-88138000D03*
%TD*%
D10*
%TO.C,MX25*%
X-489394500Y-64325500D03*
X-499554500Y-64325500D03*
D11*
X-494474500Y-64325500D03*
%TD*%
D10*
%TO.C,MX24*%
X-532320500Y-164338000D03*
X-542480500Y-164338000D03*
D11*
X-537400500Y-164338000D03*
%TD*%
D10*
%TO.C,MX23*%
X-551370500Y-164338000D03*
X-561530500Y-164338000D03*
D11*
X-556450500Y-164338000D03*
%TD*%
D10*
%TO.C,MX22*%
X-570420500Y-164338000D03*
X-580580500Y-164338000D03*
D11*
X-575500500Y-164338000D03*
%TD*%
D10*
%TO.C,MX21*%
X-551370500Y-145288000D03*
X-561530500Y-145288000D03*
D11*
X-556450500Y-145288000D03*
%TD*%
D10*
%TO.C,MX20*%
X-570420500Y-88138000D03*
X-580580500Y-88138000D03*
D11*
X-575500500Y-88138000D03*
%TD*%
D10*
%TO.C,MX19*%
X-517969500Y-64325500D03*
X-528129500Y-64325500D03*
D11*
X-523049500Y-64325500D03*
%TD*%
%TO.C,MX18*%
X-591058000Y-142875000D03*
X-591058000Y-166751000D03*
D12*
X-606298000Y-142875000D03*
X-606298000Y-166751000D03*
D10*
X-599313000Y-149733000D03*
X-599313000Y-159893000D03*
D11*
X-599313000Y-154813000D03*
%TD*%
D10*
%TO.C,MX17*%
X-613283000Y-164338000D03*
X-623443000Y-164338000D03*
D11*
X-618363000Y-164338000D03*
%TD*%
D10*
%TO.C,MX16*%
X-613283000Y-145288000D03*
X-623443000Y-145288000D03*
D11*
X-618363000Y-145288000D03*
%TD*%
D10*
%TO.C,MX15*%
X-613283000Y-126238000D03*
X-623443000Y-126238000D03*
D11*
X-618363000Y-126238000D03*
%TD*%
%TO.C,MX14*%
X-591058000Y-104775000D03*
X-591058000Y-128651000D03*
D12*
X-606298000Y-104775000D03*
X-606298000Y-128651000D03*
D10*
X-599313000Y-111633000D03*
X-599313000Y-121793000D03*
D11*
X-599313000Y-116713000D03*
%TD*%
D10*
%TO.C,MX13*%
X-594233000Y-88138000D03*
X-604393000Y-88138000D03*
D11*
X-599313000Y-88138000D03*
%TD*%
D10*
%TO.C,MX12*%
X-632333000Y-164338000D03*
X-642493000Y-164338000D03*
D11*
X-637413000Y-164338000D03*
%TD*%
D10*
%TO.C,MX11*%
X-632333000Y-145288000D03*
X-642493000Y-145288000D03*
D11*
X-637413000Y-145288000D03*
%TD*%
D10*
%TO.C,MX10*%
X-632333000Y-126238000D03*
X-642493000Y-126238000D03*
D11*
X-637413000Y-126238000D03*
%TD*%
D10*
%TO.C,MX9*%
X-632333000Y-107188000D03*
X-642493000Y-107188000D03*
D11*
X-637413000Y-107188000D03*
%TD*%
D10*
%TO.C,MX8*%
X-613283000Y-107188000D03*
X-623443000Y-107188000D03*
D11*
X-618363000Y-107188000D03*
%TD*%
D10*
%TO.C,MX7*%
X-613283000Y-88138000D03*
X-623443000Y-88138000D03*
D11*
X-618363000Y-88138000D03*
%TD*%
D10*
%TO.C,MX5*%
X-651383000Y-145288000D03*
X-661543000Y-145288000D03*
D11*
X-656463000Y-145288000D03*
%TD*%
D10*
%TO.C,MX4*%
X-651383000Y-126238000D03*
X-661543000Y-126238000D03*
D11*
X-656463000Y-126238000D03*
%TD*%
D10*
%TO.C,MX3*%
X-651383000Y-107188000D03*
X-661543000Y-107188000D03*
D11*
X-656463000Y-107188000D03*
%TD*%
D10*
%TO.C,MX2*%
X-651383000Y-88138000D03*
X-661543000Y-88138000D03*
D11*
X-656463000Y-88138000D03*
%TD*%
D10*
%TO.C,MX1*%
X-632333000Y-88138000D03*
X-642493000Y-88138000D03*
D11*
X-637413000Y-88138000D03*
%TD*%
M02*
