%TF.GenerationSoftware,KiCad,Pcbnew,(5.1.10)-1*%
%TF.CreationDate,2021-06-30T08:48:38-07:00*%
%TF.ProjectId,HSC_Alice,4853435f-416c-4696-9365-2e6b69636164,rev?*%
%TF.SameCoordinates,Original*%
%TF.FileFunction,Soldermask,Top*%
%TF.FilePolarity,Negative*%
%FSLAX46Y46*%
G04 Gerber Fmt 4.6, Leading zero omitted, Abs format (unit mm)*
G04 Created by KiCad (PCBNEW (5.1.10)-1) date 2021-06-30 08:48:38*
%MOMM*%
%LPD*%
G01*
G04 APERTURE LIST*
%ADD10C,1.750000*%
%ADD11C,3.987800*%
%ADD12C,3.048000*%
%ADD13C,1.701800*%
%ADD14C,1.752600*%
%ADD15R,1.752600X1.752600*%
G04 APERTURE END LIST*
D10*
%TO.C,MX15*%
X-613244900Y-126250700D03*
X-623404900Y-126250700D03*
D11*
X-618324900Y-126250700D03*
%TD*%
%TO.C,MX48*%
X-416450231Y-175929014D03*
X-439512676Y-169749451D03*
D12*
X-420394634Y-190649724D03*
X-443457079Y-184470160D03*
D10*
X-425211102Y-182127751D03*
X-435024908Y-179498149D03*
D11*
X-430118005Y-180812950D03*
%TD*%
%TO.C,MX13*%
X-599274900Y-88150700D03*
D10*
X-604354900Y-88150700D03*
X-594194900Y-88150700D03*
%TD*%
D11*
%TO.C,MX106*%
X-520693650Y-126250700D03*
D10*
X-525773650Y-126250700D03*
X-515613650Y-126250700D03*
%TD*%
D11*
%TO.C,MX95*%
X-241871504Y-145300700D03*
D10*
X-246951504Y-145300700D03*
X-236791504Y-145300700D03*
D12*
X-253809504Y-138315700D03*
X-229933504Y-138315700D03*
D11*
X-253809504Y-153555700D03*
X-229933504Y-153555700D03*
%TD*%
%TO.C,MX29*%
X-513518150Y-153555700D03*
X-537394150Y-153555700D03*
D12*
X-513518150Y-138315700D03*
X-537394150Y-138315700D03*
D10*
X-520376150Y-145300700D03*
X-530536150Y-145300700D03*
D11*
X-525456150Y-145300700D03*
%TD*%
%TO.C,MX6*%
X-646899900Y-164350700D03*
D10*
X-651979900Y-164350700D03*
X-641819900Y-164350700D03*
D12*
X-658837900Y-171335700D03*
X-634961900Y-171335700D03*
D11*
X-658837900Y-156095700D03*
X-634961900Y-156095700D03*
%TD*%
%TO.C,MX107*%
X-213296504Y-116725700D03*
D13*
X-213296504Y-111645700D03*
X-213296504Y-121805700D03*
D12*
X-220281504Y-128663700D03*
X-220281504Y-104787700D03*
D11*
X-205041504Y-128663700D03*
X-205041504Y-104787700D03*
%TD*%
D10*
%TO.C,MX105*%
X-210597754Y-107200700D03*
X-220757754Y-107200700D03*
D11*
X-215677754Y-107200700D03*
%TD*%
%TO.C,MX96*%
X-213296504Y-164350700D03*
D10*
X-218376504Y-164350700D03*
X-208216504Y-164350700D03*
%TD*%
D11*
%TO.C,MX36*%
X-492118650Y-164350700D03*
D10*
X-497198650Y-164350700D03*
X-487038650Y-164350700D03*
%TD*%
D11*
%TO.C,MX72*%
X-347979895Y-183894515D03*
D10*
X-352886798Y-185209316D03*
X-343072992Y-182579714D03*
D12*
X-357703266Y-193731289D03*
X-334640821Y-187551725D03*
D11*
X-361647669Y-179010579D03*
X-338585224Y-172831016D03*
%TD*%
%TO.C,MX100*%
X-656424900Y-164350700D03*
D10*
X-661504900Y-164350700D03*
X-651344900Y-164350700D03*
%TD*%
D11*
%TO.C,MX14*%
X-599274900Y-116725700D03*
D10*
X-599274900Y-121805700D03*
X-599274900Y-111645700D03*
D12*
X-606259900Y-128663700D03*
X-606259900Y-104787700D03*
D11*
X-591019900Y-128663700D03*
X-591019900Y-104787700D03*
%TD*%
%TO.C,MX18*%
X-599274900Y-154825700D03*
D10*
X-599274900Y-159905700D03*
X-599274900Y-149745700D03*
D12*
X-606259900Y-166763700D03*
X-606259900Y-142887700D03*
D11*
X-591019900Y-166763700D03*
X-591019900Y-142887700D03*
%TD*%
%TO.C,MX104*%
X-220440254Y-88150700D03*
D10*
X-225520254Y-88150700D03*
X-215360254Y-88150700D03*
D12*
X-232378254Y-81165700D03*
X-208502254Y-81165700D03*
D11*
X-232378254Y-96405700D03*
X-208502254Y-96405700D03*
%TD*%
%TO.C,MX16*%
X-618324900Y-145300700D03*
D10*
X-623404900Y-145300700D03*
X-613244900Y-145300700D03*
%TD*%
D11*
%TO.C,MX54*%
X-402516675Y-188208704D03*
D10*
X-407423578Y-186893903D03*
X-397609772Y-189523505D03*
%TD*%
D14*
%TO.C,U2*%
X-543077400Y-86537800D03*
X-545617400Y-86537800D03*
X-548157400Y-86537800D03*
X-550697400Y-86537800D03*
X-553237400Y-86537800D03*
X-555777400Y-58597800D03*
X-540766000Y-86537800D03*
X-555777400Y-61137800D03*
X-555777400Y-63677800D03*
X-555777400Y-66217800D03*
X-555777400Y-68757800D03*
X-555777400Y-71297800D03*
X-555777400Y-73837800D03*
X-555777400Y-76377800D03*
X-555777400Y-78917800D03*
X-555777400Y-81457800D03*
X-555777400Y-83997800D03*
X-555777400Y-86537800D03*
X-540537400Y-83997800D03*
X-540537400Y-81457800D03*
X-540537400Y-78917800D03*
X-540537400Y-76377800D03*
X-540537400Y-73837800D03*
X-540537400Y-71297800D03*
X-540537400Y-68757800D03*
X-540537400Y-66217800D03*
X-540537400Y-63677800D03*
X-540537400Y-61137800D03*
D15*
X-540537400Y-58597800D03*
%TD*%
D11*
%TO.C,MX103*%
X-210915254Y-64338200D03*
D10*
X-215995254Y-64338200D03*
X-205835254Y-64338200D03*
%TD*%
D11*
%TO.C,MX102*%
X-210915254Y-145300700D03*
D10*
X-215995254Y-145300700D03*
X-205835254Y-145300700D03*
%TD*%
D11*
%TO.C,MX101*%
X-222821504Y-126250700D03*
D10*
X-227901504Y-126250700D03*
X-217741504Y-126250700D03*
D12*
X-234759504Y-119265700D03*
X-210883504Y-119265700D03*
D11*
X-234759504Y-134505700D03*
X-210883504Y-134505700D03*
%TD*%
%TO.C,MX99*%
X-239490254Y-107200700D03*
D10*
X-244570254Y-107200700D03*
X-234410254Y-107200700D03*
%TD*%
D11*
%TO.C,MX98*%
X-249015254Y-88150700D03*
D10*
X-254095254Y-88150700D03*
X-243935254Y-88150700D03*
%TD*%
D11*
%TO.C,MX97*%
X-229965254Y-64338200D03*
D10*
X-235045254Y-64338200D03*
X-224885254Y-64338200D03*
%TD*%
D11*
%TO.C,MX94*%
X-253777754Y-126250700D03*
D10*
X-258857754Y-126250700D03*
X-248697754Y-126250700D03*
%TD*%
D11*
%TO.C,MX93*%
X-258540254Y-107200700D03*
D10*
X-263620254Y-107200700D03*
X-253460254Y-107200700D03*
%TD*%
D11*
%TO.C,MX92*%
X-268065254Y-88150700D03*
D10*
X-273145254Y-88150700D03*
X-262985254Y-88150700D03*
%TD*%
D11*
%TO.C,MX91*%
X-268065254Y-64338200D03*
D10*
X-273145254Y-64338200D03*
X-262985254Y-64338200D03*
%TD*%
D11*
%TO.C,MX90*%
X-237109004Y-164350700D03*
D10*
X-242189004Y-164350700D03*
X-232029004Y-164350700D03*
%TD*%
D11*
%TO.C,MX89*%
X-272827754Y-145300700D03*
D10*
X-277907754Y-145300700D03*
X-267747754Y-145300700D03*
%TD*%
D11*
%TO.C,MX88*%
X-272827754Y-126250700D03*
D10*
X-277907754Y-126250700D03*
X-267747754Y-126250700D03*
%TD*%
D11*
%TO.C,MX87*%
X-277590254Y-107200700D03*
D10*
X-282670254Y-107200700D03*
X-272510254Y-107200700D03*
%TD*%
D11*
%TO.C,MX86*%
X-287115254Y-88150700D03*
D10*
X-292195254Y-88150700D03*
X-282035254Y-88150700D03*
%TD*%
D11*
%TO.C,MX85*%
X-287115254Y-64338200D03*
D10*
X-292195254Y-64338200D03*
X-282035254Y-64338200D03*
%TD*%
D11*
%TO.C,MX84*%
X-260921504Y-164350700D03*
D10*
X-266001504Y-164350700D03*
X-255841504Y-164350700D03*
%TD*%
D11*
%TO.C,MX83*%
X-296640254Y-145485587D03*
D10*
X-301547157Y-146800388D03*
X-291733351Y-144170786D03*
%TD*%
D11*
%TO.C,MX82*%
X-301570756Y-127084701D03*
D10*
X-306477659Y-128399502D03*
X-296663853Y-125769900D03*
%TD*%
D11*
%TO.C,MX81*%
X-306501258Y-108683815D03*
D10*
X-311408161Y-109998616D03*
X-301594355Y-107369014D03*
%TD*%
D11*
%TO.C,MX80*%
X-311431760Y-90282929D03*
D10*
X-316338663Y-91597730D03*
X-306524857Y-88968128D03*
%TD*%
D11*
%TO.C,MX79*%
X-317594888Y-67281821D03*
D10*
X-322501791Y-68596622D03*
X-312687985Y-65967020D03*
%TD*%
D11*
%TO.C,MX78*%
X-312410747Y-169433289D03*
D10*
X-317317650Y-170748090D03*
X-307503844Y-168118488D03*
%TD*%
%TO.C,MX77*%
X-311366864Y-144501067D03*
X-321180670Y-147130669D03*
D11*
X-316273767Y-145815868D03*
%TD*%
%TO.C,MX76*%
X-321204269Y-127414982D03*
D10*
X-326111172Y-128729783D03*
X-316297366Y-126100181D03*
%TD*%
D11*
%TO.C,MX75*%
X-326134771Y-109014096D03*
D10*
X-331041674Y-110328897D03*
X-321227868Y-107699295D03*
%TD*%
D11*
%TO.C,MX74*%
X-331065273Y-90613210D03*
D10*
X-335972176Y-91928011D03*
X-326158370Y-89298409D03*
%TD*%
D11*
%TO.C,MX73*%
X-337228401Y-67612102D03*
D10*
X-342135304Y-68926903D03*
X-332321498Y-66297301D03*
%TD*%
D11*
%TO.C,MX71*%
X-333442027Y-155346592D03*
D10*
X-338348930Y-156661393D03*
X-328535124Y-154031791D03*
%TD*%
D11*
%TO.C,MX70*%
X-338372529Y-136945706D03*
D10*
X-343279432Y-138260507D03*
X-333465626Y-135630905D03*
%TD*%
D11*
%TO.C,MX69*%
X-343303031Y-118544820D03*
D10*
X-348209934Y-119859621D03*
X-338396128Y-117230019D03*
%TD*%
D11*
%TO.C,MX68*%
X-348233533Y-100143934D03*
D10*
X-353140436Y-101458735D03*
X-343326630Y-98829133D03*
%TD*%
D11*
%TO.C,MX67*%
X-354396661Y-77142826D03*
D10*
X-359303564Y-78457627D03*
X-349489758Y-75828025D03*
%TD*%
%TO.C,MX66*%
X-364104270Y-168493017D03*
X-373918076Y-171122619D03*
D11*
X-369011173Y-169807818D03*
%TD*%
%TO.C,MX65*%
X-350610287Y-164877316D03*
D10*
X-355517190Y-166192117D03*
X-345703384Y-163562515D03*
%TD*%
D11*
%TO.C,MX64*%
X-355540789Y-146476430D03*
D10*
X-360447692Y-147791231D03*
X-350633886Y-145161629D03*
%TD*%
%TO.C,MX63*%
X-355564388Y-126760743D03*
X-365378194Y-129390345D03*
D11*
X-360471291Y-128075544D03*
%TD*%
%TO.C,MX62*%
X-365401793Y-109674658D03*
D10*
X-370308696Y-110989459D03*
X-360494890Y-108359857D03*
%TD*%
D11*
%TO.C,MX61*%
X-371564921Y-86673550D03*
D10*
X-376471824Y-87988351D03*
X-366658018Y-85358749D03*
%TD*%
D11*
%TO.C,MX60*%
X-397586173Y-169807818D03*
D10*
X-402493076Y-168493017D03*
X-392679270Y-171122619D03*
%TD*%
D11*
%TO.C,MX59*%
X-415987059Y-164877316D03*
D10*
X-420893962Y-163562515D03*
X-411080156Y-166192117D03*
%TD*%
D11*
%TO.C,MX58*%
X-411056557Y-146476430D03*
D10*
X-415963460Y-145161629D03*
X-406149654Y-147791231D03*
%TD*%
D11*
%TO.C,MX57*%
X-406126055Y-128075544D03*
D10*
X-411032958Y-126760743D03*
X-401219152Y-129390345D03*
%TD*%
D11*
%TO.C,MX56*%
X-401195553Y-109674658D03*
D10*
X-406102456Y-108359857D03*
X-396288650Y-110989459D03*
%TD*%
D11*
%TO.C,MX55*%
X-395032425Y-86673550D03*
D10*
X-399939328Y-85358749D03*
X-390125522Y-87988351D03*
%TD*%
D11*
%TO.C,MX53*%
X-433155319Y-155346592D03*
D10*
X-438062222Y-154031791D03*
X-428248416Y-156661393D03*
%TD*%
D11*
%TO.C,MX52*%
X-428224817Y-136945706D03*
D10*
X-433131720Y-135630905D03*
X-423317914Y-138260507D03*
%TD*%
D11*
%TO.C,MX51*%
X-423294315Y-118544820D03*
D10*
X-428201218Y-117230019D03*
X-418387412Y-119859621D03*
%TD*%
D11*
%TO.C,MX50*%
X-418363813Y-100143934D03*
D10*
X-423270716Y-98829133D03*
X-413456910Y-101458735D03*
%TD*%
D11*
%TO.C,MX49*%
X-412200685Y-77142826D03*
D10*
X-417107588Y-75828025D03*
X-407293782Y-78457627D03*
%TD*%
D11*
%TO.C,MX47*%
X-450323579Y-145815868D03*
D10*
X-455230482Y-144501067D03*
X-445416676Y-147130669D03*
%TD*%
%TO.C,MX46*%
X-440486174Y-128729783D03*
X-450299980Y-126100181D03*
D11*
X-445393077Y-127414982D03*
%TD*%
D10*
%TO.C,MX45*%
X-435555672Y-110328897D03*
X-445369478Y-107699295D03*
D11*
X-440462575Y-109014096D03*
%TD*%
%TO.C,MX44*%
X-435532073Y-90613210D03*
D10*
X-440438976Y-89298409D03*
X-430625170Y-91928011D03*
%TD*%
D11*
%TO.C,MX43*%
X-429368945Y-67612102D03*
D10*
X-434275848Y-66297301D03*
X-424462042Y-68926903D03*
%TD*%
%TO.C,MX42*%
X-453879915Y-169515464D03*
X-463693721Y-166885862D03*
D11*
X-458786818Y-168200663D03*
%TD*%
D10*
%TO.C,MX41*%
X-465050188Y-146800389D03*
X-474863994Y-144170787D03*
D11*
X-469957091Y-145485588D03*
%TD*%
%TO.C,MX40*%
X-465026589Y-127084702D03*
D10*
X-469933492Y-125769901D03*
X-460119686Y-128399503D03*
%TD*%
D11*
%TO.C,MX39*%
X-460096087Y-108683816D03*
D10*
X-465002990Y-107369015D03*
X-455189184Y-109998617D03*
%TD*%
D11*
%TO.C,MX38*%
X-455165585Y-90282930D03*
D10*
X-460072488Y-88968129D03*
X-450258682Y-91597731D03*
%TD*%
D11*
%TO.C,MX37*%
X-449002457Y-67281822D03*
D10*
X-453909360Y-65967021D03*
X-444095554Y-68596623D03*
%TD*%
D11*
%TO.C,MX35*%
X-494499900Y-145300700D03*
D10*
X-499579900Y-145300700D03*
X-489419900Y-145300700D03*
%TD*%
D11*
%TO.C,MX34*%
X-489737400Y-126250700D03*
D10*
X-494817400Y-126250700D03*
X-484657400Y-126250700D03*
%TD*%
D11*
%TO.C,MX33*%
X-484974900Y-107200700D03*
D10*
X-490054900Y-107200700D03*
X-479894900Y-107200700D03*
%TD*%
D11*
%TO.C,MX32*%
X-480212400Y-88150700D03*
D10*
X-485292400Y-88150700D03*
X-475132400Y-88150700D03*
%TD*%
D11*
%TO.C,MX31*%
X-475361000Y-64325500D03*
D10*
X-480441000Y-64325500D03*
X-470281000Y-64325500D03*
%TD*%
D11*
%TO.C,MX30*%
X-515931150Y-164350700D03*
D10*
X-521011150Y-164350700D03*
X-510851150Y-164350700D03*
%TD*%
D11*
%TO.C,MX28*%
X-515931150Y-126250700D03*
D10*
X-510851150Y-126250700D03*
X-521011150Y-126250700D03*
%TD*%
D11*
%TO.C,MX27*%
X-508787400Y-107200700D03*
D10*
X-513867400Y-107200700D03*
X-503707400Y-107200700D03*
%TD*%
D11*
%TO.C,MX26*%
X-499262400Y-88150700D03*
D10*
X-504342400Y-88150700D03*
X-494182400Y-88150700D03*
%TD*%
D11*
%TO.C,MX25*%
X-494411000Y-64325500D03*
D10*
X-499491000Y-64325500D03*
X-489331000Y-64325500D03*
%TD*%
D11*
%TO.C,MX24*%
X-537362400Y-164350700D03*
D10*
X-542442400Y-164350700D03*
X-532282400Y-164350700D03*
%TD*%
D11*
%TO.C,MX23*%
X-556412400Y-164350700D03*
D10*
X-561492400Y-164350700D03*
X-551332400Y-164350700D03*
%TD*%
D11*
%TO.C,MX22*%
X-575462400Y-164350700D03*
D10*
X-580542400Y-164350700D03*
X-570382400Y-164350700D03*
%TD*%
%TO.C,MX21*%
X-551332400Y-145300700D03*
X-561492400Y-145300700D03*
D11*
X-556412400Y-145300700D03*
%TD*%
%TO.C,MX20*%
X-575462400Y-88150700D03*
D10*
X-580542400Y-88150700D03*
X-570382400Y-88150700D03*
%TD*%
D11*
%TO.C,MX19*%
X-522986000Y-64325500D03*
D10*
X-528066000Y-64325500D03*
X-517906000Y-64325500D03*
%TD*%
D11*
%TO.C,MX17*%
X-618324900Y-164350700D03*
D10*
X-623404900Y-164350700D03*
X-613244900Y-164350700D03*
%TD*%
D11*
%TO.C,MX12*%
X-637374900Y-164350700D03*
D10*
X-642454900Y-164350700D03*
X-632294900Y-164350700D03*
%TD*%
D11*
%TO.C,MX11*%
X-637374900Y-145300700D03*
D10*
X-642454900Y-145300700D03*
X-632294900Y-145300700D03*
%TD*%
D11*
%TO.C,MX10*%
X-637374900Y-126250700D03*
D10*
X-642454900Y-126250700D03*
X-632294900Y-126250700D03*
%TD*%
D11*
%TO.C,MX9*%
X-637374900Y-107200700D03*
D10*
X-642454900Y-107200700D03*
X-632294900Y-107200700D03*
%TD*%
D11*
%TO.C,MX8*%
X-618324900Y-107200700D03*
D10*
X-623404900Y-107200700D03*
X-613244900Y-107200700D03*
%TD*%
D11*
%TO.C,MX7*%
X-618324900Y-88150700D03*
D10*
X-623404900Y-88150700D03*
X-613244900Y-88150700D03*
%TD*%
D11*
%TO.C,MX5*%
X-656424900Y-145300700D03*
D10*
X-661504900Y-145300700D03*
X-651344900Y-145300700D03*
%TD*%
D11*
%TO.C,MX4*%
X-656424900Y-126250700D03*
D10*
X-661504900Y-126250700D03*
X-651344900Y-126250700D03*
%TD*%
D11*
%TO.C,MX3*%
X-656424900Y-107200700D03*
D10*
X-661504900Y-107200700D03*
X-651344900Y-107200700D03*
%TD*%
D11*
%TO.C,MX2*%
X-656424900Y-88150700D03*
D10*
X-661504900Y-88150700D03*
X-651344900Y-88150700D03*
%TD*%
D11*
%TO.C,MX1*%
X-637374900Y-88150700D03*
D10*
X-642454900Y-88150700D03*
X-632294900Y-88150700D03*
%TD*%
M02*
