%TF.GenerationSoftware,KiCad,Pcbnew,(5.1.10)-1*%
%TF.CreationDate,2021-06-23T23:40:24-07:00*%
%TF.ProjectId,HSC_Alice,4853435f-416c-4696-9365-2e6b69636164,rev?*%
%TF.SameCoordinates,Original*%
%TF.FileFunction,Copper,L1,Top*%
%TF.FilePolarity,Positive*%
%FSLAX46Y46*%
G04 Gerber Fmt 4.6, Leading zero omitted, Abs format (unit mm)*
G04 Created by KiCad (PCBNEW (5.1.10)-1) date 2021-06-23 23:40:24*
%MOMM*%
%LPD*%
G01*
G04 APERTURE LIST*
%TA.AperFunction,ComponentPad*%
%ADD10C,2.250000*%
%TD*%
%TA.AperFunction,ComponentPad*%
%ADD11O,1.700000X2.700000*%
%TD*%
%TA.AperFunction,ViaPad*%
%ADD12C,0.800000*%
%TD*%
%TA.AperFunction,Conductor*%
%ADD13C,0.254000*%
%TD*%
G04 APERTURE END LIST*
D10*
%TO.P,MX105,1*%
%TO.N,Col17*%
X-202401050Y-103188000D03*
%TA.AperFunction,ComponentPad*%
G36*
G01*
X-204462362Y-105485350D02*
X-204462367Y-105485345D01*
G75*
G02*
X-204548395Y-103896683I751317J837345D01*
G01*
X-203238393Y-102436683D01*
G75*
G02*
X-201649731Y-102350655I837345J-751317D01*
G01*
X-201649731Y-102350655D01*
G75*
G02*
X-201563703Y-103939317I-751317J-837345D01*
G01*
X-202873705Y-105399317D01*
G75*
G02*
X-204462367Y-105485345I-837345J751317D01*
G01*
G37*
%TD.AperFunction*%
%TO.P,MX105,2*%
%TO.N,Net-(D105-Pad2)*%
X-197361050Y-102108000D03*
%TA.AperFunction,ComponentPad*%
G36*
G01*
X-197477567Y-103810395D02*
X-197478453Y-103810334D01*
G75*
G02*
X-198523384Y-102610597I77403J1122334D01*
G01*
X-198483384Y-102030597D01*
G75*
G02*
X-197283647Y-100985666I1122334J-77403D01*
G01*
X-197283647Y-100985666D01*
G75*
G02*
X-196238716Y-102185403I-77403J-1122334D01*
G01*
X-196278716Y-102765403D01*
G75*
G02*
X-197478453Y-103810334I-1122334J77403D01*
G01*
G37*
%TD.AperFunction*%
%TD*%
%TO.P,MX106,1*%
%TO.N,Col4*%
X-508706750Y-130238000D03*
%TA.AperFunction,ComponentPad*%
G36*
G01*
X-506643978Y-127941962D02*
X-506645433Y-127940655D01*
G75*
G02*
X-506559405Y-129529317I-751317J-837345D01*
G01*
X-507869407Y-130989317D01*
G75*
G02*
X-509458069Y-131075345I-837345J751317D01*
G01*
X-509458069Y-131075345D01*
G75*
G02*
X-509544097Y-129486683I751317J837345D01*
G01*
X-508234095Y-128026683D01*
G75*
G02*
X-506645433Y-127940655I837345J-751317D01*
G01*
G37*
%TD.AperFunction*%
%TO.P,MX106,2*%
%TO.N,Net-(D28-Pad2)*%
X-513746750Y-131318000D03*
%TA.AperFunction,ComponentPad*%
G36*
G01*
X-513628274Y-129615740D02*
X-513629347Y-129615666D01*
G75*
G02*
X-512584416Y-130815403I-77403J-1122334D01*
G01*
X-512624416Y-131395403D01*
G75*
G02*
X-513824153Y-132440334I-1122334J77403D01*
G01*
X-513824153Y-132440334D01*
G75*
G02*
X-514869084Y-131240597I77403J1122334D01*
G01*
X-514829084Y-130660597D01*
G75*
G02*
X-513629347Y-129615666I1122334J-77403D01*
G01*
G37*
%TD.AperFunction*%
%TD*%
%TO.P,MX95,1*%
%TO.N,Col15*%
X-228594800Y-141288000D03*
%TA.AperFunction,ComponentPad*%
G36*
G01*
X-230656112Y-143585350D02*
X-230656117Y-143585345D01*
G75*
G02*
X-230742145Y-141996683I751317J837345D01*
G01*
X-229432143Y-140536683D01*
G75*
G02*
X-227843481Y-140450655I837345J-751317D01*
G01*
X-227843481Y-140450655D01*
G75*
G02*
X-227757453Y-142039317I-751317J-837345D01*
G01*
X-229067455Y-143499317D01*
G75*
G02*
X-230656117Y-143585345I-837345J751317D01*
G01*
G37*
%TD.AperFunction*%
%TO.P,MX95,2*%
%TO.N,Net-(D95-Pad2)*%
X-223554800Y-140208000D03*
%TA.AperFunction,ComponentPad*%
G36*
G01*
X-223671317Y-141910395D02*
X-223672203Y-141910334D01*
G75*
G02*
X-224717134Y-140710597I77403J1122334D01*
G01*
X-224677134Y-140130597D01*
G75*
G02*
X-223477397Y-139085666I1122334J-77403D01*
G01*
X-223477397Y-139085666D01*
G75*
G02*
X-222432466Y-140285403I-77403J-1122334D01*
G01*
X-222472466Y-140865403D01*
G75*
G02*
X-223672203Y-141910334I-1122334J77403D01*
G01*
G37*
%TD.AperFunction*%
%TD*%
%TO.P,MX29,1*%
%TO.N,Col4*%
X-527994250Y-141288000D03*
%TA.AperFunction,ComponentPad*%
G36*
G01*
X-530055562Y-143585350D02*
X-530055567Y-143585345D01*
G75*
G02*
X-530141595Y-141996683I751317J837345D01*
G01*
X-528831593Y-140536683D01*
G75*
G02*
X-527242931Y-140450655I837345J-751317D01*
G01*
X-527242931Y-140450655D01*
G75*
G02*
X-527156903Y-142039317I-751317J-837345D01*
G01*
X-528466905Y-143499317D01*
G75*
G02*
X-530055567Y-143585345I-837345J751317D01*
G01*
G37*
%TD.AperFunction*%
%TO.P,MX29,2*%
%TO.N,Net-(D29-Pad2)*%
X-522954250Y-140208000D03*
%TA.AperFunction,ComponentPad*%
G36*
G01*
X-523070767Y-141910395D02*
X-523071653Y-141910334D01*
G75*
G02*
X-524116584Y-140710597I77403J1122334D01*
G01*
X-524076584Y-140130597D01*
G75*
G02*
X-522876847Y-139085666I1122334J-77403D01*
G01*
X-522876847Y-139085666D01*
G75*
G02*
X-521831916Y-140285403I-77403J-1122334D01*
G01*
X-521871916Y-140865403D01*
G75*
G02*
X-523071653Y-141910334I-1122334J77403D01*
G01*
G37*
%TD.AperFunction*%
%TD*%
%TO.P,MX6,1*%
%TO.N,Col0*%
X-658963000Y-160338000D03*
%TA.AperFunction,ComponentPad*%
G36*
G01*
X-661024312Y-162635350D02*
X-661024317Y-162635345D01*
G75*
G02*
X-661110345Y-161046683I751317J837345D01*
G01*
X-659800343Y-159586683D01*
G75*
G02*
X-658211681Y-159500655I837345J-751317D01*
G01*
X-658211681Y-159500655D01*
G75*
G02*
X-658125653Y-161089317I-751317J-837345D01*
G01*
X-659435655Y-162549317D01*
G75*
G02*
X-661024317Y-162635345I-837345J751317D01*
G01*
G37*
%TD.AperFunction*%
%TO.P,MX6,2*%
%TO.N,Net-(D6-Pad2)*%
X-653923000Y-159258000D03*
%TA.AperFunction,ComponentPad*%
G36*
G01*
X-654039517Y-160960395D02*
X-654040403Y-160960334D01*
G75*
G02*
X-655085334Y-159760597I77403J1122334D01*
G01*
X-655045334Y-159180597D01*
G75*
G02*
X-653845597Y-158135666I1122334J-77403D01*
G01*
X-653845597Y-158135666D01*
G75*
G02*
X-652800666Y-159335403I-77403J-1122334D01*
G01*
X-652840666Y-159915403D01*
G75*
G02*
X-654040403Y-160960334I-1122334J77403D01*
G01*
G37*
%TD.AperFunction*%
%TD*%
%TO.P,MX100,1*%
%TO.N,Col0*%
X-649438000Y-160338000D03*
%TA.AperFunction,ComponentPad*%
G36*
G01*
X-651499312Y-162635350D02*
X-651499317Y-162635345D01*
G75*
G02*
X-651585345Y-161046683I751317J837345D01*
G01*
X-650275343Y-159586683D01*
G75*
G02*
X-648686681Y-159500655I837345J-751317D01*
G01*
X-648686681Y-159500655D01*
G75*
G02*
X-648600653Y-161089317I-751317J-837345D01*
G01*
X-649910655Y-162549317D01*
G75*
G02*
X-651499317Y-162635345I-837345J751317D01*
G01*
G37*
%TD.AperFunction*%
%TO.P,MX100,2*%
%TO.N,Net-(D6-Pad2)*%
X-644398000Y-159258000D03*
%TA.AperFunction,ComponentPad*%
G36*
G01*
X-644514517Y-160960395D02*
X-644515403Y-160960334D01*
G75*
G02*
X-645560334Y-159760597I77403J1122334D01*
G01*
X-645520334Y-159180597D01*
G75*
G02*
X-644320597Y-158135666I1122334J-77403D01*
G01*
X-644320597Y-158135666D01*
G75*
G02*
X-643275666Y-159335403I-77403J-1122334D01*
G01*
X-643315666Y-159915403D01*
G75*
G02*
X-644515403Y-160960334I-1122334J77403D01*
G01*
G37*
%TD.AperFunction*%
%TD*%
%TO.P,MX72,1*%
%TO.N,Col11*%
X-341896477Y-177759053D03*
%TA.AperFunction,ComponentPad*%
G36*
G01*
X-343292953Y-180511630D02*
X-343292960Y-180511627D01*
G75*
G02*
X-343787233Y-178999362I508996J1003269D01*
G01*
X-342899745Y-177250058D01*
G75*
G02*
X-341387480Y-176755785I1003269J-508996D01*
G01*
X-341387480Y-176755785D01*
G75*
G02*
X-340893207Y-178268050I-508996J-1003269D01*
G01*
X-341780695Y-180017354D01*
G75*
G02*
X-343292960Y-180511627I-1003269J508996D01*
G01*
G37*
%TD.AperFunction*%
%TO.P,MX72,2*%
%TO.N,Net-(D72-Pad2)*%
X-337307735Y-175411405D03*
%TA.AperFunction,ComponentPad*%
G36*
G01*
X-336979670Y-177085949D02*
X-336980541Y-177086120D01*
G75*
G02*
X-338300382Y-176197711I-215716J1104125D01*
G01*
X-338411860Y-175627121D01*
G75*
G02*
X-337523451Y-174307280I1104125J215716D01*
G01*
X-337523451Y-174307280D01*
G75*
G02*
X-336203610Y-175195689I215716J-1104125D01*
G01*
X-336092132Y-175766279D01*
G75*
G02*
X-336980541Y-177086120I-1104125J-215716D01*
G01*
G37*
%TD.AperFunction*%
%TD*%
%TO.P,MX48,1*%
%TO.N,Col7*%
X-428864365Y-171534454D03*
%TA.AperFunction,ComponentPad*%
G36*
G01*
X-431450038Y-173220018D02*
X-431450042Y-173220011D01*
G75*
G02*
X-431121962Y-171663215I942438J614358D01*
G01*
X-429478722Y-170592017D01*
G75*
G02*
X-427921926Y-170920097I614358J-942438D01*
G01*
X-427921926Y-170920097D01*
G75*
G02*
X-428250006Y-172476893I-942438J-614358D01*
G01*
X-429893246Y-173548091D01*
G75*
G02*
X-431450042Y-173220011I-614358J942438D01*
G01*
G37*
%TD.AperFunction*%
%TO.P,MX48,2*%
%TO.N,Net-(D48-Pad2)*%
X-423716575Y-171795702D03*
%TA.AperFunction,ComponentPad*%
G36*
G01*
X-424269734Y-173409932D02*
X-424270574Y-173409644D01*
G75*
G02*
X-424969385Y-171980339I365247J1064058D01*
G01*
X-424780633Y-171430455D01*
G75*
G02*
X-423351328Y-170731644I1064058J-365247D01*
G01*
X-423351328Y-170731644D01*
G75*
G02*
X-422652517Y-172160949I-365247J-1064058D01*
G01*
X-422841269Y-172710833D01*
G75*
G02*
X-424270574Y-173409644I-1064058J365247D01*
G01*
G37*
%TD.AperFunction*%
%TD*%
%TO.P,MX28,1*%
%TO.N,Col4*%
X-518469250Y-122238000D03*
%TA.AperFunction,ComponentPad*%
G36*
G01*
X-520530562Y-124535350D02*
X-520530567Y-124535345D01*
G75*
G02*
X-520616595Y-122946683I751317J837345D01*
G01*
X-519306593Y-121486683D01*
G75*
G02*
X-517717931Y-121400655I837345J-751317D01*
G01*
X-517717931Y-121400655D01*
G75*
G02*
X-517631903Y-122989317I-751317J-837345D01*
G01*
X-518941905Y-124449317D01*
G75*
G02*
X-520530567Y-124535345I-837345J751317D01*
G01*
G37*
%TD.AperFunction*%
%TO.P,MX28,2*%
%TO.N,Net-(D28-Pad2)*%
X-513429250Y-121158000D03*
%TA.AperFunction,ComponentPad*%
G36*
G01*
X-513545767Y-122860395D02*
X-513546653Y-122860334D01*
G75*
G02*
X-514591584Y-121660597I77403J1122334D01*
G01*
X-514551584Y-121080597D01*
G75*
G02*
X-513351847Y-120035666I1122334J-77403D01*
G01*
X-513351847Y-120035666D01*
G75*
G02*
X-512306916Y-121235403I-77403J-1122334D01*
G01*
X-512346916Y-121815403D01*
G75*
G02*
X-513546653Y-122860334I-1122334J77403D01*
G01*
G37*
%TD.AperFunction*%
%TD*%
D11*
%TO.P,USB1,6*%
%TO.N,Net-(USB1-Pad6)*%
X-564228000Y-56565800D03*
X-556928000Y-56565800D03*
X-556928000Y-61065800D03*
X-564228000Y-61065800D03*
%TD*%
D10*
%TO.P,MX54,1*%
%TO.N,Col8*%
X-394362702Y-180779146D03*
%TA.AperFunction,ComponentPad*%
G36*
G01*
X-396948375Y-182464710D02*
X-396948379Y-182464703D01*
G75*
G02*
X-396620299Y-180907907I942438J614358D01*
G01*
X-394977059Y-179836709D01*
G75*
G02*
X-393420263Y-180164789I614358J-942438D01*
G01*
X-393420263Y-180164789D01*
G75*
G02*
X-393748343Y-181721585I-942438J-614358D01*
G01*
X-395391583Y-182792783D01*
G75*
G02*
X-396948379Y-182464703I-614358J942438D01*
G01*
G37*
%TD.AperFunction*%
%TO.P,MX54,2*%
%TO.N,Net-(D54-Pad2)*%
X-389214912Y-181040394D03*
%TA.AperFunction,ComponentPad*%
G36*
G01*
X-389768071Y-182654624D02*
X-389768911Y-182654336D01*
G75*
G02*
X-390467722Y-181225031I365247J1064058D01*
G01*
X-390278970Y-180675147D01*
G75*
G02*
X-388849665Y-179976336I1064058J-365247D01*
G01*
X-388849665Y-179976336D01*
G75*
G02*
X-388150854Y-181405641I-365247J-1064058D01*
G01*
X-388339606Y-181955525D01*
G75*
G02*
X-389768911Y-182654336I-1064058J365247D01*
G01*
G37*
%TD.AperFunction*%
%TD*%
%TO.P,MX104,1*%
%TO.N,Col17*%
X-207163550Y-84138000D03*
%TA.AperFunction,ComponentPad*%
G36*
G01*
X-209224862Y-86435350D02*
X-209224867Y-86435345D01*
G75*
G02*
X-209310895Y-84846683I751317J837345D01*
G01*
X-208000893Y-83386683D01*
G75*
G02*
X-206412231Y-83300655I837345J-751317D01*
G01*
X-206412231Y-83300655D01*
G75*
G02*
X-206326203Y-84889317I-751317J-837345D01*
G01*
X-207636205Y-86349317D01*
G75*
G02*
X-209224867Y-86435345I-837345J751317D01*
G01*
G37*
%TD.AperFunction*%
%TO.P,MX104,2*%
%TO.N,Net-(D104-Pad2)*%
X-202123550Y-83058000D03*
%TA.AperFunction,ComponentPad*%
G36*
G01*
X-202240067Y-84760395D02*
X-202240953Y-84760334D01*
G75*
G02*
X-203285884Y-83560597I77403J1122334D01*
G01*
X-203245884Y-82980597D01*
G75*
G02*
X-202046147Y-81935666I1122334J-77403D01*
G01*
X-202046147Y-81935666D01*
G75*
G02*
X-201001216Y-83135403I-77403J-1122334D01*
G01*
X-201041216Y-83715403D01*
G75*
G02*
X-202240953Y-84760334I-1122334J77403D01*
G01*
G37*
%TD.AperFunction*%
%TD*%
%TO.P,MX103,1*%
%TO.N,Col17*%
X-197638550Y-60325500D03*
%TA.AperFunction,ComponentPad*%
G36*
G01*
X-199699862Y-62622850D02*
X-199699867Y-62622845D01*
G75*
G02*
X-199785895Y-61034183I751317J837345D01*
G01*
X-198475893Y-59574183D01*
G75*
G02*
X-196887231Y-59488155I837345J-751317D01*
G01*
X-196887231Y-59488155D01*
G75*
G02*
X-196801203Y-61076817I-751317J-837345D01*
G01*
X-198111205Y-62536817D01*
G75*
G02*
X-199699867Y-62622845I-837345J751317D01*
G01*
G37*
%TD.AperFunction*%
%TO.P,MX103,2*%
%TO.N,Net-(D103-Pad2)*%
X-192598550Y-59245500D03*
%TA.AperFunction,ComponentPad*%
G36*
G01*
X-192715067Y-60947895D02*
X-192715953Y-60947834D01*
G75*
G02*
X-193760884Y-59748097I77403J1122334D01*
G01*
X-193720884Y-59168097D01*
G75*
G02*
X-192521147Y-58123166I1122334J-77403D01*
G01*
X-192521147Y-58123166D01*
G75*
G02*
X-191476216Y-59322903I-77403J-1122334D01*
G01*
X-191516216Y-59902903D01*
G75*
G02*
X-192715953Y-60947834I-1122334J77403D01*
G01*
G37*
%TD.AperFunction*%
%TD*%
%TO.P,MX102,1*%
%TO.N,Col16*%
X-197638550Y-141288000D03*
%TA.AperFunction,ComponentPad*%
G36*
G01*
X-199699862Y-143585350D02*
X-199699867Y-143585345D01*
G75*
G02*
X-199785895Y-141996683I751317J837345D01*
G01*
X-198475893Y-140536683D01*
G75*
G02*
X-196887231Y-140450655I837345J-751317D01*
G01*
X-196887231Y-140450655D01*
G75*
G02*
X-196801203Y-142039317I-751317J-837345D01*
G01*
X-198111205Y-143499317D01*
G75*
G02*
X-199699867Y-143585345I-837345J751317D01*
G01*
G37*
%TD.AperFunction*%
%TO.P,MX102,2*%
%TO.N,Net-(D102-Pad2)*%
X-192598550Y-140208000D03*
%TA.AperFunction,ComponentPad*%
G36*
G01*
X-192715067Y-141910395D02*
X-192715953Y-141910334D01*
G75*
G02*
X-193760884Y-140710597I77403J1122334D01*
G01*
X-193720884Y-140130597D01*
G75*
G02*
X-192521147Y-139085666I1122334J-77403D01*
G01*
X-192521147Y-139085666D01*
G75*
G02*
X-191476216Y-140285403I-77403J-1122334D01*
G01*
X-191516216Y-140865403D01*
G75*
G02*
X-192715953Y-141910334I-1122334J77403D01*
G01*
G37*
%TD.AperFunction*%
%TD*%
%TO.P,MX101,1*%
%TO.N,Col16*%
X-209544800Y-122238000D03*
%TA.AperFunction,ComponentPad*%
G36*
G01*
X-211606112Y-124535350D02*
X-211606117Y-124535345D01*
G75*
G02*
X-211692145Y-122946683I751317J837345D01*
G01*
X-210382143Y-121486683D01*
G75*
G02*
X-208793481Y-121400655I837345J-751317D01*
G01*
X-208793481Y-121400655D01*
G75*
G02*
X-208707453Y-122989317I-751317J-837345D01*
G01*
X-210017455Y-124449317D01*
G75*
G02*
X-211606117Y-124535345I-837345J751317D01*
G01*
G37*
%TD.AperFunction*%
%TO.P,MX101,2*%
%TO.N,Net-(D101-Pad2)*%
X-204504800Y-121158000D03*
%TA.AperFunction,ComponentPad*%
G36*
G01*
X-204621317Y-122860395D02*
X-204622203Y-122860334D01*
G75*
G02*
X-205667134Y-121660597I77403J1122334D01*
G01*
X-205627134Y-121080597D01*
G75*
G02*
X-204427397Y-120035666I1122334J-77403D01*
G01*
X-204427397Y-120035666D01*
G75*
G02*
X-203382466Y-121235403I-77403J-1122334D01*
G01*
X-203422466Y-121815403D01*
G75*
G02*
X-204622203Y-122860334I-1122334J77403D01*
G01*
G37*
%TD.AperFunction*%
%TD*%
%TO.P,MX99,1*%
%TO.N,Col16*%
X-226213550Y-103188000D03*
%TA.AperFunction,ComponentPad*%
G36*
G01*
X-228274862Y-105485350D02*
X-228274867Y-105485345D01*
G75*
G02*
X-228360895Y-103896683I751317J837345D01*
G01*
X-227050893Y-102436683D01*
G75*
G02*
X-225462231Y-102350655I837345J-751317D01*
G01*
X-225462231Y-102350655D01*
G75*
G02*
X-225376203Y-103939317I-751317J-837345D01*
G01*
X-226686205Y-105399317D01*
G75*
G02*
X-228274867Y-105485345I-837345J751317D01*
G01*
G37*
%TD.AperFunction*%
%TO.P,MX99,2*%
%TO.N,Net-(D99-Pad2)*%
X-221173550Y-102108000D03*
%TA.AperFunction,ComponentPad*%
G36*
G01*
X-221290067Y-103810395D02*
X-221290953Y-103810334D01*
G75*
G02*
X-222335884Y-102610597I77403J1122334D01*
G01*
X-222295884Y-102030597D01*
G75*
G02*
X-221096147Y-100985666I1122334J-77403D01*
G01*
X-221096147Y-100985666D01*
G75*
G02*
X-220051216Y-102185403I-77403J-1122334D01*
G01*
X-220091216Y-102765403D01*
G75*
G02*
X-221290953Y-103810334I-1122334J77403D01*
G01*
G37*
%TD.AperFunction*%
%TD*%
%TO.P,MX98,1*%
%TO.N,Col16*%
X-235738550Y-84138000D03*
%TA.AperFunction,ComponentPad*%
G36*
G01*
X-237799862Y-86435350D02*
X-237799867Y-86435345D01*
G75*
G02*
X-237885895Y-84846683I751317J837345D01*
G01*
X-236575893Y-83386683D01*
G75*
G02*
X-234987231Y-83300655I837345J-751317D01*
G01*
X-234987231Y-83300655D01*
G75*
G02*
X-234901203Y-84889317I-751317J-837345D01*
G01*
X-236211205Y-86349317D01*
G75*
G02*
X-237799867Y-86435345I-837345J751317D01*
G01*
G37*
%TD.AperFunction*%
%TO.P,MX98,2*%
%TO.N,Net-(D98-Pad2)*%
X-230698550Y-83058000D03*
%TA.AperFunction,ComponentPad*%
G36*
G01*
X-230815067Y-84760395D02*
X-230815953Y-84760334D01*
G75*
G02*
X-231860884Y-83560597I77403J1122334D01*
G01*
X-231820884Y-82980597D01*
G75*
G02*
X-230621147Y-81935666I1122334J-77403D01*
G01*
X-230621147Y-81935666D01*
G75*
G02*
X-229576216Y-83135403I-77403J-1122334D01*
G01*
X-229616216Y-83715403D01*
G75*
G02*
X-230815953Y-84760334I-1122334J77403D01*
G01*
G37*
%TD.AperFunction*%
%TD*%
%TO.P,MX97,1*%
%TO.N,Col16*%
X-216688550Y-60325500D03*
%TA.AperFunction,ComponentPad*%
G36*
G01*
X-218749862Y-62622850D02*
X-218749867Y-62622845D01*
G75*
G02*
X-218835895Y-61034183I751317J837345D01*
G01*
X-217525893Y-59574183D01*
G75*
G02*
X-215937231Y-59488155I837345J-751317D01*
G01*
X-215937231Y-59488155D01*
G75*
G02*
X-215851203Y-61076817I-751317J-837345D01*
G01*
X-217161205Y-62536817D01*
G75*
G02*
X-218749867Y-62622845I-837345J751317D01*
G01*
G37*
%TD.AperFunction*%
%TO.P,MX97,2*%
%TO.N,Net-(D97-Pad2)*%
X-211648550Y-59245500D03*
%TA.AperFunction,ComponentPad*%
G36*
G01*
X-211765067Y-60947895D02*
X-211765953Y-60947834D01*
G75*
G02*
X-212810884Y-59748097I77403J1122334D01*
G01*
X-212770884Y-59168097D01*
G75*
G02*
X-211571147Y-58123166I1122334J-77403D01*
G01*
X-211571147Y-58123166D01*
G75*
G02*
X-210526216Y-59322903I-77403J-1122334D01*
G01*
X-210566216Y-59902903D01*
G75*
G02*
X-211765953Y-60947834I-1122334J77403D01*
G01*
G37*
%TD.AperFunction*%
%TD*%
%TO.P,MX96,1*%
%TO.N,Col15*%
X-200019800Y-160338000D03*
%TA.AperFunction,ComponentPad*%
G36*
G01*
X-202081112Y-162635350D02*
X-202081117Y-162635345D01*
G75*
G02*
X-202167145Y-161046683I751317J837345D01*
G01*
X-200857143Y-159586683D01*
G75*
G02*
X-199268481Y-159500655I837345J-751317D01*
G01*
X-199268481Y-159500655D01*
G75*
G02*
X-199182453Y-161089317I-751317J-837345D01*
G01*
X-200492455Y-162549317D01*
G75*
G02*
X-202081117Y-162635345I-837345J751317D01*
G01*
G37*
%TD.AperFunction*%
%TO.P,MX96,2*%
%TO.N,Net-(D96-Pad2)*%
X-194979800Y-159258000D03*
%TA.AperFunction,ComponentPad*%
G36*
G01*
X-195096317Y-160960395D02*
X-195097203Y-160960334D01*
G75*
G02*
X-196142134Y-159760597I77403J1122334D01*
G01*
X-196102134Y-159180597D01*
G75*
G02*
X-194902397Y-158135666I1122334J-77403D01*
G01*
X-194902397Y-158135666D01*
G75*
G02*
X-193857466Y-159335403I-77403J-1122334D01*
G01*
X-193897466Y-159915403D01*
G75*
G02*
X-195097203Y-160960334I-1122334J77403D01*
G01*
G37*
%TD.AperFunction*%
%TD*%
%TO.P,MX94,1*%
%TO.N,Col15*%
X-240501050Y-122238000D03*
%TA.AperFunction,ComponentPad*%
G36*
G01*
X-242562362Y-124535350D02*
X-242562367Y-124535345D01*
G75*
G02*
X-242648395Y-122946683I751317J837345D01*
G01*
X-241338393Y-121486683D01*
G75*
G02*
X-239749731Y-121400655I837345J-751317D01*
G01*
X-239749731Y-121400655D01*
G75*
G02*
X-239663703Y-122989317I-751317J-837345D01*
G01*
X-240973705Y-124449317D01*
G75*
G02*
X-242562367Y-124535345I-837345J751317D01*
G01*
G37*
%TD.AperFunction*%
%TO.P,MX94,2*%
%TO.N,Net-(D94-Pad2)*%
X-235461050Y-121158000D03*
%TA.AperFunction,ComponentPad*%
G36*
G01*
X-235577567Y-122860395D02*
X-235578453Y-122860334D01*
G75*
G02*
X-236623384Y-121660597I77403J1122334D01*
G01*
X-236583384Y-121080597D01*
G75*
G02*
X-235383647Y-120035666I1122334J-77403D01*
G01*
X-235383647Y-120035666D01*
G75*
G02*
X-234338716Y-121235403I-77403J-1122334D01*
G01*
X-234378716Y-121815403D01*
G75*
G02*
X-235578453Y-122860334I-1122334J77403D01*
G01*
G37*
%TD.AperFunction*%
%TD*%
%TO.P,MX93,1*%
%TO.N,Col15*%
X-245263550Y-103188000D03*
%TA.AperFunction,ComponentPad*%
G36*
G01*
X-247324862Y-105485350D02*
X-247324867Y-105485345D01*
G75*
G02*
X-247410895Y-103896683I751317J837345D01*
G01*
X-246100893Y-102436683D01*
G75*
G02*
X-244512231Y-102350655I837345J-751317D01*
G01*
X-244512231Y-102350655D01*
G75*
G02*
X-244426203Y-103939317I-751317J-837345D01*
G01*
X-245736205Y-105399317D01*
G75*
G02*
X-247324867Y-105485345I-837345J751317D01*
G01*
G37*
%TD.AperFunction*%
%TO.P,MX93,2*%
%TO.N,Net-(D93-Pad2)*%
X-240223550Y-102108000D03*
%TA.AperFunction,ComponentPad*%
G36*
G01*
X-240340067Y-103810395D02*
X-240340953Y-103810334D01*
G75*
G02*
X-241385884Y-102610597I77403J1122334D01*
G01*
X-241345884Y-102030597D01*
G75*
G02*
X-240146147Y-100985666I1122334J-77403D01*
G01*
X-240146147Y-100985666D01*
G75*
G02*
X-239101216Y-102185403I-77403J-1122334D01*
G01*
X-239141216Y-102765403D01*
G75*
G02*
X-240340953Y-103810334I-1122334J77403D01*
G01*
G37*
%TD.AperFunction*%
%TD*%
%TO.P,MX92,1*%
%TO.N,Col15*%
X-254788550Y-84138000D03*
%TA.AperFunction,ComponentPad*%
G36*
G01*
X-256849862Y-86435350D02*
X-256849867Y-86435345D01*
G75*
G02*
X-256935895Y-84846683I751317J837345D01*
G01*
X-255625893Y-83386683D01*
G75*
G02*
X-254037231Y-83300655I837345J-751317D01*
G01*
X-254037231Y-83300655D01*
G75*
G02*
X-253951203Y-84889317I-751317J-837345D01*
G01*
X-255261205Y-86349317D01*
G75*
G02*
X-256849867Y-86435345I-837345J751317D01*
G01*
G37*
%TD.AperFunction*%
%TO.P,MX92,2*%
%TO.N,Net-(D92-Pad2)*%
X-249748550Y-83058000D03*
%TA.AperFunction,ComponentPad*%
G36*
G01*
X-249865067Y-84760395D02*
X-249865953Y-84760334D01*
G75*
G02*
X-250910884Y-83560597I77403J1122334D01*
G01*
X-250870884Y-82980597D01*
G75*
G02*
X-249671147Y-81935666I1122334J-77403D01*
G01*
X-249671147Y-81935666D01*
G75*
G02*
X-248626216Y-83135403I-77403J-1122334D01*
G01*
X-248666216Y-83715403D01*
G75*
G02*
X-249865953Y-84760334I-1122334J77403D01*
G01*
G37*
%TD.AperFunction*%
%TD*%
%TO.P,MX91,1*%
%TO.N,Col15*%
X-257169800Y-60325500D03*
%TA.AperFunction,ComponentPad*%
G36*
G01*
X-259231112Y-62622850D02*
X-259231117Y-62622845D01*
G75*
G02*
X-259317145Y-61034183I751317J837345D01*
G01*
X-258007143Y-59574183D01*
G75*
G02*
X-256418481Y-59488155I837345J-751317D01*
G01*
X-256418481Y-59488155D01*
G75*
G02*
X-256332453Y-61076817I-751317J-837345D01*
G01*
X-257642455Y-62536817D01*
G75*
G02*
X-259231117Y-62622845I-837345J751317D01*
G01*
G37*
%TD.AperFunction*%
%TO.P,MX91,2*%
%TO.N,Net-(D91-Pad2)*%
X-252129800Y-59245500D03*
%TA.AperFunction,ComponentPad*%
G36*
G01*
X-252246317Y-60947895D02*
X-252247203Y-60947834D01*
G75*
G02*
X-253292134Y-59748097I77403J1122334D01*
G01*
X-253252134Y-59168097D01*
G75*
G02*
X-252052397Y-58123166I1122334J-77403D01*
G01*
X-252052397Y-58123166D01*
G75*
G02*
X-251007466Y-59322903I-77403J-1122334D01*
G01*
X-251047466Y-59902903D01*
G75*
G02*
X-252247203Y-60947834I-1122334J77403D01*
G01*
G37*
%TD.AperFunction*%
%TD*%
%TO.P,MX90,1*%
%TO.N,Col14*%
X-223832300Y-160338000D03*
%TA.AperFunction,ComponentPad*%
G36*
G01*
X-225893612Y-162635350D02*
X-225893617Y-162635345D01*
G75*
G02*
X-225979645Y-161046683I751317J837345D01*
G01*
X-224669643Y-159586683D01*
G75*
G02*
X-223080981Y-159500655I837345J-751317D01*
G01*
X-223080981Y-159500655D01*
G75*
G02*
X-222994953Y-161089317I-751317J-837345D01*
G01*
X-224304955Y-162549317D01*
G75*
G02*
X-225893617Y-162635345I-837345J751317D01*
G01*
G37*
%TD.AperFunction*%
%TO.P,MX90,2*%
%TO.N,Net-(D90-Pad2)*%
X-218792300Y-159258000D03*
%TA.AperFunction,ComponentPad*%
G36*
G01*
X-218908817Y-160960395D02*
X-218909703Y-160960334D01*
G75*
G02*
X-219954634Y-159760597I77403J1122334D01*
G01*
X-219914634Y-159180597D01*
G75*
G02*
X-218714897Y-158135666I1122334J-77403D01*
G01*
X-218714897Y-158135666D01*
G75*
G02*
X-217669966Y-159335403I-77403J-1122334D01*
G01*
X-217709966Y-159915403D01*
G75*
G02*
X-218909703Y-160960334I-1122334J77403D01*
G01*
G37*
%TD.AperFunction*%
%TD*%
%TO.P,MX89,1*%
%TO.N,Col14*%
X-259551050Y-141288000D03*
%TA.AperFunction,ComponentPad*%
G36*
G01*
X-261612362Y-143585350D02*
X-261612367Y-143585345D01*
G75*
G02*
X-261698395Y-141996683I751317J837345D01*
G01*
X-260388393Y-140536683D01*
G75*
G02*
X-258799731Y-140450655I837345J-751317D01*
G01*
X-258799731Y-140450655D01*
G75*
G02*
X-258713703Y-142039317I-751317J-837345D01*
G01*
X-260023705Y-143499317D01*
G75*
G02*
X-261612367Y-143585345I-837345J751317D01*
G01*
G37*
%TD.AperFunction*%
%TO.P,MX89,2*%
%TO.N,Net-(D89-Pad2)*%
X-254511050Y-140208000D03*
%TA.AperFunction,ComponentPad*%
G36*
G01*
X-254627567Y-141910395D02*
X-254628453Y-141910334D01*
G75*
G02*
X-255673384Y-140710597I77403J1122334D01*
G01*
X-255633384Y-140130597D01*
G75*
G02*
X-254433647Y-139085666I1122334J-77403D01*
G01*
X-254433647Y-139085666D01*
G75*
G02*
X-253388716Y-140285403I-77403J-1122334D01*
G01*
X-253428716Y-140865403D01*
G75*
G02*
X-254628453Y-141910334I-1122334J77403D01*
G01*
G37*
%TD.AperFunction*%
%TD*%
%TO.P,MX88,1*%
%TO.N,Col14*%
X-259551050Y-122238000D03*
%TA.AperFunction,ComponentPad*%
G36*
G01*
X-261612362Y-124535350D02*
X-261612367Y-124535345D01*
G75*
G02*
X-261698395Y-122946683I751317J837345D01*
G01*
X-260388393Y-121486683D01*
G75*
G02*
X-258799731Y-121400655I837345J-751317D01*
G01*
X-258799731Y-121400655D01*
G75*
G02*
X-258713703Y-122989317I-751317J-837345D01*
G01*
X-260023705Y-124449317D01*
G75*
G02*
X-261612367Y-124535345I-837345J751317D01*
G01*
G37*
%TD.AperFunction*%
%TO.P,MX88,2*%
%TO.N,Net-(D88-Pad2)*%
X-254511050Y-121158000D03*
%TA.AperFunction,ComponentPad*%
G36*
G01*
X-254627567Y-122860395D02*
X-254628453Y-122860334D01*
G75*
G02*
X-255673384Y-121660597I77403J1122334D01*
G01*
X-255633384Y-121080597D01*
G75*
G02*
X-254433647Y-120035666I1122334J-77403D01*
G01*
X-254433647Y-120035666D01*
G75*
G02*
X-253388716Y-121235403I-77403J-1122334D01*
G01*
X-253428716Y-121815403D01*
G75*
G02*
X-254628453Y-122860334I-1122334J77403D01*
G01*
G37*
%TD.AperFunction*%
%TD*%
%TO.P,MX87,1*%
%TO.N,Col14*%
X-264313550Y-103188000D03*
%TA.AperFunction,ComponentPad*%
G36*
G01*
X-266374862Y-105485350D02*
X-266374867Y-105485345D01*
G75*
G02*
X-266460895Y-103896683I751317J837345D01*
G01*
X-265150893Y-102436683D01*
G75*
G02*
X-263562231Y-102350655I837345J-751317D01*
G01*
X-263562231Y-102350655D01*
G75*
G02*
X-263476203Y-103939317I-751317J-837345D01*
G01*
X-264786205Y-105399317D01*
G75*
G02*
X-266374867Y-105485345I-837345J751317D01*
G01*
G37*
%TD.AperFunction*%
%TO.P,MX87,2*%
%TO.N,Net-(D87-Pad2)*%
X-259273550Y-102108000D03*
%TA.AperFunction,ComponentPad*%
G36*
G01*
X-259390067Y-103810395D02*
X-259390953Y-103810334D01*
G75*
G02*
X-260435884Y-102610597I77403J1122334D01*
G01*
X-260395884Y-102030597D01*
G75*
G02*
X-259196147Y-100985666I1122334J-77403D01*
G01*
X-259196147Y-100985666D01*
G75*
G02*
X-258151216Y-102185403I-77403J-1122334D01*
G01*
X-258191216Y-102765403D01*
G75*
G02*
X-259390953Y-103810334I-1122334J77403D01*
G01*
G37*
%TD.AperFunction*%
%TD*%
%TO.P,MX86,1*%
%TO.N,Col14*%
X-273838550Y-84138000D03*
%TA.AperFunction,ComponentPad*%
G36*
G01*
X-275899862Y-86435350D02*
X-275899867Y-86435345D01*
G75*
G02*
X-275985895Y-84846683I751317J837345D01*
G01*
X-274675893Y-83386683D01*
G75*
G02*
X-273087231Y-83300655I837345J-751317D01*
G01*
X-273087231Y-83300655D01*
G75*
G02*
X-273001203Y-84889317I-751317J-837345D01*
G01*
X-274311205Y-86349317D01*
G75*
G02*
X-275899867Y-86435345I-837345J751317D01*
G01*
G37*
%TD.AperFunction*%
%TO.P,MX86,2*%
%TO.N,Net-(D86-Pad2)*%
X-268798550Y-83058000D03*
%TA.AperFunction,ComponentPad*%
G36*
G01*
X-268915067Y-84760395D02*
X-268915953Y-84760334D01*
G75*
G02*
X-269960884Y-83560597I77403J1122334D01*
G01*
X-269920884Y-82980597D01*
G75*
G02*
X-268721147Y-81935666I1122334J-77403D01*
G01*
X-268721147Y-81935666D01*
G75*
G02*
X-267676216Y-83135403I-77403J-1122334D01*
G01*
X-267716216Y-83715403D01*
G75*
G02*
X-268915953Y-84760334I-1122334J77403D01*
G01*
G37*
%TD.AperFunction*%
%TD*%
%TO.P,MX85,1*%
%TO.N,Col14*%
X-276219800Y-60325500D03*
%TA.AperFunction,ComponentPad*%
G36*
G01*
X-278281112Y-62622850D02*
X-278281117Y-62622845D01*
G75*
G02*
X-278367145Y-61034183I751317J837345D01*
G01*
X-277057143Y-59574183D01*
G75*
G02*
X-275468481Y-59488155I837345J-751317D01*
G01*
X-275468481Y-59488155D01*
G75*
G02*
X-275382453Y-61076817I-751317J-837345D01*
G01*
X-276692455Y-62536817D01*
G75*
G02*
X-278281117Y-62622845I-837345J751317D01*
G01*
G37*
%TD.AperFunction*%
%TO.P,MX85,2*%
%TO.N,Net-(D85-Pad2)*%
X-271179800Y-59245500D03*
%TA.AperFunction,ComponentPad*%
G36*
G01*
X-271296317Y-60947895D02*
X-271297203Y-60947834D01*
G75*
G02*
X-272342134Y-59748097I77403J1122334D01*
G01*
X-272302134Y-59168097D01*
G75*
G02*
X-271102397Y-58123166I1122334J-77403D01*
G01*
X-271102397Y-58123166D01*
G75*
G02*
X-270057466Y-59322903I-77403J-1122334D01*
G01*
X-270097466Y-59902903D01*
G75*
G02*
X-271297203Y-60947834I-1122334J77403D01*
G01*
G37*
%TD.AperFunction*%
%TD*%
%TO.P,MX84,2*%
%TO.N,Net-(D84-Pad2)*%
%TA.AperFunction,ComponentPad*%
G36*
G01*
X-242721317Y-160960395D02*
X-242722203Y-160960334D01*
G75*
G02*
X-243767134Y-159760597I77403J1122334D01*
G01*
X-243727134Y-159180597D01*
G75*
G02*
X-242527397Y-158135666I1122334J-77403D01*
G01*
X-242527397Y-158135666D01*
G75*
G02*
X-241482466Y-159335403I-77403J-1122334D01*
G01*
X-241522466Y-159915403D01*
G75*
G02*
X-242722203Y-160960334I-1122334J77403D01*
G01*
G37*
%TD.AperFunction*%
X-242604800Y-159258000D03*
%TO.P,MX84,1*%
%TO.N,Col13*%
%TA.AperFunction,ComponentPad*%
G36*
G01*
X-249706112Y-162635350D02*
X-249706117Y-162635345D01*
G75*
G02*
X-249792145Y-161046683I751317J837345D01*
G01*
X-248482143Y-159586683D01*
G75*
G02*
X-246893481Y-159500655I837345J-751317D01*
G01*
X-246893481Y-159500655D01*
G75*
G02*
X-246807453Y-161089317I-751317J-837345D01*
G01*
X-248117455Y-162549317D01*
G75*
G02*
X-249706117Y-162635345I-837345J751317D01*
G01*
G37*
%TD.AperFunction*%
X-247644800Y-160338000D03*
%TD*%
%TO.P,MX83,1*%
%TO.N,Col13*%
X-289324209Y-143950347D03*
%TA.AperFunction,ComponentPad*%
G36*
G01*
X-290720685Y-146702924D02*
X-290720692Y-146702921D01*
G75*
G02*
X-291214965Y-145190656I508996J1003269D01*
G01*
X-290327477Y-143441352D01*
G75*
G02*
X-288815212Y-142947079I1003269J-508996D01*
G01*
X-288815212Y-142947079D01*
G75*
G02*
X-288320939Y-144459344I-508996J-1003269D01*
G01*
X-289208427Y-146208648D01*
G75*
G02*
X-290720692Y-146702921I-1003269J508996D01*
G01*
G37*
%TD.AperFunction*%
%TO.P,MX83,2*%
%TO.N,Net-(D83-Pad2)*%
X-284735467Y-141602699D03*
%TA.AperFunction,ComponentPad*%
G36*
G01*
X-284407402Y-143277243D02*
X-284408273Y-143277414D01*
G75*
G02*
X-285728114Y-142389005I-215716J1104125D01*
G01*
X-285839592Y-141818415D01*
G75*
G02*
X-284951183Y-140498574I1104125J215716D01*
G01*
X-284951183Y-140498574D01*
G75*
G02*
X-283631342Y-141386983I215716J-1104125D01*
G01*
X-283519864Y-141957573D01*
G75*
G02*
X-284408273Y-143277414I-1104125J-215716D01*
G01*
G37*
%TD.AperFunction*%
%TD*%
%TO.P,MX82,1*%
%TO.N,Col13*%
X-292725433Y-125142638D03*
%TA.AperFunction,ComponentPad*%
G36*
G01*
X-294121909Y-127895215D02*
X-294121916Y-127895212D01*
G75*
G02*
X-294616189Y-126382947I508996J1003269D01*
G01*
X-293728701Y-124633643D01*
G75*
G02*
X-292216436Y-124139370I1003269J-508996D01*
G01*
X-292216436Y-124139370D01*
G75*
G02*
X-291722163Y-125651635I-508996J-1003269D01*
G01*
X-292609651Y-127400939D01*
G75*
G02*
X-294121916Y-127895212I-1003269J508996D01*
G01*
G37*
%TD.AperFunction*%
%TO.P,MX82,2*%
%TO.N,Net-(D82-Pad2)*%
X-288136691Y-122794990D03*
%TA.AperFunction,ComponentPad*%
G36*
G01*
X-287808626Y-124469534D02*
X-287809497Y-124469705D01*
G75*
G02*
X-289129338Y-123581296I-215716J1104125D01*
G01*
X-289240816Y-123010706D01*
G75*
G02*
X-288352407Y-121690865I1104125J215716D01*
G01*
X-288352407Y-121690865D01*
G75*
G02*
X-287032566Y-122579274I215716J-1104125D01*
G01*
X-286921088Y-123149864D01*
G75*
G02*
X-287809497Y-124469705I-1104125J-215716D01*
G01*
G37*
%TD.AperFunction*%
%TD*%
%TO.P,MX81,1*%
%TO.N,Col13*%
X-296179833Y-106346638D03*
%TA.AperFunction,ComponentPad*%
G36*
G01*
X-297576309Y-109099215D02*
X-297576316Y-109099212D01*
G75*
G02*
X-298070589Y-107586947I508996J1003269D01*
G01*
X-297183101Y-105837643D01*
G75*
G02*
X-295670836Y-105343370I1003269J-508996D01*
G01*
X-295670836Y-105343370D01*
G75*
G02*
X-295176563Y-106855635I-508996J-1003269D01*
G01*
X-296064051Y-108604939D01*
G75*
G02*
X-297576316Y-109099212I-1003269J508996D01*
G01*
G37*
%TD.AperFunction*%
%TO.P,MX81,2*%
%TO.N,Net-(D81-Pad2)*%
X-291591091Y-103998990D03*
%TA.AperFunction,ComponentPad*%
G36*
G01*
X-291263026Y-105673534D02*
X-291263897Y-105673705D01*
G75*
G02*
X-292583738Y-104785296I-215716J1104125D01*
G01*
X-292695216Y-104214706D01*
G75*
G02*
X-291806807Y-102894865I1104125J215716D01*
G01*
X-291806807Y-102894865D01*
G75*
G02*
X-290486966Y-103783274I215716J-1104125D01*
G01*
X-290375488Y-104353864D01*
G75*
G02*
X-291263897Y-105673705I-1104125J-215716D01*
G01*
G37*
%TD.AperFunction*%
%TD*%
%TO.P,MX80,1*%
%TO.N,Col13*%
X-299634233Y-87525238D03*
%TA.AperFunction,ComponentPad*%
G36*
G01*
X-301030709Y-90277815D02*
X-301030716Y-90277812D01*
G75*
G02*
X-301524989Y-88765547I508996J1003269D01*
G01*
X-300637501Y-87016243D01*
G75*
G02*
X-299125236Y-86521970I1003269J-508996D01*
G01*
X-299125236Y-86521970D01*
G75*
G02*
X-298630963Y-88034235I-508996J-1003269D01*
G01*
X-299518451Y-89783539D01*
G75*
G02*
X-301030716Y-90277812I-1003269J508996D01*
G01*
G37*
%TD.AperFunction*%
%TO.P,MX80,2*%
%TO.N,Net-(D80-Pad2)*%
X-295045491Y-85177590D03*
%TA.AperFunction,ComponentPad*%
G36*
G01*
X-294717426Y-86852134D02*
X-294718297Y-86852305D01*
G75*
G02*
X-296038138Y-85963896I-215716J1104125D01*
G01*
X-296149616Y-85393306D01*
G75*
G02*
X-295261207Y-84073465I1104125J215716D01*
G01*
X-295261207Y-84073465D01*
G75*
G02*
X-293941366Y-84961874I215716J-1104125D01*
G01*
X-293829888Y-85532464D01*
G75*
G02*
X-294718297Y-86852305I-1104125J-215716D01*
G01*
G37*
%TD.AperFunction*%
%TD*%
%TO.P,MX79,1*%
%TO.N,Col13*%
X-304693883Y-63448438D03*
%TA.AperFunction,ComponentPad*%
G36*
G01*
X-306090359Y-66201015D02*
X-306090366Y-66201012D01*
G75*
G02*
X-306584639Y-64688747I508996J1003269D01*
G01*
X-305697151Y-62939443D01*
G75*
G02*
X-304184886Y-62445170I1003269J-508996D01*
G01*
X-304184886Y-62445170D01*
G75*
G02*
X-303690613Y-63957435I-508996J-1003269D01*
G01*
X-304578101Y-65706739D01*
G75*
G02*
X-306090366Y-66201012I-1003269J508996D01*
G01*
G37*
%TD.AperFunction*%
%TO.P,MX79,2*%
%TO.N,Net-(D79-Pad2)*%
X-300105141Y-61100790D03*
%TA.AperFunction,ComponentPad*%
G36*
G01*
X-299777076Y-62775334D02*
X-299777947Y-62775505D01*
G75*
G02*
X-301097788Y-61887096I-215716J1104125D01*
G01*
X-301209266Y-61316506D01*
G75*
G02*
X-300320857Y-59996665I1104125J215716D01*
G01*
X-300320857Y-59996665D01*
G75*
G02*
X-299001016Y-60885074I215716J-1104125D01*
G01*
X-298889538Y-61455664D01*
G75*
G02*
X-299777947Y-62775505I-1104125J-215716D01*
G01*
G37*
%TD.AperFunction*%
%TD*%
%TO.P,MX78,1*%
%TO.N,Col12*%
X-305094704Y-167898048D03*
%TA.AperFunction,ComponentPad*%
G36*
G01*
X-306491180Y-170650625D02*
X-306491187Y-170650622D01*
G75*
G02*
X-306985460Y-169138357I508996J1003269D01*
G01*
X-306097972Y-167389053D01*
G75*
G02*
X-304585707Y-166894780I1003269J-508996D01*
G01*
X-304585707Y-166894780D01*
G75*
G02*
X-304091434Y-168407045I-508996J-1003269D01*
G01*
X-304978922Y-170156349D01*
G75*
G02*
X-306491187Y-170650622I-1003269J508996D01*
G01*
G37*
%TD.AperFunction*%
%TO.P,MX78,2*%
%TO.N,Net-(D78-Pad2)*%
X-300505962Y-165550400D03*
%TA.AperFunction,ComponentPad*%
G36*
G01*
X-300177897Y-167224944D02*
X-300178768Y-167225115D01*
G75*
G02*
X-301498609Y-166336706I-215716J1104125D01*
G01*
X-301610087Y-165766116D01*
G75*
G02*
X-300721678Y-164446275I1104125J215716D01*
G01*
X-300721678Y-164446275D01*
G75*
G02*
X-299401837Y-165334684I215716J-1104125D01*
G01*
X-299290359Y-165905274D01*
G75*
G02*
X-300178768Y-167225115I-1104125J-215716D01*
G01*
G37*
%TD.AperFunction*%
%TD*%
%TO.P,MX77,1*%
%TO.N,Col12*%
X-307725095Y-148880849D03*
%TA.AperFunction,ComponentPad*%
G36*
G01*
X-309121571Y-151633426D02*
X-309121578Y-151633423D01*
G75*
G02*
X-309615851Y-150121158I508996J1003269D01*
G01*
X-308728363Y-148371854D01*
G75*
G02*
X-307216098Y-147877581I1003269J-508996D01*
G01*
X-307216098Y-147877581D01*
G75*
G02*
X-306721825Y-149389846I-508996J-1003269D01*
G01*
X-307609313Y-151139150D01*
G75*
G02*
X-309121578Y-151633423I-1003269J508996D01*
G01*
G37*
%TD.AperFunction*%
%TO.P,MX77,2*%
%TO.N,Net-(D77-Pad2)*%
X-303136353Y-146533201D03*
%TA.AperFunction,ComponentPad*%
G36*
G01*
X-302808288Y-148207745D02*
X-302809159Y-148207916D01*
G75*
G02*
X-304129000Y-147319507I-215716J1104125D01*
G01*
X-304240478Y-146748917D01*
G75*
G02*
X-303352069Y-145429076I1104125J215716D01*
G01*
X-303352069Y-145429076D01*
G75*
G02*
X-302032228Y-146317485I215716J-1104125D01*
G01*
X-301920750Y-146888075D01*
G75*
G02*
X-302809159Y-148207916I-1104125J-215716D01*
G01*
G37*
%TD.AperFunction*%
%TD*%
%TO.P,MX76,1*%
%TO.N,Col12*%
X-311126319Y-130073140D03*
%TA.AperFunction,ComponentPad*%
G36*
G01*
X-312522795Y-132825717D02*
X-312522802Y-132825714D01*
G75*
G02*
X-313017075Y-131313449I508996J1003269D01*
G01*
X-312129587Y-129564145D01*
G75*
G02*
X-310617322Y-129069872I1003269J-508996D01*
G01*
X-310617322Y-129069872D01*
G75*
G02*
X-310123049Y-130582137I-508996J-1003269D01*
G01*
X-311010537Y-132331441D01*
G75*
G02*
X-312522802Y-132825714I-1003269J508996D01*
G01*
G37*
%TD.AperFunction*%
%TO.P,MX76,2*%
%TO.N,Net-(D76-Pad2)*%
X-306537577Y-127725492D03*
%TA.AperFunction,ComponentPad*%
G36*
G01*
X-306209512Y-129400036D02*
X-306210383Y-129400207D01*
G75*
G02*
X-307530224Y-128511798I-215716J1104125D01*
G01*
X-307641702Y-127941208D01*
G75*
G02*
X-306753293Y-126621367I1104125J215716D01*
G01*
X-306753293Y-126621367D01*
G75*
G02*
X-305433452Y-127509776I215716J-1104125D01*
G01*
X-305321974Y-128080366D01*
G75*
G02*
X-306210383Y-129400207I-1104125J-215716D01*
G01*
G37*
%TD.AperFunction*%
%TD*%
%TO.P,MX75,1*%
%TO.N,Col12*%
X-314580719Y-111277140D03*
%TA.AperFunction,ComponentPad*%
G36*
G01*
X-315977195Y-114029717D02*
X-315977202Y-114029714D01*
G75*
G02*
X-316471475Y-112517449I508996J1003269D01*
G01*
X-315583987Y-110768145D01*
G75*
G02*
X-314071722Y-110273872I1003269J-508996D01*
G01*
X-314071722Y-110273872D01*
G75*
G02*
X-313577449Y-111786137I-508996J-1003269D01*
G01*
X-314464937Y-113535441D01*
G75*
G02*
X-315977202Y-114029714I-1003269J508996D01*
G01*
G37*
%TD.AperFunction*%
%TO.P,MX75,2*%
%TO.N,Net-(D75-Pad2)*%
X-309991977Y-108929492D03*
%TA.AperFunction,ComponentPad*%
G36*
G01*
X-309663912Y-110604036D02*
X-309664783Y-110604207D01*
G75*
G02*
X-310984624Y-109715798I-215716J1104125D01*
G01*
X-311096102Y-109145208D01*
G75*
G02*
X-310207693Y-107825367I1104125J215716D01*
G01*
X-310207693Y-107825367D01*
G75*
G02*
X-308887852Y-108713776I215716J-1104125D01*
G01*
X-308776374Y-109284366D01*
G75*
G02*
X-309664783Y-110604207I-1104125J-215716D01*
G01*
G37*
%TD.AperFunction*%
%TD*%
%TO.P,MX74,1*%
%TO.N,Col12*%
X-318035119Y-92455740D03*
%TA.AperFunction,ComponentPad*%
G36*
G01*
X-319431595Y-95208317D02*
X-319431602Y-95208314D01*
G75*
G02*
X-319925875Y-93696049I508996J1003269D01*
G01*
X-319038387Y-91946745D01*
G75*
G02*
X-317526122Y-91452472I1003269J-508996D01*
G01*
X-317526122Y-91452472D01*
G75*
G02*
X-317031849Y-92964737I-508996J-1003269D01*
G01*
X-317919337Y-94714041D01*
G75*
G02*
X-319431602Y-95208314I-1003269J508996D01*
G01*
G37*
%TD.AperFunction*%
%TO.P,MX74,2*%
%TO.N,Net-(D74-Pad2)*%
X-313446377Y-90108092D03*
%TA.AperFunction,ComponentPad*%
G36*
G01*
X-313118312Y-91782636D02*
X-313119183Y-91782807D01*
G75*
G02*
X-314439024Y-90894398I-215716J1104125D01*
G01*
X-314550502Y-90323808D01*
G75*
G02*
X-313662093Y-89003967I1104125J215716D01*
G01*
X-313662093Y-89003967D01*
G75*
G02*
X-312342252Y-89892376I215716J-1104125D01*
G01*
X-312230774Y-90462966D01*
G75*
G02*
X-313119183Y-91782807I-1104125J-215716D01*
G01*
G37*
%TD.AperFunction*%
%TD*%
%TO.P,MX73,1*%
%TO.N,Col12*%
X-323094769Y-68378940D03*
%TA.AperFunction,ComponentPad*%
G36*
G01*
X-324491245Y-71131517D02*
X-324491252Y-71131514D01*
G75*
G02*
X-324985525Y-69619249I508996J1003269D01*
G01*
X-324098037Y-67869945D01*
G75*
G02*
X-322585772Y-67375672I1003269J-508996D01*
G01*
X-322585772Y-67375672D01*
G75*
G02*
X-322091499Y-68887937I-508996J-1003269D01*
G01*
X-322978987Y-70637241D01*
G75*
G02*
X-324491252Y-71131514I-1003269J508996D01*
G01*
G37*
%TD.AperFunction*%
%TO.P,MX73,2*%
%TO.N,Net-(D73-Pad2)*%
X-318506027Y-66031292D03*
%TA.AperFunction,ComponentPad*%
G36*
G01*
X-318177962Y-67705836D02*
X-318178833Y-67706007D01*
G75*
G02*
X-319498674Y-66817598I-215716J1104125D01*
G01*
X-319610152Y-66247008D01*
G75*
G02*
X-318721743Y-64927167I1104125J215716D01*
G01*
X-318721743Y-64927167D01*
G75*
G02*
X-317401902Y-65815576I215716J-1104125D01*
G01*
X-317290424Y-66386166D01*
G75*
G02*
X-318178833Y-67706007I-1104125J-215716D01*
G01*
G37*
%TD.AperFunction*%
%TD*%
%TO.P,MX71,1*%
%TO.N,Col11*%
X-326125981Y-153811351D03*
%TA.AperFunction,ComponentPad*%
G36*
G01*
X-327522457Y-156563928D02*
X-327522464Y-156563925D01*
G75*
G02*
X-328016737Y-155051660I508996J1003269D01*
G01*
X-327129249Y-153302356D01*
G75*
G02*
X-325616984Y-152808083I1003269J-508996D01*
G01*
X-325616984Y-152808083D01*
G75*
G02*
X-325122711Y-154320348I-508996J-1003269D01*
G01*
X-326010199Y-156069652D01*
G75*
G02*
X-327522464Y-156563925I-1003269J508996D01*
G01*
G37*
%TD.AperFunction*%
%TO.P,MX71,2*%
%TO.N,Net-(D71-Pad2)*%
X-321537239Y-151463703D03*
%TA.AperFunction,ComponentPad*%
G36*
G01*
X-321209174Y-153138247D02*
X-321210045Y-153138418D01*
G75*
G02*
X-322529886Y-152250009I-215716J1104125D01*
G01*
X-322641364Y-151679419D01*
G75*
G02*
X-321752955Y-150359578I1104125J215716D01*
G01*
X-321752955Y-150359578D01*
G75*
G02*
X-320433114Y-151247987I215716J-1104125D01*
G01*
X-320321636Y-151818577D01*
G75*
G02*
X-321210045Y-153138418I-1104125J-215716D01*
G01*
G37*
%TD.AperFunction*%
%TD*%
%TO.P,MX70,1*%
%TO.N,Col11*%
X-329527205Y-135003642D03*
%TA.AperFunction,ComponentPad*%
G36*
G01*
X-330923681Y-137756219D02*
X-330923688Y-137756216D01*
G75*
G02*
X-331417961Y-136243951I508996J1003269D01*
G01*
X-330530473Y-134494647D01*
G75*
G02*
X-329018208Y-134000374I1003269J-508996D01*
G01*
X-329018208Y-134000374D01*
G75*
G02*
X-328523935Y-135512639I-508996J-1003269D01*
G01*
X-329411423Y-137261943D01*
G75*
G02*
X-330923688Y-137756216I-1003269J508996D01*
G01*
G37*
%TD.AperFunction*%
%TO.P,MX70,2*%
%TO.N,Net-(D70-Pad2)*%
X-324938463Y-132655994D03*
%TA.AperFunction,ComponentPad*%
G36*
G01*
X-324610398Y-134330538D02*
X-324611269Y-134330709D01*
G75*
G02*
X-325931110Y-133442300I-215716J1104125D01*
G01*
X-326042588Y-132871710D01*
G75*
G02*
X-325154179Y-131551869I1104125J215716D01*
G01*
X-325154179Y-131551869D01*
G75*
G02*
X-323834338Y-132440278I215716J-1104125D01*
G01*
X-323722860Y-133010868D01*
G75*
G02*
X-324611269Y-134330709I-1104125J-215716D01*
G01*
G37*
%TD.AperFunction*%
%TD*%
%TO.P,MX69,1*%
%TO.N,Col11*%
X-332981605Y-116207642D03*
%TA.AperFunction,ComponentPad*%
G36*
G01*
X-334378081Y-118960219D02*
X-334378088Y-118960216D01*
G75*
G02*
X-334872361Y-117447951I508996J1003269D01*
G01*
X-333984873Y-115698647D01*
G75*
G02*
X-332472608Y-115204374I1003269J-508996D01*
G01*
X-332472608Y-115204374D01*
G75*
G02*
X-331978335Y-116716639I-508996J-1003269D01*
G01*
X-332865823Y-118465943D01*
G75*
G02*
X-334378088Y-118960216I-1003269J508996D01*
G01*
G37*
%TD.AperFunction*%
%TO.P,MX69,2*%
%TO.N,Net-(D69-Pad2)*%
X-328392863Y-113859994D03*
%TA.AperFunction,ComponentPad*%
G36*
G01*
X-328064798Y-115534538D02*
X-328065669Y-115534709D01*
G75*
G02*
X-329385510Y-114646300I-215716J1104125D01*
G01*
X-329496988Y-114075710D01*
G75*
G02*
X-328608579Y-112755869I1104125J215716D01*
G01*
X-328608579Y-112755869D01*
G75*
G02*
X-327288738Y-113644278I215716J-1104125D01*
G01*
X-327177260Y-114214868D01*
G75*
G02*
X-328065669Y-115534709I-1104125J-215716D01*
G01*
G37*
%TD.AperFunction*%
%TD*%
%TO.P,MX68,1*%
%TO.N,Col11*%
X-336436005Y-97386242D03*
%TA.AperFunction,ComponentPad*%
G36*
G01*
X-337832481Y-100138819D02*
X-337832488Y-100138816D01*
G75*
G02*
X-338326761Y-98626551I508996J1003269D01*
G01*
X-337439273Y-96877247D01*
G75*
G02*
X-335927008Y-96382974I1003269J-508996D01*
G01*
X-335927008Y-96382974D01*
G75*
G02*
X-335432735Y-97895239I-508996J-1003269D01*
G01*
X-336320223Y-99644543D01*
G75*
G02*
X-337832488Y-100138816I-1003269J508996D01*
G01*
G37*
%TD.AperFunction*%
%TO.P,MX68,2*%
%TO.N,Net-(D68-Pad2)*%
X-331847263Y-95038594D03*
%TA.AperFunction,ComponentPad*%
G36*
G01*
X-331519198Y-96713138D02*
X-331520069Y-96713309D01*
G75*
G02*
X-332839910Y-95824900I-215716J1104125D01*
G01*
X-332951388Y-95254310D01*
G75*
G02*
X-332062979Y-93934469I1104125J215716D01*
G01*
X-332062979Y-93934469D01*
G75*
G02*
X-330743138Y-94822878I215716J-1104125D01*
G01*
X-330631660Y-95393468D01*
G75*
G02*
X-331520069Y-96713309I-1104125J-215716D01*
G01*
G37*
%TD.AperFunction*%
%TD*%
%TO.P,MX67,1*%
%TO.N,Col11*%
X-341495655Y-73309442D03*
%TA.AperFunction,ComponentPad*%
G36*
G01*
X-342892131Y-76062019D02*
X-342892138Y-76062016D01*
G75*
G02*
X-343386411Y-74549751I508996J1003269D01*
G01*
X-342498923Y-72800447D01*
G75*
G02*
X-340986658Y-72306174I1003269J-508996D01*
G01*
X-340986658Y-72306174D01*
G75*
G02*
X-340492385Y-73818439I-508996J-1003269D01*
G01*
X-341379873Y-75567743D01*
G75*
G02*
X-342892138Y-76062016I-1003269J508996D01*
G01*
G37*
%TD.AperFunction*%
%TO.P,MX67,2*%
%TO.N,Net-(D67-Pad2)*%
X-336906913Y-70961794D03*
%TA.AperFunction,ComponentPad*%
G36*
G01*
X-336578848Y-72636338D02*
X-336579719Y-72636509D01*
G75*
G02*
X-337899560Y-71748100I-215716J1104125D01*
G01*
X-338011038Y-71177510D01*
G75*
G02*
X-337122629Y-69857669I1104125J215716D01*
G01*
X-337122629Y-69857669D01*
G75*
G02*
X-335802788Y-70746078I215716J-1104125D01*
G01*
X-335691310Y-71316668D01*
G75*
G02*
X-336579719Y-72636509I-1104125J-215716D01*
G01*
G37*
%TD.AperFunction*%
%TD*%
%TO.P,MX66,1*%
%TO.N,Col10*%
X-362927753Y-163672355D03*
%TA.AperFunction,ComponentPad*%
G36*
G01*
X-364324229Y-166424932D02*
X-364324236Y-166424929D01*
G75*
G02*
X-364818509Y-164912664I508996J1003269D01*
G01*
X-363931021Y-163163360D01*
G75*
G02*
X-362418756Y-162669087I1003269J-508996D01*
G01*
X-362418756Y-162669087D01*
G75*
G02*
X-361924483Y-164181352I-508996J-1003269D01*
G01*
X-362811971Y-165930656D01*
G75*
G02*
X-364324236Y-166424929I-1003269J508996D01*
G01*
G37*
%TD.AperFunction*%
%TO.P,MX66,2*%
%TO.N,Net-(D66-Pad2)*%
X-358339011Y-161324707D03*
%TA.AperFunction,ComponentPad*%
G36*
G01*
X-358010946Y-162999251D02*
X-358011817Y-162999422D01*
G75*
G02*
X-359331658Y-162111013I-215716J1104125D01*
G01*
X-359443136Y-161540423D01*
G75*
G02*
X-358554727Y-160220582I1104125J215716D01*
G01*
X-358554727Y-160220582D01*
G75*
G02*
X-357234886Y-161108991I215716J-1104125D01*
G01*
X-357123408Y-161679581D01*
G75*
G02*
X-358011817Y-162999422I-1104125J-215716D01*
G01*
G37*
%TD.AperFunction*%
%TD*%
%TO.P,MX65,1*%
%TO.N,Col10*%
X-344526867Y-158741853D03*
%TA.AperFunction,ComponentPad*%
G36*
G01*
X-345923343Y-161494430D02*
X-345923350Y-161494427D01*
G75*
G02*
X-346417623Y-159982162I508996J1003269D01*
G01*
X-345530135Y-158232858D01*
G75*
G02*
X-344017870Y-157738585I1003269J-508996D01*
G01*
X-344017870Y-157738585D01*
G75*
G02*
X-343523597Y-159250850I-508996J-1003269D01*
G01*
X-344411085Y-161000154D01*
G75*
G02*
X-345923350Y-161494427I-1003269J508996D01*
G01*
G37*
%TD.AperFunction*%
%TO.P,MX65,2*%
%TO.N,Net-(D65-Pad2)*%
X-339938125Y-156394205D03*
%TA.AperFunction,ComponentPad*%
G36*
G01*
X-339610060Y-158068749D02*
X-339610931Y-158068920D01*
G75*
G02*
X-340930772Y-157180511I-215716J1104125D01*
G01*
X-341042250Y-156609921D01*
G75*
G02*
X-340153841Y-155290080I1104125J215716D01*
G01*
X-340153841Y-155290080D01*
G75*
G02*
X-338834000Y-156178489I215716J-1104125D01*
G01*
X-338722522Y-156749079D01*
G75*
G02*
X-339610931Y-158068920I-1104125J-215716D01*
G01*
G37*
%TD.AperFunction*%
%TD*%
%TO.P,MX64,2*%
%TO.N,Net-(D64-Pad2)*%
%TA.AperFunction,ComponentPad*%
G36*
G01*
X-343011284Y-139261040D02*
X-343012155Y-139261211D01*
G75*
G02*
X-344331996Y-138372802I-215716J1104125D01*
G01*
X-344443474Y-137802212D01*
G75*
G02*
X-343555065Y-136482371I1104125J215716D01*
G01*
X-343555065Y-136482371D01*
G75*
G02*
X-342235224Y-137370780I215716J-1104125D01*
G01*
X-342123746Y-137941370D01*
G75*
G02*
X-343012155Y-139261211I-1104125J-215716D01*
G01*
G37*
%TD.AperFunction*%
X-343339349Y-137586496D03*
%TO.P,MX64,1*%
%TO.N,Col10*%
%TA.AperFunction,ComponentPad*%
G36*
G01*
X-349324567Y-142686721D02*
X-349324574Y-142686718D01*
G75*
G02*
X-349818847Y-141174453I508996J1003269D01*
G01*
X-348931359Y-139425149D01*
G75*
G02*
X-347419094Y-138930876I1003269J-508996D01*
G01*
X-347419094Y-138930876D01*
G75*
G02*
X-346924821Y-140443141I-508996J-1003269D01*
G01*
X-347812309Y-142192445D01*
G75*
G02*
X-349324574Y-142686718I-1003269J508996D01*
G01*
G37*
%TD.AperFunction*%
X-347928091Y-139934144D03*
%TD*%
%TO.P,MX63,2*%
%TO.N,Net-(D63-Pad2)*%
%TA.AperFunction,ComponentPad*%
G36*
G01*
X-346465684Y-120465040D02*
X-346466555Y-120465211D01*
G75*
G02*
X-347786396Y-119576802I-215716J1104125D01*
G01*
X-347897874Y-119006212D01*
G75*
G02*
X-347009465Y-117686371I1104125J215716D01*
G01*
X-347009465Y-117686371D01*
G75*
G02*
X-345689624Y-118574780I215716J-1104125D01*
G01*
X-345578146Y-119145370D01*
G75*
G02*
X-346466555Y-120465211I-1104125J-215716D01*
G01*
G37*
%TD.AperFunction*%
X-346793749Y-118790496D03*
%TO.P,MX63,1*%
%TO.N,Col10*%
%TA.AperFunction,ComponentPad*%
G36*
G01*
X-352778967Y-123890721D02*
X-352778974Y-123890718D01*
G75*
G02*
X-353273247Y-122378453I508996J1003269D01*
G01*
X-352385759Y-120629149D01*
G75*
G02*
X-350873494Y-120134876I1003269J-508996D01*
G01*
X-350873494Y-120134876D01*
G75*
G02*
X-350379221Y-121647141I-508996J-1003269D01*
G01*
X-351266709Y-123396445D01*
G75*
G02*
X-352778974Y-123890718I-1003269J508996D01*
G01*
G37*
%TD.AperFunction*%
X-351382491Y-121138144D03*
%TD*%
%TO.P,MX62,1*%
%TO.N,Col10*%
X-354836891Y-102316744D03*
%TA.AperFunction,ComponentPad*%
G36*
G01*
X-356233367Y-105069321D02*
X-356233374Y-105069318D01*
G75*
G02*
X-356727647Y-103557053I508996J1003269D01*
G01*
X-355840159Y-101807749D01*
G75*
G02*
X-354327894Y-101313476I1003269J-508996D01*
G01*
X-354327894Y-101313476D01*
G75*
G02*
X-353833621Y-102825741I-508996J-1003269D01*
G01*
X-354721109Y-104575045D01*
G75*
G02*
X-356233374Y-105069318I-1003269J508996D01*
G01*
G37*
%TD.AperFunction*%
%TO.P,MX62,2*%
%TO.N,Net-(D62-Pad2)*%
X-350248149Y-99969096D03*
%TA.AperFunction,ComponentPad*%
G36*
G01*
X-349920084Y-101643640D02*
X-349920955Y-101643811D01*
G75*
G02*
X-351240796Y-100755402I-215716J1104125D01*
G01*
X-351352274Y-100184812D01*
G75*
G02*
X-350463865Y-98864971I1104125J215716D01*
G01*
X-350463865Y-98864971D01*
G75*
G02*
X-349144024Y-99753380I215716J-1104125D01*
G01*
X-349032546Y-100323970D01*
G75*
G02*
X-349920955Y-101643811I-1104125J-215716D01*
G01*
G37*
%TD.AperFunction*%
%TD*%
%TO.P,MX61,1*%
%TO.N,Col10*%
X-359896541Y-78239944D03*
%TA.AperFunction,ComponentPad*%
G36*
G01*
X-361293017Y-80992521D02*
X-361293024Y-80992518D01*
G75*
G02*
X-361787297Y-79480253I508996J1003269D01*
G01*
X-360899809Y-77730949D01*
G75*
G02*
X-359387544Y-77236676I1003269J-508996D01*
G01*
X-359387544Y-77236676D01*
G75*
G02*
X-358893271Y-78748941I-508996J-1003269D01*
G01*
X-359780759Y-80498245D01*
G75*
G02*
X-361293024Y-80992518I-1003269J508996D01*
G01*
G37*
%TD.AperFunction*%
%TO.P,MX61,2*%
%TO.N,Net-(D61-Pad2)*%
X-355307799Y-75892296D03*
%TA.AperFunction,ComponentPad*%
G36*
G01*
X-354979734Y-77566840D02*
X-354980605Y-77567011D01*
G75*
G02*
X-356300446Y-76678602I-215716J1104125D01*
G01*
X-356411924Y-76108012D01*
G75*
G02*
X-355523515Y-74788171I1104125J215716D01*
G01*
X-355523515Y-74788171D01*
G75*
G02*
X-354203674Y-75676580I215716J-1104125D01*
G01*
X-354092196Y-76247170D01*
G75*
G02*
X-354980605Y-77567011I-1104125J-215716D01*
G01*
G37*
%TD.AperFunction*%
%TD*%
%TO.P,MX60,1*%
%TO.N,Col9*%
X-389432200Y-162378260D03*
%TA.AperFunction,ComponentPad*%
G36*
G01*
X-392017873Y-164063824D02*
X-392017877Y-164063817D01*
G75*
G02*
X-391689797Y-162507021I942438J614358D01*
G01*
X-390046557Y-161435823D01*
G75*
G02*
X-388489761Y-161763903I614358J-942438D01*
G01*
X-388489761Y-161763903D01*
G75*
G02*
X-388817841Y-163320699I-942438J-614358D01*
G01*
X-390461081Y-164391897D01*
G75*
G02*
X-392017877Y-164063817I-614358J942438D01*
G01*
G37*
%TD.AperFunction*%
%TO.P,MX60,2*%
%TO.N,Net-(D60-Pad2)*%
X-384284410Y-162639508D03*
%TA.AperFunction,ComponentPad*%
G36*
G01*
X-384837569Y-164253738D02*
X-384838409Y-164253450D01*
G75*
G02*
X-385537220Y-162824145I365247J1064058D01*
G01*
X-385348468Y-162274261D01*
G75*
G02*
X-383919163Y-161575450I1064058J-365247D01*
G01*
X-383919163Y-161575450D01*
G75*
G02*
X-383220352Y-163004755I-365247J-1064058D01*
G01*
X-383409104Y-163554639D01*
G75*
G02*
X-384838409Y-164253450I-1064058J365247D01*
G01*
G37*
%TD.AperFunction*%
%TD*%
%TO.P,MX59,1*%
%TO.N,Col9*%
X-407833086Y-157447758D03*
%TA.AperFunction,ComponentPad*%
G36*
G01*
X-410418759Y-159133322D02*
X-410418763Y-159133315D01*
G75*
G02*
X-410090683Y-157576519I942438J614358D01*
G01*
X-408447443Y-156505321D01*
G75*
G02*
X-406890647Y-156833401I614358J-942438D01*
G01*
X-406890647Y-156833401D01*
G75*
G02*
X-407218727Y-158390197I-942438J-614358D01*
G01*
X-408861967Y-159461395D01*
G75*
G02*
X-410418763Y-159133315I-614358J942438D01*
G01*
G37*
%TD.AperFunction*%
%TO.P,MX59,2*%
%TO.N,Net-(D59-Pad2)*%
X-402685296Y-157709006D03*
%TA.AperFunction,ComponentPad*%
G36*
G01*
X-403238455Y-159323236D02*
X-403239295Y-159322948D01*
G75*
G02*
X-403938106Y-157893643I365247J1064058D01*
G01*
X-403749354Y-157343759D01*
G75*
G02*
X-402320049Y-156644948I1064058J-365247D01*
G01*
X-402320049Y-156644948D01*
G75*
G02*
X-401621238Y-158074253I-365247J-1064058D01*
G01*
X-401809990Y-158624137D01*
G75*
G02*
X-403239295Y-159322948I-1064058J365247D01*
G01*
G37*
%TD.AperFunction*%
%TD*%
%TO.P,MX58,1*%
%TO.N,Col9*%
X-404345880Y-138669755D03*
%TA.AperFunction,ComponentPad*%
G36*
G01*
X-406931553Y-140355319D02*
X-406931557Y-140355312D01*
G75*
G02*
X-406603477Y-138798516I942438J614358D01*
G01*
X-404960237Y-137727318D01*
G75*
G02*
X-403403441Y-138055398I614358J-942438D01*
G01*
X-403403441Y-138055398D01*
G75*
G02*
X-403731521Y-139612194I-942438J-614358D01*
G01*
X-405374761Y-140683392D01*
G75*
G02*
X-406931557Y-140355312I-614358J942438D01*
G01*
G37*
%TD.AperFunction*%
%TO.P,MX58,2*%
%TO.N,Net-(D58-Pad2)*%
X-399198090Y-138931003D03*
%TA.AperFunction,ComponentPad*%
G36*
G01*
X-399751249Y-140545233D02*
X-399752089Y-140544945D01*
G75*
G02*
X-400450900Y-139115640I365247J1064058D01*
G01*
X-400262148Y-138565756D01*
G75*
G02*
X-398832843Y-137866945I1064058J-365247D01*
G01*
X-398832843Y-137866945D01*
G75*
G02*
X-398134032Y-139296250I-365247J-1064058D01*
G01*
X-398322784Y-139846134D01*
G75*
G02*
X-399752089Y-140544945I-1064058J365247D01*
G01*
G37*
%TD.AperFunction*%
%TD*%
%TO.P,MX57,1*%
%TO.N,Col9*%
X-401157643Y-119746755D03*
%TA.AperFunction,ComponentPad*%
G36*
G01*
X-403743316Y-121432319D02*
X-403743320Y-121432312D01*
G75*
G02*
X-403415240Y-119875516I942438J614358D01*
G01*
X-401772000Y-118804318D01*
G75*
G02*
X-400215204Y-119132398I614358J-942438D01*
G01*
X-400215204Y-119132398D01*
G75*
G02*
X-400543284Y-120689194I-942438J-614358D01*
G01*
X-402186524Y-121760392D01*
G75*
G02*
X-403743320Y-121432312I-614358J942438D01*
G01*
G37*
%TD.AperFunction*%
%TO.P,MX57,2*%
%TO.N,Net-(D57-Pad2)*%
X-396009853Y-120008003D03*
%TA.AperFunction,ComponentPad*%
G36*
G01*
X-396563012Y-121622233D02*
X-396563852Y-121621945D01*
G75*
G02*
X-397262663Y-120192640I365247J1064058D01*
G01*
X-397073911Y-119642756D01*
G75*
G02*
X-395644606Y-118943945I1064058J-365247D01*
G01*
X-395644606Y-118943945D01*
G75*
G02*
X-394945795Y-120373250I-365247J-1064058D01*
G01*
X-395134547Y-120923134D01*
G75*
G02*
X-396563852Y-121621945I-1064058J365247D01*
G01*
G37*
%TD.AperFunction*%
%TD*%
%TO.P,MX56,1*%
%TO.N,Col9*%
X-397849646Y-100933752D03*
%TA.AperFunction,ComponentPad*%
G36*
G01*
X-400435319Y-102619316D02*
X-400435323Y-102619309D01*
G75*
G02*
X-400107243Y-101062513I942438J614358D01*
G01*
X-398464003Y-99991315D01*
G75*
G02*
X-396907207Y-100319395I614358J-942438D01*
G01*
X-396907207Y-100319395D01*
G75*
G02*
X-397235287Y-101876191I-942438J-614358D01*
G01*
X-398878527Y-102947389D01*
G75*
G02*
X-400435323Y-102619309I-614358J942438D01*
G01*
G37*
%TD.AperFunction*%
%TO.P,MX56,2*%
%TO.N,Net-(D56-Pad2)*%
X-392701856Y-101195000D03*
%TA.AperFunction,ComponentPad*%
G36*
G01*
X-393255015Y-102809230D02*
X-393255855Y-102808942D01*
G75*
G02*
X-393954666Y-101379637I365247J1064058D01*
G01*
X-393765914Y-100829753D01*
G75*
G02*
X-392336609Y-100130942I1064058J-365247D01*
G01*
X-392336609Y-100130942D01*
G75*
G02*
X-391637798Y-101560247I-365247J-1064058D01*
G01*
X-391826550Y-102110131D01*
G75*
G02*
X-393255855Y-102808942I-1064058J365247D01*
G01*
G37*
%TD.AperFunction*%
%TD*%
%TO.P,MX55,1*%
%TO.N,Col9*%
X-393150646Y-76931252D03*
%TA.AperFunction,ComponentPad*%
G36*
G01*
X-395736319Y-78616816D02*
X-395736323Y-78616809D01*
G75*
G02*
X-395408243Y-77060013I942438J614358D01*
G01*
X-393765003Y-75988815D01*
G75*
G02*
X-392208207Y-76316895I614358J-942438D01*
G01*
X-392208207Y-76316895D01*
G75*
G02*
X-392536287Y-77873691I-942438J-614358D01*
G01*
X-394179527Y-78944889D01*
G75*
G02*
X-395736323Y-78616809I-614358J942438D01*
G01*
G37*
%TD.AperFunction*%
%TO.P,MX55,2*%
%TO.N,Net-(D55-Pad2)*%
X-388002856Y-77192500D03*
%TA.AperFunction,ComponentPad*%
G36*
G01*
X-388556015Y-78806730D02*
X-388556855Y-78806442D01*
G75*
G02*
X-389255666Y-77377137I365247J1064058D01*
G01*
X-389066914Y-76827253D01*
G75*
G02*
X-387637609Y-76128442I1064058J-365247D01*
G01*
X-387637609Y-76128442D01*
G75*
G02*
X-386938798Y-77557747I-365247J-1064058D01*
G01*
X-387127550Y-78107631D01*
G75*
G02*
X-388556855Y-78806442I-1064058J365247D01*
G01*
G37*
%TD.AperFunction*%
%TD*%
%TO.P,MX53,1*%
%TO.N,Col8*%
X-426233972Y-152517256D03*
%TA.AperFunction,ComponentPad*%
G36*
G01*
X-428819645Y-154202820D02*
X-428819649Y-154202813D01*
G75*
G02*
X-428491569Y-152646017I942438J614358D01*
G01*
X-426848329Y-151574819D01*
G75*
G02*
X-425291533Y-151902899I614358J-942438D01*
G01*
X-425291533Y-151902899D01*
G75*
G02*
X-425619613Y-153459695I-942438J-614358D01*
G01*
X-427262853Y-154530893D01*
G75*
G02*
X-428819649Y-154202813I-614358J942438D01*
G01*
G37*
%TD.AperFunction*%
%TO.P,MX53,2*%
%TO.N,Net-(D53-Pad2)*%
X-421086182Y-152778504D03*
%TA.AperFunction,ComponentPad*%
G36*
G01*
X-421639341Y-154392734D02*
X-421640181Y-154392446D01*
G75*
G02*
X-422338992Y-152963141I365247J1064058D01*
G01*
X-422150240Y-152413257D01*
G75*
G02*
X-420720935Y-151714446I1064058J-365247D01*
G01*
X-420720935Y-151714446D01*
G75*
G02*
X-420022124Y-153143751I-365247J-1064058D01*
G01*
X-420210876Y-153693635D01*
G75*
G02*
X-421640181Y-154392446I-1064058J365247D01*
G01*
G37*
%TD.AperFunction*%
%TD*%
%TO.P,MX52,1*%
%TO.N,Col8*%
X-422746766Y-133739253D03*
%TA.AperFunction,ComponentPad*%
G36*
G01*
X-425332439Y-135424817D02*
X-425332443Y-135424810D01*
G75*
G02*
X-425004363Y-133868014I942438J614358D01*
G01*
X-423361123Y-132796816D01*
G75*
G02*
X-421804327Y-133124896I614358J-942438D01*
G01*
X-421804327Y-133124896D01*
G75*
G02*
X-422132407Y-134681692I-942438J-614358D01*
G01*
X-423775647Y-135752890D01*
G75*
G02*
X-425332443Y-135424810I-614358J942438D01*
G01*
G37*
%TD.AperFunction*%
%TO.P,MX52,2*%
%TO.N,Net-(D52-Pad2)*%
X-417598976Y-134000501D03*
%TA.AperFunction,ComponentPad*%
G36*
G01*
X-418152135Y-135614731D02*
X-418152975Y-135614443D01*
G75*
G02*
X-418851786Y-134185138I365247J1064058D01*
G01*
X-418663034Y-133635254D01*
G75*
G02*
X-417233729Y-132936443I1064058J-365247D01*
G01*
X-417233729Y-132936443D01*
G75*
G02*
X-416534918Y-134365748I-365247J-1064058D01*
G01*
X-416723670Y-134915632D01*
G75*
G02*
X-418152975Y-135614443I-1064058J365247D01*
G01*
G37*
%TD.AperFunction*%
%TD*%
%TO.P,MX51,1*%
%TO.N,Col8*%
X-419558529Y-114816253D03*
%TA.AperFunction,ComponentPad*%
G36*
G01*
X-422144202Y-116501817D02*
X-422144206Y-116501810D01*
G75*
G02*
X-421816126Y-114945014I942438J614358D01*
G01*
X-420172886Y-113873816D01*
G75*
G02*
X-418616090Y-114201896I614358J-942438D01*
G01*
X-418616090Y-114201896D01*
G75*
G02*
X-418944170Y-115758692I-942438J-614358D01*
G01*
X-420587410Y-116829890D01*
G75*
G02*
X-422144206Y-116501810I-614358J942438D01*
G01*
G37*
%TD.AperFunction*%
%TO.P,MX51,2*%
%TO.N,Net-(D51-Pad2)*%
X-414410739Y-115077501D03*
%TA.AperFunction,ComponentPad*%
G36*
G01*
X-414963898Y-116691731D02*
X-414964738Y-116691443D01*
G75*
G02*
X-415663549Y-115262138I365247J1064058D01*
G01*
X-415474797Y-114712254D01*
G75*
G02*
X-414045492Y-114013443I1064058J-365247D01*
G01*
X-414045492Y-114013443D01*
G75*
G02*
X-413346681Y-115442748I-365247J-1064058D01*
G01*
X-413535433Y-115992632D01*
G75*
G02*
X-414964738Y-116691443I-1064058J365247D01*
G01*
G37*
%TD.AperFunction*%
%TD*%
%TO.P,MX50,1*%
%TO.N,Col8*%
X-416250532Y-96003250D03*
%TA.AperFunction,ComponentPad*%
G36*
G01*
X-418836205Y-97688814D02*
X-418836209Y-97688807D01*
G75*
G02*
X-418508129Y-96132011I942438J614358D01*
G01*
X-416864889Y-95060813D01*
G75*
G02*
X-415308093Y-95388893I614358J-942438D01*
G01*
X-415308093Y-95388893D01*
G75*
G02*
X-415636173Y-96945689I-942438J-614358D01*
G01*
X-417279413Y-98016887D01*
G75*
G02*
X-418836209Y-97688807I-614358J942438D01*
G01*
G37*
%TD.AperFunction*%
%TO.P,MX50,2*%
%TO.N,Net-(D50-Pad2)*%
X-411102742Y-96264498D03*
%TA.AperFunction,ComponentPad*%
G36*
G01*
X-411655901Y-97878728D02*
X-411656741Y-97878440D01*
G75*
G02*
X-412355552Y-96449135I365247J1064058D01*
G01*
X-412166800Y-95899251D01*
G75*
G02*
X-410737495Y-95200440I1064058J-365247D01*
G01*
X-410737495Y-95200440D01*
G75*
G02*
X-410038684Y-96629745I-365247J-1064058D01*
G01*
X-410227436Y-97179629D01*
G75*
G02*
X-411656741Y-97878440I-1064058J365247D01*
G01*
G37*
%TD.AperFunction*%
%TD*%
%TO.P,MX49,1*%
%TO.N,Col8*%
X-411551532Y-72000750D03*
%TA.AperFunction,ComponentPad*%
G36*
G01*
X-414137205Y-73686314D02*
X-414137209Y-73686307D01*
G75*
G02*
X-413809129Y-72129511I942438J614358D01*
G01*
X-412165889Y-71058313D01*
G75*
G02*
X-410609093Y-71386393I614358J-942438D01*
G01*
X-410609093Y-71386393D01*
G75*
G02*
X-410937173Y-72943189I-942438J-614358D01*
G01*
X-412580413Y-74014387D01*
G75*
G02*
X-414137209Y-73686307I-614358J942438D01*
G01*
G37*
%TD.AperFunction*%
%TO.P,MX49,2*%
%TO.N,Net-(D49-Pad2)*%
X-406403742Y-72261998D03*
%TA.AperFunction,ComponentPad*%
G36*
G01*
X-406956901Y-73876228D02*
X-406957741Y-73875940D01*
G75*
G02*
X-407656552Y-72446635I365247J1064058D01*
G01*
X-407467800Y-71896751D01*
G75*
G02*
X-406038495Y-71197940I1064058J-365247D01*
G01*
X-406038495Y-71197940D01*
G75*
G02*
X-405339684Y-72627245I-365247J-1064058D01*
G01*
X-405528436Y-73177129D01*
G75*
G02*
X-406957741Y-73875940I-1064058J365247D01*
G01*
G37*
%TD.AperFunction*%
%TD*%
%TO.P,MX47,2*%
%TO.N,Net-(D47-Pad2)*%
%TA.AperFunction,ComponentPad*%
G36*
G01*
X-440040227Y-149462232D02*
X-440041067Y-149461944D01*
G75*
G02*
X-440739878Y-148032639I365247J1064058D01*
G01*
X-440551126Y-147482755D01*
G75*
G02*
X-439121821Y-146783944I1064058J-365247D01*
G01*
X-439121821Y-146783944D01*
G75*
G02*
X-438423010Y-148213249I-365247J-1064058D01*
G01*
X-438611762Y-148763133D01*
G75*
G02*
X-440041067Y-149461944I-1064058J365247D01*
G01*
G37*
%TD.AperFunction*%
X-439487068Y-147848002D03*
%TO.P,MX47,1*%
%TO.N,Col7*%
%TA.AperFunction,ComponentPad*%
G36*
G01*
X-447220531Y-149272318D02*
X-447220535Y-149272311D01*
G75*
G02*
X-446892455Y-147715515I942438J614358D01*
G01*
X-445249215Y-146644317D01*
G75*
G02*
X-443692419Y-146972397I614358J-942438D01*
G01*
X-443692419Y-146972397D01*
G75*
G02*
X-444020499Y-148529193I-942438J-614358D01*
G01*
X-445663739Y-149600391D01*
G75*
G02*
X-447220535Y-149272311I-614358J942438D01*
G01*
G37*
%TD.AperFunction*%
X-444634858Y-147586754D03*
%TD*%
%TO.P,MX46,2*%
%TO.N,Net-(D46-Pad2)*%
%TA.AperFunction,ComponentPad*%
G36*
G01*
X-436553021Y-130684229D02*
X-436553861Y-130683941D01*
G75*
G02*
X-437252672Y-129254636I365247J1064058D01*
G01*
X-437063920Y-128704752D01*
G75*
G02*
X-435634615Y-128005941I1064058J-365247D01*
G01*
X-435634615Y-128005941D01*
G75*
G02*
X-434935804Y-129435246I-365247J-1064058D01*
G01*
X-435124556Y-129985130D01*
G75*
G02*
X-436553861Y-130683941I-1064058J365247D01*
G01*
G37*
%TD.AperFunction*%
X-435999862Y-129069999D03*
%TO.P,MX46,1*%
%TO.N,Col7*%
%TA.AperFunction,ComponentPad*%
G36*
G01*
X-443733325Y-130494315D02*
X-443733329Y-130494308D01*
G75*
G02*
X-443405249Y-128937512I942438J614358D01*
G01*
X-441762009Y-127866314D01*
G75*
G02*
X-440205213Y-128194394I614358J-942438D01*
G01*
X-440205213Y-128194394D01*
G75*
G02*
X-440533293Y-129751190I-942438J-614358D01*
G01*
X-442176533Y-130822388D01*
G75*
G02*
X-443733329Y-130494308I-614358J942438D01*
G01*
G37*
%TD.AperFunction*%
X-441147652Y-128808751D03*
%TD*%
%TO.P,MX45,2*%
%TO.N,Net-(D45-Pad2)*%
%TA.AperFunction,ComponentPad*%
G36*
G01*
X-433364784Y-111761229D02*
X-433365624Y-111760941D01*
G75*
G02*
X-434064435Y-110331636I365247J1064058D01*
G01*
X-433875683Y-109781752D01*
G75*
G02*
X-432446378Y-109082941I1064058J-365247D01*
G01*
X-432446378Y-109082941D01*
G75*
G02*
X-431747567Y-110512246I-365247J-1064058D01*
G01*
X-431936319Y-111062130D01*
G75*
G02*
X-433365624Y-111760941I-1064058J365247D01*
G01*
G37*
%TD.AperFunction*%
X-432811625Y-110146999D03*
%TO.P,MX45,1*%
%TO.N,Col7*%
%TA.AperFunction,ComponentPad*%
G36*
G01*
X-440545088Y-111571315D02*
X-440545092Y-111571308D01*
G75*
G02*
X-440217012Y-110014512I942438J614358D01*
G01*
X-438573772Y-108943314D01*
G75*
G02*
X-437016976Y-109271394I614358J-942438D01*
G01*
X-437016976Y-109271394D01*
G75*
G02*
X-437345056Y-110828190I-942438J-614358D01*
G01*
X-438988296Y-111899388D01*
G75*
G02*
X-440545092Y-111571308I-614358J942438D01*
G01*
G37*
%TD.AperFunction*%
X-437959415Y-109885751D03*
%TD*%
%TO.P,MX44,1*%
%TO.N,Col7*%
X-434651418Y-91072748D03*
%TA.AperFunction,ComponentPad*%
G36*
G01*
X-437237091Y-92758312D02*
X-437237095Y-92758305D01*
G75*
G02*
X-436909015Y-91201509I942438J614358D01*
G01*
X-435265775Y-90130311D01*
G75*
G02*
X-433708979Y-90458391I614358J-942438D01*
G01*
X-433708979Y-90458391D01*
G75*
G02*
X-434037059Y-92015187I-942438J-614358D01*
G01*
X-435680299Y-93086385D01*
G75*
G02*
X-437237095Y-92758305I-614358J942438D01*
G01*
G37*
%TD.AperFunction*%
%TO.P,MX44,2*%
%TO.N,Net-(D44-Pad2)*%
X-429503628Y-91333996D03*
%TA.AperFunction,ComponentPad*%
G36*
G01*
X-430056787Y-92948226D02*
X-430057627Y-92947938D01*
G75*
G02*
X-430756438Y-91518633I365247J1064058D01*
G01*
X-430567686Y-90968749D01*
G75*
G02*
X-429138381Y-90269938I1064058J-365247D01*
G01*
X-429138381Y-90269938D01*
G75*
G02*
X-428439570Y-91699243I-365247J-1064058D01*
G01*
X-428628322Y-92249127D01*
G75*
G02*
X-430057627Y-92947938I-1064058J365247D01*
G01*
G37*
%TD.AperFunction*%
%TD*%
%TO.P,MX43,1*%
%TO.N,Col7*%
X-429952418Y-67070248D03*
%TA.AperFunction,ComponentPad*%
G36*
G01*
X-432538091Y-68755812D02*
X-432538095Y-68755805D01*
G75*
G02*
X-432210015Y-67199009I942438J614358D01*
G01*
X-430566775Y-66127811D01*
G75*
G02*
X-429009979Y-66455891I614358J-942438D01*
G01*
X-429009979Y-66455891D01*
G75*
G02*
X-429338059Y-68012687I-942438J-614358D01*
G01*
X-430981299Y-69083885D01*
G75*
G02*
X-432538095Y-68755805I-614358J942438D01*
G01*
G37*
%TD.AperFunction*%
%TO.P,MX43,2*%
%TO.N,Net-(D43-Pad2)*%
X-424804628Y-67331496D03*
%TA.AperFunction,ComponentPad*%
G36*
G01*
X-425357787Y-68945726D02*
X-425358627Y-68945438D01*
G75*
G02*
X-426057438Y-67516133I365247J1064058D01*
G01*
X-425868686Y-66966249D01*
G75*
G02*
X-424439381Y-66267438I1064058J-365247D01*
G01*
X-424439381Y-66267438D01*
G75*
G02*
X-423740570Y-67696743I-365247J-1064058D01*
G01*
X-423929322Y-68246627D01*
G75*
G02*
X-425358627Y-68945438I-1064058J365247D01*
G01*
G37*
%TD.AperFunction*%
%TD*%
%TO.P,MX42,2*%
%TO.N,Net-(D42-Pad2)*%
%TA.AperFunction,ComponentPad*%
G36*
G01*
X-461071507Y-163548927D02*
X-461072347Y-163548639D01*
G75*
G02*
X-461771158Y-162119334I365247J1064058D01*
G01*
X-461582406Y-161569450D01*
G75*
G02*
X-460153101Y-160870639I1064058J-365247D01*
G01*
X-460153101Y-160870639D01*
G75*
G02*
X-459454290Y-162299944I-365247J-1064058D01*
G01*
X-459643042Y-162849828D01*
G75*
G02*
X-461072347Y-163548639I-1064058J365247D01*
G01*
G37*
%TD.AperFunction*%
X-460518348Y-161934697D03*
%TO.P,MX42,1*%
%TO.N,Col6*%
%TA.AperFunction,ComponentPad*%
G36*
G01*
X-468251811Y-163359013D02*
X-468251815Y-163359006D01*
G75*
G02*
X-467923735Y-161802210I942438J614358D01*
G01*
X-466280495Y-160731012D01*
G75*
G02*
X-464723699Y-161059092I614358J-942438D01*
G01*
X-464723699Y-161059092D01*
G75*
G02*
X-465051779Y-162615888I-942438J-614358D01*
G01*
X-466695019Y-163687086D01*
G75*
G02*
X-468251815Y-163359006I-614358J942438D01*
G01*
G37*
%TD.AperFunction*%
X-465666138Y-161673449D03*
%TD*%
%TO.P,MX41,1*%
%TO.N,Col6*%
X-463035744Y-142656252D03*
%TA.AperFunction,ComponentPad*%
G36*
G01*
X-465621417Y-144341816D02*
X-465621421Y-144341809D01*
G75*
G02*
X-465293341Y-142785013I942438J614358D01*
G01*
X-463650101Y-141713815D01*
G75*
G02*
X-462093305Y-142041895I614358J-942438D01*
G01*
X-462093305Y-142041895D01*
G75*
G02*
X-462421385Y-143598691I-942438J-614358D01*
G01*
X-464064625Y-144669889D01*
G75*
G02*
X-465621421Y-144341809I-614358J942438D01*
G01*
G37*
%TD.AperFunction*%
%TO.P,MX41,2*%
%TO.N,Net-(D41-Pad2)*%
X-457887954Y-142917500D03*
%TA.AperFunction,ComponentPad*%
G36*
G01*
X-458441113Y-144531730D02*
X-458441953Y-144531442D01*
G75*
G02*
X-459140764Y-143102137I365247J1064058D01*
G01*
X-458952012Y-142552253D01*
G75*
G02*
X-457522707Y-141853442I1064058J-365247D01*
G01*
X-457522707Y-141853442D01*
G75*
G02*
X-456823896Y-143282747I-365247J-1064058D01*
G01*
X-457012648Y-143832631D01*
G75*
G02*
X-458441953Y-144531442I-1064058J365247D01*
G01*
G37*
%TD.AperFunction*%
%TD*%
%TO.P,MX40,1*%
%TO.N,Col6*%
X-459548538Y-123878249D03*
%TA.AperFunction,ComponentPad*%
G36*
G01*
X-462134211Y-125563813D02*
X-462134215Y-125563806D01*
G75*
G02*
X-461806135Y-124007010I942438J614358D01*
G01*
X-460162895Y-122935812D01*
G75*
G02*
X-458606099Y-123263892I614358J-942438D01*
G01*
X-458606099Y-123263892D01*
G75*
G02*
X-458934179Y-124820688I-942438J-614358D01*
G01*
X-460577419Y-125891886D01*
G75*
G02*
X-462134215Y-125563806I-614358J942438D01*
G01*
G37*
%TD.AperFunction*%
%TO.P,MX40,2*%
%TO.N,Net-(D40-Pad2)*%
X-454400748Y-124139497D03*
%TA.AperFunction,ComponentPad*%
G36*
G01*
X-454953907Y-125753727D02*
X-454954747Y-125753439D01*
G75*
G02*
X-455653558Y-124324134I365247J1064058D01*
G01*
X-455464806Y-123774250D01*
G75*
G02*
X-454035501Y-123075439I1064058J-365247D01*
G01*
X-454035501Y-123075439D01*
G75*
G02*
X-453336690Y-124504744I-365247J-1064058D01*
G01*
X-453525442Y-125054628D01*
G75*
G02*
X-454954747Y-125753439I-1064058J365247D01*
G01*
G37*
%TD.AperFunction*%
%TD*%
%TO.P,MX39,1*%
%TO.N,Col6*%
X-456360301Y-104955249D03*
%TA.AperFunction,ComponentPad*%
G36*
G01*
X-458945974Y-106640813D02*
X-458945978Y-106640806D01*
G75*
G02*
X-458617898Y-105084010I942438J614358D01*
G01*
X-456974658Y-104012812D01*
G75*
G02*
X-455417862Y-104340892I614358J-942438D01*
G01*
X-455417862Y-104340892D01*
G75*
G02*
X-455745942Y-105897688I-942438J-614358D01*
G01*
X-457389182Y-106968886D01*
G75*
G02*
X-458945978Y-106640806I-614358J942438D01*
G01*
G37*
%TD.AperFunction*%
%TO.P,MX39,2*%
%TO.N,Net-(D39-Pad2)*%
X-451212511Y-105216497D03*
%TA.AperFunction,ComponentPad*%
G36*
G01*
X-451765670Y-106830727D02*
X-451766510Y-106830439D01*
G75*
G02*
X-452465321Y-105401134I365247J1064058D01*
G01*
X-452276569Y-104851250D01*
G75*
G02*
X-450847264Y-104152439I1064058J-365247D01*
G01*
X-450847264Y-104152439D01*
G75*
G02*
X-450148453Y-105581744I-365247J-1064058D01*
G01*
X-450337205Y-106131628D01*
G75*
G02*
X-451766510Y-106830439I-1064058J365247D01*
G01*
G37*
%TD.AperFunction*%
%TD*%
%TO.P,MX38,1*%
%TO.N,Col6*%
X-453052304Y-86142246D03*
%TA.AperFunction,ComponentPad*%
G36*
G01*
X-455637977Y-87827810D02*
X-455637981Y-87827803D01*
G75*
G02*
X-455309901Y-86271007I942438J614358D01*
G01*
X-453666661Y-85199809D01*
G75*
G02*
X-452109865Y-85527889I614358J-942438D01*
G01*
X-452109865Y-85527889D01*
G75*
G02*
X-452437945Y-87084685I-942438J-614358D01*
G01*
X-454081185Y-88155883D01*
G75*
G02*
X-455637981Y-87827803I-614358J942438D01*
G01*
G37*
%TD.AperFunction*%
%TO.P,MX38,2*%
%TO.N,Net-(D38-Pad2)*%
X-447904514Y-86403494D03*
%TA.AperFunction,ComponentPad*%
G36*
G01*
X-448457673Y-88017724D02*
X-448458513Y-88017436D01*
G75*
G02*
X-449157324Y-86588131I365247J1064058D01*
G01*
X-448968572Y-86038247D01*
G75*
G02*
X-447539267Y-85339436I1064058J-365247D01*
G01*
X-447539267Y-85339436D01*
G75*
G02*
X-446840456Y-86768741I-365247J-1064058D01*
G01*
X-447029208Y-87318625D01*
G75*
G02*
X-448458513Y-88017436I-1064058J365247D01*
G01*
G37*
%TD.AperFunction*%
%TD*%
%TO.P,MX37,1*%
%TO.N,Col6*%
X-448353304Y-62139746D03*
%TA.AperFunction,ComponentPad*%
G36*
G01*
X-450938977Y-63825310D02*
X-450938981Y-63825303D01*
G75*
G02*
X-450610901Y-62268507I942438J614358D01*
G01*
X-448967661Y-61197309D01*
G75*
G02*
X-447410865Y-61525389I614358J-942438D01*
G01*
X-447410865Y-61525389D01*
G75*
G02*
X-447738945Y-63082185I-942438J-614358D01*
G01*
X-449382185Y-64153383D01*
G75*
G02*
X-450938981Y-63825303I-614358J942438D01*
G01*
G37*
%TD.AperFunction*%
%TO.P,MX37,2*%
%TO.N,Net-(D37-Pad2)*%
X-443205514Y-62400994D03*
%TA.AperFunction,ComponentPad*%
G36*
G01*
X-443758673Y-64015224D02*
X-443759513Y-64014936D01*
G75*
G02*
X-444458324Y-62585631I365247J1064058D01*
G01*
X-444269572Y-62035747D01*
G75*
G02*
X-442840267Y-61336936I1064058J-365247D01*
G01*
X-442840267Y-61336936D01*
G75*
G02*
X-442141456Y-62766241I-365247J-1064058D01*
G01*
X-442330208Y-63316125D01*
G75*
G02*
X-443759513Y-64014936I-1064058J365247D01*
G01*
G37*
%TD.AperFunction*%
%TD*%
%TO.P,MX36,1*%
%TO.N,Col5*%
X-494656750Y-160338000D03*
%TA.AperFunction,ComponentPad*%
G36*
G01*
X-496718062Y-162635350D02*
X-496718067Y-162635345D01*
G75*
G02*
X-496804095Y-161046683I751317J837345D01*
G01*
X-495494093Y-159586683D01*
G75*
G02*
X-493905431Y-159500655I837345J-751317D01*
G01*
X-493905431Y-159500655D01*
G75*
G02*
X-493819403Y-161089317I-751317J-837345D01*
G01*
X-495129405Y-162549317D01*
G75*
G02*
X-496718067Y-162635345I-837345J751317D01*
G01*
G37*
%TD.AperFunction*%
%TO.P,MX36,2*%
%TO.N,Net-(D36-Pad2)*%
X-489616750Y-159258000D03*
%TA.AperFunction,ComponentPad*%
G36*
G01*
X-489733267Y-160960395D02*
X-489734153Y-160960334D01*
G75*
G02*
X-490779084Y-159760597I77403J1122334D01*
G01*
X-490739084Y-159180597D01*
G75*
G02*
X-489539347Y-158135666I1122334J-77403D01*
G01*
X-489539347Y-158135666D01*
G75*
G02*
X-488494416Y-159335403I-77403J-1122334D01*
G01*
X-488534416Y-159915403D01*
G75*
G02*
X-489734153Y-160960334I-1122334J77403D01*
G01*
G37*
%TD.AperFunction*%
%TD*%
%TO.P,MX35,1*%
%TO.N,Col5*%
X-497038000Y-141288000D03*
%TA.AperFunction,ComponentPad*%
G36*
G01*
X-499099312Y-143585350D02*
X-499099317Y-143585345D01*
G75*
G02*
X-499185345Y-141996683I751317J837345D01*
G01*
X-497875343Y-140536683D01*
G75*
G02*
X-496286681Y-140450655I837345J-751317D01*
G01*
X-496286681Y-140450655D01*
G75*
G02*
X-496200653Y-142039317I-751317J-837345D01*
G01*
X-497510655Y-143499317D01*
G75*
G02*
X-499099317Y-143585345I-837345J751317D01*
G01*
G37*
%TD.AperFunction*%
%TO.P,MX35,2*%
%TO.N,Net-(D35-Pad2)*%
X-491998000Y-140208000D03*
%TA.AperFunction,ComponentPad*%
G36*
G01*
X-492114517Y-141910395D02*
X-492115403Y-141910334D01*
G75*
G02*
X-493160334Y-140710597I77403J1122334D01*
G01*
X-493120334Y-140130597D01*
G75*
G02*
X-491920597Y-139085666I1122334J-77403D01*
G01*
X-491920597Y-139085666D01*
G75*
G02*
X-490875666Y-140285403I-77403J-1122334D01*
G01*
X-490915666Y-140865403D01*
G75*
G02*
X-492115403Y-141910334I-1122334J77403D01*
G01*
G37*
%TD.AperFunction*%
%TD*%
%TO.P,MX34,1*%
%TO.N,Col5*%
X-492275500Y-122238000D03*
%TA.AperFunction,ComponentPad*%
G36*
G01*
X-494336812Y-124535350D02*
X-494336817Y-124535345D01*
G75*
G02*
X-494422845Y-122946683I751317J837345D01*
G01*
X-493112843Y-121486683D01*
G75*
G02*
X-491524181Y-121400655I837345J-751317D01*
G01*
X-491524181Y-121400655D01*
G75*
G02*
X-491438153Y-122989317I-751317J-837345D01*
G01*
X-492748155Y-124449317D01*
G75*
G02*
X-494336817Y-124535345I-837345J751317D01*
G01*
G37*
%TD.AperFunction*%
%TO.P,MX34,2*%
%TO.N,Net-(D34-Pad2)*%
X-487235500Y-121158000D03*
%TA.AperFunction,ComponentPad*%
G36*
G01*
X-487352017Y-122860395D02*
X-487352903Y-122860334D01*
G75*
G02*
X-488397834Y-121660597I77403J1122334D01*
G01*
X-488357834Y-121080597D01*
G75*
G02*
X-487158097Y-120035666I1122334J-77403D01*
G01*
X-487158097Y-120035666D01*
G75*
G02*
X-486113166Y-121235403I-77403J-1122334D01*
G01*
X-486153166Y-121815403D01*
G75*
G02*
X-487352903Y-122860334I-1122334J77403D01*
G01*
G37*
%TD.AperFunction*%
%TD*%
%TO.P,MX33,1*%
%TO.N,Col5*%
X-487513000Y-103188000D03*
%TA.AperFunction,ComponentPad*%
G36*
G01*
X-489574312Y-105485350D02*
X-489574317Y-105485345D01*
G75*
G02*
X-489660345Y-103896683I751317J837345D01*
G01*
X-488350343Y-102436683D01*
G75*
G02*
X-486761681Y-102350655I837345J-751317D01*
G01*
X-486761681Y-102350655D01*
G75*
G02*
X-486675653Y-103939317I-751317J-837345D01*
G01*
X-487985655Y-105399317D01*
G75*
G02*
X-489574317Y-105485345I-837345J751317D01*
G01*
G37*
%TD.AperFunction*%
%TO.P,MX33,2*%
%TO.N,Net-(D33-Pad2)*%
X-482473000Y-102108000D03*
%TA.AperFunction,ComponentPad*%
G36*
G01*
X-482589517Y-103810395D02*
X-482590403Y-103810334D01*
G75*
G02*
X-483635334Y-102610597I77403J1122334D01*
G01*
X-483595334Y-102030597D01*
G75*
G02*
X-482395597Y-100985666I1122334J-77403D01*
G01*
X-482395597Y-100985666D01*
G75*
G02*
X-481350666Y-102185403I-77403J-1122334D01*
G01*
X-481390666Y-102765403D01*
G75*
G02*
X-482590403Y-103810334I-1122334J77403D01*
G01*
G37*
%TD.AperFunction*%
%TD*%
%TO.P,MX32,1*%
%TO.N,Col5*%
X-482750500Y-84138000D03*
%TA.AperFunction,ComponentPad*%
G36*
G01*
X-484811812Y-86435350D02*
X-484811817Y-86435345D01*
G75*
G02*
X-484897845Y-84846683I751317J837345D01*
G01*
X-483587843Y-83386683D01*
G75*
G02*
X-481999181Y-83300655I837345J-751317D01*
G01*
X-481999181Y-83300655D01*
G75*
G02*
X-481913153Y-84889317I-751317J-837345D01*
G01*
X-483223155Y-86349317D01*
G75*
G02*
X-484811817Y-86435345I-837345J751317D01*
G01*
G37*
%TD.AperFunction*%
%TO.P,MX32,2*%
%TO.N,Net-(D32-Pad2)*%
X-477710500Y-83058000D03*
%TA.AperFunction,ComponentPad*%
G36*
G01*
X-477827017Y-84760395D02*
X-477827903Y-84760334D01*
G75*
G02*
X-478872834Y-83560597I77403J1122334D01*
G01*
X-478832834Y-82980597D01*
G75*
G02*
X-477633097Y-81935666I1122334J-77403D01*
G01*
X-477633097Y-81935666D01*
G75*
G02*
X-476588166Y-83135403I-77403J-1122334D01*
G01*
X-476628166Y-83715403D01*
G75*
G02*
X-477827903Y-84760334I-1122334J77403D01*
G01*
G37*
%TD.AperFunction*%
%TD*%
%TO.P,MX31,1*%
%TO.N,Col5*%
X-477924500Y-60325500D03*
%TA.AperFunction,ComponentPad*%
G36*
G01*
X-479985812Y-62622850D02*
X-479985817Y-62622845D01*
G75*
G02*
X-480071845Y-61034183I751317J837345D01*
G01*
X-478761843Y-59574183D01*
G75*
G02*
X-477173181Y-59488155I837345J-751317D01*
G01*
X-477173181Y-59488155D01*
G75*
G02*
X-477087153Y-61076817I-751317J-837345D01*
G01*
X-478397155Y-62536817D01*
G75*
G02*
X-479985817Y-62622845I-837345J751317D01*
G01*
G37*
%TD.AperFunction*%
%TO.P,MX31,2*%
%TO.N,Net-(D31-Pad2)*%
X-472884500Y-59245500D03*
%TA.AperFunction,ComponentPad*%
G36*
G01*
X-473001017Y-60947895D02*
X-473001903Y-60947834D01*
G75*
G02*
X-474046834Y-59748097I77403J1122334D01*
G01*
X-474006834Y-59168097D01*
G75*
G02*
X-472807097Y-58123166I1122334J-77403D01*
G01*
X-472807097Y-58123166D01*
G75*
G02*
X-471762166Y-59322903I-77403J-1122334D01*
G01*
X-471802166Y-59902903D01*
G75*
G02*
X-473001903Y-60947834I-1122334J77403D01*
G01*
G37*
%TD.AperFunction*%
%TD*%
%TO.P,MX30,1*%
%TO.N,Col4*%
X-518469250Y-160338000D03*
%TA.AperFunction,ComponentPad*%
G36*
G01*
X-520530562Y-162635350D02*
X-520530567Y-162635345D01*
G75*
G02*
X-520616595Y-161046683I751317J837345D01*
G01*
X-519306593Y-159586683D01*
G75*
G02*
X-517717931Y-159500655I837345J-751317D01*
G01*
X-517717931Y-159500655D01*
G75*
G02*
X-517631903Y-161089317I-751317J-837345D01*
G01*
X-518941905Y-162549317D01*
G75*
G02*
X-520530567Y-162635345I-837345J751317D01*
G01*
G37*
%TD.AperFunction*%
%TO.P,MX30,2*%
%TO.N,Net-(D30-Pad2)*%
X-513429250Y-159258000D03*
%TA.AperFunction,ComponentPad*%
G36*
G01*
X-513545767Y-160960395D02*
X-513546653Y-160960334D01*
G75*
G02*
X-514591584Y-159760597I77403J1122334D01*
G01*
X-514551584Y-159180597D01*
G75*
G02*
X-513351847Y-158135666I1122334J-77403D01*
G01*
X-513351847Y-158135666D01*
G75*
G02*
X-512306916Y-159335403I-77403J-1122334D01*
G01*
X-512346916Y-159915403D01*
G75*
G02*
X-513546653Y-160960334I-1122334J77403D01*
G01*
G37*
%TD.AperFunction*%
%TD*%
%TO.P,MX27,1*%
%TO.N,Col4*%
X-511325500Y-103188000D03*
%TA.AperFunction,ComponentPad*%
G36*
G01*
X-513386812Y-105485350D02*
X-513386817Y-105485345D01*
G75*
G02*
X-513472845Y-103896683I751317J837345D01*
G01*
X-512162843Y-102436683D01*
G75*
G02*
X-510574181Y-102350655I837345J-751317D01*
G01*
X-510574181Y-102350655D01*
G75*
G02*
X-510488153Y-103939317I-751317J-837345D01*
G01*
X-511798155Y-105399317D01*
G75*
G02*
X-513386817Y-105485345I-837345J751317D01*
G01*
G37*
%TD.AperFunction*%
%TO.P,MX27,2*%
%TO.N,Net-(D27-Pad2)*%
X-506285500Y-102108000D03*
%TA.AperFunction,ComponentPad*%
G36*
G01*
X-506402017Y-103810395D02*
X-506402903Y-103810334D01*
G75*
G02*
X-507447834Y-102610597I77403J1122334D01*
G01*
X-507407834Y-102030597D01*
G75*
G02*
X-506208097Y-100985666I1122334J-77403D01*
G01*
X-506208097Y-100985666D01*
G75*
G02*
X-505163166Y-102185403I-77403J-1122334D01*
G01*
X-505203166Y-102765403D01*
G75*
G02*
X-506402903Y-103810334I-1122334J77403D01*
G01*
G37*
%TD.AperFunction*%
%TD*%
%TO.P,MX26,1*%
%TO.N,Col4*%
X-501800500Y-84138000D03*
%TA.AperFunction,ComponentPad*%
G36*
G01*
X-503861812Y-86435350D02*
X-503861817Y-86435345D01*
G75*
G02*
X-503947845Y-84846683I751317J837345D01*
G01*
X-502637843Y-83386683D01*
G75*
G02*
X-501049181Y-83300655I837345J-751317D01*
G01*
X-501049181Y-83300655D01*
G75*
G02*
X-500963153Y-84889317I-751317J-837345D01*
G01*
X-502273155Y-86349317D01*
G75*
G02*
X-503861817Y-86435345I-837345J751317D01*
G01*
G37*
%TD.AperFunction*%
%TO.P,MX26,2*%
%TO.N,Net-(D26-Pad2)*%
X-496760500Y-83058000D03*
%TA.AperFunction,ComponentPad*%
G36*
G01*
X-496877017Y-84760395D02*
X-496877903Y-84760334D01*
G75*
G02*
X-497922834Y-83560597I77403J1122334D01*
G01*
X-497882834Y-82980597D01*
G75*
G02*
X-496683097Y-81935666I1122334J-77403D01*
G01*
X-496683097Y-81935666D01*
G75*
G02*
X-495638166Y-83135403I-77403J-1122334D01*
G01*
X-495678166Y-83715403D01*
G75*
G02*
X-496877903Y-84760334I-1122334J77403D01*
G01*
G37*
%TD.AperFunction*%
%TD*%
%TO.P,MX25,1*%
%TO.N,Col4*%
X-496974500Y-60325500D03*
%TA.AperFunction,ComponentPad*%
G36*
G01*
X-499035812Y-62622850D02*
X-499035817Y-62622845D01*
G75*
G02*
X-499121845Y-61034183I751317J837345D01*
G01*
X-497811843Y-59574183D01*
G75*
G02*
X-496223181Y-59488155I837345J-751317D01*
G01*
X-496223181Y-59488155D01*
G75*
G02*
X-496137153Y-61076817I-751317J-837345D01*
G01*
X-497447155Y-62536817D01*
G75*
G02*
X-499035817Y-62622845I-837345J751317D01*
G01*
G37*
%TD.AperFunction*%
%TO.P,MX25,2*%
%TO.N,Net-(D25-Pad2)*%
X-491934500Y-59245500D03*
%TA.AperFunction,ComponentPad*%
G36*
G01*
X-492051017Y-60947895D02*
X-492051903Y-60947834D01*
G75*
G02*
X-493096834Y-59748097I77403J1122334D01*
G01*
X-493056834Y-59168097D01*
G75*
G02*
X-491857097Y-58123166I1122334J-77403D01*
G01*
X-491857097Y-58123166D01*
G75*
G02*
X-490812166Y-59322903I-77403J-1122334D01*
G01*
X-490852166Y-59902903D01*
G75*
G02*
X-492051903Y-60947834I-1122334J77403D01*
G01*
G37*
%TD.AperFunction*%
%TD*%
%TO.P,MX24,1*%
%TO.N,Col3*%
X-539900500Y-160338000D03*
%TA.AperFunction,ComponentPad*%
G36*
G01*
X-541961812Y-162635350D02*
X-541961817Y-162635345D01*
G75*
G02*
X-542047845Y-161046683I751317J837345D01*
G01*
X-540737843Y-159586683D01*
G75*
G02*
X-539149181Y-159500655I837345J-751317D01*
G01*
X-539149181Y-159500655D01*
G75*
G02*
X-539063153Y-161089317I-751317J-837345D01*
G01*
X-540373155Y-162549317D01*
G75*
G02*
X-541961817Y-162635345I-837345J751317D01*
G01*
G37*
%TD.AperFunction*%
%TO.P,MX24,2*%
%TO.N,Net-(D24-Pad2)*%
X-534860500Y-159258000D03*
%TA.AperFunction,ComponentPad*%
G36*
G01*
X-534977017Y-160960395D02*
X-534977903Y-160960334D01*
G75*
G02*
X-536022834Y-159760597I77403J1122334D01*
G01*
X-535982834Y-159180597D01*
G75*
G02*
X-534783097Y-158135666I1122334J-77403D01*
G01*
X-534783097Y-158135666D01*
G75*
G02*
X-533738166Y-159335403I-77403J-1122334D01*
G01*
X-533778166Y-159915403D01*
G75*
G02*
X-534977903Y-160960334I-1122334J77403D01*
G01*
G37*
%TD.AperFunction*%
%TD*%
%TO.P,MX23,1*%
%TO.N,Col3*%
X-558950500Y-160338000D03*
%TA.AperFunction,ComponentPad*%
G36*
G01*
X-561011812Y-162635350D02*
X-561011817Y-162635345D01*
G75*
G02*
X-561097845Y-161046683I751317J837345D01*
G01*
X-559787843Y-159586683D01*
G75*
G02*
X-558199181Y-159500655I837345J-751317D01*
G01*
X-558199181Y-159500655D01*
G75*
G02*
X-558113153Y-161089317I-751317J-837345D01*
G01*
X-559423155Y-162549317D01*
G75*
G02*
X-561011817Y-162635345I-837345J751317D01*
G01*
G37*
%TD.AperFunction*%
%TO.P,MX23,2*%
%TO.N,Net-(D23-Pad2)*%
X-553910500Y-159258000D03*
%TA.AperFunction,ComponentPad*%
G36*
G01*
X-554027017Y-160960395D02*
X-554027903Y-160960334D01*
G75*
G02*
X-555072834Y-159760597I77403J1122334D01*
G01*
X-555032834Y-159180597D01*
G75*
G02*
X-553833097Y-158135666I1122334J-77403D01*
G01*
X-553833097Y-158135666D01*
G75*
G02*
X-552788166Y-159335403I-77403J-1122334D01*
G01*
X-552828166Y-159915403D01*
G75*
G02*
X-554027903Y-160960334I-1122334J77403D01*
G01*
G37*
%TD.AperFunction*%
%TD*%
%TO.P,MX22,1*%
%TO.N,Col3*%
X-578000500Y-160338000D03*
%TA.AperFunction,ComponentPad*%
G36*
G01*
X-580061812Y-162635350D02*
X-580061817Y-162635345D01*
G75*
G02*
X-580147845Y-161046683I751317J837345D01*
G01*
X-578837843Y-159586683D01*
G75*
G02*
X-577249181Y-159500655I837345J-751317D01*
G01*
X-577249181Y-159500655D01*
G75*
G02*
X-577163153Y-161089317I-751317J-837345D01*
G01*
X-578473155Y-162549317D01*
G75*
G02*
X-580061817Y-162635345I-837345J751317D01*
G01*
G37*
%TD.AperFunction*%
%TO.P,MX22,2*%
%TO.N,Net-(D22-Pad2)*%
X-572960500Y-159258000D03*
%TA.AperFunction,ComponentPad*%
G36*
G01*
X-573077017Y-160960395D02*
X-573077903Y-160960334D01*
G75*
G02*
X-574122834Y-159760597I77403J1122334D01*
G01*
X-574082834Y-159180597D01*
G75*
G02*
X-572883097Y-158135666I1122334J-77403D01*
G01*
X-572883097Y-158135666D01*
G75*
G02*
X-571838166Y-159335403I-77403J-1122334D01*
G01*
X-571878166Y-159915403D01*
G75*
G02*
X-573077903Y-160960334I-1122334J77403D01*
G01*
G37*
%TD.AperFunction*%
%TD*%
%TO.P,MX21,1*%
%TO.N,Col3*%
X-558950500Y-141288000D03*
%TA.AperFunction,ComponentPad*%
G36*
G01*
X-561011812Y-143585350D02*
X-561011817Y-143585345D01*
G75*
G02*
X-561097845Y-141996683I751317J837345D01*
G01*
X-559787843Y-140536683D01*
G75*
G02*
X-558199181Y-140450655I837345J-751317D01*
G01*
X-558199181Y-140450655D01*
G75*
G02*
X-558113153Y-142039317I-751317J-837345D01*
G01*
X-559423155Y-143499317D01*
G75*
G02*
X-561011817Y-143585345I-837345J751317D01*
G01*
G37*
%TD.AperFunction*%
%TO.P,MX21,2*%
%TO.N,Net-(D21-Pad2)*%
X-553910500Y-140208000D03*
%TA.AperFunction,ComponentPad*%
G36*
G01*
X-554027017Y-141910395D02*
X-554027903Y-141910334D01*
G75*
G02*
X-555072834Y-140710597I77403J1122334D01*
G01*
X-555032834Y-140130597D01*
G75*
G02*
X-553833097Y-139085666I1122334J-77403D01*
G01*
X-553833097Y-139085666D01*
G75*
G02*
X-552788166Y-140285403I-77403J-1122334D01*
G01*
X-552828166Y-140865403D01*
G75*
G02*
X-554027903Y-141910334I-1122334J77403D01*
G01*
G37*
%TD.AperFunction*%
%TD*%
%TO.P,MX20,1*%
%TO.N,Col3*%
X-578000500Y-84138000D03*
%TA.AperFunction,ComponentPad*%
G36*
G01*
X-580061812Y-86435350D02*
X-580061817Y-86435345D01*
G75*
G02*
X-580147845Y-84846683I751317J837345D01*
G01*
X-578837843Y-83386683D01*
G75*
G02*
X-577249181Y-83300655I837345J-751317D01*
G01*
X-577249181Y-83300655D01*
G75*
G02*
X-577163153Y-84889317I-751317J-837345D01*
G01*
X-578473155Y-86349317D01*
G75*
G02*
X-580061817Y-86435345I-837345J751317D01*
G01*
G37*
%TD.AperFunction*%
%TO.P,MX20,2*%
%TO.N,Net-(D20-Pad2)*%
X-572960500Y-83058000D03*
%TA.AperFunction,ComponentPad*%
G36*
G01*
X-573077017Y-84760395D02*
X-573077903Y-84760334D01*
G75*
G02*
X-574122834Y-83560597I77403J1122334D01*
G01*
X-574082834Y-82980597D01*
G75*
G02*
X-572883097Y-81935666I1122334J-77403D01*
G01*
X-572883097Y-81935666D01*
G75*
G02*
X-571838166Y-83135403I-77403J-1122334D01*
G01*
X-571878166Y-83715403D01*
G75*
G02*
X-573077903Y-84760334I-1122334J77403D01*
G01*
G37*
%TD.AperFunction*%
%TD*%
%TO.P,MX19,1*%
%TO.N,Col3*%
X-525549500Y-60325500D03*
%TA.AperFunction,ComponentPad*%
G36*
G01*
X-527610812Y-62622850D02*
X-527610817Y-62622845D01*
G75*
G02*
X-527696845Y-61034183I751317J837345D01*
G01*
X-526386843Y-59574183D01*
G75*
G02*
X-524798181Y-59488155I837345J-751317D01*
G01*
X-524798181Y-59488155D01*
G75*
G02*
X-524712153Y-61076817I-751317J-837345D01*
G01*
X-526022155Y-62536817D01*
G75*
G02*
X-527610817Y-62622845I-837345J751317D01*
G01*
G37*
%TD.AperFunction*%
%TO.P,MX19,2*%
%TO.N,Net-(D19-Pad2)*%
X-520509500Y-59245500D03*
%TA.AperFunction,ComponentPad*%
G36*
G01*
X-520626017Y-60947895D02*
X-520626903Y-60947834D01*
G75*
G02*
X-521671834Y-59748097I77403J1122334D01*
G01*
X-521631834Y-59168097D01*
G75*
G02*
X-520432097Y-58123166I1122334J-77403D01*
G01*
X-520432097Y-58123166D01*
G75*
G02*
X-519387166Y-59322903I-77403J-1122334D01*
G01*
X-519427166Y-59902903D01*
G75*
G02*
X-520626903Y-60947834I-1122334J77403D01*
G01*
G37*
%TD.AperFunction*%
%TD*%
%TO.P,MX18,1*%
%TO.N,Col2*%
X-603313000Y-157313000D03*
%TA.AperFunction,ComponentPad*%
G36*
G01*
X-601015650Y-159374312D02*
X-601015655Y-159374317D01*
G75*
G02*
X-602604317Y-159460345I-837345J751317D01*
G01*
X-604064317Y-158150343D01*
G75*
G02*
X-604150345Y-156561681I751317J837345D01*
G01*
X-604150345Y-156561681D01*
G75*
G02*
X-602561683Y-156475653I837345J-751317D01*
G01*
X-601101683Y-157785655D01*
G75*
G02*
X-601015655Y-159374317I-751317J-837345D01*
G01*
G37*
%TD.AperFunction*%
%TO.P,MX18,2*%
%TO.N,Net-(D18-Pad2)*%
X-604393000Y-152273000D03*
%TA.AperFunction,ComponentPad*%
G36*
G01*
X-602690605Y-152389517D02*
X-602690666Y-152390403D01*
G75*
G02*
X-603890403Y-153435334I-1122334J77403D01*
G01*
X-604470403Y-153395334D01*
G75*
G02*
X-605515334Y-152195597I77403J1122334D01*
G01*
X-605515334Y-152195597D01*
G75*
G02*
X-604315597Y-151150666I1122334J-77403D01*
G01*
X-603735597Y-151190666D01*
G75*
G02*
X-602690666Y-152390403I-77403J-1122334D01*
G01*
G37*
%TD.AperFunction*%
%TD*%
%TO.P,MX17,1*%
%TO.N,Col2*%
X-620863000Y-160338000D03*
%TA.AperFunction,ComponentPad*%
G36*
G01*
X-622924312Y-162635350D02*
X-622924317Y-162635345D01*
G75*
G02*
X-623010345Y-161046683I751317J837345D01*
G01*
X-621700343Y-159586683D01*
G75*
G02*
X-620111681Y-159500655I837345J-751317D01*
G01*
X-620111681Y-159500655D01*
G75*
G02*
X-620025653Y-161089317I-751317J-837345D01*
G01*
X-621335655Y-162549317D01*
G75*
G02*
X-622924317Y-162635345I-837345J751317D01*
G01*
G37*
%TD.AperFunction*%
%TO.P,MX17,2*%
%TO.N,Net-(D17-Pad2)*%
X-615823000Y-159258000D03*
%TA.AperFunction,ComponentPad*%
G36*
G01*
X-615939517Y-160960395D02*
X-615940403Y-160960334D01*
G75*
G02*
X-616985334Y-159760597I77403J1122334D01*
G01*
X-616945334Y-159180597D01*
G75*
G02*
X-615745597Y-158135666I1122334J-77403D01*
G01*
X-615745597Y-158135666D01*
G75*
G02*
X-614700666Y-159335403I-77403J-1122334D01*
G01*
X-614740666Y-159915403D01*
G75*
G02*
X-615940403Y-160960334I-1122334J77403D01*
G01*
G37*
%TD.AperFunction*%
%TD*%
%TO.P,MX16,1*%
%TO.N,Col2*%
X-620863000Y-141288000D03*
%TA.AperFunction,ComponentPad*%
G36*
G01*
X-622924312Y-143585350D02*
X-622924317Y-143585345D01*
G75*
G02*
X-623010345Y-141996683I751317J837345D01*
G01*
X-621700343Y-140536683D01*
G75*
G02*
X-620111681Y-140450655I837345J-751317D01*
G01*
X-620111681Y-140450655D01*
G75*
G02*
X-620025653Y-142039317I-751317J-837345D01*
G01*
X-621335655Y-143499317D01*
G75*
G02*
X-622924317Y-143585345I-837345J751317D01*
G01*
G37*
%TD.AperFunction*%
%TO.P,MX16,2*%
%TO.N,Net-(D16-Pad2)*%
X-615823000Y-140208000D03*
%TA.AperFunction,ComponentPad*%
G36*
G01*
X-615939517Y-141910395D02*
X-615940403Y-141910334D01*
G75*
G02*
X-616985334Y-140710597I77403J1122334D01*
G01*
X-616945334Y-140130597D01*
G75*
G02*
X-615745597Y-139085666I1122334J-77403D01*
G01*
X-615745597Y-139085666D01*
G75*
G02*
X-614700666Y-140285403I-77403J-1122334D01*
G01*
X-614740666Y-140865403D01*
G75*
G02*
X-615940403Y-141910334I-1122334J77403D01*
G01*
G37*
%TD.AperFunction*%
%TD*%
%TO.P,MX15,1*%
%TO.N,Col2*%
X-620863000Y-122238000D03*
%TA.AperFunction,ComponentPad*%
G36*
G01*
X-622924312Y-124535350D02*
X-622924317Y-124535345D01*
G75*
G02*
X-623010345Y-122946683I751317J837345D01*
G01*
X-621700343Y-121486683D01*
G75*
G02*
X-620111681Y-121400655I837345J-751317D01*
G01*
X-620111681Y-121400655D01*
G75*
G02*
X-620025653Y-122989317I-751317J-837345D01*
G01*
X-621335655Y-124449317D01*
G75*
G02*
X-622924317Y-124535345I-837345J751317D01*
G01*
G37*
%TD.AperFunction*%
%TO.P,MX15,2*%
%TO.N,Net-(D15-Pad2)*%
X-615823000Y-121158000D03*
%TA.AperFunction,ComponentPad*%
G36*
G01*
X-615939517Y-122860395D02*
X-615940403Y-122860334D01*
G75*
G02*
X-616985334Y-121660597I77403J1122334D01*
G01*
X-616945334Y-121080597D01*
G75*
G02*
X-615745597Y-120035666I1122334J-77403D01*
G01*
X-615745597Y-120035666D01*
G75*
G02*
X-614700666Y-121235403I-77403J-1122334D01*
G01*
X-614740666Y-121815403D01*
G75*
G02*
X-615940403Y-122860334I-1122334J77403D01*
G01*
G37*
%TD.AperFunction*%
%TD*%
%TO.P,MX14,1*%
%TO.N,Col2*%
X-603313000Y-119213000D03*
%TA.AperFunction,ComponentPad*%
G36*
G01*
X-601015650Y-121274312D02*
X-601015655Y-121274317D01*
G75*
G02*
X-602604317Y-121360345I-837345J751317D01*
G01*
X-604064317Y-120050343D01*
G75*
G02*
X-604150345Y-118461681I751317J837345D01*
G01*
X-604150345Y-118461681D01*
G75*
G02*
X-602561683Y-118375653I837345J-751317D01*
G01*
X-601101683Y-119685655D01*
G75*
G02*
X-601015655Y-121274317I-751317J-837345D01*
G01*
G37*
%TD.AperFunction*%
%TO.P,MX14,2*%
%TO.N,Net-(D14-Pad2)*%
X-604393000Y-114173000D03*
%TA.AperFunction,ComponentPad*%
G36*
G01*
X-602690605Y-114289517D02*
X-602690666Y-114290403D01*
G75*
G02*
X-603890403Y-115335334I-1122334J77403D01*
G01*
X-604470403Y-115295334D01*
G75*
G02*
X-605515334Y-114095597I77403J1122334D01*
G01*
X-605515334Y-114095597D01*
G75*
G02*
X-604315597Y-113050666I1122334J-77403D01*
G01*
X-603735597Y-113090666D01*
G75*
G02*
X-602690666Y-114290403I-77403J-1122334D01*
G01*
G37*
%TD.AperFunction*%
%TD*%
%TO.P,MX13,1*%
%TO.N,Col2*%
X-601813000Y-84138000D03*
%TA.AperFunction,ComponentPad*%
G36*
G01*
X-603874312Y-86435350D02*
X-603874317Y-86435345D01*
G75*
G02*
X-603960345Y-84846683I751317J837345D01*
G01*
X-602650343Y-83386683D01*
G75*
G02*
X-601061681Y-83300655I837345J-751317D01*
G01*
X-601061681Y-83300655D01*
G75*
G02*
X-600975653Y-84889317I-751317J-837345D01*
G01*
X-602285655Y-86349317D01*
G75*
G02*
X-603874317Y-86435345I-837345J751317D01*
G01*
G37*
%TD.AperFunction*%
%TO.P,MX13,2*%
%TO.N,Net-(D13-Pad2)*%
X-596773000Y-83058000D03*
%TA.AperFunction,ComponentPad*%
G36*
G01*
X-596889517Y-84760395D02*
X-596890403Y-84760334D01*
G75*
G02*
X-597935334Y-83560597I77403J1122334D01*
G01*
X-597895334Y-82980597D01*
G75*
G02*
X-596695597Y-81935666I1122334J-77403D01*
G01*
X-596695597Y-81935666D01*
G75*
G02*
X-595650666Y-83135403I-77403J-1122334D01*
G01*
X-595690666Y-83715403D01*
G75*
G02*
X-596890403Y-84760334I-1122334J77403D01*
G01*
G37*
%TD.AperFunction*%
%TD*%
%TO.P,MX12,1*%
%TO.N,Col1*%
X-639913000Y-160338000D03*
%TA.AperFunction,ComponentPad*%
G36*
G01*
X-641974312Y-162635350D02*
X-641974317Y-162635345D01*
G75*
G02*
X-642060345Y-161046683I751317J837345D01*
G01*
X-640750343Y-159586683D01*
G75*
G02*
X-639161681Y-159500655I837345J-751317D01*
G01*
X-639161681Y-159500655D01*
G75*
G02*
X-639075653Y-161089317I-751317J-837345D01*
G01*
X-640385655Y-162549317D01*
G75*
G02*
X-641974317Y-162635345I-837345J751317D01*
G01*
G37*
%TD.AperFunction*%
%TO.P,MX12,2*%
%TO.N,Net-(D12-Pad2)*%
X-634873000Y-159258000D03*
%TA.AperFunction,ComponentPad*%
G36*
G01*
X-634989517Y-160960395D02*
X-634990403Y-160960334D01*
G75*
G02*
X-636035334Y-159760597I77403J1122334D01*
G01*
X-635995334Y-159180597D01*
G75*
G02*
X-634795597Y-158135666I1122334J-77403D01*
G01*
X-634795597Y-158135666D01*
G75*
G02*
X-633750666Y-159335403I-77403J-1122334D01*
G01*
X-633790666Y-159915403D01*
G75*
G02*
X-634990403Y-160960334I-1122334J77403D01*
G01*
G37*
%TD.AperFunction*%
%TD*%
%TO.P,MX11,1*%
%TO.N,Col1*%
X-639913000Y-141288000D03*
%TA.AperFunction,ComponentPad*%
G36*
G01*
X-641974312Y-143585350D02*
X-641974317Y-143585345D01*
G75*
G02*
X-642060345Y-141996683I751317J837345D01*
G01*
X-640750343Y-140536683D01*
G75*
G02*
X-639161681Y-140450655I837345J-751317D01*
G01*
X-639161681Y-140450655D01*
G75*
G02*
X-639075653Y-142039317I-751317J-837345D01*
G01*
X-640385655Y-143499317D01*
G75*
G02*
X-641974317Y-143585345I-837345J751317D01*
G01*
G37*
%TD.AperFunction*%
%TO.P,MX11,2*%
%TO.N,Net-(D11-Pad2)*%
X-634873000Y-140208000D03*
%TA.AperFunction,ComponentPad*%
G36*
G01*
X-634989517Y-141910395D02*
X-634990403Y-141910334D01*
G75*
G02*
X-636035334Y-140710597I77403J1122334D01*
G01*
X-635995334Y-140130597D01*
G75*
G02*
X-634795597Y-139085666I1122334J-77403D01*
G01*
X-634795597Y-139085666D01*
G75*
G02*
X-633750666Y-140285403I-77403J-1122334D01*
G01*
X-633790666Y-140865403D01*
G75*
G02*
X-634990403Y-141910334I-1122334J77403D01*
G01*
G37*
%TD.AperFunction*%
%TD*%
%TO.P,MX10,1*%
%TO.N,Col1*%
X-639913000Y-122238000D03*
%TA.AperFunction,ComponentPad*%
G36*
G01*
X-641974312Y-124535350D02*
X-641974317Y-124535345D01*
G75*
G02*
X-642060345Y-122946683I751317J837345D01*
G01*
X-640750343Y-121486683D01*
G75*
G02*
X-639161681Y-121400655I837345J-751317D01*
G01*
X-639161681Y-121400655D01*
G75*
G02*
X-639075653Y-122989317I-751317J-837345D01*
G01*
X-640385655Y-124449317D01*
G75*
G02*
X-641974317Y-124535345I-837345J751317D01*
G01*
G37*
%TD.AperFunction*%
%TO.P,MX10,2*%
%TO.N,Net-(D10-Pad2)*%
X-634873000Y-121158000D03*
%TA.AperFunction,ComponentPad*%
G36*
G01*
X-634989517Y-122860395D02*
X-634990403Y-122860334D01*
G75*
G02*
X-636035334Y-121660597I77403J1122334D01*
G01*
X-635995334Y-121080597D01*
G75*
G02*
X-634795597Y-120035666I1122334J-77403D01*
G01*
X-634795597Y-120035666D01*
G75*
G02*
X-633750666Y-121235403I-77403J-1122334D01*
G01*
X-633790666Y-121815403D01*
G75*
G02*
X-634990403Y-122860334I-1122334J77403D01*
G01*
G37*
%TD.AperFunction*%
%TD*%
%TO.P,MX9,1*%
%TO.N,Col1*%
X-639913000Y-103188000D03*
%TA.AperFunction,ComponentPad*%
G36*
G01*
X-641974312Y-105485350D02*
X-641974317Y-105485345D01*
G75*
G02*
X-642060345Y-103896683I751317J837345D01*
G01*
X-640750343Y-102436683D01*
G75*
G02*
X-639161681Y-102350655I837345J-751317D01*
G01*
X-639161681Y-102350655D01*
G75*
G02*
X-639075653Y-103939317I-751317J-837345D01*
G01*
X-640385655Y-105399317D01*
G75*
G02*
X-641974317Y-105485345I-837345J751317D01*
G01*
G37*
%TD.AperFunction*%
%TO.P,MX9,2*%
%TO.N,Net-(D9-Pad2)*%
X-634873000Y-102108000D03*
%TA.AperFunction,ComponentPad*%
G36*
G01*
X-634989517Y-103810395D02*
X-634990403Y-103810334D01*
G75*
G02*
X-636035334Y-102610597I77403J1122334D01*
G01*
X-635995334Y-102030597D01*
G75*
G02*
X-634795597Y-100985666I1122334J-77403D01*
G01*
X-634795597Y-100985666D01*
G75*
G02*
X-633750666Y-102185403I-77403J-1122334D01*
G01*
X-633790666Y-102765403D01*
G75*
G02*
X-634990403Y-103810334I-1122334J77403D01*
G01*
G37*
%TD.AperFunction*%
%TD*%
%TO.P,MX8,1*%
%TO.N,Col1*%
X-620863000Y-103188000D03*
%TA.AperFunction,ComponentPad*%
G36*
G01*
X-622924312Y-105485350D02*
X-622924317Y-105485345D01*
G75*
G02*
X-623010345Y-103896683I751317J837345D01*
G01*
X-621700343Y-102436683D01*
G75*
G02*
X-620111681Y-102350655I837345J-751317D01*
G01*
X-620111681Y-102350655D01*
G75*
G02*
X-620025653Y-103939317I-751317J-837345D01*
G01*
X-621335655Y-105399317D01*
G75*
G02*
X-622924317Y-105485345I-837345J751317D01*
G01*
G37*
%TD.AperFunction*%
%TO.P,MX8,2*%
%TO.N,Net-(D8-Pad2)*%
X-615823000Y-102108000D03*
%TA.AperFunction,ComponentPad*%
G36*
G01*
X-615939517Y-103810395D02*
X-615940403Y-103810334D01*
G75*
G02*
X-616985334Y-102610597I77403J1122334D01*
G01*
X-616945334Y-102030597D01*
G75*
G02*
X-615745597Y-100985666I1122334J-77403D01*
G01*
X-615745597Y-100985666D01*
G75*
G02*
X-614700666Y-102185403I-77403J-1122334D01*
G01*
X-614740666Y-102765403D01*
G75*
G02*
X-615940403Y-103810334I-1122334J77403D01*
G01*
G37*
%TD.AperFunction*%
%TD*%
%TO.P,MX7,1*%
%TO.N,Col1*%
X-620863000Y-84138000D03*
%TA.AperFunction,ComponentPad*%
G36*
G01*
X-622924312Y-86435350D02*
X-622924317Y-86435345D01*
G75*
G02*
X-623010345Y-84846683I751317J837345D01*
G01*
X-621700343Y-83386683D01*
G75*
G02*
X-620111681Y-83300655I837345J-751317D01*
G01*
X-620111681Y-83300655D01*
G75*
G02*
X-620025653Y-84889317I-751317J-837345D01*
G01*
X-621335655Y-86349317D01*
G75*
G02*
X-622924317Y-86435345I-837345J751317D01*
G01*
G37*
%TD.AperFunction*%
%TO.P,MX7,2*%
%TO.N,Net-(D7-Pad2)*%
X-615823000Y-83058000D03*
%TA.AperFunction,ComponentPad*%
G36*
G01*
X-615939517Y-84760395D02*
X-615940403Y-84760334D01*
G75*
G02*
X-616985334Y-83560597I77403J1122334D01*
G01*
X-616945334Y-82980597D01*
G75*
G02*
X-615745597Y-81935666I1122334J-77403D01*
G01*
X-615745597Y-81935666D01*
G75*
G02*
X-614700666Y-83135403I-77403J-1122334D01*
G01*
X-614740666Y-83715403D01*
G75*
G02*
X-615940403Y-84760334I-1122334J77403D01*
G01*
G37*
%TD.AperFunction*%
%TD*%
%TO.P,MX5,1*%
%TO.N,Col0*%
X-658963000Y-141288000D03*
%TA.AperFunction,ComponentPad*%
G36*
G01*
X-661024312Y-143585350D02*
X-661024317Y-143585345D01*
G75*
G02*
X-661110345Y-141996683I751317J837345D01*
G01*
X-659800343Y-140536683D01*
G75*
G02*
X-658211681Y-140450655I837345J-751317D01*
G01*
X-658211681Y-140450655D01*
G75*
G02*
X-658125653Y-142039317I-751317J-837345D01*
G01*
X-659435655Y-143499317D01*
G75*
G02*
X-661024317Y-143585345I-837345J751317D01*
G01*
G37*
%TD.AperFunction*%
%TO.P,MX5,2*%
%TO.N,Net-(D5-Pad2)*%
X-653923000Y-140208000D03*
%TA.AperFunction,ComponentPad*%
G36*
G01*
X-654039517Y-141910395D02*
X-654040403Y-141910334D01*
G75*
G02*
X-655085334Y-140710597I77403J1122334D01*
G01*
X-655045334Y-140130597D01*
G75*
G02*
X-653845597Y-139085666I1122334J-77403D01*
G01*
X-653845597Y-139085666D01*
G75*
G02*
X-652800666Y-140285403I-77403J-1122334D01*
G01*
X-652840666Y-140865403D01*
G75*
G02*
X-654040403Y-141910334I-1122334J77403D01*
G01*
G37*
%TD.AperFunction*%
%TD*%
%TO.P,MX4,1*%
%TO.N,Col0*%
X-658963000Y-122238000D03*
%TA.AperFunction,ComponentPad*%
G36*
G01*
X-661024312Y-124535350D02*
X-661024317Y-124535345D01*
G75*
G02*
X-661110345Y-122946683I751317J837345D01*
G01*
X-659800343Y-121486683D01*
G75*
G02*
X-658211681Y-121400655I837345J-751317D01*
G01*
X-658211681Y-121400655D01*
G75*
G02*
X-658125653Y-122989317I-751317J-837345D01*
G01*
X-659435655Y-124449317D01*
G75*
G02*
X-661024317Y-124535345I-837345J751317D01*
G01*
G37*
%TD.AperFunction*%
%TO.P,MX4,2*%
%TO.N,Net-(D4-Pad2)*%
X-653923000Y-121158000D03*
%TA.AperFunction,ComponentPad*%
G36*
G01*
X-654039517Y-122860395D02*
X-654040403Y-122860334D01*
G75*
G02*
X-655085334Y-121660597I77403J1122334D01*
G01*
X-655045334Y-121080597D01*
G75*
G02*
X-653845597Y-120035666I1122334J-77403D01*
G01*
X-653845597Y-120035666D01*
G75*
G02*
X-652800666Y-121235403I-77403J-1122334D01*
G01*
X-652840666Y-121815403D01*
G75*
G02*
X-654040403Y-122860334I-1122334J77403D01*
G01*
G37*
%TD.AperFunction*%
%TD*%
%TO.P,MX3,1*%
%TO.N,Col0*%
X-658963000Y-103188000D03*
%TA.AperFunction,ComponentPad*%
G36*
G01*
X-661024312Y-105485350D02*
X-661024317Y-105485345D01*
G75*
G02*
X-661110345Y-103896683I751317J837345D01*
G01*
X-659800343Y-102436683D01*
G75*
G02*
X-658211681Y-102350655I837345J-751317D01*
G01*
X-658211681Y-102350655D01*
G75*
G02*
X-658125653Y-103939317I-751317J-837345D01*
G01*
X-659435655Y-105399317D01*
G75*
G02*
X-661024317Y-105485345I-837345J751317D01*
G01*
G37*
%TD.AperFunction*%
%TO.P,MX3,2*%
%TO.N,Net-(D3-Pad2)*%
X-653923000Y-102108000D03*
%TA.AperFunction,ComponentPad*%
G36*
G01*
X-654039517Y-103810395D02*
X-654040403Y-103810334D01*
G75*
G02*
X-655085334Y-102610597I77403J1122334D01*
G01*
X-655045334Y-102030597D01*
G75*
G02*
X-653845597Y-100985666I1122334J-77403D01*
G01*
X-653845597Y-100985666D01*
G75*
G02*
X-652800666Y-102185403I-77403J-1122334D01*
G01*
X-652840666Y-102765403D01*
G75*
G02*
X-654040403Y-103810334I-1122334J77403D01*
G01*
G37*
%TD.AperFunction*%
%TD*%
%TO.P,MX2,1*%
%TO.N,Col0*%
X-658963000Y-84138000D03*
%TA.AperFunction,ComponentPad*%
G36*
G01*
X-661024312Y-86435350D02*
X-661024317Y-86435345D01*
G75*
G02*
X-661110345Y-84846683I751317J837345D01*
G01*
X-659800343Y-83386683D01*
G75*
G02*
X-658211681Y-83300655I837345J-751317D01*
G01*
X-658211681Y-83300655D01*
G75*
G02*
X-658125653Y-84889317I-751317J-837345D01*
G01*
X-659435655Y-86349317D01*
G75*
G02*
X-661024317Y-86435345I-837345J751317D01*
G01*
G37*
%TD.AperFunction*%
%TO.P,MX2,2*%
%TO.N,Net-(D2-Pad2)*%
X-653923000Y-83058000D03*
%TA.AperFunction,ComponentPad*%
G36*
G01*
X-654039517Y-84760395D02*
X-654040403Y-84760334D01*
G75*
G02*
X-655085334Y-83560597I77403J1122334D01*
G01*
X-655045334Y-82980597D01*
G75*
G02*
X-653845597Y-81935666I1122334J-77403D01*
G01*
X-653845597Y-81935666D01*
G75*
G02*
X-652800666Y-83135403I-77403J-1122334D01*
G01*
X-652840666Y-83715403D01*
G75*
G02*
X-654040403Y-84760334I-1122334J77403D01*
G01*
G37*
%TD.AperFunction*%
%TD*%
%TO.P,MX1,1*%
%TO.N,Col0*%
X-639913000Y-84138000D03*
%TA.AperFunction,ComponentPad*%
G36*
G01*
X-641974312Y-86435350D02*
X-641974317Y-86435345D01*
G75*
G02*
X-642060345Y-84846683I751317J837345D01*
G01*
X-640750343Y-83386683D01*
G75*
G02*
X-639161681Y-83300655I837345J-751317D01*
G01*
X-639161681Y-83300655D01*
G75*
G02*
X-639075653Y-84889317I-751317J-837345D01*
G01*
X-640385655Y-86349317D01*
G75*
G02*
X-641974317Y-86435345I-837345J751317D01*
G01*
G37*
%TD.AperFunction*%
%TO.P,MX1,2*%
%TO.N,Net-(D1-Pad2)*%
X-634873000Y-83058000D03*
%TA.AperFunction,ComponentPad*%
G36*
G01*
X-634989517Y-84760395D02*
X-634990403Y-84760334D01*
G75*
G02*
X-636035334Y-83560597I77403J1122334D01*
G01*
X-635995334Y-82980597D01*
G75*
G02*
X-634795597Y-81935666I1122334J-77403D01*
G01*
X-634795597Y-81935666D01*
G75*
G02*
X-633750666Y-83135403I-77403J-1122334D01*
G01*
X-633790666Y-83715403D01*
G75*
G02*
X-634990403Y-84760334I-1122334J77403D01*
G01*
G37*
%TD.AperFunction*%
%TD*%
D12*
%TO.N,Net-(R3-Pad2)*%
X-540435800Y-85750400D03*
%TO.N,Net-(C1-Pad1)*%
X-543191700Y-99199700D03*
X-549173400Y-99174300D03*
%TO.N,GND*%
X-556514000Y-99314000D03*
X-551332400Y-99187000D03*
X-543217100Y-97307400D03*
X-549109900Y-97485200D03*
%TO.N,Row0*%
X-581571100Y-94043500D03*
X-574789300Y-110744000D03*
X-558292000Y-84416900D03*
%TO.N,Row2*%
X-526465800Y-127622300D03*
X-519912600Y-111340900D03*
%TO.N,Row3*%
X-566801000Y-151549100D03*
X-565975500Y-165988000D03*
X-557415700Y-114896900D03*
X-566801000Y-151549100D03*
X-553780399Y-134032437D03*
%TO.N,Row4*%
X-614870500Y-152793700D03*
X-608838000Y-162688000D03*
X-506742700Y-168325800D03*
X-503936000Y-146938000D03*
X-509663700Y-132791200D03*
%TO.N,Row5*%
X-601383100Y-169672000D03*
X-589788000Y-156463000D03*
X-527812000Y-165988000D03*
X-535635200Y-119113300D03*
X-205079600Y-160070800D03*
X-204708000Y-146938000D03*
X-530339300Y-169824400D03*
%TO.N,Col0*%
X-547166800Y-79463900D03*
X-539330900Y-119900700D03*
%TO.N,Col1*%
X-563105300Y-109194600D03*
X-565492900Y-99631500D03*
X-580123300Y-97028000D03*
X-581444100Y-99860100D03*
X-617268407Y-101166496D03*
%TO.N,Col3*%
X-536371800Y-120764300D03*
%TO.N,Col4*%
X-537373647Y-121496708D03*
X-531787100Y-110680500D03*
%TO.N,Col5*%
X-545934900Y-105511600D03*
X-544715700Y-100380800D03*
X-535711400Y-98412300D03*
X-533247600Y-87337900D03*
%TO.N,Col6*%
X-545198300Y-106743500D03*
X-540575500Y-98526600D03*
X-458003540Y-96972971D03*
%TO.N,Col7*%
X-437286400Y-101733499D03*
%TO.N,Col8*%
X-421201768Y-104238500D03*
%TO.N,Col9*%
X-541309000Y-115912900D03*
X-540702500Y-132476800D03*
X-535305000Y-133223000D03*
X-534060400Y-152184100D03*
X-484873300Y-158483300D03*
X-468909400Y-121589800D03*
%TO.N,Col11*%
X-542036000Y-116751100D03*
X-539170266Y-105729431D03*
X-464058000Y-98880982D03*
X-456006200Y-76873100D03*
X-336436005Y-94868695D03*
%TO.N,Col12*%
X-540042100Y-115840200D03*
X-539156200Y-106743500D03*
X-426313600Y-103187500D03*
X-419036500Y-88011000D03*
X-323349580Y-87141279D03*
%TO.N,Col13*%
X-517918700Y-133007100D03*
X-509231900Y-150914100D03*
X-380555500Y-178130200D03*
X-370357400Y-152996900D03*
X-294970200Y-139242800D03*
%TO.N,Col14*%
X-535089100Y-129616200D03*
%TO.N,Col15*%
X-545757100Y-129552700D03*
X-544220400Y-135458200D03*
X-324853300Y-144335500D03*
X-315353700Y-125323600D03*
X-246643400Y-116102000D03*
%TO.N,Col16*%
X-545757100Y-135394700D03*
X-459689200Y-140093700D03*
X-426948600Y-182702200D03*
X-373494300Y-188455300D03*
X-353288600Y-113665000D03*
X-237118400Y-92378400D03*
X-546893183Y-128694883D03*
%TO.N,Col17*%
X-547408100Y-127177800D03*
X-548538400Y-135788400D03*
X-530250400Y-139482999D03*
X-505574300Y-75882500D03*
X-199060999Y-76115599D03*
%TO.N,GND*%
X-550788600Y-114313200D03*
X-553084600Y-122389500D03*
X-561848000Y-85585300D03*
X-558679990Y-62742810D03*
X-539800800Y-89255600D03*
X-538215200Y-95300800D03*
%TO.N,Net-(C1-Pad1)*%
X-549490900Y-104686100D03*
%TO.N,Net-(C2-Pad1)*%
X-556450500Y-97421700D03*
X-551340200Y-97448000D03*
X-552272200Y-104952800D03*
%TO.N,+5V*%
X-553902450Y-122191350D03*
X-552284600Y-116609200D03*
X-533539700Y-89731901D03*
X-535813000Y-112953800D03*
X-562470300Y-69011800D03*
X-556437800Y-85664000D03*
%TO.N,Net-(C5-Pad1)*%
X-538429200Y-116344700D03*
X-543725100Y-101612700D03*
X-570204600Y-103759000D03*
X-571436500Y-112915700D03*
%TO.N,Net-(R1-Pad1)*%
X-585266800Y-117348000D03*
X-584238100Y-74561700D03*
%TO.N,Net-(R2-Pad1)*%
X-555053500Y-73101200D03*
X-569468000Y-119986200D03*
%TO.N,Net-(R3-Pad2)*%
X-538378400Y-102501700D03*
X-533941020Y-57205880D03*
%TO.N,Net-(R4-Pad2)*%
X-561124100Y-115595400D03*
X-554507400Y-131749800D03*
X-539305500Y-131660900D03*
X-537984700Y-122288300D03*
%TD*%
D13*
%TO.N,Row0*%
X-581571100Y-94043500D02*
X-578256400Y-97358200D01*
X-578256400Y-107276900D02*
X-574789300Y-110744000D01*
X-578256400Y-97358200D02*
X-578256400Y-107276900D01*
X-571233300Y-97358200D02*
X-578256400Y-97358200D01*
X-558292000Y-84416900D02*
X-571233300Y-97358200D01*
%TO.N,Row2*%
X-526465800Y-127622300D02*
X-523786100Y-124942600D01*
X-523786100Y-115214400D02*
X-519912600Y-111340900D01*
X-523786100Y-124942600D02*
X-523786100Y-115214400D01*
%TO.N,Row3*%
X-565975500Y-152374600D02*
X-565975500Y-165988000D01*
X-566801000Y-151549100D02*
X-565975500Y-152374600D01*
X-566801000Y-147053038D02*
X-566801000Y-151549100D01*
X-553780399Y-134032437D02*
X-566801000Y-147053038D01*
X-553780399Y-131400839D02*
X-553780399Y-134032437D01*
X-557415700Y-127765538D02*
X-553780399Y-131400839D01*
X-557415700Y-114896900D02*
X-557415700Y-127765538D01*
%TO.N,Row4*%
X-608838000Y-158826200D02*
X-608838000Y-162688000D01*
X-614870500Y-152793700D02*
X-608838000Y-158826200D01*
X-503936000Y-165519100D02*
X-503936000Y-146938000D01*
X-506742700Y-168325800D02*
X-503936000Y-165519100D01*
X-509663700Y-141210300D02*
X-503936000Y-146938000D01*
X-509663700Y-132791200D02*
X-509663700Y-141210300D01*
%TO.N,Row5*%
X-601383100Y-169672000D02*
X-599821000Y-169672000D01*
X-589788000Y-159639000D02*
X-589788000Y-156463000D01*
X-599821000Y-169672000D02*
X-589788000Y-159639000D01*
X-531681001Y-123067499D02*
X-535635200Y-119113300D01*
X-531681001Y-162118999D02*
X-531681001Y-123067499D01*
X-527812000Y-165988000D02*
X-531681001Y-162118999D01*
X-205079600Y-147309600D02*
X-204708000Y-146938000D01*
X-205079600Y-160070800D02*
X-205079600Y-147309600D01*
X-579602600Y-169824400D02*
X-530339300Y-169824400D01*
X-589788000Y-159639000D02*
X-579602600Y-169824400D01*
%TO.N,Net-(D28-Pad2)*%
X-513521301Y-131149701D02*
X-513740400Y-131368800D01*
X-513521301Y-125091801D02*
X-513521301Y-131149701D01*
X-513469250Y-125039750D02*
X-513521301Y-125091801D01*
X-513469250Y-121738000D02*
X-513469250Y-125039750D01*
%TO.N,Col0*%
X-660273000Y-101878000D02*
X-658963000Y-103188000D01*
X-660273000Y-85598000D02*
X-660273000Y-101878000D01*
X-660273000Y-120928000D02*
X-658963000Y-122238000D01*
X-660273000Y-104648000D02*
X-660273000Y-120928000D01*
X-660273000Y-139978000D02*
X-658963000Y-141288000D01*
X-660273000Y-123698000D02*
X-660273000Y-139978000D01*
X-649438000Y-155747934D02*
X-649438000Y-160338000D01*
X-660273000Y-144912934D02*
X-649438000Y-155747934D01*
X-660273000Y-142748000D02*
X-660273000Y-144912934D01*
X-653815894Y-85598000D02*
X-641223000Y-85598000D01*
X-660273000Y-85598000D02*
X-653815894Y-85598000D01*
X-547166800Y-88722200D02*
X-547166800Y-79463900D01*
X-539105401Y-96783599D02*
X-547166800Y-88722200D01*
X-539105401Y-103609133D02*
X-539105401Y-96783599D01*
X-537451300Y-105219500D02*
X-539105401Y-103609133D01*
X-537591000Y-118503700D02*
X-537451300Y-105219500D01*
X-539330900Y-119900700D02*
X-537591000Y-118503700D01*
%TO.N,Col1*%
X-622173000Y-101878000D02*
X-620863000Y-103188000D01*
X-622173000Y-85598000D02*
X-622173000Y-101878000D01*
X-641223000Y-120928000D02*
X-639913000Y-122238000D01*
X-641223000Y-104648000D02*
X-641223000Y-120928000D01*
X-641223000Y-139978000D02*
X-639913000Y-141288000D01*
X-641223000Y-123698000D02*
X-641223000Y-139978000D01*
X-641223000Y-159028000D02*
X-639913000Y-160338000D01*
X-641223000Y-142748000D02*
X-641223000Y-159028000D01*
X-563105300Y-109194600D02*
X-564400700Y-107899200D01*
X-564400700Y-100723700D02*
X-565492900Y-99631500D01*
X-564400700Y-107899200D02*
X-564400700Y-100723700D01*
X-581444100Y-98348800D02*
X-581444100Y-99860100D01*
X-580123300Y-97028000D02*
X-581444100Y-98348800D01*
X-619289911Y-103188000D02*
X-620863000Y-103188000D01*
X-617268407Y-101166496D02*
X-619289911Y-103188000D01*
%TO.N,Col2*%
X-608149001Y-114226999D02*
X-601853000Y-120523000D01*
X-608149001Y-93672963D02*
X-608149001Y-114226999D01*
X-603123000Y-88646962D02*
X-608149001Y-93672963D01*
X-603123000Y-85598000D02*
X-603123000Y-88646962D01*
X-622173000Y-139978000D02*
X-620863000Y-141288000D01*
X-622173000Y-123698000D02*
X-622173000Y-139978000D01*
X-622173000Y-159028000D02*
X-620863000Y-160338000D01*
X-622173000Y-142748000D02*
X-622173000Y-159028000D01*
%TO.N,Col3*%
X-560197000Y-142748000D02*
X-553974000Y-136525000D01*
X-534787490Y-128218852D02*
X-534787490Y-122348610D01*
X-543093638Y-136525000D02*
X-534787490Y-128218852D01*
X-534787490Y-122348610D02*
X-536371800Y-120764300D01*
X-553974000Y-136525000D02*
X-543093638Y-136525000D01*
X-560197000Y-159028000D02*
X-558887000Y-160338000D01*
X-560197000Y-142748000D02*
X-560197000Y-159028000D01*
X-582298101Y-158810399D02*
X-579310500Y-161798000D01*
X-579819462Y-85598000D02*
X-582298101Y-88076639D01*
X-582298101Y-88076639D02*
X-582298101Y-158810399D01*
X-579310500Y-85598000D02*
X-579819462Y-85598000D01*
%TO.N,Col4*%
X-529209000Y-152273000D02*
X-519684000Y-161798000D01*
X-529209000Y-142748000D02*
X-529209000Y-152273000D01*
X-519751999Y-133140999D02*
X-527899000Y-141288000D01*
X-519751999Y-125772599D02*
X-519751999Y-133140999D01*
X-519684000Y-125704600D02*
X-519751999Y-125772599D01*
X-519684000Y-123698000D02*
X-519684000Y-125704600D01*
X-519684000Y-114808962D02*
X-519684000Y-123698000D01*
X-512572000Y-107696962D02*
X-519684000Y-114808962D01*
X-512572000Y-104648000D02*
X-512572000Y-107696962D01*
X-512572000Y-94614038D02*
X-512572000Y-104648000D01*
X-503555962Y-85598000D02*
X-512572000Y-94614038D01*
X-503047000Y-85598000D02*
X-503555962Y-85598000D01*
X-501737000Y-64729038D02*
X-501737000Y-84138000D01*
X-498793462Y-61785500D02*
X-501737000Y-64729038D01*
X-498284500Y-61785500D02*
X-498793462Y-61785500D01*
X-531787100Y-114189238D02*
X-531787100Y-110680500D01*
X-537373647Y-119775785D02*
X-531787100Y-114189238D01*
X-537373647Y-121496708D02*
X-537373647Y-119775785D01*
%TO.N,Col5*%
X-482623500Y-64665538D02*
X-482623500Y-84138000D01*
X-479743462Y-61785500D02*
X-482623500Y-64665538D01*
X-479234500Y-61785500D02*
X-479743462Y-61785500D01*
X-488696000Y-89851538D02*
X-488696000Y-104648000D01*
X-484442462Y-85598000D02*
X-488696000Y-89851538D01*
X-483933500Y-85598000D02*
X-484442462Y-85598000D01*
X-492148500Y-107591538D02*
X-492148500Y-122238000D01*
X-489204962Y-104648000D02*
X-492148500Y-107591538D01*
X-488696000Y-104648000D02*
X-489204962Y-104648000D01*
X-496911000Y-126641538D02*
X-496911000Y-141288000D01*
X-493967462Y-123698000D02*
X-496911000Y-126641538D01*
X-493458500Y-123698000D02*
X-493967462Y-123698000D01*
X-500693001Y-157039999D02*
X-495935000Y-161798000D01*
X-500693001Y-144711039D02*
X-500693001Y-157039999D01*
X-498729962Y-142748000D02*
X-500693001Y-144711039D01*
X-498221000Y-142748000D02*
X-498729962Y-142748000D01*
X-545934900Y-101600000D02*
X-544715700Y-100380800D01*
X-545934900Y-105511600D02*
X-545934900Y-101600000D01*
X-535711400Y-89801700D02*
X-533247600Y-87337900D01*
X-535711400Y-98412300D02*
X-535711400Y-89801700D01*
%TO.N,Col6*%
X-454695543Y-66371608D02*
X-454695543Y-87213445D01*
X-451534880Y-63210945D02*
X-454695543Y-66371608D01*
X-449996543Y-63210945D02*
X-451534880Y-63210945D01*
X-458003540Y-88983105D02*
X-458003540Y-106026448D01*
X-456233880Y-87213445D02*
X-458003540Y-88983105D01*
X-454695543Y-87213445D02*
X-456233880Y-87213445D01*
X-459541877Y-106026448D02*
X-461191777Y-107676348D01*
X-461191777Y-107676348D02*
X-461191777Y-124949448D01*
X-458003540Y-106026448D02*
X-459541877Y-106026448D01*
X-464620777Y-126840111D02*
X-464620777Y-143745448D01*
X-462730114Y-124949448D02*
X-464620777Y-126840111D01*
X-461191777Y-124949448D02*
X-462730114Y-124949448D01*
X-467706904Y-162347121D02*
X-467309377Y-162744648D01*
X-467706904Y-145293238D02*
X-467706904Y-162347121D01*
X-466159114Y-143745448D02*
X-467706904Y-145293238D01*
X-464620777Y-143745448D02*
X-466159114Y-143745448D01*
X-542934599Y-100885699D02*
X-540575500Y-98526600D01*
X-544074061Y-100885699D02*
X-542934599Y-100885699D01*
X-545198300Y-102009938D02*
X-544074061Y-100885699D01*
X-545198300Y-106743500D02*
X-545198300Y-102009938D01*
%TO.N,Col7*%
X-436294657Y-71302110D02*
X-436294657Y-92143947D01*
X-433133994Y-68141447D02*
X-436294657Y-71302110D01*
X-431595657Y-68141447D02*
X-433133994Y-68141447D01*
X-439602654Y-104049753D02*
X-439602654Y-110956950D01*
X-437286400Y-101733499D02*
X-439602654Y-104049753D01*
X-436294657Y-100741756D02*
X-437286400Y-101733499D01*
X-436294657Y-92143947D02*
X-436294657Y-100741756D01*
X-439602654Y-127263753D02*
X-441147652Y-128808751D01*
X-439602654Y-110956950D02*
X-439602654Y-127263753D01*
X-443473016Y-146501115D02*
X-444576652Y-147604751D01*
X-442790891Y-130942391D02*
X-443473016Y-131624516D01*
X-443473016Y-131624516D02*
X-443473016Y-146501115D01*
X-442790891Y-129879950D02*
X-442790891Y-130942391D01*
X-432662258Y-172625248D02*
X-430479377Y-172625248D01*
X-446219891Y-159067615D02*
X-432662258Y-172625248D01*
X-446219891Y-148675950D02*
X-446219891Y-159067615D01*
%TO.N,Col8*%
X-417375531Y-94878251D02*
X-416250532Y-96003250D01*
X-417375531Y-75714372D02*
X-417375531Y-94878251D01*
X-414733108Y-73071949D02*
X-417375531Y-75714372D01*
X-413194771Y-73071949D02*
X-414733108Y-73071949D01*
X-421201768Y-98844109D02*
X-421201768Y-115887452D01*
X-419432108Y-97074449D02*
X-421201768Y-98844109D01*
X-417893771Y-97074449D02*
X-419432108Y-97074449D01*
X-424390005Y-117537352D02*
X-424390005Y-134810452D01*
X-422740105Y-115887452D02*
X-424390005Y-117537352D01*
X-421201768Y-115887452D02*
X-422740105Y-115887452D01*
X-427819005Y-136701115D02*
X-427819005Y-153606452D01*
X-425928342Y-134810452D02*
X-427819005Y-136701115D01*
X-424390005Y-134810452D02*
X-425928342Y-134810452D01*
X-411486341Y-181868342D02*
X-395947735Y-181868342D01*
X-427819005Y-165535678D02*
X-411486341Y-181868342D01*
X-427819005Y-153606452D02*
X-427819005Y-165535678D01*
%TO.N,Col9*%
X-398974645Y-99808753D02*
X-397849646Y-100933752D01*
X-398974645Y-80644874D02*
X-398974645Y-99808753D01*
X-396332222Y-78002451D02*
X-398974645Y-80644874D01*
X-394793885Y-78002451D02*
X-396332222Y-78002451D01*
X-402800882Y-103774611D02*
X-402800882Y-120817954D01*
X-401031222Y-102004951D02*
X-402800882Y-103774611D01*
X-399492885Y-102004951D02*
X-401031222Y-102004951D01*
X-405989119Y-122467854D02*
X-405989119Y-139740954D01*
X-404339219Y-120817954D02*
X-405989119Y-122467854D01*
X-402800882Y-120817954D02*
X-404339219Y-120817954D01*
X-409418119Y-141631617D02*
X-409418119Y-158536954D01*
X-407527456Y-139740954D02*
X-409418119Y-141631617D01*
X-405989119Y-139740954D02*
X-407527456Y-139740954D01*
X-392395383Y-162089306D02*
X-391017233Y-163467456D01*
X-401041392Y-162089306D02*
X-392395383Y-162089306D01*
X-403581437Y-159549261D02*
X-401041392Y-162089306D01*
X-408405812Y-159549261D02*
X-403581437Y-159549261D01*
X-409418119Y-158536954D02*
X-408405812Y-159549261D01*
X-540702500Y-116519400D02*
X-540702500Y-132476800D01*
X-541309000Y-115912900D02*
X-540702500Y-116519400D01*
X-535305000Y-133223000D02*
X-534860500Y-133667500D01*
X-534860500Y-151384000D02*
X-534060400Y-152184100D01*
X-534860500Y-133667500D02*
X-534860500Y-151384000D01*
X-468909400Y-142519400D02*
X-484873300Y-158483300D01*
X-468909400Y-121589800D02*
X-468909400Y-142519400D01*
%TO.N,Col10*%
X-360151352Y-97002283D02*
X-354836891Y-102316744D01*
X-360151352Y-80621925D02*
X-360151352Y-97002283D01*
X-360784028Y-79989249D02*
X-360151352Y-80621925D01*
X-351382491Y-109988087D02*
X-351382491Y-121138144D01*
X-355724378Y-105646200D02*
X-351382491Y-109988087D01*
X-355724378Y-104066049D02*
X-355724378Y-105646200D01*
X-351637302Y-136224933D02*
X-347928091Y-139934144D01*
X-351637302Y-123520125D02*
X-351637302Y-136224933D01*
X-352269978Y-122887449D02*
X-351637302Y-123520125D01*
X-348815578Y-143263600D02*
X-345356148Y-146723030D01*
X-345356148Y-146723030D02*
X-345356148Y-160509155D01*
X-348815578Y-141683449D02*
X-348815578Y-143263600D01*
X-359069898Y-159890703D02*
X-362869547Y-163690352D01*
X-354846923Y-159890703D02*
X-359069898Y-159890703D01*
X-354228471Y-160509155D02*
X-354846923Y-159890703D01*
X-345356148Y-160509155D02*
X-354228471Y-160509155D01*
%TO.N,Col11*%
X-342716378Y-178708484D02*
X-342716378Y-179507649D01*
X-326322586Y-162314692D02*
X-342716378Y-178708484D01*
X-326322586Y-156211329D02*
X-326322586Y-162314692D01*
X-326955262Y-155578653D02*
X-326322586Y-156211329D01*
X-329782016Y-150115107D02*
X-326067775Y-153829348D01*
X-329782016Y-137385623D02*
X-329782016Y-150115107D01*
X-330414692Y-136752947D02*
X-329782016Y-137385623D01*
X-329527205Y-123878985D02*
X-329527205Y-135003642D01*
X-333869092Y-119537098D02*
X-329527205Y-123878985D01*
X-333869092Y-117956947D02*
X-333869092Y-119537098D01*
X-332981605Y-105057585D02*
X-332981605Y-116207642D01*
X-337323492Y-100715698D02*
X-332981605Y-105057585D01*
X-337323492Y-99135547D02*
X-337323492Y-100715698D01*
X-342383142Y-76638898D02*
X-336436005Y-82586035D01*
X-342383142Y-75058747D02*
X-342383142Y-76638898D01*
X-542036000Y-108595165D02*
X-539170266Y-105729431D01*
X-542036000Y-116751100D02*
X-542036000Y-108595165D01*
X-464058000Y-84924900D02*
X-456006200Y-76873100D01*
X-464058000Y-98880982D02*
X-464058000Y-84924900D01*
X-336436005Y-94868695D02*
X-336436005Y-97386242D01*
X-336436005Y-82586035D02*
X-336436005Y-94868695D01*
%TO.N,Col12*%
X-323349580Y-87141279D02*
X-318035119Y-92455740D01*
X-323349580Y-70760921D02*
X-323349580Y-87141279D01*
X-323982256Y-70128245D02*
X-323349580Y-70760921D01*
X-318289930Y-107567929D02*
X-314580719Y-111277140D01*
X-318289930Y-94837721D02*
X-318289930Y-107567929D01*
X-318922606Y-94205045D02*
X-318289930Y-94837721D01*
X-311126319Y-118616693D02*
X-311126319Y-130073140D01*
X-315468206Y-114274806D02*
X-311126319Y-118616693D01*
X-315468206Y-113026445D02*
X-315468206Y-114274806D01*
X-311381130Y-145184605D02*
X-307666889Y-148898846D01*
X-311381130Y-132455121D02*
X-311381130Y-145184605D01*
X-312013806Y-131822445D02*
X-311381130Y-132455121D01*
X-307921700Y-165002757D02*
X-305027118Y-167897339D01*
X-307921700Y-151280827D02*
X-307921700Y-165002757D01*
X-308554376Y-150648151D02*
X-307921700Y-151280827D01*
X-539156200Y-114954300D02*
X-539156200Y-106743500D01*
X-540042100Y-115840200D02*
X-539156200Y-114954300D01*
X-426313600Y-95288100D02*
X-419036500Y-88011000D01*
X-426313600Y-103187500D02*
X-426313600Y-95288100D01*
%TO.N,Col13*%
X-517918700Y-142227300D02*
X-509231900Y-150914100D01*
X-517918700Y-133007100D02*
X-517918700Y-142227300D01*
X-380555500Y-163195000D02*
X-370357400Y-152996900D01*
X-380555500Y-178130200D02*
X-380555500Y-163195000D01*
X-294970200Y-141900939D02*
X-291153490Y-145717649D01*
X-294970200Y-139242800D02*
X-294970200Y-141900939D01*
X-292980244Y-137252844D02*
X-294970200Y-139242800D01*
X-292980244Y-128256596D02*
X-292980244Y-137252844D01*
X-293612920Y-127623920D02*
X-292980244Y-128256596D01*
X-293612920Y-126891943D02*
X-293612920Y-127623920D01*
X-304948694Y-82210777D02*
X-299634233Y-87525238D01*
X-304948694Y-65830419D02*
X-304948694Y-82210777D01*
X-305581370Y-65197743D02*
X-304948694Y-65830419D01*
X-299889044Y-102637427D02*
X-296179833Y-106346638D01*
X-299889044Y-89907219D02*
X-299889044Y-102637427D01*
X-300521720Y-89274543D02*
X-299889044Y-89907219D01*
X-296434644Y-121433427D02*
X-292725433Y-125142638D01*
X-296434644Y-108728619D02*
X-296434644Y-121433427D01*
X-297067320Y-108095943D02*
X-296434644Y-108728619D01*
X-275612446Y-161823400D02*
X-248954800Y-161823400D01*
X-290520814Y-146915032D02*
X-275612446Y-161823400D01*
X-290520814Y-146350325D02*
X-290520814Y-146915032D01*
X-291153490Y-145717649D02*
X-290520814Y-146350325D01*
%TO.N,Col14*%
X-243982334Y-161823400D02*
X-225158800Y-161823400D01*
X-260918200Y-144887534D02*
X-243982334Y-161823400D01*
X-260918200Y-142722600D02*
X-260918200Y-144887534D01*
X-260892800Y-139978000D02*
X-259608200Y-141262600D01*
X-260892800Y-123672600D02*
X-260892800Y-139978000D01*
X-265718800Y-116076600D02*
X-259582800Y-122212600D01*
X-265718800Y-104673400D02*
X-265718800Y-116076600D01*
X-275218400Y-92403800D02*
X-264408800Y-103213400D01*
X-275218400Y-85623400D02*
X-275218400Y-92403800D01*
X-273908400Y-68045200D02*
X-273908400Y-84163400D01*
X-277961600Y-63992000D02*
X-273908400Y-68045200D01*
X-277961600Y-61785500D02*
X-277961600Y-63992000D01*
X-525823161Y-169052801D02*
X-470119001Y-169052801D01*
X-533307051Y-161568911D02*
X-525823161Y-169052801D01*
X-533307051Y-131398249D02*
X-533307051Y-161568911D01*
X-535089100Y-129616200D02*
X-533307051Y-131398249D01*
X-470119001Y-169052801D02*
X-465778702Y-173393100D01*
X-465778702Y-173393100D02*
X-441045600Y-173393100D01*
X-430388127Y-184050573D02*
X-406131127Y-184050573D01*
X-441045600Y-173393100D02*
X-430388127Y-184050573D01*
X-406131127Y-184050573D02*
X-399326100Y-190855600D01*
X-399326100Y-190855600D02*
X-353999800Y-190855600D01*
X-225667762Y-161823400D02*
X-225158800Y-161823400D01*
X-230528663Y-166684301D02*
X-225667762Y-161823400D01*
X-268597321Y-166684301D02*
X-230528663Y-166684301D01*
X-275543817Y-173630797D02*
X-268597321Y-166684301D01*
X-316777795Y-173630797D02*
X-275543817Y-173630797D01*
X-326638800Y-183491802D02*
X-316777795Y-173630797D01*
X-346636002Y-183491802D02*
X-326638800Y-183491802D01*
X-353999800Y-190855600D02*
X-346636002Y-183491802D01*
%TO.N,Col15*%
X-258911600Y-80110200D02*
X-254858400Y-84163400D01*
X-258911600Y-61785500D02*
X-258911600Y-80110200D01*
X-256168400Y-92378400D02*
X-245333400Y-103213400D01*
X-256168400Y-85623400D02*
X-256168400Y-92378400D01*
X-246643400Y-116102000D02*
X-240532800Y-122212600D01*
X-246643400Y-104673400D02*
X-246643400Y-116102000D01*
X-228645600Y-139034734D02*
X-228645600Y-141338800D01*
X-241842800Y-125837534D02*
X-228645600Y-139034734D01*
X-241842800Y-123672600D02*
X-241842800Y-125837534D01*
X-213095934Y-161823400D02*
X-201359000Y-161823400D01*
X-229955600Y-144963734D02*
X-213095934Y-161823400D01*
X-229955600Y-142798800D02*
X-229955600Y-144963734D01*
X-319968210Y-139450410D02*
X-319968210Y-129734910D01*
X-324853300Y-144335500D02*
X-319968210Y-139450410D01*
X-315556900Y-125323600D02*
X-315353700Y-125323600D01*
X-319968210Y-129734910D02*
X-315556900Y-125323600D01*
X-545731700Y-133146800D02*
X-544220400Y-135458200D01*
X-545757100Y-129552700D02*
X-545731700Y-133146800D01*
%TO.N,Col16*%
X-210911400Y-130829600D02*
X-198993000Y-142748000D01*
X-210911400Y-123698000D02*
X-210911400Y-130829600D01*
X-212193734Y-122238000D02*
X-209601400Y-122238000D01*
X-227593400Y-106838334D02*
X-212193734Y-122238000D01*
X-227593400Y-104673400D02*
X-227593400Y-106838334D01*
X-237118400Y-92378400D02*
X-226283400Y-103213400D01*
X-237118400Y-85623400D02*
X-237118400Y-92378400D01*
X-235808400Y-79041938D02*
X-235808400Y-84163400D01*
X-218551962Y-61785500D02*
X-235808400Y-79041938D01*
X-218043000Y-61785500D02*
X-218551962Y-61785500D01*
X-449306018Y-160344782D02*
X-426948600Y-182702200D01*
X-449306018Y-149310265D02*
X-449306018Y-160344782D01*
X-458522583Y-140093700D02*
X-449306018Y-149310265D01*
X-459689200Y-140093700D02*
X-458522583Y-140093700D01*
X-363892324Y-124268724D02*
X-353288600Y-113665000D01*
X-363892324Y-162497043D02*
X-363892324Y-124268724D01*
X-373494300Y-172099019D02*
X-363892324Y-162497043D01*
X-373494300Y-188455300D02*
X-373494300Y-172099019D01*
X-546893183Y-134258617D02*
X-545757100Y-135394700D01*
X-546893183Y-128694883D02*
X-546893183Y-134258617D01*
%TO.N,Col17*%
X-199060999Y-76115599D02*
X-208543400Y-85598000D01*
X-199060999Y-63818699D02*
X-199060999Y-76115599D01*
X-198993000Y-63750700D02*
X-199060999Y-63818699D01*
X-198993000Y-61785500D02*
X-198993000Y-63750700D01*
X-211015401Y-97426199D02*
X-203768200Y-104673400D01*
X-211015401Y-87561039D02*
X-211015401Y-97426199D01*
X-209052362Y-85598000D02*
X-211015401Y-87561039D01*
X-208543400Y-85598000D02*
X-209052362Y-85598000D01*
X-548538400Y-128308100D02*
X-548538400Y-135788400D01*
X-547408100Y-127177800D02*
X-548538400Y-128308100D01*
X-530250400Y-100558600D02*
X-505574300Y-75882500D01*
X-530250400Y-139482999D02*
X-530250400Y-100558600D01*
%TO.N,GND*%
X-543394900Y-97485200D02*
X-543217100Y-97307400D01*
X-549109900Y-97485200D02*
X-543394900Y-97485200D01*
X-549630600Y-97485200D02*
X-549109900Y-97485200D01*
X-551332400Y-99187000D02*
X-549630600Y-97485200D01*
X-551459400Y-99314000D02*
X-551332400Y-99187000D01*
X-556514000Y-99314000D02*
X-551459400Y-99314000D01*
X-550788600Y-120093500D02*
X-553084600Y-122389500D01*
X-550788600Y-114313200D02*
X-550788600Y-120093500D01*
X-561848000Y-85585300D02*
X-565619900Y-81813400D01*
X-565619900Y-69682720D02*
X-558679990Y-62742810D01*
X-565619900Y-81813400D02*
X-565619900Y-69682720D01*
X-538215200Y-90841200D02*
X-538215200Y-95300800D01*
X-539800800Y-89255600D02*
X-538215200Y-90841200D01*
X-551332400Y-113769400D02*
X-550788600Y-114313200D01*
X-551332400Y-99187000D02*
X-551332400Y-113769400D01*
%TO.N,Net-(C1-Pad1)*%
X-543217100Y-99174300D02*
X-543191700Y-99199700D01*
X-549173400Y-99174300D02*
X-543217100Y-99174300D01*
X-549173400Y-104368600D02*
X-549490900Y-104686100D01*
X-549173400Y-99174300D02*
X-549173400Y-104368600D01*
%TO.N,Net-(C2-Pad1)*%
X-551366500Y-97421700D02*
X-551340200Y-97448000D01*
X-556450500Y-97421700D02*
X-551366500Y-97421700D01*
X-557241001Y-99983999D02*
X-552272200Y-104952800D01*
X-557241001Y-98212201D02*
X-557241001Y-99983999D01*
X-556450500Y-97421700D02*
X-557241001Y-98212201D01*
%TO.N,+5V*%
X-553902450Y-118227050D02*
X-552284600Y-116609200D01*
X-553902450Y-122191350D02*
X-553902450Y-118227050D01*
X-533539700Y-110680500D02*
X-535813000Y-112953800D01*
X-533539700Y-89731901D02*
X-533539700Y-110680500D01*
X-556437800Y-75044300D02*
X-556437800Y-85664000D01*
X-562470300Y-69011800D02*
X-556437800Y-75044300D01*
%TO.N,Net-(C5-Pad1)*%
X-538429200Y-116344700D02*
X-538429200Y-104927400D01*
X-541743900Y-101612700D02*
X-543725100Y-101612700D01*
X-538429200Y-104927400D02*
X-541743900Y-101612700D01*
X-570204600Y-103759000D02*
X-572858900Y-106413300D01*
X-572858900Y-106413300D02*
X-572858900Y-106654600D01*
X-572858900Y-111493300D02*
X-571436500Y-112915700D01*
X-572858900Y-106654600D02*
X-572858900Y-111493300D01*
%TO.N,Net-(R1-Pad1)*%
X-585266800Y-117348000D02*
X-587197200Y-115417600D01*
X-587197200Y-77520800D02*
X-584238100Y-74561700D01*
X-587197200Y-115417600D02*
X-587197200Y-77520800D01*
%TO.N,Net-(R2-Pad1)*%
X-555053500Y-73101200D02*
X-555053500Y-87503000D01*
X-555053500Y-87503000D02*
X-573405000Y-105854500D01*
X-573405000Y-116049200D02*
X-569468000Y-119986200D01*
X-573405000Y-105854500D02*
X-573405000Y-116049200D01*
%TO.N,Net-(R3-Pad2)*%
X-537502100Y-85750400D02*
X-537488200Y-85736500D01*
X-540435800Y-85750400D02*
X-537502100Y-85750400D01*
X-537488200Y-100976500D02*
X-537488200Y-85736500D01*
X-538378400Y-102501700D02*
X-537488200Y-100976500D01*
X-533941020Y-82189320D02*
X-537488200Y-85736500D01*
X-533941020Y-57205880D02*
X-533941020Y-82189320D01*
%TO.N,Net-(R4-Pad2)*%
X-561124100Y-115595400D02*
X-558571400Y-118148100D01*
X-558571400Y-127685800D02*
X-554507400Y-131749800D01*
X-558571400Y-118148100D02*
X-558571400Y-127685800D01*
X-535241500Y-125031500D02*
X-537984700Y-122288300D01*
X-535241500Y-127596900D02*
X-535241500Y-125031500D01*
X-539305500Y-131660900D02*
X-535241500Y-127596900D01*
%TD*%
M02*
