%TF.GenerationSoftware,KiCad,Pcbnew,(5.1.10)-1*%
%TF.CreationDate,2021-06-23T23:40:24-07:00*%
%TF.ProjectId,HSC_Alice,4853435f-416c-4696-9365-2e6b69636164,rev?*%
%TF.SameCoordinates,Original*%
%TF.FileFunction,Copper,L2,Bot*%
%TF.FilePolarity,Positive*%
%FSLAX46Y46*%
G04 Gerber Fmt 4.6, Leading zero omitted, Abs format (unit mm)*
G04 Created by KiCad (PCBNEW (5.1.10)-1) date 2021-06-23 23:40:24*
%MOMM*%
%LPD*%
G01*
G04 APERTURE LIST*
%TA.AperFunction,ComponentPad*%
%ADD10C,2.250000*%
%TD*%
%TA.AperFunction,SMDPad,CuDef*%
%ADD11R,1.400000X1.200000*%
%TD*%
%TA.AperFunction,ComponentPad*%
%ADD12O,1.700000X2.700000*%
%TD*%
%TA.AperFunction,SMDPad,CuDef*%
%ADD13R,0.500000X2.250000*%
%TD*%
%TA.AperFunction,SMDPad,CuDef*%
%ADD14R,0.550000X1.500000*%
%TD*%
%TA.AperFunction,SMDPad,CuDef*%
%ADD15R,1.500000X0.550000*%
%TD*%
%TA.AperFunction,SMDPad,CuDef*%
%ADD16R,1.800000X1.100000*%
%TD*%
%TA.AperFunction,SMDPad,CuDef*%
%ADD17C,0.100000*%
%TD*%
%TA.AperFunction,SMDPad,CuDef*%
%ADD18R,1.200000X0.900000*%
%TD*%
%TA.AperFunction,SMDPad,CuDef*%
%ADD19R,0.900000X1.200000*%
%TD*%
%TA.AperFunction,ViaPad*%
%ADD20C,0.800000*%
%TD*%
%TA.AperFunction,Conductor*%
%ADD21C,0.254000*%
%TD*%
G04 APERTURE END LIST*
D10*
%TO.P,MX105,1*%
%TO.N,Col17*%
X-202401050Y-103188000D03*
%TA.AperFunction,ComponentPad*%
G36*
G01*
X-204462362Y-105485350D02*
X-204462367Y-105485345D01*
G75*
G02*
X-204548395Y-103896683I751317J837345D01*
G01*
X-203238393Y-102436683D01*
G75*
G02*
X-201649731Y-102350655I837345J-751317D01*
G01*
X-201649731Y-102350655D01*
G75*
G02*
X-201563703Y-103939317I-751317J-837345D01*
G01*
X-202873705Y-105399317D01*
G75*
G02*
X-204462367Y-105485345I-837345J751317D01*
G01*
G37*
%TD.AperFunction*%
%TO.P,MX105,2*%
%TO.N,Net-(D105-Pad2)*%
X-197361050Y-102108000D03*
%TA.AperFunction,ComponentPad*%
G36*
G01*
X-197477567Y-103810395D02*
X-197478453Y-103810334D01*
G75*
G02*
X-198523384Y-102610597I77403J1122334D01*
G01*
X-198483384Y-102030597D01*
G75*
G02*
X-197283647Y-100985666I1122334J-77403D01*
G01*
X-197283647Y-100985666D01*
G75*
G02*
X-196238716Y-102185403I-77403J-1122334D01*
G01*
X-196278716Y-102765403D01*
G75*
G02*
X-197478453Y-103810334I-1122334J77403D01*
G01*
G37*
%TD.AperFunction*%
%TD*%
%TO.P,MX106,1*%
%TO.N,Col4*%
X-508706750Y-130238000D03*
%TA.AperFunction,ComponentPad*%
G36*
G01*
X-506643978Y-127941962D02*
X-506645433Y-127940655D01*
G75*
G02*
X-506559405Y-129529317I-751317J-837345D01*
G01*
X-507869407Y-130989317D01*
G75*
G02*
X-509458069Y-131075345I-837345J751317D01*
G01*
X-509458069Y-131075345D01*
G75*
G02*
X-509544097Y-129486683I751317J837345D01*
G01*
X-508234095Y-128026683D01*
G75*
G02*
X-506645433Y-127940655I837345J-751317D01*
G01*
G37*
%TD.AperFunction*%
%TO.P,MX106,2*%
%TO.N,Net-(D28-Pad2)*%
X-513746750Y-131318000D03*
%TA.AperFunction,ComponentPad*%
G36*
G01*
X-513628274Y-129615740D02*
X-513629347Y-129615666D01*
G75*
G02*
X-512584416Y-130815403I-77403J-1122334D01*
G01*
X-512624416Y-131395403D01*
G75*
G02*
X-513824153Y-132440334I-1122334J77403D01*
G01*
X-513824153Y-132440334D01*
G75*
G02*
X-514869084Y-131240597I77403J1122334D01*
G01*
X-514829084Y-130660597D01*
G75*
G02*
X-513629347Y-129615666I1122334J-77403D01*
G01*
G37*
%TD.AperFunction*%
%TD*%
%TO.P,MX95,1*%
%TO.N,Col15*%
X-228594800Y-141288000D03*
%TA.AperFunction,ComponentPad*%
G36*
G01*
X-230656112Y-143585350D02*
X-230656117Y-143585345D01*
G75*
G02*
X-230742145Y-141996683I751317J837345D01*
G01*
X-229432143Y-140536683D01*
G75*
G02*
X-227843481Y-140450655I837345J-751317D01*
G01*
X-227843481Y-140450655D01*
G75*
G02*
X-227757453Y-142039317I-751317J-837345D01*
G01*
X-229067455Y-143499317D01*
G75*
G02*
X-230656117Y-143585345I-837345J751317D01*
G01*
G37*
%TD.AperFunction*%
%TO.P,MX95,2*%
%TO.N,Net-(D95-Pad2)*%
X-223554800Y-140208000D03*
%TA.AperFunction,ComponentPad*%
G36*
G01*
X-223671317Y-141910395D02*
X-223672203Y-141910334D01*
G75*
G02*
X-224717134Y-140710597I77403J1122334D01*
G01*
X-224677134Y-140130597D01*
G75*
G02*
X-223477397Y-139085666I1122334J-77403D01*
G01*
X-223477397Y-139085666D01*
G75*
G02*
X-222432466Y-140285403I-77403J-1122334D01*
G01*
X-222472466Y-140865403D01*
G75*
G02*
X-223672203Y-141910334I-1122334J77403D01*
G01*
G37*
%TD.AperFunction*%
%TD*%
%TO.P,MX29,1*%
%TO.N,Col4*%
X-527994250Y-141288000D03*
%TA.AperFunction,ComponentPad*%
G36*
G01*
X-530055562Y-143585350D02*
X-530055567Y-143585345D01*
G75*
G02*
X-530141595Y-141996683I751317J837345D01*
G01*
X-528831593Y-140536683D01*
G75*
G02*
X-527242931Y-140450655I837345J-751317D01*
G01*
X-527242931Y-140450655D01*
G75*
G02*
X-527156903Y-142039317I-751317J-837345D01*
G01*
X-528466905Y-143499317D01*
G75*
G02*
X-530055567Y-143585345I-837345J751317D01*
G01*
G37*
%TD.AperFunction*%
%TO.P,MX29,2*%
%TO.N,Net-(D29-Pad2)*%
X-522954250Y-140208000D03*
%TA.AperFunction,ComponentPad*%
G36*
G01*
X-523070767Y-141910395D02*
X-523071653Y-141910334D01*
G75*
G02*
X-524116584Y-140710597I77403J1122334D01*
G01*
X-524076584Y-140130597D01*
G75*
G02*
X-522876847Y-139085666I1122334J-77403D01*
G01*
X-522876847Y-139085666D01*
G75*
G02*
X-521831916Y-140285403I-77403J-1122334D01*
G01*
X-521871916Y-140865403D01*
G75*
G02*
X-523071653Y-141910334I-1122334J77403D01*
G01*
G37*
%TD.AperFunction*%
%TD*%
%TO.P,MX6,1*%
%TO.N,Col0*%
X-658963000Y-160338000D03*
%TA.AperFunction,ComponentPad*%
G36*
G01*
X-661024312Y-162635350D02*
X-661024317Y-162635345D01*
G75*
G02*
X-661110345Y-161046683I751317J837345D01*
G01*
X-659800343Y-159586683D01*
G75*
G02*
X-658211681Y-159500655I837345J-751317D01*
G01*
X-658211681Y-159500655D01*
G75*
G02*
X-658125653Y-161089317I-751317J-837345D01*
G01*
X-659435655Y-162549317D01*
G75*
G02*
X-661024317Y-162635345I-837345J751317D01*
G01*
G37*
%TD.AperFunction*%
%TO.P,MX6,2*%
%TO.N,Net-(D6-Pad2)*%
X-653923000Y-159258000D03*
%TA.AperFunction,ComponentPad*%
G36*
G01*
X-654039517Y-160960395D02*
X-654040403Y-160960334D01*
G75*
G02*
X-655085334Y-159760597I77403J1122334D01*
G01*
X-655045334Y-159180597D01*
G75*
G02*
X-653845597Y-158135666I1122334J-77403D01*
G01*
X-653845597Y-158135666D01*
G75*
G02*
X-652800666Y-159335403I-77403J-1122334D01*
G01*
X-652840666Y-159915403D01*
G75*
G02*
X-654040403Y-160960334I-1122334J77403D01*
G01*
G37*
%TD.AperFunction*%
%TD*%
%TO.P,MX100,1*%
%TO.N,Col0*%
X-649438000Y-160338000D03*
%TA.AperFunction,ComponentPad*%
G36*
G01*
X-651499312Y-162635350D02*
X-651499317Y-162635345D01*
G75*
G02*
X-651585345Y-161046683I751317J837345D01*
G01*
X-650275343Y-159586683D01*
G75*
G02*
X-648686681Y-159500655I837345J-751317D01*
G01*
X-648686681Y-159500655D01*
G75*
G02*
X-648600653Y-161089317I-751317J-837345D01*
G01*
X-649910655Y-162549317D01*
G75*
G02*
X-651499317Y-162635345I-837345J751317D01*
G01*
G37*
%TD.AperFunction*%
%TO.P,MX100,2*%
%TO.N,Net-(D6-Pad2)*%
X-644398000Y-159258000D03*
%TA.AperFunction,ComponentPad*%
G36*
G01*
X-644514517Y-160960395D02*
X-644515403Y-160960334D01*
G75*
G02*
X-645560334Y-159760597I77403J1122334D01*
G01*
X-645520334Y-159180597D01*
G75*
G02*
X-644320597Y-158135666I1122334J-77403D01*
G01*
X-644320597Y-158135666D01*
G75*
G02*
X-643275666Y-159335403I-77403J-1122334D01*
G01*
X-643315666Y-159915403D01*
G75*
G02*
X-644515403Y-160960334I-1122334J77403D01*
G01*
G37*
%TD.AperFunction*%
%TD*%
%TO.P,MX72,1*%
%TO.N,Col11*%
X-341896477Y-177759053D03*
%TA.AperFunction,ComponentPad*%
G36*
G01*
X-343292953Y-180511630D02*
X-343292960Y-180511627D01*
G75*
G02*
X-343787233Y-178999362I508996J1003269D01*
G01*
X-342899745Y-177250058D01*
G75*
G02*
X-341387480Y-176755785I1003269J-508996D01*
G01*
X-341387480Y-176755785D01*
G75*
G02*
X-340893207Y-178268050I-508996J-1003269D01*
G01*
X-341780695Y-180017354D01*
G75*
G02*
X-343292960Y-180511627I-1003269J508996D01*
G01*
G37*
%TD.AperFunction*%
%TO.P,MX72,2*%
%TO.N,Net-(D72-Pad2)*%
X-337307735Y-175411405D03*
%TA.AperFunction,ComponentPad*%
G36*
G01*
X-336979670Y-177085949D02*
X-336980541Y-177086120D01*
G75*
G02*
X-338300382Y-176197711I-215716J1104125D01*
G01*
X-338411860Y-175627121D01*
G75*
G02*
X-337523451Y-174307280I1104125J215716D01*
G01*
X-337523451Y-174307280D01*
G75*
G02*
X-336203610Y-175195689I215716J-1104125D01*
G01*
X-336092132Y-175766279D01*
G75*
G02*
X-336980541Y-177086120I-1104125J-215716D01*
G01*
G37*
%TD.AperFunction*%
%TD*%
%TO.P,MX48,1*%
%TO.N,Col7*%
X-428864365Y-171534454D03*
%TA.AperFunction,ComponentPad*%
G36*
G01*
X-431450038Y-173220018D02*
X-431450042Y-173220011D01*
G75*
G02*
X-431121962Y-171663215I942438J614358D01*
G01*
X-429478722Y-170592017D01*
G75*
G02*
X-427921926Y-170920097I614358J-942438D01*
G01*
X-427921926Y-170920097D01*
G75*
G02*
X-428250006Y-172476893I-942438J-614358D01*
G01*
X-429893246Y-173548091D01*
G75*
G02*
X-431450042Y-173220011I-614358J942438D01*
G01*
G37*
%TD.AperFunction*%
%TO.P,MX48,2*%
%TO.N,Net-(D48-Pad2)*%
X-423716575Y-171795702D03*
%TA.AperFunction,ComponentPad*%
G36*
G01*
X-424269734Y-173409932D02*
X-424270574Y-173409644D01*
G75*
G02*
X-424969385Y-171980339I365247J1064058D01*
G01*
X-424780633Y-171430455D01*
G75*
G02*
X-423351328Y-170731644I1064058J-365247D01*
G01*
X-423351328Y-170731644D01*
G75*
G02*
X-422652517Y-172160949I-365247J-1064058D01*
G01*
X-422841269Y-172710833D01*
G75*
G02*
X-424270574Y-173409644I-1064058J365247D01*
G01*
G37*
%TD.AperFunction*%
%TD*%
%TO.P,MX28,1*%
%TO.N,Col4*%
X-518469250Y-122238000D03*
%TA.AperFunction,ComponentPad*%
G36*
G01*
X-520530562Y-124535350D02*
X-520530567Y-124535345D01*
G75*
G02*
X-520616595Y-122946683I751317J837345D01*
G01*
X-519306593Y-121486683D01*
G75*
G02*
X-517717931Y-121400655I837345J-751317D01*
G01*
X-517717931Y-121400655D01*
G75*
G02*
X-517631903Y-122989317I-751317J-837345D01*
G01*
X-518941905Y-124449317D01*
G75*
G02*
X-520530567Y-124535345I-837345J751317D01*
G01*
G37*
%TD.AperFunction*%
%TO.P,MX28,2*%
%TO.N,Net-(D28-Pad2)*%
X-513429250Y-121158000D03*
%TA.AperFunction,ComponentPad*%
G36*
G01*
X-513545767Y-122860395D02*
X-513546653Y-122860334D01*
G75*
G02*
X-514591584Y-121660597I77403J1122334D01*
G01*
X-514551584Y-121080597D01*
G75*
G02*
X-513351847Y-120035666I1122334J-77403D01*
G01*
X-513351847Y-120035666D01*
G75*
G02*
X-512306916Y-121235403I-77403J-1122334D01*
G01*
X-512346916Y-121815403D01*
G75*
G02*
X-513546653Y-122860334I-1122334J77403D01*
G01*
G37*
%TD.AperFunction*%
%TD*%
D11*
%TO.P,Y1,4*%
%TO.N,GND*%
X-549140200Y-97448000D03*
%TO.P,Y1,3*%
%TO.N,Net-(C2-Pad1)*%
X-551340200Y-97448000D03*
%TO.P,Y1,2*%
%TO.N,GND*%
X-551340200Y-99148000D03*
%TO.P,Y1,1*%
%TO.N,Net-(C1-Pad1)*%
X-549140200Y-99148000D03*
%TD*%
D12*
%TO.P,USB1,6*%
%TO.N,Net-(USB1-Pad6)*%
X-564228000Y-56565800D03*
X-556928000Y-56565800D03*
X-556928000Y-61065800D03*
X-564228000Y-61065800D03*
D13*
%TO.P,USB1,5*%
%TO.N,VCC*%
X-562178000Y-61065800D03*
%TO.P,USB1,4*%
%TO.N,D-*%
X-561378000Y-61065800D03*
%TO.P,USB1,3*%
%TO.N,D+*%
X-560578000Y-61065800D03*
%TO.P,USB1,2*%
%TO.N,Net-(USB1-Pad2)*%
X-559778000Y-61065800D03*
%TO.P,USB1,1*%
%TO.N,GND*%
X-558978000Y-61065800D03*
%TD*%
D14*
%TO.P,U1,44*%
%TO.N,+5V*%
X-553884600Y-124013200D03*
%TO.P,U1,43*%
%TO.N,GND*%
X-553084600Y-124013200D03*
%TO.P,U1,42*%
%TO.N,Net-(U1-Pad42)*%
X-552284600Y-124013200D03*
%TO.P,U1,41*%
%TO.N,Row2*%
X-551484600Y-124013200D03*
%TO.P,U1,40*%
%TO.N,Col15*%
X-550684600Y-124013200D03*
%TO.P,U1,39*%
%TO.N,Col16*%
X-549884600Y-124013200D03*
%TO.P,U1,38*%
%TO.N,Col17*%
X-549084600Y-124013200D03*
%TO.P,U1,37*%
%TO.N,Col14*%
X-548284600Y-124013200D03*
%TO.P,U1,36*%
%TO.N,Col13*%
X-547484600Y-124013200D03*
%TO.P,U1,35*%
%TO.N,GND*%
X-546684600Y-124013200D03*
%TO.P,U1,34*%
%TO.N,+5V*%
X-545884600Y-124013200D03*
D15*
%TO.P,U1,33*%
%TO.N,Net-(R4-Pad2)*%
X-544184600Y-122313200D03*
%TO.P,U1,32*%
%TO.N,Col4*%
X-544184600Y-121513200D03*
%TO.P,U1,31*%
%TO.N,Col3*%
X-544184600Y-120713200D03*
%TO.P,U1,30*%
%TO.N,Col0*%
X-544184600Y-119913200D03*
%TO.P,U1,29*%
%TO.N,Row5*%
X-544184600Y-119113200D03*
%TO.P,U1,28*%
%TO.N,Row4*%
X-544184600Y-118313200D03*
%TO.P,U1,27*%
%TO.N,Col12*%
X-544184600Y-117513200D03*
%TO.P,U1,26*%
%TO.N,Col11*%
X-544184600Y-116713200D03*
%TO.P,U1,25*%
%TO.N,Col9*%
X-544184600Y-115913200D03*
%TO.P,U1,24*%
%TO.N,+5V*%
X-544184600Y-115113200D03*
%TO.P,U1,23*%
%TO.N,GND*%
X-544184600Y-114313200D03*
D14*
%TO.P,U1,22*%
%TO.N,Col10*%
X-545884600Y-112613200D03*
%TO.P,U1,21*%
%TO.N,Col8*%
X-546684600Y-112613200D03*
%TO.P,U1,20*%
%TO.N,Col7*%
X-547484600Y-112613200D03*
%TO.P,U1,19*%
%TO.N,Col6*%
X-548284600Y-112613200D03*
%TO.P,U1,18*%
%TO.N,Col5*%
X-549084600Y-112613200D03*
%TO.P,U1,17*%
%TO.N,Net-(C1-Pad1)*%
X-549884600Y-112613200D03*
%TO.P,U1,16*%
%TO.N,Net-(C2-Pad1)*%
X-550684600Y-112613200D03*
%TO.P,U1,15*%
%TO.N,GND*%
X-551484600Y-112613200D03*
%TO.P,U1,14*%
%TO.N,+5V*%
X-552284600Y-112613200D03*
%TO.P,U1,13*%
%TO.N,Net-(R3-Pad2)*%
X-553084600Y-112613200D03*
%TO.P,U1,12*%
%TO.N,Col1*%
X-553884600Y-112613200D03*
D15*
%TO.P,U1,11*%
%TO.N,Row3*%
X-555584600Y-114313200D03*
%TO.P,U1,10*%
%TO.N,Net-(U1-Pad10)*%
X-555584600Y-115113200D03*
%TO.P,U1,9*%
%TO.N,Row1*%
X-555584600Y-115913200D03*
%TO.P,U1,8*%
%TO.N,Row0*%
X-555584600Y-116713200D03*
%TO.P,U1,7*%
%TO.N,+5V*%
X-555584600Y-117513200D03*
%TO.P,U1,6*%
%TO.N,Net-(C5-Pad1)*%
X-555584600Y-118313200D03*
%TO.P,U1,5*%
%TO.N,GND*%
X-555584600Y-119113200D03*
%TO.P,U1,4*%
%TO.N,Net-(R2-Pad1)*%
X-555584600Y-119913200D03*
%TO.P,U1,3*%
%TO.N,Net-(R1-Pad1)*%
X-555584600Y-120713200D03*
%TO.P,U1,2*%
%TO.N,+5V*%
X-555584600Y-121513200D03*
%TO.P,U1,1*%
%TO.N,Col2*%
X-555584600Y-122313200D03*
%TD*%
D16*
%TO.P,SW1,4*%
%TO.N,N/C*%
X-537488200Y-59266700D03*
%TO.P,SW1,3*%
X-543688200Y-55566700D03*
%TO.P,SW1,2*%
%TO.N,Net-(R3-Pad2)*%
X-537488200Y-55566700D03*
%TO.P,SW1,1*%
%TO.N,GND*%
X-543688200Y-59266700D03*
%TD*%
%TO.P,R4,2*%
%TO.N,Net-(R4-Pad2)*%
%TA.AperFunction,SMDPad,CuDef*%
G36*
G01*
X-565764100Y-114762702D02*
X-565764100Y-113862698D01*
G75*
G02*
X-565514102Y-113612700I249998J0D01*
G01*
X-564989098Y-113612700D01*
G75*
G02*
X-564739100Y-113862698I0J-249998D01*
G01*
X-564739100Y-114762702D01*
G75*
G02*
X-564989098Y-115012700I-249998J0D01*
G01*
X-565514102Y-115012700D01*
G75*
G02*
X-565764100Y-114762702I0J249998D01*
G01*
G37*
%TD.AperFunction*%
%TO.P,R4,1*%
%TO.N,GND*%
%TA.AperFunction,SMDPad,CuDef*%
G36*
G01*
X-567589100Y-114762702D02*
X-567589100Y-113862698D01*
G75*
G02*
X-567339102Y-113612700I249998J0D01*
G01*
X-566814098Y-113612700D01*
G75*
G02*
X-566564100Y-113862698I0J-249998D01*
G01*
X-566564100Y-114762702D01*
G75*
G02*
X-566814098Y-115012700I-249998J0D01*
G01*
X-567339102Y-115012700D01*
G75*
G02*
X-567589100Y-114762702I0J249998D01*
G01*
G37*
%TD.AperFunction*%
%TD*%
%TO.P,R3,1*%
%TO.N,+5V*%
%TA.AperFunction,SMDPad,CuDef*%
G36*
G01*
X-539973098Y-88102500D02*
X-540873102Y-88102500D01*
G75*
G02*
X-541123100Y-87852502I0J249998D01*
G01*
X-541123100Y-87327498D01*
G75*
G02*
X-540873102Y-87077500I249998J0D01*
G01*
X-539973098Y-87077500D01*
G75*
G02*
X-539723100Y-87327498I0J-249998D01*
G01*
X-539723100Y-87852502D01*
G75*
G02*
X-539973098Y-88102500I-249998J0D01*
G01*
G37*
%TD.AperFunction*%
%TO.P,R3,2*%
%TO.N,Net-(R3-Pad2)*%
%TA.AperFunction,SMDPad,CuDef*%
G36*
G01*
X-539973098Y-86277500D02*
X-540873102Y-86277500D01*
G75*
G02*
X-541123100Y-86027502I0J249998D01*
G01*
X-541123100Y-85502498D01*
G75*
G02*
X-540873102Y-85252500I249998J0D01*
G01*
X-539973098Y-85252500D01*
G75*
G02*
X-539723100Y-85502498I0J-249998D01*
G01*
X-539723100Y-86027502D01*
G75*
G02*
X-539973098Y-86277500I-249998J0D01*
G01*
G37*
%TD.AperFunction*%
%TD*%
%TO.P,R2,2*%
%TO.N,D+*%
%TA.AperFunction,SMDPad,CuDef*%
G36*
G01*
X-559429600Y-71368498D02*
X-559429600Y-72268502D01*
G75*
G02*
X-559679598Y-72518500I-249998J0D01*
G01*
X-560204602Y-72518500D01*
G75*
G02*
X-560454600Y-72268502I0J249998D01*
G01*
X-560454600Y-71368498D01*
G75*
G02*
X-560204602Y-71118500I249998J0D01*
G01*
X-559679598Y-71118500D01*
G75*
G02*
X-559429600Y-71368498I0J-249998D01*
G01*
G37*
%TD.AperFunction*%
%TO.P,R2,1*%
%TO.N,Net-(R2-Pad1)*%
%TA.AperFunction,SMDPad,CuDef*%
G36*
G01*
X-557604600Y-71368498D02*
X-557604600Y-72268502D01*
G75*
G02*
X-557854598Y-72518500I-249998J0D01*
G01*
X-558379602Y-72518500D01*
G75*
G02*
X-558629600Y-72268502I0J249998D01*
G01*
X-558629600Y-71368498D01*
G75*
G02*
X-558379602Y-71118500I249998J0D01*
G01*
X-557854598Y-71118500D01*
G75*
G02*
X-557604600Y-71368498I0J-249998D01*
G01*
G37*
%TD.AperFunction*%
%TD*%
%TO.P,R1,2*%
%TO.N,D-*%
%TA.AperFunction,SMDPad,CuDef*%
G36*
G01*
X-562629600Y-72268502D02*
X-562629600Y-71368498D01*
G75*
G02*
X-562379602Y-71118500I249998J0D01*
G01*
X-561854598Y-71118500D01*
G75*
G02*
X-561604600Y-71368498I0J-249998D01*
G01*
X-561604600Y-72268502D01*
G75*
G02*
X-561854598Y-72518500I-249998J0D01*
G01*
X-562379602Y-72518500D01*
G75*
G02*
X-562629600Y-72268502I0J249998D01*
G01*
G37*
%TD.AperFunction*%
%TO.P,R1,1*%
%TO.N,Net-(R1-Pad1)*%
%TA.AperFunction,SMDPad,CuDef*%
G36*
G01*
X-564454600Y-72268502D02*
X-564454600Y-71368498D01*
G75*
G02*
X-564204602Y-71118500I249998J0D01*
G01*
X-563679598Y-71118500D01*
G75*
G02*
X-563429600Y-71368498I0J-249998D01*
G01*
X-563429600Y-72268502D01*
G75*
G02*
X-563679598Y-72518500I-249998J0D01*
G01*
X-564204602Y-72518500D01*
G75*
G02*
X-564454600Y-72268502I0J249998D01*
G01*
G37*
%TD.AperFunction*%
%TD*%
%TO.P,F1,2*%
%TO.N,VCC*%
%TA.AperFunction,SMDPad,CuDef*%
G36*
G01*
X-572145000Y-65417400D02*
X-573395000Y-65417400D01*
G75*
G02*
X-573645000Y-65167400I0J250000D01*
G01*
X-573645000Y-64417400D01*
G75*
G02*
X-573395000Y-64167400I250000J0D01*
G01*
X-572145000Y-64167400D01*
G75*
G02*
X-571895000Y-64417400I0J-250000D01*
G01*
X-571895000Y-65167400D01*
G75*
G02*
X-572145000Y-65417400I-250000J0D01*
G01*
G37*
%TD.AperFunction*%
%TO.P,F1,1*%
%TO.N,+5V*%
%TA.AperFunction,SMDPad,CuDef*%
G36*
G01*
X-572145000Y-68217400D02*
X-573395000Y-68217400D01*
G75*
G02*
X-573645000Y-67967400I0J250000D01*
G01*
X-573645000Y-67217400D01*
G75*
G02*
X-573395000Y-66967400I250000J0D01*
G01*
X-572145000Y-66967400D01*
G75*
G02*
X-571895000Y-67217400I0J-250000D01*
G01*
X-571895000Y-67967400D01*
G75*
G02*
X-572145000Y-68217400I-250000J0D01*
G01*
G37*
%TD.AperFunction*%
%TD*%
%TO.P,C7,2*%
%TO.N,GND*%
%TA.AperFunction,SMDPad,CuDef*%
G36*
G01*
X-544746200Y-87064000D02*
X-543796200Y-87064000D01*
G75*
G02*
X-543546200Y-87314000I0J-250000D01*
G01*
X-543546200Y-87814000D01*
G75*
G02*
X-543796200Y-88064000I-250000J0D01*
G01*
X-544746200Y-88064000D01*
G75*
G02*
X-544996200Y-87814000I0J250000D01*
G01*
X-544996200Y-87314000D01*
G75*
G02*
X-544746200Y-87064000I250000J0D01*
G01*
G37*
%TD.AperFunction*%
%TO.P,C7,1*%
%TO.N,+5V*%
%TA.AperFunction,SMDPad,CuDef*%
G36*
G01*
X-544746200Y-85164000D02*
X-543796200Y-85164000D01*
G75*
G02*
X-543546200Y-85414000I0J-250000D01*
G01*
X-543546200Y-85914000D01*
G75*
G02*
X-543796200Y-86164000I-250000J0D01*
G01*
X-544746200Y-86164000D01*
G75*
G02*
X-544996200Y-85914000I0J250000D01*
G01*
X-544996200Y-85414000D01*
G75*
G02*
X-544746200Y-85164000I250000J0D01*
G01*
G37*
%TD.AperFunction*%
%TD*%
%TO.P,C6,2*%
%TO.N,GND*%
%TA.AperFunction,SMDPad,CuDef*%
G36*
G01*
X-548759400Y-87140200D02*
X-547809400Y-87140200D01*
G75*
G02*
X-547559400Y-87390200I0J-250000D01*
G01*
X-547559400Y-87890200D01*
G75*
G02*
X-547809400Y-88140200I-250000J0D01*
G01*
X-548759400Y-88140200D01*
G75*
G02*
X-549009400Y-87890200I0J250000D01*
G01*
X-549009400Y-87390200D01*
G75*
G02*
X-548759400Y-87140200I250000J0D01*
G01*
G37*
%TD.AperFunction*%
%TO.P,C6,1*%
%TO.N,+5V*%
%TA.AperFunction,SMDPad,CuDef*%
G36*
G01*
X-548759400Y-85240200D02*
X-547809400Y-85240200D01*
G75*
G02*
X-547559400Y-85490200I0J-250000D01*
G01*
X-547559400Y-85990200D01*
G75*
G02*
X-547809400Y-86240200I-250000J0D01*
G01*
X-548759400Y-86240200D01*
G75*
G02*
X-549009400Y-85990200I0J250000D01*
G01*
X-549009400Y-85490200D01*
G75*
G02*
X-548759400Y-85240200I250000J0D01*
G01*
G37*
%TD.AperFunction*%
%TD*%
%TO.P,C5,2*%
%TO.N,GND*%
%TA.AperFunction,SMDPad,CuDef*%
G36*
G01*
X-533661600Y-116796400D02*
X-534611600Y-116796400D01*
G75*
G02*
X-534861600Y-116546400I0J250000D01*
G01*
X-534861600Y-116046400D01*
G75*
G02*
X-534611600Y-115796400I250000J0D01*
G01*
X-533661600Y-115796400D01*
G75*
G02*
X-533411600Y-116046400I0J-250000D01*
G01*
X-533411600Y-116546400D01*
G75*
G02*
X-533661600Y-116796400I-250000J0D01*
G01*
G37*
%TD.AperFunction*%
%TO.P,C5,1*%
%TO.N,Net-(C5-Pad1)*%
%TA.AperFunction,SMDPad,CuDef*%
G36*
G01*
X-533661600Y-118696400D02*
X-534611600Y-118696400D01*
G75*
G02*
X-534861600Y-118446400I0J250000D01*
G01*
X-534861600Y-117946400D01*
G75*
G02*
X-534611600Y-117696400I250000J0D01*
G01*
X-533661600Y-117696400D01*
G75*
G02*
X-533411600Y-117946400I0J-250000D01*
G01*
X-533411600Y-118446400D01*
G75*
G02*
X-533661600Y-118696400I-250000J0D01*
G01*
G37*
%TD.AperFunction*%
%TD*%
%TO.P,C4,2*%
%TO.N,GND*%
%TA.AperFunction,SMDPad,CuDef*%
G36*
G01*
X-552772600Y-87114800D02*
X-551822600Y-87114800D01*
G75*
G02*
X-551572600Y-87364800I0J-250000D01*
G01*
X-551572600Y-87864800D01*
G75*
G02*
X-551822600Y-88114800I-250000J0D01*
G01*
X-552772600Y-88114800D01*
G75*
G02*
X-553022600Y-87864800I0J250000D01*
G01*
X-553022600Y-87364800D01*
G75*
G02*
X-552772600Y-87114800I250000J0D01*
G01*
G37*
%TD.AperFunction*%
%TO.P,C4,1*%
%TO.N,+5V*%
%TA.AperFunction,SMDPad,CuDef*%
G36*
G01*
X-552772600Y-85214800D02*
X-551822600Y-85214800D01*
G75*
G02*
X-551572600Y-85464800I0J-250000D01*
G01*
X-551572600Y-85964800D01*
G75*
G02*
X-551822600Y-86214800I-250000J0D01*
G01*
X-552772600Y-86214800D01*
G75*
G02*
X-553022600Y-85964800I0J250000D01*
G01*
X-553022600Y-85464800D01*
G75*
G02*
X-552772600Y-85214800I250000J0D01*
G01*
G37*
%TD.AperFunction*%
%TD*%
%TO.P,C3,2*%
%TO.N,GND*%
%TA.AperFunction,SMDPad,CuDef*%
G36*
G01*
X-556912800Y-87064000D02*
X-555962800Y-87064000D01*
G75*
G02*
X-555712800Y-87314000I0J-250000D01*
G01*
X-555712800Y-87814000D01*
G75*
G02*
X-555962800Y-88064000I-250000J0D01*
G01*
X-556912800Y-88064000D01*
G75*
G02*
X-557162800Y-87814000I0J250000D01*
G01*
X-557162800Y-87314000D01*
G75*
G02*
X-556912800Y-87064000I250000J0D01*
G01*
G37*
%TD.AperFunction*%
%TO.P,C3,1*%
%TO.N,+5V*%
%TA.AperFunction,SMDPad,CuDef*%
G36*
G01*
X-556912800Y-85164000D02*
X-555962800Y-85164000D01*
G75*
G02*
X-555712800Y-85414000I0J-250000D01*
G01*
X-555712800Y-85914000D01*
G75*
G02*
X-555962800Y-86164000I-250000J0D01*
G01*
X-556912800Y-86164000D01*
G75*
G02*
X-557162800Y-85914000I0J250000D01*
G01*
X-557162800Y-85414000D01*
G75*
G02*
X-556912800Y-85164000I250000J0D01*
G01*
G37*
%TD.AperFunction*%
%TD*%
%TO.P,C2,2*%
%TO.N,GND*%
%TA.AperFunction,SMDPad,CuDef*%
G36*
G01*
X-556912800Y-98824200D02*
X-555962800Y-98824200D01*
G75*
G02*
X-555712800Y-99074200I0J-250000D01*
G01*
X-555712800Y-99574200D01*
G75*
G02*
X-555962800Y-99824200I-250000J0D01*
G01*
X-556912800Y-99824200D01*
G75*
G02*
X-557162800Y-99574200I0J250000D01*
G01*
X-557162800Y-99074200D01*
G75*
G02*
X-556912800Y-98824200I250000J0D01*
G01*
G37*
%TD.AperFunction*%
%TO.P,C2,1*%
%TO.N,Net-(C2-Pad1)*%
%TA.AperFunction,SMDPad,CuDef*%
G36*
G01*
X-556912800Y-96924200D02*
X-555962800Y-96924200D01*
G75*
G02*
X-555712800Y-97174200I0J-250000D01*
G01*
X-555712800Y-97674200D01*
G75*
G02*
X-555962800Y-97924200I-250000J0D01*
G01*
X-556912800Y-97924200D01*
G75*
G02*
X-557162800Y-97674200I0J250000D01*
G01*
X-557162800Y-97174200D01*
G75*
G02*
X-556912800Y-96924200I250000J0D01*
G01*
G37*
%TD.AperFunction*%
%TD*%
%TO.P,C1,2*%
%TO.N,GND*%
%TA.AperFunction,SMDPad,CuDef*%
G36*
G01*
X-542729400Y-97797200D02*
X-543679400Y-97797200D01*
G75*
G02*
X-543929400Y-97547200I0J250000D01*
G01*
X-543929400Y-97047200D01*
G75*
G02*
X-543679400Y-96797200I250000J0D01*
G01*
X-542729400Y-96797200D01*
G75*
G02*
X-542479400Y-97047200I0J-250000D01*
G01*
X-542479400Y-97547200D01*
G75*
G02*
X-542729400Y-97797200I-250000J0D01*
G01*
G37*
%TD.AperFunction*%
%TO.P,C1,1*%
%TO.N,Net-(C1-Pad1)*%
%TA.AperFunction,SMDPad,CuDef*%
G36*
G01*
X-542729400Y-99697200D02*
X-543679400Y-99697200D01*
G75*
G02*
X-543929400Y-99447200I0J250000D01*
G01*
X-543929400Y-98947200D01*
G75*
G02*
X-543679400Y-98697200I250000J0D01*
G01*
X-542729400Y-98697200D01*
G75*
G02*
X-542479400Y-98947200I0J-250000D01*
G01*
X-542479400Y-99447200D01*
G75*
G02*
X-542729400Y-99697200I-250000J0D01*
G01*
G37*
%TD.AperFunction*%
%TD*%
D10*
%TO.P,MX54,1*%
%TO.N,Col8*%
X-394362702Y-180779146D03*
%TA.AperFunction,ComponentPad*%
G36*
G01*
X-396948375Y-182464710D02*
X-396948379Y-182464703D01*
G75*
G02*
X-396620299Y-180907907I942438J614358D01*
G01*
X-394977059Y-179836709D01*
G75*
G02*
X-393420263Y-180164789I614358J-942438D01*
G01*
X-393420263Y-180164789D01*
G75*
G02*
X-393748343Y-181721585I-942438J-614358D01*
G01*
X-395391583Y-182792783D01*
G75*
G02*
X-396948379Y-182464703I-614358J942438D01*
G01*
G37*
%TD.AperFunction*%
%TO.P,MX54,2*%
%TO.N,Net-(D54-Pad2)*%
X-389214912Y-181040394D03*
%TA.AperFunction,ComponentPad*%
G36*
G01*
X-389768071Y-182654624D02*
X-389768911Y-182654336D01*
G75*
G02*
X-390467722Y-181225031I365247J1064058D01*
G01*
X-390278970Y-180675147D01*
G75*
G02*
X-388849665Y-179976336I1064058J-365247D01*
G01*
X-388849665Y-179976336D01*
G75*
G02*
X-388150854Y-181405641I-365247J-1064058D01*
G01*
X-388339606Y-181955525D01*
G75*
G02*
X-389768911Y-182654336I-1064058J365247D01*
G01*
G37*
%TD.AperFunction*%
%TD*%
%TA.AperFunction,SMDPad,CuDef*%
D17*
%TO.P,D37,2*%
%TO.N,Net-(D37-Pad2)*%
G36*
X-436703335Y-67300675D02*
G01*
X-437862446Y-66990092D01*
X-437629509Y-66120759D01*
X-436470398Y-66431342D01*
X-436703335Y-67300675D01*
G37*
%TD.AperFunction*%
%TA.AperFunction,SMDPad,CuDef*%
%TO.P,D37,1*%
%TO.N,Row0*%
G36*
X-437557437Y-70488231D02*
G01*
X-438716548Y-70177648D01*
X-438483611Y-69308315D01*
X-437324500Y-69618898D01*
X-437557437Y-70488231D01*
G37*
%TD.AperFunction*%
%TD*%
D18*
%TO.P,D19,2*%
%TO.N,Net-(D19-Pad2)*%
X-513524500Y-62675500D03*
%TO.P,D19,1*%
%TO.N,Row0*%
X-513524500Y-65975500D03*
%TD*%
D10*
%TO.P,MX104,1*%
%TO.N,Col17*%
X-207163550Y-84138000D03*
%TA.AperFunction,ComponentPad*%
G36*
G01*
X-209224862Y-86435350D02*
X-209224867Y-86435345D01*
G75*
G02*
X-209310895Y-84846683I751317J837345D01*
G01*
X-208000893Y-83386683D01*
G75*
G02*
X-206412231Y-83300655I837345J-751317D01*
G01*
X-206412231Y-83300655D01*
G75*
G02*
X-206326203Y-84889317I-751317J-837345D01*
G01*
X-207636205Y-86349317D01*
G75*
G02*
X-209224867Y-86435345I-837345J751317D01*
G01*
G37*
%TD.AperFunction*%
%TO.P,MX104,2*%
%TO.N,Net-(D104-Pad2)*%
X-202123550Y-83058000D03*
%TA.AperFunction,ComponentPad*%
G36*
G01*
X-202240067Y-84760395D02*
X-202240953Y-84760334D01*
G75*
G02*
X-203285884Y-83560597I77403J1122334D01*
G01*
X-203245884Y-82980597D01*
G75*
G02*
X-202046147Y-81935666I1122334J-77403D01*
G01*
X-202046147Y-81935666D01*
G75*
G02*
X-201001216Y-83135403I-77403J-1122334D01*
G01*
X-201041216Y-83715403D01*
G75*
G02*
X-202240953Y-84760334I-1122334J77403D01*
G01*
G37*
%TD.AperFunction*%
%TD*%
%TO.P,MX103,1*%
%TO.N,Col17*%
X-197638550Y-60325500D03*
%TA.AperFunction,ComponentPad*%
G36*
G01*
X-199699862Y-62622850D02*
X-199699867Y-62622845D01*
G75*
G02*
X-199785895Y-61034183I751317J837345D01*
G01*
X-198475893Y-59574183D01*
G75*
G02*
X-196887231Y-59488155I837345J-751317D01*
G01*
X-196887231Y-59488155D01*
G75*
G02*
X-196801203Y-61076817I-751317J-837345D01*
G01*
X-198111205Y-62536817D01*
G75*
G02*
X-199699867Y-62622845I-837345J751317D01*
G01*
G37*
%TD.AperFunction*%
%TO.P,MX103,2*%
%TO.N,Net-(D103-Pad2)*%
X-192598550Y-59245500D03*
%TA.AperFunction,ComponentPad*%
G36*
G01*
X-192715067Y-60947895D02*
X-192715953Y-60947834D01*
G75*
G02*
X-193760884Y-59748097I77403J1122334D01*
G01*
X-193720884Y-59168097D01*
G75*
G02*
X-192521147Y-58123166I1122334J-77403D01*
G01*
X-192521147Y-58123166D01*
G75*
G02*
X-191476216Y-59322903I-77403J-1122334D01*
G01*
X-191516216Y-59902903D01*
G75*
G02*
X-192715953Y-60947834I-1122334J77403D01*
G01*
G37*
%TD.AperFunction*%
%TD*%
%TO.P,MX102,1*%
%TO.N,Col16*%
X-197638550Y-141288000D03*
%TA.AperFunction,ComponentPad*%
G36*
G01*
X-199699862Y-143585350D02*
X-199699867Y-143585345D01*
G75*
G02*
X-199785895Y-141996683I751317J837345D01*
G01*
X-198475893Y-140536683D01*
G75*
G02*
X-196887231Y-140450655I837345J-751317D01*
G01*
X-196887231Y-140450655D01*
G75*
G02*
X-196801203Y-142039317I-751317J-837345D01*
G01*
X-198111205Y-143499317D01*
G75*
G02*
X-199699867Y-143585345I-837345J751317D01*
G01*
G37*
%TD.AperFunction*%
%TO.P,MX102,2*%
%TO.N,Net-(D102-Pad2)*%
X-192598550Y-140208000D03*
%TA.AperFunction,ComponentPad*%
G36*
G01*
X-192715067Y-141910395D02*
X-192715953Y-141910334D01*
G75*
G02*
X-193760884Y-140710597I77403J1122334D01*
G01*
X-193720884Y-140130597D01*
G75*
G02*
X-192521147Y-139085666I1122334J-77403D01*
G01*
X-192521147Y-139085666D01*
G75*
G02*
X-191476216Y-140285403I-77403J-1122334D01*
G01*
X-191516216Y-140865403D01*
G75*
G02*
X-192715953Y-141910334I-1122334J77403D01*
G01*
G37*
%TD.AperFunction*%
%TD*%
%TO.P,MX101,1*%
%TO.N,Col16*%
X-209544800Y-122238000D03*
%TA.AperFunction,ComponentPad*%
G36*
G01*
X-211606112Y-124535350D02*
X-211606117Y-124535345D01*
G75*
G02*
X-211692145Y-122946683I751317J837345D01*
G01*
X-210382143Y-121486683D01*
G75*
G02*
X-208793481Y-121400655I837345J-751317D01*
G01*
X-208793481Y-121400655D01*
G75*
G02*
X-208707453Y-122989317I-751317J-837345D01*
G01*
X-210017455Y-124449317D01*
G75*
G02*
X-211606117Y-124535345I-837345J751317D01*
G01*
G37*
%TD.AperFunction*%
%TO.P,MX101,2*%
%TO.N,Net-(D101-Pad2)*%
X-204504800Y-121158000D03*
%TA.AperFunction,ComponentPad*%
G36*
G01*
X-204621317Y-122860395D02*
X-204622203Y-122860334D01*
G75*
G02*
X-205667134Y-121660597I77403J1122334D01*
G01*
X-205627134Y-121080597D01*
G75*
G02*
X-204427397Y-120035666I1122334J-77403D01*
G01*
X-204427397Y-120035666D01*
G75*
G02*
X-203382466Y-121235403I-77403J-1122334D01*
G01*
X-203422466Y-121815403D01*
G75*
G02*
X-204622203Y-122860334I-1122334J77403D01*
G01*
G37*
%TD.AperFunction*%
%TD*%
%TO.P,MX99,1*%
%TO.N,Col16*%
X-226213550Y-103188000D03*
%TA.AperFunction,ComponentPad*%
G36*
G01*
X-228274862Y-105485350D02*
X-228274867Y-105485345D01*
G75*
G02*
X-228360895Y-103896683I751317J837345D01*
G01*
X-227050893Y-102436683D01*
G75*
G02*
X-225462231Y-102350655I837345J-751317D01*
G01*
X-225462231Y-102350655D01*
G75*
G02*
X-225376203Y-103939317I-751317J-837345D01*
G01*
X-226686205Y-105399317D01*
G75*
G02*
X-228274867Y-105485345I-837345J751317D01*
G01*
G37*
%TD.AperFunction*%
%TO.P,MX99,2*%
%TO.N,Net-(D99-Pad2)*%
X-221173550Y-102108000D03*
%TA.AperFunction,ComponentPad*%
G36*
G01*
X-221290067Y-103810395D02*
X-221290953Y-103810334D01*
G75*
G02*
X-222335884Y-102610597I77403J1122334D01*
G01*
X-222295884Y-102030597D01*
G75*
G02*
X-221096147Y-100985666I1122334J-77403D01*
G01*
X-221096147Y-100985666D01*
G75*
G02*
X-220051216Y-102185403I-77403J-1122334D01*
G01*
X-220091216Y-102765403D01*
G75*
G02*
X-221290953Y-103810334I-1122334J77403D01*
G01*
G37*
%TD.AperFunction*%
%TD*%
%TO.P,MX98,1*%
%TO.N,Col16*%
X-235738550Y-84138000D03*
%TA.AperFunction,ComponentPad*%
G36*
G01*
X-237799862Y-86435350D02*
X-237799867Y-86435345D01*
G75*
G02*
X-237885895Y-84846683I751317J837345D01*
G01*
X-236575893Y-83386683D01*
G75*
G02*
X-234987231Y-83300655I837345J-751317D01*
G01*
X-234987231Y-83300655D01*
G75*
G02*
X-234901203Y-84889317I-751317J-837345D01*
G01*
X-236211205Y-86349317D01*
G75*
G02*
X-237799867Y-86435345I-837345J751317D01*
G01*
G37*
%TD.AperFunction*%
%TO.P,MX98,2*%
%TO.N,Net-(D98-Pad2)*%
X-230698550Y-83058000D03*
%TA.AperFunction,ComponentPad*%
G36*
G01*
X-230815067Y-84760395D02*
X-230815953Y-84760334D01*
G75*
G02*
X-231860884Y-83560597I77403J1122334D01*
G01*
X-231820884Y-82980597D01*
G75*
G02*
X-230621147Y-81935666I1122334J-77403D01*
G01*
X-230621147Y-81935666D01*
G75*
G02*
X-229576216Y-83135403I-77403J-1122334D01*
G01*
X-229616216Y-83715403D01*
G75*
G02*
X-230815953Y-84760334I-1122334J77403D01*
G01*
G37*
%TD.AperFunction*%
%TD*%
%TO.P,MX97,1*%
%TO.N,Col16*%
X-216688550Y-60325500D03*
%TA.AperFunction,ComponentPad*%
G36*
G01*
X-218749862Y-62622850D02*
X-218749867Y-62622845D01*
G75*
G02*
X-218835895Y-61034183I751317J837345D01*
G01*
X-217525893Y-59574183D01*
G75*
G02*
X-215937231Y-59488155I837345J-751317D01*
G01*
X-215937231Y-59488155D01*
G75*
G02*
X-215851203Y-61076817I-751317J-837345D01*
G01*
X-217161205Y-62536817D01*
G75*
G02*
X-218749867Y-62622845I-837345J751317D01*
G01*
G37*
%TD.AperFunction*%
%TO.P,MX97,2*%
%TO.N,Net-(D97-Pad2)*%
X-211648550Y-59245500D03*
%TA.AperFunction,ComponentPad*%
G36*
G01*
X-211765067Y-60947895D02*
X-211765953Y-60947834D01*
G75*
G02*
X-212810884Y-59748097I77403J1122334D01*
G01*
X-212770884Y-59168097D01*
G75*
G02*
X-211571147Y-58123166I1122334J-77403D01*
G01*
X-211571147Y-58123166D01*
G75*
G02*
X-210526216Y-59322903I-77403J-1122334D01*
G01*
X-210566216Y-59902903D01*
G75*
G02*
X-211765953Y-60947834I-1122334J77403D01*
G01*
G37*
%TD.AperFunction*%
%TD*%
%TO.P,MX96,1*%
%TO.N,Col15*%
X-200019800Y-160338000D03*
%TA.AperFunction,ComponentPad*%
G36*
G01*
X-202081112Y-162635350D02*
X-202081117Y-162635345D01*
G75*
G02*
X-202167145Y-161046683I751317J837345D01*
G01*
X-200857143Y-159586683D01*
G75*
G02*
X-199268481Y-159500655I837345J-751317D01*
G01*
X-199268481Y-159500655D01*
G75*
G02*
X-199182453Y-161089317I-751317J-837345D01*
G01*
X-200492455Y-162549317D01*
G75*
G02*
X-202081117Y-162635345I-837345J751317D01*
G01*
G37*
%TD.AperFunction*%
%TO.P,MX96,2*%
%TO.N,Net-(D96-Pad2)*%
X-194979800Y-159258000D03*
%TA.AperFunction,ComponentPad*%
G36*
G01*
X-195096317Y-160960395D02*
X-195097203Y-160960334D01*
G75*
G02*
X-196142134Y-159760597I77403J1122334D01*
G01*
X-196102134Y-159180597D01*
G75*
G02*
X-194902397Y-158135666I1122334J-77403D01*
G01*
X-194902397Y-158135666D01*
G75*
G02*
X-193857466Y-159335403I-77403J-1122334D01*
G01*
X-193897466Y-159915403D01*
G75*
G02*
X-195097203Y-160960334I-1122334J77403D01*
G01*
G37*
%TD.AperFunction*%
%TD*%
%TO.P,MX94,1*%
%TO.N,Col15*%
X-240501050Y-122238000D03*
%TA.AperFunction,ComponentPad*%
G36*
G01*
X-242562362Y-124535350D02*
X-242562367Y-124535345D01*
G75*
G02*
X-242648395Y-122946683I751317J837345D01*
G01*
X-241338393Y-121486683D01*
G75*
G02*
X-239749731Y-121400655I837345J-751317D01*
G01*
X-239749731Y-121400655D01*
G75*
G02*
X-239663703Y-122989317I-751317J-837345D01*
G01*
X-240973705Y-124449317D01*
G75*
G02*
X-242562367Y-124535345I-837345J751317D01*
G01*
G37*
%TD.AperFunction*%
%TO.P,MX94,2*%
%TO.N,Net-(D94-Pad2)*%
X-235461050Y-121158000D03*
%TA.AperFunction,ComponentPad*%
G36*
G01*
X-235577567Y-122860395D02*
X-235578453Y-122860334D01*
G75*
G02*
X-236623384Y-121660597I77403J1122334D01*
G01*
X-236583384Y-121080597D01*
G75*
G02*
X-235383647Y-120035666I1122334J-77403D01*
G01*
X-235383647Y-120035666D01*
G75*
G02*
X-234338716Y-121235403I-77403J-1122334D01*
G01*
X-234378716Y-121815403D01*
G75*
G02*
X-235578453Y-122860334I-1122334J77403D01*
G01*
G37*
%TD.AperFunction*%
%TD*%
%TO.P,MX93,1*%
%TO.N,Col15*%
X-245263550Y-103188000D03*
%TA.AperFunction,ComponentPad*%
G36*
G01*
X-247324862Y-105485350D02*
X-247324867Y-105485345D01*
G75*
G02*
X-247410895Y-103896683I751317J837345D01*
G01*
X-246100893Y-102436683D01*
G75*
G02*
X-244512231Y-102350655I837345J-751317D01*
G01*
X-244512231Y-102350655D01*
G75*
G02*
X-244426203Y-103939317I-751317J-837345D01*
G01*
X-245736205Y-105399317D01*
G75*
G02*
X-247324867Y-105485345I-837345J751317D01*
G01*
G37*
%TD.AperFunction*%
%TO.P,MX93,2*%
%TO.N,Net-(D93-Pad2)*%
X-240223550Y-102108000D03*
%TA.AperFunction,ComponentPad*%
G36*
G01*
X-240340067Y-103810395D02*
X-240340953Y-103810334D01*
G75*
G02*
X-241385884Y-102610597I77403J1122334D01*
G01*
X-241345884Y-102030597D01*
G75*
G02*
X-240146147Y-100985666I1122334J-77403D01*
G01*
X-240146147Y-100985666D01*
G75*
G02*
X-239101216Y-102185403I-77403J-1122334D01*
G01*
X-239141216Y-102765403D01*
G75*
G02*
X-240340953Y-103810334I-1122334J77403D01*
G01*
G37*
%TD.AperFunction*%
%TD*%
%TO.P,MX92,1*%
%TO.N,Col15*%
X-254788550Y-84138000D03*
%TA.AperFunction,ComponentPad*%
G36*
G01*
X-256849862Y-86435350D02*
X-256849867Y-86435345D01*
G75*
G02*
X-256935895Y-84846683I751317J837345D01*
G01*
X-255625893Y-83386683D01*
G75*
G02*
X-254037231Y-83300655I837345J-751317D01*
G01*
X-254037231Y-83300655D01*
G75*
G02*
X-253951203Y-84889317I-751317J-837345D01*
G01*
X-255261205Y-86349317D01*
G75*
G02*
X-256849867Y-86435345I-837345J751317D01*
G01*
G37*
%TD.AperFunction*%
%TO.P,MX92,2*%
%TO.N,Net-(D92-Pad2)*%
X-249748550Y-83058000D03*
%TA.AperFunction,ComponentPad*%
G36*
G01*
X-249865067Y-84760395D02*
X-249865953Y-84760334D01*
G75*
G02*
X-250910884Y-83560597I77403J1122334D01*
G01*
X-250870884Y-82980597D01*
G75*
G02*
X-249671147Y-81935666I1122334J-77403D01*
G01*
X-249671147Y-81935666D01*
G75*
G02*
X-248626216Y-83135403I-77403J-1122334D01*
G01*
X-248666216Y-83715403D01*
G75*
G02*
X-249865953Y-84760334I-1122334J77403D01*
G01*
G37*
%TD.AperFunction*%
%TD*%
%TO.P,MX91,1*%
%TO.N,Col15*%
X-257169800Y-60325500D03*
%TA.AperFunction,ComponentPad*%
G36*
G01*
X-259231112Y-62622850D02*
X-259231117Y-62622845D01*
G75*
G02*
X-259317145Y-61034183I751317J837345D01*
G01*
X-258007143Y-59574183D01*
G75*
G02*
X-256418481Y-59488155I837345J-751317D01*
G01*
X-256418481Y-59488155D01*
G75*
G02*
X-256332453Y-61076817I-751317J-837345D01*
G01*
X-257642455Y-62536817D01*
G75*
G02*
X-259231117Y-62622845I-837345J751317D01*
G01*
G37*
%TD.AperFunction*%
%TO.P,MX91,2*%
%TO.N,Net-(D91-Pad2)*%
X-252129800Y-59245500D03*
%TA.AperFunction,ComponentPad*%
G36*
G01*
X-252246317Y-60947895D02*
X-252247203Y-60947834D01*
G75*
G02*
X-253292134Y-59748097I77403J1122334D01*
G01*
X-253252134Y-59168097D01*
G75*
G02*
X-252052397Y-58123166I1122334J-77403D01*
G01*
X-252052397Y-58123166D01*
G75*
G02*
X-251007466Y-59322903I-77403J-1122334D01*
G01*
X-251047466Y-59902903D01*
G75*
G02*
X-252247203Y-60947834I-1122334J77403D01*
G01*
G37*
%TD.AperFunction*%
%TD*%
%TO.P,MX90,1*%
%TO.N,Col14*%
X-223832300Y-160338000D03*
%TA.AperFunction,ComponentPad*%
G36*
G01*
X-225893612Y-162635350D02*
X-225893617Y-162635345D01*
G75*
G02*
X-225979645Y-161046683I751317J837345D01*
G01*
X-224669643Y-159586683D01*
G75*
G02*
X-223080981Y-159500655I837345J-751317D01*
G01*
X-223080981Y-159500655D01*
G75*
G02*
X-222994953Y-161089317I-751317J-837345D01*
G01*
X-224304955Y-162549317D01*
G75*
G02*
X-225893617Y-162635345I-837345J751317D01*
G01*
G37*
%TD.AperFunction*%
%TO.P,MX90,2*%
%TO.N,Net-(D90-Pad2)*%
X-218792300Y-159258000D03*
%TA.AperFunction,ComponentPad*%
G36*
G01*
X-218908817Y-160960395D02*
X-218909703Y-160960334D01*
G75*
G02*
X-219954634Y-159760597I77403J1122334D01*
G01*
X-219914634Y-159180597D01*
G75*
G02*
X-218714897Y-158135666I1122334J-77403D01*
G01*
X-218714897Y-158135666D01*
G75*
G02*
X-217669966Y-159335403I-77403J-1122334D01*
G01*
X-217709966Y-159915403D01*
G75*
G02*
X-218909703Y-160960334I-1122334J77403D01*
G01*
G37*
%TD.AperFunction*%
%TD*%
%TO.P,MX89,1*%
%TO.N,Col14*%
X-259551050Y-141288000D03*
%TA.AperFunction,ComponentPad*%
G36*
G01*
X-261612362Y-143585350D02*
X-261612367Y-143585345D01*
G75*
G02*
X-261698395Y-141996683I751317J837345D01*
G01*
X-260388393Y-140536683D01*
G75*
G02*
X-258799731Y-140450655I837345J-751317D01*
G01*
X-258799731Y-140450655D01*
G75*
G02*
X-258713703Y-142039317I-751317J-837345D01*
G01*
X-260023705Y-143499317D01*
G75*
G02*
X-261612367Y-143585345I-837345J751317D01*
G01*
G37*
%TD.AperFunction*%
%TO.P,MX89,2*%
%TO.N,Net-(D89-Pad2)*%
X-254511050Y-140208000D03*
%TA.AperFunction,ComponentPad*%
G36*
G01*
X-254627567Y-141910395D02*
X-254628453Y-141910334D01*
G75*
G02*
X-255673384Y-140710597I77403J1122334D01*
G01*
X-255633384Y-140130597D01*
G75*
G02*
X-254433647Y-139085666I1122334J-77403D01*
G01*
X-254433647Y-139085666D01*
G75*
G02*
X-253388716Y-140285403I-77403J-1122334D01*
G01*
X-253428716Y-140865403D01*
G75*
G02*
X-254628453Y-141910334I-1122334J77403D01*
G01*
G37*
%TD.AperFunction*%
%TD*%
%TO.P,MX88,1*%
%TO.N,Col14*%
X-259551050Y-122238000D03*
%TA.AperFunction,ComponentPad*%
G36*
G01*
X-261612362Y-124535350D02*
X-261612367Y-124535345D01*
G75*
G02*
X-261698395Y-122946683I751317J837345D01*
G01*
X-260388393Y-121486683D01*
G75*
G02*
X-258799731Y-121400655I837345J-751317D01*
G01*
X-258799731Y-121400655D01*
G75*
G02*
X-258713703Y-122989317I-751317J-837345D01*
G01*
X-260023705Y-124449317D01*
G75*
G02*
X-261612367Y-124535345I-837345J751317D01*
G01*
G37*
%TD.AperFunction*%
%TO.P,MX88,2*%
%TO.N,Net-(D88-Pad2)*%
X-254511050Y-121158000D03*
%TA.AperFunction,ComponentPad*%
G36*
G01*
X-254627567Y-122860395D02*
X-254628453Y-122860334D01*
G75*
G02*
X-255673384Y-121660597I77403J1122334D01*
G01*
X-255633384Y-121080597D01*
G75*
G02*
X-254433647Y-120035666I1122334J-77403D01*
G01*
X-254433647Y-120035666D01*
G75*
G02*
X-253388716Y-121235403I-77403J-1122334D01*
G01*
X-253428716Y-121815403D01*
G75*
G02*
X-254628453Y-122860334I-1122334J77403D01*
G01*
G37*
%TD.AperFunction*%
%TD*%
%TO.P,MX87,1*%
%TO.N,Col14*%
X-264313550Y-103188000D03*
%TA.AperFunction,ComponentPad*%
G36*
G01*
X-266374862Y-105485350D02*
X-266374867Y-105485345D01*
G75*
G02*
X-266460895Y-103896683I751317J837345D01*
G01*
X-265150893Y-102436683D01*
G75*
G02*
X-263562231Y-102350655I837345J-751317D01*
G01*
X-263562231Y-102350655D01*
G75*
G02*
X-263476203Y-103939317I-751317J-837345D01*
G01*
X-264786205Y-105399317D01*
G75*
G02*
X-266374867Y-105485345I-837345J751317D01*
G01*
G37*
%TD.AperFunction*%
%TO.P,MX87,2*%
%TO.N,Net-(D87-Pad2)*%
X-259273550Y-102108000D03*
%TA.AperFunction,ComponentPad*%
G36*
G01*
X-259390067Y-103810395D02*
X-259390953Y-103810334D01*
G75*
G02*
X-260435884Y-102610597I77403J1122334D01*
G01*
X-260395884Y-102030597D01*
G75*
G02*
X-259196147Y-100985666I1122334J-77403D01*
G01*
X-259196147Y-100985666D01*
G75*
G02*
X-258151216Y-102185403I-77403J-1122334D01*
G01*
X-258191216Y-102765403D01*
G75*
G02*
X-259390953Y-103810334I-1122334J77403D01*
G01*
G37*
%TD.AperFunction*%
%TD*%
%TO.P,MX86,1*%
%TO.N,Col14*%
X-273838550Y-84138000D03*
%TA.AperFunction,ComponentPad*%
G36*
G01*
X-275899862Y-86435350D02*
X-275899867Y-86435345D01*
G75*
G02*
X-275985895Y-84846683I751317J837345D01*
G01*
X-274675893Y-83386683D01*
G75*
G02*
X-273087231Y-83300655I837345J-751317D01*
G01*
X-273087231Y-83300655D01*
G75*
G02*
X-273001203Y-84889317I-751317J-837345D01*
G01*
X-274311205Y-86349317D01*
G75*
G02*
X-275899867Y-86435345I-837345J751317D01*
G01*
G37*
%TD.AperFunction*%
%TO.P,MX86,2*%
%TO.N,Net-(D86-Pad2)*%
X-268798550Y-83058000D03*
%TA.AperFunction,ComponentPad*%
G36*
G01*
X-268915067Y-84760395D02*
X-268915953Y-84760334D01*
G75*
G02*
X-269960884Y-83560597I77403J1122334D01*
G01*
X-269920884Y-82980597D01*
G75*
G02*
X-268721147Y-81935666I1122334J-77403D01*
G01*
X-268721147Y-81935666D01*
G75*
G02*
X-267676216Y-83135403I-77403J-1122334D01*
G01*
X-267716216Y-83715403D01*
G75*
G02*
X-268915953Y-84760334I-1122334J77403D01*
G01*
G37*
%TD.AperFunction*%
%TD*%
%TO.P,MX85,1*%
%TO.N,Col14*%
X-276219800Y-60325500D03*
%TA.AperFunction,ComponentPad*%
G36*
G01*
X-278281112Y-62622850D02*
X-278281117Y-62622845D01*
G75*
G02*
X-278367145Y-61034183I751317J837345D01*
G01*
X-277057143Y-59574183D01*
G75*
G02*
X-275468481Y-59488155I837345J-751317D01*
G01*
X-275468481Y-59488155D01*
G75*
G02*
X-275382453Y-61076817I-751317J-837345D01*
G01*
X-276692455Y-62536817D01*
G75*
G02*
X-278281117Y-62622845I-837345J751317D01*
G01*
G37*
%TD.AperFunction*%
%TO.P,MX85,2*%
%TO.N,Net-(D85-Pad2)*%
X-271179800Y-59245500D03*
%TA.AperFunction,ComponentPad*%
G36*
G01*
X-271296317Y-60947895D02*
X-271297203Y-60947834D01*
G75*
G02*
X-272342134Y-59748097I77403J1122334D01*
G01*
X-272302134Y-59168097D01*
G75*
G02*
X-271102397Y-58123166I1122334J-77403D01*
G01*
X-271102397Y-58123166D01*
G75*
G02*
X-270057466Y-59322903I-77403J-1122334D01*
G01*
X-270097466Y-59902903D01*
G75*
G02*
X-271297203Y-60947834I-1122334J77403D01*
G01*
G37*
%TD.AperFunction*%
%TD*%
%TO.P,MX84,2*%
%TO.N,Net-(D84-Pad2)*%
%TA.AperFunction,ComponentPad*%
G36*
G01*
X-242721317Y-160960395D02*
X-242722203Y-160960334D01*
G75*
G02*
X-243767134Y-159760597I77403J1122334D01*
G01*
X-243727134Y-159180597D01*
G75*
G02*
X-242527397Y-158135666I1122334J-77403D01*
G01*
X-242527397Y-158135666D01*
G75*
G02*
X-241482466Y-159335403I-77403J-1122334D01*
G01*
X-241522466Y-159915403D01*
G75*
G02*
X-242722203Y-160960334I-1122334J77403D01*
G01*
G37*
%TD.AperFunction*%
X-242604800Y-159258000D03*
%TO.P,MX84,1*%
%TO.N,Col13*%
%TA.AperFunction,ComponentPad*%
G36*
G01*
X-249706112Y-162635350D02*
X-249706117Y-162635345D01*
G75*
G02*
X-249792145Y-161046683I751317J837345D01*
G01*
X-248482143Y-159586683D01*
G75*
G02*
X-246893481Y-159500655I837345J-751317D01*
G01*
X-246893481Y-159500655D01*
G75*
G02*
X-246807453Y-161089317I-751317J-837345D01*
G01*
X-248117455Y-162549317D01*
G75*
G02*
X-249706117Y-162635345I-837345J751317D01*
G01*
G37*
%TD.AperFunction*%
X-247644800Y-160338000D03*
%TD*%
%TO.P,MX83,1*%
%TO.N,Col13*%
X-289324209Y-143950347D03*
%TA.AperFunction,ComponentPad*%
G36*
G01*
X-290720685Y-146702924D02*
X-290720692Y-146702921D01*
G75*
G02*
X-291214965Y-145190656I508996J1003269D01*
G01*
X-290327477Y-143441352D01*
G75*
G02*
X-288815212Y-142947079I1003269J-508996D01*
G01*
X-288815212Y-142947079D01*
G75*
G02*
X-288320939Y-144459344I-508996J-1003269D01*
G01*
X-289208427Y-146208648D01*
G75*
G02*
X-290720692Y-146702921I-1003269J508996D01*
G01*
G37*
%TD.AperFunction*%
%TO.P,MX83,2*%
%TO.N,Net-(D83-Pad2)*%
X-284735467Y-141602699D03*
%TA.AperFunction,ComponentPad*%
G36*
G01*
X-284407402Y-143277243D02*
X-284408273Y-143277414D01*
G75*
G02*
X-285728114Y-142389005I-215716J1104125D01*
G01*
X-285839592Y-141818415D01*
G75*
G02*
X-284951183Y-140498574I1104125J215716D01*
G01*
X-284951183Y-140498574D01*
G75*
G02*
X-283631342Y-141386983I215716J-1104125D01*
G01*
X-283519864Y-141957573D01*
G75*
G02*
X-284408273Y-143277414I-1104125J-215716D01*
G01*
G37*
%TD.AperFunction*%
%TD*%
%TO.P,MX82,1*%
%TO.N,Col13*%
X-292725433Y-125142638D03*
%TA.AperFunction,ComponentPad*%
G36*
G01*
X-294121909Y-127895215D02*
X-294121916Y-127895212D01*
G75*
G02*
X-294616189Y-126382947I508996J1003269D01*
G01*
X-293728701Y-124633643D01*
G75*
G02*
X-292216436Y-124139370I1003269J-508996D01*
G01*
X-292216436Y-124139370D01*
G75*
G02*
X-291722163Y-125651635I-508996J-1003269D01*
G01*
X-292609651Y-127400939D01*
G75*
G02*
X-294121916Y-127895212I-1003269J508996D01*
G01*
G37*
%TD.AperFunction*%
%TO.P,MX82,2*%
%TO.N,Net-(D82-Pad2)*%
X-288136691Y-122794990D03*
%TA.AperFunction,ComponentPad*%
G36*
G01*
X-287808626Y-124469534D02*
X-287809497Y-124469705D01*
G75*
G02*
X-289129338Y-123581296I-215716J1104125D01*
G01*
X-289240816Y-123010706D01*
G75*
G02*
X-288352407Y-121690865I1104125J215716D01*
G01*
X-288352407Y-121690865D01*
G75*
G02*
X-287032566Y-122579274I215716J-1104125D01*
G01*
X-286921088Y-123149864D01*
G75*
G02*
X-287809497Y-124469705I-1104125J-215716D01*
G01*
G37*
%TD.AperFunction*%
%TD*%
%TO.P,MX81,1*%
%TO.N,Col13*%
X-296179833Y-106346638D03*
%TA.AperFunction,ComponentPad*%
G36*
G01*
X-297576309Y-109099215D02*
X-297576316Y-109099212D01*
G75*
G02*
X-298070589Y-107586947I508996J1003269D01*
G01*
X-297183101Y-105837643D01*
G75*
G02*
X-295670836Y-105343370I1003269J-508996D01*
G01*
X-295670836Y-105343370D01*
G75*
G02*
X-295176563Y-106855635I-508996J-1003269D01*
G01*
X-296064051Y-108604939D01*
G75*
G02*
X-297576316Y-109099212I-1003269J508996D01*
G01*
G37*
%TD.AperFunction*%
%TO.P,MX81,2*%
%TO.N,Net-(D81-Pad2)*%
X-291591091Y-103998990D03*
%TA.AperFunction,ComponentPad*%
G36*
G01*
X-291263026Y-105673534D02*
X-291263897Y-105673705D01*
G75*
G02*
X-292583738Y-104785296I-215716J1104125D01*
G01*
X-292695216Y-104214706D01*
G75*
G02*
X-291806807Y-102894865I1104125J215716D01*
G01*
X-291806807Y-102894865D01*
G75*
G02*
X-290486966Y-103783274I215716J-1104125D01*
G01*
X-290375488Y-104353864D01*
G75*
G02*
X-291263897Y-105673705I-1104125J-215716D01*
G01*
G37*
%TD.AperFunction*%
%TD*%
%TO.P,MX80,1*%
%TO.N,Col13*%
X-299634233Y-87525238D03*
%TA.AperFunction,ComponentPad*%
G36*
G01*
X-301030709Y-90277815D02*
X-301030716Y-90277812D01*
G75*
G02*
X-301524989Y-88765547I508996J1003269D01*
G01*
X-300637501Y-87016243D01*
G75*
G02*
X-299125236Y-86521970I1003269J-508996D01*
G01*
X-299125236Y-86521970D01*
G75*
G02*
X-298630963Y-88034235I-508996J-1003269D01*
G01*
X-299518451Y-89783539D01*
G75*
G02*
X-301030716Y-90277812I-1003269J508996D01*
G01*
G37*
%TD.AperFunction*%
%TO.P,MX80,2*%
%TO.N,Net-(D80-Pad2)*%
X-295045491Y-85177590D03*
%TA.AperFunction,ComponentPad*%
G36*
G01*
X-294717426Y-86852134D02*
X-294718297Y-86852305D01*
G75*
G02*
X-296038138Y-85963896I-215716J1104125D01*
G01*
X-296149616Y-85393306D01*
G75*
G02*
X-295261207Y-84073465I1104125J215716D01*
G01*
X-295261207Y-84073465D01*
G75*
G02*
X-293941366Y-84961874I215716J-1104125D01*
G01*
X-293829888Y-85532464D01*
G75*
G02*
X-294718297Y-86852305I-1104125J-215716D01*
G01*
G37*
%TD.AperFunction*%
%TD*%
%TO.P,MX79,1*%
%TO.N,Col13*%
X-304693883Y-63448438D03*
%TA.AperFunction,ComponentPad*%
G36*
G01*
X-306090359Y-66201015D02*
X-306090366Y-66201012D01*
G75*
G02*
X-306584639Y-64688747I508996J1003269D01*
G01*
X-305697151Y-62939443D01*
G75*
G02*
X-304184886Y-62445170I1003269J-508996D01*
G01*
X-304184886Y-62445170D01*
G75*
G02*
X-303690613Y-63957435I-508996J-1003269D01*
G01*
X-304578101Y-65706739D01*
G75*
G02*
X-306090366Y-66201012I-1003269J508996D01*
G01*
G37*
%TD.AperFunction*%
%TO.P,MX79,2*%
%TO.N,Net-(D79-Pad2)*%
X-300105141Y-61100790D03*
%TA.AperFunction,ComponentPad*%
G36*
G01*
X-299777076Y-62775334D02*
X-299777947Y-62775505D01*
G75*
G02*
X-301097788Y-61887096I-215716J1104125D01*
G01*
X-301209266Y-61316506D01*
G75*
G02*
X-300320857Y-59996665I1104125J215716D01*
G01*
X-300320857Y-59996665D01*
G75*
G02*
X-299001016Y-60885074I215716J-1104125D01*
G01*
X-298889538Y-61455664D01*
G75*
G02*
X-299777947Y-62775505I-1104125J-215716D01*
G01*
G37*
%TD.AperFunction*%
%TD*%
%TO.P,MX78,1*%
%TO.N,Col12*%
X-305094704Y-167898048D03*
%TA.AperFunction,ComponentPad*%
G36*
G01*
X-306491180Y-170650625D02*
X-306491187Y-170650622D01*
G75*
G02*
X-306985460Y-169138357I508996J1003269D01*
G01*
X-306097972Y-167389053D01*
G75*
G02*
X-304585707Y-166894780I1003269J-508996D01*
G01*
X-304585707Y-166894780D01*
G75*
G02*
X-304091434Y-168407045I-508996J-1003269D01*
G01*
X-304978922Y-170156349D01*
G75*
G02*
X-306491187Y-170650622I-1003269J508996D01*
G01*
G37*
%TD.AperFunction*%
%TO.P,MX78,2*%
%TO.N,Net-(D78-Pad2)*%
X-300505962Y-165550400D03*
%TA.AperFunction,ComponentPad*%
G36*
G01*
X-300177897Y-167224944D02*
X-300178768Y-167225115D01*
G75*
G02*
X-301498609Y-166336706I-215716J1104125D01*
G01*
X-301610087Y-165766116D01*
G75*
G02*
X-300721678Y-164446275I1104125J215716D01*
G01*
X-300721678Y-164446275D01*
G75*
G02*
X-299401837Y-165334684I215716J-1104125D01*
G01*
X-299290359Y-165905274D01*
G75*
G02*
X-300178768Y-167225115I-1104125J-215716D01*
G01*
G37*
%TD.AperFunction*%
%TD*%
%TO.P,MX77,1*%
%TO.N,Col12*%
X-307725095Y-148880849D03*
%TA.AperFunction,ComponentPad*%
G36*
G01*
X-309121571Y-151633426D02*
X-309121578Y-151633423D01*
G75*
G02*
X-309615851Y-150121158I508996J1003269D01*
G01*
X-308728363Y-148371854D01*
G75*
G02*
X-307216098Y-147877581I1003269J-508996D01*
G01*
X-307216098Y-147877581D01*
G75*
G02*
X-306721825Y-149389846I-508996J-1003269D01*
G01*
X-307609313Y-151139150D01*
G75*
G02*
X-309121578Y-151633423I-1003269J508996D01*
G01*
G37*
%TD.AperFunction*%
%TO.P,MX77,2*%
%TO.N,Net-(D77-Pad2)*%
X-303136353Y-146533201D03*
%TA.AperFunction,ComponentPad*%
G36*
G01*
X-302808288Y-148207745D02*
X-302809159Y-148207916D01*
G75*
G02*
X-304129000Y-147319507I-215716J1104125D01*
G01*
X-304240478Y-146748917D01*
G75*
G02*
X-303352069Y-145429076I1104125J215716D01*
G01*
X-303352069Y-145429076D01*
G75*
G02*
X-302032228Y-146317485I215716J-1104125D01*
G01*
X-301920750Y-146888075D01*
G75*
G02*
X-302809159Y-148207916I-1104125J-215716D01*
G01*
G37*
%TD.AperFunction*%
%TD*%
%TO.P,MX76,1*%
%TO.N,Col12*%
X-311126319Y-130073140D03*
%TA.AperFunction,ComponentPad*%
G36*
G01*
X-312522795Y-132825717D02*
X-312522802Y-132825714D01*
G75*
G02*
X-313017075Y-131313449I508996J1003269D01*
G01*
X-312129587Y-129564145D01*
G75*
G02*
X-310617322Y-129069872I1003269J-508996D01*
G01*
X-310617322Y-129069872D01*
G75*
G02*
X-310123049Y-130582137I-508996J-1003269D01*
G01*
X-311010537Y-132331441D01*
G75*
G02*
X-312522802Y-132825714I-1003269J508996D01*
G01*
G37*
%TD.AperFunction*%
%TO.P,MX76,2*%
%TO.N,Net-(D76-Pad2)*%
X-306537577Y-127725492D03*
%TA.AperFunction,ComponentPad*%
G36*
G01*
X-306209512Y-129400036D02*
X-306210383Y-129400207D01*
G75*
G02*
X-307530224Y-128511798I-215716J1104125D01*
G01*
X-307641702Y-127941208D01*
G75*
G02*
X-306753293Y-126621367I1104125J215716D01*
G01*
X-306753293Y-126621367D01*
G75*
G02*
X-305433452Y-127509776I215716J-1104125D01*
G01*
X-305321974Y-128080366D01*
G75*
G02*
X-306210383Y-129400207I-1104125J-215716D01*
G01*
G37*
%TD.AperFunction*%
%TD*%
%TO.P,MX75,1*%
%TO.N,Col12*%
X-314580719Y-111277140D03*
%TA.AperFunction,ComponentPad*%
G36*
G01*
X-315977195Y-114029717D02*
X-315977202Y-114029714D01*
G75*
G02*
X-316471475Y-112517449I508996J1003269D01*
G01*
X-315583987Y-110768145D01*
G75*
G02*
X-314071722Y-110273872I1003269J-508996D01*
G01*
X-314071722Y-110273872D01*
G75*
G02*
X-313577449Y-111786137I-508996J-1003269D01*
G01*
X-314464937Y-113535441D01*
G75*
G02*
X-315977202Y-114029714I-1003269J508996D01*
G01*
G37*
%TD.AperFunction*%
%TO.P,MX75,2*%
%TO.N,Net-(D75-Pad2)*%
X-309991977Y-108929492D03*
%TA.AperFunction,ComponentPad*%
G36*
G01*
X-309663912Y-110604036D02*
X-309664783Y-110604207D01*
G75*
G02*
X-310984624Y-109715798I-215716J1104125D01*
G01*
X-311096102Y-109145208D01*
G75*
G02*
X-310207693Y-107825367I1104125J215716D01*
G01*
X-310207693Y-107825367D01*
G75*
G02*
X-308887852Y-108713776I215716J-1104125D01*
G01*
X-308776374Y-109284366D01*
G75*
G02*
X-309664783Y-110604207I-1104125J-215716D01*
G01*
G37*
%TD.AperFunction*%
%TD*%
%TO.P,MX74,1*%
%TO.N,Col12*%
X-318035119Y-92455740D03*
%TA.AperFunction,ComponentPad*%
G36*
G01*
X-319431595Y-95208317D02*
X-319431602Y-95208314D01*
G75*
G02*
X-319925875Y-93696049I508996J1003269D01*
G01*
X-319038387Y-91946745D01*
G75*
G02*
X-317526122Y-91452472I1003269J-508996D01*
G01*
X-317526122Y-91452472D01*
G75*
G02*
X-317031849Y-92964737I-508996J-1003269D01*
G01*
X-317919337Y-94714041D01*
G75*
G02*
X-319431602Y-95208314I-1003269J508996D01*
G01*
G37*
%TD.AperFunction*%
%TO.P,MX74,2*%
%TO.N,Net-(D74-Pad2)*%
X-313446377Y-90108092D03*
%TA.AperFunction,ComponentPad*%
G36*
G01*
X-313118312Y-91782636D02*
X-313119183Y-91782807D01*
G75*
G02*
X-314439024Y-90894398I-215716J1104125D01*
G01*
X-314550502Y-90323808D01*
G75*
G02*
X-313662093Y-89003967I1104125J215716D01*
G01*
X-313662093Y-89003967D01*
G75*
G02*
X-312342252Y-89892376I215716J-1104125D01*
G01*
X-312230774Y-90462966D01*
G75*
G02*
X-313119183Y-91782807I-1104125J-215716D01*
G01*
G37*
%TD.AperFunction*%
%TD*%
%TO.P,MX73,1*%
%TO.N,Col12*%
X-323094769Y-68378940D03*
%TA.AperFunction,ComponentPad*%
G36*
G01*
X-324491245Y-71131517D02*
X-324491252Y-71131514D01*
G75*
G02*
X-324985525Y-69619249I508996J1003269D01*
G01*
X-324098037Y-67869945D01*
G75*
G02*
X-322585772Y-67375672I1003269J-508996D01*
G01*
X-322585772Y-67375672D01*
G75*
G02*
X-322091499Y-68887937I-508996J-1003269D01*
G01*
X-322978987Y-70637241D01*
G75*
G02*
X-324491252Y-71131514I-1003269J508996D01*
G01*
G37*
%TD.AperFunction*%
%TO.P,MX73,2*%
%TO.N,Net-(D73-Pad2)*%
X-318506027Y-66031292D03*
%TA.AperFunction,ComponentPad*%
G36*
G01*
X-318177962Y-67705836D02*
X-318178833Y-67706007D01*
G75*
G02*
X-319498674Y-66817598I-215716J1104125D01*
G01*
X-319610152Y-66247008D01*
G75*
G02*
X-318721743Y-64927167I1104125J215716D01*
G01*
X-318721743Y-64927167D01*
G75*
G02*
X-317401902Y-65815576I215716J-1104125D01*
G01*
X-317290424Y-66386166D01*
G75*
G02*
X-318178833Y-67706007I-1104125J-215716D01*
G01*
G37*
%TD.AperFunction*%
%TD*%
%TO.P,MX71,1*%
%TO.N,Col11*%
X-326125981Y-153811351D03*
%TA.AperFunction,ComponentPad*%
G36*
G01*
X-327522457Y-156563928D02*
X-327522464Y-156563925D01*
G75*
G02*
X-328016737Y-155051660I508996J1003269D01*
G01*
X-327129249Y-153302356D01*
G75*
G02*
X-325616984Y-152808083I1003269J-508996D01*
G01*
X-325616984Y-152808083D01*
G75*
G02*
X-325122711Y-154320348I-508996J-1003269D01*
G01*
X-326010199Y-156069652D01*
G75*
G02*
X-327522464Y-156563925I-1003269J508996D01*
G01*
G37*
%TD.AperFunction*%
%TO.P,MX71,2*%
%TO.N,Net-(D71-Pad2)*%
X-321537239Y-151463703D03*
%TA.AperFunction,ComponentPad*%
G36*
G01*
X-321209174Y-153138247D02*
X-321210045Y-153138418D01*
G75*
G02*
X-322529886Y-152250009I-215716J1104125D01*
G01*
X-322641364Y-151679419D01*
G75*
G02*
X-321752955Y-150359578I1104125J215716D01*
G01*
X-321752955Y-150359578D01*
G75*
G02*
X-320433114Y-151247987I215716J-1104125D01*
G01*
X-320321636Y-151818577D01*
G75*
G02*
X-321210045Y-153138418I-1104125J-215716D01*
G01*
G37*
%TD.AperFunction*%
%TD*%
%TO.P,MX70,1*%
%TO.N,Col11*%
X-329527205Y-135003642D03*
%TA.AperFunction,ComponentPad*%
G36*
G01*
X-330923681Y-137756219D02*
X-330923688Y-137756216D01*
G75*
G02*
X-331417961Y-136243951I508996J1003269D01*
G01*
X-330530473Y-134494647D01*
G75*
G02*
X-329018208Y-134000374I1003269J-508996D01*
G01*
X-329018208Y-134000374D01*
G75*
G02*
X-328523935Y-135512639I-508996J-1003269D01*
G01*
X-329411423Y-137261943D01*
G75*
G02*
X-330923688Y-137756216I-1003269J508996D01*
G01*
G37*
%TD.AperFunction*%
%TO.P,MX70,2*%
%TO.N,Net-(D70-Pad2)*%
X-324938463Y-132655994D03*
%TA.AperFunction,ComponentPad*%
G36*
G01*
X-324610398Y-134330538D02*
X-324611269Y-134330709D01*
G75*
G02*
X-325931110Y-133442300I-215716J1104125D01*
G01*
X-326042588Y-132871710D01*
G75*
G02*
X-325154179Y-131551869I1104125J215716D01*
G01*
X-325154179Y-131551869D01*
G75*
G02*
X-323834338Y-132440278I215716J-1104125D01*
G01*
X-323722860Y-133010868D01*
G75*
G02*
X-324611269Y-134330709I-1104125J-215716D01*
G01*
G37*
%TD.AperFunction*%
%TD*%
%TO.P,MX69,1*%
%TO.N,Col11*%
X-332981605Y-116207642D03*
%TA.AperFunction,ComponentPad*%
G36*
G01*
X-334378081Y-118960219D02*
X-334378088Y-118960216D01*
G75*
G02*
X-334872361Y-117447951I508996J1003269D01*
G01*
X-333984873Y-115698647D01*
G75*
G02*
X-332472608Y-115204374I1003269J-508996D01*
G01*
X-332472608Y-115204374D01*
G75*
G02*
X-331978335Y-116716639I-508996J-1003269D01*
G01*
X-332865823Y-118465943D01*
G75*
G02*
X-334378088Y-118960216I-1003269J508996D01*
G01*
G37*
%TD.AperFunction*%
%TO.P,MX69,2*%
%TO.N,Net-(D69-Pad2)*%
X-328392863Y-113859994D03*
%TA.AperFunction,ComponentPad*%
G36*
G01*
X-328064798Y-115534538D02*
X-328065669Y-115534709D01*
G75*
G02*
X-329385510Y-114646300I-215716J1104125D01*
G01*
X-329496988Y-114075710D01*
G75*
G02*
X-328608579Y-112755869I1104125J215716D01*
G01*
X-328608579Y-112755869D01*
G75*
G02*
X-327288738Y-113644278I215716J-1104125D01*
G01*
X-327177260Y-114214868D01*
G75*
G02*
X-328065669Y-115534709I-1104125J-215716D01*
G01*
G37*
%TD.AperFunction*%
%TD*%
%TO.P,MX68,1*%
%TO.N,Col11*%
X-336436005Y-97386242D03*
%TA.AperFunction,ComponentPad*%
G36*
G01*
X-337832481Y-100138819D02*
X-337832488Y-100138816D01*
G75*
G02*
X-338326761Y-98626551I508996J1003269D01*
G01*
X-337439273Y-96877247D01*
G75*
G02*
X-335927008Y-96382974I1003269J-508996D01*
G01*
X-335927008Y-96382974D01*
G75*
G02*
X-335432735Y-97895239I-508996J-1003269D01*
G01*
X-336320223Y-99644543D01*
G75*
G02*
X-337832488Y-100138816I-1003269J508996D01*
G01*
G37*
%TD.AperFunction*%
%TO.P,MX68,2*%
%TO.N,Net-(D68-Pad2)*%
X-331847263Y-95038594D03*
%TA.AperFunction,ComponentPad*%
G36*
G01*
X-331519198Y-96713138D02*
X-331520069Y-96713309D01*
G75*
G02*
X-332839910Y-95824900I-215716J1104125D01*
G01*
X-332951388Y-95254310D01*
G75*
G02*
X-332062979Y-93934469I1104125J215716D01*
G01*
X-332062979Y-93934469D01*
G75*
G02*
X-330743138Y-94822878I215716J-1104125D01*
G01*
X-330631660Y-95393468D01*
G75*
G02*
X-331520069Y-96713309I-1104125J-215716D01*
G01*
G37*
%TD.AperFunction*%
%TD*%
%TO.P,MX67,1*%
%TO.N,Col11*%
X-341495655Y-73309442D03*
%TA.AperFunction,ComponentPad*%
G36*
G01*
X-342892131Y-76062019D02*
X-342892138Y-76062016D01*
G75*
G02*
X-343386411Y-74549751I508996J1003269D01*
G01*
X-342498923Y-72800447D01*
G75*
G02*
X-340986658Y-72306174I1003269J-508996D01*
G01*
X-340986658Y-72306174D01*
G75*
G02*
X-340492385Y-73818439I-508996J-1003269D01*
G01*
X-341379873Y-75567743D01*
G75*
G02*
X-342892138Y-76062016I-1003269J508996D01*
G01*
G37*
%TD.AperFunction*%
%TO.P,MX67,2*%
%TO.N,Net-(D67-Pad2)*%
X-336906913Y-70961794D03*
%TA.AperFunction,ComponentPad*%
G36*
G01*
X-336578848Y-72636338D02*
X-336579719Y-72636509D01*
G75*
G02*
X-337899560Y-71748100I-215716J1104125D01*
G01*
X-338011038Y-71177510D01*
G75*
G02*
X-337122629Y-69857669I1104125J215716D01*
G01*
X-337122629Y-69857669D01*
G75*
G02*
X-335802788Y-70746078I215716J-1104125D01*
G01*
X-335691310Y-71316668D01*
G75*
G02*
X-336579719Y-72636509I-1104125J-215716D01*
G01*
G37*
%TD.AperFunction*%
%TD*%
%TO.P,MX66,1*%
%TO.N,Col10*%
X-362927753Y-163672355D03*
%TA.AperFunction,ComponentPad*%
G36*
G01*
X-364324229Y-166424932D02*
X-364324236Y-166424929D01*
G75*
G02*
X-364818509Y-164912664I508996J1003269D01*
G01*
X-363931021Y-163163360D01*
G75*
G02*
X-362418756Y-162669087I1003269J-508996D01*
G01*
X-362418756Y-162669087D01*
G75*
G02*
X-361924483Y-164181352I-508996J-1003269D01*
G01*
X-362811971Y-165930656D01*
G75*
G02*
X-364324236Y-166424929I-1003269J508996D01*
G01*
G37*
%TD.AperFunction*%
%TO.P,MX66,2*%
%TO.N,Net-(D66-Pad2)*%
X-358339011Y-161324707D03*
%TA.AperFunction,ComponentPad*%
G36*
G01*
X-358010946Y-162999251D02*
X-358011817Y-162999422D01*
G75*
G02*
X-359331658Y-162111013I-215716J1104125D01*
G01*
X-359443136Y-161540423D01*
G75*
G02*
X-358554727Y-160220582I1104125J215716D01*
G01*
X-358554727Y-160220582D01*
G75*
G02*
X-357234886Y-161108991I215716J-1104125D01*
G01*
X-357123408Y-161679581D01*
G75*
G02*
X-358011817Y-162999422I-1104125J-215716D01*
G01*
G37*
%TD.AperFunction*%
%TD*%
%TO.P,MX65,1*%
%TO.N,Col10*%
X-344526867Y-158741853D03*
%TA.AperFunction,ComponentPad*%
G36*
G01*
X-345923343Y-161494430D02*
X-345923350Y-161494427D01*
G75*
G02*
X-346417623Y-159982162I508996J1003269D01*
G01*
X-345530135Y-158232858D01*
G75*
G02*
X-344017870Y-157738585I1003269J-508996D01*
G01*
X-344017870Y-157738585D01*
G75*
G02*
X-343523597Y-159250850I-508996J-1003269D01*
G01*
X-344411085Y-161000154D01*
G75*
G02*
X-345923350Y-161494427I-1003269J508996D01*
G01*
G37*
%TD.AperFunction*%
%TO.P,MX65,2*%
%TO.N,Net-(D65-Pad2)*%
X-339938125Y-156394205D03*
%TA.AperFunction,ComponentPad*%
G36*
G01*
X-339610060Y-158068749D02*
X-339610931Y-158068920D01*
G75*
G02*
X-340930772Y-157180511I-215716J1104125D01*
G01*
X-341042250Y-156609921D01*
G75*
G02*
X-340153841Y-155290080I1104125J215716D01*
G01*
X-340153841Y-155290080D01*
G75*
G02*
X-338834000Y-156178489I215716J-1104125D01*
G01*
X-338722522Y-156749079D01*
G75*
G02*
X-339610931Y-158068920I-1104125J-215716D01*
G01*
G37*
%TD.AperFunction*%
%TD*%
%TO.P,MX64,2*%
%TO.N,Net-(D64-Pad2)*%
%TA.AperFunction,ComponentPad*%
G36*
G01*
X-343011284Y-139261040D02*
X-343012155Y-139261211D01*
G75*
G02*
X-344331996Y-138372802I-215716J1104125D01*
G01*
X-344443474Y-137802212D01*
G75*
G02*
X-343555065Y-136482371I1104125J215716D01*
G01*
X-343555065Y-136482371D01*
G75*
G02*
X-342235224Y-137370780I215716J-1104125D01*
G01*
X-342123746Y-137941370D01*
G75*
G02*
X-343012155Y-139261211I-1104125J-215716D01*
G01*
G37*
%TD.AperFunction*%
X-343339349Y-137586496D03*
%TO.P,MX64,1*%
%TO.N,Col10*%
%TA.AperFunction,ComponentPad*%
G36*
G01*
X-349324567Y-142686721D02*
X-349324574Y-142686718D01*
G75*
G02*
X-349818847Y-141174453I508996J1003269D01*
G01*
X-348931359Y-139425149D01*
G75*
G02*
X-347419094Y-138930876I1003269J-508996D01*
G01*
X-347419094Y-138930876D01*
G75*
G02*
X-346924821Y-140443141I-508996J-1003269D01*
G01*
X-347812309Y-142192445D01*
G75*
G02*
X-349324574Y-142686718I-1003269J508996D01*
G01*
G37*
%TD.AperFunction*%
X-347928091Y-139934144D03*
%TD*%
%TO.P,MX63,2*%
%TO.N,Net-(D63-Pad2)*%
%TA.AperFunction,ComponentPad*%
G36*
G01*
X-346465684Y-120465040D02*
X-346466555Y-120465211D01*
G75*
G02*
X-347786396Y-119576802I-215716J1104125D01*
G01*
X-347897874Y-119006212D01*
G75*
G02*
X-347009465Y-117686371I1104125J215716D01*
G01*
X-347009465Y-117686371D01*
G75*
G02*
X-345689624Y-118574780I215716J-1104125D01*
G01*
X-345578146Y-119145370D01*
G75*
G02*
X-346466555Y-120465211I-1104125J-215716D01*
G01*
G37*
%TD.AperFunction*%
X-346793749Y-118790496D03*
%TO.P,MX63,1*%
%TO.N,Col10*%
%TA.AperFunction,ComponentPad*%
G36*
G01*
X-352778967Y-123890721D02*
X-352778974Y-123890718D01*
G75*
G02*
X-353273247Y-122378453I508996J1003269D01*
G01*
X-352385759Y-120629149D01*
G75*
G02*
X-350873494Y-120134876I1003269J-508996D01*
G01*
X-350873494Y-120134876D01*
G75*
G02*
X-350379221Y-121647141I-508996J-1003269D01*
G01*
X-351266709Y-123396445D01*
G75*
G02*
X-352778974Y-123890718I-1003269J508996D01*
G01*
G37*
%TD.AperFunction*%
X-351382491Y-121138144D03*
%TD*%
%TO.P,MX62,1*%
%TO.N,Col10*%
X-354836891Y-102316744D03*
%TA.AperFunction,ComponentPad*%
G36*
G01*
X-356233367Y-105069321D02*
X-356233374Y-105069318D01*
G75*
G02*
X-356727647Y-103557053I508996J1003269D01*
G01*
X-355840159Y-101807749D01*
G75*
G02*
X-354327894Y-101313476I1003269J-508996D01*
G01*
X-354327894Y-101313476D01*
G75*
G02*
X-353833621Y-102825741I-508996J-1003269D01*
G01*
X-354721109Y-104575045D01*
G75*
G02*
X-356233374Y-105069318I-1003269J508996D01*
G01*
G37*
%TD.AperFunction*%
%TO.P,MX62,2*%
%TO.N,Net-(D62-Pad2)*%
X-350248149Y-99969096D03*
%TA.AperFunction,ComponentPad*%
G36*
G01*
X-349920084Y-101643640D02*
X-349920955Y-101643811D01*
G75*
G02*
X-351240796Y-100755402I-215716J1104125D01*
G01*
X-351352274Y-100184812D01*
G75*
G02*
X-350463865Y-98864971I1104125J215716D01*
G01*
X-350463865Y-98864971D01*
G75*
G02*
X-349144024Y-99753380I215716J-1104125D01*
G01*
X-349032546Y-100323970D01*
G75*
G02*
X-349920955Y-101643811I-1104125J-215716D01*
G01*
G37*
%TD.AperFunction*%
%TD*%
%TO.P,MX61,1*%
%TO.N,Col10*%
X-359896541Y-78239944D03*
%TA.AperFunction,ComponentPad*%
G36*
G01*
X-361293017Y-80992521D02*
X-361293024Y-80992518D01*
G75*
G02*
X-361787297Y-79480253I508996J1003269D01*
G01*
X-360899809Y-77730949D01*
G75*
G02*
X-359387544Y-77236676I1003269J-508996D01*
G01*
X-359387544Y-77236676D01*
G75*
G02*
X-358893271Y-78748941I-508996J-1003269D01*
G01*
X-359780759Y-80498245D01*
G75*
G02*
X-361293024Y-80992518I-1003269J508996D01*
G01*
G37*
%TD.AperFunction*%
%TO.P,MX61,2*%
%TO.N,Net-(D61-Pad2)*%
X-355307799Y-75892296D03*
%TA.AperFunction,ComponentPad*%
G36*
G01*
X-354979734Y-77566840D02*
X-354980605Y-77567011D01*
G75*
G02*
X-356300446Y-76678602I-215716J1104125D01*
G01*
X-356411924Y-76108012D01*
G75*
G02*
X-355523515Y-74788171I1104125J215716D01*
G01*
X-355523515Y-74788171D01*
G75*
G02*
X-354203674Y-75676580I215716J-1104125D01*
G01*
X-354092196Y-76247170D01*
G75*
G02*
X-354980605Y-77567011I-1104125J-215716D01*
G01*
G37*
%TD.AperFunction*%
%TD*%
%TO.P,MX60,1*%
%TO.N,Col9*%
X-389432200Y-162378260D03*
%TA.AperFunction,ComponentPad*%
G36*
G01*
X-392017873Y-164063824D02*
X-392017877Y-164063817D01*
G75*
G02*
X-391689797Y-162507021I942438J614358D01*
G01*
X-390046557Y-161435823D01*
G75*
G02*
X-388489761Y-161763903I614358J-942438D01*
G01*
X-388489761Y-161763903D01*
G75*
G02*
X-388817841Y-163320699I-942438J-614358D01*
G01*
X-390461081Y-164391897D01*
G75*
G02*
X-392017877Y-164063817I-614358J942438D01*
G01*
G37*
%TD.AperFunction*%
%TO.P,MX60,2*%
%TO.N,Net-(D60-Pad2)*%
X-384284410Y-162639508D03*
%TA.AperFunction,ComponentPad*%
G36*
G01*
X-384837569Y-164253738D02*
X-384838409Y-164253450D01*
G75*
G02*
X-385537220Y-162824145I365247J1064058D01*
G01*
X-385348468Y-162274261D01*
G75*
G02*
X-383919163Y-161575450I1064058J-365247D01*
G01*
X-383919163Y-161575450D01*
G75*
G02*
X-383220352Y-163004755I-365247J-1064058D01*
G01*
X-383409104Y-163554639D01*
G75*
G02*
X-384838409Y-164253450I-1064058J365247D01*
G01*
G37*
%TD.AperFunction*%
%TD*%
%TO.P,MX59,1*%
%TO.N,Col9*%
X-407833086Y-157447758D03*
%TA.AperFunction,ComponentPad*%
G36*
G01*
X-410418759Y-159133322D02*
X-410418763Y-159133315D01*
G75*
G02*
X-410090683Y-157576519I942438J614358D01*
G01*
X-408447443Y-156505321D01*
G75*
G02*
X-406890647Y-156833401I614358J-942438D01*
G01*
X-406890647Y-156833401D01*
G75*
G02*
X-407218727Y-158390197I-942438J-614358D01*
G01*
X-408861967Y-159461395D01*
G75*
G02*
X-410418763Y-159133315I-614358J942438D01*
G01*
G37*
%TD.AperFunction*%
%TO.P,MX59,2*%
%TO.N,Net-(D59-Pad2)*%
X-402685296Y-157709006D03*
%TA.AperFunction,ComponentPad*%
G36*
G01*
X-403238455Y-159323236D02*
X-403239295Y-159322948D01*
G75*
G02*
X-403938106Y-157893643I365247J1064058D01*
G01*
X-403749354Y-157343759D01*
G75*
G02*
X-402320049Y-156644948I1064058J-365247D01*
G01*
X-402320049Y-156644948D01*
G75*
G02*
X-401621238Y-158074253I-365247J-1064058D01*
G01*
X-401809990Y-158624137D01*
G75*
G02*
X-403239295Y-159322948I-1064058J365247D01*
G01*
G37*
%TD.AperFunction*%
%TD*%
%TO.P,MX58,1*%
%TO.N,Col9*%
X-404345880Y-138669755D03*
%TA.AperFunction,ComponentPad*%
G36*
G01*
X-406931553Y-140355319D02*
X-406931557Y-140355312D01*
G75*
G02*
X-406603477Y-138798516I942438J614358D01*
G01*
X-404960237Y-137727318D01*
G75*
G02*
X-403403441Y-138055398I614358J-942438D01*
G01*
X-403403441Y-138055398D01*
G75*
G02*
X-403731521Y-139612194I-942438J-614358D01*
G01*
X-405374761Y-140683392D01*
G75*
G02*
X-406931557Y-140355312I-614358J942438D01*
G01*
G37*
%TD.AperFunction*%
%TO.P,MX58,2*%
%TO.N,Net-(D58-Pad2)*%
X-399198090Y-138931003D03*
%TA.AperFunction,ComponentPad*%
G36*
G01*
X-399751249Y-140545233D02*
X-399752089Y-140544945D01*
G75*
G02*
X-400450900Y-139115640I365247J1064058D01*
G01*
X-400262148Y-138565756D01*
G75*
G02*
X-398832843Y-137866945I1064058J-365247D01*
G01*
X-398832843Y-137866945D01*
G75*
G02*
X-398134032Y-139296250I-365247J-1064058D01*
G01*
X-398322784Y-139846134D01*
G75*
G02*
X-399752089Y-140544945I-1064058J365247D01*
G01*
G37*
%TD.AperFunction*%
%TD*%
%TO.P,MX57,1*%
%TO.N,Col9*%
X-401157643Y-119746755D03*
%TA.AperFunction,ComponentPad*%
G36*
G01*
X-403743316Y-121432319D02*
X-403743320Y-121432312D01*
G75*
G02*
X-403415240Y-119875516I942438J614358D01*
G01*
X-401772000Y-118804318D01*
G75*
G02*
X-400215204Y-119132398I614358J-942438D01*
G01*
X-400215204Y-119132398D01*
G75*
G02*
X-400543284Y-120689194I-942438J-614358D01*
G01*
X-402186524Y-121760392D01*
G75*
G02*
X-403743320Y-121432312I-614358J942438D01*
G01*
G37*
%TD.AperFunction*%
%TO.P,MX57,2*%
%TO.N,Net-(D57-Pad2)*%
X-396009853Y-120008003D03*
%TA.AperFunction,ComponentPad*%
G36*
G01*
X-396563012Y-121622233D02*
X-396563852Y-121621945D01*
G75*
G02*
X-397262663Y-120192640I365247J1064058D01*
G01*
X-397073911Y-119642756D01*
G75*
G02*
X-395644606Y-118943945I1064058J-365247D01*
G01*
X-395644606Y-118943945D01*
G75*
G02*
X-394945795Y-120373250I-365247J-1064058D01*
G01*
X-395134547Y-120923134D01*
G75*
G02*
X-396563852Y-121621945I-1064058J365247D01*
G01*
G37*
%TD.AperFunction*%
%TD*%
%TO.P,MX56,1*%
%TO.N,Col9*%
X-397849646Y-100933752D03*
%TA.AperFunction,ComponentPad*%
G36*
G01*
X-400435319Y-102619316D02*
X-400435323Y-102619309D01*
G75*
G02*
X-400107243Y-101062513I942438J614358D01*
G01*
X-398464003Y-99991315D01*
G75*
G02*
X-396907207Y-100319395I614358J-942438D01*
G01*
X-396907207Y-100319395D01*
G75*
G02*
X-397235287Y-101876191I-942438J-614358D01*
G01*
X-398878527Y-102947389D01*
G75*
G02*
X-400435323Y-102619309I-614358J942438D01*
G01*
G37*
%TD.AperFunction*%
%TO.P,MX56,2*%
%TO.N,Net-(D56-Pad2)*%
X-392701856Y-101195000D03*
%TA.AperFunction,ComponentPad*%
G36*
G01*
X-393255015Y-102809230D02*
X-393255855Y-102808942D01*
G75*
G02*
X-393954666Y-101379637I365247J1064058D01*
G01*
X-393765914Y-100829753D01*
G75*
G02*
X-392336609Y-100130942I1064058J-365247D01*
G01*
X-392336609Y-100130942D01*
G75*
G02*
X-391637798Y-101560247I-365247J-1064058D01*
G01*
X-391826550Y-102110131D01*
G75*
G02*
X-393255855Y-102808942I-1064058J365247D01*
G01*
G37*
%TD.AperFunction*%
%TD*%
%TO.P,MX55,1*%
%TO.N,Col9*%
X-393150646Y-76931252D03*
%TA.AperFunction,ComponentPad*%
G36*
G01*
X-395736319Y-78616816D02*
X-395736323Y-78616809D01*
G75*
G02*
X-395408243Y-77060013I942438J614358D01*
G01*
X-393765003Y-75988815D01*
G75*
G02*
X-392208207Y-76316895I614358J-942438D01*
G01*
X-392208207Y-76316895D01*
G75*
G02*
X-392536287Y-77873691I-942438J-614358D01*
G01*
X-394179527Y-78944889D01*
G75*
G02*
X-395736323Y-78616809I-614358J942438D01*
G01*
G37*
%TD.AperFunction*%
%TO.P,MX55,2*%
%TO.N,Net-(D55-Pad2)*%
X-388002856Y-77192500D03*
%TA.AperFunction,ComponentPad*%
G36*
G01*
X-388556015Y-78806730D02*
X-388556855Y-78806442D01*
G75*
G02*
X-389255666Y-77377137I365247J1064058D01*
G01*
X-389066914Y-76827253D01*
G75*
G02*
X-387637609Y-76128442I1064058J-365247D01*
G01*
X-387637609Y-76128442D01*
G75*
G02*
X-386938798Y-77557747I-365247J-1064058D01*
G01*
X-387127550Y-78107631D01*
G75*
G02*
X-388556855Y-78806442I-1064058J365247D01*
G01*
G37*
%TD.AperFunction*%
%TD*%
%TO.P,MX53,1*%
%TO.N,Col8*%
X-426233972Y-152517256D03*
%TA.AperFunction,ComponentPad*%
G36*
G01*
X-428819645Y-154202820D02*
X-428819649Y-154202813D01*
G75*
G02*
X-428491569Y-152646017I942438J614358D01*
G01*
X-426848329Y-151574819D01*
G75*
G02*
X-425291533Y-151902899I614358J-942438D01*
G01*
X-425291533Y-151902899D01*
G75*
G02*
X-425619613Y-153459695I-942438J-614358D01*
G01*
X-427262853Y-154530893D01*
G75*
G02*
X-428819649Y-154202813I-614358J942438D01*
G01*
G37*
%TD.AperFunction*%
%TO.P,MX53,2*%
%TO.N,Net-(D53-Pad2)*%
X-421086182Y-152778504D03*
%TA.AperFunction,ComponentPad*%
G36*
G01*
X-421639341Y-154392734D02*
X-421640181Y-154392446D01*
G75*
G02*
X-422338992Y-152963141I365247J1064058D01*
G01*
X-422150240Y-152413257D01*
G75*
G02*
X-420720935Y-151714446I1064058J-365247D01*
G01*
X-420720935Y-151714446D01*
G75*
G02*
X-420022124Y-153143751I-365247J-1064058D01*
G01*
X-420210876Y-153693635D01*
G75*
G02*
X-421640181Y-154392446I-1064058J365247D01*
G01*
G37*
%TD.AperFunction*%
%TD*%
%TO.P,MX52,1*%
%TO.N,Col8*%
X-422746766Y-133739253D03*
%TA.AperFunction,ComponentPad*%
G36*
G01*
X-425332439Y-135424817D02*
X-425332443Y-135424810D01*
G75*
G02*
X-425004363Y-133868014I942438J614358D01*
G01*
X-423361123Y-132796816D01*
G75*
G02*
X-421804327Y-133124896I614358J-942438D01*
G01*
X-421804327Y-133124896D01*
G75*
G02*
X-422132407Y-134681692I-942438J-614358D01*
G01*
X-423775647Y-135752890D01*
G75*
G02*
X-425332443Y-135424810I-614358J942438D01*
G01*
G37*
%TD.AperFunction*%
%TO.P,MX52,2*%
%TO.N,Net-(D52-Pad2)*%
X-417598976Y-134000501D03*
%TA.AperFunction,ComponentPad*%
G36*
G01*
X-418152135Y-135614731D02*
X-418152975Y-135614443D01*
G75*
G02*
X-418851786Y-134185138I365247J1064058D01*
G01*
X-418663034Y-133635254D01*
G75*
G02*
X-417233729Y-132936443I1064058J-365247D01*
G01*
X-417233729Y-132936443D01*
G75*
G02*
X-416534918Y-134365748I-365247J-1064058D01*
G01*
X-416723670Y-134915632D01*
G75*
G02*
X-418152975Y-135614443I-1064058J365247D01*
G01*
G37*
%TD.AperFunction*%
%TD*%
%TO.P,MX51,1*%
%TO.N,Col8*%
X-419558529Y-114816253D03*
%TA.AperFunction,ComponentPad*%
G36*
G01*
X-422144202Y-116501817D02*
X-422144206Y-116501810D01*
G75*
G02*
X-421816126Y-114945014I942438J614358D01*
G01*
X-420172886Y-113873816D01*
G75*
G02*
X-418616090Y-114201896I614358J-942438D01*
G01*
X-418616090Y-114201896D01*
G75*
G02*
X-418944170Y-115758692I-942438J-614358D01*
G01*
X-420587410Y-116829890D01*
G75*
G02*
X-422144206Y-116501810I-614358J942438D01*
G01*
G37*
%TD.AperFunction*%
%TO.P,MX51,2*%
%TO.N,Net-(D51-Pad2)*%
X-414410739Y-115077501D03*
%TA.AperFunction,ComponentPad*%
G36*
G01*
X-414963898Y-116691731D02*
X-414964738Y-116691443D01*
G75*
G02*
X-415663549Y-115262138I365247J1064058D01*
G01*
X-415474797Y-114712254D01*
G75*
G02*
X-414045492Y-114013443I1064058J-365247D01*
G01*
X-414045492Y-114013443D01*
G75*
G02*
X-413346681Y-115442748I-365247J-1064058D01*
G01*
X-413535433Y-115992632D01*
G75*
G02*
X-414964738Y-116691443I-1064058J365247D01*
G01*
G37*
%TD.AperFunction*%
%TD*%
%TO.P,MX50,1*%
%TO.N,Col8*%
X-416250532Y-96003250D03*
%TA.AperFunction,ComponentPad*%
G36*
G01*
X-418836205Y-97688814D02*
X-418836209Y-97688807D01*
G75*
G02*
X-418508129Y-96132011I942438J614358D01*
G01*
X-416864889Y-95060813D01*
G75*
G02*
X-415308093Y-95388893I614358J-942438D01*
G01*
X-415308093Y-95388893D01*
G75*
G02*
X-415636173Y-96945689I-942438J-614358D01*
G01*
X-417279413Y-98016887D01*
G75*
G02*
X-418836209Y-97688807I-614358J942438D01*
G01*
G37*
%TD.AperFunction*%
%TO.P,MX50,2*%
%TO.N,Net-(D50-Pad2)*%
X-411102742Y-96264498D03*
%TA.AperFunction,ComponentPad*%
G36*
G01*
X-411655901Y-97878728D02*
X-411656741Y-97878440D01*
G75*
G02*
X-412355552Y-96449135I365247J1064058D01*
G01*
X-412166800Y-95899251D01*
G75*
G02*
X-410737495Y-95200440I1064058J-365247D01*
G01*
X-410737495Y-95200440D01*
G75*
G02*
X-410038684Y-96629745I-365247J-1064058D01*
G01*
X-410227436Y-97179629D01*
G75*
G02*
X-411656741Y-97878440I-1064058J365247D01*
G01*
G37*
%TD.AperFunction*%
%TD*%
%TO.P,MX49,1*%
%TO.N,Col8*%
X-411551532Y-72000750D03*
%TA.AperFunction,ComponentPad*%
G36*
G01*
X-414137205Y-73686314D02*
X-414137209Y-73686307D01*
G75*
G02*
X-413809129Y-72129511I942438J614358D01*
G01*
X-412165889Y-71058313D01*
G75*
G02*
X-410609093Y-71386393I614358J-942438D01*
G01*
X-410609093Y-71386393D01*
G75*
G02*
X-410937173Y-72943189I-942438J-614358D01*
G01*
X-412580413Y-74014387D01*
G75*
G02*
X-414137209Y-73686307I-614358J942438D01*
G01*
G37*
%TD.AperFunction*%
%TO.P,MX49,2*%
%TO.N,Net-(D49-Pad2)*%
X-406403742Y-72261998D03*
%TA.AperFunction,ComponentPad*%
G36*
G01*
X-406956901Y-73876228D02*
X-406957741Y-73875940D01*
G75*
G02*
X-407656552Y-72446635I365247J1064058D01*
G01*
X-407467800Y-71896751D01*
G75*
G02*
X-406038495Y-71197940I1064058J-365247D01*
G01*
X-406038495Y-71197940D01*
G75*
G02*
X-405339684Y-72627245I-365247J-1064058D01*
G01*
X-405528436Y-73177129D01*
G75*
G02*
X-406957741Y-73875940I-1064058J365247D01*
G01*
G37*
%TD.AperFunction*%
%TD*%
%TO.P,MX47,2*%
%TO.N,Net-(D47-Pad2)*%
%TA.AperFunction,ComponentPad*%
G36*
G01*
X-440040227Y-149462232D02*
X-440041067Y-149461944D01*
G75*
G02*
X-440739878Y-148032639I365247J1064058D01*
G01*
X-440551126Y-147482755D01*
G75*
G02*
X-439121821Y-146783944I1064058J-365247D01*
G01*
X-439121821Y-146783944D01*
G75*
G02*
X-438423010Y-148213249I-365247J-1064058D01*
G01*
X-438611762Y-148763133D01*
G75*
G02*
X-440041067Y-149461944I-1064058J365247D01*
G01*
G37*
%TD.AperFunction*%
X-439487068Y-147848002D03*
%TO.P,MX47,1*%
%TO.N,Col7*%
%TA.AperFunction,ComponentPad*%
G36*
G01*
X-447220531Y-149272318D02*
X-447220535Y-149272311D01*
G75*
G02*
X-446892455Y-147715515I942438J614358D01*
G01*
X-445249215Y-146644317D01*
G75*
G02*
X-443692419Y-146972397I614358J-942438D01*
G01*
X-443692419Y-146972397D01*
G75*
G02*
X-444020499Y-148529193I-942438J-614358D01*
G01*
X-445663739Y-149600391D01*
G75*
G02*
X-447220535Y-149272311I-614358J942438D01*
G01*
G37*
%TD.AperFunction*%
X-444634858Y-147586754D03*
%TD*%
%TO.P,MX46,2*%
%TO.N,Net-(D46-Pad2)*%
%TA.AperFunction,ComponentPad*%
G36*
G01*
X-436553021Y-130684229D02*
X-436553861Y-130683941D01*
G75*
G02*
X-437252672Y-129254636I365247J1064058D01*
G01*
X-437063920Y-128704752D01*
G75*
G02*
X-435634615Y-128005941I1064058J-365247D01*
G01*
X-435634615Y-128005941D01*
G75*
G02*
X-434935804Y-129435246I-365247J-1064058D01*
G01*
X-435124556Y-129985130D01*
G75*
G02*
X-436553861Y-130683941I-1064058J365247D01*
G01*
G37*
%TD.AperFunction*%
X-435999862Y-129069999D03*
%TO.P,MX46,1*%
%TO.N,Col7*%
%TA.AperFunction,ComponentPad*%
G36*
G01*
X-443733325Y-130494315D02*
X-443733329Y-130494308D01*
G75*
G02*
X-443405249Y-128937512I942438J614358D01*
G01*
X-441762009Y-127866314D01*
G75*
G02*
X-440205213Y-128194394I614358J-942438D01*
G01*
X-440205213Y-128194394D01*
G75*
G02*
X-440533293Y-129751190I-942438J-614358D01*
G01*
X-442176533Y-130822388D01*
G75*
G02*
X-443733329Y-130494308I-614358J942438D01*
G01*
G37*
%TD.AperFunction*%
X-441147652Y-128808751D03*
%TD*%
%TO.P,MX45,2*%
%TO.N,Net-(D45-Pad2)*%
%TA.AperFunction,ComponentPad*%
G36*
G01*
X-433364784Y-111761229D02*
X-433365624Y-111760941D01*
G75*
G02*
X-434064435Y-110331636I365247J1064058D01*
G01*
X-433875683Y-109781752D01*
G75*
G02*
X-432446378Y-109082941I1064058J-365247D01*
G01*
X-432446378Y-109082941D01*
G75*
G02*
X-431747567Y-110512246I-365247J-1064058D01*
G01*
X-431936319Y-111062130D01*
G75*
G02*
X-433365624Y-111760941I-1064058J365247D01*
G01*
G37*
%TD.AperFunction*%
X-432811625Y-110146999D03*
%TO.P,MX45,1*%
%TO.N,Col7*%
%TA.AperFunction,ComponentPad*%
G36*
G01*
X-440545088Y-111571315D02*
X-440545092Y-111571308D01*
G75*
G02*
X-440217012Y-110014512I942438J614358D01*
G01*
X-438573772Y-108943314D01*
G75*
G02*
X-437016976Y-109271394I614358J-942438D01*
G01*
X-437016976Y-109271394D01*
G75*
G02*
X-437345056Y-110828190I-942438J-614358D01*
G01*
X-438988296Y-111899388D01*
G75*
G02*
X-440545092Y-111571308I-614358J942438D01*
G01*
G37*
%TD.AperFunction*%
X-437959415Y-109885751D03*
%TD*%
%TO.P,MX44,1*%
%TO.N,Col7*%
X-434651418Y-91072748D03*
%TA.AperFunction,ComponentPad*%
G36*
G01*
X-437237091Y-92758312D02*
X-437237095Y-92758305D01*
G75*
G02*
X-436909015Y-91201509I942438J614358D01*
G01*
X-435265775Y-90130311D01*
G75*
G02*
X-433708979Y-90458391I614358J-942438D01*
G01*
X-433708979Y-90458391D01*
G75*
G02*
X-434037059Y-92015187I-942438J-614358D01*
G01*
X-435680299Y-93086385D01*
G75*
G02*
X-437237095Y-92758305I-614358J942438D01*
G01*
G37*
%TD.AperFunction*%
%TO.P,MX44,2*%
%TO.N,Net-(D44-Pad2)*%
X-429503628Y-91333996D03*
%TA.AperFunction,ComponentPad*%
G36*
G01*
X-430056787Y-92948226D02*
X-430057627Y-92947938D01*
G75*
G02*
X-430756438Y-91518633I365247J1064058D01*
G01*
X-430567686Y-90968749D01*
G75*
G02*
X-429138381Y-90269938I1064058J-365247D01*
G01*
X-429138381Y-90269938D01*
G75*
G02*
X-428439570Y-91699243I-365247J-1064058D01*
G01*
X-428628322Y-92249127D01*
G75*
G02*
X-430057627Y-92947938I-1064058J365247D01*
G01*
G37*
%TD.AperFunction*%
%TD*%
%TO.P,MX43,1*%
%TO.N,Col7*%
X-429952418Y-67070248D03*
%TA.AperFunction,ComponentPad*%
G36*
G01*
X-432538091Y-68755812D02*
X-432538095Y-68755805D01*
G75*
G02*
X-432210015Y-67199009I942438J614358D01*
G01*
X-430566775Y-66127811D01*
G75*
G02*
X-429009979Y-66455891I614358J-942438D01*
G01*
X-429009979Y-66455891D01*
G75*
G02*
X-429338059Y-68012687I-942438J-614358D01*
G01*
X-430981299Y-69083885D01*
G75*
G02*
X-432538095Y-68755805I-614358J942438D01*
G01*
G37*
%TD.AperFunction*%
%TO.P,MX43,2*%
%TO.N,Net-(D43-Pad2)*%
X-424804628Y-67331496D03*
%TA.AperFunction,ComponentPad*%
G36*
G01*
X-425357787Y-68945726D02*
X-425358627Y-68945438D01*
G75*
G02*
X-426057438Y-67516133I365247J1064058D01*
G01*
X-425868686Y-66966249D01*
G75*
G02*
X-424439381Y-66267438I1064058J-365247D01*
G01*
X-424439381Y-66267438D01*
G75*
G02*
X-423740570Y-67696743I-365247J-1064058D01*
G01*
X-423929322Y-68246627D01*
G75*
G02*
X-425358627Y-68945438I-1064058J365247D01*
G01*
G37*
%TD.AperFunction*%
%TD*%
%TO.P,MX42,2*%
%TO.N,Net-(D42-Pad2)*%
%TA.AperFunction,ComponentPad*%
G36*
G01*
X-461071507Y-163548927D02*
X-461072347Y-163548639D01*
G75*
G02*
X-461771158Y-162119334I365247J1064058D01*
G01*
X-461582406Y-161569450D01*
G75*
G02*
X-460153101Y-160870639I1064058J-365247D01*
G01*
X-460153101Y-160870639D01*
G75*
G02*
X-459454290Y-162299944I-365247J-1064058D01*
G01*
X-459643042Y-162849828D01*
G75*
G02*
X-461072347Y-163548639I-1064058J365247D01*
G01*
G37*
%TD.AperFunction*%
X-460518348Y-161934697D03*
%TO.P,MX42,1*%
%TO.N,Col6*%
%TA.AperFunction,ComponentPad*%
G36*
G01*
X-468251811Y-163359013D02*
X-468251815Y-163359006D01*
G75*
G02*
X-467923735Y-161802210I942438J614358D01*
G01*
X-466280495Y-160731012D01*
G75*
G02*
X-464723699Y-161059092I614358J-942438D01*
G01*
X-464723699Y-161059092D01*
G75*
G02*
X-465051779Y-162615888I-942438J-614358D01*
G01*
X-466695019Y-163687086D01*
G75*
G02*
X-468251815Y-163359006I-614358J942438D01*
G01*
G37*
%TD.AperFunction*%
X-465666138Y-161673449D03*
%TD*%
%TO.P,MX41,1*%
%TO.N,Col6*%
X-463035744Y-142656252D03*
%TA.AperFunction,ComponentPad*%
G36*
G01*
X-465621417Y-144341816D02*
X-465621421Y-144341809D01*
G75*
G02*
X-465293341Y-142785013I942438J614358D01*
G01*
X-463650101Y-141713815D01*
G75*
G02*
X-462093305Y-142041895I614358J-942438D01*
G01*
X-462093305Y-142041895D01*
G75*
G02*
X-462421385Y-143598691I-942438J-614358D01*
G01*
X-464064625Y-144669889D01*
G75*
G02*
X-465621421Y-144341809I-614358J942438D01*
G01*
G37*
%TD.AperFunction*%
%TO.P,MX41,2*%
%TO.N,Net-(D41-Pad2)*%
X-457887954Y-142917500D03*
%TA.AperFunction,ComponentPad*%
G36*
G01*
X-458441113Y-144531730D02*
X-458441953Y-144531442D01*
G75*
G02*
X-459140764Y-143102137I365247J1064058D01*
G01*
X-458952012Y-142552253D01*
G75*
G02*
X-457522707Y-141853442I1064058J-365247D01*
G01*
X-457522707Y-141853442D01*
G75*
G02*
X-456823896Y-143282747I-365247J-1064058D01*
G01*
X-457012648Y-143832631D01*
G75*
G02*
X-458441953Y-144531442I-1064058J365247D01*
G01*
G37*
%TD.AperFunction*%
%TD*%
%TO.P,MX40,1*%
%TO.N,Col6*%
X-459548538Y-123878249D03*
%TA.AperFunction,ComponentPad*%
G36*
G01*
X-462134211Y-125563813D02*
X-462134215Y-125563806D01*
G75*
G02*
X-461806135Y-124007010I942438J614358D01*
G01*
X-460162895Y-122935812D01*
G75*
G02*
X-458606099Y-123263892I614358J-942438D01*
G01*
X-458606099Y-123263892D01*
G75*
G02*
X-458934179Y-124820688I-942438J-614358D01*
G01*
X-460577419Y-125891886D01*
G75*
G02*
X-462134215Y-125563806I-614358J942438D01*
G01*
G37*
%TD.AperFunction*%
%TO.P,MX40,2*%
%TO.N,Net-(D40-Pad2)*%
X-454400748Y-124139497D03*
%TA.AperFunction,ComponentPad*%
G36*
G01*
X-454953907Y-125753727D02*
X-454954747Y-125753439D01*
G75*
G02*
X-455653558Y-124324134I365247J1064058D01*
G01*
X-455464806Y-123774250D01*
G75*
G02*
X-454035501Y-123075439I1064058J-365247D01*
G01*
X-454035501Y-123075439D01*
G75*
G02*
X-453336690Y-124504744I-365247J-1064058D01*
G01*
X-453525442Y-125054628D01*
G75*
G02*
X-454954747Y-125753439I-1064058J365247D01*
G01*
G37*
%TD.AperFunction*%
%TD*%
%TO.P,MX39,1*%
%TO.N,Col6*%
X-456360301Y-104955249D03*
%TA.AperFunction,ComponentPad*%
G36*
G01*
X-458945974Y-106640813D02*
X-458945978Y-106640806D01*
G75*
G02*
X-458617898Y-105084010I942438J614358D01*
G01*
X-456974658Y-104012812D01*
G75*
G02*
X-455417862Y-104340892I614358J-942438D01*
G01*
X-455417862Y-104340892D01*
G75*
G02*
X-455745942Y-105897688I-942438J-614358D01*
G01*
X-457389182Y-106968886D01*
G75*
G02*
X-458945978Y-106640806I-614358J942438D01*
G01*
G37*
%TD.AperFunction*%
%TO.P,MX39,2*%
%TO.N,Net-(D39-Pad2)*%
X-451212511Y-105216497D03*
%TA.AperFunction,ComponentPad*%
G36*
G01*
X-451765670Y-106830727D02*
X-451766510Y-106830439D01*
G75*
G02*
X-452465321Y-105401134I365247J1064058D01*
G01*
X-452276569Y-104851250D01*
G75*
G02*
X-450847264Y-104152439I1064058J-365247D01*
G01*
X-450847264Y-104152439D01*
G75*
G02*
X-450148453Y-105581744I-365247J-1064058D01*
G01*
X-450337205Y-106131628D01*
G75*
G02*
X-451766510Y-106830439I-1064058J365247D01*
G01*
G37*
%TD.AperFunction*%
%TD*%
%TO.P,MX38,1*%
%TO.N,Col6*%
X-453052304Y-86142246D03*
%TA.AperFunction,ComponentPad*%
G36*
G01*
X-455637977Y-87827810D02*
X-455637981Y-87827803D01*
G75*
G02*
X-455309901Y-86271007I942438J614358D01*
G01*
X-453666661Y-85199809D01*
G75*
G02*
X-452109865Y-85527889I614358J-942438D01*
G01*
X-452109865Y-85527889D01*
G75*
G02*
X-452437945Y-87084685I-942438J-614358D01*
G01*
X-454081185Y-88155883D01*
G75*
G02*
X-455637981Y-87827803I-614358J942438D01*
G01*
G37*
%TD.AperFunction*%
%TO.P,MX38,2*%
%TO.N,Net-(D38-Pad2)*%
X-447904514Y-86403494D03*
%TA.AperFunction,ComponentPad*%
G36*
G01*
X-448457673Y-88017724D02*
X-448458513Y-88017436D01*
G75*
G02*
X-449157324Y-86588131I365247J1064058D01*
G01*
X-448968572Y-86038247D01*
G75*
G02*
X-447539267Y-85339436I1064058J-365247D01*
G01*
X-447539267Y-85339436D01*
G75*
G02*
X-446840456Y-86768741I-365247J-1064058D01*
G01*
X-447029208Y-87318625D01*
G75*
G02*
X-448458513Y-88017436I-1064058J365247D01*
G01*
G37*
%TD.AperFunction*%
%TD*%
%TO.P,MX37,1*%
%TO.N,Col6*%
X-448353304Y-62139746D03*
%TA.AperFunction,ComponentPad*%
G36*
G01*
X-450938977Y-63825310D02*
X-450938981Y-63825303D01*
G75*
G02*
X-450610901Y-62268507I942438J614358D01*
G01*
X-448967661Y-61197309D01*
G75*
G02*
X-447410865Y-61525389I614358J-942438D01*
G01*
X-447410865Y-61525389D01*
G75*
G02*
X-447738945Y-63082185I-942438J-614358D01*
G01*
X-449382185Y-64153383D01*
G75*
G02*
X-450938981Y-63825303I-614358J942438D01*
G01*
G37*
%TD.AperFunction*%
%TO.P,MX37,2*%
%TO.N,Net-(D37-Pad2)*%
X-443205514Y-62400994D03*
%TA.AperFunction,ComponentPad*%
G36*
G01*
X-443758673Y-64015224D02*
X-443759513Y-64014936D01*
G75*
G02*
X-444458324Y-62585631I365247J1064058D01*
G01*
X-444269572Y-62035747D01*
G75*
G02*
X-442840267Y-61336936I1064058J-365247D01*
G01*
X-442840267Y-61336936D01*
G75*
G02*
X-442141456Y-62766241I-365247J-1064058D01*
G01*
X-442330208Y-63316125D01*
G75*
G02*
X-443759513Y-64014936I-1064058J365247D01*
G01*
G37*
%TD.AperFunction*%
%TD*%
%TO.P,MX36,1*%
%TO.N,Col5*%
X-494656750Y-160338000D03*
%TA.AperFunction,ComponentPad*%
G36*
G01*
X-496718062Y-162635350D02*
X-496718067Y-162635345D01*
G75*
G02*
X-496804095Y-161046683I751317J837345D01*
G01*
X-495494093Y-159586683D01*
G75*
G02*
X-493905431Y-159500655I837345J-751317D01*
G01*
X-493905431Y-159500655D01*
G75*
G02*
X-493819403Y-161089317I-751317J-837345D01*
G01*
X-495129405Y-162549317D01*
G75*
G02*
X-496718067Y-162635345I-837345J751317D01*
G01*
G37*
%TD.AperFunction*%
%TO.P,MX36,2*%
%TO.N,Net-(D36-Pad2)*%
X-489616750Y-159258000D03*
%TA.AperFunction,ComponentPad*%
G36*
G01*
X-489733267Y-160960395D02*
X-489734153Y-160960334D01*
G75*
G02*
X-490779084Y-159760597I77403J1122334D01*
G01*
X-490739084Y-159180597D01*
G75*
G02*
X-489539347Y-158135666I1122334J-77403D01*
G01*
X-489539347Y-158135666D01*
G75*
G02*
X-488494416Y-159335403I-77403J-1122334D01*
G01*
X-488534416Y-159915403D01*
G75*
G02*
X-489734153Y-160960334I-1122334J77403D01*
G01*
G37*
%TD.AperFunction*%
%TD*%
%TO.P,MX35,1*%
%TO.N,Col5*%
X-497038000Y-141288000D03*
%TA.AperFunction,ComponentPad*%
G36*
G01*
X-499099312Y-143585350D02*
X-499099317Y-143585345D01*
G75*
G02*
X-499185345Y-141996683I751317J837345D01*
G01*
X-497875343Y-140536683D01*
G75*
G02*
X-496286681Y-140450655I837345J-751317D01*
G01*
X-496286681Y-140450655D01*
G75*
G02*
X-496200653Y-142039317I-751317J-837345D01*
G01*
X-497510655Y-143499317D01*
G75*
G02*
X-499099317Y-143585345I-837345J751317D01*
G01*
G37*
%TD.AperFunction*%
%TO.P,MX35,2*%
%TO.N,Net-(D35-Pad2)*%
X-491998000Y-140208000D03*
%TA.AperFunction,ComponentPad*%
G36*
G01*
X-492114517Y-141910395D02*
X-492115403Y-141910334D01*
G75*
G02*
X-493160334Y-140710597I77403J1122334D01*
G01*
X-493120334Y-140130597D01*
G75*
G02*
X-491920597Y-139085666I1122334J-77403D01*
G01*
X-491920597Y-139085666D01*
G75*
G02*
X-490875666Y-140285403I-77403J-1122334D01*
G01*
X-490915666Y-140865403D01*
G75*
G02*
X-492115403Y-141910334I-1122334J77403D01*
G01*
G37*
%TD.AperFunction*%
%TD*%
%TO.P,MX34,1*%
%TO.N,Col5*%
X-492275500Y-122238000D03*
%TA.AperFunction,ComponentPad*%
G36*
G01*
X-494336812Y-124535350D02*
X-494336817Y-124535345D01*
G75*
G02*
X-494422845Y-122946683I751317J837345D01*
G01*
X-493112843Y-121486683D01*
G75*
G02*
X-491524181Y-121400655I837345J-751317D01*
G01*
X-491524181Y-121400655D01*
G75*
G02*
X-491438153Y-122989317I-751317J-837345D01*
G01*
X-492748155Y-124449317D01*
G75*
G02*
X-494336817Y-124535345I-837345J751317D01*
G01*
G37*
%TD.AperFunction*%
%TO.P,MX34,2*%
%TO.N,Net-(D34-Pad2)*%
X-487235500Y-121158000D03*
%TA.AperFunction,ComponentPad*%
G36*
G01*
X-487352017Y-122860395D02*
X-487352903Y-122860334D01*
G75*
G02*
X-488397834Y-121660597I77403J1122334D01*
G01*
X-488357834Y-121080597D01*
G75*
G02*
X-487158097Y-120035666I1122334J-77403D01*
G01*
X-487158097Y-120035666D01*
G75*
G02*
X-486113166Y-121235403I-77403J-1122334D01*
G01*
X-486153166Y-121815403D01*
G75*
G02*
X-487352903Y-122860334I-1122334J77403D01*
G01*
G37*
%TD.AperFunction*%
%TD*%
%TO.P,MX33,1*%
%TO.N,Col5*%
X-487513000Y-103188000D03*
%TA.AperFunction,ComponentPad*%
G36*
G01*
X-489574312Y-105485350D02*
X-489574317Y-105485345D01*
G75*
G02*
X-489660345Y-103896683I751317J837345D01*
G01*
X-488350343Y-102436683D01*
G75*
G02*
X-486761681Y-102350655I837345J-751317D01*
G01*
X-486761681Y-102350655D01*
G75*
G02*
X-486675653Y-103939317I-751317J-837345D01*
G01*
X-487985655Y-105399317D01*
G75*
G02*
X-489574317Y-105485345I-837345J751317D01*
G01*
G37*
%TD.AperFunction*%
%TO.P,MX33,2*%
%TO.N,Net-(D33-Pad2)*%
X-482473000Y-102108000D03*
%TA.AperFunction,ComponentPad*%
G36*
G01*
X-482589517Y-103810395D02*
X-482590403Y-103810334D01*
G75*
G02*
X-483635334Y-102610597I77403J1122334D01*
G01*
X-483595334Y-102030597D01*
G75*
G02*
X-482395597Y-100985666I1122334J-77403D01*
G01*
X-482395597Y-100985666D01*
G75*
G02*
X-481350666Y-102185403I-77403J-1122334D01*
G01*
X-481390666Y-102765403D01*
G75*
G02*
X-482590403Y-103810334I-1122334J77403D01*
G01*
G37*
%TD.AperFunction*%
%TD*%
%TO.P,MX32,1*%
%TO.N,Col5*%
X-482750500Y-84138000D03*
%TA.AperFunction,ComponentPad*%
G36*
G01*
X-484811812Y-86435350D02*
X-484811817Y-86435345D01*
G75*
G02*
X-484897845Y-84846683I751317J837345D01*
G01*
X-483587843Y-83386683D01*
G75*
G02*
X-481999181Y-83300655I837345J-751317D01*
G01*
X-481999181Y-83300655D01*
G75*
G02*
X-481913153Y-84889317I-751317J-837345D01*
G01*
X-483223155Y-86349317D01*
G75*
G02*
X-484811817Y-86435345I-837345J751317D01*
G01*
G37*
%TD.AperFunction*%
%TO.P,MX32,2*%
%TO.N,Net-(D32-Pad2)*%
X-477710500Y-83058000D03*
%TA.AperFunction,ComponentPad*%
G36*
G01*
X-477827017Y-84760395D02*
X-477827903Y-84760334D01*
G75*
G02*
X-478872834Y-83560597I77403J1122334D01*
G01*
X-478832834Y-82980597D01*
G75*
G02*
X-477633097Y-81935666I1122334J-77403D01*
G01*
X-477633097Y-81935666D01*
G75*
G02*
X-476588166Y-83135403I-77403J-1122334D01*
G01*
X-476628166Y-83715403D01*
G75*
G02*
X-477827903Y-84760334I-1122334J77403D01*
G01*
G37*
%TD.AperFunction*%
%TD*%
%TO.P,MX31,1*%
%TO.N,Col5*%
X-477924500Y-60325500D03*
%TA.AperFunction,ComponentPad*%
G36*
G01*
X-479985812Y-62622850D02*
X-479985817Y-62622845D01*
G75*
G02*
X-480071845Y-61034183I751317J837345D01*
G01*
X-478761843Y-59574183D01*
G75*
G02*
X-477173181Y-59488155I837345J-751317D01*
G01*
X-477173181Y-59488155D01*
G75*
G02*
X-477087153Y-61076817I-751317J-837345D01*
G01*
X-478397155Y-62536817D01*
G75*
G02*
X-479985817Y-62622845I-837345J751317D01*
G01*
G37*
%TD.AperFunction*%
%TO.P,MX31,2*%
%TO.N,Net-(D31-Pad2)*%
X-472884500Y-59245500D03*
%TA.AperFunction,ComponentPad*%
G36*
G01*
X-473001017Y-60947895D02*
X-473001903Y-60947834D01*
G75*
G02*
X-474046834Y-59748097I77403J1122334D01*
G01*
X-474006834Y-59168097D01*
G75*
G02*
X-472807097Y-58123166I1122334J-77403D01*
G01*
X-472807097Y-58123166D01*
G75*
G02*
X-471762166Y-59322903I-77403J-1122334D01*
G01*
X-471802166Y-59902903D01*
G75*
G02*
X-473001903Y-60947834I-1122334J77403D01*
G01*
G37*
%TD.AperFunction*%
%TD*%
%TO.P,MX30,1*%
%TO.N,Col4*%
X-518469250Y-160338000D03*
%TA.AperFunction,ComponentPad*%
G36*
G01*
X-520530562Y-162635350D02*
X-520530567Y-162635345D01*
G75*
G02*
X-520616595Y-161046683I751317J837345D01*
G01*
X-519306593Y-159586683D01*
G75*
G02*
X-517717931Y-159500655I837345J-751317D01*
G01*
X-517717931Y-159500655D01*
G75*
G02*
X-517631903Y-161089317I-751317J-837345D01*
G01*
X-518941905Y-162549317D01*
G75*
G02*
X-520530567Y-162635345I-837345J751317D01*
G01*
G37*
%TD.AperFunction*%
%TO.P,MX30,2*%
%TO.N,Net-(D30-Pad2)*%
X-513429250Y-159258000D03*
%TA.AperFunction,ComponentPad*%
G36*
G01*
X-513545767Y-160960395D02*
X-513546653Y-160960334D01*
G75*
G02*
X-514591584Y-159760597I77403J1122334D01*
G01*
X-514551584Y-159180597D01*
G75*
G02*
X-513351847Y-158135666I1122334J-77403D01*
G01*
X-513351847Y-158135666D01*
G75*
G02*
X-512306916Y-159335403I-77403J-1122334D01*
G01*
X-512346916Y-159915403D01*
G75*
G02*
X-513546653Y-160960334I-1122334J77403D01*
G01*
G37*
%TD.AperFunction*%
%TD*%
%TO.P,MX27,1*%
%TO.N,Col4*%
X-511325500Y-103188000D03*
%TA.AperFunction,ComponentPad*%
G36*
G01*
X-513386812Y-105485350D02*
X-513386817Y-105485345D01*
G75*
G02*
X-513472845Y-103896683I751317J837345D01*
G01*
X-512162843Y-102436683D01*
G75*
G02*
X-510574181Y-102350655I837345J-751317D01*
G01*
X-510574181Y-102350655D01*
G75*
G02*
X-510488153Y-103939317I-751317J-837345D01*
G01*
X-511798155Y-105399317D01*
G75*
G02*
X-513386817Y-105485345I-837345J751317D01*
G01*
G37*
%TD.AperFunction*%
%TO.P,MX27,2*%
%TO.N,Net-(D27-Pad2)*%
X-506285500Y-102108000D03*
%TA.AperFunction,ComponentPad*%
G36*
G01*
X-506402017Y-103810395D02*
X-506402903Y-103810334D01*
G75*
G02*
X-507447834Y-102610597I77403J1122334D01*
G01*
X-507407834Y-102030597D01*
G75*
G02*
X-506208097Y-100985666I1122334J-77403D01*
G01*
X-506208097Y-100985666D01*
G75*
G02*
X-505163166Y-102185403I-77403J-1122334D01*
G01*
X-505203166Y-102765403D01*
G75*
G02*
X-506402903Y-103810334I-1122334J77403D01*
G01*
G37*
%TD.AperFunction*%
%TD*%
%TO.P,MX26,1*%
%TO.N,Col4*%
X-501800500Y-84138000D03*
%TA.AperFunction,ComponentPad*%
G36*
G01*
X-503861812Y-86435350D02*
X-503861817Y-86435345D01*
G75*
G02*
X-503947845Y-84846683I751317J837345D01*
G01*
X-502637843Y-83386683D01*
G75*
G02*
X-501049181Y-83300655I837345J-751317D01*
G01*
X-501049181Y-83300655D01*
G75*
G02*
X-500963153Y-84889317I-751317J-837345D01*
G01*
X-502273155Y-86349317D01*
G75*
G02*
X-503861817Y-86435345I-837345J751317D01*
G01*
G37*
%TD.AperFunction*%
%TO.P,MX26,2*%
%TO.N,Net-(D26-Pad2)*%
X-496760500Y-83058000D03*
%TA.AperFunction,ComponentPad*%
G36*
G01*
X-496877017Y-84760395D02*
X-496877903Y-84760334D01*
G75*
G02*
X-497922834Y-83560597I77403J1122334D01*
G01*
X-497882834Y-82980597D01*
G75*
G02*
X-496683097Y-81935666I1122334J-77403D01*
G01*
X-496683097Y-81935666D01*
G75*
G02*
X-495638166Y-83135403I-77403J-1122334D01*
G01*
X-495678166Y-83715403D01*
G75*
G02*
X-496877903Y-84760334I-1122334J77403D01*
G01*
G37*
%TD.AperFunction*%
%TD*%
%TO.P,MX25,1*%
%TO.N,Col4*%
X-496974500Y-60325500D03*
%TA.AperFunction,ComponentPad*%
G36*
G01*
X-499035812Y-62622850D02*
X-499035817Y-62622845D01*
G75*
G02*
X-499121845Y-61034183I751317J837345D01*
G01*
X-497811843Y-59574183D01*
G75*
G02*
X-496223181Y-59488155I837345J-751317D01*
G01*
X-496223181Y-59488155D01*
G75*
G02*
X-496137153Y-61076817I-751317J-837345D01*
G01*
X-497447155Y-62536817D01*
G75*
G02*
X-499035817Y-62622845I-837345J751317D01*
G01*
G37*
%TD.AperFunction*%
%TO.P,MX25,2*%
%TO.N,Net-(D25-Pad2)*%
X-491934500Y-59245500D03*
%TA.AperFunction,ComponentPad*%
G36*
G01*
X-492051017Y-60947895D02*
X-492051903Y-60947834D01*
G75*
G02*
X-493096834Y-59748097I77403J1122334D01*
G01*
X-493056834Y-59168097D01*
G75*
G02*
X-491857097Y-58123166I1122334J-77403D01*
G01*
X-491857097Y-58123166D01*
G75*
G02*
X-490812166Y-59322903I-77403J-1122334D01*
G01*
X-490852166Y-59902903D01*
G75*
G02*
X-492051903Y-60947834I-1122334J77403D01*
G01*
G37*
%TD.AperFunction*%
%TD*%
%TO.P,MX24,1*%
%TO.N,Col3*%
X-539900500Y-160338000D03*
%TA.AperFunction,ComponentPad*%
G36*
G01*
X-541961812Y-162635350D02*
X-541961817Y-162635345D01*
G75*
G02*
X-542047845Y-161046683I751317J837345D01*
G01*
X-540737843Y-159586683D01*
G75*
G02*
X-539149181Y-159500655I837345J-751317D01*
G01*
X-539149181Y-159500655D01*
G75*
G02*
X-539063153Y-161089317I-751317J-837345D01*
G01*
X-540373155Y-162549317D01*
G75*
G02*
X-541961817Y-162635345I-837345J751317D01*
G01*
G37*
%TD.AperFunction*%
%TO.P,MX24,2*%
%TO.N,Net-(D24-Pad2)*%
X-534860500Y-159258000D03*
%TA.AperFunction,ComponentPad*%
G36*
G01*
X-534977017Y-160960395D02*
X-534977903Y-160960334D01*
G75*
G02*
X-536022834Y-159760597I77403J1122334D01*
G01*
X-535982834Y-159180597D01*
G75*
G02*
X-534783097Y-158135666I1122334J-77403D01*
G01*
X-534783097Y-158135666D01*
G75*
G02*
X-533738166Y-159335403I-77403J-1122334D01*
G01*
X-533778166Y-159915403D01*
G75*
G02*
X-534977903Y-160960334I-1122334J77403D01*
G01*
G37*
%TD.AperFunction*%
%TD*%
%TO.P,MX23,1*%
%TO.N,Col3*%
X-558950500Y-160338000D03*
%TA.AperFunction,ComponentPad*%
G36*
G01*
X-561011812Y-162635350D02*
X-561011817Y-162635345D01*
G75*
G02*
X-561097845Y-161046683I751317J837345D01*
G01*
X-559787843Y-159586683D01*
G75*
G02*
X-558199181Y-159500655I837345J-751317D01*
G01*
X-558199181Y-159500655D01*
G75*
G02*
X-558113153Y-161089317I-751317J-837345D01*
G01*
X-559423155Y-162549317D01*
G75*
G02*
X-561011817Y-162635345I-837345J751317D01*
G01*
G37*
%TD.AperFunction*%
%TO.P,MX23,2*%
%TO.N,Net-(D23-Pad2)*%
X-553910500Y-159258000D03*
%TA.AperFunction,ComponentPad*%
G36*
G01*
X-554027017Y-160960395D02*
X-554027903Y-160960334D01*
G75*
G02*
X-555072834Y-159760597I77403J1122334D01*
G01*
X-555032834Y-159180597D01*
G75*
G02*
X-553833097Y-158135666I1122334J-77403D01*
G01*
X-553833097Y-158135666D01*
G75*
G02*
X-552788166Y-159335403I-77403J-1122334D01*
G01*
X-552828166Y-159915403D01*
G75*
G02*
X-554027903Y-160960334I-1122334J77403D01*
G01*
G37*
%TD.AperFunction*%
%TD*%
%TO.P,MX22,1*%
%TO.N,Col3*%
X-578000500Y-160338000D03*
%TA.AperFunction,ComponentPad*%
G36*
G01*
X-580061812Y-162635350D02*
X-580061817Y-162635345D01*
G75*
G02*
X-580147845Y-161046683I751317J837345D01*
G01*
X-578837843Y-159586683D01*
G75*
G02*
X-577249181Y-159500655I837345J-751317D01*
G01*
X-577249181Y-159500655D01*
G75*
G02*
X-577163153Y-161089317I-751317J-837345D01*
G01*
X-578473155Y-162549317D01*
G75*
G02*
X-580061817Y-162635345I-837345J751317D01*
G01*
G37*
%TD.AperFunction*%
%TO.P,MX22,2*%
%TO.N,Net-(D22-Pad2)*%
X-572960500Y-159258000D03*
%TA.AperFunction,ComponentPad*%
G36*
G01*
X-573077017Y-160960395D02*
X-573077903Y-160960334D01*
G75*
G02*
X-574122834Y-159760597I77403J1122334D01*
G01*
X-574082834Y-159180597D01*
G75*
G02*
X-572883097Y-158135666I1122334J-77403D01*
G01*
X-572883097Y-158135666D01*
G75*
G02*
X-571838166Y-159335403I-77403J-1122334D01*
G01*
X-571878166Y-159915403D01*
G75*
G02*
X-573077903Y-160960334I-1122334J77403D01*
G01*
G37*
%TD.AperFunction*%
%TD*%
%TO.P,MX21,1*%
%TO.N,Col3*%
X-558950500Y-141288000D03*
%TA.AperFunction,ComponentPad*%
G36*
G01*
X-561011812Y-143585350D02*
X-561011817Y-143585345D01*
G75*
G02*
X-561097845Y-141996683I751317J837345D01*
G01*
X-559787843Y-140536683D01*
G75*
G02*
X-558199181Y-140450655I837345J-751317D01*
G01*
X-558199181Y-140450655D01*
G75*
G02*
X-558113153Y-142039317I-751317J-837345D01*
G01*
X-559423155Y-143499317D01*
G75*
G02*
X-561011817Y-143585345I-837345J751317D01*
G01*
G37*
%TD.AperFunction*%
%TO.P,MX21,2*%
%TO.N,Net-(D21-Pad2)*%
X-553910500Y-140208000D03*
%TA.AperFunction,ComponentPad*%
G36*
G01*
X-554027017Y-141910395D02*
X-554027903Y-141910334D01*
G75*
G02*
X-555072834Y-140710597I77403J1122334D01*
G01*
X-555032834Y-140130597D01*
G75*
G02*
X-553833097Y-139085666I1122334J-77403D01*
G01*
X-553833097Y-139085666D01*
G75*
G02*
X-552788166Y-140285403I-77403J-1122334D01*
G01*
X-552828166Y-140865403D01*
G75*
G02*
X-554027903Y-141910334I-1122334J77403D01*
G01*
G37*
%TD.AperFunction*%
%TD*%
%TO.P,MX20,1*%
%TO.N,Col3*%
X-578000500Y-84138000D03*
%TA.AperFunction,ComponentPad*%
G36*
G01*
X-580061812Y-86435350D02*
X-580061817Y-86435345D01*
G75*
G02*
X-580147845Y-84846683I751317J837345D01*
G01*
X-578837843Y-83386683D01*
G75*
G02*
X-577249181Y-83300655I837345J-751317D01*
G01*
X-577249181Y-83300655D01*
G75*
G02*
X-577163153Y-84889317I-751317J-837345D01*
G01*
X-578473155Y-86349317D01*
G75*
G02*
X-580061817Y-86435345I-837345J751317D01*
G01*
G37*
%TD.AperFunction*%
%TO.P,MX20,2*%
%TO.N,Net-(D20-Pad2)*%
X-572960500Y-83058000D03*
%TA.AperFunction,ComponentPad*%
G36*
G01*
X-573077017Y-84760395D02*
X-573077903Y-84760334D01*
G75*
G02*
X-574122834Y-83560597I77403J1122334D01*
G01*
X-574082834Y-82980597D01*
G75*
G02*
X-572883097Y-81935666I1122334J-77403D01*
G01*
X-572883097Y-81935666D01*
G75*
G02*
X-571838166Y-83135403I-77403J-1122334D01*
G01*
X-571878166Y-83715403D01*
G75*
G02*
X-573077903Y-84760334I-1122334J77403D01*
G01*
G37*
%TD.AperFunction*%
%TD*%
%TO.P,MX19,1*%
%TO.N,Col3*%
X-525549500Y-60325500D03*
%TA.AperFunction,ComponentPad*%
G36*
G01*
X-527610812Y-62622850D02*
X-527610817Y-62622845D01*
G75*
G02*
X-527696845Y-61034183I751317J837345D01*
G01*
X-526386843Y-59574183D01*
G75*
G02*
X-524798181Y-59488155I837345J-751317D01*
G01*
X-524798181Y-59488155D01*
G75*
G02*
X-524712153Y-61076817I-751317J-837345D01*
G01*
X-526022155Y-62536817D01*
G75*
G02*
X-527610817Y-62622845I-837345J751317D01*
G01*
G37*
%TD.AperFunction*%
%TO.P,MX19,2*%
%TO.N,Net-(D19-Pad2)*%
X-520509500Y-59245500D03*
%TA.AperFunction,ComponentPad*%
G36*
G01*
X-520626017Y-60947895D02*
X-520626903Y-60947834D01*
G75*
G02*
X-521671834Y-59748097I77403J1122334D01*
G01*
X-521631834Y-59168097D01*
G75*
G02*
X-520432097Y-58123166I1122334J-77403D01*
G01*
X-520432097Y-58123166D01*
G75*
G02*
X-519387166Y-59322903I-77403J-1122334D01*
G01*
X-519427166Y-59902903D01*
G75*
G02*
X-520626903Y-60947834I-1122334J77403D01*
G01*
G37*
%TD.AperFunction*%
%TD*%
%TO.P,MX18,1*%
%TO.N,Col2*%
X-603313000Y-157313000D03*
%TA.AperFunction,ComponentPad*%
G36*
G01*
X-601015650Y-159374312D02*
X-601015655Y-159374317D01*
G75*
G02*
X-602604317Y-159460345I-837345J751317D01*
G01*
X-604064317Y-158150343D01*
G75*
G02*
X-604150345Y-156561681I751317J837345D01*
G01*
X-604150345Y-156561681D01*
G75*
G02*
X-602561683Y-156475653I837345J-751317D01*
G01*
X-601101683Y-157785655D01*
G75*
G02*
X-601015655Y-159374317I-751317J-837345D01*
G01*
G37*
%TD.AperFunction*%
%TO.P,MX18,2*%
%TO.N,Net-(D18-Pad2)*%
X-604393000Y-152273000D03*
%TA.AperFunction,ComponentPad*%
G36*
G01*
X-602690605Y-152389517D02*
X-602690666Y-152390403D01*
G75*
G02*
X-603890403Y-153435334I-1122334J77403D01*
G01*
X-604470403Y-153395334D01*
G75*
G02*
X-605515334Y-152195597I77403J1122334D01*
G01*
X-605515334Y-152195597D01*
G75*
G02*
X-604315597Y-151150666I1122334J-77403D01*
G01*
X-603735597Y-151190666D01*
G75*
G02*
X-602690666Y-152390403I-77403J-1122334D01*
G01*
G37*
%TD.AperFunction*%
%TD*%
%TO.P,MX17,1*%
%TO.N,Col2*%
X-620863000Y-160338000D03*
%TA.AperFunction,ComponentPad*%
G36*
G01*
X-622924312Y-162635350D02*
X-622924317Y-162635345D01*
G75*
G02*
X-623010345Y-161046683I751317J837345D01*
G01*
X-621700343Y-159586683D01*
G75*
G02*
X-620111681Y-159500655I837345J-751317D01*
G01*
X-620111681Y-159500655D01*
G75*
G02*
X-620025653Y-161089317I-751317J-837345D01*
G01*
X-621335655Y-162549317D01*
G75*
G02*
X-622924317Y-162635345I-837345J751317D01*
G01*
G37*
%TD.AperFunction*%
%TO.P,MX17,2*%
%TO.N,Net-(D17-Pad2)*%
X-615823000Y-159258000D03*
%TA.AperFunction,ComponentPad*%
G36*
G01*
X-615939517Y-160960395D02*
X-615940403Y-160960334D01*
G75*
G02*
X-616985334Y-159760597I77403J1122334D01*
G01*
X-616945334Y-159180597D01*
G75*
G02*
X-615745597Y-158135666I1122334J-77403D01*
G01*
X-615745597Y-158135666D01*
G75*
G02*
X-614700666Y-159335403I-77403J-1122334D01*
G01*
X-614740666Y-159915403D01*
G75*
G02*
X-615940403Y-160960334I-1122334J77403D01*
G01*
G37*
%TD.AperFunction*%
%TD*%
%TO.P,MX16,1*%
%TO.N,Col2*%
X-620863000Y-141288000D03*
%TA.AperFunction,ComponentPad*%
G36*
G01*
X-622924312Y-143585350D02*
X-622924317Y-143585345D01*
G75*
G02*
X-623010345Y-141996683I751317J837345D01*
G01*
X-621700343Y-140536683D01*
G75*
G02*
X-620111681Y-140450655I837345J-751317D01*
G01*
X-620111681Y-140450655D01*
G75*
G02*
X-620025653Y-142039317I-751317J-837345D01*
G01*
X-621335655Y-143499317D01*
G75*
G02*
X-622924317Y-143585345I-837345J751317D01*
G01*
G37*
%TD.AperFunction*%
%TO.P,MX16,2*%
%TO.N,Net-(D16-Pad2)*%
X-615823000Y-140208000D03*
%TA.AperFunction,ComponentPad*%
G36*
G01*
X-615939517Y-141910395D02*
X-615940403Y-141910334D01*
G75*
G02*
X-616985334Y-140710597I77403J1122334D01*
G01*
X-616945334Y-140130597D01*
G75*
G02*
X-615745597Y-139085666I1122334J-77403D01*
G01*
X-615745597Y-139085666D01*
G75*
G02*
X-614700666Y-140285403I-77403J-1122334D01*
G01*
X-614740666Y-140865403D01*
G75*
G02*
X-615940403Y-141910334I-1122334J77403D01*
G01*
G37*
%TD.AperFunction*%
%TD*%
%TO.P,MX15,1*%
%TO.N,Col2*%
X-620863000Y-122238000D03*
%TA.AperFunction,ComponentPad*%
G36*
G01*
X-622924312Y-124535350D02*
X-622924317Y-124535345D01*
G75*
G02*
X-623010345Y-122946683I751317J837345D01*
G01*
X-621700343Y-121486683D01*
G75*
G02*
X-620111681Y-121400655I837345J-751317D01*
G01*
X-620111681Y-121400655D01*
G75*
G02*
X-620025653Y-122989317I-751317J-837345D01*
G01*
X-621335655Y-124449317D01*
G75*
G02*
X-622924317Y-124535345I-837345J751317D01*
G01*
G37*
%TD.AperFunction*%
%TO.P,MX15,2*%
%TO.N,Net-(D15-Pad2)*%
X-615823000Y-121158000D03*
%TA.AperFunction,ComponentPad*%
G36*
G01*
X-615939517Y-122860395D02*
X-615940403Y-122860334D01*
G75*
G02*
X-616985334Y-121660597I77403J1122334D01*
G01*
X-616945334Y-121080597D01*
G75*
G02*
X-615745597Y-120035666I1122334J-77403D01*
G01*
X-615745597Y-120035666D01*
G75*
G02*
X-614700666Y-121235403I-77403J-1122334D01*
G01*
X-614740666Y-121815403D01*
G75*
G02*
X-615940403Y-122860334I-1122334J77403D01*
G01*
G37*
%TD.AperFunction*%
%TD*%
%TO.P,MX14,1*%
%TO.N,Col2*%
X-603313000Y-119213000D03*
%TA.AperFunction,ComponentPad*%
G36*
G01*
X-601015650Y-121274312D02*
X-601015655Y-121274317D01*
G75*
G02*
X-602604317Y-121360345I-837345J751317D01*
G01*
X-604064317Y-120050343D01*
G75*
G02*
X-604150345Y-118461681I751317J837345D01*
G01*
X-604150345Y-118461681D01*
G75*
G02*
X-602561683Y-118375653I837345J-751317D01*
G01*
X-601101683Y-119685655D01*
G75*
G02*
X-601015655Y-121274317I-751317J-837345D01*
G01*
G37*
%TD.AperFunction*%
%TO.P,MX14,2*%
%TO.N,Net-(D14-Pad2)*%
X-604393000Y-114173000D03*
%TA.AperFunction,ComponentPad*%
G36*
G01*
X-602690605Y-114289517D02*
X-602690666Y-114290403D01*
G75*
G02*
X-603890403Y-115335334I-1122334J77403D01*
G01*
X-604470403Y-115295334D01*
G75*
G02*
X-605515334Y-114095597I77403J1122334D01*
G01*
X-605515334Y-114095597D01*
G75*
G02*
X-604315597Y-113050666I1122334J-77403D01*
G01*
X-603735597Y-113090666D01*
G75*
G02*
X-602690666Y-114290403I-77403J-1122334D01*
G01*
G37*
%TD.AperFunction*%
%TD*%
%TO.P,MX13,1*%
%TO.N,Col2*%
X-601813000Y-84138000D03*
%TA.AperFunction,ComponentPad*%
G36*
G01*
X-603874312Y-86435350D02*
X-603874317Y-86435345D01*
G75*
G02*
X-603960345Y-84846683I751317J837345D01*
G01*
X-602650343Y-83386683D01*
G75*
G02*
X-601061681Y-83300655I837345J-751317D01*
G01*
X-601061681Y-83300655D01*
G75*
G02*
X-600975653Y-84889317I-751317J-837345D01*
G01*
X-602285655Y-86349317D01*
G75*
G02*
X-603874317Y-86435345I-837345J751317D01*
G01*
G37*
%TD.AperFunction*%
%TO.P,MX13,2*%
%TO.N,Net-(D13-Pad2)*%
X-596773000Y-83058000D03*
%TA.AperFunction,ComponentPad*%
G36*
G01*
X-596889517Y-84760395D02*
X-596890403Y-84760334D01*
G75*
G02*
X-597935334Y-83560597I77403J1122334D01*
G01*
X-597895334Y-82980597D01*
G75*
G02*
X-596695597Y-81935666I1122334J-77403D01*
G01*
X-596695597Y-81935666D01*
G75*
G02*
X-595650666Y-83135403I-77403J-1122334D01*
G01*
X-595690666Y-83715403D01*
G75*
G02*
X-596890403Y-84760334I-1122334J77403D01*
G01*
G37*
%TD.AperFunction*%
%TD*%
%TO.P,MX12,1*%
%TO.N,Col1*%
X-639913000Y-160338000D03*
%TA.AperFunction,ComponentPad*%
G36*
G01*
X-641974312Y-162635350D02*
X-641974317Y-162635345D01*
G75*
G02*
X-642060345Y-161046683I751317J837345D01*
G01*
X-640750343Y-159586683D01*
G75*
G02*
X-639161681Y-159500655I837345J-751317D01*
G01*
X-639161681Y-159500655D01*
G75*
G02*
X-639075653Y-161089317I-751317J-837345D01*
G01*
X-640385655Y-162549317D01*
G75*
G02*
X-641974317Y-162635345I-837345J751317D01*
G01*
G37*
%TD.AperFunction*%
%TO.P,MX12,2*%
%TO.N,Net-(D12-Pad2)*%
X-634873000Y-159258000D03*
%TA.AperFunction,ComponentPad*%
G36*
G01*
X-634989517Y-160960395D02*
X-634990403Y-160960334D01*
G75*
G02*
X-636035334Y-159760597I77403J1122334D01*
G01*
X-635995334Y-159180597D01*
G75*
G02*
X-634795597Y-158135666I1122334J-77403D01*
G01*
X-634795597Y-158135666D01*
G75*
G02*
X-633750666Y-159335403I-77403J-1122334D01*
G01*
X-633790666Y-159915403D01*
G75*
G02*
X-634990403Y-160960334I-1122334J77403D01*
G01*
G37*
%TD.AperFunction*%
%TD*%
%TO.P,MX11,1*%
%TO.N,Col1*%
X-639913000Y-141288000D03*
%TA.AperFunction,ComponentPad*%
G36*
G01*
X-641974312Y-143585350D02*
X-641974317Y-143585345D01*
G75*
G02*
X-642060345Y-141996683I751317J837345D01*
G01*
X-640750343Y-140536683D01*
G75*
G02*
X-639161681Y-140450655I837345J-751317D01*
G01*
X-639161681Y-140450655D01*
G75*
G02*
X-639075653Y-142039317I-751317J-837345D01*
G01*
X-640385655Y-143499317D01*
G75*
G02*
X-641974317Y-143585345I-837345J751317D01*
G01*
G37*
%TD.AperFunction*%
%TO.P,MX11,2*%
%TO.N,Net-(D11-Pad2)*%
X-634873000Y-140208000D03*
%TA.AperFunction,ComponentPad*%
G36*
G01*
X-634989517Y-141910395D02*
X-634990403Y-141910334D01*
G75*
G02*
X-636035334Y-140710597I77403J1122334D01*
G01*
X-635995334Y-140130597D01*
G75*
G02*
X-634795597Y-139085666I1122334J-77403D01*
G01*
X-634795597Y-139085666D01*
G75*
G02*
X-633750666Y-140285403I-77403J-1122334D01*
G01*
X-633790666Y-140865403D01*
G75*
G02*
X-634990403Y-141910334I-1122334J77403D01*
G01*
G37*
%TD.AperFunction*%
%TD*%
%TO.P,MX10,1*%
%TO.N,Col1*%
X-639913000Y-122238000D03*
%TA.AperFunction,ComponentPad*%
G36*
G01*
X-641974312Y-124535350D02*
X-641974317Y-124535345D01*
G75*
G02*
X-642060345Y-122946683I751317J837345D01*
G01*
X-640750343Y-121486683D01*
G75*
G02*
X-639161681Y-121400655I837345J-751317D01*
G01*
X-639161681Y-121400655D01*
G75*
G02*
X-639075653Y-122989317I-751317J-837345D01*
G01*
X-640385655Y-124449317D01*
G75*
G02*
X-641974317Y-124535345I-837345J751317D01*
G01*
G37*
%TD.AperFunction*%
%TO.P,MX10,2*%
%TO.N,Net-(D10-Pad2)*%
X-634873000Y-121158000D03*
%TA.AperFunction,ComponentPad*%
G36*
G01*
X-634989517Y-122860395D02*
X-634990403Y-122860334D01*
G75*
G02*
X-636035334Y-121660597I77403J1122334D01*
G01*
X-635995334Y-121080597D01*
G75*
G02*
X-634795597Y-120035666I1122334J-77403D01*
G01*
X-634795597Y-120035666D01*
G75*
G02*
X-633750666Y-121235403I-77403J-1122334D01*
G01*
X-633790666Y-121815403D01*
G75*
G02*
X-634990403Y-122860334I-1122334J77403D01*
G01*
G37*
%TD.AperFunction*%
%TD*%
%TO.P,MX9,1*%
%TO.N,Col1*%
X-639913000Y-103188000D03*
%TA.AperFunction,ComponentPad*%
G36*
G01*
X-641974312Y-105485350D02*
X-641974317Y-105485345D01*
G75*
G02*
X-642060345Y-103896683I751317J837345D01*
G01*
X-640750343Y-102436683D01*
G75*
G02*
X-639161681Y-102350655I837345J-751317D01*
G01*
X-639161681Y-102350655D01*
G75*
G02*
X-639075653Y-103939317I-751317J-837345D01*
G01*
X-640385655Y-105399317D01*
G75*
G02*
X-641974317Y-105485345I-837345J751317D01*
G01*
G37*
%TD.AperFunction*%
%TO.P,MX9,2*%
%TO.N,Net-(D9-Pad2)*%
X-634873000Y-102108000D03*
%TA.AperFunction,ComponentPad*%
G36*
G01*
X-634989517Y-103810395D02*
X-634990403Y-103810334D01*
G75*
G02*
X-636035334Y-102610597I77403J1122334D01*
G01*
X-635995334Y-102030597D01*
G75*
G02*
X-634795597Y-100985666I1122334J-77403D01*
G01*
X-634795597Y-100985666D01*
G75*
G02*
X-633750666Y-102185403I-77403J-1122334D01*
G01*
X-633790666Y-102765403D01*
G75*
G02*
X-634990403Y-103810334I-1122334J77403D01*
G01*
G37*
%TD.AperFunction*%
%TD*%
%TO.P,MX8,1*%
%TO.N,Col1*%
X-620863000Y-103188000D03*
%TA.AperFunction,ComponentPad*%
G36*
G01*
X-622924312Y-105485350D02*
X-622924317Y-105485345D01*
G75*
G02*
X-623010345Y-103896683I751317J837345D01*
G01*
X-621700343Y-102436683D01*
G75*
G02*
X-620111681Y-102350655I837345J-751317D01*
G01*
X-620111681Y-102350655D01*
G75*
G02*
X-620025653Y-103939317I-751317J-837345D01*
G01*
X-621335655Y-105399317D01*
G75*
G02*
X-622924317Y-105485345I-837345J751317D01*
G01*
G37*
%TD.AperFunction*%
%TO.P,MX8,2*%
%TO.N,Net-(D8-Pad2)*%
X-615823000Y-102108000D03*
%TA.AperFunction,ComponentPad*%
G36*
G01*
X-615939517Y-103810395D02*
X-615940403Y-103810334D01*
G75*
G02*
X-616985334Y-102610597I77403J1122334D01*
G01*
X-616945334Y-102030597D01*
G75*
G02*
X-615745597Y-100985666I1122334J-77403D01*
G01*
X-615745597Y-100985666D01*
G75*
G02*
X-614700666Y-102185403I-77403J-1122334D01*
G01*
X-614740666Y-102765403D01*
G75*
G02*
X-615940403Y-103810334I-1122334J77403D01*
G01*
G37*
%TD.AperFunction*%
%TD*%
%TO.P,MX7,1*%
%TO.N,Col1*%
X-620863000Y-84138000D03*
%TA.AperFunction,ComponentPad*%
G36*
G01*
X-622924312Y-86435350D02*
X-622924317Y-86435345D01*
G75*
G02*
X-623010345Y-84846683I751317J837345D01*
G01*
X-621700343Y-83386683D01*
G75*
G02*
X-620111681Y-83300655I837345J-751317D01*
G01*
X-620111681Y-83300655D01*
G75*
G02*
X-620025653Y-84889317I-751317J-837345D01*
G01*
X-621335655Y-86349317D01*
G75*
G02*
X-622924317Y-86435345I-837345J751317D01*
G01*
G37*
%TD.AperFunction*%
%TO.P,MX7,2*%
%TO.N,Net-(D7-Pad2)*%
X-615823000Y-83058000D03*
%TA.AperFunction,ComponentPad*%
G36*
G01*
X-615939517Y-84760395D02*
X-615940403Y-84760334D01*
G75*
G02*
X-616985334Y-83560597I77403J1122334D01*
G01*
X-616945334Y-82980597D01*
G75*
G02*
X-615745597Y-81935666I1122334J-77403D01*
G01*
X-615745597Y-81935666D01*
G75*
G02*
X-614700666Y-83135403I-77403J-1122334D01*
G01*
X-614740666Y-83715403D01*
G75*
G02*
X-615940403Y-84760334I-1122334J77403D01*
G01*
G37*
%TD.AperFunction*%
%TD*%
%TO.P,MX5,1*%
%TO.N,Col0*%
X-658963000Y-141288000D03*
%TA.AperFunction,ComponentPad*%
G36*
G01*
X-661024312Y-143585350D02*
X-661024317Y-143585345D01*
G75*
G02*
X-661110345Y-141996683I751317J837345D01*
G01*
X-659800343Y-140536683D01*
G75*
G02*
X-658211681Y-140450655I837345J-751317D01*
G01*
X-658211681Y-140450655D01*
G75*
G02*
X-658125653Y-142039317I-751317J-837345D01*
G01*
X-659435655Y-143499317D01*
G75*
G02*
X-661024317Y-143585345I-837345J751317D01*
G01*
G37*
%TD.AperFunction*%
%TO.P,MX5,2*%
%TO.N,Net-(D5-Pad2)*%
X-653923000Y-140208000D03*
%TA.AperFunction,ComponentPad*%
G36*
G01*
X-654039517Y-141910395D02*
X-654040403Y-141910334D01*
G75*
G02*
X-655085334Y-140710597I77403J1122334D01*
G01*
X-655045334Y-140130597D01*
G75*
G02*
X-653845597Y-139085666I1122334J-77403D01*
G01*
X-653845597Y-139085666D01*
G75*
G02*
X-652800666Y-140285403I-77403J-1122334D01*
G01*
X-652840666Y-140865403D01*
G75*
G02*
X-654040403Y-141910334I-1122334J77403D01*
G01*
G37*
%TD.AperFunction*%
%TD*%
%TO.P,MX4,1*%
%TO.N,Col0*%
X-658963000Y-122238000D03*
%TA.AperFunction,ComponentPad*%
G36*
G01*
X-661024312Y-124535350D02*
X-661024317Y-124535345D01*
G75*
G02*
X-661110345Y-122946683I751317J837345D01*
G01*
X-659800343Y-121486683D01*
G75*
G02*
X-658211681Y-121400655I837345J-751317D01*
G01*
X-658211681Y-121400655D01*
G75*
G02*
X-658125653Y-122989317I-751317J-837345D01*
G01*
X-659435655Y-124449317D01*
G75*
G02*
X-661024317Y-124535345I-837345J751317D01*
G01*
G37*
%TD.AperFunction*%
%TO.P,MX4,2*%
%TO.N,Net-(D4-Pad2)*%
X-653923000Y-121158000D03*
%TA.AperFunction,ComponentPad*%
G36*
G01*
X-654039517Y-122860395D02*
X-654040403Y-122860334D01*
G75*
G02*
X-655085334Y-121660597I77403J1122334D01*
G01*
X-655045334Y-121080597D01*
G75*
G02*
X-653845597Y-120035666I1122334J-77403D01*
G01*
X-653845597Y-120035666D01*
G75*
G02*
X-652800666Y-121235403I-77403J-1122334D01*
G01*
X-652840666Y-121815403D01*
G75*
G02*
X-654040403Y-122860334I-1122334J77403D01*
G01*
G37*
%TD.AperFunction*%
%TD*%
%TO.P,MX3,1*%
%TO.N,Col0*%
X-658963000Y-103188000D03*
%TA.AperFunction,ComponentPad*%
G36*
G01*
X-661024312Y-105485350D02*
X-661024317Y-105485345D01*
G75*
G02*
X-661110345Y-103896683I751317J837345D01*
G01*
X-659800343Y-102436683D01*
G75*
G02*
X-658211681Y-102350655I837345J-751317D01*
G01*
X-658211681Y-102350655D01*
G75*
G02*
X-658125653Y-103939317I-751317J-837345D01*
G01*
X-659435655Y-105399317D01*
G75*
G02*
X-661024317Y-105485345I-837345J751317D01*
G01*
G37*
%TD.AperFunction*%
%TO.P,MX3,2*%
%TO.N,Net-(D3-Pad2)*%
X-653923000Y-102108000D03*
%TA.AperFunction,ComponentPad*%
G36*
G01*
X-654039517Y-103810395D02*
X-654040403Y-103810334D01*
G75*
G02*
X-655085334Y-102610597I77403J1122334D01*
G01*
X-655045334Y-102030597D01*
G75*
G02*
X-653845597Y-100985666I1122334J-77403D01*
G01*
X-653845597Y-100985666D01*
G75*
G02*
X-652800666Y-102185403I-77403J-1122334D01*
G01*
X-652840666Y-102765403D01*
G75*
G02*
X-654040403Y-103810334I-1122334J77403D01*
G01*
G37*
%TD.AperFunction*%
%TD*%
%TO.P,MX2,1*%
%TO.N,Col0*%
X-658963000Y-84138000D03*
%TA.AperFunction,ComponentPad*%
G36*
G01*
X-661024312Y-86435350D02*
X-661024317Y-86435345D01*
G75*
G02*
X-661110345Y-84846683I751317J837345D01*
G01*
X-659800343Y-83386683D01*
G75*
G02*
X-658211681Y-83300655I837345J-751317D01*
G01*
X-658211681Y-83300655D01*
G75*
G02*
X-658125653Y-84889317I-751317J-837345D01*
G01*
X-659435655Y-86349317D01*
G75*
G02*
X-661024317Y-86435345I-837345J751317D01*
G01*
G37*
%TD.AperFunction*%
%TO.P,MX2,2*%
%TO.N,Net-(D2-Pad2)*%
X-653923000Y-83058000D03*
%TA.AperFunction,ComponentPad*%
G36*
G01*
X-654039517Y-84760395D02*
X-654040403Y-84760334D01*
G75*
G02*
X-655085334Y-83560597I77403J1122334D01*
G01*
X-655045334Y-82980597D01*
G75*
G02*
X-653845597Y-81935666I1122334J-77403D01*
G01*
X-653845597Y-81935666D01*
G75*
G02*
X-652800666Y-83135403I-77403J-1122334D01*
G01*
X-652840666Y-83715403D01*
G75*
G02*
X-654040403Y-84760334I-1122334J77403D01*
G01*
G37*
%TD.AperFunction*%
%TD*%
%TO.P,MX1,1*%
%TO.N,Col0*%
X-639913000Y-84138000D03*
%TA.AperFunction,ComponentPad*%
G36*
G01*
X-641974312Y-86435350D02*
X-641974317Y-86435345D01*
G75*
G02*
X-642060345Y-84846683I751317J837345D01*
G01*
X-640750343Y-83386683D01*
G75*
G02*
X-639161681Y-83300655I837345J-751317D01*
G01*
X-639161681Y-83300655D01*
G75*
G02*
X-639075653Y-84889317I-751317J-837345D01*
G01*
X-640385655Y-86349317D01*
G75*
G02*
X-641974317Y-86435345I-837345J751317D01*
G01*
G37*
%TD.AperFunction*%
%TO.P,MX1,2*%
%TO.N,Net-(D1-Pad2)*%
X-634873000Y-83058000D03*
%TA.AperFunction,ComponentPad*%
G36*
G01*
X-634989517Y-84760395D02*
X-634990403Y-84760334D01*
G75*
G02*
X-636035334Y-83560597I77403J1122334D01*
G01*
X-635995334Y-82980597D01*
G75*
G02*
X-634795597Y-81935666I1122334J-77403D01*
G01*
X-634795597Y-81935666D01*
G75*
G02*
X-633750666Y-83135403I-77403J-1122334D01*
G01*
X-633790666Y-83715403D01*
G75*
G02*
X-634990403Y-84760334I-1122334J77403D01*
G01*
G37*
%TD.AperFunction*%
%TD*%
D18*
%TO.P,D105,2*%
%TO.N,Net-(D105-Pad2)*%
X-214245700Y-105563400D03*
%TO.P,D105,1*%
%TO.N,Row2*%
X-214245700Y-108863400D03*
%TD*%
%TO.P,D104,2*%
%TO.N,Net-(D104-Pad2)*%
X-223783400Y-86488000D03*
%TO.P,D104,1*%
%TO.N,Row1*%
X-223783400Y-89788000D03*
%TD*%
%TO.P,D103,2*%
%TO.N,Net-(D103-Pad2)*%
X-204708000Y-62675500D03*
%TO.P,D103,1*%
%TO.N,Row0*%
X-204708000Y-65975500D03*
%TD*%
%TO.P,D102,2*%
%TO.N,Net-(D102-Pad2)*%
X-204708000Y-143638000D03*
%TO.P,D102,1*%
%TO.N,Row5*%
X-204708000Y-146938000D03*
%TD*%
%TO.P,D101,2*%
%TO.N,Net-(D101-Pad2)*%
X-228532650Y-124588000D03*
%TO.P,D101,1*%
%TO.N,Row4*%
X-228532650Y-127888000D03*
%TD*%
%TO.P,D99,2*%
%TO.N,Net-(D99-Pad2)*%
X-233308400Y-105563400D03*
%TO.P,D99,1*%
%TO.N,Row2*%
X-233308400Y-108863400D03*
%TD*%
%TO.P,D98,2*%
%TO.N,Net-(D98-Pad2)*%
X-242833400Y-86513400D03*
%TO.P,D98,1*%
%TO.N,Row1*%
X-242833400Y-89813400D03*
%TD*%
%TO.P,D97,2*%
%TO.N,Net-(D97-Pad2)*%
X-223758000Y-62675500D03*
%TO.P,D97,1*%
%TO.N,Row0*%
X-223758000Y-65975500D03*
%TD*%
%TO.P,D96,2*%
%TO.N,Net-(D96-Pad2)*%
X-209455250Y-162713400D03*
%TO.P,D96,1*%
%TO.N,Row5*%
X-209455250Y-166013400D03*
%TD*%
%TO.P,D95,2*%
%TO.N,Net-(D95-Pad2)*%
X-247576850Y-143688800D03*
%TO.P,D95,1*%
%TO.N,Row4*%
X-247576850Y-146988800D03*
%TD*%
%TO.P,D94,2*%
%TO.N,Net-(D94-Pad2)*%
X-247557800Y-124562600D03*
%TO.P,D94,1*%
%TO.N,Row3*%
X-247557800Y-127862600D03*
%TD*%
%TO.P,D93,2*%
%TO.N,Net-(D93-Pad2)*%
X-252358400Y-105563400D03*
%TO.P,D93,1*%
%TO.N,Row2*%
X-252358400Y-108863400D03*
%TD*%
%TO.P,D92,2*%
%TO.N,Net-(D92-Pad2)*%
X-261883400Y-86513400D03*
%TO.P,D92,1*%
%TO.N,Row1*%
X-261883400Y-89813400D03*
%TD*%
%TO.P,D91,2*%
%TO.N,Net-(D91-Pad2)*%
X-264626600Y-62675500D03*
%TO.P,D91,1*%
%TO.N,Row0*%
X-264626600Y-65975500D03*
%TD*%
%TO.P,D90,2*%
%TO.N,Net-(D90-Pad2)*%
X-233255050Y-162713400D03*
%TO.P,D90,1*%
%TO.N,Row5*%
X-233255050Y-166013400D03*
%TD*%
%TO.P,D89,2*%
%TO.N,Net-(D89-Pad2)*%
X-266633200Y-143612600D03*
%TO.P,D89,1*%
%TO.N,Row4*%
X-266633200Y-146912600D03*
%TD*%
%TO.P,D88,2*%
%TO.N,Net-(D88-Pad2)*%
X-266607800Y-124562600D03*
%TO.P,D88,1*%
%TO.N,Row3*%
X-266607800Y-127862600D03*
%TD*%
%TO.P,D87,2*%
%TO.N,Net-(D87-Pad2)*%
X-271433800Y-105563400D03*
%TO.P,D87,1*%
%TO.N,Row2*%
X-271433800Y-108863400D03*
%TD*%
%TO.P,D86,2*%
%TO.N,Net-(D86-Pad2)*%
X-280933400Y-86513400D03*
%TO.P,D86,1*%
%TO.N,Row1*%
X-280933400Y-89813400D03*
%TD*%
%TO.P,D85,2*%
%TO.N,Net-(D85-Pad2)*%
X-283676600Y-62675500D03*
%TO.P,D85,1*%
%TO.N,Row0*%
X-283676600Y-65975500D03*
%TD*%
%TO.P,D84,2*%
%TO.N,Net-(D84-Pad2)*%
X-257051050Y-162713400D03*
%TO.P,D84,1*%
%TO.N,Row5*%
X-257051050Y-166013400D03*
%TD*%
%TA.AperFunction,SMDPad,CuDef*%
D17*
%TO.P,D83,2*%
%TO.N,Net-(D83-Pad2)*%
G36*
X-294747382Y-148335848D02*
G01*
X-295906493Y-148646431D01*
X-296139430Y-147777098D01*
X-294980319Y-147466515D01*
X-294747382Y-148335848D01*
G37*
%TD.AperFunction*%
%TA.AperFunction,SMDPad,CuDef*%
%TO.P,D83,1*%
%TO.N,Row4*%
G36*
X-293893280Y-151523404D02*
G01*
X-295052391Y-151833987D01*
X-295285328Y-150964654D01*
X-294126217Y-150654071D01*
X-293893280Y-151523404D01*
G37*
%TD.AperFunction*%
%TD*%
%TA.AperFunction,SMDPad,CuDef*%
%TO.P,D82,2*%
%TO.N,Net-(D82-Pad2)*%
G36*
X-298206812Y-129510142D02*
G01*
X-299365923Y-129820725D01*
X-299598860Y-128951392D01*
X-298439749Y-128640809D01*
X-298206812Y-129510142D01*
G37*
%TD.AperFunction*%
%TA.AperFunction,SMDPad,CuDef*%
%TO.P,D82,1*%
%TO.N,Row3*%
G36*
X-297352710Y-132697698D02*
G01*
X-298511821Y-133008281D01*
X-298744758Y-132138948D01*
X-297585647Y-131828365D01*
X-297352710Y-132697698D01*
G37*
%TD.AperFunction*%
%TD*%
%TA.AperFunction,SMDPad,CuDef*%
%TO.P,D81,2*%
%TO.N,Net-(D81-Pad2)*%
G36*
X-301661212Y-110714142D02*
G01*
X-302820323Y-111024725D01*
X-303053260Y-110155392D01*
X-301894149Y-109844809D01*
X-301661212Y-110714142D01*
G37*
%TD.AperFunction*%
%TA.AperFunction,SMDPad,CuDef*%
%TO.P,D81,1*%
%TO.N,Row2*%
G36*
X-300807110Y-113901698D02*
G01*
X-301966221Y-114212281D01*
X-302199158Y-113342948D01*
X-301040047Y-113032365D01*
X-300807110Y-113901698D01*
G37*
%TD.AperFunction*%
%TD*%
%TA.AperFunction,SMDPad,CuDef*%
%TO.P,D80,1*%
%TO.N,Row1*%
G36*
X-304261510Y-95080298D02*
G01*
X-305420621Y-95390881D01*
X-305653558Y-94521548D01*
X-304494447Y-94210965D01*
X-304261510Y-95080298D01*
G37*
%TD.AperFunction*%
%TA.AperFunction,SMDPad,CuDef*%
%TO.P,D80,2*%
%TO.N,Net-(D80-Pad2)*%
G36*
X-305115612Y-91892742D02*
G01*
X-306274723Y-92203325D01*
X-306507660Y-91333992D01*
X-305348549Y-91023409D01*
X-305115612Y-91892742D01*
G37*
%TD.AperFunction*%
%TD*%
%TA.AperFunction,SMDPad,CuDef*%
%TO.P,D79,2*%
%TO.N,Net-(D79-Pad2)*%
G36*
X-310175262Y-67815942D02*
G01*
X-311334373Y-68126525D01*
X-311567310Y-67257192D01*
X-310408199Y-66946609D01*
X-310175262Y-67815942D01*
G37*
%TD.AperFunction*%
%TA.AperFunction,SMDPad,CuDef*%
%TO.P,D79,1*%
%TO.N,Row0*%
G36*
X-309321160Y-71003498D02*
G01*
X-310480271Y-71314081D01*
X-310713208Y-70444748D01*
X-309554097Y-70134165D01*
X-309321160Y-71003498D01*
G37*
%TD.AperFunction*%
%TD*%
%TA.AperFunction,SMDPad,CuDef*%
%TO.P,D78,2*%
%TO.N,Net-(D78-Pad2)*%
G36*
X-312808608Y-172881156D02*
G01*
X-313967719Y-173191739D01*
X-314200656Y-172322406D01*
X-313041545Y-172011823D01*
X-312808608Y-172881156D01*
G37*
%TD.AperFunction*%
%TA.AperFunction,SMDPad,CuDef*%
%TO.P,D78,1*%
%TO.N,Row5*%
G36*
X-311954506Y-176068712D02*
G01*
X-313113617Y-176379295D01*
X-313346554Y-175509962D01*
X-312187443Y-175199379D01*
X-311954506Y-176068712D01*
G37*
%TD.AperFunction*%
%TD*%
%TA.AperFunction,SMDPad,CuDef*%
%TO.P,D77,2*%
%TO.N,Net-(D77-Pad2)*%
G36*
X-313148268Y-153266350D02*
G01*
X-314307379Y-153576933D01*
X-314540316Y-152707600D01*
X-313381205Y-152397017D01*
X-313148268Y-153266350D01*
G37*
%TD.AperFunction*%
%TA.AperFunction,SMDPad,CuDef*%
%TO.P,D77,1*%
%TO.N,Row4*%
G36*
X-312294166Y-156453906D02*
G01*
X-313453277Y-156764489D01*
X-313686214Y-155895156D01*
X-312527103Y-155584573D01*
X-312294166Y-156453906D01*
G37*
%TD.AperFunction*%
%TD*%
%TA.AperFunction,SMDPad,CuDef*%
%TO.P,D76,2*%
%TO.N,Net-(D76-Pad2)*%
G36*
X-316607698Y-134440644D02*
G01*
X-317766809Y-134751227D01*
X-317999746Y-133881894D01*
X-316840635Y-133571311D01*
X-316607698Y-134440644D01*
G37*
%TD.AperFunction*%
%TA.AperFunction,SMDPad,CuDef*%
%TO.P,D76,1*%
%TO.N,Row3*%
G36*
X-315753596Y-137628200D02*
G01*
X-316912707Y-137938783D01*
X-317145644Y-137069450D01*
X-315986533Y-136758867D01*
X-315753596Y-137628200D01*
G37*
%TD.AperFunction*%
%TD*%
%TA.AperFunction,SMDPad,CuDef*%
%TO.P,D75,2*%
%TO.N,Net-(D75-Pad2)*%
G36*
X-320062098Y-115644644D02*
G01*
X-321221209Y-115955227D01*
X-321454146Y-115085894D01*
X-320295035Y-114775311D01*
X-320062098Y-115644644D01*
G37*
%TD.AperFunction*%
%TA.AperFunction,SMDPad,CuDef*%
%TO.P,D75,1*%
%TO.N,Row2*%
G36*
X-319207996Y-118832200D02*
G01*
X-320367107Y-119142783D01*
X-320600044Y-118273450D01*
X-319440933Y-117962867D01*
X-319207996Y-118832200D01*
G37*
%TD.AperFunction*%
%TD*%
%TA.AperFunction,SMDPad,CuDef*%
%TO.P,D74,2*%
%TO.N,Net-(D74-Pad2)*%
G36*
X-323516498Y-96823244D02*
G01*
X-324675609Y-97133827D01*
X-324908546Y-96264494D01*
X-323749435Y-95953911D01*
X-323516498Y-96823244D01*
G37*
%TD.AperFunction*%
%TA.AperFunction,SMDPad,CuDef*%
%TO.P,D74,1*%
%TO.N,Row1*%
G36*
X-322662396Y-100010800D02*
G01*
X-323821507Y-100321383D01*
X-324054444Y-99452050D01*
X-322895333Y-99141467D01*
X-322662396Y-100010800D01*
G37*
%TD.AperFunction*%
%TD*%
%TA.AperFunction,SMDPad,CuDef*%
%TO.P,D73,2*%
%TO.N,Net-(D73-Pad2)*%
G36*
X-328576148Y-72746444D02*
G01*
X-329735259Y-73057027D01*
X-329968196Y-72187694D01*
X-328809085Y-71877111D01*
X-328576148Y-72746444D01*
G37*
%TD.AperFunction*%
%TA.AperFunction,SMDPad,CuDef*%
%TO.P,D73,1*%
%TO.N,Row0*%
G36*
X-327722046Y-75934000D02*
G01*
X-328881157Y-76244583D01*
X-329114094Y-75375250D01*
X-327954983Y-75064667D01*
X-327722046Y-75934000D01*
G37*
%TD.AperFunction*%
%TD*%
%TA.AperFunction,SMDPad,CuDef*%
%TO.P,D72,2*%
%TO.N,Net-(D72-Pad2)*%
G36*
X-363411046Y-186440038D02*
G01*
X-364570157Y-186750621D01*
X-364803094Y-185881288D01*
X-363643983Y-185570705D01*
X-363411046Y-186440038D01*
G37*
%TD.AperFunction*%
%TA.AperFunction,SMDPad,CuDef*%
%TO.P,D72,1*%
%TO.N,Row5*%
G36*
X-362556944Y-189627594D02*
G01*
X-363716055Y-189938177D01*
X-363948992Y-189068844D01*
X-362789881Y-188758261D01*
X-362556944Y-189627594D01*
G37*
%TD.AperFunction*%
%TD*%
%TA.AperFunction,SMDPad,CuDef*%
%TO.P,D71,2*%
%TO.N,Net-(D71-Pad2)*%
G36*
X-331549154Y-158196852D02*
G01*
X-332708265Y-158507435D01*
X-332941202Y-157638102D01*
X-331782091Y-157327519D01*
X-331549154Y-158196852D01*
G37*
%TD.AperFunction*%
%TA.AperFunction,SMDPad,CuDef*%
%TO.P,D71,1*%
%TO.N,Row4*%
G36*
X-330695052Y-161384408D02*
G01*
X-331854163Y-161694991D01*
X-332087100Y-160825658D01*
X-330927989Y-160515075D01*
X-330695052Y-161384408D01*
G37*
%TD.AperFunction*%
%TD*%
%TA.AperFunction,SMDPad,CuDef*%
%TO.P,D70,2*%
%TO.N,Net-(D70-Pad2)*%
G36*
X-335008584Y-139371146D02*
G01*
X-336167695Y-139681729D01*
X-336400632Y-138812396D01*
X-335241521Y-138501813D01*
X-335008584Y-139371146D01*
G37*
%TD.AperFunction*%
%TA.AperFunction,SMDPad,CuDef*%
%TO.P,D70,1*%
%TO.N,Row3*%
G36*
X-334154482Y-142558702D02*
G01*
X-335313593Y-142869285D01*
X-335546530Y-141999952D01*
X-334387419Y-141689369D01*
X-334154482Y-142558702D01*
G37*
%TD.AperFunction*%
%TD*%
%TA.AperFunction,SMDPad,CuDef*%
%TO.P,D69,2*%
%TO.N,Net-(D69-Pad2)*%
G36*
X-338462984Y-120575146D02*
G01*
X-339622095Y-120885729D01*
X-339855032Y-120016396D01*
X-338695921Y-119705813D01*
X-338462984Y-120575146D01*
G37*
%TD.AperFunction*%
%TA.AperFunction,SMDPad,CuDef*%
%TO.P,D69,1*%
%TO.N,Row2*%
G36*
X-337608882Y-123762702D02*
G01*
X-338767993Y-124073285D01*
X-339000930Y-123203952D01*
X-337841819Y-122893369D01*
X-337608882Y-123762702D01*
G37*
%TD.AperFunction*%
%TD*%
%TA.AperFunction,SMDPad,CuDef*%
%TO.P,D68,2*%
%TO.N,Net-(D68-Pad2)*%
G36*
X-341917384Y-101753746D02*
G01*
X-343076495Y-102064329D01*
X-343309432Y-101194996D01*
X-342150321Y-100884413D01*
X-341917384Y-101753746D01*
G37*
%TD.AperFunction*%
%TA.AperFunction,SMDPad,CuDef*%
%TO.P,D68,1*%
%TO.N,Row1*%
G36*
X-341063282Y-104941302D02*
G01*
X-342222393Y-105251885D01*
X-342455330Y-104382552D01*
X-341296219Y-104071969D01*
X-341063282Y-104941302D01*
G37*
%TD.AperFunction*%
%TD*%
%TA.AperFunction,SMDPad,CuDef*%
%TO.P,D67,2*%
%TO.N,Net-(D67-Pad2)*%
G36*
X-346977034Y-77676946D02*
G01*
X-348136145Y-77987529D01*
X-348369082Y-77118196D01*
X-347209971Y-76807613D01*
X-346977034Y-77676946D01*
G37*
%TD.AperFunction*%
%TA.AperFunction,SMDPad,CuDef*%
%TO.P,D67,1*%
%TO.N,Row0*%
G36*
X-346122932Y-80864502D02*
G01*
X-347282043Y-81175085D01*
X-347514980Y-80305752D01*
X-346355869Y-79995169D01*
X-346122932Y-80864502D01*
G37*
%TD.AperFunction*%
%TD*%
%TA.AperFunction,SMDPad,CuDef*%
%TO.P,D66,2*%
%TO.N,Net-(D66-Pad2)*%
G36*
X-368350926Y-168057856D02*
G01*
X-369510037Y-168368439D01*
X-369742974Y-167499106D01*
X-368583863Y-167188523D01*
X-368350926Y-168057856D01*
G37*
%TD.AperFunction*%
%TA.AperFunction,SMDPad,CuDef*%
%TO.P,D66,1*%
%TO.N,Row5*%
G36*
X-367496824Y-171245412D02*
G01*
X-368655935Y-171555995D01*
X-368888872Y-170686662D01*
X-367729761Y-170376079D01*
X-367496824Y-171245412D01*
G37*
%TD.AperFunction*%
%TD*%
%TA.AperFunction,SMDPad,CuDef*%
%TO.P,D65,2*%
%TO.N,Net-(D65-Pad2)*%
G36*
X-349950040Y-163127354D02*
G01*
X-351109151Y-163437937D01*
X-351342088Y-162568604D01*
X-350182977Y-162258021D01*
X-349950040Y-163127354D01*
G37*
%TD.AperFunction*%
%TA.AperFunction,SMDPad,CuDef*%
%TO.P,D65,1*%
%TO.N,Row4*%
G36*
X-349095938Y-166314910D02*
G01*
X-350255049Y-166625493D01*
X-350487986Y-165756160D01*
X-349328875Y-165445577D01*
X-349095938Y-166314910D01*
G37*
%TD.AperFunction*%
%TD*%
%TA.AperFunction,SMDPad,CuDef*%
%TO.P,D64,1*%
%TO.N,Row3*%
G36*
X-352555368Y-147489204D02*
G01*
X-353714479Y-147799787D01*
X-353947416Y-146930454D01*
X-352788305Y-146619871D01*
X-352555368Y-147489204D01*
G37*
%TD.AperFunction*%
%TA.AperFunction,SMDPad,CuDef*%
%TO.P,D64,2*%
%TO.N,Net-(D64-Pad2)*%
G36*
X-353409470Y-144301648D02*
G01*
X-354568581Y-144612231D01*
X-354801518Y-143742898D01*
X-353642407Y-143432315D01*
X-353409470Y-144301648D01*
G37*
%TD.AperFunction*%
%TD*%
%TA.AperFunction,SMDPad,CuDef*%
%TO.P,D63,2*%
%TO.N,Net-(D63-Pad2)*%
G36*
X-356863870Y-125505648D02*
G01*
X-358022981Y-125816231D01*
X-358255918Y-124946898D01*
X-357096807Y-124636315D01*
X-356863870Y-125505648D01*
G37*
%TD.AperFunction*%
%TA.AperFunction,SMDPad,CuDef*%
%TO.P,D63,1*%
%TO.N,Row2*%
G36*
X-356009768Y-128693204D02*
G01*
X-357168879Y-129003787D01*
X-357401816Y-128134454D01*
X-356242705Y-127823871D01*
X-356009768Y-128693204D01*
G37*
%TD.AperFunction*%
%TD*%
%TA.AperFunction,SMDPad,CuDef*%
%TO.P,D62,2*%
%TO.N,Net-(D62-Pad2)*%
G36*
X-360318270Y-106684248D02*
G01*
X-361477381Y-106994831D01*
X-361710318Y-106125498D01*
X-360551207Y-105814915D01*
X-360318270Y-106684248D01*
G37*
%TD.AperFunction*%
%TA.AperFunction,SMDPad,CuDef*%
%TO.P,D62,1*%
%TO.N,Row1*%
G36*
X-359464168Y-109871804D02*
G01*
X-360623279Y-110182387D01*
X-360856216Y-109313054D01*
X-359697105Y-109002471D01*
X-359464168Y-109871804D01*
G37*
%TD.AperFunction*%
%TD*%
%TA.AperFunction,SMDPad,CuDef*%
%TO.P,D61,2*%
%TO.N,Net-(D61-Pad2)*%
G36*
X-365377920Y-82607448D02*
G01*
X-366537031Y-82918031D01*
X-366769968Y-82048698D01*
X-365610857Y-81738115D01*
X-365377920Y-82607448D01*
G37*
%TD.AperFunction*%
%TA.AperFunction,SMDPad,CuDef*%
%TO.P,D61,1*%
%TO.N,Row0*%
G36*
X-364523818Y-85795004D02*
G01*
X-365682929Y-86105587D01*
X-365915866Y-85236254D01*
X-364756755Y-84925671D01*
X-364523818Y-85795004D01*
G37*
%TD.AperFunction*%
%TD*%
%TA.AperFunction,SMDPad,CuDef*%
%TO.P,D60,2*%
%TO.N,Net-(D60-Pad2)*%
G36*
X-377903875Y-167868439D02*
G01*
X-379062986Y-167557856D01*
X-378830049Y-166688523D01*
X-377670938Y-166999106D01*
X-377903875Y-167868439D01*
G37*
%TD.AperFunction*%
%TA.AperFunction,SMDPad,CuDef*%
%TO.P,D60,1*%
%TO.N,Row5*%
G36*
X-378757977Y-171055995D02*
G01*
X-379917088Y-170745412D01*
X-379684151Y-169876079D01*
X-378525040Y-170186662D01*
X-378757977Y-171055995D01*
G37*
%TD.AperFunction*%
%TD*%
%TA.AperFunction,SMDPad,CuDef*%
%TO.P,D59,2*%
%TO.N,Net-(D59-Pad2)*%
G36*
X-396304761Y-163437937D02*
G01*
X-397463872Y-163127354D01*
X-397230935Y-162258021D01*
X-396071824Y-162568604D01*
X-396304761Y-163437937D01*
G37*
%TD.AperFunction*%
%TA.AperFunction,SMDPad,CuDef*%
%TO.P,D59,1*%
%TO.N,Row4*%
G36*
X-397158863Y-166625493D02*
G01*
X-398317974Y-166314910D01*
X-398085037Y-165445577D01*
X-396925926Y-165756160D01*
X-397158863Y-166625493D01*
G37*
%TD.AperFunction*%
%TD*%
%TA.AperFunction,SMDPad,CuDef*%
%TO.P,D58,1*%
%TO.N,Row3*%
G36*
X-393729863Y-147829493D02*
G01*
X-394888974Y-147518910D01*
X-394656037Y-146649577D01*
X-393496926Y-146960160D01*
X-393729863Y-147829493D01*
G37*
%TD.AperFunction*%
%TA.AperFunction,SMDPad,CuDef*%
%TO.P,D58,2*%
%TO.N,Net-(D58-Pad2)*%
G36*
X-392875761Y-144641937D02*
G01*
X-394034872Y-144331354D01*
X-393801935Y-143462021D01*
X-392642824Y-143772604D01*
X-392875761Y-144641937D01*
G37*
%TD.AperFunction*%
%TD*%
%TA.AperFunction,SMDPad,CuDef*%
%TO.P,D57,2*%
%TO.N,Net-(D57-Pad2)*%
G36*
X-389687524Y-125718937D02*
G01*
X-390846635Y-125408354D01*
X-390613698Y-124539021D01*
X-389454587Y-124849604D01*
X-389687524Y-125718937D01*
G37*
%TD.AperFunction*%
%TA.AperFunction,SMDPad,CuDef*%
%TO.P,D57,1*%
%TO.N,Row2*%
G36*
X-390541626Y-128906493D02*
G01*
X-391700737Y-128595910D01*
X-391467800Y-127726577D01*
X-390308689Y-128037160D01*
X-390541626Y-128906493D01*
G37*
%TD.AperFunction*%
%TD*%
%TA.AperFunction,SMDPad,CuDef*%
%TO.P,D56,2*%
%TO.N,Net-(D56-Pad2)*%
G36*
X-386379527Y-106905934D02*
G01*
X-387538638Y-106595351D01*
X-387305701Y-105726018D01*
X-386146590Y-106036601D01*
X-386379527Y-106905934D01*
G37*
%TD.AperFunction*%
%TA.AperFunction,SMDPad,CuDef*%
%TO.P,D56,1*%
%TO.N,Row1*%
G36*
X-387233629Y-110093490D02*
G01*
X-388392740Y-109782907D01*
X-388159803Y-108913574D01*
X-387000692Y-109224157D01*
X-387233629Y-110093490D01*
G37*
%TD.AperFunction*%
%TD*%
%TA.AperFunction,SMDPad,CuDef*%
%TO.P,D55,2*%
%TO.N,Net-(D55-Pad2)*%
G36*
X-381680527Y-82903434D02*
G01*
X-382839638Y-82592851D01*
X-382606701Y-81723518D01*
X-381447590Y-82034101D01*
X-381680527Y-82903434D01*
G37*
%TD.AperFunction*%
%TA.AperFunction,SMDPad,CuDef*%
%TO.P,D55,1*%
%TO.N,Row0*%
G36*
X-382534629Y-86090990D02*
G01*
X-383693740Y-85780407D01*
X-383460803Y-84911074D01*
X-382301692Y-85221657D01*
X-382534629Y-86090990D01*
G37*
%TD.AperFunction*%
%TD*%
%TA.AperFunction,SMDPad,CuDef*%
%TO.P,D54,2*%
%TO.N,Net-(D54-Pad2)*%
G36*
X-382834377Y-186269325D02*
G01*
X-383993488Y-185958742D01*
X-383760551Y-185089409D01*
X-382601440Y-185399992D01*
X-382834377Y-186269325D01*
G37*
%TD.AperFunction*%
%TA.AperFunction,SMDPad,CuDef*%
%TO.P,D54,1*%
%TO.N,Row5*%
G36*
X-383688479Y-189456881D02*
G01*
X-384847590Y-189146298D01*
X-384614653Y-188276965D01*
X-383455542Y-188587548D01*
X-383688479Y-189456881D01*
G37*
%TD.AperFunction*%
%TD*%
%TA.AperFunction,SMDPad,CuDef*%
%TO.P,D53,2*%
%TO.N,Net-(D53-Pad2)*%
G36*
X-414705647Y-158507435D02*
G01*
X-415864758Y-158196852D01*
X-415631821Y-157327519D01*
X-414472710Y-157638102D01*
X-414705647Y-158507435D01*
G37*
%TD.AperFunction*%
%TA.AperFunction,SMDPad,CuDef*%
%TO.P,D53,1*%
%TO.N,Row4*%
G36*
X-415559749Y-161694991D02*
G01*
X-416718860Y-161384408D01*
X-416485923Y-160515075D01*
X-415326812Y-160825658D01*
X-415559749Y-161694991D01*
G37*
%TD.AperFunction*%
%TD*%
%TA.AperFunction,SMDPad,CuDef*%
%TO.P,D52,2*%
%TO.N,Net-(D52-Pad2)*%
G36*
X-411276647Y-139711435D02*
G01*
X-412435758Y-139400852D01*
X-412202821Y-138531519D01*
X-411043710Y-138842102D01*
X-411276647Y-139711435D01*
G37*
%TD.AperFunction*%
%TA.AperFunction,SMDPad,CuDef*%
%TO.P,D52,1*%
%TO.N,Row3*%
G36*
X-412130749Y-142898991D02*
G01*
X-413289860Y-142588408D01*
X-413056923Y-141719075D01*
X-411897812Y-142029658D01*
X-412130749Y-142898991D01*
G37*
%TD.AperFunction*%
%TD*%
%TA.AperFunction,SMDPad,CuDef*%
%TO.P,D51,2*%
%TO.N,Net-(D51-Pad2)*%
G36*
X-408088410Y-120788435D02*
G01*
X-409247521Y-120477852D01*
X-409014584Y-119608519D01*
X-407855473Y-119919102D01*
X-408088410Y-120788435D01*
G37*
%TD.AperFunction*%
%TA.AperFunction,SMDPad,CuDef*%
%TO.P,D51,1*%
%TO.N,Row2*%
G36*
X-408942512Y-123975991D02*
G01*
X-410101623Y-123665408D01*
X-409868686Y-122796075D01*
X-408709575Y-123106658D01*
X-408942512Y-123975991D01*
G37*
%TD.AperFunction*%
%TD*%
%TA.AperFunction,SMDPad,CuDef*%
%TO.P,D50,2*%
%TO.N,Net-(D50-Pad2)*%
G36*
X-404780413Y-101975432D02*
G01*
X-405939524Y-101664849D01*
X-405706587Y-100795516D01*
X-404547476Y-101106099D01*
X-404780413Y-101975432D01*
G37*
%TD.AperFunction*%
%TA.AperFunction,SMDPad,CuDef*%
%TO.P,D50,1*%
%TO.N,Row1*%
G36*
X-405634515Y-105162988D02*
G01*
X-406793626Y-104852405D01*
X-406560689Y-103983072D01*
X-405401578Y-104293655D01*
X-405634515Y-105162988D01*
G37*
%TD.AperFunction*%
%TD*%
%TA.AperFunction,SMDPad,CuDef*%
%TO.P,D49,2*%
%TO.N,Net-(D49-Pad2)*%
G36*
X-400081413Y-77972932D02*
G01*
X-401240524Y-77662349D01*
X-401007587Y-76793016D01*
X-399848476Y-77103599D01*
X-400081413Y-77972932D01*
G37*
%TD.AperFunction*%
%TA.AperFunction,SMDPad,CuDef*%
%TO.P,D49,1*%
%TO.N,Row0*%
G36*
X-400935515Y-81160488D02*
G01*
X-402094626Y-80849905D01*
X-401861689Y-79980572D01*
X-400702578Y-80291155D01*
X-400935515Y-81160488D01*
G37*
%TD.AperFunction*%
%TD*%
%TA.AperFunction,SMDPad,CuDef*%
%TO.P,D48,2*%
%TO.N,Net-(D48-Pad2)*%
G36*
X-401265243Y-181840421D02*
G01*
X-402424354Y-181529838D01*
X-402191417Y-180660505D01*
X-401032306Y-180971088D01*
X-401265243Y-181840421D01*
G37*
%TD.AperFunction*%
%TA.AperFunction,SMDPad,CuDef*%
%TO.P,D48,1*%
%TO.N,Row5*%
G36*
X-402119345Y-185027977D02*
G01*
X-403278456Y-184717394D01*
X-403045519Y-183848061D01*
X-401886408Y-184158644D01*
X-402119345Y-185027977D01*
G37*
%TD.AperFunction*%
%TD*%
%TA.AperFunction,SMDPad,CuDef*%
%TO.P,D47,2*%
%TO.N,Net-(D47-Pad2)*%
G36*
X-433106533Y-153576933D02*
G01*
X-434265644Y-153266350D01*
X-434032707Y-152397017D01*
X-432873596Y-152707600D01*
X-433106533Y-153576933D01*
G37*
%TD.AperFunction*%
%TA.AperFunction,SMDPad,CuDef*%
%TO.P,D47,1*%
%TO.N,Row4*%
G36*
X-433960635Y-156764489D02*
G01*
X-435119746Y-156453906D01*
X-434886809Y-155584573D01*
X-433727698Y-155895156D01*
X-433960635Y-156764489D01*
G37*
%TD.AperFunction*%
%TD*%
%TA.AperFunction,SMDPad,CuDef*%
%TO.P,D46,2*%
%TO.N,Net-(D46-Pad2)*%
G36*
X-429677533Y-134780933D02*
G01*
X-430836644Y-134470350D01*
X-430603707Y-133601017D01*
X-429444596Y-133911600D01*
X-429677533Y-134780933D01*
G37*
%TD.AperFunction*%
%TA.AperFunction,SMDPad,CuDef*%
%TO.P,D46,1*%
%TO.N,Row3*%
G36*
X-430531635Y-137968489D02*
G01*
X-431690746Y-137657906D01*
X-431457809Y-136788573D01*
X-430298698Y-137099156D01*
X-430531635Y-137968489D01*
G37*
%TD.AperFunction*%
%TD*%
%TA.AperFunction,SMDPad,CuDef*%
%TO.P,D45,2*%
%TO.N,Net-(D45-Pad2)*%
G36*
X-426489296Y-115857933D02*
G01*
X-427648407Y-115547350D01*
X-427415470Y-114678017D01*
X-426256359Y-114988600D01*
X-426489296Y-115857933D01*
G37*
%TD.AperFunction*%
%TA.AperFunction,SMDPad,CuDef*%
%TO.P,D45,1*%
%TO.N,Row2*%
G36*
X-427343398Y-119045489D02*
G01*
X-428502509Y-118734906D01*
X-428269572Y-117865573D01*
X-427110461Y-118176156D01*
X-427343398Y-119045489D01*
G37*
%TD.AperFunction*%
%TD*%
%TA.AperFunction,SMDPad,CuDef*%
%TO.P,D44,2*%
%TO.N,Net-(D44-Pad2)*%
G36*
X-423181299Y-97044930D02*
G01*
X-424340410Y-96734347D01*
X-424107473Y-95865014D01*
X-422948362Y-96175597D01*
X-423181299Y-97044930D01*
G37*
%TD.AperFunction*%
%TA.AperFunction,SMDPad,CuDef*%
%TO.P,D44,1*%
%TO.N,Row1*%
G36*
X-424035401Y-100232486D02*
G01*
X-425194512Y-99921903D01*
X-424961575Y-99052570D01*
X-423802464Y-99363153D01*
X-424035401Y-100232486D01*
G37*
%TD.AperFunction*%
%TD*%
%TA.AperFunction,SMDPad,CuDef*%
%TO.P,D43,1*%
%TO.N,Row0*%
G36*
X-419336401Y-76229986D02*
G01*
X-420495512Y-75919403D01*
X-420262575Y-75050070D01*
X-419103464Y-75360653D01*
X-419336401Y-76229986D01*
G37*
%TD.AperFunction*%
%TA.AperFunction,SMDPad,CuDef*%
%TO.P,D43,2*%
%TO.N,Net-(D43-Pad2)*%
G36*
X-418482299Y-73042430D02*
G01*
X-419641410Y-72731847D01*
X-419408473Y-71862514D01*
X-418249362Y-72173097D01*
X-418482299Y-73042430D01*
G37*
%TD.AperFunction*%
%TD*%
%TA.AperFunction,SMDPad,CuDef*%
%TO.P,D42,2*%
%TO.N,Net-(D42-Pad2)*%
G36*
X-451895908Y-168261944D02*
G01*
X-453055019Y-167951361D01*
X-452822082Y-167082028D01*
X-451662971Y-167392611D01*
X-451895908Y-168261944D01*
G37*
%TD.AperFunction*%
%TA.AperFunction,SMDPad,CuDef*%
%TO.P,D42,1*%
%TO.N,Row5*%
G36*
X-452750010Y-171449500D02*
G01*
X-453909121Y-171138917D01*
X-453676184Y-170269584D01*
X-452517073Y-170580167D01*
X-452750010Y-171449500D01*
G37*
%TD.AperFunction*%
%TD*%
%TA.AperFunction,SMDPad,CuDef*%
%TO.P,D41,2*%
%TO.N,Net-(D41-Pad2)*%
G36*
X-451507419Y-148646431D02*
G01*
X-452666530Y-148335848D01*
X-452433593Y-147466515D01*
X-451274482Y-147777098D01*
X-451507419Y-148646431D01*
G37*
%TD.AperFunction*%
%TA.AperFunction,SMDPad,CuDef*%
%TO.P,D41,1*%
%TO.N,Row4*%
G36*
X-452361521Y-151833987D02*
G01*
X-453520632Y-151523404D01*
X-453287695Y-150654071D01*
X-452128584Y-150964654D01*
X-452361521Y-151833987D01*
G37*
%TD.AperFunction*%
%TD*%
%TA.AperFunction,SMDPad,CuDef*%
%TO.P,D40,2*%
%TO.N,Net-(D40-Pad2)*%
G36*
X-448078419Y-129850431D02*
G01*
X-449237530Y-129539848D01*
X-449004593Y-128670515D01*
X-447845482Y-128981098D01*
X-448078419Y-129850431D01*
G37*
%TD.AperFunction*%
%TA.AperFunction,SMDPad,CuDef*%
%TO.P,D40,1*%
%TO.N,Row3*%
G36*
X-448932521Y-133037987D02*
G01*
X-450091632Y-132727404D01*
X-449858695Y-131858071D01*
X-448699584Y-132168654D01*
X-448932521Y-133037987D01*
G37*
%TD.AperFunction*%
%TD*%
%TA.AperFunction,SMDPad,CuDef*%
%TO.P,D39,2*%
%TO.N,Net-(D39-Pad2)*%
G36*
X-444890182Y-110927431D02*
G01*
X-446049293Y-110616848D01*
X-445816356Y-109747515D01*
X-444657245Y-110058098D01*
X-444890182Y-110927431D01*
G37*
%TD.AperFunction*%
%TA.AperFunction,SMDPad,CuDef*%
%TO.P,D39,1*%
%TO.N,Row2*%
G36*
X-445744284Y-114114987D02*
G01*
X-446903395Y-113804404D01*
X-446670458Y-112935071D01*
X-445511347Y-113245654D01*
X-445744284Y-114114987D01*
G37*
%TD.AperFunction*%
%TD*%
%TA.AperFunction,SMDPad,CuDef*%
%TO.P,D38,2*%
%TO.N,Net-(D38-Pad2)*%
G36*
X-441402335Y-91303175D02*
G01*
X-442561446Y-90992592D01*
X-442328509Y-90123259D01*
X-441169398Y-90433842D01*
X-441402335Y-91303175D01*
G37*
%TD.AperFunction*%
%TA.AperFunction,SMDPad,CuDef*%
%TO.P,D38,1*%
%TO.N,Row1*%
G36*
X-442256437Y-94490731D02*
G01*
X-443415548Y-94180148D01*
X-443182611Y-93310815D01*
X-442023500Y-93621398D01*
X-442256437Y-94490731D01*
G37*
%TD.AperFunction*%
%TD*%
D18*
%TO.P,D36,2*%
%TO.N,Net-(D36-Pad2)*%
X-480218750Y-162688000D03*
%TO.P,D36,1*%
%TO.N,Row5*%
X-480218750Y-165988000D03*
%TD*%
%TO.P,D35,2*%
%TO.N,Net-(D35-Pad2)*%
X-484886000Y-143638000D03*
%TO.P,D35,1*%
%TO.N,Row4*%
X-484886000Y-146938000D03*
%TD*%
%TO.P,D34,2*%
%TO.N,Net-(D34-Pad2)*%
X-480123500Y-124588000D03*
%TO.P,D34,1*%
%TO.N,Row3*%
X-480123500Y-127888000D03*
%TD*%
%TO.P,D33,2*%
%TO.N,Net-(D33-Pad2)*%
X-475361000Y-105538000D03*
%TO.P,D33,1*%
%TO.N,Row2*%
X-475361000Y-108838000D03*
%TD*%
%TO.P,D32,2*%
%TO.N,Net-(D32-Pad2)*%
X-470598500Y-86488000D03*
%TO.P,D32,1*%
%TO.N,Row1*%
X-470598500Y-89788000D03*
%TD*%
%TO.P,D31,2*%
%TO.N,Net-(D31-Pad2)*%
X-465899500Y-63175500D03*
%TO.P,D31,1*%
%TO.N,Row0*%
X-465899500Y-66475500D03*
%TD*%
%TO.P,D30,2*%
%TO.N,Net-(D30-Pad2)*%
X-503967750Y-162688000D03*
%TO.P,D30,1*%
%TO.N,Row5*%
X-503967750Y-165988000D03*
%TD*%
%TO.P,D29,2*%
%TO.N,Net-(D29-Pad2)*%
X-503936000Y-143638000D03*
%TO.P,D29,1*%
%TO.N,Row4*%
X-503936000Y-146938000D03*
%TD*%
%TO.P,D28,2*%
%TO.N,Net-(D28-Pad2)*%
X-499141750Y-124588000D03*
%TO.P,D28,1*%
%TO.N,Row3*%
X-499141750Y-127888000D03*
%TD*%
%TO.P,D27,1*%
%TO.N,Row2*%
X-494474500Y-108838000D03*
%TO.P,D27,2*%
%TO.N,Net-(D27-Pad2)*%
X-494474500Y-105538000D03*
%TD*%
%TO.P,D26,2*%
%TO.N,Net-(D26-Pad2)*%
X-489712000Y-86488000D03*
%TO.P,D26,1*%
%TO.N,Row1*%
X-489712000Y-89788000D03*
%TD*%
%TO.P,D25,2*%
%TO.N,Net-(D25-Pad2)*%
X-484949500Y-62675500D03*
%TO.P,D25,1*%
%TO.N,Row0*%
X-484949500Y-65975500D03*
%TD*%
%TO.P,D24,2*%
%TO.N,Net-(D24-Pad2)*%
X-527812000Y-162688000D03*
%TO.P,D24,1*%
%TO.N,Row5*%
X-527812000Y-165988000D03*
%TD*%
%TO.P,D23,2*%
%TO.N,Net-(D23-Pad2)*%
X-546862000Y-162688000D03*
%TO.P,D23,1*%
%TO.N,Row4*%
X-546862000Y-165988000D03*
%TD*%
%TO.P,D22,2*%
%TO.N,Net-(D22-Pad2)*%
X-565975500Y-162688000D03*
%TO.P,D22,1*%
%TO.N,Row3*%
X-565975500Y-165988000D03*
%TD*%
%TO.P,D21,2*%
%TO.N,Net-(D21-Pad2)*%
X-546862000Y-143638000D03*
%TO.P,D21,1*%
%TO.N,Row2*%
X-546862000Y-146938000D03*
%TD*%
%TO.P,D20,2*%
%TO.N,Net-(D20-Pad2)*%
X-565975500Y-86488000D03*
%TO.P,D20,1*%
%TO.N,Row1*%
X-565975500Y-89788000D03*
%TD*%
%TO.P,D18,2*%
%TO.N,Net-(D18-Pad2)*%
X-589788000Y-153163000D03*
%TO.P,D18,1*%
%TO.N,Row5*%
X-589788000Y-156463000D03*
%TD*%
%TO.P,D17,2*%
%TO.N,Net-(D17-Pad2)*%
X-608838000Y-165988000D03*
%TO.P,D17,1*%
%TO.N,Row4*%
X-608838000Y-162688000D03*
%TD*%
%TO.P,D16,2*%
%TO.N,Net-(D16-Pad2)*%
X-608838000Y-143638000D03*
%TO.P,D16,1*%
%TO.N,Row3*%
X-608838000Y-146938000D03*
%TD*%
%TO.P,D15,2*%
%TO.N,Net-(D15-Pad2)*%
X-608838000Y-124588000D03*
%TO.P,D15,1*%
%TO.N,Row2*%
X-608838000Y-127888000D03*
%TD*%
%TO.P,D14,2*%
%TO.N,Net-(D14-Pad2)*%
X-589788000Y-118363000D03*
%TO.P,D14,1*%
%TO.N,Row1*%
X-589788000Y-115063000D03*
%TD*%
%TO.P,D13,2*%
%TO.N,Net-(D13-Pad2)*%
X-589788000Y-86488000D03*
%TO.P,D13,1*%
%TO.N,Row0*%
X-589788000Y-89788000D03*
%TD*%
%TO.P,D12,2*%
%TO.N,Net-(D12-Pad2)*%
X-627888000Y-162688000D03*
%TO.P,D12,1*%
%TO.N,Row5*%
X-627888000Y-165988000D03*
%TD*%
%TO.P,D11,2*%
%TO.N,Net-(D11-Pad2)*%
X-627888000Y-143638000D03*
%TO.P,D11,1*%
%TO.N,Row4*%
X-627888000Y-146938000D03*
%TD*%
%TO.P,D10,2*%
%TO.N,Net-(D10-Pad2)*%
X-627888000Y-124588000D03*
%TO.P,D10,1*%
%TO.N,Row3*%
X-627888000Y-127888000D03*
%TD*%
%TO.P,D9,2*%
%TO.N,Net-(D9-Pad2)*%
X-627888000Y-105538000D03*
%TO.P,D9,1*%
%TO.N,Row2*%
X-627888000Y-108838000D03*
%TD*%
%TO.P,D8,2*%
%TO.N,Net-(D8-Pad2)*%
X-608838000Y-105538000D03*
%TO.P,D8,1*%
%TO.N,Row1*%
X-608838000Y-108838000D03*
%TD*%
%TO.P,D7,2*%
%TO.N,Net-(D7-Pad2)*%
X-608838000Y-86488000D03*
%TO.P,D7,1*%
%TO.N,Row0*%
X-608838000Y-89788000D03*
%TD*%
D19*
%TO.P,D6,2*%
%TO.N,Net-(D6-Pad2)*%
X-654813000Y-154813000D03*
%TO.P,D6,1*%
%TO.N,Row5*%
X-658113000Y-154813000D03*
%TD*%
D18*
%TO.P,D5,2*%
%TO.N,Net-(D5-Pad2)*%
X-646938000Y-143638000D03*
%TO.P,D5,1*%
%TO.N,Row4*%
X-646938000Y-146938000D03*
%TD*%
%TO.P,D4,2*%
%TO.N,Net-(D4-Pad2)*%
X-646938000Y-124588000D03*
%TO.P,D4,1*%
%TO.N,Row3*%
X-646938000Y-127888000D03*
%TD*%
%TO.P,D3,2*%
%TO.N,Net-(D3-Pad2)*%
X-646938000Y-105538000D03*
%TO.P,D3,1*%
%TO.N,Row2*%
X-646938000Y-108838000D03*
%TD*%
%TO.P,D2,2*%
%TO.N,Net-(D2-Pad2)*%
X-646938000Y-86488000D03*
%TO.P,D2,1*%
%TO.N,Row1*%
X-646938000Y-89788000D03*
%TD*%
%TO.P,D1,2*%
%TO.N,Net-(D1-Pad2)*%
X-627888000Y-86488000D03*
%TO.P,D1,1*%
%TO.N,Row0*%
X-627888000Y-89788000D03*
%TD*%
D20*
%TO.N,Net-(R3-Pad2)*%
X-540435800Y-85750400D03*
%TO.N,Net-(C1-Pad1)*%
X-543191700Y-99199700D03*
X-549173400Y-99174300D03*
%TO.N,GND*%
X-556514000Y-99314000D03*
X-551332400Y-99187000D03*
X-543217100Y-97307400D03*
X-549109900Y-97485200D03*
%TO.N,Row0*%
X-581571100Y-94043500D03*
X-574789300Y-110744000D03*
X-558292000Y-84416900D03*
%TO.N,Row2*%
X-526465800Y-127622300D03*
X-519912600Y-111340900D03*
%TO.N,Row3*%
X-566801000Y-151549100D03*
X-565975500Y-165988000D03*
X-557415700Y-114896900D03*
X-566801000Y-151549100D03*
X-553780399Y-134032437D03*
%TO.N,Row4*%
X-614870500Y-152793700D03*
X-608838000Y-162688000D03*
X-506742700Y-168325800D03*
X-503936000Y-146938000D03*
X-509663700Y-132791200D03*
%TO.N,Row5*%
X-601383100Y-169672000D03*
X-589788000Y-156463000D03*
X-527812000Y-165988000D03*
X-535635200Y-119113300D03*
X-205079600Y-160070800D03*
X-204708000Y-146938000D03*
X-530339300Y-169824400D03*
%TO.N,Col0*%
X-547166800Y-79463900D03*
X-539330900Y-119900700D03*
%TO.N,Col1*%
X-563105300Y-109194600D03*
X-565492900Y-99631500D03*
X-580123300Y-97028000D03*
X-581444100Y-99860100D03*
X-617268407Y-101166496D03*
%TO.N,Col3*%
X-536371800Y-120764300D03*
%TO.N,Col4*%
X-537373647Y-121496708D03*
X-531787100Y-110680500D03*
%TO.N,Col5*%
X-545934900Y-105511600D03*
X-544715700Y-100380800D03*
X-535711400Y-98412300D03*
X-533247600Y-87337900D03*
%TO.N,Col6*%
X-545198300Y-106743500D03*
X-540575500Y-98526600D03*
X-458003540Y-96972971D03*
%TO.N,Col7*%
X-437286400Y-101733499D03*
%TO.N,Col8*%
X-421201768Y-104238500D03*
%TO.N,Col9*%
X-541309000Y-115912900D03*
X-540702500Y-132476800D03*
X-535305000Y-133223000D03*
X-534060400Y-152184100D03*
X-484873300Y-158483300D03*
X-468909400Y-121589800D03*
%TO.N,Col11*%
X-542036000Y-116751100D03*
X-539170266Y-105729431D03*
X-464058000Y-98880982D03*
X-456006200Y-76873100D03*
X-336436005Y-94868695D03*
%TO.N,Col12*%
X-540042100Y-115840200D03*
X-539156200Y-106743500D03*
X-426313600Y-103187500D03*
X-419036500Y-88011000D03*
X-323349580Y-87141279D03*
%TO.N,Col13*%
X-517918700Y-133007100D03*
X-509231900Y-150914100D03*
X-380555500Y-178130200D03*
X-370357400Y-152996900D03*
X-294970200Y-139242800D03*
%TO.N,Col14*%
X-535089100Y-129616200D03*
%TO.N,Col15*%
X-545757100Y-129552700D03*
X-544220400Y-135458200D03*
X-324853300Y-144335500D03*
X-315353700Y-125323600D03*
X-246643400Y-116102000D03*
%TO.N,Col16*%
X-545757100Y-135394700D03*
X-459689200Y-140093700D03*
X-426948600Y-182702200D03*
X-373494300Y-188455300D03*
X-353288600Y-113665000D03*
X-237118400Y-92378400D03*
X-546893183Y-128694883D03*
%TO.N,Col17*%
X-547408100Y-127177800D03*
X-548538400Y-135788400D03*
X-530250400Y-139482999D03*
X-505574300Y-75882500D03*
X-199060999Y-76115599D03*
%TO.N,GND*%
X-550788600Y-114313200D03*
X-553084600Y-122389500D03*
X-561848000Y-85585300D03*
X-558679990Y-62742810D03*
X-539800800Y-89255600D03*
X-538215200Y-95300800D03*
%TO.N,Net-(C1-Pad1)*%
X-549490900Y-104686100D03*
%TO.N,Net-(C2-Pad1)*%
X-556450500Y-97421700D03*
X-551340200Y-97448000D03*
X-552272200Y-104952800D03*
%TO.N,+5V*%
X-553902450Y-122191350D03*
X-552284600Y-116609200D03*
X-533539700Y-89731901D03*
X-535813000Y-112953800D03*
X-562470300Y-69011800D03*
X-556437800Y-85664000D03*
%TO.N,Net-(C5-Pad1)*%
X-538429200Y-116344700D03*
X-543725100Y-101612700D03*
X-570204600Y-103759000D03*
X-571436500Y-112915700D03*
%TO.N,Net-(R1-Pad1)*%
X-585266800Y-117348000D03*
X-584238100Y-74561700D03*
%TO.N,Net-(R2-Pad1)*%
X-555053500Y-73101200D03*
X-569468000Y-119986200D03*
%TO.N,Net-(R3-Pad2)*%
X-538378400Y-102501700D03*
X-533941020Y-57205880D03*
%TO.N,Net-(R4-Pad2)*%
X-561124100Y-115595400D03*
X-554507400Y-131749800D03*
X-539305500Y-131660900D03*
X-537984700Y-122288300D03*
%TD*%
D21*
%TO.N,Net-(D1-Pad2)*%
X-630738000Y-83638000D02*
X-627888000Y-86488000D01*
X-634913000Y-83638000D02*
X-630738000Y-83638000D01*
%TO.N,Row0*%
X-512853599Y-66646401D02*
X-485620401Y-66646401D01*
X-485620401Y-66646401D02*
X-484949500Y-65975500D01*
X-513524500Y-65975500D02*
X-512853599Y-66646401D01*
X-466070401Y-66646401D02*
X-465899500Y-66475500D01*
X-484278599Y-66646401D02*
X-466070401Y-66646401D01*
X-484949500Y-65975500D02*
X-484278599Y-66646401D01*
X-462476727Y-69898273D02*
X-438020524Y-69898273D01*
X-465899500Y-66475500D02*
X-462476727Y-69898273D01*
X-438020524Y-69898273D02*
X-438020524Y-71262176D01*
X-433642672Y-75640028D02*
X-419799488Y-75640028D01*
X-438020524Y-71262176D02*
X-433642672Y-75640028D01*
X-414868986Y-80570530D02*
X-401398602Y-80570530D01*
X-419799488Y-75640028D02*
X-414868986Y-80570530D01*
X-396468100Y-85501032D02*
X-382997716Y-85501032D01*
X-401398602Y-80570530D02*
X-396468100Y-85501032D01*
X-365234439Y-85501032D02*
X-365219842Y-85515629D01*
X-382997716Y-85501032D02*
X-365234439Y-85501032D01*
X-351749458Y-85515629D02*
X-346818956Y-80585127D01*
X-365219842Y-85515629D02*
X-351749458Y-85515629D01*
X-333348572Y-80585127D02*
X-328418070Y-75654625D01*
X-346818956Y-80585127D02*
X-333348572Y-80585127D01*
X-314947686Y-75654625D02*
X-310017184Y-70724123D01*
X-328418070Y-75654625D02*
X-314947686Y-75654625D01*
X-288425223Y-70724123D02*
X-283676600Y-65975500D01*
X-310017184Y-70724123D02*
X-288425223Y-70724123D01*
X-265297501Y-66646401D02*
X-264626600Y-65975500D01*
X-283005699Y-66646401D02*
X-265297501Y-66646401D01*
X-283676600Y-65975500D02*
X-283005699Y-66646401D01*
X-224428901Y-66646401D02*
X-223758000Y-65975500D01*
X-263955699Y-66646401D02*
X-224428901Y-66646401D01*
X-264626600Y-65975500D02*
X-263955699Y-66646401D01*
X-205378901Y-66646401D02*
X-204708000Y-65975500D01*
X-223087099Y-66646401D02*
X-205378901Y-66646401D01*
X-223758000Y-65975500D02*
X-223087099Y-66646401D01*
X-609508901Y-90458901D02*
X-608838000Y-89788000D01*
X-627217099Y-90458901D02*
X-609508901Y-90458901D01*
X-627888000Y-89788000D02*
X-627217099Y-90458901D01*
X-590458901Y-90458901D02*
X-589788000Y-89788000D01*
X-608167099Y-90458901D02*
X-590458901Y-90458901D01*
X-608838000Y-89788000D02*
X-608167099Y-90458901D01*
X-585826600Y-89788000D02*
X-581571100Y-94043500D01*
X-589788000Y-89788000D02*
X-585826600Y-89788000D01*
X-574789300Y-110744000D02*
X-564121300Y-110744000D01*
X-558152100Y-116713200D02*
X-555584600Y-116713200D01*
X-564121300Y-110744000D02*
X-558152100Y-116713200D01*
X-531965900Y-84416900D02*
X-558292000Y-84416900D01*
X-513524500Y-65975500D02*
X-531965900Y-84416900D01*
%TO.N,Net-(D2-Pad2)*%
X-649788000Y-83638000D02*
X-646938000Y-86488000D01*
X-653963000Y-83638000D02*
X-649788000Y-83638000D01*
%TO.N,Row1*%
X-471269401Y-90458901D02*
X-470598500Y-89788000D01*
X-489041099Y-90458901D02*
X-471269401Y-90458901D01*
X-489712000Y-89788000D02*
X-489041099Y-90458901D01*
X-466485727Y-93900773D02*
X-442719524Y-93900773D01*
X-470598500Y-89788000D02*
X-466485727Y-93900773D01*
X-436977769Y-99642528D02*
X-424498488Y-99642528D01*
X-442719524Y-93900773D02*
X-436977769Y-99642528D01*
X-419567986Y-104573030D02*
X-406097602Y-104573030D01*
X-424498488Y-99642528D02*
X-419567986Y-104573030D01*
X-401167100Y-109503532D02*
X-387696716Y-109503532D01*
X-406097602Y-104573030D02*
X-401167100Y-109503532D01*
X-360249089Y-109503532D02*
X-360160192Y-109592429D01*
X-387696716Y-109503532D02*
X-360249089Y-109503532D01*
X-346689808Y-109592429D02*
X-341759306Y-104661927D01*
X-360160192Y-109592429D02*
X-346689808Y-109592429D01*
X-328288922Y-104661927D02*
X-323358420Y-99731425D01*
X-341759306Y-104661927D02*
X-328288922Y-104661927D01*
X-309888036Y-99731425D02*
X-304957534Y-94800923D01*
X-323358420Y-99731425D02*
X-309888036Y-99731425D01*
X-285920923Y-94800923D02*
X-280933400Y-89813400D01*
X-304957534Y-94800923D02*
X-285920923Y-94800923D01*
X-262554301Y-90484301D02*
X-261883400Y-89813400D01*
X-280262499Y-90484301D02*
X-262554301Y-90484301D01*
X-280933400Y-89813400D02*
X-280262499Y-90484301D01*
X-243504301Y-90484301D02*
X-242833400Y-89813400D01*
X-261212499Y-90484301D02*
X-243504301Y-90484301D01*
X-261883400Y-89813400D02*
X-261212499Y-90484301D01*
X-224479701Y-90484301D02*
X-223783400Y-89788000D01*
X-242162499Y-90484301D02*
X-224479701Y-90484301D01*
X-242833400Y-89813400D02*
X-242162499Y-90484301D01*
X-611690001Y-105985999D02*
X-608838000Y-108838000D01*
X-614672107Y-105985999D02*
X-611690001Y-105985999D01*
X-645813089Y-90912911D02*
X-629745195Y-90912911D01*
X-646938000Y-89788000D02*
X-645813089Y-90912911D01*
X-596013000Y-108838000D02*
X-589788000Y-115063000D01*
X-608838000Y-108838000D02*
X-596013000Y-108838000D01*
X-565975500Y-89788000D02*
X-571702503Y-95515003D01*
X-625143103Y-95515003D02*
X-614672107Y-105985999D01*
X-629745195Y-90912911D02*
X-625143103Y-95515003D01*
X-575189205Y-104486001D02*
X-584160203Y-95515003D01*
X-569737233Y-104486001D02*
X-575189205Y-104486001D01*
X-558310034Y-115913200D02*
X-569737233Y-104486001D01*
X-555584600Y-115913200D02*
X-558310034Y-115913200D01*
X-584160203Y-95515003D02*
X-625143103Y-95515003D01*
X-571702503Y-95515003D02*
X-584160203Y-95515003D01*
X-565304599Y-90458901D02*
X-565975500Y-89788000D01*
X-490382901Y-90458901D02*
X-565304599Y-90458901D01*
X-489712000Y-89788000D02*
X-490382901Y-90458901D01*
%TO.N,Net-(D3-Pad2)*%
X-649788000Y-102688000D02*
X-646938000Y-105538000D01*
X-653963000Y-102688000D02*
X-649788000Y-102688000D01*
%TO.N,Net-(D4-Pad2)*%
X-649788000Y-121738000D02*
X-646938000Y-124588000D01*
X-653963000Y-121738000D02*
X-649788000Y-121738000D01*
%TO.N,Row2*%
X-232637499Y-109534301D02*
X-233308400Y-108863400D01*
X-214916601Y-109534301D02*
X-232637499Y-109534301D01*
X-214245700Y-108863400D02*
X-214916601Y-109534301D01*
X-251687499Y-109534301D02*
X-252358400Y-108863400D01*
X-233979301Y-109534301D02*
X-251687499Y-109534301D01*
X-233308400Y-108863400D02*
X-233979301Y-109534301D01*
X-270762899Y-109534301D02*
X-271433800Y-108863400D01*
X-253029301Y-109534301D02*
X-270762899Y-109534301D01*
X-252358400Y-108863400D02*
X-253029301Y-109534301D01*
X-276192723Y-113622323D02*
X-301503134Y-113622323D01*
X-271433800Y-108863400D02*
X-276192723Y-113622323D01*
X-306433636Y-118552825D02*
X-319904020Y-118552825D01*
X-301503134Y-113622323D02*
X-306433636Y-118552825D01*
X-324834522Y-123483327D02*
X-338304906Y-123483327D01*
X-319904020Y-118552825D02*
X-324834522Y-123483327D01*
X-343235408Y-128413829D02*
X-356705792Y-128413829D01*
X-338304906Y-123483327D02*
X-343235408Y-128413829D01*
X-390907419Y-128413829D02*
X-391004713Y-128316535D01*
X-356705792Y-128413829D02*
X-390907419Y-128413829D01*
X-404475097Y-128316535D02*
X-409405599Y-123386033D01*
X-391004713Y-128316535D02*
X-404475097Y-128316535D01*
X-422875983Y-123386033D02*
X-427806485Y-118455531D01*
X-409405599Y-123386033D02*
X-422875983Y-123386033D01*
X-441276869Y-118455531D02*
X-446207371Y-113525029D01*
X-427806485Y-118455531D02*
X-441276869Y-118455531D01*
X-470673971Y-113525029D02*
X-475361000Y-108838000D01*
X-446207371Y-113525029D02*
X-470673971Y-113525029D01*
X-493803599Y-109508901D02*
X-494474500Y-108838000D01*
X-476031901Y-109508901D02*
X-493803599Y-109508901D01*
X-475361000Y-108838000D02*
X-476031901Y-109508901D01*
X-628558901Y-109508901D02*
X-627888000Y-108838000D01*
X-646267099Y-109508901D02*
X-628558901Y-109508901D01*
X-646938000Y-108838000D02*
X-646267099Y-109508901D01*
X-609508901Y-128558901D02*
X-608838000Y-127888000D01*
X-622901061Y-128558901D02*
X-609508901Y-128558901D01*
X-624645001Y-126814961D02*
X-622901061Y-128558901D01*
X-624645001Y-112080999D02*
X-624645001Y-126814961D01*
X-627888000Y-108838000D02*
X-624645001Y-112080999D01*
X-496977400Y-111340900D02*
X-494474500Y-108838000D01*
X-519912600Y-111340900D02*
X-496977400Y-111340900D01*
X-551535600Y-130962400D02*
X-551484600Y-124013200D01*
X-553119901Y-130971901D02*
X-551535600Y-130962400D01*
X-608838000Y-128850482D02*
X-606716581Y-130971901D01*
X-608838000Y-127888000D02*
X-608838000Y-128850482D01*
X-546098200Y-130403600D02*
X-529247100Y-130403600D01*
X-529247100Y-130403600D02*
X-526465800Y-127622300D01*
X-551535600Y-130962400D02*
X-546060100Y-130403600D01*
X-547532901Y-147608901D02*
X-562879899Y-147608901D01*
X-546862000Y-146938000D02*
X-547532901Y-147608901D01*
X-562879899Y-147608901D02*
X-568236100Y-142252700D01*
X-568236100Y-136042400D02*
X-573306599Y-130971901D01*
X-573306599Y-130971901D02*
X-553119901Y-130971901D01*
X-568236100Y-142252700D02*
X-568236100Y-136042400D01*
X-606716581Y-130971901D02*
X-573306599Y-130971901D01*
%TO.N,Row3*%
X-480794401Y-128558901D02*
X-480123500Y-127888000D01*
X-498470849Y-128558901D02*
X-480794401Y-128558901D01*
X-499141750Y-127888000D02*
X-498470849Y-128558901D01*
X-475563471Y-132448029D02*
X-449395608Y-132448029D01*
X-480123500Y-127888000D02*
X-475563471Y-132448029D01*
X-444465106Y-137378531D02*
X-430994722Y-137378531D01*
X-449395608Y-132448029D02*
X-444465106Y-137378531D01*
X-426064220Y-142309033D02*
X-412593836Y-142309033D01*
X-430994722Y-137378531D02*
X-426064220Y-142309033D01*
X-407663334Y-147239535D02*
X-394192950Y-147239535D01*
X-412593836Y-142309033D02*
X-407663334Y-147239535D01*
X-353281098Y-147239535D02*
X-353251392Y-147209829D01*
X-394192950Y-147239535D02*
X-353281098Y-147239535D01*
X-339781008Y-147209829D02*
X-334850506Y-142279327D01*
X-353251392Y-147209829D02*
X-339781008Y-147209829D01*
X-321380122Y-142279327D02*
X-316449620Y-137348825D01*
X-334850506Y-142279327D02*
X-321380122Y-142279327D01*
X-302979236Y-137348825D02*
X-298048734Y-132418323D01*
X-316449620Y-137348825D02*
X-302979236Y-137348825D01*
X-271163523Y-132418323D02*
X-266607800Y-127862600D01*
X-298048734Y-132418323D02*
X-271163523Y-132418323D01*
X-248228701Y-128533501D02*
X-247557800Y-127862600D01*
X-265936899Y-128533501D02*
X-248228701Y-128533501D01*
X-266607800Y-127862600D02*
X-265936899Y-128533501D01*
X-628558901Y-128558901D02*
X-627888000Y-127888000D01*
X-646267099Y-128558901D02*
X-628558901Y-128558901D01*
X-646938000Y-127888000D02*
X-646267099Y-128558901D01*
X-609508901Y-147608901D02*
X-608838000Y-146938000D01*
X-619408538Y-147608901D02*
X-609508901Y-147608901D01*
X-626960999Y-140056440D02*
X-619408538Y-147608901D01*
X-626960999Y-128815001D02*
X-626960999Y-140056440D01*
X-627888000Y-127888000D02*
X-626960999Y-128815001D01*
X-571412100Y-146938000D02*
X-566801000Y-151549100D01*
X-608838000Y-146938000D02*
X-571412100Y-146938000D01*
X-556832000Y-114313200D02*
X-557415700Y-114896900D01*
X-555584600Y-114313200D02*
X-556832000Y-114313200D01*
X-505286187Y-134032437D02*
X-553780399Y-134032437D01*
X-499141750Y-127888000D02*
X-505286187Y-134032437D01*
%TO.N,Net-(D5-Pad2)*%
X-649788000Y-140788000D02*
X-646938000Y-143638000D01*
X-653963000Y-140788000D02*
X-649788000Y-140788000D01*
%TO.N,Row4*%
X-248171551Y-147583501D02*
X-247576850Y-146988800D01*
X-265962299Y-147583501D02*
X-248171551Y-147583501D01*
X-266633200Y-146912600D02*
X-265962299Y-147583501D01*
X-270964629Y-151244029D02*
X-294589304Y-151244029D01*
X-266633200Y-146912600D02*
X-270964629Y-151244029D01*
X-299519806Y-156174531D02*
X-312990190Y-156174531D01*
X-294589304Y-151244029D02*
X-299519806Y-156174531D01*
X-317920692Y-161105033D02*
X-331391076Y-161105033D01*
X-312990190Y-156174531D02*
X-317920692Y-161105033D01*
X-336321578Y-166035535D02*
X-349791962Y-166035535D01*
X-331391076Y-161105033D02*
X-336321578Y-166035535D01*
X-353180237Y-169423810D02*
X-349791962Y-166035535D01*
X-394233675Y-169423810D02*
X-353180237Y-169423810D01*
X-397621950Y-166035535D02*
X-394233675Y-169423810D01*
X-411092334Y-166035535D02*
X-397621950Y-166035535D01*
X-416022836Y-161105033D02*
X-411092334Y-166035535D01*
X-485556901Y-147608901D02*
X-484886000Y-146938000D01*
X-503265099Y-147608901D02*
X-485556901Y-147608901D01*
X-503936000Y-146938000D02*
X-503265099Y-147608901D01*
X-480579971Y-151244029D02*
X-452824608Y-151244029D01*
X-484886000Y-146938000D02*
X-480579971Y-151244029D01*
X-447894106Y-156174531D02*
X-434423722Y-156174531D01*
X-452824608Y-151244029D02*
X-447894106Y-156174531D01*
X-429493220Y-161105033D02*
X-416022836Y-161105033D01*
X-434423722Y-156174531D02*
X-429493220Y-161105033D01*
X-628558901Y-147608901D02*
X-627888000Y-146938000D01*
X-646267099Y-147608901D02*
X-628558901Y-147608901D01*
X-646938000Y-146938000D02*
X-646267099Y-147608901D01*
X-547639001Y-166765001D02*
X-546862000Y-165988000D01*
X-579932461Y-166765001D02*
X-547639001Y-166765001D01*
X-584009462Y-162688000D02*
X-579932461Y-166765001D01*
X-608838000Y-162688000D02*
X-584009462Y-162688000D01*
X-620726200Y-146938000D02*
X-614870500Y-152793700D01*
X-627888000Y-146938000D02*
X-620726200Y-146938000D01*
X-546862000Y-165988000D02*
X-542276300Y-170573700D01*
X-508990600Y-170573700D02*
X-506742700Y-168325800D01*
X-542276300Y-170573700D02*
X-508990600Y-170573700D01*
X-516100782Y-132791200D02*
X-509663700Y-132791200D01*
X-533422592Y-115469390D02*
X-516100782Y-132791200D01*
X-534850608Y-115469390D02*
X-533422592Y-115469390D01*
X-534998917Y-115617699D02*
X-534850608Y-115469390D01*
X-538778161Y-115617699D02*
X-534998917Y-115617699D01*
X-541473662Y-118313200D02*
X-538778161Y-115617699D01*
X-544184600Y-118313200D02*
X-541473662Y-118313200D01*
X-248503851Y-146061799D02*
X-247576850Y-146988800D01*
X-248503851Y-142977199D02*
X-248503851Y-146061799D01*
X-233414652Y-127888000D02*
X-248503851Y-142977199D01*
X-228532650Y-127888000D02*
X-233414652Y-127888000D01*
%TO.N,Net-(D6-Pad2)*%
X-645522999Y-158133001D02*
X-644398000Y-159258000D01*
X-652258001Y-158133001D02*
X-645522999Y-158133001D01*
X-653963000Y-159838000D02*
X-652258001Y-158133001D01*
X-648843000Y-154813000D02*
X-644398000Y-159258000D01*
X-654813000Y-154813000D02*
X-648843000Y-154813000D01*
%TO.N,Row5*%
X-232584149Y-166684301D02*
X-233255050Y-166013400D01*
X-210126151Y-166684301D02*
X-232584149Y-166684301D01*
X-209455250Y-166013400D02*
X-210126151Y-166684301D01*
X-233925951Y-166684301D02*
X-256380149Y-166684301D01*
X-256380149Y-166684301D02*
X-257051050Y-166013400D01*
X-233255050Y-166013400D02*
X-233925951Y-166684301D01*
X-360366755Y-189348219D02*
X-363252968Y-189348219D01*
X-354510338Y-183491802D02*
X-360366755Y-189348219D01*
X-320352995Y-183491802D02*
X-354510338Y-183491802D01*
X-312650530Y-175789337D02*
X-320352995Y-183491802D01*
X-368192848Y-184408339D02*
X-363252968Y-189348219D01*
X-368192848Y-170966037D02*
X-368192848Y-184408339D01*
X-379221064Y-183936421D02*
X-384151566Y-188866923D01*
X-379221064Y-170466037D02*
X-379221064Y-183936421D01*
X-368692848Y-170466037D02*
X-368192848Y-170966037D01*
X-379221064Y-170466037D02*
X-368692848Y-170466037D01*
X-398153528Y-188866923D02*
X-384151566Y-188866923D01*
X-402582432Y-184438019D02*
X-398153528Y-188866923D01*
X-408438849Y-178581602D02*
X-402582432Y-184438019D01*
X-445491037Y-178581602D02*
X-408438849Y-178581602D01*
X-453213097Y-170859542D02*
X-445491037Y-178581602D01*
X-475347208Y-170859542D02*
X-453213097Y-170859542D01*
X-480218750Y-165988000D02*
X-475347208Y-170859542D01*
X-480889651Y-166658901D02*
X-480218750Y-165988000D01*
X-503296849Y-166658901D02*
X-480889651Y-166658901D01*
X-503967750Y-165988000D02*
X-503296849Y-166658901D01*
X-504638651Y-166658901D02*
X-503967750Y-165988000D01*
X-527141099Y-166658901D02*
X-504638651Y-166658901D01*
X-527812000Y-165988000D02*
X-527812000Y-165988000D01*
X-630740001Y-163135999D02*
X-627888000Y-165988000D01*
X-633722107Y-163135999D02*
X-630740001Y-163135999D01*
X-642972107Y-153885999D02*
X-633722107Y-163135999D01*
X-657185999Y-153885999D02*
X-642972107Y-153885999D01*
X-658113000Y-154813000D02*
X-657185999Y-153885999D01*
X-624204000Y-169672000D02*
X-601383100Y-169672000D01*
X-627888000Y-165988000D02*
X-624204000Y-169672000D01*
X-273814319Y-166013400D02*
X-257051050Y-166013400D01*
X-283590256Y-175789337D02*
X-273814319Y-166013400D01*
X-312650530Y-175789337D02*
X-283590256Y-175789337D01*
X-527805150Y-165994850D02*
X-527141099Y-166658901D01*
X-527812000Y-165988000D02*
X-527805150Y-165994850D01*
X-544184500Y-119113300D02*
X-544184600Y-119113200D01*
X-535635200Y-119113300D02*
X-544184500Y-119113300D01*
X-209455250Y-164446450D02*
X-205079600Y-160070800D01*
X-209455250Y-166013400D02*
X-209455250Y-164446450D01*
X-530339300Y-169824400D02*
X-529424900Y-169824400D01*
X-527812000Y-168211500D02*
X-527812000Y-165988000D01*
X-529424900Y-169824400D02*
X-527812000Y-168211500D01*
%TO.N,Net-(D7-Pad2)*%
X-611688000Y-83638000D02*
X-608838000Y-86488000D01*
X-615863000Y-83638000D02*
X-611688000Y-83638000D01*
%TO.N,Net-(D8-Pad2)*%
X-611688000Y-102688000D02*
X-608838000Y-105538000D01*
X-615863000Y-102688000D02*
X-611688000Y-102688000D01*
%TO.N,Net-(D9-Pad2)*%
X-630738000Y-102688000D02*
X-627888000Y-105538000D01*
X-634913000Y-102688000D02*
X-630738000Y-102688000D01*
%TO.N,Net-(D10-Pad2)*%
X-630738000Y-121738000D02*
X-627888000Y-124588000D01*
X-634913000Y-121738000D02*
X-630738000Y-121738000D01*
%TO.N,Net-(D11-Pad2)*%
X-630738000Y-140788000D02*
X-627888000Y-143638000D01*
X-634913000Y-140788000D02*
X-630738000Y-140788000D01*
%TO.N,Net-(D12-Pad2)*%
X-630738000Y-159838000D02*
X-627888000Y-162688000D01*
X-634913000Y-159838000D02*
X-630738000Y-159838000D01*
%TO.N,Net-(D13-Pad2)*%
X-592638000Y-83638000D02*
X-589788000Y-86488000D01*
X-596813000Y-83638000D02*
X-592638000Y-83638000D01*
%TO.N,Net-(D14-Pad2)*%
X-593938000Y-114213000D02*
X-589788000Y-118363000D01*
X-603813000Y-114213000D02*
X-593938000Y-114213000D01*
%TO.N,Net-(D15-Pad2)*%
X-611688000Y-121738000D02*
X-608838000Y-124588000D01*
X-615863000Y-121738000D02*
X-611688000Y-121738000D01*
%TO.N,Net-(D16-Pad2)*%
X-611688000Y-140788000D02*
X-608838000Y-143638000D01*
X-615863000Y-140788000D02*
X-611688000Y-140788000D01*
%TO.N,Net-(D17-Pad2)*%
X-614988000Y-159838000D02*
X-608838000Y-165988000D01*
X-615863000Y-159838000D02*
X-614988000Y-159838000D01*
%TO.N,Net-(D18-Pad2)*%
X-594420001Y-148530999D02*
X-589788000Y-153163000D01*
X-600030999Y-148530999D02*
X-594420001Y-148530999D01*
X-603813000Y-152313000D02*
X-600030999Y-148530999D01*
%TO.N,Net-(D19-Pad2)*%
X-516374500Y-59825500D02*
X-513524500Y-62675500D01*
X-520549500Y-59825500D02*
X-516374500Y-59825500D01*
%TO.N,Net-(D20-Pad2)*%
X-568825500Y-83638000D02*
X-565975500Y-86488000D01*
X-573000500Y-83638000D02*
X-568825500Y-83638000D01*
%TO.N,Net-(D21-Pad2)*%
X-549712000Y-140788000D02*
X-546862000Y-143638000D01*
X-553887000Y-140788000D02*
X-549712000Y-140788000D01*
%TO.N,Net-(D22-Pad2)*%
X-568825500Y-159838000D02*
X-565975500Y-162688000D01*
X-573000500Y-159838000D02*
X-568825500Y-159838000D01*
%TO.N,Net-(D23-Pad2)*%
X-549712000Y-159838000D02*
X-546862000Y-162688000D01*
X-553887000Y-159838000D02*
X-549712000Y-159838000D01*
%TO.N,Net-(D24-Pad2)*%
X-530662000Y-159838000D02*
X-527812000Y-162688000D01*
X-534837000Y-159838000D02*
X-530662000Y-159838000D01*
%TO.N,Net-(D25-Pad2)*%
X-487799500Y-59825500D02*
X-484949500Y-62675500D01*
X-491974500Y-59825500D02*
X-487799500Y-59825500D01*
%TO.N,Net-(D26-Pad2)*%
X-492562000Y-83638000D02*
X-489712000Y-86488000D01*
X-496737000Y-83638000D02*
X-492562000Y-83638000D01*
%TO.N,Net-(D27-Pad2)*%
X-497324500Y-102688000D02*
X-494474500Y-105538000D01*
X-506262000Y-102688000D02*
X-497324500Y-102688000D01*
%TO.N,Net-(D28-Pad2)*%
X-501991750Y-121738000D02*
X-499141750Y-124588000D01*
X-508548000Y-121738000D02*
X-501991750Y-121738000D01*
X-509500001Y-120785999D02*
X-513334000Y-120785999D01*
X-508548000Y-121738000D02*
X-509500001Y-120785999D01*
%TO.N,Net-(D29-Pad2)*%
X-506786000Y-140788000D02*
X-503936000Y-143638000D01*
X-522899000Y-140788000D02*
X-506786000Y-140788000D01*
%TO.N,Net-(D30-Pad2)*%
X-513374000Y-159838000D02*
X-506404000Y-159838000D01*
X-503967750Y-162274250D02*
X-503967750Y-162688000D01*
X-506404000Y-159838000D02*
X-503967750Y-162274250D01*
%TO.N,Net-(D31-Pad2)*%
X-469249500Y-59825500D02*
X-465899500Y-63175500D01*
X-472924500Y-59825500D02*
X-469249500Y-59825500D01*
%TO.N,Net-(D32-Pad2)*%
X-473448500Y-83638000D02*
X-470598500Y-86488000D01*
X-477623500Y-83638000D02*
X-473448500Y-83638000D01*
%TO.N,Net-(D33-Pad2)*%
X-478211000Y-102688000D02*
X-475361000Y-105538000D01*
X-482386000Y-102688000D02*
X-478211000Y-102688000D01*
%TO.N,Net-(D34-Pad2)*%
X-482973500Y-121738000D02*
X-480123500Y-124588000D01*
X-487148500Y-121738000D02*
X-482973500Y-121738000D01*
%TO.N,Net-(D35-Pad2)*%
X-487736000Y-140788000D02*
X-484886000Y-143638000D01*
X-491911000Y-140788000D02*
X-487736000Y-140788000D01*
%TO.N,Net-(D36-Pad2)*%
X-483068750Y-159838000D02*
X-480218750Y-162688000D01*
X-489625000Y-159838000D02*
X-483068750Y-159838000D01*
%TO.N,Net-(D37-Pad2)*%
X-440926261Y-62950878D02*
X-437166422Y-66710717D01*
X-443394266Y-62950878D02*
X-440926261Y-62950878D01*
%TO.N,Net-(D38-Pad2)*%
X-445625261Y-86953378D02*
X-441865422Y-90713217D01*
X-448093266Y-86953378D02*
X-445625261Y-86953378D01*
%TO.N,Net-(D39-Pad2)*%
X-449924361Y-105766381D02*
X-445353269Y-110337473D01*
X-451401263Y-105766381D02*
X-449924361Y-105766381D01*
%TO.N,Net-(D40-Pad2)*%
X-453112598Y-124689381D02*
X-448541506Y-129260473D01*
X-454589500Y-124689381D02*
X-453112598Y-124689381D01*
%TO.N,Net-(D41-Pad2)*%
X-456541598Y-143485381D02*
X-451970506Y-148056473D01*
X-458018500Y-143485381D02*
X-456541598Y-143485381D01*
%TO.N,Net-(D42-Pad2)*%
X-457546400Y-162484581D02*
X-452358995Y-167671986D01*
X-460707100Y-162484581D02*
X-457546400Y-162484581D01*
%TO.N,Net-(D43-Pad2)*%
X-423516478Y-67881380D02*
X-418945386Y-72452472D01*
X-424993380Y-67881380D02*
X-423516478Y-67881380D01*
%TO.N,Net-(D44-Pad2)*%
X-428215478Y-91883880D02*
X-423644386Y-96454972D01*
X-429692380Y-91883880D02*
X-428215478Y-91883880D01*
%TO.N,Net-(D45-Pad2)*%
X-431523475Y-110696883D02*
X-426952383Y-115267975D01*
X-433000377Y-110696883D02*
X-431523475Y-110696883D01*
%TO.N,Net-(D46-Pad2)*%
X-434711712Y-129619883D02*
X-430140620Y-134190975D01*
X-436188614Y-129619883D02*
X-434711712Y-129619883D01*
%TO.N,Net-(D47-Pad2)*%
X-438140712Y-148415883D02*
X-433569620Y-152986975D01*
X-439617614Y-148415883D02*
X-438140712Y-148415883D01*
%TO.N,Net-(D48-Pad2)*%
X-412422204Y-170556589D02*
X-401728330Y-181250463D01*
X-422068508Y-170556589D02*
X-412422204Y-170556589D01*
X-423877100Y-172365181D02*
X-422068508Y-170556589D01*
%TO.N,Net-(D49-Pad2)*%
X-405115592Y-72811882D02*
X-400544500Y-77382974D01*
X-406592494Y-72811882D02*
X-405115592Y-72811882D01*
%TO.N,Net-(D50-Pad2)*%
X-409814592Y-96814382D02*
X-405243500Y-101385474D01*
X-411291494Y-96814382D02*
X-409814592Y-96814382D01*
%TO.N,Net-(D51-Pad2)*%
X-413122589Y-115627385D02*
X-408551497Y-120198477D01*
X-414599491Y-115627385D02*
X-413122589Y-115627385D01*
%TO.N,Net-(D52-Pad2)*%
X-416310826Y-134550385D02*
X-411739734Y-139121477D01*
X-417787728Y-134550385D02*
X-416310826Y-134550385D01*
%TO.N,Net-(D53-Pad2)*%
X-419739826Y-153346385D02*
X-415168734Y-157917477D01*
X-421216728Y-153346385D02*
X-419739826Y-153346385D01*
%TO.N,Net-(D54-Pad2)*%
X-387368556Y-181608275D02*
X-383297464Y-185679367D01*
X-389345458Y-181608275D02*
X-387368556Y-181608275D01*
%TO.N,Net-(D55-Pad2)*%
X-386714706Y-77742384D02*
X-382143614Y-82313476D01*
X-388191608Y-77742384D02*
X-386714706Y-77742384D01*
%TO.N,Net-(D56-Pad2)*%
X-391413706Y-101744884D02*
X-386842614Y-106315976D01*
X-392890608Y-101744884D02*
X-391413706Y-101744884D01*
%TO.N,Net-(D57-Pad2)*%
X-394721703Y-120557887D02*
X-390150611Y-125128979D01*
X-396198605Y-120557887D02*
X-394721703Y-120557887D01*
%TO.N,Net-(D58-Pad2)*%
X-397909940Y-139480887D02*
X-393338848Y-144051979D01*
X-399386842Y-139480887D02*
X-397909940Y-139480887D01*
%TO.N,Net-(D59-Pad2)*%
X-401338940Y-158276887D02*
X-396767848Y-162847979D01*
X-402815842Y-158276887D02*
X-401338940Y-158276887D01*
%TO.N,Net-(D60-Pad2)*%
X-382438054Y-163207389D02*
X-378366962Y-167278481D01*
X-384414956Y-163207389D02*
X-382438054Y-163207389D01*
%TO.N,Net-(D61-Pad2)*%
X-360268445Y-76462886D02*
X-366073944Y-82268385D01*
X-366073944Y-82268385D02*
X-366073944Y-82328073D01*
X-355196321Y-76462886D02*
X-360268445Y-76462886D01*
%TO.N,Net-(D62-Pad2)*%
X-355149107Y-100539686D02*
X-361014294Y-106404873D01*
X-350136671Y-100539686D02*
X-355149107Y-100539686D01*
%TO.N,Net-(D63-Pad2)*%
X-351694707Y-119361086D02*
X-357559894Y-125226273D01*
X-346682271Y-119361086D02*
X-351694707Y-119361086D01*
%TO.N,Net-(D64-Pad2)*%
X-354105494Y-143962585D02*
X-354105494Y-144022273D01*
X-348299995Y-138157086D02*
X-354105494Y-143962585D01*
X-343227871Y-138157086D02*
X-348299995Y-138157086D01*
%TO.N,Net-(D65-Pad2)*%
X-344780877Y-156982792D02*
X-350646064Y-162847979D01*
X-339768441Y-156982792D02*
X-344780877Y-156982792D01*
%TO.N,Net-(D66-Pad2)*%
X-363181763Y-161913294D02*
X-369046950Y-167778481D01*
X-358169327Y-161913294D02*
X-363181763Y-161913294D01*
%TO.N,Net-(D67-Pad2)*%
X-347673058Y-77337883D02*
X-347673058Y-77397571D01*
X-341867559Y-71532384D02*
X-347673058Y-77337883D01*
X-336795435Y-71532384D02*
X-341867559Y-71532384D01*
%TO.N,Net-(D68-Pad2)*%
X-336748221Y-95609184D02*
X-342613408Y-101474371D01*
X-331735785Y-95609184D02*
X-336748221Y-95609184D01*
%TO.N,Net-(D69-Pad2)*%
X-333293821Y-114430584D02*
X-339159008Y-120295771D01*
X-328281385Y-114430584D02*
X-333293821Y-114430584D01*
%TO.N,Net-(D70-Pad2)*%
X-335704608Y-139032083D02*
X-335704608Y-139091771D01*
X-329899109Y-133226584D02*
X-335704608Y-139032083D01*
X-324826985Y-133226584D02*
X-329899109Y-133226584D01*
%TO.N,Net-(D71-Pad2)*%
X-332245178Y-157857789D02*
X-332245178Y-157917477D01*
X-326439679Y-152052290D02*
X-332245178Y-157857789D01*
X-321367555Y-152052290D02*
X-326439679Y-152052290D01*
%TO.N,Net-(D72-Pad2)*%
X-357821265Y-186160663D02*
X-364107070Y-186160663D01*
X-347641888Y-175981286D02*
X-357821265Y-186160663D01*
X-337128671Y-175981286D02*
X-347641888Y-175981286D01*
%TO.N,Net-(D73-Pad2)*%
X-329272172Y-72407381D02*
X-329272172Y-72467069D01*
X-323466673Y-66601882D02*
X-329272172Y-72407381D01*
X-318394549Y-66601882D02*
X-323466673Y-66601882D01*
%TO.N,Net-(D74-Pad2)*%
X-318347335Y-90678682D02*
X-324212522Y-96543869D01*
X-313334899Y-90678682D02*
X-318347335Y-90678682D01*
%TO.N,Net-(D75-Pad2)*%
X-320758122Y-115305581D02*
X-320758122Y-115365269D01*
X-314952623Y-109500082D02*
X-320758122Y-115305581D01*
X-309880499Y-109500082D02*
X-314952623Y-109500082D01*
%TO.N,Net-(D76-Pad2)*%
X-311438535Y-128296082D02*
X-317303722Y-134161269D01*
X-306426099Y-128296082D02*
X-311438535Y-128296082D01*
%TO.N,Net-(D77-Pad2)*%
X-308304162Y-147446845D02*
X-313844292Y-152986975D01*
X-307936745Y-147446845D02*
X-308304162Y-147446845D01*
X-307611688Y-147121788D02*
X-307936745Y-147446845D01*
X-302966669Y-147121788D02*
X-307611688Y-147121788D01*
%TO.N,Net-(D78-Pad2)*%
X-307023132Y-166120281D02*
X-313504632Y-172601781D01*
X-300326898Y-166120281D02*
X-307023132Y-166120281D01*
%TO.N,Net-(D79-Pad2)*%
X-305006099Y-61671380D02*
X-310871286Y-67536567D01*
X-299993663Y-61671380D02*
X-305006099Y-61671380D01*
%TO.N,Net-(D80-Pad2)*%
X-299946449Y-85748180D02*
X-305811636Y-91613367D01*
X-294934013Y-85748180D02*
X-299946449Y-85748180D01*
%TO.N,Net-(D81-Pad2)*%
X-302357236Y-110375079D02*
X-302357236Y-110434767D01*
X-296551737Y-104569580D02*
X-302357236Y-110375079D01*
X-291479613Y-104569580D02*
X-296551737Y-104569580D01*
%TO.N,Net-(D82-Pad2)*%
X-298902836Y-129171079D02*
X-298902836Y-129230767D01*
X-293097337Y-123365580D02*
X-298902836Y-129171079D01*
X-288025213Y-123365580D02*
X-293097337Y-123365580D01*
%TO.N,Net-(D83-Pad2)*%
X-295443406Y-146996785D02*
X-295443406Y-148056473D01*
X-290637907Y-142191286D02*
X-295443406Y-146996785D01*
X-285565783Y-142191286D02*
X-290637907Y-142191286D01*
%TO.N,Net-(D84-Pad2)*%
X-253249049Y-158911399D02*
X-257051050Y-162713400D01*
X-243596801Y-158911399D02*
X-253249049Y-158911399D01*
X-242644800Y-159863400D02*
X-243596801Y-158911399D01*
%TO.N,Net-(D85-Pad2)*%
X-279874599Y-58873499D02*
X-283676600Y-62675500D01*
X-272603601Y-58873499D02*
X-279874599Y-58873499D01*
X-271651600Y-59825500D02*
X-272603601Y-58873499D01*
%TO.N,Net-(D86-Pad2)*%
X-277131399Y-82711399D02*
X-280933400Y-86513400D01*
X-269860401Y-82711399D02*
X-277131399Y-82711399D01*
X-268908400Y-83663400D02*
X-269860401Y-82711399D01*
%TO.N,Net-(D87-Pad2)*%
X-267631799Y-101761399D02*
X-271433800Y-105563400D01*
X-260360801Y-101761399D02*
X-267631799Y-101761399D01*
X-259408800Y-102713400D02*
X-260360801Y-101761399D01*
%TO.N,Net-(D88-Pad2)*%
X-262805799Y-120760599D02*
X-266607800Y-124562600D01*
X-255534801Y-120760599D02*
X-262805799Y-120760599D01*
X-254582800Y-121712600D02*
X-255534801Y-120760599D01*
%TO.N,Net-(D89-Pad2)*%
X-262831199Y-139810599D02*
X-266633200Y-143612600D01*
X-255560201Y-139810599D02*
X-262831199Y-139810599D01*
X-254608200Y-140762600D02*
X-255560201Y-139810599D01*
%TO.N,Net-(D90-Pad2)*%
X-229453049Y-158911399D02*
X-233255050Y-162713400D01*
X-219800801Y-158911399D02*
X-229453049Y-158911399D01*
X-218848800Y-159863400D02*
X-219800801Y-158911399D01*
%TO.N,Net-(D91-Pad2)*%
X-260824599Y-58873499D02*
X-264626600Y-62675500D01*
X-253553601Y-58873499D02*
X-260824599Y-58873499D01*
X-252601600Y-59825500D02*
X-253553601Y-58873499D01*
%TO.N,Net-(D92-Pad2)*%
X-250810401Y-82711399D02*
X-258081399Y-82711399D01*
X-258081399Y-82711399D02*
X-261883400Y-86513400D01*
X-249858400Y-83663400D02*
X-250810401Y-82711399D01*
%TO.N,Net-(D93-Pad2)*%
X-248556399Y-101761399D02*
X-252358400Y-105563400D01*
X-241285401Y-101761399D02*
X-248556399Y-101761399D01*
X-240333400Y-102713400D02*
X-241285401Y-101761399D01*
%TO.N,Net-(D94-Pad2)*%
X-243755799Y-120760599D02*
X-247557800Y-124562600D01*
X-236484801Y-120760599D02*
X-243755799Y-120760599D01*
X-235532800Y-121712600D02*
X-236484801Y-120760599D01*
%TO.N,Net-(D95-Pad2)*%
X-240679118Y-143688800D02*
X-247576850Y-143688800D01*
X-236877117Y-139886799D02*
X-240679118Y-143688800D01*
X-224597601Y-139886799D02*
X-236877117Y-139886799D01*
X-223645600Y-140838800D02*
X-224597601Y-139886799D01*
%TO.N,Net-(D96-Pad2)*%
X-205653249Y-158911399D02*
X-209455250Y-162713400D01*
X-196001001Y-158911399D02*
X-205653249Y-158911399D01*
X-195049000Y-159863400D02*
X-196001001Y-158911399D01*
%TO.N,Net-(D97-Pad2)*%
X-219955999Y-58873499D02*
X-223758000Y-62675500D01*
X-212685001Y-58873499D02*
X-219955999Y-58873499D01*
X-211733000Y-59825500D02*
X-212685001Y-58873499D01*
%TO.N,Net-(D98-Pad2)*%
X-239031399Y-82711399D02*
X-242833400Y-86513400D01*
X-231760401Y-82711399D02*
X-239031399Y-82711399D01*
X-230808400Y-83663400D02*
X-231760401Y-82711399D01*
%TO.N,Net-(D99-Pad2)*%
X-222235401Y-101761399D02*
X-229506399Y-101761399D01*
X-229506399Y-101761399D02*
X-233308400Y-105563400D01*
X-221283400Y-102713400D02*
X-222235401Y-101761399D01*
%TO.N,Net-(D101-Pad2)*%
X-221634918Y-124588000D02*
X-228532650Y-124588000D01*
X-217832917Y-120785999D02*
X-221634918Y-124588000D01*
X-205553401Y-120785999D02*
X-217832917Y-120785999D01*
X-204601400Y-121738000D02*
X-205553401Y-120785999D01*
%TO.N,Net-(D102-Pad2)*%
X-200905999Y-139835999D02*
X-204708000Y-143638000D01*
X-193635001Y-139835999D02*
X-200905999Y-139835999D01*
X-192683000Y-140788000D02*
X-193635001Y-139835999D01*
%TO.N,Net-(D103-Pad2)*%
X-200905999Y-58873499D02*
X-204708000Y-62675500D01*
X-193635001Y-58873499D02*
X-200905999Y-58873499D01*
X-192683000Y-59825500D02*
X-193635001Y-58873499D01*
%TO.N,Net-(D104-Pad2)*%
X-219266918Y-86488000D02*
X-223783400Y-86488000D01*
X-215464917Y-82685999D02*
X-219266918Y-86488000D01*
X-203185401Y-82685999D02*
X-215464917Y-82685999D01*
X-202233400Y-83638000D02*
X-203185401Y-82685999D01*
%TO.N,Net-(D105-Pad2)*%
X-210443699Y-101761399D02*
X-214245700Y-105563400D01*
X-198410201Y-101761399D02*
X-210443699Y-101761399D01*
X-197458200Y-102713400D02*
X-198410201Y-101761399D01*
%TO.N,Col0*%
X-660273000Y-161798000D02*
X-650748000Y-161798000D01*
X-641223000Y-85598000D02*
X-640918200Y-85598000D01*
X-630608901Y-75288701D02*
X-553646901Y-75288701D01*
X-640918200Y-85598000D02*
X-630608901Y-75288701D01*
X-549471702Y-79463900D02*
X-547166800Y-79463900D01*
X-553646901Y-75288701D02*
X-549471702Y-79463900D01*
X-544184400Y-119913400D02*
X-544184600Y-119913200D01*
X-539330900Y-119900700D02*
X-544184400Y-119913400D01*
%TO.N,Col1*%
X-637380999Y-100655999D02*
X-639913000Y-103188000D01*
X-626165001Y-100655999D02*
X-637380999Y-100655999D01*
X-622173000Y-104648000D02*
X-626165001Y-100655999D01*
X-559686700Y-112613200D02*
X-563105300Y-109194600D01*
X-553884600Y-112613200D02*
X-559686700Y-112613200D01*
X-568096400Y-97028000D02*
X-580123300Y-97028000D01*
X-565492900Y-99631500D02*
X-568096400Y-97028000D01*
X-615962011Y-99860100D02*
X-617268407Y-101166496D01*
X-581444100Y-99860100D02*
X-615962011Y-99860100D01*
%TO.N,Col2*%
X-618330999Y-119705999D02*
X-620863000Y-122238000D01*
X-602670001Y-119705999D02*
X-618330999Y-119705999D01*
X-601853000Y-120523000D02*
X-602670001Y-119705999D01*
X-602707949Y-157768051D02*
X-601853000Y-158623000D01*
X-618143051Y-157768051D02*
X-602707949Y-157768051D01*
X-622173000Y-161798000D02*
X-618143051Y-157768051D01*
X-601853000Y-121031962D02*
X-601853000Y-120523000D01*
X-599889961Y-122995001D02*
X-601853000Y-121031962D01*
X-556266401Y-122995001D02*
X-599889961Y-122995001D01*
X-555584600Y-122313200D02*
X-556266401Y-122995001D01*
%TO.N,Col3*%
X-575468499Y-81605999D02*
X-578000500Y-84138000D01*
X-547188961Y-81605999D02*
X-575468499Y-81605999D01*
X-527368462Y-61785500D02*
X-547188961Y-81605999D01*
X-526859500Y-61785500D02*
X-527368462Y-61785500D01*
X-544133500Y-120764300D02*
X-544184600Y-120713200D01*
X-536371800Y-120764300D02*
X-544133500Y-120764300D01*
X-575468499Y-157805999D02*
X-578000500Y-160338000D01*
X-564189001Y-157805999D02*
X-575468499Y-157805999D01*
X-560197000Y-161798000D02*
X-564189001Y-157805999D01*
X-545176949Y-157768051D02*
X-541147000Y-161798000D01*
X-556167051Y-157768051D02*
X-545176949Y-157768051D01*
X-560197000Y-161798000D02*
X-556167051Y-157768051D01*
%TO.N,Col4*%
X-537390139Y-121513200D02*
X-537373647Y-121496708D01*
X-544184600Y-121513200D02*
X-537390139Y-121513200D01*
X-525754600Y-104648000D02*
X-512572000Y-104648000D01*
X-531787100Y-110680500D02*
X-525754600Y-104648000D01*
X-507390400Y-126663866D02*
X-507390400Y-128828800D01*
X-510356266Y-123698000D02*
X-507390400Y-126663866D01*
X-519779250Y-123698000D02*
X-510356266Y-123698000D01*
%TO.N,Col5*%
X-549084600Y-108661300D02*
X-545934900Y-105511600D01*
X-549084600Y-112613200D02*
X-549084600Y-108661300D01*
X-537679900Y-100380800D02*
X-535711400Y-98412300D01*
X-544715700Y-100380800D02*
X-537679900Y-100380800D01*
X-487925501Y-81605999D02*
X-483933500Y-85598000D01*
X-527515699Y-81605999D02*
X-487925501Y-81605999D01*
X-533247600Y-87337900D02*
X-527515699Y-81605999D01*
%TO.N,Col6*%
X-548284600Y-109829800D02*
X-545198300Y-106743500D01*
X-548284600Y-112613200D02*
X-548284600Y-109829800D01*
X-539021871Y-96972971D02*
X-458003540Y-96972971D01*
X-540575500Y-98526600D02*
X-539021871Y-96972971D01*
%TO.N,Col7*%
X-441319928Y-97699971D02*
X-437286400Y-101733499D01*
X-532424939Y-97699971D02*
X-441319928Y-97699971D01*
X-539273387Y-104548420D02*
X-532424939Y-97699971D01*
X-540423820Y-104548420D02*
X-539273387Y-104548420D01*
X-547484600Y-111609200D02*
X-540423820Y-104548420D01*
X-547484600Y-112613200D02*
X-547484600Y-111609200D01*
%TO.N,Col8*%
X-422979769Y-102460499D02*
X-421201768Y-104238500D01*
X-448184668Y-102460499D02*
X-422979769Y-102460499D01*
X-532236882Y-98153981D02*
X-452491186Y-98153981D01*
X-539085331Y-105002430D02*
X-532236882Y-98153981D01*
X-452491186Y-98153981D02*
X-448184668Y-102460499D01*
X-546684600Y-111609200D02*
X-540077830Y-105002430D01*
X-540077830Y-105002430D02*
X-539085331Y-105002430D01*
X-546684600Y-112613200D02*
X-546684600Y-111609200D01*
%TO.N,Col9*%
X-541309300Y-115913200D02*
X-541309000Y-115912900D01*
X-544184600Y-115913200D02*
X-541309300Y-115913200D01*
X-536051200Y-132476800D02*
X-535305000Y-133223000D01*
X-540702500Y-132476800D02*
X-536051200Y-132476800D01*
X-491172500Y-152184100D02*
X-484873300Y-158483300D01*
X-534060400Y-152184100D02*
X-491172500Y-152184100D01*
X-427505083Y-119398999D02*
X-407163128Y-139740954D01*
X-407163128Y-139740954D02*
X-405989119Y-139740954D01*
X-468909400Y-121589800D02*
X-466444600Y-119125000D01*
X-466444600Y-119125000D02*
X-465301600Y-119125000D01*
X-465301600Y-119125000D02*
X-427505083Y-119398999D01*
%TO.N,Col10*%
X-358158434Y-126143241D02*
X-355525770Y-126143241D01*
X-366006921Y-118294754D02*
X-358158434Y-126143241D01*
X-446963800Y-104965500D02*
X-419817583Y-104965500D01*
X-406488329Y-118294754D02*
X-366006921Y-118294754D01*
X-419817583Y-104965500D02*
X-406488329Y-118294754D01*
X-451832763Y-100096537D02*
X-446963800Y-104965500D01*
X-519091963Y-100096537D02*
X-451832763Y-100096537D01*
X-355525770Y-126143241D02*
X-352269978Y-122887449D01*
X-523824200Y-100063300D02*
X-519091963Y-100096537D01*
X-537110700Y-112613200D02*
X-523824200Y-100063300D01*
X-545884600Y-112613200D02*
X-537110700Y-112613200D01*
%TO.N,Col11*%
X-542073900Y-116713200D02*
X-542036000Y-116751100D01*
X-544184600Y-116713200D02*
X-542073900Y-116713200D01*
X-532321817Y-98880982D02*
X-464058000Y-98880982D01*
X-539170266Y-105729431D02*
X-532321817Y-98880982D01*
X-441824762Y-76873100D02*
X-427092762Y-91605100D01*
X-456006200Y-76873100D02*
X-441824762Y-76873100D01*
X-339699600Y-91605100D02*
X-336436005Y-94868695D01*
X-427092762Y-91605100D02*
X-339699600Y-91605100D01*
%TO.N,Col12*%
X-541715100Y-117513200D02*
X-540042100Y-115840200D01*
X-544184600Y-117513200D02*
X-541715100Y-117513200D01*
X-448099733Y-103187500D02*
X-426313600Y-103187500D01*
X-451679251Y-99607982D02*
X-448099733Y-103187500D01*
X-532020682Y-99607982D02*
X-451679251Y-99607982D01*
X-539156200Y-106743500D02*
X-532020682Y-99607982D01*
X-418166779Y-87141279D02*
X-323349580Y-87141279D01*
X-419036500Y-88011000D02*
X-418166779Y-87141279D01*
%TO.N,Col13*%
X-525381589Y-125544211D02*
X-517918700Y-133007100D01*
X-546957589Y-125544211D02*
X-525381589Y-125544211D01*
X-547484600Y-125017200D02*
X-546957589Y-125544211D01*
X-547484600Y-124013200D02*
X-547484600Y-125017200D01*
X-386169351Y-178130200D02*
X-380555500Y-178130200D01*
X-422380356Y-168859963D02*
X-395439588Y-168859963D01*
X-431018871Y-160221448D02*
X-422380356Y-168859963D01*
X-395439588Y-168859963D02*
X-386169351Y-178130200D01*
X-482043236Y-160221448D02*
X-431018871Y-160221448D01*
X-491350584Y-150914100D02*
X-482043236Y-160221448D01*
X-509231900Y-150914100D02*
X-491350584Y-150914100D01*
X-317701529Y-139242800D02*
X-294970200Y-139242800D01*
X-331455629Y-152996900D02*
X-317701529Y-139242800D01*
X-370357400Y-152996900D02*
X-331455629Y-152996900D01*
%TO.N,Col14*%
X-543685600Y-129616200D02*
X-535089100Y-129616200D01*
X-548284600Y-125017200D02*
X-543685600Y-129616200D01*
X-548284600Y-124013200D02*
X-548284600Y-125017200D01*
%TO.N,Col15*%
X-328674303Y-148156503D02*
X-324853300Y-144335500D01*
X-407388432Y-148156503D02*
X-328674303Y-148156503D01*
X-410625235Y-144919700D02*
X-407388432Y-148156503D01*
X-453669417Y-144919700D02*
X-410625235Y-144919700D01*
X-463130917Y-135458200D02*
X-453669417Y-144919700D01*
X-544220400Y-135458200D02*
X-463130917Y-135458200D01*
X-286475823Y-116102000D02*
X-246643400Y-116102000D01*
X-295697423Y-125323600D02*
X-286475823Y-116102000D01*
X-315353700Y-125323600D02*
X-295697423Y-125323600D01*
X-547662100Y-129578100D02*
X-545757100Y-129552700D01*
X-550633900Y-126873000D02*
X-547662100Y-129578100D01*
X-550684600Y-124013200D02*
X-550633900Y-126873000D01*
%TO.N,Col16*%
X-461026901Y-138755999D02*
X-459689200Y-140093700D01*
X-542395801Y-138755999D02*
X-461026901Y-138755999D01*
X-545757100Y-135394700D02*
X-542395801Y-138755999D01*
X-374822891Y-189783891D02*
X-373494300Y-188455300D01*
X-411111430Y-189783891D02*
X-374822891Y-189783891D01*
X-418193121Y-182702200D02*
X-411111430Y-189783891D01*
X-426948600Y-182702200D02*
X-418193121Y-182702200D01*
X-303973682Y-95254933D02*
X-239994933Y-95254933D01*
X-239994933Y-95254933D02*
X-237118400Y-92378400D01*
X-318765188Y-110046439D02*
X-303973682Y-95254933D01*
X-349670039Y-110046439D02*
X-318765188Y-110046439D01*
X-353288600Y-113665000D02*
X-349670039Y-110046439D01*
X-546893183Y-128694883D02*
X-549884600Y-125933200D01*
X-549884600Y-125933200D02*
X-549884600Y-124013200D01*
%TO.N,Col17*%
X-549084600Y-125501300D02*
X-547408100Y-127177800D01*
X-549084600Y-124013200D02*
X-549084600Y-125501300D01*
X-544843801Y-139482999D02*
X-530250400Y-139482999D01*
X-548538400Y-135788400D02*
X-544843801Y-139482999D01*
X-314766593Y-76115599D02*
X-199060999Y-76115599D01*
X-325083591Y-86432597D02*
X-314766593Y-76115599D01*
X-423492170Y-86432597D02*
X-325083591Y-86432597D01*
X-434042267Y-75882500D02*
X-423492170Y-86432597D01*
X-505574300Y-75882500D02*
X-434042267Y-75882500D01*
%TO.N,GND*%
X-552348400Y-87564000D02*
X-552297600Y-87614800D01*
X-556437800Y-87564000D02*
X-552348400Y-87564000D01*
X-548309800Y-87614800D02*
X-548284400Y-87640200D01*
X-552297600Y-87614800D02*
X-548309800Y-87614800D01*
X-544347400Y-87640200D02*
X-544271200Y-87564000D01*
X-548284400Y-87640200D02*
X-544347400Y-87640200D01*
X-546684600Y-123199598D02*
X-546684600Y-124013200D01*
X-553084600Y-124013200D02*
X-553084600Y-122389500D01*
X-551484600Y-113617200D02*
X-550788600Y-114313200D01*
X-550788600Y-114313200D02*
X-550788600Y-114313200D01*
X-551484600Y-112613200D02*
X-551484600Y-113617200D01*
X-550788600Y-114313200D02*
X-544184600Y-114313200D01*
X-553084600Y-120799598D02*
X-553084600Y-122389500D01*
X-554770998Y-119113200D02*
X-553084600Y-120799598D01*
X-555584600Y-119113200D02*
X-554770998Y-119113200D01*
X-546684600Y-123009200D02*
X-546684600Y-124013200D01*
X-547304300Y-122389500D02*
X-546684600Y-123009200D01*
X-553084600Y-122389500D02*
X-547304300Y-122389500D01*
X-558978000Y-62444800D02*
X-558679990Y-62742810D01*
X-558978000Y-61065800D02*
X-558978000Y-62444800D01*
X-559869300Y-87564000D02*
X-561848000Y-85585300D01*
X-556437800Y-87564000D02*
X-559869300Y-87564000D01*
X-562276100Y-119113200D02*
X-567076600Y-114312700D01*
X-555584600Y-119113200D02*
X-562276100Y-119113200D01*
X-544271200Y-87564000D02*
X-542531300Y-89303900D01*
X-539849100Y-89303900D02*
X-539800800Y-89255600D01*
X-542531300Y-89303900D02*
X-539849100Y-89303900D01*
X-540211600Y-97297200D02*
X-543204400Y-97297200D01*
X-538215200Y-95300800D02*
X-540211600Y-97297200D01*
X-546684600Y-125017200D02*
X-546684600Y-124013200D01*
X-546611599Y-125090201D02*
X-546684600Y-125017200D01*
X-539489383Y-125090201D02*
X-546611599Y-125090201D01*
X-533084590Y-118685408D02*
X-539489383Y-125090201D01*
X-533084590Y-117348410D02*
X-533084590Y-118685408D01*
X-534136600Y-116296400D02*
X-533084590Y-117348410D01*
X-547164310Y-62742810D02*
X-543688200Y-59266700D01*
X-558679990Y-62742810D02*
X-547164310Y-62742810D01*
%TO.N,Net-(C1-Pad1)*%
X-549884600Y-105079800D02*
X-549884600Y-112613200D01*
X-549490900Y-104686100D02*
X-549884600Y-105079800D01*
%TO.N,Net-(C2-Pad1)*%
X-556448000Y-97424200D02*
X-556450500Y-97421700D01*
X-556437800Y-97424200D02*
X-556448000Y-97424200D01*
X-550684600Y-106540400D02*
X-550684600Y-112613200D01*
X-552272200Y-104952800D02*
X-550684600Y-106540400D01*
%TO.N,+5V*%
X-552348400Y-85664000D02*
X-552297600Y-85714800D01*
X-556437800Y-85664000D02*
X-552348400Y-85664000D01*
X-548309800Y-85714800D02*
X-548284400Y-85740200D01*
X-552297600Y-85714800D02*
X-548309800Y-85714800D01*
X-544347400Y-85740200D02*
X-544271200Y-85664000D01*
X-548284400Y-85740200D02*
X-544347400Y-85740200D01*
X-542349100Y-85664000D02*
X-540423100Y-87590000D01*
X-544271200Y-85664000D02*
X-542349100Y-85664000D01*
X-553884600Y-122209200D02*
X-553884600Y-124013200D01*
X-554580600Y-121513200D02*
X-553902450Y-122191350D01*
X-555584600Y-121513200D02*
X-554580600Y-121513200D01*
X-552284600Y-115217200D02*
X-552284600Y-112613200D01*
X-554580600Y-117513200D02*
X-552284600Y-115217200D01*
X-555584600Y-117513200D02*
X-554580600Y-117513200D01*
X-544998202Y-115113200D02*
X-544184600Y-115113200D01*
X-545884600Y-115999598D02*
X-544998202Y-115113200D01*
X-545884600Y-124013200D02*
X-545884600Y-115999598D01*
X-552284600Y-116609200D02*
X-552284600Y-115217200D01*
X-545884600Y-123009200D02*
X-552284600Y-116609200D01*
X-545884600Y-124013200D02*
X-545884600Y-123009200D01*
X-553902450Y-122191350D02*
X-553884600Y-122209200D01*
X-535681601Y-87590000D02*
X-533539700Y-89731901D01*
X-540423100Y-87590000D02*
X-535681601Y-87590000D01*
X-537972400Y-115113200D02*
X-544184600Y-115113200D01*
X-535813000Y-112953800D02*
X-537972400Y-115113200D01*
X-563889700Y-67592400D02*
X-562470300Y-69011800D01*
X-572770000Y-67592400D02*
X-563889700Y-67592400D01*
%TO.N,Net-(C5-Pad1)*%
X-536577500Y-118196400D02*
X-538429200Y-116344700D01*
X-534136600Y-118196400D02*
X-536577500Y-118196400D01*
X-568058300Y-101612700D02*
X-570204600Y-103759000D01*
X-543725100Y-101612700D02*
X-568058300Y-101612700D01*
X-557330338Y-118313200D02*
X-555584600Y-118313200D01*
X-562727838Y-112915700D02*
X-557330338Y-118313200D01*
X-571436500Y-112915700D02*
X-562727838Y-112915700D01*
%TO.N,VCC*%
X-564525600Y-64792400D02*
X-572770000Y-64792400D01*
X-562178000Y-62444800D02*
X-564525600Y-64792400D01*
X-562178000Y-61065800D02*
X-562178000Y-62444800D01*
%TO.N,D-*%
X-561378000Y-71079400D02*
X-562117100Y-71818500D01*
X-561378000Y-61065800D02*
X-561378000Y-71079400D01*
%TO.N,Net-(R1-Pad1)*%
X-581901600Y-120713200D02*
X-585266800Y-117348000D01*
X-555584600Y-120713200D02*
X-581901600Y-120713200D01*
X-581494900Y-71818500D02*
X-563942100Y-71818500D01*
X-584238100Y-74561700D02*
X-581494900Y-71818500D01*
%TO.N,D+*%
X-560578000Y-71182600D02*
X-559942100Y-71818500D01*
X-560578000Y-61065800D02*
X-560578000Y-71182600D01*
%TO.N,Net-(R2-Pad1)*%
X-556336200Y-71818500D02*
X-555053500Y-73101200D01*
X-558117100Y-71818500D02*
X-556336200Y-71818500D01*
X-555657600Y-119986200D02*
X-555584600Y-119913200D01*
X-569468000Y-119986200D02*
X-555657600Y-119986200D01*
%TO.N,Net-(R3-Pad2)*%
X-552056300Y-102628700D02*
X-553123100Y-104038400D01*
X-538378400Y-102501700D02*
X-552056300Y-102628700D01*
X-553123100Y-104038400D02*
X-553084600Y-112613200D01*
X-535580200Y-55566700D02*
X-533941020Y-57205880D01*
X-537488200Y-55566700D02*
X-535580200Y-55566700D01*
%TO.N,Net-(R4-Pad2)*%
X-562406800Y-114312700D02*
X-561124100Y-115595400D01*
X-565251600Y-114312700D02*
X-562406800Y-114312700D01*
X-539394400Y-131749800D02*
X-539305500Y-131660900D01*
X-554507400Y-131749800D02*
X-539394400Y-131749800D01*
X-544159700Y-122288300D02*
X-544184600Y-122313200D01*
X-537984700Y-122288300D02*
X-544159700Y-122288300D01*
%TO.N,Net-(USB1-Pad6)*%
X-556928000Y-61065800D02*
X-556928000Y-56565800D01*
X-564228000Y-56565800D02*
X-556928000Y-56565800D01*
X-564228000Y-56565800D02*
X-564228000Y-61065800D01*
%TD*%
M02*
