%TF.GenerationSoftware,KiCad,Pcbnew,(5.1.10)-1*%
%TF.CreationDate,2021-06-23T23:40:25-07:00*%
%TF.ProjectId,HSC_Alice,4853435f-416c-4696-9365-2e6b69636164,rev?*%
%TF.SameCoordinates,Original*%
%TF.FileFunction,Soldermask,Bot*%
%TF.FilePolarity,Negative*%
%FSLAX46Y46*%
G04 Gerber Fmt 4.6, Leading zero omitted, Abs format (unit mm)*
G04 Created by KiCad (PCBNEW (5.1.10)-1) date 2021-06-23 23:40:25*
%MOMM*%
%LPD*%
G01*
G04 APERTURE LIST*
%ADD10C,1.750000*%
%ADD11C,2.250000*%
%ADD12C,3.987800*%
%ADD13C,3.048000*%
%ADD14R,1.400000X1.200000*%
%ADD15O,1.700000X2.700000*%
%ADD16R,0.500000X2.250000*%
%ADD17R,0.550000X1.500000*%
%ADD18R,1.500000X0.550000*%
%ADD19R,1.800000X1.100000*%
%ADD20C,0.100000*%
%ADD21R,1.200000X0.900000*%
%ADD22R,0.900000X1.200000*%
G04 APERTURE END LIST*
D10*
%TO.C,MX105*%
X-194821050Y-107188000D03*
X-204981050Y-107188000D03*
D11*
X-202401050Y-103188000D03*
D12*
X-199901050Y-107188000D03*
G36*
G01*
X-204462362Y-105485350D02*
X-204462367Y-105485345D01*
G75*
G02*
X-204548395Y-103896683I751317J837345D01*
G01*
X-203238393Y-102436683D01*
G75*
G02*
X-201649731Y-102350655I837345J-751317D01*
G01*
X-201649731Y-102350655D01*
G75*
G02*
X-201563703Y-103939317I-751317J-837345D01*
G01*
X-202873705Y-105399317D01*
G75*
G02*
X-204462367Y-105485345I-837345J751317D01*
G01*
G37*
D11*
X-197361050Y-102108000D03*
G36*
G01*
X-197477567Y-103810395D02*
X-197478453Y-103810334D01*
G75*
G02*
X-198523384Y-102610597I77403J1122334D01*
G01*
X-198483384Y-102030597D01*
G75*
G02*
X-197283647Y-100985666I1122334J-77403D01*
G01*
X-197283647Y-100985666D01*
G75*
G02*
X-196238716Y-102185403I-77403J-1122334D01*
G01*
X-196278716Y-102765403D01*
G75*
G02*
X-197478453Y-103810334I-1122334J77403D01*
G01*
G37*
%TD*%
D10*
%TO.C,MX106*%
X-516286750Y-126238000D03*
X-506126750Y-126238000D03*
D11*
X-508706750Y-130238000D03*
D12*
X-511206750Y-126238000D03*
G36*
G01*
X-506643978Y-127941962D02*
X-506645433Y-127940655D01*
G75*
G02*
X-506559405Y-129529317I-751317J-837345D01*
G01*
X-507869407Y-130989317D01*
G75*
G02*
X-509458069Y-131075345I-837345J751317D01*
G01*
X-509458069Y-131075345D01*
G75*
G02*
X-509544097Y-129486683I751317J837345D01*
G01*
X-508234095Y-128026683D01*
G75*
G02*
X-506645433Y-127940655I837345J-751317D01*
G01*
G37*
D11*
X-513746750Y-131318000D03*
G36*
G01*
X-513628274Y-129615740D02*
X-513629347Y-129615666D01*
G75*
G02*
X-512584416Y-130815403I-77403J-1122334D01*
G01*
X-512624416Y-131395403D01*
G75*
G02*
X-513824153Y-132440334I-1122334J77403D01*
G01*
X-513824153Y-132440334D01*
G75*
G02*
X-514869084Y-131240597I77403J1122334D01*
G01*
X-514829084Y-130660597D01*
G75*
G02*
X-513629347Y-129615666I1122334J-77403D01*
G01*
G37*
%TD*%
D12*
%TO.C,MX95*%
X-214156800Y-153543000D03*
X-238032800Y-153543000D03*
D13*
X-214156800Y-138303000D03*
X-238032800Y-138303000D03*
D10*
X-221014800Y-145288000D03*
X-231174800Y-145288000D03*
D11*
X-228594800Y-141288000D03*
D12*
X-226094800Y-145288000D03*
G36*
G01*
X-230656112Y-143585350D02*
X-230656117Y-143585345D01*
G75*
G02*
X-230742145Y-141996683I751317J837345D01*
G01*
X-229432143Y-140536683D01*
G75*
G02*
X-227843481Y-140450655I837345J-751317D01*
G01*
X-227843481Y-140450655D01*
G75*
G02*
X-227757453Y-142039317I-751317J-837345D01*
G01*
X-229067455Y-143499317D01*
G75*
G02*
X-230656117Y-143585345I-837345J751317D01*
G01*
G37*
D11*
X-223554800Y-140208000D03*
G36*
G01*
X-223671317Y-141910395D02*
X-223672203Y-141910334D01*
G75*
G02*
X-224717134Y-140710597I77403J1122334D01*
G01*
X-224677134Y-140130597D01*
G75*
G02*
X-223477397Y-139085666I1122334J-77403D01*
G01*
X-223477397Y-139085666D01*
G75*
G02*
X-222432466Y-140285403I-77403J-1122334D01*
G01*
X-222472466Y-140865403D01*
G75*
G02*
X-223672203Y-141910334I-1122334J77403D01*
G01*
G37*
%TD*%
D10*
%TO.C,MX29*%
X-520414250Y-145288000D03*
X-530574250Y-145288000D03*
D11*
X-527994250Y-141288000D03*
D12*
X-525494250Y-145288000D03*
G36*
G01*
X-530055562Y-143585350D02*
X-530055567Y-143585345D01*
G75*
G02*
X-530141595Y-141996683I751317J837345D01*
G01*
X-528831593Y-140536683D01*
G75*
G02*
X-527242931Y-140450655I837345J-751317D01*
G01*
X-527242931Y-140450655D01*
G75*
G02*
X-527156903Y-142039317I-751317J-837345D01*
G01*
X-528466905Y-143499317D01*
G75*
G02*
X-530055567Y-143585345I-837345J751317D01*
G01*
G37*
D11*
X-522954250Y-140208000D03*
G36*
G01*
X-523070767Y-141910395D02*
X-523071653Y-141910334D01*
G75*
G02*
X-524116584Y-140710597I77403J1122334D01*
G01*
X-524076584Y-140130597D01*
G75*
G02*
X-522876847Y-139085666I1122334J-77403D01*
G01*
X-522876847Y-139085666D01*
G75*
G02*
X-521831916Y-140285403I-77403J-1122334D01*
G01*
X-521871916Y-140865403D01*
G75*
G02*
X-523071653Y-141910334I-1122334J77403D01*
G01*
G37*
%TD*%
D10*
%TO.C,MX6*%
X-651383000Y-164338000D03*
X-661543000Y-164338000D03*
D11*
X-658963000Y-160338000D03*
D12*
X-656463000Y-164338000D03*
G36*
G01*
X-661024312Y-162635350D02*
X-661024317Y-162635345D01*
G75*
G02*
X-661110345Y-161046683I751317J837345D01*
G01*
X-659800343Y-159586683D01*
G75*
G02*
X-658211681Y-159500655I837345J-751317D01*
G01*
X-658211681Y-159500655D01*
G75*
G02*
X-658125653Y-161089317I-751317J-837345D01*
G01*
X-659435655Y-162549317D01*
G75*
G02*
X-661024317Y-162635345I-837345J751317D01*
G01*
G37*
D11*
X-653923000Y-159258000D03*
G36*
G01*
X-654039517Y-160960395D02*
X-654040403Y-160960334D01*
G75*
G02*
X-655085334Y-159760597I77403J1122334D01*
G01*
X-655045334Y-159180597D01*
G75*
G02*
X-653845597Y-158135666I1122334J-77403D01*
G01*
X-653845597Y-158135666D01*
G75*
G02*
X-652800666Y-159335403I-77403J-1122334D01*
G01*
X-652840666Y-159915403D01*
G75*
G02*
X-654040403Y-160960334I-1122334J77403D01*
G01*
G37*
%TD*%
D12*
%TO.C,MX100*%
X-635000000Y-156083000D03*
X-658876000Y-156083000D03*
D13*
X-635000000Y-171323000D03*
X-658876000Y-171323000D03*
D10*
X-641858000Y-164338000D03*
X-652018000Y-164338000D03*
D11*
X-649438000Y-160338000D03*
D12*
X-646938000Y-164338000D03*
G36*
G01*
X-651499312Y-162635350D02*
X-651499317Y-162635345D01*
G75*
G02*
X-651585345Y-161046683I751317J837345D01*
G01*
X-650275343Y-159586683D01*
G75*
G02*
X-648686681Y-159500655I837345J-751317D01*
G01*
X-648686681Y-159500655D01*
G75*
G02*
X-648600653Y-161089317I-751317J-837345D01*
G01*
X-649910655Y-162549317D01*
G75*
G02*
X-651499317Y-162635345I-837345J751317D01*
G01*
G37*
D11*
X-644398000Y-159258000D03*
G36*
G01*
X-644514517Y-160960395D02*
X-644515403Y-160960334D01*
G75*
G02*
X-645560334Y-159760597I77403J1122334D01*
G01*
X-645520334Y-159180597D01*
G75*
G02*
X-644320597Y-158135666I1122334J-77403D01*
G01*
X-644320597Y-158135666D01*
G75*
G02*
X-643275666Y-159335403I-77403J-1122334D01*
G01*
X-643315666Y-159915403D01*
G75*
G02*
X-644515403Y-160960334I-1122334J77403D01*
G01*
G37*
%TD*%
D12*
%TO.C,MX72*%
X-329051715Y-169912210D03*
X-352114160Y-176091773D03*
D13*
X-325107312Y-184632919D03*
X-348169757Y-190812483D03*
D10*
X-333539483Y-179660908D03*
X-343353289Y-182290510D03*
D11*
X-341896477Y-177759053D03*
D12*
X-338446386Y-180975709D03*
G36*
G01*
X-343292953Y-180511630D02*
X-343292960Y-180511627D01*
G75*
G02*
X-343787233Y-178999362I508996J1003269D01*
G01*
X-342899745Y-177250058D01*
G75*
G02*
X-341387480Y-176755785I1003269J-508996D01*
G01*
X-341387480Y-176755785D01*
G75*
G02*
X-340893207Y-178268050I-508996J-1003269D01*
G01*
X-341780695Y-180017354D01*
G75*
G02*
X-343292960Y-180511627I-1003269J508996D01*
G01*
G37*
D11*
X-337307735Y-175411405D03*
G36*
G01*
X-336979670Y-177085949D02*
X-336980541Y-177086120D01*
G75*
G02*
X-338300382Y-176197711I-215716J1104125D01*
G01*
X-338411860Y-175627121D01*
G75*
G02*
X-337523451Y-174307280I1104125J215716D01*
G01*
X-337523451Y-174307280D01*
G75*
G02*
X-336203610Y-175195689I215716J-1104125D01*
G01*
X-336092132Y-175766279D01*
G75*
G02*
X-336980541Y-177086120I-1104125J-215716D01*
G01*
G37*
%TD*%
D12*
%TO.C,MX48*%
X-413817053Y-171161269D03*
X-436879498Y-164981706D03*
D13*
X-417761456Y-185881979D03*
X-440823901Y-179702415D03*
D10*
X-422577924Y-177360006D03*
X-432391730Y-174730404D03*
D11*
X-428864365Y-171534454D03*
D12*
X-427484827Y-176045205D03*
G36*
G01*
X-431450038Y-173220018D02*
X-431450042Y-173220011D01*
G75*
G02*
X-431121962Y-171663215I942438J614358D01*
G01*
X-429478722Y-170592017D01*
G75*
G02*
X-427921926Y-170920097I614358J-942438D01*
G01*
X-427921926Y-170920097D01*
G75*
G02*
X-428250006Y-172476893I-942438J-614358D01*
G01*
X-429893246Y-173548091D01*
G75*
G02*
X-431450042Y-173220011I-614358J942438D01*
G01*
G37*
D11*
X-423716575Y-171795702D03*
G36*
G01*
X-424269734Y-173409932D02*
X-424270574Y-173409644D01*
G75*
G02*
X-424969385Y-171980339I365247J1064058D01*
G01*
X-424780633Y-171430455D01*
G75*
G02*
X-423351328Y-170731644I1064058J-365247D01*
G01*
X-423351328Y-170731644D01*
G75*
G02*
X-422652517Y-172160949I-365247J-1064058D01*
G01*
X-422841269Y-172710833D01*
G75*
G02*
X-424270574Y-173409644I-1064058J365247D01*
G01*
G37*
%TD*%
D10*
%TO.C,MX28*%
X-510889250Y-126238000D03*
X-521049250Y-126238000D03*
D11*
X-518469250Y-122238000D03*
D12*
X-515969250Y-126238000D03*
G36*
G01*
X-520530562Y-124535350D02*
X-520530567Y-124535345D01*
G75*
G02*
X-520616595Y-122946683I751317J837345D01*
G01*
X-519306593Y-121486683D01*
G75*
G02*
X-517717931Y-121400655I837345J-751317D01*
G01*
X-517717931Y-121400655D01*
G75*
G02*
X-517631903Y-122989317I-751317J-837345D01*
G01*
X-518941905Y-124449317D01*
G75*
G02*
X-520530567Y-124535345I-837345J751317D01*
G01*
G37*
D11*
X-513429250Y-121158000D03*
G36*
G01*
X-513545767Y-122860395D02*
X-513546653Y-122860334D01*
G75*
G02*
X-514591584Y-121660597I77403J1122334D01*
G01*
X-514551584Y-121080597D01*
G75*
G02*
X-513351847Y-120035666I1122334J-77403D01*
G01*
X-513351847Y-120035666D01*
G75*
G02*
X-512306916Y-121235403I-77403J-1122334D01*
G01*
X-512346916Y-121815403D01*
G75*
G02*
X-513546653Y-122860334I-1122334J77403D01*
G01*
G37*
%TD*%
D14*
%TO.C,Y1*%
X-549140200Y-97448000D03*
X-551340200Y-97448000D03*
X-551340200Y-99148000D03*
X-549140200Y-99148000D03*
%TD*%
D15*
%TO.C,USB1*%
X-564228000Y-56565800D03*
X-556928000Y-56565800D03*
X-556928000Y-61065800D03*
X-564228000Y-61065800D03*
D16*
X-562178000Y-61065800D03*
X-561378000Y-61065800D03*
X-560578000Y-61065800D03*
X-559778000Y-61065800D03*
X-558978000Y-61065800D03*
%TD*%
D17*
%TO.C,U1*%
X-553884600Y-124013200D03*
X-553084600Y-124013200D03*
X-552284600Y-124013200D03*
X-551484600Y-124013200D03*
X-550684600Y-124013200D03*
X-549884600Y-124013200D03*
X-549084600Y-124013200D03*
X-548284600Y-124013200D03*
X-547484600Y-124013200D03*
X-546684600Y-124013200D03*
X-545884600Y-124013200D03*
D18*
X-544184600Y-122313200D03*
X-544184600Y-121513200D03*
X-544184600Y-120713200D03*
X-544184600Y-119913200D03*
X-544184600Y-119113200D03*
X-544184600Y-118313200D03*
X-544184600Y-117513200D03*
X-544184600Y-116713200D03*
X-544184600Y-115913200D03*
X-544184600Y-115113200D03*
X-544184600Y-114313200D03*
D17*
X-545884600Y-112613200D03*
X-546684600Y-112613200D03*
X-547484600Y-112613200D03*
X-548284600Y-112613200D03*
X-549084600Y-112613200D03*
X-549884600Y-112613200D03*
X-550684600Y-112613200D03*
X-551484600Y-112613200D03*
X-552284600Y-112613200D03*
X-553084600Y-112613200D03*
X-553884600Y-112613200D03*
D18*
X-555584600Y-114313200D03*
X-555584600Y-115113200D03*
X-555584600Y-115913200D03*
X-555584600Y-116713200D03*
X-555584600Y-117513200D03*
X-555584600Y-118313200D03*
X-555584600Y-119113200D03*
X-555584600Y-119913200D03*
X-555584600Y-120713200D03*
X-555584600Y-121513200D03*
X-555584600Y-122313200D03*
%TD*%
D19*
%TO.C,SW1*%
X-537488200Y-59266700D03*
X-543688200Y-55566700D03*
X-537488200Y-55566700D03*
X-543688200Y-59266700D03*
%TD*%
%TO.C,R4*%
G36*
G01*
X-565764100Y-114762702D02*
X-565764100Y-113862698D01*
G75*
G02*
X-565514102Y-113612700I249998J0D01*
G01*
X-564989098Y-113612700D01*
G75*
G02*
X-564739100Y-113862698I0J-249998D01*
G01*
X-564739100Y-114762702D01*
G75*
G02*
X-564989098Y-115012700I-249998J0D01*
G01*
X-565514102Y-115012700D01*
G75*
G02*
X-565764100Y-114762702I0J249998D01*
G01*
G37*
G36*
G01*
X-567589100Y-114762702D02*
X-567589100Y-113862698D01*
G75*
G02*
X-567339102Y-113612700I249998J0D01*
G01*
X-566814098Y-113612700D01*
G75*
G02*
X-566564100Y-113862698I0J-249998D01*
G01*
X-566564100Y-114762702D01*
G75*
G02*
X-566814098Y-115012700I-249998J0D01*
G01*
X-567339102Y-115012700D01*
G75*
G02*
X-567589100Y-114762702I0J249998D01*
G01*
G37*
%TD*%
%TO.C,R3*%
G36*
G01*
X-539973098Y-88102500D02*
X-540873102Y-88102500D01*
G75*
G02*
X-541123100Y-87852502I0J249998D01*
G01*
X-541123100Y-87327498D01*
G75*
G02*
X-540873102Y-87077500I249998J0D01*
G01*
X-539973098Y-87077500D01*
G75*
G02*
X-539723100Y-87327498I0J-249998D01*
G01*
X-539723100Y-87852502D01*
G75*
G02*
X-539973098Y-88102500I-249998J0D01*
G01*
G37*
G36*
G01*
X-539973098Y-86277500D02*
X-540873102Y-86277500D01*
G75*
G02*
X-541123100Y-86027502I0J249998D01*
G01*
X-541123100Y-85502498D01*
G75*
G02*
X-540873102Y-85252500I249998J0D01*
G01*
X-539973098Y-85252500D01*
G75*
G02*
X-539723100Y-85502498I0J-249998D01*
G01*
X-539723100Y-86027502D01*
G75*
G02*
X-539973098Y-86277500I-249998J0D01*
G01*
G37*
%TD*%
%TO.C,R2*%
G36*
G01*
X-559429600Y-71368498D02*
X-559429600Y-72268502D01*
G75*
G02*
X-559679598Y-72518500I-249998J0D01*
G01*
X-560204602Y-72518500D01*
G75*
G02*
X-560454600Y-72268502I0J249998D01*
G01*
X-560454600Y-71368498D01*
G75*
G02*
X-560204602Y-71118500I249998J0D01*
G01*
X-559679598Y-71118500D01*
G75*
G02*
X-559429600Y-71368498I0J-249998D01*
G01*
G37*
G36*
G01*
X-557604600Y-71368498D02*
X-557604600Y-72268502D01*
G75*
G02*
X-557854598Y-72518500I-249998J0D01*
G01*
X-558379602Y-72518500D01*
G75*
G02*
X-558629600Y-72268502I0J249998D01*
G01*
X-558629600Y-71368498D01*
G75*
G02*
X-558379602Y-71118500I249998J0D01*
G01*
X-557854598Y-71118500D01*
G75*
G02*
X-557604600Y-71368498I0J-249998D01*
G01*
G37*
%TD*%
%TO.C,R1*%
G36*
G01*
X-562629600Y-72268502D02*
X-562629600Y-71368498D01*
G75*
G02*
X-562379602Y-71118500I249998J0D01*
G01*
X-561854598Y-71118500D01*
G75*
G02*
X-561604600Y-71368498I0J-249998D01*
G01*
X-561604600Y-72268502D01*
G75*
G02*
X-561854598Y-72518500I-249998J0D01*
G01*
X-562379602Y-72518500D01*
G75*
G02*
X-562629600Y-72268502I0J249998D01*
G01*
G37*
G36*
G01*
X-564454600Y-72268502D02*
X-564454600Y-71368498D01*
G75*
G02*
X-564204602Y-71118500I249998J0D01*
G01*
X-563679598Y-71118500D01*
G75*
G02*
X-563429600Y-71368498I0J-249998D01*
G01*
X-563429600Y-72268502D01*
G75*
G02*
X-563679598Y-72518500I-249998J0D01*
G01*
X-564204602Y-72518500D01*
G75*
G02*
X-564454600Y-72268502I0J249998D01*
G01*
G37*
%TD*%
%TO.C,F1*%
G36*
G01*
X-572145000Y-65417400D02*
X-573395000Y-65417400D01*
G75*
G02*
X-573645000Y-65167400I0J250000D01*
G01*
X-573645000Y-64417400D01*
G75*
G02*
X-573395000Y-64167400I250000J0D01*
G01*
X-572145000Y-64167400D01*
G75*
G02*
X-571895000Y-64417400I0J-250000D01*
G01*
X-571895000Y-65167400D01*
G75*
G02*
X-572145000Y-65417400I-250000J0D01*
G01*
G37*
G36*
G01*
X-572145000Y-68217400D02*
X-573395000Y-68217400D01*
G75*
G02*
X-573645000Y-67967400I0J250000D01*
G01*
X-573645000Y-67217400D01*
G75*
G02*
X-573395000Y-66967400I250000J0D01*
G01*
X-572145000Y-66967400D01*
G75*
G02*
X-571895000Y-67217400I0J-250000D01*
G01*
X-571895000Y-67967400D01*
G75*
G02*
X-572145000Y-68217400I-250000J0D01*
G01*
G37*
%TD*%
%TO.C,C7*%
G36*
G01*
X-544746200Y-87064000D02*
X-543796200Y-87064000D01*
G75*
G02*
X-543546200Y-87314000I0J-250000D01*
G01*
X-543546200Y-87814000D01*
G75*
G02*
X-543796200Y-88064000I-250000J0D01*
G01*
X-544746200Y-88064000D01*
G75*
G02*
X-544996200Y-87814000I0J250000D01*
G01*
X-544996200Y-87314000D01*
G75*
G02*
X-544746200Y-87064000I250000J0D01*
G01*
G37*
G36*
G01*
X-544746200Y-85164000D02*
X-543796200Y-85164000D01*
G75*
G02*
X-543546200Y-85414000I0J-250000D01*
G01*
X-543546200Y-85914000D01*
G75*
G02*
X-543796200Y-86164000I-250000J0D01*
G01*
X-544746200Y-86164000D01*
G75*
G02*
X-544996200Y-85914000I0J250000D01*
G01*
X-544996200Y-85414000D01*
G75*
G02*
X-544746200Y-85164000I250000J0D01*
G01*
G37*
%TD*%
%TO.C,C6*%
G36*
G01*
X-548759400Y-87140200D02*
X-547809400Y-87140200D01*
G75*
G02*
X-547559400Y-87390200I0J-250000D01*
G01*
X-547559400Y-87890200D01*
G75*
G02*
X-547809400Y-88140200I-250000J0D01*
G01*
X-548759400Y-88140200D01*
G75*
G02*
X-549009400Y-87890200I0J250000D01*
G01*
X-549009400Y-87390200D01*
G75*
G02*
X-548759400Y-87140200I250000J0D01*
G01*
G37*
G36*
G01*
X-548759400Y-85240200D02*
X-547809400Y-85240200D01*
G75*
G02*
X-547559400Y-85490200I0J-250000D01*
G01*
X-547559400Y-85990200D01*
G75*
G02*
X-547809400Y-86240200I-250000J0D01*
G01*
X-548759400Y-86240200D01*
G75*
G02*
X-549009400Y-85990200I0J250000D01*
G01*
X-549009400Y-85490200D01*
G75*
G02*
X-548759400Y-85240200I250000J0D01*
G01*
G37*
%TD*%
%TO.C,C5*%
G36*
G01*
X-533661600Y-116796400D02*
X-534611600Y-116796400D01*
G75*
G02*
X-534861600Y-116546400I0J250000D01*
G01*
X-534861600Y-116046400D01*
G75*
G02*
X-534611600Y-115796400I250000J0D01*
G01*
X-533661600Y-115796400D01*
G75*
G02*
X-533411600Y-116046400I0J-250000D01*
G01*
X-533411600Y-116546400D01*
G75*
G02*
X-533661600Y-116796400I-250000J0D01*
G01*
G37*
G36*
G01*
X-533661600Y-118696400D02*
X-534611600Y-118696400D01*
G75*
G02*
X-534861600Y-118446400I0J250000D01*
G01*
X-534861600Y-117946400D01*
G75*
G02*
X-534611600Y-117696400I250000J0D01*
G01*
X-533661600Y-117696400D01*
G75*
G02*
X-533411600Y-117946400I0J-250000D01*
G01*
X-533411600Y-118446400D01*
G75*
G02*
X-533661600Y-118696400I-250000J0D01*
G01*
G37*
%TD*%
%TO.C,C4*%
G36*
G01*
X-552772600Y-87114800D02*
X-551822600Y-87114800D01*
G75*
G02*
X-551572600Y-87364800I0J-250000D01*
G01*
X-551572600Y-87864800D01*
G75*
G02*
X-551822600Y-88114800I-250000J0D01*
G01*
X-552772600Y-88114800D01*
G75*
G02*
X-553022600Y-87864800I0J250000D01*
G01*
X-553022600Y-87364800D01*
G75*
G02*
X-552772600Y-87114800I250000J0D01*
G01*
G37*
G36*
G01*
X-552772600Y-85214800D02*
X-551822600Y-85214800D01*
G75*
G02*
X-551572600Y-85464800I0J-250000D01*
G01*
X-551572600Y-85964800D01*
G75*
G02*
X-551822600Y-86214800I-250000J0D01*
G01*
X-552772600Y-86214800D01*
G75*
G02*
X-553022600Y-85964800I0J250000D01*
G01*
X-553022600Y-85464800D01*
G75*
G02*
X-552772600Y-85214800I250000J0D01*
G01*
G37*
%TD*%
%TO.C,C3*%
G36*
G01*
X-556912800Y-87064000D02*
X-555962800Y-87064000D01*
G75*
G02*
X-555712800Y-87314000I0J-250000D01*
G01*
X-555712800Y-87814000D01*
G75*
G02*
X-555962800Y-88064000I-250000J0D01*
G01*
X-556912800Y-88064000D01*
G75*
G02*
X-557162800Y-87814000I0J250000D01*
G01*
X-557162800Y-87314000D01*
G75*
G02*
X-556912800Y-87064000I250000J0D01*
G01*
G37*
G36*
G01*
X-556912800Y-85164000D02*
X-555962800Y-85164000D01*
G75*
G02*
X-555712800Y-85414000I0J-250000D01*
G01*
X-555712800Y-85914000D01*
G75*
G02*
X-555962800Y-86164000I-250000J0D01*
G01*
X-556912800Y-86164000D01*
G75*
G02*
X-557162800Y-85914000I0J250000D01*
G01*
X-557162800Y-85414000D01*
G75*
G02*
X-556912800Y-85164000I250000J0D01*
G01*
G37*
%TD*%
%TO.C,C2*%
G36*
G01*
X-556912800Y-98824200D02*
X-555962800Y-98824200D01*
G75*
G02*
X-555712800Y-99074200I0J-250000D01*
G01*
X-555712800Y-99574200D01*
G75*
G02*
X-555962800Y-99824200I-250000J0D01*
G01*
X-556912800Y-99824200D01*
G75*
G02*
X-557162800Y-99574200I0J250000D01*
G01*
X-557162800Y-99074200D01*
G75*
G02*
X-556912800Y-98824200I250000J0D01*
G01*
G37*
G36*
G01*
X-556912800Y-96924200D02*
X-555962800Y-96924200D01*
G75*
G02*
X-555712800Y-97174200I0J-250000D01*
G01*
X-555712800Y-97674200D01*
G75*
G02*
X-555962800Y-97924200I-250000J0D01*
G01*
X-556912800Y-97924200D01*
G75*
G02*
X-557162800Y-97674200I0J250000D01*
G01*
X-557162800Y-97174200D01*
G75*
G02*
X-556912800Y-96924200I250000J0D01*
G01*
G37*
%TD*%
%TO.C,C1*%
G36*
G01*
X-542729400Y-97797200D02*
X-543679400Y-97797200D01*
G75*
G02*
X-543929400Y-97547200I0J250000D01*
G01*
X-543929400Y-97047200D01*
G75*
G02*
X-543679400Y-96797200I250000J0D01*
G01*
X-542729400Y-96797200D01*
G75*
G02*
X-542479400Y-97047200I0J-250000D01*
G01*
X-542479400Y-97547200D01*
G75*
G02*
X-542729400Y-97797200I-250000J0D01*
G01*
G37*
G36*
G01*
X-542729400Y-99697200D02*
X-543679400Y-99697200D01*
G75*
G02*
X-543929400Y-99447200I0J250000D01*
G01*
X-543929400Y-98947200D01*
G75*
G02*
X-543679400Y-98697200I250000J0D01*
G01*
X-542729400Y-98697200D01*
G75*
G02*
X-542479400Y-98947200I0J-250000D01*
G01*
X-542479400Y-99447200D01*
G75*
G02*
X-542729400Y-99697200I-250000J0D01*
G01*
G37*
%TD*%
D10*
%TO.C,MX54*%
X-388076261Y-186604698D03*
X-397890067Y-183975096D03*
D11*
X-394362702Y-180779146D03*
D12*
X-392983164Y-185289897D03*
G36*
G01*
X-396948375Y-182464710D02*
X-396948379Y-182464703D01*
G75*
G02*
X-396620299Y-180907907I942438J614358D01*
G01*
X-394977059Y-179836709D01*
G75*
G02*
X-393420263Y-180164789I614358J-942438D01*
G01*
X-393420263Y-180164789D01*
G75*
G02*
X-393748343Y-181721585I-942438J-614358D01*
G01*
X-395391583Y-182792783D01*
G75*
G02*
X-396948379Y-182464703I-614358J942438D01*
G01*
G37*
D11*
X-389214912Y-181040394D03*
G36*
G01*
X-389768071Y-182654624D02*
X-389768911Y-182654336D01*
G75*
G02*
X-390467722Y-181225031I365247J1064058D01*
G01*
X-390278970Y-180675147D01*
G75*
G02*
X-388849665Y-179976336I1064058J-365247D01*
G01*
X-388849665Y-179976336D01*
G75*
G02*
X-388150854Y-181405641I-365247J-1064058D01*
G01*
X-388339606Y-181955525D01*
G75*
G02*
X-389768911Y-182654336I-1064058J365247D01*
G01*
G37*
%TD*%
D20*
%TO.C,D37*%
G36*
X-436703335Y-67300675D02*
G01*
X-437862446Y-66990092D01*
X-437629509Y-66120759D01*
X-436470398Y-66431342D01*
X-436703335Y-67300675D01*
G37*
G36*
X-437557437Y-70488231D02*
G01*
X-438716548Y-70177648D01*
X-438483611Y-69308315D01*
X-437324500Y-69618898D01*
X-437557437Y-70488231D01*
G37*
%TD*%
D21*
%TO.C,D19*%
X-513524500Y-62675500D03*
X-513524500Y-65975500D03*
%TD*%
D12*
%TO.C,MX104*%
X-192725550Y-96393000D03*
X-216601550Y-96393000D03*
D13*
X-192725550Y-81153000D03*
X-216601550Y-81153000D03*
D10*
X-199583550Y-88138000D03*
X-209743550Y-88138000D03*
D11*
X-207163550Y-84138000D03*
D12*
X-204663550Y-88138000D03*
G36*
G01*
X-209224862Y-86435350D02*
X-209224867Y-86435345D01*
G75*
G02*
X-209310895Y-84846683I751317J837345D01*
G01*
X-208000893Y-83386683D01*
G75*
G02*
X-206412231Y-83300655I837345J-751317D01*
G01*
X-206412231Y-83300655D01*
G75*
G02*
X-206326203Y-84889317I-751317J-837345D01*
G01*
X-207636205Y-86349317D01*
G75*
G02*
X-209224867Y-86435345I-837345J751317D01*
G01*
G37*
D11*
X-202123550Y-83058000D03*
G36*
G01*
X-202240067Y-84760395D02*
X-202240953Y-84760334D01*
G75*
G02*
X-203285884Y-83560597I77403J1122334D01*
G01*
X-203245884Y-82980597D01*
G75*
G02*
X-202046147Y-81935666I1122334J-77403D01*
G01*
X-202046147Y-81935666D01*
G75*
G02*
X-201001216Y-83135403I-77403J-1122334D01*
G01*
X-201041216Y-83715403D01*
G75*
G02*
X-202240953Y-84760334I-1122334J77403D01*
G01*
G37*
%TD*%
D10*
%TO.C,MX103*%
X-190058550Y-64325500D03*
X-200218550Y-64325500D03*
D11*
X-197638550Y-60325500D03*
D12*
X-195138550Y-64325500D03*
G36*
G01*
X-199699862Y-62622850D02*
X-199699867Y-62622845D01*
G75*
G02*
X-199785895Y-61034183I751317J837345D01*
G01*
X-198475893Y-59574183D01*
G75*
G02*
X-196887231Y-59488155I837345J-751317D01*
G01*
X-196887231Y-59488155D01*
G75*
G02*
X-196801203Y-61076817I-751317J-837345D01*
G01*
X-198111205Y-62536817D01*
G75*
G02*
X-199699867Y-62622845I-837345J751317D01*
G01*
G37*
D11*
X-192598550Y-59245500D03*
G36*
G01*
X-192715067Y-60947895D02*
X-192715953Y-60947834D01*
G75*
G02*
X-193760884Y-59748097I77403J1122334D01*
G01*
X-193720884Y-59168097D01*
G75*
G02*
X-192521147Y-58123166I1122334J-77403D01*
G01*
X-192521147Y-58123166D01*
G75*
G02*
X-191476216Y-59322903I-77403J-1122334D01*
G01*
X-191516216Y-59902903D01*
G75*
G02*
X-192715953Y-60947834I-1122334J77403D01*
G01*
G37*
%TD*%
D10*
%TO.C,MX102*%
X-190058550Y-145288000D03*
X-200218550Y-145288000D03*
D11*
X-197638550Y-141288000D03*
D12*
X-195138550Y-145288000D03*
G36*
G01*
X-199699862Y-143585350D02*
X-199699867Y-143585345D01*
G75*
G02*
X-199785895Y-141996683I751317J837345D01*
G01*
X-198475893Y-140536683D01*
G75*
G02*
X-196887231Y-140450655I837345J-751317D01*
G01*
X-196887231Y-140450655D01*
G75*
G02*
X-196801203Y-142039317I-751317J-837345D01*
G01*
X-198111205Y-143499317D01*
G75*
G02*
X-199699867Y-143585345I-837345J751317D01*
G01*
G37*
D11*
X-192598550Y-140208000D03*
G36*
G01*
X-192715067Y-141910395D02*
X-192715953Y-141910334D01*
G75*
G02*
X-193760884Y-140710597I77403J1122334D01*
G01*
X-193720884Y-140130597D01*
G75*
G02*
X-192521147Y-139085666I1122334J-77403D01*
G01*
X-192521147Y-139085666D01*
G75*
G02*
X-191476216Y-140285403I-77403J-1122334D01*
G01*
X-191516216Y-140865403D01*
G75*
G02*
X-192715953Y-141910334I-1122334J77403D01*
G01*
G37*
%TD*%
D12*
%TO.C,MX101*%
X-195106800Y-134493000D03*
X-218982800Y-134493000D03*
D13*
X-195106800Y-119253000D03*
X-218982800Y-119253000D03*
D10*
X-201964800Y-126238000D03*
X-212124800Y-126238000D03*
D11*
X-209544800Y-122238000D03*
D12*
X-207044800Y-126238000D03*
G36*
G01*
X-211606112Y-124535350D02*
X-211606117Y-124535345D01*
G75*
G02*
X-211692145Y-122946683I751317J837345D01*
G01*
X-210382143Y-121486683D01*
G75*
G02*
X-208793481Y-121400655I837345J-751317D01*
G01*
X-208793481Y-121400655D01*
G75*
G02*
X-208707453Y-122989317I-751317J-837345D01*
G01*
X-210017455Y-124449317D01*
G75*
G02*
X-211606117Y-124535345I-837345J751317D01*
G01*
G37*
D11*
X-204504800Y-121158000D03*
G36*
G01*
X-204621317Y-122860395D02*
X-204622203Y-122860334D01*
G75*
G02*
X-205667134Y-121660597I77403J1122334D01*
G01*
X-205627134Y-121080597D01*
G75*
G02*
X-204427397Y-120035666I1122334J-77403D01*
G01*
X-204427397Y-120035666D01*
G75*
G02*
X-203382466Y-121235403I-77403J-1122334D01*
G01*
X-203422466Y-121815403D01*
G75*
G02*
X-204622203Y-122860334I-1122334J77403D01*
G01*
G37*
%TD*%
D10*
%TO.C,MX99*%
X-218633550Y-107188000D03*
X-228793550Y-107188000D03*
D11*
X-226213550Y-103188000D03*
D12*
X-223713550Y-107188000D03*
G36*
G01*
X-228274862Y-105485350D02*
X-228274867Y-105485345D01*
G75*
G02*
X-228360895Y-103896683I751317J837345D01*
G01*
X-227050893Y-102436683D01*
G75*
G02*
X-225462231Y-102350655I837345J-751317D01*
G01*
X-225462231Y-102350655D01*
G75*
G02*
X-225376203Y-103939317I-751317J-837345D01*
G01*
X-226686205Y-105399317D01*
G75*
G02*
X-228274867Y-105485345I-837345J751317D01*
G01*
G37*
D11*
X-221173550Y-102108000D03*
G36*
G01*
X-221290067Y-103810395D02*
X-221290953Y-103810334D01*
G75*
G02*
X-222335884Y-102610597I77403J1122334D01*
G01*
X-222295884Y-102030597D01*
G75*
G02*
X-221096147Y-100985666I1122334J-77403D01*
G01*
X-221096147Y-100985666D01*
G75*
G02*
X-220051216Y-102185403I-77403J-1122334D01*
G01*
X-220091216Y-102765403D01*
G75*
G02*
X-221290953Y-103810334I-1122334J77403D01*
G01*
G37*
%TD*%
D10*
%TO.C,MX98*%
X-228158550Y-88138000D03*
X-238318550Y-88138000D03*
D11*
X-235738550Y-84138000D03*
D12*
X-233238550Y-88138000D03*
G36*
G01*
X-237799862Y-86435350D02*
X-237799867Y-86435345D01*
G75*
G02*
X-237885895Y-84846683I751317J837345D01*
G01*
X-236575893Y-83386683D01*
G75*
G02*
X-234987231Y-83300655I837345J-751317D01*
G01*
X-234987231Y-83300655D01*
G75*
G02*
X-234901203Y-84889317I-751317J-837345D01*
G01*
X-236211205Y-86349317D01*
G75*
G02*
X-237799867Y-86435345I-837345J751317D01*
G01*
G37*
D11*
X-230698550Y-83058000D03*
G36*
G01*
X-230815067Y-84760395D02*
X-230815953Y-84760334D01*
G75*
G02*
X-231860884Y-83560597I77403J1122334D01*
G01*
X-231820884Y-82980597D01*
G75*
G02*
X-230621147Y-81935666I1122334J-77403D01*
G01*
X-230621147Y-81935666D01*
G75*
G02*
X-229576216Y-83135403I-77403J-1122334D01*
G01*
X-229616216Y-83715403D01*
G75*
G02*
X-230815953Y-84760334I-1122334J77403D01*
G01*
G37*
%TD*%
D10*
%TO.C,MX97*%
X-209108550Y-64325500D03*
X-219268550Y-64325500D03*
D11*
X-216688550Y-60325500D03*
D12*
X-214188550Y-64325500D03*
G36*
G01*
X-218749862Y-62622850D02*
X-218749867Y-62622845D01*
G75*
G02*
X-218835895Y-61034183I751317J837345D01*
G01*
X-217525893Y-59574183D01*
G75*
G02*
X-215937231Y-59488155I837345J-751317D01*
G01*
X-215937231Y-59488155D01*
G75*
G02*
X-215851203Y-61076817I-751317J-837345D01*
G01*
X-217161205Y-62536817D01*
G75*
G02*
X-218749867Y-62622845I-837345J751317D01*
G01*
G37*
D11*
X-211648550Y-59245500D03*
G36*
G01*
X-211765067Y-60947895D02*
X-211765953Y-60947834D01*
G75*
G02*
X-212810884Y-59748097I77403J1122334D01*
G01*
X-212770884Y-59168097D01*
G75*
G02*
X-211571147Y-58123166I1122334J-77403D01*
G01*
X-211571147Y-58123166D01*
G75*
G02*
X-210526216Y-59322903I-77403J-1122334D01*
G01*
X-210566216Y-59902903D01*
G75*
G02*
X-211765953Y-60947834I-1122334J77403D01*
G01*
G37*
%TD*%
D10*
%TO.C,MX96*%
X-192439800Y-164338000D03*
X-202599800Y-164338000D03*
D11*
X-200019800Y-160338000D03*
D12*
X-197519800Y-164338000D03*
G36*
G01*
X-202081112Y-162635350D02*
X-202081117Y-162635345D01*
G75*
G02*
X-202167145Y-161046683I751317J837345D01*
G01*
X-200857143Y-159586683D01*
G75*
G02*
X-199268481Y-159500655I837345J-751317D01*
G01*
X-199268481Y-159500655D01*
G75*
G02*
X-199182453Y-161089317I-751317J-837345D01*
G01*
X-200492455Y-162549317D01*
G75*
G02*
X-202081117Y-162635345I-837345J751317D01*
G01*
G37*
D11*
X-194979800Y-159258000D03*
G36*
G01*
X-195096317Y-160960395D02*
X-195097203Y-160960334D01*
G75*
G02*
X-196142134Y-159760597I77403J1122334D01*
G01*
X-196102134Y-159180597D01*
G75*
G02*
X-194902397Y-158135666I1122334J-77403D01*
G01*
X-194902397Y-158135666D01*
G75*
G02*
X-193857466Y-159335403I-77403J-1122334D01*
G01*
X-193897466Y-159915403D01*
G75*
G02*
X-195097203Y-160960334I-1122334J77403D01*
G01*
G37*
%TD*%
D10*
%TO.C,MX94*%
X-232921050Y-126238000D03*
X-243081050Y-126238000D03*
D11*
X-240501050Y-122238000D03*
D12*
X-238001050Y-126238000D03*
G36*
G01*
X-242562362Y-124535350D02*
X-242562367Y-124535345D01*
G75*
G02*
X-242648395Y-122946683I751317J837345D01*
G01*
X-241338393Y-121486683D01*
G75*
G02*
X-239749731Y-121400655I837345J-751317D01*
G01*
X-239749731Y-121400655D01*
G75*
G02*
X-239663703Y-122989317I-751317J-837345D01*
G01*
X-240973705Y-124449317D01*
G75*
G02*
X-242562367Y-124535345I-837345J751317D01*
G01*
G37*
D11*
X-235461050Y-121158000D03*
G36*
G01*
X-235577567Y-122860395D02*
X-235578453Y-122860334D01*
G75*
G02*
X-236623384Y-121660597I77403J1122334D01*
G01*
X-236583384Y-121080597D01*
G75*
G02*
X-235383647Y-120035666I1122334J-77403D01*
G01*
X-235383647Y-120035666D01*
G75*
G02*
X-234338716Y-121235403I-77403J-1122334D01*
G01*
X-234378716Y-121815403D01*
G75*
G02*
X-235578453Y-122860334I-1122334J77403D01*
G01*
G37*
%TD*%
D10*
%TO.C,MX93*%
X-237683550Y-107188000D03*
X-247843550Y-107188000D03*
D11*
X-245263550Y-103188000D03*
D12*
X-242763550Y-107188000D03*
G36*
G01*
X-247324862Y-105485350D02*
X-247324867Y-105485345D01*
G75*
G02*
X-247410895Y-103896683I751317J837345D01*
G01*
X-246100893Y-102436683D01*
G75*
G02*
X-244512231Y-102350655I837345J-751317D01*
G01*
X-244512231Y-102350655D01*
G75*
G02*
X-244426203Y-103939317I-751317J-837345D01*
G01*
X-245736205Y-105399317D01*
G75*
G02*
X-247324867Y-105485345I-837345J751317D01*
G01*
G37*
D11*
X-240223550Y-102108000D03*
G36*
G01*
X-240340067Y-103810395D02*
X-240340953Y-103810334D01*
G75*
G02*
X-241385884Y-102610597I77403J1122334D01*
G01*
X-241345884Y-102030597D01*
G75*
G02*
X-240146147Y-100985666I1122334J-77403D01*
G01*
X-240146147Y-100985666D01*
G75*
G02*
X-239101216Y-102185403I-77403J-1122334D01*
G01*
X-239141216Y-102765403D01*
G75*
G02*
X-240340953Y-103810334I-1122334J77403D01*
G01*
G37*
%TD*%
D10*
%TO.C,MX92*%
X-247208550Y-88138000D03*
X-257368550Y-88138000D03*
D11*
X-254788550Y-84138000D03*
D12*
X-252288550Y-88138000D03*
G36*
G01*
X-256849862Y-86435350D02*
X-256849867Y-86435345D01*
G75*
G02*
X-256935895Y-84846683I751317J837345D01*
G01*
X-255625893Y-83386683D01*
G75*
G02*
X-254037231Y-83300655I837345J-751317D01*
G01*
X-254037231Y-83300655D01*
G75*
G02*
X-253951203Y-84889317I-751317J-837345D01*
G01*
X-255261205Y-86349317D01*
G75*
G02*
X-256849867Y-86435345I-837345J751317D01*
G01*
G37*
D11*
X-249748550Y-83058000D03*
G36*
G01*
X-249865067Y-84760395D02*
X-249865953Y-84760334D01*
G75*
G02*
X-250910884Y-83560597I77403J1122334D01*
G01*
X-250870884Y-82980597D01*
G75*
G02*
X-249671147Y-81935666I1122334J-77403D01*
G01*
X-249671147Y-81935666D01*
G75*
G02*
X-248626216Y-83135403I-77403J-1122334D01*
G01*
X-248666216Y-83715403D01*
G75*
G02*
X-249865953Y-84760334I-1122334J77403D01*
G01*
G37*
%TD*%
D10*
%TO.C,MX91*%
X-249589800Y-64325500D03*
X-259749800Y-64325500D03*
D11*
X-257169800Y-60325500D03*
D12*
X-254669800Y-64325500D03*
G36*
G01*
X-259231112Y-62622850D02*
X-259231117Y-62622845D01*
G75*
G02*
X-259317145Y-61034183I751317J837345D01*
G01*
X-258007143Y-59574183D01*
G75*
G02*
X-256418481Y-59488155I837345J-751317D01*
G01*
X-256418481Y-59488155D01*
G75*
G02*
X-256332453Y-61076817I-751317J-837345D01*
G01*
X-257642455Y-62536817D01*
G75*
G02*
X-259231117Y-62622845I-837345J751317D01*
G01*
G37*
D11*
X-252129800Y-59245500D03*
G36*
G01*
X-252246317Y-60947895D02*
X-252247203Y-60947834D01*
G75*
G02*
X-253292134Y-59748097I77403J1122334D01*
G01*
X-253252134Y-59168097D01*
G75*
G02*
X-252052397Y-58123166I1122334J-77403D01*
G01*
X-252052397Y-58123166D01*
G75*
G02*
X-251007466Y-59322903I-77403J-1122334D01*
G01*
X-251047466Y-59902903D01*
G75*
G02*
X-252247203Y-60947834I-1122334J77403D01*
G01*
G37*
%TD*%
D10*
%TO.C,MX90*%
X-216252300Y-164338000D03*
X-226412300Y-164338000D03*
D11*
X-223832300Y-160338000D03*
D12*
X-221332300Y-164338000D03*
G36*
G01*
X-225893612Y-162635350D02*
X-225893617Y-162635345D01*
G75*
G02*
X-225979645Y-161046683I751317J837345D01*
G01*
X-224669643Y-159586683D01*
G75*
G02*
X-223080981Y-159500655I837345J-751317D01*
G01*
X-223080981Y-159500655D01*
G75*
G02*
X-222994953Y-161089317I-751317J-837345D01*
G01*
X-224304955Y-162549317D01*
G75*
G02*
X-225893617Y-162635345I-837345J751317D01*
G01*
G37*
D11*
X-218792300Y-159258000D03*
G36*
G01*
X-218908817Y-160960395D02*
X-218909703Y-160960334D01*
G75*
G02*
X-219954634Y-159760597I77403J1122334D01*
G01*
X-219914634Y-159180597D01*
G75*
G02*
X-218714897Y-158135666I1122334J-77403D01*
G01*
X-218714897Y-158135666D01*
G75*
G02*
X-217669966Y-159335403I-77403J-1122334D01*
G01*
X-217709966Y-159915403D01*
G75*
G02*
X-218909703Y-160960334I-1122334J77403D01*
G01*
G37*
%TD*%
D10*
%TO.C,MX89*%
X-251971050Y-145288000D03*
X-262131050Y-145288000D03*
D11*
X-259551050Y-141288000D03*
D12*
X-257051050Y-145288000D03*
G36*
G01*
X-261612362Y-143585350D02*
X-261612367Y-143585345D01*
G75*
G02*
X-261698395Y-141996683I751317J837345D01*
G01*
X-260388393Y-140536683D01*
G75*
G02*
X-258799731Y-140450655I837345J-751317D01*
G01*
X-258799731Y-140450655D01*
G75*
G02*
X-258713703Y-142039317I-751317J-837345D01*
G01*
X-260023705Y-143499317D01*
G75*
G02*
X-261612367Y-143585345I-837345J751317D01*
G01*
G37*
D11*
X-254511050Y-140208000D03*
G36*
G01*
X-254627567Y-141910395D02*
X-254628453Y-141910334D01*
G75*
G02*
X-255673384Y-140710597I77403J1122334D01*
G01*
X-255633384Y-140130597D01*
G75*
G02*
X-254433647Y-139085666I1122334J-77403D01*
G01*
X-254433647Y-139085666D01*
G75*
G02*
X-253388716Y-140285403I-77403J-1122334D01*
G01*
X-253428716Y-140865403D01*
G75*
G02*
X-254628453Y-141910334I-1122334J77403D01*
G01*
G37*
%TD*%
D10*
%TO.C,MX88*%
X-251971050Y-126238000D03*
X-262131050Y-126238000D03*
D11*
X-259551050Y-122238000D03*
D12*
X-257051050Y-126238000D03*
G36*
G01*
X-261612362Y-124535350D02*
X-261612367Y-124535345D01*
G75*
G02*
X-261698395Y-122946683I751317J837345D01*
G01*
X-260388393Y-121486683D01*
G75*
G02*
X-258799731Y-121400655I837345J-751317D01*
G01*
X-258799731Y-121400655D01*
G75*
G02*
X-258713703Y-122989317I-751317J-837345D01*
G01*
X-260023705Y-124449317D01*
G75*
G02*
X-261612367Y-124535345I-837345J751317D01*
G01*
G37*
D11*
X-254511050Y-121158000D03*
G36*
G01*
X-254627567Y-122860395D02*
X-254628453Y-122860334D01*
G75*
G02*
X-255673384Y-121660597I77403J1122334D01*
G01*
X-255633384Y-121080597D01*
G75*
G02*
X-254433647Y-120035666I1122334J-77403D01*
G01*
X-254433647Y-120035666D01*
G75*
G02*
X-253388716Y-121235403I-77403J-1122334D01*
G01*
X-253428716Y-121815403D01*
G75*
G02*
X-254628453Y-122860334I-1122334J77403D01*
G01*
G37*
%TD*%
D10*
%TO.C,MX87*%
X-256733550Y-107188000D03*
X-266893550Y-107188000D03*
D11*
X-264313550Y-103188000D03*
D12*
X-261813550Y-107188000D03*
G36*
G01*
X-266374862Y-105485350D02*
X-266374867Y-105485345D01*
G75*
G02*
X-266460895Y-103896683I751317J837345D01*
G01*
X-265150893Y-102436683D01*
G75*
G02*
X-263562231Y-102350655I837345J-751317D01*
G01*
X-263562231Y-102350655D01*
G75*
G02*
X-263476203Y-103939317I-751317J-837345D01*
G01*
X-264786205Y-105399317D01*
G75*
G02*
X-266374867Y-105485345I-837345J751317D01*
G01*
G37*
D11*
X-259273550Y-102108000D03*
G36*
G01*
X-259390067Y-103810395D02*
X-259390953Y-103810334D01*
G75*
G02*
X-260435884Y-102610597I77403J1122334D01*
G01*
X-260395884Y-102030597D01*
G75*
G02*
X-259196147Y-100985666I1122334J-77403D01*
G01*
X-259196147Y-100985666D01*
G75*
G02*
X-258151216Y-102185403I-77403J-1122334D01*
G01*
X-258191216Y-102765403D01*
G75*
G02*
X-259390953Y-103810334I-1122334J77403D01*
G01*
G37*
%TD*%
D10*
%TO.C,MX86*%
X-266258550Y-88138000D03*
X-276418550Y-88138000D03*
D11*
X-273838550Y-84138000D03*
D12*
X-271338550Y-88138000D03*
G36*
G01*
X-275899862Y-86435350D02*
X-275899867Y-86435345D01*
G75*
G02*
X-275985895Y-84846683I751317J837345D01*
G01*
X-274675893Y-83386683D01*
G75*
G02*
X-273087231Y-83300655I837345J-751317D01*
G01*
X-273087231Y-83300655D01*
G75*
G02*
X-273001203Y-84889317I-751317J-837345D01*
G01*
X-274311205Y-86349317D01*
G75*
G02*
X-275899867Y-86435345I-837345J751317D01*
G01*
G37*
D11*
X-268798550Y-83058000D03*
G36*
G01*
X-268915067Y-84760395D02*
X-268915953Y-84760334D01*
G75*
G02*
X-269960884Y-83560597I77403J1122334D01*
G01*
X-269920884Y-82980597D01*
G75*
G02*
X-268721147Y-81935666I1122334J-77403D01*
G01*
X-268721147Y-81935666D01*
G75*
G02*
X-267676216Y-83135403I-77403J-1122334D01*
G01*
X-267716216Y-83715403D01*
G75*
G02*
X-268915953Y-84760334I-1122334J77403D01*
G01*
G37*
%TD*%
D10*
%TO.C,MX85*%
X-268639800Y-64325500D03*
X-278799800Y-64325500D03*
D11*
X-276219800Y-60325500D03*
D12*
X-273719800Y-64325500D03*
G36*
G01*
X-278281112Y-62622850D02*
X-278281117Y-62622845D01*
G75*
G02*
X-278367145Y-61034183I751317J837345D01*
G01*
X-277057143Y-59574183D01*
G75*
G02*
X-275468481Y-59488155I837345J-751317D01*
G01*
X-275468481Y-59488155D01*
G75*
G02*
X-275382453Y-61076817I-751317J-837345D01*
G01*
X-276692455Y-62536817D01*
G75*
G02*
X-278281117Y-62622845I-837345J751317D01*
G01*
G37*
D11*
X-271179800Y-59245500D03*
G36*
G01*
X-271296317Y-60947895D02*
X-271297203Y-60947834D01*
G75*
G02*
X-272342134Y-59748097I77403J1122334D01*
G01*
X-272302134Y-59168097D01*
G75*
G02*
X-271102397Y-58123166I1122334J-77403D01*
G01*
X-271102397Y-58123166D01*
G75*
G02*
X-270057466Y-59322903I-77403J-1122334D01*
G01*
X-270097466Y-59902903D01*
G75*
G02*
X-271297203Y-60947834I-1122334J77403D01*
G01*
G37*
%TD*%
%TO.C,MX84*%
G36*
G01*
X-242721317Y-160960395D02*
X-242722203Y-160960334D01*
G75*
G02*
X-243767134Y-159760597I77403J1122334D01*
G01*
X-243727134Y-159180597D01*
G75*
G02*
X-242527397Y-158135666I1122334J-77403D01*
G01*
X-242527397Y-158135666D01*
G75*
G02*
X-241482466Y-159335403I-77403J-1122334D01*
G01*
X-241522466Y-159915403D01*
G75*
G02*
X-242722203Y-160960334I-1122334J77403D01*
G01*
G37*
X-242604800Y-159258000D03*
G36*
G01*
X-249706112Y-162635350D02*
X-249706117Y-162635345D01*
G75*
G02*
X-249792145Y-161046683I751317J837345D01*
G01*
X-248482143Y-159586683D01*
G75*
G02*
X-246893481Y-159500655I837345J-751317D01*
G01*
X-246893481Y-159500655D01*
G75*
G02*
X-246807453Y-161089317I-751317J-837345D01*
G01*
X-248117455Y-162549317D01*
G75*
G02*
X-249706117Y-162635345I-837345J751317D01*
G01*
G37*
D12*
X-245144800Y-164338000D03*
D11*
X-247644800Y-160338000D03*
D10*
X-250224800Y-164338000D03*
X-240064800Y-164338000D03*
%TD*%
%TO.C,MX83*%
X-280967215Y-145852202D03*
X-290781021Y-148481804D03*
D11*
X-289324209Y-143950347D03*
D12*
X-285874118Y-147167003D03*
G36*
G01*
X-290720685Y-146702924D02*
X-290720692Y-146702921D01*
G75*
G02*
X-291214965Y-145190656I508996J1003269D01*
G01*
X-290327477Y-143441352D01*
G75*
G02*
X-288815212Y-142947079I1003269J-508996D01*
G01*
X-288815212Y-142947079D01*
G75*
G02*
X-288320939Y-144459344I-508996J-1003269D01*
G01*
X-289208427Y-146208648D01*
G75*
G02*
X-290720692Y-146702921I-1003269J508996D01*
G01*
G37*
D11*
X-284735467Y-141602699D03*
G36*
G01*
X-284407402Y-143277243D02*
X-284408273Y-143277414D01*
G75*
G02*
X-285728114Y-142389005I-215716J1104125D01*
G01*
X-285839592Y-141818415D01*
G75*
G02*
X-284951183Y-140498574I1104125J215716D01*
G01*
X-284951183Y-140498574D01*
G75*
G02*
X-283631342Y-141386983I215716J-1104125D01*
G01*
X-283519864Y-141957573D01*
G75*
G02*
X-284408273Y-143277414I-1104125J-215716D01*
G01*
G37*
%TD*%
D10*
%TO.C,MX82*%
X-284368439Y-127044493D03*
X-294182245Y-129674095D03*
D11*
X-292725433Y-125142638D03*
D12*
X-289275342Y-128359294D03*
G36*
G01*
X-294121909Y-127895215D02*
X-294121916Y-127895212D01*
G75*
G02*
X-294616189Y-126382947I508996J1003269D01*
G01*
X-293728701Y-124633643D01*
G75*
G02*
X-292216436Y-124139370I1003269J-508996D01*
G01*
X-292216436Y-124139370D01*
G75*
G02*
X-291722163Y-125651635I-508996J-1003269D01*
G01*
X-292609651Y-127400939D01*
G75*
G02*
X-294121916Y-127895212I-1003269J508996D01*
G01*
G37*
D11*
X-288136691Y-122794990D03*
G36*
G01*
X-287808626Y-124469534D02*
X-287809497Y-124469705D01*
G75*
G02*
X-289129338Y-123581296I-215716J1104125D01*
G01*
X-289240816Y-123010706D01*
G75*
G02*
X-288352407Y-121690865I1104125J215716D01*
G01*
X-288352407Y-121690865D01*
G75*
G02*
X-287032566Y-122579274I215716J-1104125D01*
G01*
X-286921088Y-123149864D01*
G75*
G02*
X-287809497Y-124469705I-1104125J-215716D01*
G01*
G37*
%TD*%
D10*
%TO.C,MX81*%
X-287822839Y-108248493D03*
X-297636645Y-110878095D03*
D11*
X-296179833Y-106346638D03*
D12*
X-292729742Y-109563294D03*
G36*
G01*
X-297576309Y-109099215D02*
X-297576316Y-109099212D01*
G75*
G02*
X-298070589Y-107586947I508996J1003269D01*
G01*
X-297183101Y-105837643D01*
G75*
G02*
X-295670836Y-105343370I1003269J-508996D01*
G01*
X-295670836Y-105343370D01*
G75*
G02*
X-295176563Y-106855635I-508996J-1003269D01*
G01*
X-296064051Y-108604939D01*
G75*
G02*
X-297576316Y-109099212I-1003269J508996D01*
G01*
G37*
D11*
X-291591091Y-103998990D03*
G36*
G01*
X-291263026Y-105673534D02*
X-291263897Y-105673705D01*
G75*
G02*
X-292583738Y-104785296I-215716J1104125D01*
G01*
X-292695216Y-104214706D01*
G75*
G02*
X-291806807Y-102894865I1104125J215716D01*
G01*
X-291806807Y-102894865D01*
G75*
G02*
X-290486966Y-103783274I215716J-1104125D01*
G01*
X-290375488Y-104353864D01*
G75*
G02*
X-291263897Y-105673705I-1104125J-215716D01*
G01*
G37*
%TD*%
D10*
%TO.C,MX80*%
X-291277239Y-89427093D03*
X-301091045Y-92056695D03*
D11*
X-299634233Y-87525238D03*
D12*
X-296184142Y-90741894D03*
G36*
G01*
X-301030709Y-90277815D02*
X-301030716Y-90277812D01*
G75*
G02*
X-301524989Y-88765547I508996J1003269D01*
G01*
X-300637501Y-87016243D01*
G75*
G02*
X-299125236Y-86521970I1003269J-508996D01*
G01*
X-299125236Y-86521970D01*
G75*
G02*
X-298630963Y-88034235I-508996J-1003269D01*
G01*
X-299518451Y-89783539D01*
G75*
G02*
X-301030716Y-90277812I-1003269J508996D01*
G01*
G37*
D11*
X-295045491Y-85177590D03*
G36*
G01*
X-294717426Y-86852134D02*
X-294718297Y-86852305D01*
G75*
G02*
X-296038138Y-85963896I-215716J1104125D01*
G01*
X-296149616Y-85393306D01*
G75*
G02*
X-295261207Y-84073465I1104125J215716D01*
G01*
X-295261207Y-84073465D01*
G75*
G02*
X-293941366Y-84961874I215716J-1104125D01*
G01*
X-293829888Y-85532464D01*
G75*
G02*
X-294718297Y-86852305I-1104125J-215716D01*
G01*
G37*
%TD*%
D10*
%TO.C,MX79*%
X-296336889Y-65350293D03*
X-306150695Y-67979895D03*
D11*
X-304693883Y-63448438D03*
D12*
X-301243792Y-66665094D03*
G36*
G01*
X-306090359Y-66201015D02*
X-306090366Y-66201012D01*
G75*
G02*
X-306584639Y-64688747I508996J1003269D01*
G01*
X-305697151Y-62939443D01*
G75*
G02*
X-304184886Y-62445170I1003269J-508996D01*
G01*
X-304184886Y-62445170D01*
G75*
G02*
X-303690613Y-63957435I-508996J-1003269D01*
G01*
X-304578101Y-65706739D01*
G75*
G02*
X-306090366Y-66201012I-1003269J508996D01*
G01*
G37*
D11*
X-300105141Y-61100790D03*
G36*
G01*
X-299777076Y-62775334D02*
X-299777947Y-62775505D01*
G75*
G02*
X-301097788Y-61887096I-215716J1104125D01*
G01*
X-301209266Y-61316506D01*
G75*
G02*
X-300320857Y-59996665I1104125J215716D01*
G01*
X-300320857Y-59996665D01*
G75*
G02*
X-299001016Y-60885074I215716J-1104125D01*
G01*
X-298889538Y-61455664D01*
G75*
G02*
X-299777947Y-62775505I-1104125J-215716D01*
G01*
G37*
%TD*%
D10*
%TO.C,MX78*%
X-296737710Y-169799903D03*
X-306551516Y-172429505D03*
D11*
X-305094704Y-167898048D03*
D12*
X-301644613Y-171114704D03*
G36*
G01*
X-306491180Y-170650625D02*
X-306491187Y-170650622D01*
G75*
G02*
X-306985460Y-169138357I508996J1003269D01*
G01*
X-306097972Y-167389053D01*
G75*
G02*
X-304585707Y-166894780I1003269J-508996D01*
G01*
X-304585707Y-166894780D01*
G75*
G02*
X-304091434Y-168407045I-508996J-1003269D01*
G01*
X-304978922Y-170156349D01*
G75*
G02*
X-306491187Y-170650622I-1003269J508996D01*
G01*
G37*
D11*
X-300505962Y-165550400D03*
G36*
G01*
X-300177897Y-167224944D02*
X-300178768Y-167225115D01*
G75*
G02*
X-301498609Y-166336706I-215716J1104125D01*
G01*
X-301610087Y-165766116D01*
G75*
G02*
X-300721678Y-164446275I1104125J215716D01*
G01*
X-300721678Y-164446275D01*
G75*
G02*
X-299401837Y-165334684I215716J-1104125D01*
G01*
X-299290359Y-165905274D01*
G75*
G02*
X-300178768Y-167225115I-1104125J-215716D01*
G01*
G37*
%TD*%
D10*
%TO.C,MX77*%
X-299368101Y-150782704D03*
X-309181907Y-153412306D03*
D11*
X-307725095Y-148880849D03*
D12*
X-304275004Y-152097505D03*
G36*
G01*
X-309121571Y-151633426D02*
X-309121578Y-151633423D01*
G75*
G02*
X-309615851Y-150121158I508996J1003269D01*
G01*
X-308728363Y-148371854D01*
G75*
G02*
X-307216098Y-147877581I1003269J-508996D01*
G01*
X-307216098Y-147877581D01*
G75*
G02*
X-306721825Y-149389846I-508996J-1003269D01*
G01*
X-307609313Y-151139150D01*
G75*
G02*
X-309121578Y-151633423I-1003269J508996D01*
G01*
G37*
D11*
X-303136353Y-146533201D03*
G36*
G01*
X-302808288Y-148207745D02*
X-302809159Y-148207916D01*
G75*
G02*
X-304129000Y-147319507I-215716J1104125D01*
G01*
X-304240478Y-146748917D01*
G75*
G02*
X-303352069Y-145429076I1104125J215716D01*
G01*
X-303352069Y-145429076D01*
G75*
G02*
X-302032228Y-146317485I215716J-1104125D01*
G01*
X-301920750Y-146888075D01*
G75*
G02*
X-302809159Y-148207916I-1104125J-215716D01*
G01*
G37*
%TD*%
D10*
%TO.C,MX76*%
X-302769325Y-131974995D03*
X-312583131Y-134604597D03*
D11*
X-311126319Y-130073140D03*
D12*
X-307676228Y-133289796D03*
G36*
G01*
X-312522795Y-132825717D02*
X-312522802Y-132825714D01*
G75*
G02*
X-313017075Y-131313449I508996J1003269D01*
G01*
X-312129587Y-129564145D01*
G75*
G02*
X-310617322Y-129069872I1003269J-508996D01*
G01*
X-310617322Y-129069872D01*
G75*
G02*
X-310123049Y-130582137I-508996J-1003269D01*
G01*
X-311010537Y-132331441D01*
G75*
G02*
X-312522802Y-132825714I-1003269J508996D01*
G01*
G37*
D11*
X-306537577Y-127725492D03*
G36*
G01*
X-306209512Y-129400036D02*
X-306210383Y-129400207D01*
G75*
G02*
X-307530224Y-128511798I-215716J1104125D01*
G01*
X-307641702Y-127941208D01*
G75*
G02*
X-306753293Y-126621367I1104125J215716D01*
G01*
X-306753293Y-126621367D01*
G75*
G02*
X-305433452Y-127509776I215716J-1104125D01*
G01*
X-305321974Y-128080366D01*
G75*
G02*
X-306210383Y-129400207I-1104125J-215716D01*
G01*
G37*
%TD*%
D10*
%TO.C,MX75*%
X-306223725Y-113178995D03*
X-316037531Y-115808597D03*
D11*
X-314580719Y-111277140D03*
D12*
X-311130628Y-114493796D03*
G36*
G01*
X-315977195Y-114029717D02*
X-315977202Y-114029714D01*
G75*
G02*
X-316471475Y-112517449I508996J1003269D01*
G01*
X-315583987Y-110768145D01*
G75*
G02*
X-314071722Y-110273872I1003269J-508996D01*
G01*
X-314071722Y-110273872D01*
G75*
G02*
X-313577449Y-111786137I-508996J-1003269D01*
G01*
X-314464937Y-113535441D01*
G75*
G02*
X-315977202Y-114029714I-1003269J508996D01*
G01*
G37*
D11*
X-309991977Y-108929492D03*
G36*
G01*
X-309663912Y-110604036D02*
X-309664783Y-110604207D01*
G75*
G02*
X-310984624Y-109715798I-215716J1104125D01*
G01*
X-311096102Y-109145208D01*
G75*
G02*
X-310207693Y-107825367I1104125J215716D01*
G01*
X-310207693Y-107825367D01*
G75*
G02*
X-308887852Y-108713776I215716J-1104125D01*
G01*
X-308776374Y-109284366D01*
G75*
G02*
X-309664783Y-110604207I-1104125J-215716D01*
G01*
G37*
%TD*%
D10*
%TO.C,MX74*%
X-309678125Y-94357595D03*
X-319491931Y-96987197D03*
D11*
X-318035119Y-92455740D03*
D12*
X-314585028Y-95672396D03*
G36*
G01*
X-319431595Y-95208317D02*
X-319431602Y-95208314D01*
G75*
G02*
X-319925875Y-93696049I508996J1003269D01*
G01*
X-319038387Y-91946745D01*
G75*
G02*
X-317526122Y-91452472I1003269J-508996D01*
G01*
X-317526122Y-91452472D01*
G75*
G02*
X-317031849Y-92964737I-508996J-1003269D01*
G01*
X-317919337Y-94714041D01*
G75*
G02*
X-319431602Y-95208314I-1003269J508996D01*
G01*
G37*
D11*
X-313446377Y-90108092D03*
G36*
G01*
X-313118312Y-91782636D02*
X-313119183Y-91782807D01*
G75*
G02*
X-314439024Y-90894398I-215716J1104125D01*
G01*
X-314550502Y-90323808D01*
G75*
G02*
X-313662093Y-89003967I1104125J215716D01*
G01*
X-313662093Y-89003967D01*
G75*
G02*
X-312342252Y-89892376I215716J-1104125D01*
G01*
X-312230774Y-90462966D01*
G75*
G02*
X-313119183Y-91782807I-1104125J-215716D01*
G01*
G37*
%TD*%
D10*
%TO.C,MX73*%
X-314737775Y-70280795D03*
X-324551581Y-72910397D03*
D11*
X-323094769Y-68378940D03*
D12*
X-319644678Y-71595596D03*
G36*
G01*
X-324491245Y-71131517D02*
X-324491252Y-71131514D01*
G75*
G02*
X-324985525Y-69619249I508996J1003269D01*
G01*
X-324098037Y-67869945D01*
G75*
G02*
X-322585772Y-67375672I1003269J-508996D01*
G01*
X-322585772Y-67375672D01*
G75*
G02*
X-322091499Y-68887937I-508996J-1003269D01*
G01*
X-322978987Y-70637241D01*
G75*
G02*
X-324491252Y-71131514I-1003269J508996D01*
G01*
G37*
D11*
X-318506027Y-66031292D03*
G36*
G01*
X-318177962Y-67705836D02*
X-318178833Y-67706007D01*
G75*
G02*
X-319498674Y-66817598I-215716J1104125D01*
G01*
X-319610152Y-66247008D01*
G75*
G02*
X-318721743Y-64927167I1104125J215716D01*
G01*
X-318721743Y-64927167D01*
G75*
G02*
X-317401902Y-65815576I215716J-1104125D01*
G01*
X-317290424Y-66386166D01*
G75*
G02*
X-318178833Y-67706007I-1104125J-215716D01*
G01*
G37*
%TD*%
D10*
%TO.C,MX71*%
X-317768987Y-155713206D03*
X-327582793Y-158342808D03*
D11*
X-326125981Y-153811351D03*
D12*
X-322675890Y-157028007D03*
G36*
G01*
X-327522457Y-156563928D02*
X-327522464Y-156563925D01*
G75*
G02*
X-328016737Y-155051660I508996J1003269D01*
G01*
X-327129249Y-153302356D01*
G75*
G02*
X-325616984Y-152808083I1003269J-508996D01*
G01*
X-325616984Y-152808083D01*
G75*
G02*
X-325122711Y-154320348I-508996J-1003269D01*
G01*
X-326010199Y-156069652D01*
G75*
G02*
X-327522464Y-156563925I-1003269J508996D01*
G01*
G37*
D11*
X-321537239Y-151463703D03*
G36*
G01*
X-321209174Y-153138247D02*
X-321210045Y-153138418D01*
G75*
G02*
X-322529886Y-152250009I-215716J1104125D01*
G01*
X-322641364Y-151679419D01*
G75*
G02*
X-321752955Y-150359578I1104125J215716D01*
G01*
X-321752955Y-150359578D01*
G75*
G02*
X-320433114Y-151247987I215716J-1104125D01*
G01*
X-320321636Y-151818577D01*
G75*
G02*
X-321210045Y-153138418I-1104125J-215716D01*
G01*
G37*
%TD*%
D10*
%TO.C,MX70*%
X-321170211Y-136905497D03*
X-330984017Y-139535099D03*
D11*
X-329527205Y-135003642D03*
D12*
X-326077114Y-138220298D03*
G36*
G01*
X-330923681Y-137756219D02*
X-330923688Y-137756216D01*
G75*
G02*
X-331417961Y-136243951I508996J1003269D01*
G01*
X-330530473Y-134494647D01*
G75*
G02*
X-329018208Y-134000374I1003269J-508996D01*
G01*
X-329018208Y-134000374D01*
G75*
G02*
X-328523935Y-135512639I-508996J-1003269D01*
G01*
X-329411423Y-137261943D01*
G75*
G02*
X-330923688Y-137756216I-1003269J508996D01*
G01*
G37*
D11*
X-324938463Y-132655994D03*
G36*
G01*
X-324610398Y-134330538D02*
X-324611269Y-134330709D01*
G75*
G02*
X-325931110Y-133442300I-215716J1104125D01*
G01*
X-326042588Y-132871710D01*
G75*
G02*
X-325154179Y-131551869I1104125J215716D01*
G01*
X-325154179Y-131551869D01*
G75*
G02*
X-323834338Y-132440278I215716J-1104125D01*
G01*
X-323722860Y-133010868D01*
G75*
G02*
X-324611269Y-134330709I-1104125J-215716D01*
G01*
G37*
%TD*%
D10*
%TO.C,MX69*%
X-324624611Y-118109497D03*
X-334438417Y-120739099D03*
D11*
X-332981605Y-116207642D03*
D12*
X-329531514Y-119424298D03*
G36*
G01*
X-334378081Y-118960219D02*
X-334378088Y-118960216D01*
G75*
G02*
X-334872361Y-117447951I508996J1003269D01*
G01*
X-333984873Y-115698647D01*
G75*
G02*
X-332472608Y-115204374I1003269J-508996D01*
G01*
X-332472608Y-115204374D01*
G75*
G02*
X-331978335Y-116716639I-508996J-1003269D01*
G01*
X-332865823Y-118465943D01*
G75*
G02*
X-334378088Y-118960216I-1003269J508996D01*
G01*
G37*
D11*
X-328392863Y-113859994D03*
G36*
G01*
X-328064798Y-115534538D02*
X-328065669Y-115534709D01*
G75*
G02*
X-329385510Y-114646300I-215716J1104125D01*
G01*
X-329496988Y-114075710D01*
G75*
G02*
X-328608579Y-112755869I1104125J215716D01*
G01*
X-328608579Y-112755869D01*
G75*
G02*
X-327288738Y-113644278I215716J-1104125D01*
G01*
X-327177260Y-114214868D01*
G75*
G02*
X-328065669Y-115534709I-1104125J-215716D01*
G01*
G37*
%TD*%
D10*
%TO.C,MX68*%
X-328079011Y-99288097D03*
X-337892817Y-101917699D03*
D11*
X-336436005Y-97386242D03*
D12*
X-332985914Y-100602898D03*
G36*
G01*
X-337832481Y-100138819D02*
X-337832488Y-100138816D01*
G75*
G02*
X-338326761Y-98626551I508996J1003269D01*
G01*
X-337439273Y-96877247D01*
G75*
G02*
X-335927008Y-96382974I1003269J-508996D01*
G01*
X-335927008Y-96382974D01*
G75*
G02*
X-335432735Y-97895239I-508996J-1003269D01*
G01*
X-336320223Y-99644543D01*
G75*
G02*
X-337832488Y-100138816I-1003269J508996D01*
G01*
G37*
D11*
X-331847263Y-95038594D03*
G36*
G01*
X-331519198Y-96713138D02*
X-331520069Y-96713309D01*
G75*
G02*
X-332839910Y-95824900I-215716J1104125D01*
G01*
X-332951388Y-95254310D01*
G75*
G02*
X-332062979Y-93934469I1104125J215716D01*
G01*
X-332062979Y-93934469D01*
G75*
G02*
X-330743138Y-94822878I215716J-1104125D01*
G01*
X-330631660Y-95393468D01*
G75*
G02*
X-331520069Y-96713309I-1104125J-215716D01*
G01*
G37*
%TD*%
D10*
%TO.C,MX67*%
X-333138661Y-75211297D03*
X-342952467Y-77840899D03*
D11*
X-341495655Y-73309442D03*
D12*
X-338045564Y-76526098D03*
G36*
G01*
X-342892131Y-76062019D02*
X-342892138Y-76062016D01*
G75*
G02*
X-343386411Y-74549751I508996J1003269D01*
G01*
X-342498923Y-72800447D01*
G75*
G02*
X-340986658Y-72306174I1003269J-508996D01*
G01*
X-340986658Y-72306174D01*
G75*
G02*
X-340492385Y-73818439I-508996J-1003269D01*
G01*
X-341379873Y-75567743D01*
G75*
G02*
X-342892138Y-76062016I-1003269J508996D01*
G01*
G37*
D11*
X-336906913Y-70961794D03*
G36*
G01*
X-336578848Y-72636338D02*
X-336579719Y-72636509D01*
G75*
G02*
X-337899560Y-71748100I-215716J1104125D01*
G01*
X-338011038Y-71177510D01*
G75*
G02*
X-337122629Y-69857669I1104125J215716D01*
G01*
X-337122629Y-69857669D01*
G75*
G02*
X-335802788Y-70746078I215716J-1104125D01*
G01*
X-335691310Y-71316668D01*
G75*
G02*
X-336579719Y-72636509I-1104125J-215716D01*
G01*
G37*
%TD*%
D10*
%TO.C,MX66*%
X-354570759Y-165574210D03*
X-364384565Y-168203812D03*
D11*
X-362927753Y-163672355D03*
D12*
X-359477662Y-166889011D03*
G36*
G01*
X-364324229Y-166424932D02*
X-364324236Y-166424929D01*
G75*
G02*
X-364818509Y-164912664I508996J1003269D01*
G01*
X-363931021Y-163163360D01*
G75*
G02*
X-362418756Y-162669087I1003269J-508996D01*
G01*
X-362418756Y-162669087D01*
G75*
G02*
X-361924483Y-164181352I-508996J-1003269D01*
G01*
X-362811971Y-165930656D01*
G75*
G02*
X-364324236Y-166424929I-1003269J508996D01*
G01*
G37*
D11*
X-358339011Y-161324707D03*
G36*
G01*
X-358010946Y-162999251D02*
X-358011817Y-162999422D01*
G75*
G02*
X-359331658Y-162111013I-215716J1104125D01*
G01*
X-359443136Y-161540423D01*
G75*
G02*
X-358554727Y-160220582I1104125J215716D01*
G01*
X-358554727Y-160220582D01*
G75*
G02*
X-357234886Y-161108991I215716J-1104125D01*
G01*
X-357123408Y-161679581D01*
G75*
G02*
X-358011817Y-162999422I-1104125J-215716D01*
G01*
G37*
%TD*%
D10*
%TO.C,MX65*%
X-336169873Y-160643708D03*
X-345983679Y-163273310D03*
D11*
X-344526867Y-158741853D03*
D12*
X-341076776Y-161958509D03*
G36*
G01*
X-345923343Y-161494430D02*
X-345923350Y-161494427D01*
G75*
G02*
X-346417623Y-159982162I508996J1003269D01*
G01*
X-345530135Y-158232858D01*
G75*
G02*
X-344017870Y-157738585I1003269J-508996D01*
G01*
X-344017870Y-157738585D01*
G75*
G02*
X-343523597Y-159250850I-508996J-1003269D01*
G01*
X-344411085Y-161000154D01*
G75*
G02*
X-345923350Y-161494427I-1003269J508996D01*
G01*
G37*
D11*
X-339938125Y-156394205D03*
G36*
G01*
X-339610060Y-158068749D02*
X-339610931Y-158068920D01*
G75*
G02*
X-340930772Y-157180511I-215716J1104125D01*
G01*
X-341042250Y-156609921D01*
G75*
G02*
X-340153841Y-155290080I1104125J215716D01*
G01*
X-340153841Y-155290080D01*
G75*
G02*
X-338834000Y-156178489I215716J-1104125D01*
G01*
X-338722522Y-156749079D01*
G75*
G02*
X-339610931Y-158068920I-1104125J-215716D01*
G01*
G37*
%TD*%
%TO.C,MX64*%
G36*
G01*
X-343011284Y-139261040D02*
X-343012155Y-139261211D01*
G75*
G02*
X-344331996Y-138372802I-215716J1104125D01*
G01*
X-344443474Y-137802212D01*
G75*
G02*
X-343555065Y-136482371I1104125J215716D01*
G01*
X-343555065Y-136482371D01*
G75*
G02*
X-342235224Y-137370780I215716J-1104125D01*
G01*
X-342123746Y-137941370D01*
G75*
G02*
X-343012155Y-139261211I-1104125J-215716D01*
G01*
G37*
X-343339349Y-137586496D03*
G36*
G01*
X-349324567Y-142686721D02*
X-349324574Y-142686718D01*
G75*
G02*
X-349818847Y-141174453I508996J1003269D01*
G01*
X-348931359Y-139425149D01*
G75*
G02*
X-347419094Y-138930876I1003269J-508996D01*
G01*
X-347419094Y-138930876D01*
G75*
G02*
X-346924821Y-140443141I-508996J-1003269D01*
G01*
X-347812309Y-142192445D01*
G75*
G02*
X-349324574Y-142686718I-1003269J508996D01*
G01*
G37*
D12*
X-344478000Y-143150800D03*
D11*
X-347928091Y-139934144D03*
D10*
X-349384903Y-144465601D03*
X-339571097Y-141835999D03*
%TD*%
%TO.C,MX63*%
G36*
G01*
X-346465684Y-120465040D02*
X-346466555Y-120465211D01*
G75*
G02*
X-347786396Y-119576802I-215716J1104125D01*
G01*
X-347897874Y-119006212D01*
G75*
G02*
X-347009465Y-117686371I1104125J215716D01*
G01*
X-347009465Y-117686371D01*
G75*
G02*
X-345689624Y-118574780I215716J-1104125D01*
G01*
X-345578146Y-119145370D01*
G75*
G02*
X-346466555Y-120465211I-1104125J-215716D01*
G01*
G37*
D11*
X-346793749Y-118790496D03*
G36*
G01*
X-352778967Y-123890721D02*
X-352778974Y-123890718D01*
G75*
G02*
X-353273247Y-122378453I508996J1003269D01*
G01*
X-352385759Y-120629149D01*
G75*
G02*
X-350873494Y-120134876I1003269J-508996D01*
G01*
X-350873494Y-120134876D01*
G75*
G02*
X-350379221Y-121647141I-508996J-1003269D01*
G01*
X-351266709Y-123396445D01*
G75*
G02*
X-352778974Y-123890718I-1003269J508996D01*
G01*
G37*
D12*
X-347932400Y-124354800D03*
D11*
X-351382491Y-121138144D03*
D10*
X-352839303Y-125669601D03*
X-343025497Y-123039999D03*
%TD*%
%TO.C,MX62*%
X-346479897Y-104218599D03*
X-356293703Y-106848201D03*
D11*
X-354836891Y-102316744D03*
D12*
X-351386800Y-105533400D03*
G36*
G01*
X-356233367Y-105069321D02*
X-356233374Y-105069318D01*
G75*
G02*
X-356727647Y-103557053I508996J1003269D01*
G01*
X-355840159Y-101807749D01*
G75*
G02*
X-354327894Y-101313476I1003269J-508996D01*
G01*
X-354327894Y-101313476D01*
G75*
G02*
X-353833621Y-102825741I-508996J-1003269D01*
G01*
X-354721109Y-104575045D01*
G75*
G02*
X-356233374Y-105069318I-1003269J508996D01*
G01*
G37*
D11*
X-350248149Y-99969096D03*
G36*
G01*
X-349920084Y-101643640D02*
X-349920955Y-101643811D01*
G75*
G02*
X-351240796Y-100755402I-215716J1104125D01*
G01*
X-351352274Y-100184812D01*
G75*
G02*
X-350463865Y-98864971I1104125J215716D01*
G01*
X-350463865Y-98864971D01*
G75*
G02*
X-349144024Y-99753380I215716J-1104125D01*
G01*
X-349032546Y-100323970D01*
G75*
G02*
X-349920955Y-101643811I-1104125J-215716D01*
G01*
G37*
%TD*%
D10*
%TO.C,MX61*%
X-351539547Y-80141799D03*
X-361353353Y-82771401D03*
D11*
X-359896541Y-78239944D03*
D12*
X-356446450Y-81456600D03*
G36*
G01*
X-361293017Y-80992521D02*
X-361293024Y-80992518D01*
G75*
G02*
X-361787297Y-79480253I508996J1003269D01*
G01*
X-360899809Y-77730949D01*
G75*
G02*
X-359387544Y-77236676I1003269J-508996D01*
G01*
X-359387544Y-77236676D01*
G75*
G02*
X-358893271Y-78748941I-508996J-1003269D01*
G01*
X-359780759Y-80498245D01*
G75*
G02*
X-361293024Y-80992518I-1003269J508996D01*
G01*
G37*
D11*
X-355307799Y-75892296D03*
G36*
G01*
X-354979734Y-77566840D02*
X-354980605Y-77567011D01*
G75*
G02*
X-356300446Y-76678602I-215716J1104125D01*
G01*
X-356411924Y-76108012D01*
G75*
G02*
X-355523515Y-74788171I1104125J215716D01*
G01*
X-355523515Y-74788171D01*
G75*
G02*
X-354203674Y-75676580I215716J-1104125D01*
G01*
X-354092196Y-76247170D01*
G75*
G02*
X-354980605Y-77567011I-1104125J-215716D01*
G01*
G37*
%TD*%
D10*
%TO.C,MX60*%
X-383145759Y-168203812D03*
X-392959565Y-165574210D03*
D11*
X-389432200Y-162378260D03*
D12*
X-388052662Y-166889011D03*
G36*
G01*
X-392017873Y-164063824D02*
X-392017877Y-164063817D01*
G75*
G02*
X-391689797Y-162507021I942438J614358D01*
G01*
X-390046557Y-161435823D01*
G75*
G02*
X-388489761Y-161763903I614358J-942438D01*
G01*
X-388489761Y-161763903D01*
G75*
G02*
X-388817841Y-163320699I-942438J-614358D01*
G01*
X-390461081Y-164391897D01*
G75*
G02*
X-392017877Y-164063817I-614358J942438D01*
G01*
G37*
D11*
X-384284410Y-162639508D03*
G36*
G01*
X-384837569Y-164253738D02*
X-384838409Y-164253450D01*
G75*
G02*
X-385537220Y-162824145I365247J1064058D01*
G01*
X-385348468Y-162274261D01*
G75*
G02*
X-383919163Y-161575450I1064058J-365247D01*
G01*
X-383919163Y-161575450D01*
G75*
G02*
X-383220352Y-163004755I-365247J-1064058D01*
G01*
X-383409104Y-163554639D01*
G75*
G02*
X-384838409Y-164253450I-1064058J365247D01*
G01*
G37*
%TD*%
D10*
%TO.C,MX59*%
X-401546645Y-163273310D03*
X-411360451Y-160643708D03*
D11*
X-407833086Y-157447758D03*
D12*
X-406453548Y-161958509D03*
G36*
G01*
X-410418759Y-159133322D02*
X-410418763Y-159133315D01*
G75*
G02*
X-410090683Y-157576519I942438J614358D01*
G01*
X-408447443Y-156505321D01*
G75*
G02*
X-406890647Y-156833401I614358J-942438D01*
G01*
X-406890647Y-156833401D01*
G75*
G02*
X-407218727Y-158390197I-942438J-614358D01*
G01*
X-408861967Y-159461395D01*
G75*
G02*
X-410418763Y-159133315I-614358J942438D01*
G01*
G37*
D11*
X-402685296Y-157709006D03*
G36*
G01*
X-403238455Y-159323236D02*
X-403239295Y-159322948D01*
G75*
G02*
X-403938106Y-157893643I365247J1064058D01*
G01*
X-403749354Y-157343759D01*
G75*
G02*
X-402320049Y-156644948I1064058J-365247D01*
G01*
X-402320049Y-156644948D01*
G75*
G02*
X-401621238Y-158074253I-365247J-1064058D01*
G01*
X-401809990Y-158624137D01*
G75*
G02*
X-403239295Y-159322948I-1064058J365247D01*
G01*
G37*
%TD*%
D10*
%TO.C,MX58*%
X-398059439Y-144495307D03*
X-407873245Y-141865705D03*
D11*
X-404345880Y-138669755D03*
D12*
X-402966342Y-143180506D03*
G36*
G01*
X-406931553Y-140355319D02*
X-406931557Y-140355312D01*
G75*
G02*
X-406603477Y-138798516I942438J614358D01*
G01*
X-404960237Y-137727318D01*
G75*
G02*
X-403403441Y-138055398I614358J-942438D01*
G01*
X-403403441Y-138055398D01*
G75*
G02*
X-403731521Y-139612194I-942438J-614358D01*
G01*
X-405374761Y-140683392D01*
G75*
G02*
X-406931557Y-140355312I-614358J942438D01*
G01*
G37*
D11*
X-399198090Y-138931003D03*
G36*
G01*
X-399751249Y-140545233D02*
X-399752089Y-140544945D01*
G75*
G02*
X-400450900Y-139115640I365247J1064058D01*
G01*
X-400262148Y-138565756D01*
G75*
G02*
X-398832843Y-137866945I1064058J-365247D01*
G01*
X-398832843Y-137866945D01*
G75*
G02*
X-398134032Y-139296250I-365247J-1064058D01*
G01*
X-398322784Y-139846134D01*
G75*
G02*
X-399752089Y-140544945I-1064058J365247D01*
G01*
G37*
%TD*%
D10*
%TO.C,MX57*%
X-394871202Y-125572307D03*
X-404685008Y-122942705D03*
D11*
X-401157643Y-119746755D03*
D12*
X-399778105Y-124257506D03*
G36*
G01*
X-403743316Y-121432319D02*
X-403743320Y-121432312D01*
G75*
G02*
X-403415240Y-119875516I942438J614358D01*
G01*
X-401772000Y-118804318D01*
G75*
G02*
X-400215204Y-119132398I614358J-942438D01*
G01*
X-400215204Y-119132398D01*
G75*
G02*
X-400543284Y-120689194I-942438J-614358D01*
G01*
X-402186524Y-121760392D01*
G75*
G02*
X-403743320Y-121432312I-614358J942438D01*
G01*
G37*
D11*
X-396009853Y-120008003D03*
G36*
G01*
X-396563012Y-121622233D02*
X-396563852Y-121621945D01*
G75*
G02*
X-397262663Y-120192640I365247J1064058D01*
G01*
X-397073911Y-119642756D01*
G75*
G02*
X-395644606Y-118943945I1064058J-365247D01*
G01*
X-395644606Y-118943945D01*
G75*
G02*
X-394945795Y-120373250I-365247J-1064058D01*
G01*
X-395134547Y-120923134D01*
G75*
G02*
X-396563852Y-121621945I-1064058J365247D01*
G01*
G37*
%TD*%
D10*
%TO.C,MX56*%
X-391563205Y-106759304D03*
X-401377011Y-104129702D03*
D11*
X-397849646Y-100933752D03*
D12*
X-396470108Y-105444503D03*
G36*
G01*
X-400435319Y-102619316D02*
X-400435323Y-102619309D01*
G75*
G02*
X-400107243Y-101062513I942438J614358D01*
G01*
X-398464003Y-99991315D01*
G75*
G02*
X-396907207Y-100319395I614358J-942438D01*
G01*
X-396907207Y-100319395D01*
G75*
G02*
X-397235287Y-101876191I-942438J-614358D01*
G01*
X-398878527Y-102947389D01*
G75*
G02*
X-400435323Y-102619309I-614358J942438D01*
G01*
G37*
D11*
X-392701856Y-101195000D03*
G36*
G01*
X-393255015Y-102809230D02*
X-393255855Y-102808942D01*
G75*
G02*
X-393954666Y-101379637I365247J1064058D01*
G01*
X-393765914Y-100829753D01*
G75*
G02*
X-392336609Y-100130942I1064058J-365247D01*
G01*
X-392336609Y-100130942D01*
G75*
G02*
X-391637798Y-101560247I-365247J-1064058D01*
G01*
X-391826550Y-102110131D01*
G75*
G02*
X-393255855Y-102808942I-1064058J365247D01*
G01*
G37*
%TD*%
D10*
%TO.C,MX55*%
X-386864205Y-82756804D03*
X-396678011Y-80127202D03*
D11*
X-393150646Y-76931252D03*
D12*
X-391771108Y-81442003D03*
G36*
G01*
X-395736319Y-78616816D02*
X-395736323Y-78616809D01*
G75*
G02*
X-395408243Y-77060013I942438J614358D01*
G01*
X-393765003Y-75988815D01*
G75*
G02*
X-392208207Y-76316895I614358J-942438D01*
G01*
X-392208207Y-76316895D01*
G75*
G02*
X-392536287Y-77873691I-942438J-614358D01*
G01*
X-394179527Y-78944889D01*
G75*
G02*
X-395736323Y-78616809I-614358J942438D01*
G01*
G37*
D11*
X-388002856Y-77192500D03*
G36*
G01*
X-388556015Y-78806730D02*
X-388556855Y-78806442D01*
G75*
G02*
X-389255666Y-77377137I365247J1064058D01*
G01*
X-389066914Y-76827253D01*
G75*
G02*
X-387637609Y-76128442I1064058J-365247D01*
G01*
X-387637609Y-76128442D01*
G75*
G02*
X-386938798Y-77557747I-365247J-1064058D01*
G01*
X-387127550Y-78107631D01*
G75*
G02*
X-388556855Y-78806442I-1064058J365247D01*
G01*
G37*
%TD*%
D10*
%TO.C,MX53*%
X-419947531Y-158342808D03*
X-429761337Y-155713206D03*
D11*
X-426233972Y-152517256D03*
D12*
X-424854434Y-157028007D03*
G36*
G01*
X-428819645Y-154202820D02*
X-428819649Y-154202813D01*
G75*
G02*
X-428491569Y-152646017I942438J614358D01*
G01*
X-426848329Y-151574819D01*
G75*
G02*
X-425291533Y-151902899I614358J-942438D01*
G01*
X-425291533Y-151902899D01*
G75*
G02*
X-425619613Y-153459695I-942438J-614358D01*
G01*
X-427262853Y-154530893D01*
G75*
G02*
X-428819649Y-154202813I-614358J942438D01*
G01*
G37*
D11*
X-421086182Y-152778504D03*
G36*
G01*
X-421639341Y-154392734D02*
X-421640181Y-154392446D01*
G75*
G02*
X-422338992Y-152963141I365247J1064058D01*
G01*
X-422150240Y-152413257D01*
G75*
G02*
X-420720935Y-151714446I1064058J-365247D01*
G01*
X-420720935Y-151714446D01*
G75*
G02*
X-420022124Y-153143751I-365247J-1064058D01*
G01*
X-420210876Y-153693635D01*
G75*
G02*
X-421640181Y-154392446I-1064058J365247D01*
G01*
G37*
%TD*%
D10*
%TO.C,MX52*%
X-416460325Y-139564805D03*
X-426274131Y-136935203D03*
D11*
X-422746766Y-133739253D03*
D12*
X-421367228Y-138250004D03*
G36*
G01*
X-425332439Y-135424817D02*
X-425332443Y-135424810D01*
G75*
G02*
X-425004363Y-133868014I942438J614358D01*
G01*
X-423361123Y-132796816D01*
G75*
G02*
X-421804327Y-133124896I614358J-942438D01*
G01*
X-421804327Y-133124896D01*
G75*
G02*
X-422132407Y-134681692I-942438J-614358D01*
G01*
X-423775647Y-135752890D01*
G75*
G02*
X-425332443Y-135424810I-614358J942438D01*
G01*
G37*
D11*
X-417598976Y-134000501D03*
G36*
G01*
X-418152135Y-135614731D02*
X-418152975Y-135614443D01*
G75*
G02*
X-418851786Y-134185138I365247J1064058D01*
G01*
X-418663034Y-133635254D01*
G75*
G02*
X-417233729Y-132936443I1064058J-365247D01*
G01*
X-417233729Y-132936443D01*
G75*
G02*
X-416534918Y-134365748I-365247J-1064058D01*
G01*
X-416723670Y-134915632D01*
G75*
G02*
X-418152975Y-135614443I-1064058J365247D01*
G01*
G37*
%TD*%
D10*
%TO.C,MX51*%
X-413272088Y-120641805D03*
X-423085894Y-118012203D03*
D11*
X-419558529Y-114816253D03*
D12*
X-418178991Y-119327004D03*
G36*
G01*
X-422144202Y-116501817D02*
X-422144206Y-116501810D01*
G75*
G02*
X-421816126Y-114945014I942438J614358D01*
G01*
X-420172886Y-113873816D01*
G75*
G02*
X-418616090Y-114201896I614358J-942438D01*
G01*
X-418616090Y-114201896D01*
G75*
G02*
X-418944170Y-115758692I-942438J-614358D01*
G01*
X-420587410Y-116829890D01*
G75*
G02*
X-422144206Y-116501810I-614358J942438D01*
G01*
G37*
D11*
X-414410739Y-115077501D03*
G36*
G01*
X-414963898Y-116691731D02*
X-414964738Y-116691443D01*
G75*
G02*
X-415663549Y-115262138I365247J1064058D01*
G01*
X-415474797Y-114712254D01*
G75*
G02*
X-414045492Y-114013443I1064058J-365247D01*
G01*
X-414045492Y-114013443D01*
G75*
G02*
X-413346681Y-115442748I-365247J-1064058D01*
G01*
X-413535433Y-115992632D01*
G75*
G02*
X-414964738Y-116691443I-1064058J365247D01*
G01*
G37*
%TD*%
D10*
%TO.C,MX50*%
X-409964091Y-101828802D03*
X-419777897Y-99199200D03*
D11*
X-416250532Y-96003250D03*
D12*
X-414870994Y-100514001D03*
G36*
G01*
X-418836205Y-97688814D02*
X-418836209Y-97688807D01*
G75*
G02*
X-418508129Y-96132011I942438J614358D01*
G01*
X-416864889Y-95060813D01*
G75*
G02*
X-415308093Y-95388893I614358J-942438D01*
G01*
X-415308093Y-95388893D01*
G75*
G02*
X-415636173Y-96945689I-942438J-614358D01*
G01*
X-417279413Y-98016887D01*
G75*
G02*
X-418836209Y-97688807I-614358J942438D01*
G01*
G37*
D11*
X-411102742Y-96264498D03*
G36*
G01*
X-411655901Y-97878728D02*
X-411656741Y-97878440D01*
G75*
G02*
X-412355552Y-96449135I365247J1064058D01*
G01*
X-412166800Y-95899251D01*
G75*
G02*
X-410737495Y-95200440I1064058J-365247D01*
G01*
X-410737495Y-95200440D01*
G75*
G02*
X-410038684Y-96629745I-365247J-1064058D01*
G01*
X-410227436Y-97179629D01*
G75*
G02*
X-411656741Y-97878440I-1064058J365247D01*
G01*
G37*
%TD*%
D10*
%TO.C,MX49*%
X-405265091Y-77826302D03*
X-415078897Y-75196700D03*
D11*
X-411551532Y-72000750D03*
D12*
X-410171994Y-76511501D03*
G36*
G01*
X-414137205Y-73686314D02*
X-414137209Y-73686307D01*
G75*
G02*
X-413809129Y-72129511I942438J614358D01*
G01*
X-412165889Y-71058313D01*
G75*
G02*
X-410609093Y-71386393I614358J-942438D01*
G01*
X-410609093Y-71386393D01*
G75*
G02*
X-410937173Y-72943189I-942438J-614358D01*
G01*
X-412580413Y-74014387D01*
G75*
G02*
X-414137209Y-73686307I-614358J942438D01*
G01*
G37*
D11*
X-406403742Y-72261998D03*
G36*
G01*
X-406956901Y-73876228D02*
X-406957741Y-73875940D01*
G75*
G02*
X-407656552Y-72446635I365247J1064058D01*
G01*
X-407467800Y-71896751D01*
G75*
G02*
X-406038495Y-71197940I1064058J-365247D01*
G01*
X-406038495Y-71197940D01*
G75*
G02*
X-405339684Y-72627245I-365247J-1064058D01*
G01*
X-405528436Y-73177129D01*
G75*
G02*
X-406957741Y-73875940I-1064058J365247D01*
G01*
G37*
%TD*%
%TO.C,MX47*%
G36*
G01*
X-440040227Y-149462232D02*
X-440041067Y-149461944D01*
G75*
G02*
X-440739878Y-148032639I365247J1064058D01*
G01*
X-440551126Y-147482755D01*
G75*
G02*
X-439121821Y-146783944I1064058J-365247D01*
G01*
X-439121821Y-146783944D01*
G75*
G02*
X-438423010Y-148213249I-365247J-1064058D01*
G01*
X-438611762Y-148763133D01*
G75*
G02*
X-440041067Y-149461944I-1064058J365247D01*
G01*
G37*
X-439487068Y-147848002D03*
G36*
G01*
X-447220531Y-149272318D02*
X-447220535Y-149272311D01*
G75*
G02*
X-446892455Y-147715515I942438J614358D01*
G01*
X-445249215Y-146644317D01*
G75*
G02*
X-443692419Y-146972397I614358J-942438D01*
G01*
X-443692419Y-146972397D01*
G75*
G02*
X-444020499Y-148529193I-942438J-614358D01*
G01*
X-445663739Y-149600391D01*
G75*
G02*
X-447220535Y-149272311I-614358J942438D01*
G01*
G37*
D12*
X-443255320Y-152097505D03*
D11*
X-444634858Y-147586754D03*
D10*
X-448162223Y-150782704D03*
X-438348417Y-153412306D03*
%TD*%
%TO.C,MX46*%
G36*
G01*
X-436553021Y-130684229D02*
X-436553861Y-130683941D01*
G75*
G02*
X-437252672Y-129254636I365247J1064058D01*
G01*
X-437063920Y-128704752D01*
G75*
G02*
X-435634615Y-128005941I1064058J-365247D01*
G01*
X-435634615Y-128005941D01*
G75*
G02*
X-434935804Y-129435246I-365247J-1064058D01*
G01*
X-435124556Y-129985130D01*
G75*
G02*
X-436553861Y-130683941I-1064058J365247D01*
G01*
G37*
D11*
X-435999862Y-129069999D03*
G36*
G01*
X-443733325Y-130494315D02*
X-443733329Y-130494308D01*
G75*
G02*
X-443405249Y-128937512I942438J614358D01*
G01*
X-441762009Y-127866314D01*
G75*
G02*
X-440205213Y-128194394I614358J-942438D01*
G01*
X-440205213Y-128194394D01*
G75*
G02*
X-440533293Y-129751190I-942438J-614358D01*
G01*
X-442176533Y-130822388D01*
G75*
G02*
X-443733329Y-130494308I-614358J942438D01*
G01*
G37*
D12*
X-439768114Y-133319502D03*
D11*
X-441147652Y-128808751D03*
D10*
X-444675017Y-132004701D03*
X-434861211Y-134634303D03*
%TD*%
%TO.C,MX45*%
G36*
G01*
X-433364784Y-111761229D02*
X-433365624Y-111760941D01*
G75*
G02*
X-434064435Y-110331636I365247J1064058D01*
G01*
X-433875683Y-109781752D01*
G75*
G02*
X-432446378Y-109082941I1064058J-365247D01*
G01*
X-432446378Y-109082941D01*
G75*
G02*
X-431747567Y-110512246I-365247J-1064058D01*
G01*
X-431936319Y-111062130D01*
G75*
G02*
X-433365624Y-111760941I-1064058J365247D01*
G01*
G37*
D11*
X-432811625Y-110146999D03*
G36*
G01*
X-440545088Y-111571315D02*
X-440545092Y-111571308D01*
G75*
G02*
X-440217012Y-110014512I942438J614358D01*
G01*
X-438573772Y-108943314D01*
G75*
G02*
X-437016976Y-109271394I614358J-942438D01*
G01*
X-437016976Y-109271394D01*
G75*
G02*
X-437345056Y-110828190I-942438J-614358D01*
G01*
X-438988296Y-111899388D01*
G75*
G02*
X-440545092Y-111571308I-614358J942438D01*
G01*
G37*
D12*
X-436579877Y-114396502D03*
D11*
X-437959415Y-109885751D03*
D10*
X-441486780Y-113081701D03*
X-431672974Y-115711303D03*
%TD*%
%TO.C,MX44*%
X-428364977Y-96898300D03*
X-438178783Y-94268698D03*
D11*
X-434651418Y-91072748D03*
D12*
X-433271880Y-95583499D03*
G36*
G01*
X-437237091Y-92758312D02*
X-437237095Y-92758305D01*
G75*
G02*
X-436909015Y-91201509I942438J614358D01*
G01*
X-435265775Y-90130311D01*
G75*
G02*
X-433708979Y-90458391I614358J-942438D01*
G01*
X-433708979Y-90458391D01*
G75*
G02*
X-434037059Y-92015187I-942438J-614358D01*
G01*
X-435680299Y-93086385D01*
G75*
G02*
X-437237095Y-92758305I-614358J942438D01*
G01*
G37*
D11*
X-429503628Y-91333996D03*
G36*
G01*
X-430056787Y-92948226D02*
X-430057627Y-92947938D01*
G75*
G02*
X-430756438Y-91518633I365247J1064058D01*
G01*
X-430567686Y-90968749D01*
G75*
G02*
X-429138381Y-90269938I1064058J-365247D01*
G01*
X-429138381Y-90269938D01*
G75*
G02*
X-428439570Y-91699243I-365247J-1064058D01*
G01*
X-428628322Y-92249127D01*
G75*
G02*
X-430057627Y-92947938I-1064058J365247D01*
G01*
G37*
%TD*%
D10*
%TO.C,MX43*%
X-423665977Y-72895800D03*
X-433479783Y-70266198D03*
D11*
X-429952418Y-67070248D03*
D12*
X-428572880Y-71580999D03*
G36*
G01*
X-432538091Y-68755812D02*
X-432538095Y-68755805D01*
G75*
G02*
X-432210015Y-67199009I942438J614358D01*
G01*
X-430566775Y-66127811D01*
G75*
G02*
X-429009979Y-66455891I614358J-942438D01*
G01*
X-429009979Y-66455891D01*
G75*
G02*
X-429338059Y-68012687I-942438J-614358D01*
G01*
X-430981299Y-69083885D01*
G75*
G02*
X-432538095Y-68755805I-614358J942438D01*
G01*
G37*
D11*
X-424804628Y-67331496D03*
G36*
G01*
X-425357787Y-68945726D02*
X-425358627Y-68945438D01*
G75*
G02*
X-426057438Y-67516133I365247J1064058D01*
G01*
X-425868686Y-66966249D01*
G75*
G02*
X-424439381Y-66267438I1064058J-365247D01*
G01*
X-424439381Y-66267438D01*
G75*
G02*
X-423740570Y-67696743I-365247J-1064058D01*
G01*
X-423929322Y-68246627D01*
G75*
G02*
X-425358627Y-68945438I-1064058J365247D01*
G01*
G37*
%TD*%
%TO.C,MX42*%
G36*
G01*
X-461071507Y-163548927D02*
X-461072347Y-163548639D01*
G75*
G02*
X-461771158Y-162119334I365247J1064058D01*
G01*
X-461582406Y-161569450D01*
G75*
G02*
X-460153101Y-160870639I1064058J-365247D01*
G01*
X-460153101Y-160870639D01*
G75*
G02*
X-459454290Y-162299944I-365247J-1064058D01*
G01*
X-459643042Y-162849828D01*
G75*
G02*
X-461072347Y-163548639I-1064058J365247D01*
G01*
G37*
X-460518348Y-161934697D03*
G36*
G01*
X-468251811Y-163359013D02*
X-468251815Y-163359006D01*
G75*
G02*
X-467923735Y-161802210I942438J614358D01*
G01*
X-466280495Y-160731012D01*
G75*
G02*
X-464723699Y-161059092I614358J-942438D01*
G01*
X-464723699Y-161059092D01*
G75*
G02*
X-465051779Y-162615888I-942438J-614358D01*
G01*
X-466695019Y-163687086D01*
G75*
G02*
X-468251815Y-163359006I-614358J942438D01*
G01*
G37*
D12*
X-464286600Y-166184200D03*
D11*
X-465666138Y-161673449D03*
D10*
X-469193503Y-164869399D03*
X-459379697Y-167499001D03*
%TD*%
%TO.C,MX41*%
X-456749303Y-148481804D03*
X-466563109Y-145852202D03*
D11*
X-463035744Y-142656252D03*
D12*
X-461656206Y-147167003D03*
G36*
G01*
X-465621417Y-144341816D02*
X-465621421Y-144341809D01*
G75*
G02*
X-465293341Y-142785013I942438J614358D01*
G01*
X-463650101Y-141713815D01*
G75*
G02*
X-462093305Y-142041895I614358J-942438D01*
G01*
X-462093305Y-142041895D01*
G75*
G02*
X-462421385Y-143598691I-942438J-614358D01*
G01*
X-464064625Y-144669889D01*
G75*
G02*
X-465621421Y-144341809I-614358J942438D01*
G01*
G37*
D11*
X-457887954Y-142917500D03*
G36*
G01*
X-458441113Y-144531730D02*
X-458441953Y-144531442D01*
G75*
G02*
X-459140764Y-143102137I365247J1064058D01*
G01*
X-458952012Y-142552253D01*
G75*
G02*
X-457522707Y-141853442I1064058J-365247D01*
G01*
X-457522707Y-141853442D01*
G75*
G02*
X-456823896Y-143282747I-365247J-1064058D01*
G01*
X-457012648Y-143832631D01*
G75*
G02*
X-458441953Y-144531442I-1064058J365247D01*
G01*
G37*
%TD*%
D10*
%TO.C,MX40*%
X-453262097Y-129703801D03*
X-463075903Y-127074199D03*
D11*
X-459548538Y-123878249D03*
D12*
X-458169000Y-128389000D03*
G36*
G01*
X-462134211Y-125563813D02*
X-462134215Y-125563806D01*
G75*
G02*
X-461806135Y-124007010I942438J614358D01*
G01*
X-460162895Y-122935812D01*
G75*
G02*
X-458606099Y-123263892I614358J-942438D01*
G01*
X-458606099Y-123263892D01*
G75*
G02*
X-458934179Y-124820688I-942438J-614358D01*
G01*
X-460577419Y-125891886D01*
G75*
G02*
X-462134215Y-125563806I-614358J942438D01*
G01*
G37*
D11*
X-454400748Y-124139497D03*
G36*
G01*
X-454953907Y-125753727D02*
X-454954747Y-125753439D01*
G75*
G02*
X-455653558Y-124324134I365247J1064058D01*
G01*
X-455464806Y-123774250D01*
G75*
G02*
X-454035501Y-123075439I1064058J-365247D01*
G01*
X-454035501Y-123075439D01*
G75*
G02*
X-453336690Y-124504744I-365247J-1064058D01*
G01*
X-453525442Y-125054628D01*
G75*
G02*
X-454954747Y-125753439I-1064058J365247D01*
G01*
G37*
%TD*%
D10*
%TO.C,MX39*%
X-450073860Y-110780801D03*
X-459887666Y-108151199D03*
D11*
X-456360301Y-104955249D03*
D12*
X-454980763Y-109466000D03*
G36*
G01*
X-458945974Y-106640813D02*
X-458945978Y-106640806D01*
G75*
G02*
X-458617898Y-105084010I942438J614358D01*
G01*
X-456974658Y-104012812D01*
G75*
G02*
X-455417862Y-104340892I614358J-942438D01*
G01*
X-455417862Y-104340892D01*
G75*
G02*
X-455745942Y-105897688I-942438J-614358D01*
G01*
X-457389182Y-106968886D01*
G75*
G02*
X-458945978Y-106640806I-614358J942438D01*
G01*
G37*
D11*
X-451212511Y-105216497D03*
G36*
G01*
X-451765670Y-106830727D02*
X-451766510Y-106830439D01*
G75*
G02*
X-452465321Y-105401134I365247J1064058D01*
G01*
X-452276569Y-104851250D01*
G75*
G02*
X-450847264Y-104152439I1064058J-365247D01*
G01*
X-450847264Y-104152439D01*
G75*
G02*
X-450148453Y-105581744I-365247J-1064058D01*
G01*
X-450337205Y-106131628D01*
G75*
G02*
X-451766510Y-106830439I-1064058J365247D01*
G01*
G37*
%TD*%
D10*
%TO.C,MX38*%
X-446765863Y-91967798D03*
X-456579669Y-89338196D03*
D11*
X-453052304Y-86142246D03*
D12*
X-451672766Y-90652997D03*
G36*
G01*
X-455637977Y-87827810D02*
X-455637981Y-87827803D01*
G75*
G02*
X-455309901Y-86271007I942438J614358D01*
G01*
X-453666661Y-85199809D01*
G75*
G02*
X-452109865Y-85527889I614358J-942438D01*
G01*
X-452109865Y-85527889D01*
G75*
G02*
X-452437945Y-87084685I-942438J-614358D01*
G01*
X-454081185Y-88155883D01*
G75*
G02*
X-455637981Y-87827803I-614358J942438D01*
G01*
G37*
D11*
X-447904514Y-86403494D03*
G36*
G01*
X-448457673Y-88017724D02*
X-448458513Y-88017436D01*
G75*
G02*
X-449157324Y-86588131I365247J1064058D01*
G01*
X-448968572Y-86038247D01*
G75*
G02*
X-447539267Y-85339436I1064058J-365247D01*
G01*
X-447539267Y-85339436D01*
G75*
G02*
X-446840456Y-86768741I-365247J-1064058D01*
G01*
X-447029208Y-87318625D01*
G75*
G02*
X-448458513Y-88017436I-1064058J365247D01*
G01*
G37*
%TD*%
D10*
%TO.C,MX37*%
X-442066863Y-67965298D03*
X-451880669Y-65335696D03*
D11*
X-448353304Y-62139746D03*
D12*
X-446973766Y-66650497D03*
G36*
G01*
X-450938977Y-63825310D02*
X-450938981Y-63825303D01*
G75*
G02*
X-450610901Y-62268507I942438J614358D01*
G01*
X-448967661Y-61197309D01*
G75*
G02*
X-447410865Y-61525389I614358J-942438D01*
G01*
X-447410865Y-61525389D01*
G75*
G02*
X-447738945Y-63082185I-942438J-614358D01*
G01*
X-449382185Y-64153383D01*
G75*
G02*
X-450938981Y-63825303I-614358J942438D01*
G01*
G37*
D11*
X-443205514Y-62400994D03*
G36*
G01*
X-443758673Y-64015224D02*
X-443759513Y-64014936D01*
G75*
G02*
X-444458324Y-62585631I365247J1064058D01*
G01*
X-444269572Y-62035747D01*
G75*
G02*
X-442840267Y-61336936I1064058J-365247D01*
G01*
X-442840267Y-61336936D01*
G75*
G02*
X-442141456Y-62766241I-365247J-1064058D01*
G01*
X-442330208Y-63316125D01*
G75*
G02*
X-443759513Y-64014936I-1064058J365247D01*
G01*
G37*
%TD*%
D10*
%TO.C,MX36*%
X-487076750Y-164338000D03*
X-497236750Y-164338000D03*
D11*
X-494656750Y-160338000D03*
D12*
X-492156750Y-164338000D03*
G36*
G01*
X-496718062Y-162635350D02*
X-496718067Y-162635345D01*
G75*
G02*
X-496804095Y-161046683I751317J837345D01*
G01*
X-495494093Y-159586683D01*
G75*
G02*
X-493905431Y-159500655I837345J-751317D01*
G01*
X-493905431Y-159500655D01*
G75*
G02*
X-493819403Y-161089317I-751317J-837345D01*
G01*
X-495129405Y-162549317D01*
G75*
G02*
X-496718067Y-162635345I-837345J751317D01*
G01*
G37*
D11*
X-489616750Y-159258000D03*
G36*
G01*
X-489733267Y-160960395D02*
X-489734153Y-160960334D01*
G75*
G02*
X-490779084Y-159760597I77403J1122334D01*
G01*
X-490739084Y-159180597D01*
G75*
G02*
X-489539347Y-158135666I1122334J-77403D01*
G01*
X-489539347Y-158135666D01*
G75*
G02*
X-488494416Y-159335403I-77403J-1122334D01*
G01*
X-488534416Y-159915403D01*
G75*
G02*
X-489734153Y-160960334I-1122334J77403D01*
G01*
G37*
%TD*%
D10*
%TO.C,MX35*%
X-489458000Y-145288000D03*
X-499618000Y-145288000D03*
D11*
X-497038000Y-141288000D03*
D12*
X-494538000Y-145288000D03*
G36*
G01*
X-499099312Y-143585350D02*
X-499099317Y-143585345D01*
G75*
G02*
X-499185345Y-141996683I751317J837345D01*
G01*
X-497875343Y-140536683D01*
G75*
G02*
X-496286681Y-140450655I837345J-751317D01*
G01*
X-496286681Y-140450655D01*
G75*
G02*
X-496200653Y-142039317I-751317J-837345D01*
G01*
X-497510655Y-143499317D01*
G75*
G02*
X-499099317Y-143585345I-837345J751317D01*
G01*
G37*
D11*
X-491998000Y-140208000D03*
G36*
G01*
X-492114517Y-141910395D02*
X-492115403Y-141910334D01*
G75*
G02*
X-493160334Y-140710597I77403J1122334D01*
G01*
X-493120334Y-140130597D01*
G75*
G02*
X-491920597Y-139085666I1122334J-77403D01*
G01*
X-491920597Y-139085666D01*
G75*
G02*
X-490875666Y-140285403I-77403J-1122334D01*
G01*
X-490915666Y-140865403D01*
G75*
G02*
X-492115403Y-141910334I-1122334J77403D01*
G01*
G37*
%TD*%
D10*
%TO.C,MX34*%
X-484695500Y-126238000D03*
X-494855500Y-126238000D03*
D11*
X-492275500Y-122238000D03*
D12*
X-489775500Y-126238000D03*
G36*
G01*
X-494336812Y-124535350D02*
X-494336817Y-124535345D01*
G75*
G02*
X-494422845Y-122946683I751317J837345D01*
G01*
X-493112843Y-121486683D01*
G75*
G02*
X-491524181Y-121400655I837345J-751317D01*
G01*
X-491524181Y-121400655D01*
G75*
G02*
X-491438153Y-122989317I-751317J-837345D01*
G01*
X-492748155Y-124449317D01*
G75*
G02*
X-494336817Y-124535345I-837345J751317D01*
G01*
G37*
D11*
X-487235500Y-121158000D03*
G36*
G01*
X-487352017Y-122860395D02*
X-487352903Y-122860334D01*
G75*
G02*
X-488397834Y-121660597I77403J1122334D01*
G01*
X-488357834Y-121080597D01*
G75*
G02*
X-487158097Y-120035666I1122334J-77403D01*
G01*
X-487158097Y-120035666D01*
G75*
G02*
X-486113166Y-121235403I-77403J-1122334D01*
G01*
X-486153166Y-121815403D01*
G75*
G02*
X-487352903Y-122860334I-1122334J77403D01*
G01*
G37*
%TD*%
D10*
%TO.C,MX33*%
X-479933000Y-107188000D03*
X-490093000Y-107188000D03*
D11*
X-487513000Y-103188000D03*
D12*
X-485013000Y-107188000D03*
G36*
G01*
X-489574312Y-105485350D02*
X-489574317Y-105485345D01*
G75*
G02*
X-489660345Y-103896683I751317J837345D01*
G01*
X-488350343Y-102436683D01*
G75*
G02*
X-486761681Y-102350655I837345J-751317D01*
G01*
X-486761681Y-102350655D01*
G75*
G02*
X-486675653Y-103939317I-751317J-837345D01*
G01*
X-487985655Y-105399317D01*
G75*
G02*
X-489574317Y-105485345I-837345J751317D01*
G01*
G37*
D11*
X-482473000Y-102108000D03*
G36*
G01*
X-482589517Y-103810395D02*
X-482590403Y-103810334D01*
G75*
G02*
X-483635334Y-102610597I77403J1122334D01*
G01*
X-483595334Y-102030597D01*
G75*
G02*
X-482395597Y-100985666I1122334J-77403D01*
G01*
X-482395597Y-100985666D01*
G75*
G02*
X-481350666Y-102185403I-77403J-1122334D01*
G01*
X-481390666Y-102765403D01*
G75*
G02*
X-482590403Y-103810334I-1122334J77403D01*
G01*
G37*
%TD*%
D10*
%TO.C,MX32*%
X-475170500Y-88138000D03*
X-485330500Y-88138000D03*
D11*
X-482750500Y-84138000D03*
D12*
X-480250500Y-88138000D03*
G36*
G01*
X-484811812Y-86435350D02*
X-484811817Y-86435345D01*
G75*
G02*
X-484897845Y-84846683I751317J837345D01*
G01*
X-483587843Y-83386683D01*
G75*
G02*
X-481999181Y-83300655I837345J-751317D01*
G01*
X-481999181Y-83300655D01*
G75*
G02*
X-481913153Y-84889317I-751317J-837345D01*
G01*
X-483223155Y-86349317D01*
G75*
G02*
X-484811817Y-86435345I-837345J751317D01*
G01*
G37*
D11*
X-477710500Y-83058000D03*
G36*
G01*
X-477827017Y-84760395D02*
X-477827903Y-84760334D01*
G75*
G02*
X-478872834Y-83560597I77403J1122334D01*
G01*
X-478832834Y-82980597D01*
G75*
G02*
X-477633097Y-81935666I1122334J-77403D01*
G01*
X-477633097Y-81935666D01*
G75*
G02*
X-476588166Y-83135403I-77403J-1122334D01*
G01*
X-476628166Y-83715403D01*
G75*
G02*
X-477827903Y-84760334I-1122334J77403D01*
G01*
G37*
%TD*%
D10*
%TO.C,MX31*%
X-470344500Y-64325500D03*
X-480504500Y-64325500D03*
D11*
X-477924500Y-60325500D03*
D12*
X-475424500Y-64325500D03*
G36*
G01*
X-479985812Y-62622850D02*
X-479985817Y-62622845D01*
G75*
G02*
X-480071845Y-61034183I751317J837345D01*
G01*
X-478761843Y-59574183D01*
G75*
G02*
X-477173181Y-59488155I837345J-751317D01*
G01*
X-477173181Y-59488155D01*
G75*
G02*
X-477087153Y-61076817I-751317J-837345D01*
G01*
X-478397155Y-62536817D01*
G75*
G02*
X-479985817Y-62622845I-837345J751317D01*
G01*
G37*
D11*
X-472884500Y-59245500D03*
G36*
G01*
X-473001017Y-60947895D02*
X-473001903Y-60947834D01*
G75*
G02*
X-474046834Y-59748097I77403J1122334D01*
G01*
X-474006834Y-59168097D01*
G75*
G02*
X-472807097Y-58123166I1122334J-77403D01*
G01*
X-472807097Y-58123166D01*
G75*
G02*
X-471762166Y-59322903I-77403J-1122334D01*
G01*
X-471802166Y-59902903D01*
G75*
G02*
X-473001903Y-60947834I-1122334J77403D01*
G01*
G37*
%TD*%
D10*
%TO.C,MX30*%
X-510889250Y-164338000D03*
X-521049250Y-164338000D03*
D11*
X-518469250Y-160338000D03*
D12*
X-515969250Y-164338000D03*
G36*
G01*
X-520530562Y-162635350D02*
X-520530567Y-162635345D01*
G75*
G02*
X-520616595Y-161046683I751317J837345D01*
G01*
X-519306593Y-159586683D01*
G75*
G02*
X-517717931Y-159500655I837345J-751317D01*
G01*
X-517717931Y-159500655D01*
G75*
G02*
X-517631903Y-161089317I-751317J-837345D01*
G01*
X-518941905Y-162549317D01*
G75*
G02*
X-520530567Y-162635345I-837345J751317D01*
G01*
G37*
D11*
X-513429250Y-159258000D03*
G36*
G01*
X-513545767Y-160960395D02*
X-513546653Y-160960334D01*
G75*
G02*
X-514591584Y-159760597I77403J1122334D01*
G01*
X-514551584Y-159180597D01*
G75*
G02*
X-513351847Y-158135666I1122334J-77403D01*
G01*
X-513351847Y-158135666D01*
G75*
G02*
X-512306916Y-159335403I-77403J-1122334D01*
G01*
X-512346916Y-159915403D01*
G75*
G02*
X-513546653Y-160960334I-1122334J77403D01*
G01*
G37*
%TD*%
D10*
%TO.C,MX27*%
X-503745500Y-107188000D03*
X-513905500Y-107188000D03*
D11*
X-511325500Y-103188000D03*
D12*
X-508825500Y-107188000D03*
G36*
G01*
X-513386812Y-105485350D02*
X-513386817Y-105485345D01*
G75*
G02*
X-513472845Y-103896683I751317J837345D01*
G01*
X-512162843Y-102436683D01*
G75*
G02*
X-510574181Y-102350655I837345J-751317D01*
G01*
X-510574181Y-102350655D01*
G75*
G02*
X-510488153Y-103939317I-751317J-837345D01*
G01*
X-511798155Y-105399317D01*
G75*
G02*
X-513386817Y-105485345I-837345J751317D01*
G01*
G37*
D11*
X-506285500Y-102108000D03*
G36*
G01*
X-506402017Y-103810395D02*
X-506402903Y-103810334D01*
G75*
G02*
X-507447834Y-102610597I77403J1122334D01*
G01*
X-507407834Y-102030597D01*
G75*
G02*
X-506208097Y-100985666I1122334J-77403D01*
G01*
X-506208097Y-100985666D01*
G75*
G02*
X-505163166Y-102185403I-77403J-1122334D01*
G01*
X-505203166Y-102765403D01*
G75*
G02*
X-506402903Y-103810334I-1122334J77403D01*
G01*
G37*
%TD*%
D10*
%TO.C,MX26*%
X-494220500Y-88138000D03*
X-504380500Y-88138000D03*
D11*
X-501800500Y-84138000D03*
D12*
X-499300500Y-88138000D03*
G36*
G01*
X-503861812Y-86435350D02*
X-503861817Y-86435345D01*
G75*
G02*
X-503947845Y-84846683I751317J837345D01*
G01*
X-502637843Y-83386683D01*
G75*
G02*
X-501049181Y-83300655I837345J-751317D01*
G01*
X-501049181Y-83300655D01*
G75*
G02*
X-500963153Y-84889317I-751317J-837345D01*
G01*
X-502273155Y-86349317D01*
G75*
G02*
X-503861817Y-86435345I-837345J751317D01*
G01*
G37*
D11*
X-496760500Y-83058000D03*
G36*
G01*
X-496877017Y-84760395D02*
X-496877903Y-84760334D01*
G75*
G02*
X-497922834Y-83560597I77403J1122334D01*
G01*
X-497882834Y-82980597D01*
G75*
G02*
X-496683097Y-81935666I1122334J-77403D01*
G01*
X-496683097Y-81935666D01*
G75*
G02*
X-495638166Y-83135403I-77403J-1122334D01*
G01*
X-495678166Y-83715403D01*
G75*
G02*
X-496877903Y-84760334I-1122334J77403D01*
G01*
G37*
%TD*%
D10*
%TO.C,MX25*%
X-489394500Y-64325500D03*
X-499554500Y-64325500D03*
D11*
X-496974500Y-60325500D03*
D12*
X-494474500Y-64325500D03*
G36*
G01*
X-499035812Y-62622850D02*
X-499035817Y-62622845D01*
G75*
G02*
X-499121845Y-61034183I751317J837345D01*
G01*
X-497811843Y-59574183D01*
G75*
G02*
X-496223181Y-59488155I837345J-751317D01*
G01*
X-496223181Y-59488155D01*
G75*
G02*
X-496137153Y-61076817I-751317J-837345D01*
G01*
X-497447155Y-62536817D01*
G75*
G02*
X-499035817Y-62622845I-837345J751317D01*
G01*
G37*
D11*
X-491934500Y-59245500D03*
G36*
G01*
X-492051017Y-60947895D02*
X-492051903Y-60947834D01*
G75*
G02*
X-493096834Y-59748097I77403J1122334D01*
G01*
X-493056834Y-59168097D01*
G75*
G02*
X-491857097Y-58123166I1122334J-77403D01*
G01*
X-491857097Y-58123166D01*
G75*
G02*
X-490812166Y-59322903I-77403J-1122334D01*
G01*
X-490852166Y-59902903D01*
G75*
G02*
X-492051903Y-60947834I-1122334J77403D01*
G01*
G37*
%TD*%
D10*
%TO.C,MX24*%
X-532320500Y-164338000D03*
X-542480500Y-164338000D03*
D11*
X-539900500Y-160338000D03*
D12*
X-537400500Y-164338000D03*
G36*
G01*
X-541961812Y-162635350D02*
X-541961817Y-162635345D01*
G75*
G02*
X-542047845Y-161046683I751317J837345D01*
G01*
X-540737843Y-159586683D01*
G75*
G02*
X-539149181Y-159500655I837345J-751317D01*
G01*
X-539149181Y-159500655D01*
G75*
G02*
X-539063153Y-161089317I-751317J-837345D01*
G01*
X-540373155Y-162549317D01*
G75*
G02*
X-541961817Y-162635345I-837345J751317D01*
G01*
G37*
D11*
X-534860500Y-159258000D03*
G36*
G01*
X-534977017Y-160960395D02*
X-534977903Y-160960334D01*
G75*
G02*
X-536022834Y-159760597I77403J1122334D01*
G01*
X-535982834Y-159180597D01*
G75*
G02*
X-534783097Y-158135666I1122334J-77403D01*
G01*
X-534783097Y-158135666D01*
G75*
G02*
X-533738166Y-159335403I-77403J-1122334D01*
G01*
X-533778166Y-159915403D01*
G75*
G02*
X-534977903Y-160960334I-1122334J77403D01*
G01*
G37*
%TD*%
D10*
%TO.C,MX23*%
X-551370500Y-164338000D03*
X-561530500Y-164338000D03*
D11*
X-558950500Y-160338000D03*
D12*
X-556450500Y-164338000D03*
G36*
G01*
X-561011812Y-162635350D02*
X-561011817Y-162635345D01*
G75*
G02*
X-561097845Y-161046683I751317J837345D01*
G01*
X-559787843Y-159586683D01*
G75*
G02*
X-558199181Y-159500655I837345J-751317D01*
G01*
X-558199181Y-159500655D01*
G75*
G02*
X-558113153Y-161089317I-751317J-837345D01*
G01*
X-559423155Y-162549317D01*
G75*
G02*
X-561011817Y-162635345I-837345J751317D01*
G01*
G37*
D11*
X-553910500Y-159258000D03*
G36*
G01*
X-554027017Y-160960395D02*
X-554027903Y-160960334D01*
G75*
G02*
X-555072834Y-159760597I77403J1122334D01*
G01*
X-555032834Y-159180597D01*
G75*
G02*
X-553833097Y-158135666I1122334J-77403D01*
G01*
X-553833097Y-158135666D01*
G75*
G02*
X-552788166Y-159335403I-77403J-1122334D01*
G01*
X-552828166Y-159915403D01*
G75*
G02*
X-554027903Y-160960334I-1122334J77403D01*
G01*
G37*
%TD*%
D10*
%TO.C,MX22*%
X-570420500Y-164338000D03*
X-580580500Y-164338000D03*
D11*
X-578000500Y-160338000D03*
D12*
X-575500500Y-164338000D03*
G36*
G01*
X-580061812Y-162635350D02*
X-580061817Y-162635345D01*
G75*
G02*
X-580147845Y-161046683I751317J837345D01*
G01*
X-578837843Y-159586683D01*
G75*
G02*
X-577249181Y-159500655I837345J-751317D01*
G01*
X-577249181Y-159500655D01*
G75*
G02*
X-577163153Y-161089317I-751317J-837345D01*
G01*
X-578473155Y-162549317D01*
G75*
G02*
X-580061817Y-162635345I-837345J751317D01*
G01*
G37*
D11*
X-572960500Y-159258000D03*
G36*
G01*
X-573077017Y-160960395D02*
X-573077903Y-160960334D01*
G75*
G02*
X-574122834Y-159760597I77403J1122334D01*
G01*
X-574082834Y-159180597D01*
G75*
G02*
X-572883097Y-158135666I1122334J-77403D01*
G01*
X-572883097Y-158135666D01*
G75*
G02*
X-571838166Y-159335403I-77403J-1122334D01*
G01*
X-571878166Y-159915403D01*
G75*
G02*
X-573077903Y-160960334I-1122334J77403D01*
G01*
G37*
%TD*%
D10*
%TO.C,MX21*%
X-551370500Y-145288000D03*
X-561530500Y-145288000D03*
D11*
X-558950500Y-141288000D03*
D12*
X-556450500Y-145288000D03*
G36*
G01*
X-561011812Y-143585350D02*
X-561011817Y-143585345D01*
G75*
G02*
X-561097845Y-141996683I751317J837345D01*
G01*
X-559787843Y-140536683D01*
G75*
G02*
X-558199181Y-140450655I837345J-751317D01*
G01*
X-558199181Y-140450655D01*
G75*
G02*
X-558113153Y-142039317I-751317J-837345D01*
G01*
X-559423155Y-143499317D01*
G75*
G02*
X-561011817Y-143585345I-837345J751317D01*
G01*
G37*
D11*
X-553910500Y-140208000D03*
G36*
G01*
X-554027017Y-141910395D02*
X-554027903Y-141910334D01*
G75*
G02*
X-555072834Y-140710597I77403J1122334D01*
G01*
X-555032834Y-140130597D01*
G75*
G02*
X-553833097Y-139085666I1122334J-77403D01*
G01*
X-553833097Y-139085666D01*
G75*
G02*
X-552788166Y-140285403I-77403J-1122334D01*
G01*
X-552828166Y-140865403D01*
G75*
G02*
X-554027903Y-141910334I-1122334J77403D01*
G01*
G37*
%TD*%
D10*
%TO.C,MX20*%
X-570420500Y-88138000D03*
X-580580500Y-88138000D03*
D11*
X-578000500Y-84138000D03*
D12*
X-575500500Y-88138000D03*
G36*
G01*
X-580061812Y-86435350D02*
X-580061817Y-86435345D01*
G75*
G02*
X-580147845Y-84846683I751317J837345D01*
G01*
X-578837843Y-83386683D01*
G75*
G02*
X-577249181Y-83300655I837345J-751317D01*
G01*
X-577249181Y-83300655D01*
G75*
G02*
X-577163153Y-84889317I-751317J-837345D01*
G01*
X-578473155Y-86349317D01*
G75*
G02*
X-580061817Y-86435345I-837345J751317D01*
G01*
G37*
D11*
X-572960500Y-83058000D03*
G36*
G01*
X-573077017Y-84760395D02*
X-573077903Y-84760334D01*
G75*
G02*
X-574122834Y-83560597I77403J1122334D01*
G01*
X-574082834Y-82980597D01*
G75*
G02*
X-572883097Y-81935666I1122334J-77403D01*
G01*
X-572883097Y-81935666D01*
G75*
G02*
X-571838166Y-83135403I-77403J-1122334D01*
G01*
X-571878166Y-83715403D01*
G75*
G02*
X-573077903Y-84760334I-1122334J77403D01*
G01*
G37*
%TD*%
D10*
%TO.C,MX19*%
X-517969500Y-64325500D03*
X-528129500Y-64325500D03*
D11*
X-525549500Y-60325500D03*
D12*
X-523049500Y-64325500D03*
G36*
G01*
X-527610812Y-62622850D02*
X-527610817Y-62622845D01*
G75*
G02*
X-527696845Y-61034183I751317J837345D01*
G01*
X-526386843Y-59574183D01*
G75*
G02*
X-524798181Y-59488155I837345J-751317D01*
G01*
X-524798181Y-59488155D01*
G75*
G02*
X-524712153Y-61076817I-751317J-837345D01*
G01*
X-526022155Y-62536817D01*
G75*
G02*
X-527610817Y-62622845I-837345J751317D01*
G01*
G37*
D11*
X-520509500Y-59245500D03*
G36*
G01*
X-520626017Y-60947895D02*
X-520626903Y-60947834D01*
G75*
G02*
X-521671834Y-59748097I77403J1122334D01*
G01*
X-521631834Y-59168097D01*
G75*
G02*
X-520432097Y-58123166I1122334J-77403D01*
G01*
X-520432097Y-58123166D01*
G75*
G02*
X-519387166Y-59322903I-77403J-1122334D01*
G01*
X-519427166Y-59902903D01*
G75*
G02*
X-520626903Y-60947834I-1122334J77403D01*
G01*
G37*
%TD*%
D12*
%TO.C,MX18*%
X-591058000Y-142875000D03*
X-591058000Y-166751000D03*
D13*
X-606298000Y-142875000D03*
X-606298000Y-166751000D03*
D10*
X-599313000Y-149733000D03*
X-599313000Y-159893000D03*
D11*
X-603313000Y-157313000D03*
D12*
X-599313000Y-154813000D03*
G36*
G01*
X-601015650Y-159374312D02*
X-601015655Y-159374317D01*
G75*
G02*
X-602604317Y-159460345I-837345J751317D01*
G01*
X-604064317Y-158150343D01*
G75*
G02*
X-604150345Y-156561681I751317J837345D01*
G01*
X-604150345Y-156561681D01*
G75*
G02*
X-602561683Y-156475653I837345J-751317D01*
G01*
X-601101683Y-157785655D01*
G75*
G02*
X-601015655Y-159374317I-751317J-837345D01*
G01*
G37*
D11*
X-604393000Y-152273000D03*
G36*
G01*
X-602690605Y-152389517D02*
X-602690666Y-152390403D01*
G75*
G02*
X-603890403Y-153435334I-1122334J77403D01*
G01*
X-604470403Y-153395334D01*
G75*
G02*
X-605515334Y-152195597I77403J1122334D01*
G01*
X-605515334Y-152195597D01*
G75*
G02*
X-604315597Y-151150666I1122334J-77403D01*
G01*
X-603735597Y-151190666D01*
G75*
G02*
X-602690666Y-152390403I-77403J-1122334D01*
G01*
G37*
%TD*%
D10*
%TO.C,MX17*%
X-613283000Y-164338000D03*
X-623443000Y-164338000D03*
D11*
X-620863000Y-160338000D03*
D12*
X-618363000Y-164338000D03*
G36*
G01*
X-622924312Y-162635350D02*
X-622924317Y-162635345D01*
G75*
G02*
X-623010345Y-161046683I751317J837345D01*
G01*
X-621700343Y-159586683D01*
G75*
G02*
X-620111681Y-159500655I837345J-751317D01*
G01*
X-620111681Y-159500655D01*
G75*
G02*
X-620025653Y-161089317I-751317J-837345D01*
G01*
X-621335655Y-162549317D01*
G75*
G02*
X-622924317Y-162635345I-837345J751317D01*
G01*
G37*
D11*
X-615823000Y-159258000D03*
G36*
G01*
X-615939517Y-160960395D02*
X-615940403Y-160960334D01*
G75*
G02*
X-616985334Y-159760597I77403J1122334D01*
G01*
X-616945334Y-159180597D01*
G75*
G02*
X-615745597Y-158135666I1122334J-77403D01*
G01*
X-615745597Y-158135666D01*
G75*
G02*
X-614700666Y-159335403I-77403J-1122334D01*
G01*
X-614740666Y-159915403D01*
G75*
G02*
X-615940403Y-160960334I-1122334J77403D01*
G01*
G37*
%TD*%
D10*
%TO.C,MX16*%
X-613283000Y-145288000D03*
X-623443000Y-145288000D03*
D11*
X-620863000Y-141288000D03*
D12*
X-618363000Y-145288000D03*
G36*
G01*
X-622924312Y-143585350D02*
X-622924317Y-143585345D01*
G75*
G02*
X-623010345Y-141996683I751317J837345D01*
G01*
X-621700343Y-140536683D01*
G75*
G02*
X-620111681Y-140450655I837345J-751317D01*
G01*
X-620111681Y-140450655D01*
G75*
G02*
X-620025653Y-142039317I-751317J-837345D01*
G01*
X-621335655Y-143499317D01*
G75*
G02*
X-622924317Y-143585345I-837345J751317D01*
G01*
G37*
D11*
X-615823000Y-140208000D03*
G36*
G01*
X-615939517Y-141910395D02*
X-615940403Y-141910334D01*
G75*
G02*
X-616985334Y-140710597I77403J1122334D01*
G01*
X-616945334Y-140130597D01*
G75*
G02*
X-615745597Y-139085666I1122334J-77403D01*
G01*
X-615745597Y-139085666D01*
G75*
G02*
X-614700666Y-140285403I-77403J-1122334D01*
G01*
X-614740666Y-140865403D01*
G75*
G02*
X-615940403Y-141910334I-1122334J77403D01*
G01*
G37*
%TD*%
D10*
%TO.C,MX15*%
X-613283000Y-126238000D03*
X-623443000Y-126238000D03*
D11*
X-620863000Y-122238000D03*
D12*
X-618363000Y-126238000D03*
G36*
G01*
X-622924312Y-124535350D02*
X-622924317Y-124535345D01*
G75*
G02*
X-623010345Y-122946683I751317J837345D01*
G01*
X-621700343Y-121486683D01*
G75*
G02*
X-620111681Y-121400655I837345J-751317D01*
G01*
X-620111681Y-121400655D01*
G75*
G02*
X-620025653Y-122989317I-751317J-837345D01*
G01*
X-621335655Y-124449317D01*
G75*
G02*
X-622924317Y-124535345I-837345J751317D01*
G01*
G37*
D11*
X-615823000Y-121158000D03*
G36*
G01*
X-615939517Y-122860395D02*
X-615940403Y-122860334D01*
G75*
G02*
X-616985334Y-121660597I77403J1122334D01*
G01*
X-616945334Y-121080597D01*
G75*
G02*
X-615745597Y-120035666I1122334J-77403D01*
G01*
X-615745597Y-120035666D01*
G75*
G02*
X-614700666Y-121235403I-77403J-1122334D01*
G01*
X-614740666Y-121815403D01*
G75*
G02*
X-615940403Y-122860334I-1122334J77403D01*
G01*
G37*
%TD*%
D12*
%TO.C,MX14*%
X-591058000Y-104775000D03*
X-591058000Y-128651000D03*
D13*
X-606298000Y-104775000D03*
X-606298000Y-128651000D03*
D10*
X-599313000Y-111633000D03*
X-599313000Y-121793000D03*
D11*
X-603313000Y-119213000D03*
D12*
X-599313000Y-116713000D03*
G36*
G01*
X-601015650Y-121274312D02*
X-601015655Y-121274317D01*
G75*
G02*
X-602604317Y-121360345I-837345J751317D01*
G01*
X-604064317Y-120050343D01*
G75*
G02*
X-604150345Y-118461681I751317J837345D01*
G01*
X-604150345Y-118461681D01*
G75*
G02*
X-602561683Y-118375653I837345J-751317D01*
G01*
X-601101683Y-119685655D01*
G75*
G02*
X-601015655Y-121274317I-751317J-837345D01*
G01*
G37*
D11*
X-604393000Y-114173000D03*
G36*
G01*
X-602690605Y-114289517D02*
X-602690666Y-114290403D01*
G75*
G02*
X-603890403Y-115335334I-1122334J77403D01*
G01*
X-604470403Y-115295334D01*
G75*
G02*
X-605515334Y-114095597I77403J1122334D01*
G01*
X-605515334Y-114095597D01*
G75*
G02*
X-604315597Y-113050666I1122334J-77403D01*
G01*
X-603735597Y-113090666D01*
G75*
G02*
X-602690666Y-114290403I-77403J-1122334D01*
G01*
G37*
%TD*%
D10*
%TO.C,MX13*%
X-594233000Y-88138000D03*
X-604393000Y-88138000D03*
D11*
X-601813000Y-84138000D03*
D12*
X-599313000Y-88138000D03*
G36*
G01*
X-603874312Y-86435350D02*
X-603874317Y-86435345D01*
G75*
G02*
X-603960345Y-84846683I751317J837345D01*
G01*
X-602650343Y-83386683D01*
G75*
G02*
X-601061681Y-83300655I837345J-751317D01*
G01*
X-601061681Y-83300655D01*
G75*
G02*
X-600975653Y-84889317I-751317J-837345D01*
G01*
X-602285655Y-86349317D01*
G75*
G02*
X-603874317Y-86435345I-837345J751317D01*
G01*
G37*
D11*
X-596773000Y-83058000D03*
G36*
G01*
X-596889517Y-84760395D02*
X-596890403Y-84760334D01*
G75*
G02*
X-597935334Y-83560597I77403J1122334D01*
G01*
X-597895334Y-82980597D01*
G75*
G02*
X-596695597Y-81935666I1122334J-77403D01*
G01*
X-596695597Y-81935666D01*
G75*
G02*
X-595650666Y-83135403I-77403J-1122334D01*
G01*
X-595690666Y-83715403D01*
G75*
G02*
X-596890403Y-84760334I-1122334J77403D01*
G01*
G37*
%TD*%
D10*
%TO.C,MX12*%
X-632333000Y-164338000D03*
X-642493000Y-164338000D03*
D11*
X-639913000Y-160338000D03*
D12*
X-637413000Y-164338000D03*
G36*
G01*
X-641974312Y-162635350D02*
X-641974317Y-162635345D01*
G75*
G02*
X-642060345Y-161046683I751317J837345D01*
G01*
X-640750343Y-159586683D01*
G75*
G02*
X-639161681Y-159500655I837345J-751317D01*
G01*
X-639161681Y-159500655D01*
G75*
G02*
X-639075653Y-161089317I-751317J-837345D01*
G01*
X-640385655Y-162549317D01*
G75*
G02*
X-641974317Y-162635345I-837345J751317D01*
G01*
G37*
D11*
X-634873000Y-159258000D03*
G36*
G01*
X-634989517Y-160960395D02*
X-634990403Y-160960334D01*
G75*
G02*
X-636035334Y-159760597I77403J1122334D01*
G01*
X-635995334Y-159180597D01*
G75*
G02*
X-634795597Y-158135666I1122334J-77403D01*
G01*
X-634795597Y-158135666D01*
G75*
G02*
X-633750666Y-159335403I-77403J-1122334D01*
G01*
X-633790666Y-159915403D01*
G75*
G02*
X-634990403Y-160960334I-1122334J77403D01*
G01*
G37*
%TD*%
D10*
%TO.C,MX11*%
X-632333000Y-145288000D03*
X-642493000Y-145288000D03*
D11*
X-639913000Y-141288000D03*
D12*
X-637413000Y-145288000D03*
G36*
G01*
X-641974312Y-143585350D02*
X-641974317Y-143585345D01*
G75*
G02*
X-642060345Y-141996683I751317J837345D01*
G01*
X-640750343Y-140536683D01*
G75*
G02*
X-639161681Y-140450655I837345J-751317D01*
G01*
X-639161681Y-140450655D01*
G75*
G02*
X-639075653Y-142039317I-751317J-837345D01*
G01*
X-640385655Y-143499317D01*
G75*
G02*
X-641974317Y-143585345I-837345J751317D01*
G01*
G37*
D11*
X-634873000Y-140208000D03*
G36*
G01*
X-634989517Y-141910395D02*
X-634990403Y-141910334D01*
G75*
G02*
X-636035334Y-140710597I77403J1122334D01*
G01*
X-635995334Y-140130597D01*
G75*
G02*
X-634795597Y-139085666I1122334J-77403D01*
G01*
X-634795597Y-139085666D01*
G75*
G02*
X-633750666Y-140285403I-77403J-1122334D01*
G01*
X-633790666Y-140865403D01*
G75*
G02*
X-634990403Y-141910334I-1122334J77403D01*
G01*
G37*
%TD*%
D10*
%TO.C,MX10*%
X-632333000Y-126238000D03*
X-642493000Y-126238000D03*
D11*
X-639913000Y-122238000D03*
D12*
X-637413000Y-126238000D03*
G36*
G01*
X-641974312Y-124535350D02*
X-641974317Y-124535345D01*
G75*
G02*
X-642060345Y-122946683I751317J837345D01*
G01*
X-640750343Y-121486683D01*
G75*
G02*
X-639161681Y-121400655I837345J-751317D01*
G01*
X-639161681Y-121400655D01*
G75*
G02*
X-639075653Y-122989317I-751317J-837345D01*
G01*
X-640385655Y-124449317D01*
G75*
G02*
X-641974317Y-124535345I-837345J751317D01*
G01*
G37*
D11*
X-634873000Y-121158000D03*
G36*
G01*
X-634989517Y-122860395D02*
X-634990403Y-122860334D01*
G75*
G02*
X-636035334Y-121660597I77403J1122334D01*
G01*
X-635995334Y-121080597D01*
G75*
G02*
X-634795597Y-120035666I1122334J-77403D01*
G01*
X-634795597Y-120035666D01*
G75*
G02*
X-633750666Y-121235403I-77403J-1122334D01*
G01*
X-633790666Y-121815403D01*
G75*
G02*
X-634990403Y-122860334I-1122334J77403D01*
G01*
G37*
%TD*%
D10*
%TO.C,MX9*%
X-632333000Y-107188000D03*
X-642493000Y-107188000D03*
D11*
X-639913000Y-103188000D03*
D12*
X-637413000Y-107188000D03*
G36*
G01*
X-641974312Y-105485350D02*
X-641974317Y-105485345D01*
G75*
G02*
X-642060345Y-103896683I751317J837345D01*
G01*
X-640750343Y-102436683D01*
G75*
G02*
X-639161681Y-102350655I837345J-751317D01*
G01*
X-639161681Y-102350655D01*
G75*
G02*
X-639075653Y-103939317I-751317J-837345D01*
G01*
X-640385655Y-105399317D01*
G75*
G02*
X-641974317Y-105485345I-837345J751317D01*
G01*
G37*
D11*
X-634873000Y-102108000D03*
G36*
G01*
X-634989517Y-103810395D02*
X-634990403Y-103810334D01*
G75*
G02*
X-636035334Y-102610597I77403J1122334D01*
G01*
X-635995334Y-102030597D01*
G75*
G02*
X-634795597Y-100985666I1122334J-77403D01*
G01*
X-634795597Y-100985666D01*
G75*
G02*
X-633750666Y-102185403I-77403J-1122334D01*
G01*
X-633790666Y-102765403D01*
G75*
G02*
X-634990403Y-103810334I-1122334J77403D01*
G01*
G37*
%TD*%
D10*
%TO.C,MX8*%
X-613283000Y-107188000D03*
X-623443000Y-107188000D03*
D11*
X-620863000Y-103188000D03*
D12*
X-618363000Y-107188000D03*
G36*
G01*
X-622924312Y-105485350D02*
X-622924317Y-105485345D01*
G75*
G02*
X-623010345Y-103896683I751317J837345D01*
G01*
X-621700343Y-102436683D01*
G75*
G02*
X-620111681Y-102350655I837345J-751317D01*
G01*
X-620111681Y-102350655D01*
G75*
G02*
X-620025653Y-103939317I-751317J-837345D01*
G01*
X-621335655Y-105399317D01*
G75*
G02*
X-622924317Y-105485345I-837345J751317D01*
G01*
G37*
D11*
X-615823000Y-102108000D03*
G36*
G01*
X-615939517Y-103810395D02*
X-615940403Y-103810334D01*
G75*
G02*
X-616985334Y-102610597I77403J1122334D01*
G01*
X-616945334Y-102030597D01*
G75*
G02*
X-615745597Y-100985666I1122334J-77403D01*
G01*
X-615745597Y-100985666D01*
G75*
G02*
X-614700666Y-102185403I-77403J-1122334D01*
G01*
X-614740666Y-102765403D01*
G75*
G02*
X-615940403Y-103810334I-1122334J77403D01*
G01*
G37*
%TD*%
D10*
%TO.C,MX7*%
X-613283000Y-88138000D03*
X-623443000Y-88138000D03*
D11*
X-620863000Y-84138000D03*
D12*
X-618363000Y-88138000D03*
G36*
G01*
X-622924312Y-86435350D02*
X-622924317Y-86435345D01*
G75*
G02*
X-623010345Y-84846683I751317J837345D01*
G01*
X-621700343Y-83386683D01*
G75*
G02*
X-620111681Y-83300655I837345J-751317D01*
G01*
X-620111681Y-83300655D01*
G75*
G02*
X-620025653Y-84889317I-751317J-837345D01*
G01*
X-621335655Y-86349317D01*
G75*
G02*
X-622924317Y-86435345I-837345J751317D01*
G01*
G37*
D11*
X-615823000Y-83058000D03*
G36*
G01*
X-615939517Y-84760395D02*
X-615940403Y-84760334D01*
G75*
G02*
X-616985334Y-83560597I77403J1122334D01*
G01*
X-616945334Y-82980597D01*
G75*
G02*
X-615745597Y-81935666I1122334J-77403D01*
G01*
X-615745597Y-81935666D01*
G75*
G02*
X-614700666Y-83135403I-77403J-1122334D01*
G01*
X-614740666Y-83715403D01*
G75*
G02*
X-615940403Y-84760334I-1122334J77403D01*
G01*
G37*
%TD*%
D10*
%TO.C,MX5*%
X-651383000Y-145288000D03*
X-661543000Y-145288000D03*
D11*
X-658963000Y-141288000D03*
D12*
X-656463000Y-145288000D03*
G36*
G01*
X-661024312Y-143585350D02*
X-661024317Y-143585345D01*
G75*
G02*
X-661110345Y-141996683I751317J837345D01*
G01*
X-659800343Y-140536683D01*
G75*
G02*
X-658211681Y-140450655I837345J-751317D01*
G01*
X-658211681Y-140450655D01*
G75*
G02*
X-658125653Y-142039317I-751317J-837345D01*
G01*
X-659435655Y-143499317D01*
G75*
G02*
X-661024317Y-143585345I-837345J751317D01*
G01*
G37*
D11*
X-653923000Y-140208000D03*
G36*
G01*
X-654039517Y-141910395D02*
X-654040403Y-141910334D01*
G75*
G02*
X-655085334Y-140710597I77403J1122334D01*
G01*
X-655045334Y-140130597D01*
G75*
G02*
X-653845597Y-139085666I1122334J-77403D01*
G01*
X-653845597Y-139085666D01*
G75*
G02*
X-652800666Y-140285403I-77403J-1122334D01*
G01*
X-652840666Y-140865403D01*
G75*
G02*
X-654040403Y-141910334I-1122334J77403D01*
G01*
G37*
%TD*%
D10*
%TO.C,MX4*%
X-651383000Y-126238000D03*
X-661543000Y-126238000D03*
D11*
X-658963000Y-122238000D03*
D12*
X-656463000Y-126238000D03*
G36*
G01*
X-661024312Y-124535350D02*
X-661024317Y-124535345D01*
G75*
G02*
X-661110345Y-122946683I751317J837345D01*
G01*
X-659800343Y-121486683D01*
G75*
G02*
X-658211681Y-121400655I837345J-751317D01*
G01*
X-658211681Y-121400655D01*
G75*
G02*
X-658125653Y-122989317I-751317J-837345D01*
G01*
X-659435655Y-124449317D01*
G75*
G02*
X-661024317Y-124535345I-837345J751317D01*
G01*
G37*
D11*
X-653923000Y-121158000D03*
G36*
G01*
X-654039517Y-122860395D02*
X-654040403Y-122860334D01*
G75*
G02*
X-655085334Y-121660597I77403J1122334D01*
G01*
X-655045334Y-121080597D01*
G75*
G02*
X-653845597Y-120035666I1122334J-77403D01*
G01*
X-653845597Y-120035666D01*
G75*
G02*
X-652800666Y-121235403I-77403J-1122334D01*
G01*
X-652840666Y-121815403D01*
G75*
G02*
X-654040403Y-122860334I-1122334J77403D01*
G01*
G37*
%TD*%
D10*
%TO.C,MX3*%
X-651383000Y-107188000D03*
X-661543000Y-107188000D03*
D11*
X-658963000Y-103188000D03*
D12*
X-656463000Y-107188000D03*
G36*
G01*
X-661024312Y-105485350D02*
X-661024317Y-105485345D01*
G75*
G02*
X-661110345Y-103896683I751317J837345D01*
G01*
X-659800343Y-102436683D01*
G75*
G02*
X-658211681Y-102350655I837345J-751317D01*
G01*
X-658211681Y-102350655D01*
G75*
G02*
X-658125653Y-103939317I-751317J-837345D01*
G01*
X-659435655Y-105399317D01*
G75*
G02*
X-661024317Y-105485345I-837345J751317D01*
G01*
G37*
D11*
X-653923000Y-102108000D03*
G36*
G01*
X-654039517Y-103810395D02*
X-654040403Y-103810334D01*
G75*
G02*
X-655085334Y-102610597I77403J1122334D01*
G01*
X-655045334Y-102030597D01*
G75*
G02*
X-653845597Y-100985666I1122334J-77403D01*
G01*
X-653845597Y-100985666D01*
G75*
G02*
X-652800666Y-102185403I-77403J-1122334D01*
G01*
X-652840666Y-102765403D01*
G75*
G02*
X-654040403Y-103810334I-1122334J77403D01*
G01*
G37*
%TD*%
D10*
%TO.C,MX2*%
X-651383000Y-88138000D03*
X-661543000Y-88138000D03*
D11*
X-658963000Y-84138000D03*
D12*
X-656463000Y-88138000D03*
G36*
G01*
X-661024312Y-86435350D02*
X-661024317Y-86435345D01*
G75*
G02*
X-661110345Y-84846683I751317J837345D01*
G01*
X-659800343Y-83386683D01*
G75*
G02*
X-658211681Y-83300655I837345J-751317D01*
G01*
X-658211681Y-83300655D01*
G75*
G02*
X-658125653Y-84889317I-751317J-837345D01*
G01*
X-659435655Y-86349317D01*
G75*
G02*
X-661024317Y-86435345I-837345J751317D01*
G01*
G37*
D11*
X-653923000Y-83058000D03*
G36*
G01*
X-654039517Y-84760395D02*
X-654040403Y-84760334D01*
G75*
G02*
X-655085334Y-83560597I77403J1122334D01*
G01*
X-655045334Y-82980597D01*
G75*
G02*
X-653845597Y-81935666I1122334J-77403D01*
G01*
X-653845597Y-81935666D01*
G75*
G02*
X-652800666Y-83135403I-77403J-1122334D01*
G01*
X-652840666Y-83715403D01*
G75*
G02*
X-654040403Y-84760334I-1122334J77403D01*
G01*
G37*
%TD*%
D10*
%TO.C,MX1*%
X-632333000Y-88138000D03*
X-642493000Y-88138000D03*
D11*
X-639913000Y-84138000D03*
D12*
X-637413000Y-88138000D03*
G36*
G01*
X-641974312Y-86435350D02*
X-641974317Y-86435345D01*
G75*
G02*
X-642060345Y-84846683I751317J837345D01*
G01*
X-640750343Y-83386683D01*
G75*
G02*
X-639161681Y-83300655I837345J-751317D01*
G01*
X-639161681Y-83300655D01*
G75*
G02*
X-639075653Y-84889317I-751317J-837345D01*
G01*
X-640385655Y-86349317D01*
G75*
G02*
X-641974317Y-86435345I-837345J751317D01*
G01*
G37*
D11*
X-634873000Y-83058000D03*
G36*
G01*
X-634989517Y-84760395D02*
X-634990403Y-84760334D01*
G75*
G02*
X-636035334Y-83560597I77403J1122334D01*
G01*
X-635995334Y-82980597D01*
G75*
G02*
X-634795597Y-81935666I1122334J-77403D01*
G01*
X-634795597Y-81935666D01*
G75*
G02*
X-633750666Y-83135403I-77403J-1122334D01*
G01*
X-633790666Y-83715403D01*
G75*
G02*
X-634990403Y-84760334I-1122334J77403D01*
G01*
G37*
%TD*%
D21*
%TO.C,D105*%
X-214245700Y-105563400D03*
X-214245700Y-108863400D03*
%TD*%
%TO.C,D104*%
X-223783400Y-86488000D03*
X-223783400Y-89788000D03*
%TD*%
%TO.C,D103*%
X-204708000Y-62675500D03*
X-204708000Y-65975500D03*
%TD*%
%TO.C,D102*%
X-204708000Y-143638000D03*
X-204708000Y-146938000D03*
%TD*%
%TO.C,D101*%
X-228532650Y-124588000D03*
X-228532650Y-127888000D03*
%TD*%
%TO.C,D99*%
X-233308400Y-105563400D03*
X-233308400Y-108863400D03*
%TD*%
%TO.C,D98*%
X-242833400Y-86513400D03*
X-242833400Y-89813400D03*
%TD*%
%TO.C,D97*%
X-223758000Y-62675500D03*
X-223758000Y-65975500D03*
%TD*%
%TO.C,D96*%
X-209455250Y-162713400D03*
X-209455250Y-166013400D03*
%TD*%
%TO.C,D95*%
X-247576850Y-143688800D03*
X-247576850Y-146988800D03*
%TD*%
%TO.C,D94*%
X-247557800Y-124562600D03*
X-247557800Y-127862600D03*
%TD*%
%TO.C,D93*%
X-252358400Y-105563400D03*
X-252358400Y-108863400D03*
%TD*%
%TO.C,D92*%
X-261883400Y-86513400D03*
X-261883400Y-89813400D03*
%TD*%
%TO.C,D91*%
X-264626600Y-62675500D03*
X-264626600Y-65975500D03*
%TD*%
%TO.C,D90*%
X-233255050Y-162713400D03*
X-233255050Y-166013400D03*
%TD*%
%TO.C,D89*%
X-266633200Y-143612600D03*
X-266633200Y-146912600D03*
%TD*%
%TO.C,D88*%
X-266607800Y-124562600D03*
X-266607800Y-127862600D03*
%TD*%
%TO.C,D87*%
X-271433800Y-105563400D03*
X-271433800Y-108863400D03*
%TD*%
%TO.C,D86*%
X-280933400Y-86513400D03*
X-280933400Y-89813400D03*
%TD*%
%TO.C,D85*%
X-283676600Y-62675500D03*
X-283676600Y-65975500D03*
%TD*%
%TO.C,D84*%
X-257051050Y-162713400D03*
X-257051050Y-166013400D03*
%TD*%
D20*
%TO.C,D83*%
G36*
X-294747382Y-148335848D02*
G01*
X-295906493Y-148646431D01*
X-296139430Y-147777098D01*
X-294980319Y-147466515D01*
X-294747382Y-148335848D01*
G37*
G36*
X-293893280Y-151523404D02*
G01*
X-295052391Y-151833987D01*
X-295285328Y-150964654D01*
X-294126217Y-150654071D01*
X-293893280Y-151523404D01*
G37*
%TD*%
%TO.C,D82*%
G36*
X-298206812Y-129510142D02*
G01*
X-299365923Y-129820725D01*
X-299598860Y-128951392D01*
X-298439749Y-128640809D01*
X-298206812Y-129510142D01*
G37*
G36*
X-297352710Y-132697698D02*
G01*
X-298511821Y-133008281D01*
X-298744758Y-132138948D01*
X-297585647Y-131828365D01*
X-297352710Y-132697698D01*
G37*
%TD*%
%TO.C,D81*%
G36*
X-301661212Y-110714142D02*
G01*
X-302820323Y-111024725D01*
X-303053260Y-110155392D01*
X-301894149Y-109844809D01*
X-301661212Y-110714142D01*
G37*
G36*
X-300807110Y-113901698D02*
G01*
X-301966221Y-114212281D01*
X-302199158Y-113342948D01*
X-301040047Y-113032365D01*
X-300807110Y-113901698D01*
G37*
%TD*%
%TO.C,D80*%
G36*
X-304261510Y-95080298D02*
G01*
X-305420621Y-95390881D01*
X-305653558Y-94521548D01*
X-304494447Y-94210965D01*
X-304261510Y-95080298D01*
G37*
G36*
X-305115612Y-91892742D02*
G01*
X-306274723Y-92203325D01*
X-306507660Y-91333992D01*
X-305348549Y-91023409D01*
X-305115612Y-91892742D01*
G37*
%TD*%
%TO.C,D79*%
G36*
X-310175262Y-67815942D02*
G01*
X-311334373Y-68126525D01*
X-311567310Y-67257192D01*
X-310408199Y-66946609D01*
X-310175262Y-67815942D01*
G37*
G36*
X-309321160Y-71003498D02*
G01*
X-310480271Y-71314081D01*
X-310713208Y-70444748D01*
X-309554097Y-70134165D01*
X-309321160Y-71003498D01*
G37*
%TD*%
%TO.C,D78*%
G36*
X-312808608Y-172881156D02*
G01*
X-313967719Y-173191739D01*
X-314200656Y-172322406D01*
X-313041545Y-172011823D01*
X-312808608Y-172881156D01*
G37*
G36*
X-311954506Y-176068712D02*
G01*
X-313113617Y-176379295D01*
X-313346554Y-175509962D01*
X-312187443Y-175199379D01*
X-311954506Y-176068712D01*
G37*
%TD*%
%TO.C,D77*%
G36*
X-313148268Y-153266350D02*
G01*
X-314307379Y-153576933D01*
X-314540316Y-152707600D01*
X-313381205Y-152397017D01*
X-313148268Y-153266350D01*
G37*
G36*
X-312294166Y-156453906D02*
G01*
X-313453277Y-156764489D01*
X-313686214Y-155895156D01*
X-312527103Y-155584573D01*
X-312294166Y-156453906D01*
G37*
%TD*%
%TO.C,D76*%
G36*
X-316607698Y-134440644D02*
G01*
X-317766809Y-134751227D01*
X-317999746Y-133881894D01*
X-316840635Y-133571311D01*
X-316607698Y-134440644D01*
G37*
G36*
X-315753596Y-137628200D02*
G01*
X-316912707Y-137938783D01*
X-317145644Y-137069450D01*
X-315986533Y-136758867D01*
X-315753596Y-137628200D01*
G37*
%TD*%
%TO.C,D75*%
G36*
X-320062098Y-115644644D02*
G01*
X-321221209Y-115955227D01*
X-321454146Y-115085894D01*
X-320295035Y-114775311D01*
X-320062098Y-115644644D01*
G37*
G36*
X-319207996Y-118832200D02*
G01*
X-320367107Y-119142783D01*
X-320600044Y-118273450D01*
X-319440933Y-117962867D01*
X-319207996Y-118832200D01*
G37*
%TD*%
%TO.C,D74*%
G36*
X-323516498Y-96823244D02*
G01*
X-324675609Y-97133827D01*
X-324908546Y-96264494D01*
X-323749435Y-95953911D01*
X-323516498Y-96823244D01*
G37*
G36*
X-322662396Y-100010800D02*
G01*
X-323821507Y-100321383D01*
X-324054444Y-99452050D01*
X-322895333Y-99141467D01*
X-322662396Y-100010800D01*
G37*
%TD*%
%TO.C,D73*%
G36*
X-328576148Y-72746444D02*
G01*
X-329735259Y-73057027D01*
X-329968196Y-72187694D01*
X-328809085Y-71877111D01*
X-328576148Y-72746444D01*
G37*
G36*
X-327722046Y-75934000D02*
G01*
X-328881157Y-76244583D01*
X-329114094Y-75375250D01*
X-327954983Y-75064667D01*
X-327722046Y-75934000D01*
G37*
%TD*%
%TO.C,D72*%
G36*
X-363411046Y-186440038D02*
G01*
X-364570157Y-186750621D01*
X-364803094Y-185881288D01*
X-363643983Y-185570705D01*
X-363411046Y-186440038D01*
G37*
G36*
X-362556944Y-189627594D02*
G01*
X-363716055Y-189938177D01*
X-363948992Y-189068844D01*
X-362789881Y-188758261D01*
X-362556944Y-189627594D01*
G37*
%TD*%
%TO.C,D71*%
G36*
X-331549154Y-158196852D02*
G01*
X-332708265Y-158507435D01*
X-332941202Y-157638102D01*
X-331782091Y-157327519D01*
X-331549154Y-158196852D01*
G37*
G36*
X-330695052Y-161384408D02*
G01*
X-331854163Y-161694991D01*
X-332087100Y-160825658D01*
X-330927989Y-160515075D01*
X-330695052Y-161384408D01*
G37*
%TD*%
%TO.C,D70*%
G36*
X-335008584Y-139371146D02*
G01*
X-336167695Y-139681729D01*
X-336400632Y-138812396D01*
X-335241521Y-138501813D01*
X-335008584Y-139371146D01*
G37*
G36*
X-334154482Y-142558702D02*
G01*
X-335313593Y-142869285D01*
X-335546530Y-141999952D01*
X-334387419Y-141689369D01*
X-334154482Y-142558702D01*
G37*
%TD*%
%TO.C,D69*%
G36*
X-338462984Y-120575146D02*
G01*
X-339622095Y-120885729D01*
X-339855032Y-120016396D01*
X-338695921Y-119705813D01*
X-338462984Y-120575146D01*
G37*
G36*
X-337608882Y-123762702D02*
G01*
X-338767993Y-124073285D01*
X-339000930Y-123203952D01*
X-337841819Y-122893369D01*
X-337608882Y-123762702D01*
G37*
%TD*%
%TO.C,D68*%
G36*
X-341917384Y-101753746D02*
G01*
X-343076495Y-102064329D01*
X-343309432Y-101194996D01*
X-342150321Y-100884413D01*
X-341917384Y-101753746D01*
G37*
G36*
X-341063282Y-104941302D02*
G01*
X-342222393Y-105251885D01*
X-342455330Y-104382552D01*
X-341296219Y-104071969D01*
X-341063282Y-104941302D01*
G37*
%TD*%
%TO.C,D67*%
G36*
X-346977034Y-77676946D02*
G01*
X-348136145Y-77987529D01*
X-348369082Y-77118196D01*
X-347209971Y-76807613D01*
X-346977034Y-77676946D01*
G37*
G36*
X-346122932Y-80864502D02*
G01*
X-347282043Y-81175085D01*
X-347514980Y-80305752D01*
X-346355869Y-79995169D01*
X-346122932Y-80864502D01*
G37*
%TD*%
%TO.C,D66*%
G36*
X-368350926Y-168057856D02*
G01*
X-369510037Y-168368439D01*
X-369742974Y-167499106D01*
X-368583863Y-167188523D01*
X-368350926Y-168057856D01*
G37*
G36*
X-367496824Y-171245412D02*
G01*
X-368655935Y-171555995D01*
X-368888872Y-170686662D01*
X-367729761Y-170376079D01*
X-367496824Y-171245412D01*
G37*
%TD*%
%TO.C,D65*%
G36*
X-349950040Y-163127354D02*
G01*
X-351109151Y-163437937D01*
X-351342088Y-162568604D01*
X-350182977Y-162258021D01*
X-349950040Y-163127354D01*
G37*
G36*
X-349095938Y-166314910D02*
G01*
X-350255049Y-166625493D01*
X-350487986Y-165756160D01*
X-349328875Y-165445577D01*
X-349095938Y-166314910D01*
G37*
%TD*%
%TO.C,D64*%
G36*
X-352555368Y-147489204D02*
G01*
X-353714479Y-147799787D01*
X-353947416Y-146930454D01*
X-352788305Y-146619871D01*
X-352555368Y-147489204D01*
G37*
G36*
X-353409470Y-144301648D02*
G01*
X-354568581Y-144612231D01*
X-354801518Y-143742898D01*
X-353642407Y-143432315D01*
X-353409470Y-144301648D01*
G37*
%TD*%
%TO.C,D63*%
G36*
X-356863870Y-125505648D02*
G01*
X-358022981Y-125816231D01*
X-358255918Y-124946898D01*
X-357096807Y-124636315D01*
X-356863870Y-125505648D01*
G37*
G36*
X-356009768Y-128693204D02*
G01*
X-357168879Y-129003787D01*
X-357401816Y-128134454D01*
X-356242705Y-127823871D01*
X-356009768Y-128693204D01*
G37*
%TD*%
%TO.C,D62*%
G36*
X-360318270Y-106684248D02*
G01*
X-361477381Y-106994831D01*
X-361710318Y-106125498D01*
X-360551207Y-105814915D01*
X-360318270Y-106684248D01*
G37*
G36*
X-359464168Y-109871804D02*
G01*
X-360623279Y-110182387D01*
X-360856216Y-109313054D01*
X-359697105Y-109002471D01*
X-359464168Y-109871804D01*
G37*
%TD*%
%TO.C,D61*%
G36*
X-365377920Y-82607448D02*
G01*
X-366537031Y-82918031D01*
X-366769968Y-82048698D01*
X-365610857Y-81738115D01*
X-365377920Y-82607448D01*
G37*
G36*
X-364523818Y-85795004D02*
G01*
X-365682929Y-86105587D01*
X-365915866Y-85236254D01*
X-364756755Y-84925671D01*
X-364523818Y-85795004D01*
G37*
%TD*%
%TO.C,D60*%
G36*
X-377903875Y-167868439D02*
G01*
X-379062986Y-167557856D01*
X-378830049Y-166688523D01*
X-377670938Y-166999106D01*
X-377903875Y-167868439D01*
G37*
G36*
X-378757977Y-171055995D02*
G01*
X-379917088Y-170745412D01*
X-379684151Y-169876079D01*
X-378525040Y-170186662D01*
X-378757977Y-171055995D01*
G37*
%TD*%
%TO.C,D59*%
G36*
X-396304761Y-163437937D02*
G01*
X-397463872Y-163127354D01*
X-397230935Y-162258021D01*
X-396071824Y-162568604D01*
X-396304761Y-163437937D01*
G37*
G36*
X-397158863Y-166625493D02*
G01*
X-398317974Y-166314910D01*
X-398085037Y-165445577D01*
X-396925926Y-165756160D01*
X-397158863Y-166625493D01*
G37*
%TD*%
%TO.C,D58*%
G36*
X-393729863Y-147829493D02*
G01*
X-394888974Y-147518910D01*
X-394656037Y-146649577D01*
X-393496926Y-146960160D01*
X-393729863Y-147829493D01*
G37*
G36*
X-392875761Y-144641937D02*
G01*
X-394034872Y-144331354D01*
X-393801935Y-143462021D01*
X-392642824Y-143772604D01*
X-392875761Y-144641937D01*
G37*
%TD*%
%TO.C,D57*%
G36*
X-389687524Y-125718937D02*
G01*
X-390846635Y-125408354D01*
X-390613698Y-124539021D01*
X-389454587Y-124849604D01*
X-389687524Y-125718937D01*
G37*
G36*
X-390541626Y-128906493D02*
G01*
X-391700737Y-128595910D01*
X-391467800Y-127726577D01*
X-390308689Y-128037160D01*
X-390541626Y-128906493D01*
G37*
%TD*%
%TO.C,D56*%
G36*
X-386379527Y-106905934D02*
G01*
X-387538638Y-106595351D01*
X-387305701Y-105726018D01*
X-386146590Y-106036601D01*
X-386379527Y-106905934D01*
G37*
G36*
X-387233629Y-110093490D02*
G01*
X-388392740Y-109782907D01*
X-388159803Y-108913574D01*
X-387000692Y-109224157D01*
X-387233629Y-110093490D01*
G37*
%TD*%
%TO.C,D55*%
G36*
X-381680527Y-82903434D02*
G01*
X-382839638Y-82592851D01*
X-382606701Y-81723518D01*
X-381447590Y-82034101D01*
X-381680527Y-82903434D01*
G37*
G36*
X-382534629Y-86090990D02*
G01*
X-383693740Y-85780407D01*
X-383460803Y-84911074D01*
X-382301692Y-85221657D01*
X-382534629Y-86090990D01*
G37*
%TD*%
%TO.C,D54*%
G36*
X-382834377Y-186269325D02*
G01*
X-383993488Y-185958742D01*
X-383760551Y-185089409D01*
X-382601440Y-185399992D01*
X-382834377Y-186269325D01*
G37*
G36*
X-383688479Y-189456881D02*
G01*
X-384847590Y-189146298D01*
X-384614653Y-188276965D01*
X-383455542Y-188587548D01*
X-383688479Y-189456881D01*
G37*
%TD*%
%TO.C,D53*%
G36*
X-414705647Y-158507435D02*
G01*
X-415864758Y-158196852D01*
X-415631821Y-157327519D01*
X-414472710Y-157638102D01*
X-414705647Y-158507435D01*
G37*
G36*
X-415559749Y-161694991D02*
G01*
X-416718860Y-161384408D01*
X-416485923Y-160515075D01*
X-415326812Y-160825658D01*
X-415559749Y-161694991D01*
G37*
%TD*%
%TO.C,D52*%
G36*
X-411276647Y-139711435D02*
G01*
X-412435758Y-139400852D01*
X-412202821Y-138531519D01*
X-411043710Y-138842102D01*
X-411276647Y-139711435D01*
G37*
G36*
X-412130749Y-142898991D02*
G01*
X-413289860Y-142588408D01*
X-413056923Y-141719075D01*
X-411897812Y-142029658D01*
X-412130749Y-142898991D01*
G37*
%TD*%
%TO.C,D51*%
G36*
X-408088410Y-120788435D02*
G01*
X-409247521Y-120477852D01*
X-409014584Y-119608519D01*
X-407855473Y-119919102D01*
X-408088410Y-120788435D01*
G37*
G36*
X-408942512Y-123975991D02*
G01*
X-410101623Y-123665408D01*
X-409868686Y-122796075D01*
X-408709575Y-123106658D01*
X-408942512Y-123975991D01*
G37*
%TD*%
%TO.C,D50*%
G36*
X-404780413Y-101975432D02*
G01*
X-405939524Y-101664849D01*
X-405706587Y-100795516D01*
X-404547476Y-101106099D01*
X-404780413Y-101975432D01*
G37*
G36*
X-405634515Y-105162988D02*
G01*
X-406793626Y-104852405D01*
X-406560689Y-103983072D01*
X-405401578Y-104293655D01*
X-405634515Y-105162988D01*
G37*
%TD*%
%TO.C,D49*%
G36*
X-400081413Y-77972932D02*
G01*
X-401240524Y-77662349D01*
X-401007587Y-76793016D01*
X-399848476Y-77103599D01*
X-400081413Y-77972932D01*
G37*
G36*
X-400935515Y-81160488D02*
G01*
X-402094626Y-80849905D01*
X-401861689Y-79980572D01*
X-400702578Y-80291155D01*
X-400935515Y-81160488D01*
G37*
%TD*%
%TO.C,D48*%
G36*
X-401265243Y-181840421D02*
G01*
X-402424354Y-181529838D01*
X-402191417Y-180660505D01*
X-401032306Y-180971088D01*
X-401265243Y-181840421D01*
G37*
G36*
X-402119345Y-185027977D02*
G01*
X-403278456Y-184717394D01*
X-403045519Y-183848061D01*
X-401886408Y-184158644D01*
X-402119345Y-185027977D01*
G37*
%TD*%
%TO.C,D47*%
G36*
X-433106533Y-153576933D02*
G01*
X-434265644Y-153266350D01*
X-434032707Y-152397017D01*
X-432873596Y-152707600D01*
X-433106533Y-153576933D01*
G37*
G36*
X-433960635Y-156764489D02*
G01*
X-435119746Y-156453906D01*
X-434886809Y-155584573D01*
X-433727698Y-155895156D01*
X-433960635Y-156764489D01*
G37*
%TD*%
%TO.C,D46*%
G36*
X-429677533Y-134780933D02*
G01*
X-430836644Y-134470350D01*
X-430603707Y-133601017D01*
X-429444596Y-133911600D01*
X-429677533Y-134780933D01*
G37*
G36*
X-430531635Y-137968489D02*
G01*
X-431690746Y-137657906D01*
X-431457809Y-136788573D01*
X-430298698Y-137099156D01*
X-430531635Y-137968489D01*
G37*
%TD*%
%TO.C,D45*%
G36*
X-426489296Y-115857933D02*
G01*
X-427648407Y-115547350D01*
X-427415470Y-114678017D01*
X-426256359Y-114988600D01*
X-426489296Y-115857933D01*
G37*
G36*
X-427343398Y-119045489D02*
G01*
X-428502509Y-118734906D01*
X-428269572Y-117865573D01*
X-427110461Y-118176156D01*
X-427343398Y-119045489D01*
G37*
%TD*%
%TO.C,D44*%
G36*
X-423181299Y-97044930D02*
G01*
X-424340410Y-96734347D01*
X-424107473Y-95865014D01*
X-422948362Y-96175597D01*
X-423181299Y-97044930D01*
G37*
G36*
X-424035401Y-100232486D02*
G01*
X-425194512Y-99921903D01*
X-424961575Y-99052570D01*
X-423802464Y-99363153D01*
X-424035401Y-100232486D01*
G37*
%TD*%
%TO.C,D43*%
G36*
X-419336401Y-76229986D02*
G01*
X-420495512Y-75919403D01*
X-420262575Y-75050070D01*
X-419103464Y-75360653D01*
X-419336401Y-76229986D01*
G37*
G36*
X-418482299Y-73042430D02*
G01*
X-419641410Y-72731847D01*
X-419408473Y-71862514D01*
X-418249362Y-72173097D01*
X-418482299Y-73042430D01*
G37*
%TD*%
%TO.C,D42*%
G36*
X-451895908Y-168261944D02*
G01*
X-453055019Y-167951361D01*
X-452822082Y-167082028D01*
X-451662971Y-167392611D01*
X-451895908Y-168261944D01*
G37*
G36*
X-452750010Y-171449500D02*
G01*
X-453909121Y-171138917D01*
X-453676184Y-170269584D01*
X-452517073Y-170580167D01*
X-452750010Y-171449500D01*
G37*
%TD*%
%TO.C,D41*%
G36*
X-451507419Y-148646431D02*
G01*
X-452666530Y-148335848D01*
X-452433593Y-147466515D01*
X-451274482Y-147777098D01*
X-451507419Y-148646431D01*
G37*
G36*
X-452361521Y-151833987D02*
G01*
X-453520632Y-151523404D01*
X-453287695Y-150654071D01*
X-452128584Y-150964654D01*
X-452361521Y-151833987D01*
G37*
%TD*%
%TO.C,D40*%
G36*
X-448078419Y-129850431D02*
G01*
X-449237530Y-129539848D01*
X-449004593Y-128670515D01*
X-447845482Y-128981098D01*
X-448078419Y-129850431D01*
G37*
G36*
X-448932521Y-133037987D02*
G01*
X-450091632Y-132727404D01*
X-449858695Y-131858071D01*
X-448699584Y-132168654D01*
X-448932521Y-133037987D01*
G37*
%TD*%
%TO.C,D39*%
G36*
X-444890182Y-110927431D02*
G01*
X-446049293Y-110616848D01*
X-445816356Y-109747515D01*
X-444657245Y-110058098D01*
X-444890182Y-110927431D01*
G37*
G36*
X-445744284Y-114114987D02*
G01*
X-446903395Y-113804404D01*
X-446670458Y-112935071D01*
X-445511347Y-113245654D01*
X-445744284Y-114114987D01*
G37*
%TD*%
%TO.C,D38*%
G36*
X-441402335Y-91303175D02*
G01*
X-442561446Y-90992592D01*
X-442328509Y-90123259D01*
X-441169398Y-90433842D01*
X-441402335Y-91303175D01*
G37*
G36*
X-442256437Y-94490731D02*
G01*
X-443415548Y-94180148D01*
X-443182611Y-93310815D01*
X-442023500Y-93621398D01*
X-442256437Y-94490731D01*
G37*
%TD*%
D21*
%TO.C,D36*%
X-480218750Y-162688000D03*
X-480218750Y-165988000D03*
%TD*%
%TO.C,D35*%
X-484886000Y-143638000D03*
X-484886000Y-146938000D03*
%TD*%
%TO.C,D34*%
X-480123500Y-124588000D03*
X-480123500Y-127888000D03*
%TD*%
%TO.C,D33*%
X-475361000Y-105538000D03*
X-475361000Y-108838000D03*
%TD*%
%TO.C,D32*%
X-470598500Y-86488000D03*
X-470598500Y-89788000D03*
%TD*%
%TO.C,D31*%
X-465899500Y-63175500D03*
X-465899500Y-66475500D03*
%TD*%
%TO.C,D30*%
X-503967750Y-162688000D03*
X-503967750Y-165988000D03*
%TD*%
%TO.C,D29*%
X-503936000Y-143638000D03*
X-503936000Y-146938000D03*
%TD*%
%TO.C,D28*%
X-499141750Y-124588000D03*
X-499141750Y-127888000D03*
%TD*%
%TO.C,D27*%
X-494474500Y-108838000D03*
X-494474500Y-105538000D03*
%TD*%
%TO.C,D26*%
X-489712000Y-86488000D03*
X-489712000Y-89788000D03*
%TD*%
%TO.C,D25*%
X-484949500Y-62675500D03*
X-484949500Y-65975500D03*
%TD*%
%TO.C,D24*%
X-527812000Y-162688000D03*
X-527812000Y-165988000D03*
%TD*%
%TO.C,D23*%
X-546862000Y-162688000D03*
X-546862000Y-165988000D03*
%TD*%
%TO.C,D22*%
X-565975500Y-162688000D03*
X-565975500Y-165988000D03*
%TD*%
%TO.C,D21*%
X-546862000Y-143638000D03*
X-546862000Y-146938000D03*
%TD*%
%TO.C,D20*%
X-565975500Y-86488000D03*
X-565975500Y-89788000D03*
%TD*%
%TO.C,D18*%
X-589788000Y-153163000D03*
X-589788000Y-156463000D03*
%TD*%
%TO.C,D17*%
X-608838000Y-165988000D03*
X-608838000Y-162688000D03*
%TD*%
%TO.C,D16*%
X-608838000Y-143638000D03*
X-608838000Y-146938000D03*
%TD*%
%TO.C,D15*%
X-608838000Y-124588000D03*
X-608838000Y-127888000D03*
%TD*%
%TO.C,D14*%
X-589788000Y-118363000D03*
X-589788000Y-115063000D03*
%TD*%
%TO.C,D13*%
X-589788000Y-86488000D03*
X-589788000Y-89788000D03*
%TD*%
%TO.C,D12*%
X-627888000Y-162688000D03*
X-627888000Y-165988000D03*
%TD*%
%TO.C,D11*%
X-627888000Y-143638000D03*
X-627888000Y-146938000D03*
%TD*%
%TO.C,D10*%
X-627888000Y-124588000D03*
X-627888000Y-127888000D03*
%TD*%
%TO.C,D9*%
X-627888000Y-105538000D03*
X-627888000Y-108838000D03*
%TD*%
%TO.C,D8*%
X-608838000Y-105538000D03*
X-608838000Y-108838000D03*
%TD*%
%TO.C,D7*%
X-608838000Y-86488000D03*
X-608838000Y-89788000D03*
%TD*%
D22*
%TO.C,D6*%
X-654813000Y-154813000D03*
X-658113000Y-154813000D03*
%TD*%
D21*
%TO.C,D5*%
X-646938000Y-143638000D03*
X-646938000Y-146938000D03*
%TD*%
%TO.C,D4*%
X-646938000Y-124588000D03*
X-646938000Y-127888000D03*
%TD*%
%TO.C,D3*%
X-646938000Y-105538000D03*
X-646938000Y-108838000D03*
%TD*%
%TO.C,D2*%
X-646938000Y-86488000D03*
X-646938000Y-89788000D03*
%TD*%
%TO.C,D1*%
X-627888000Y-86488000D03*
X-627888000Y-89788000D03*
%TD*%
M02*
