  0
SECTION
  2
HEADER
  9
$ANGBASE
  50
0.0
  9
$ANGDIR
  70
1
  9
$MEASUREMENT
  70
0
  0
ENDSEC
  0
SECTION
  2
TABLES
  0
TABLE
  2
LTYPE
  70
4
  0
LTYPE
  5
40F
  2
CONTINUOUS
  70
0
  3
Solid line
  72
65
  73
0
  40
0.0
  0
LTYPE
  5
410
  2
DASHDOT
 70
0
  3
Dash Dot ____ _ ____ _
 72
65
 73
4
 40
2.0
 49
1.25
 49
-0.25
 49
0.25
 49
-0.25
  0
LTYPE
  5
411
  2
DASHED
 70
0
  3
Dashed __ __ __ __ __
 72
65
 73
2
 40
0.75
 49
0.5
 49
-0.25
  0
LTYPE
  5
43B
  2
DOTTED
 70
0
  3
Dotted .  .  .  .
 72
65
 73
2
 40
0.2
 49
0.0
 49
-0.2
  0
ENDTAB
  0
TABLE
  2
STYLE
  70
4
  0
STYLE
  2
KICAD
  70
0
  40
0
  41
1
  42
1
  50
0
  71
0
  3
isocp.shx
  0
STYLE
  2
KICADB
  70
0
  40
0
  41
1
  42
1
  50
0
  71
0
  3
isocp.shx
  0
STYLE
  2
KICADI
  70
0
  40
0
  41
1
  42
1
  50
15
  71
0
  3
isocp.shx
  0
STYLE
  2
KICADBI
  70
0
  40
0
  41
1
  42
1
  50
15
  71
0
  3
isocp.shx
  0
ENDTAB
  0
TABLE
  2
LAYER
  70
1
  0
LAYER
  2
BLACK
  70
0
  62
7
  6
CONTINUOUS
  0
ENDTAB
  0
ENDSEC
  0
SECTION
  2
ENTITIES
0
LINE
8
BLACK
6
CONTINUOUS
10
-14.5987
20
-7.86995
11
-14.5988
21
-7.86997
0
LINE
8
BLACK
6
CONTINUOUS
10
-14.5988
20
-7.86997
11
-14.5989
21
-7.86998
0
LINE
8
BLACK
6
CONTINUOUS
10
-14.5989
20
-7.86998
11
-14.5989
21
-7.86999
0
LINE
8
BLACK
6
CONTINUOUS
10
-14.5989
20
-7.86999
11
-14.599
21
-7.86998
0
LINE
8
BLACK
6
CONTINUOUS
10
-14.599
20
-7.86998
11
-15.582
21
-7.86998
0
LINE
8
BLACK
6
CONTINUOUS
10
-15.582
20
-7.86998
11
-15.5821
21
-7.86999
0
LINE
8
BLACK
6
CONTINUOUS
10
-15.5821
20
-7.86999
11
-15.5821
21
-7.86998
0
LINE
8
BLACK
6
CONTINUOUS
10
-15.5821
20
-7.86998
11
-15.5822
21
-7.86997
0
LINE
8
BLACK
6
CONTINUOUS
10
-15.5822
20
-7.86997
11
-15.5823
21
-7.86995
0
LINE
8
BLACK
6
CONTINUOUS
10
-15.5823
20
-7.86995
11
-19.3971
21
-6.84698
0
LINE
8
BLACK
6
CONTINUOUS
10
-19.3971
20
-6.84698
11
-26.1196
21
-6.84698
0
LINE
8
BLACK
6
CONTINUOUS
10
-26.1196
20
-6.84698
11
-26.1197
21
-6.84698
0
LINE
8
BLACK
6
CONTINUOUS
10
-26.1197
20
-6.84698
11
-26.1197
21
-6.84698
0
LINE
8
BLACK
6
CONTINUOUS
10
-26.1197
20
-6.84698
11
-26.1388
21
-6.84511
0
LINE
8
BLACK
6
CONTINUOUS
10
-26.1388
20
-6.84511
11
-26.1388
21
-6.8451
0
LINE
8
BLACK
6
CONTINUOUS
10
-26.1388
20
-6.8451
11
-26.1389
21
-6.84508
0
LINE
8
BLACK
6
CONTINUOUS
10
-26.1389
20
-6.84508
11
-26.139
21
-6.84507
0
LINE
8
BLACK
6
CONTINUOUS
10
-26.139
20
-6.84507
11
-26.1574
21
-6.83952
0
LINE
8
BLACK
6
CONTINUOUS
10
-26.1574
20
-6.83952
11
-26.1574
21
-6.83951
0
LINE
8
BLACK
6
CONTINUOUS
10
-26.1574
20
-6.83951
11
-26.1575
21
-6.83948
0
LINE
8
BLACK
6
CONTINUOUS
10
-26.1575
20
-6.83948
11
-26.1575
21
-6.83944
0
LINE
8
BLACK
6
CONTINUOUS
10
-26.1575
20
-6.83944
11
-26.1745
21
-6.83042
0
LINE
8
BLACK
6
CONTINUOUS
10
-26.1745
20
-6.83042
11
-26.1745
21
-6.83042
0
LINE
8
BLACK
6
CONTINUOUS
10
-26.1745
20
-6.83042
11
-26.1746
21
-6.83037
0
LINE
8
BLACK
6
CONTINUOUS
10
-26.1746
20
-6.83037
11
-26.1747
21
-6.83032
0
LINE
8
BLACK
6
CONTINUOUS
10
-26.1747
20
-6.83032
11
-26.1896
21
-6.81818
0
LINE
8
BLACK
6
CONTINUOUS
10
-26.1896
20
-6.81818
11
-26.1896
21
-6.81817
0
LINE
8
BLACK
6
CONTINUOUS
10
-26.1896
20
-6.81817
11
-26.1896
21
-6.8181
0
LINE
8
BLACK
6
CONTINUOUS
10
-26.1896
20
-6.8181
11
-26.1897
21
-6.81804
0
LINE
8
BLACK
6
CONTINUOUS
10
-26.1897
20
-6.81804
11
-26.2019
21
-6.80324
0
LINE
8
BLACK
6
CONTINUOUS
10
-26.2019
20
-6.80324
11
-26.2019
21
-6.80323
0
LINE
8
BLACK
6
CONTINUOUS
10
-26.2019
20
-6.80323
11
-26.202
21
-6.80316
0
LINE
8
BLACK
6
CONTINUOUS
10
-26.202
20
-6.80316
11
-26.202
21
-6.80308
0
LINE
8
BLACK
6
CONTINUOUS
10
-26.202
20
-6.80308
11
-26.2112
21
-6.78618
0
LINE
8
BLACK
6
CONTINUOUS
10
-26.2112
20
-6.78618
11
-26.2112
21
-6.78617
0
LINE
8
BLACK
6
CONTINUOUS
10
-26.2112
20
-6.78617
11
-26.2112
21
-6.78609
0
LINE
8
BLACK
6
CONTINUOUS
10
-26.2112
20
-6.78609
11
-26.2112
21
-6.78601
0
LINE
8
BLACK
6
CONTINUOUS
10
-26.2112
20
-6.78601
11
-26.2169
21
-6.76766
0
LINE
8
BLACK
6
CONTINUOUS
10
-26.2169
20
-6.76766
11
-26.2169
21
-6.76764
0
LINE
8
BLACK
6
CONTINUOUS
10
-26.2169
20
-6.76764
11
-26.217
21
-6.76756
0
LINE
8
BLACK
6
CONTINUOUS
10
-26.217
20
-6.76756
11
-26.217
21
-6.76747
0
LINE
8
BLACK
6
CONTINUOUS
10
-26.217
20
-6.76747
11
-26.219
21
-6.74836
0
LINE
8
BLACK
6
CONTINUOUS
10
-26.219
20
-6.74836
11
-26.219
21
-6.74835
0
LINE
8
BLACK
6
CONTINUOUS
10
-26.219
20
-6.74835
11
-26.219
21
-6.74831
0
LINE
8
BLACK
6
CONTINUOUS
10
-26.219
20
-6.74831
11
-26.219
21
-6.74827
0
LINE
8
BLACK
6
CONTINUOUS
10
-26.219
20
-6.74827
11
-26.219
21
-6.74762
0
LINE
8
BLACK
6
CONTINUOUS
10
-26.219
20
-6.74762
11
-26.219
21
-6.74762
0
LINE
8
BLACK
6
CONTINUOUS
10
-26.219
20
-6.74762
11
-26.219
21
-6.74759
0
LINE
8
BLACK
6
CONTINUOUS
10
-26.219
20
-6.74759
11
-26.219
21
-6.74758
0
LINE
8
BLACK
6
CONTINUOUS
10
-26.219
20
-6.74758
11
-26.219
21
-6.74756
0
LINE
8
BLACK
6
CONTINUOUS
10
-26.219
20
-6.74756
11
-26.219
21
-2.25638
0
LINE
8
BLACK
6
CONTINUOUS
10
-26.219
20
-2.25638
11
-26.219
21
-2.25633
0
LINE
8
BLACK
6
CONTINUOUS
10
-26.219
20
-2.25633
11
-26.219
21
-2.25633
0
LINE
8
BLACK
6
CONTINUOUS
10
-26.219
20
-2.25633
11
-26.2171
21
-2.23721
0
LINE
8
BLACK
6
CONTINUOUS
10
-26.2171
20
-2.23721
11
-26.2171
21
-2.2372
0
LINE
8
BLACK
6
CONTINUOUS
10
-26.2171
20
-2.2372
11
-26.2171
21
-2.23711
0
LINE
8
BLACK
6
CONTINUOUS
10
-26.2171
20
-2.23711
11
-26.2171
21
-2.23702
0
LINE
8
BLACK
6
CONTINUOUS
10
-26.2171
20
-2.23702
11
-26.2115
21
-2.21863
0
LINE
8
BLACK
6
CONTINUOUS
10
-26.2115
20
-2.21863
11
-26.2115
21
-2.21862
0
LINE
8
BLACK
6
CONTINUOUS
10
-26.2115
20
-2.21862
11
-26.2115
21
-2.21854
0
LINE
8
BLACK
6
CONTINUOUS
10
-26.2115
20
-2.21854
11
-26.2114
21
-2.21846
0
LINE
8
BLACK
6
CONTINUOUS
10
-26.2114
20
-2.21846
11
-26.2024
21
-2.2015
0
LINE
8
BLACK
6
CONTINUOUS
10
-26.2024
20
-2.2015
11
-26.2024
21
-2.2015
0
LINE
8
BLACK
6
CONTINUOUS
10
-26.2024
20
-2.2015
11
-26.2024
21
-2.2015
0
LINE
8
BLACK
6
CONTINUOUS
10
-26.2024
20
-2.2015
11
-26.2024
21
-2.20148
0
LINE
8
BLACK
6
CONTINUOUS
10
-26.2024
20
-2.20148
11
-26.2024
21
-2.20141
0
LINE
8
BLACK
6
CONTINUOUS
10
-26.2024
20
-2.20141
11
-26.2023
21
-2.20134
0
LINE
8
BLACK
6
CONTINUOUS
10
-26.2023
20
-2.20134
11
-26.1902
21
-2.18645
0
LINE
8
BLACK
6
CONTINUOUS
10
-26.1902
20
-2.18645
11
-26.1902
21
-2.18645
0
LINE
8
BLACK
6
CONTINUOUS
10
-26.1902
20
-2.18645
11
-26.1902
21
-2.18645
0
LINE
8
BLACK
6
CONTINUOUS
10
-26.1902
20
-2.18645
11
-26.1902
21
-2.18644
0
LINE
8
BLACK
6
CONTINUOUS
10
-26.1902
20
-2.18644
11
-26.1901
21
-2.18638
0
LINE
8
BLACK
6
CONTINUOUS
10
-26.1901
20
-2.18638
11
-26.19
21
-2.18631
0
LINE
8
BLACK
6
CONTINUOUS
10
-26.19
20
-2.18631
11
-26.1752
21
-2.17407
0
LINE
8
BLACK
6
CONTINUOUS
10
-26.1752
20
-2.17407
11
-26.1752
21
-2.17407
0
LINE
8
BLACK
6
CONTINUOUS
10
-26.1752
20
-2.17407
11
-26.1752
21
-2.17407
0
LINE
8
BLACK
6
CONTINUOUS
10
-26.1752
20
-2.17407
11
-26.1752
21
-2.17406
0
LINE
8
BLACK
6
CONTINUOUS
10
-26.1752
20
-2.17406
11
-26.1752
21
-2.17401
0
LINE
8
BLACK
6
CONTINUOUS
10
-26.1752
20
-2.17401
11
-26.1751
21
-2.17396
0
LINE
8
BLACK
6
CONTINUOUS
10
-26.1751
20
-2.17396
11
-26.1582
21
-2.16482
0
LINE
8
BLACK
6
CONTINUOUS
10
-26.1582
20
-2.16482
11
-26.1582
21
-2.16482
0
LINE
8
BLACK
6
CONTINUOUS
10
-26.1582
20
-2.16482
11
-26.1581
21
-2.16478
0
LINE
8
BLACK
6
CONTINUOUS
10
-26.1581
20
-2.16478
11
-26.158
21
-2.16475
0
LINE
8
BLACK
6
CONTINUOUS
10
-26.158
20
-2.16475
11
-26.1397
21
-2.15907
0
LINE
8
BLACK
6
CONTINUOUS
10
-26.1397
20
-2.15907
11
-26.1396
21
-2.15907
0
LINE
8
BLACK
6
CONTINUOUS
10
-26.1396
20
-2.15907
11
-26.1396
21
-2.15905
0
LINE
8
BLACK
6
CONTINUOUS
10
-26.1396
20
-2.15905
11
-26.1395
21
-2.15903
0
LINE
8
BLACK
6
CONTINUOUS
10
-26.1395
20
-2.15903
11
-26.1204
21
-2.15702
0
LINE
8
BLACK
6
CONTINUOUS
10
-26.1204
20
-2.15702
11
-26.1204
21
-2.15702
0
LINE
8
BLACK
6
CONTINUOUS
10
-26.1204
20
-2.15702
11
-26.1203
21
-2.15702
0
LINE
8
BLACK
6
CONTINUOUS
10
-26.1203
20
-2.15702
11
-26.1203
21
-2.15702
0
LINE
8
BLACK
6
CONTINUOUS
10
-26.1203
20
-2.15702
11
-26.1196
21
-2.15702
0
LINE
8
BLACK
6
CONTINUOUS
10
-26.1196
20
-2.15702
11
-26.1196
21
-2.15702
0
LINE
8
BLACK
6
CONTINUOUS
10
-26.1196
20
-2.15702
11
-26.1196
21
-2.15702
0
LINE
8
BLACK
6
CONTINUOUS
10
-26.1196
20
-2.15702
11
-26.1196
21
-2.15702
0
LINE
8
BLACK
6
CONTINUOUS
10
-26.1196
20
-2.15702
11
-26.1196
21
-2.15702
0
LINE
8
BLACK
6
CONTINUOUS
10
-26.1196
20
-2.15702
11
-8.02738
21
-2.15677
0
LINE
8
BLACK
6
CONTINUOUS
10
-8.02738
20
-2.15677
11
-8.02733
21
-2.15677
0
LINE
8
BLACK
6
CONTINUOUS
10
-8.02733
20
-2.15677
11
-8.02733
21
-2.15677
0
LINE
8
BLACK
6
CONTINUOUS
10
-8.02733
20
-2.15677
11
-8.02731
21
-2.15677
0
LINE
8
BLACK
6
CONTINUOUS
10
-8.02731
20
-2.15677
11
-8.02723
21
-2.15678
0
LINE
8
BLACK
6
CONTINUOUS
10
-8.02723
20
-2.15678
11
-8.02723
21
-2.15678
0
LINE
8
BLACK
6
CONTINUOUS
10
-8.02723
20
-2.15678
11
-8.00817
21
-2.1587
0
LINE
8
BLACK
6
CONTINUOUS
10
-8.00817
20
-2.1587
11
-8.00816
21
-2.1587
0
LINE
8
BLACK
6
CONTINUOUS
10
-8.00816
20
-2.1587
11
-8.00816
21
-2.1587
0
LINE
8
BLACK
6
CONTINUOUS
10
-8.00816
20
-2.1587
11
-8.00815
21
-2.1587
0
LINE
8
BLACK
6
CONTINUOUS
10
-8.00815
20
-2.1587
11
-8.00806
21
-2.15872
0
LINE
8
BLACK
6
CONTINUOUS
10
-8.00806
20
-2.15872
11
-8.00798
21
-2.15874
0
LINE
8
BLACK
6
CONTINUOUS
10
-8.00798
20
-2.15874
11
-7.98955
21
-2.16435
0
LINE
8
BLACK
6
CONTINUOUS
10
-7.98955
20
-2.16435
11
-7.98955
21
-2.16435
0
LINE
8
BLACK
6
CONTINUOUS
10
-7.98955
20
-2.16435
11
-7.98955
21
-2.16435
0
LINE
8
BLACK
6
CONTINUOUS
10
-7.98955
20
-2.16435
11
-7.98954
21
-2.16435
0
LINE
8
BLACK
6
CONTINUOUS
10
-7.98954
20
-2.16435
11
-7.98946
21
-2.16439
0
LINE
8
BLACK
6
CONTINUOUS
10
-7.98946
20
-2.16439
11
-7.98938
21
-2.16442
0
LINE
8
BLACK
6
CONTINUOUS
10
-7.98938
20
-2.16442
11
-7.9724
21
-2.17351
0
LINE
8
BLACK
6
CONTINUOUS
10
-7.9724
20
-2.17351
11
-7.97238
21
-2.17351
0
LINE
8
BLACK
6
CONTINUOUS
10
-7.97238
20
-2.17351
11
-7.97231
21
-2.17357
0
LINE
8
BLACK
6
CONTINUOUS
10
-7.97231
20
-2.17357
11
-7.97224
21
-2.17361
0
LINE
8
BLACK
6
CONTINUOUS
10
-7.97224
20
-2.17361
11
-7.95734
21
-2.18582
0
LINE
8
BLACK
6
CONTINUOUS
10
-7.95734
20
-2.18582
11
-7.95733
21
-2.18583
0
LINE
8
BLACK
6
CONTINUOUS
10
-7.95733
20
-2.18583
11
-7.95727
21
-2.1859
0
LINE
8
BLACK
6
CONTINUOUS
10
-7.95727
20
-2.1859
11
-7.95721
21
-2.18596
0
LINE
8
BLACK
6
CONTINUOUS
10
-7.95721
20
-2.18596
11
-7.94497
21
-2.20083
0
LINE
8
BLACK
6
CONTINUOUS
10
-7.94497
20
-2.20083
11
-7.94496
21
-2.20084
0
LINE
8
BLACK
6
CONTINUOUS
10
-7.94496
20
-2.20084
11
-7.94491
21
-2.20092
0
LINE
8
BLACK
6
CONTINUOUS
10
-7.94491
20
-2.20092
11
-7.94486
21
-2.20099
0
LINE
8
BLACK
6
CONTINUOUS
10
-7.94486
20
-2.20099
11
-7.93575
21
-2.21795
0
LINE
8
BLACK
6
CONTINUOUS
10
-7.93575
20
-2.21795
11
-7.93574
21
-2.21796
0
LINE
8
BLACK
6
CONTINUOUS
10
-7.93574
20
-2.21796
11
-7.93571
21
-2.21805
0
LINE
8
BLACK
6
CONTINUOUS
10
-7.93571
20
-2.21805
11
-7.93567
21
-2.21813
0
LINE
8
BLACK
6
CONTINUOUS
10
-7.93567
20
-2.21813
11
-7.93002
21
-2.23654
0
LINE
8
BLACK
6
CONTINUOUS
10
-7.93002
20
-2.23654
11
-7.93002
21
-2.23655
0
LINE
8
BLACK
6
CONTINUOUS
10
-7.93002
20
-2.23655
11
-7.93
21
-2.23664
0
LINE
8
BLACK
6
CONTINUOUS
10
-7.93
20
-2.23664
11
-7.92999
21
-2.23673
0
LINE
8
BLACK
6
CONTINUOUS
10
-7.92999
20
-2.23673
11
-7.92802
21
-2.25589
0
LINE
8
BLACK
6
CONTINUOUS
10
-7.92802
20
-2.25589
11
-7.92802
21
-2.2559
0
LINE
8
BLACK
6
CONTINUOUS
10
-7.92802
20
-2.2559
11
-7.92802
21
-2.25594
0
LINE
8
BLACK
6
CONTINUOUS
10
-7.92802
20
-2.25594
11
-7.92802
21
-2.25598
0
LINE
8
BLACK
6
CONTINUOUS
10
-7.92802
20
-2.25598
11
-7.92802
21
-2.25638
0
LINE
8
BLACK
6
CONTINUOUS
10
-7.92802
20
-2.25638
11
-7.92802
21
-2.25638
0
LINE
8
BLACK
6
CONTINUOUS
10
-7.92802
20
-2.25638
11
-7.92802
21
-6.74762
0
LINE
8
BLACK
6
CONTINUOUS
10
-7.92802
20
-6.74762
11
-7.92802
21
-6.74767
0
LINE
8
BLACK
6
CONTINUOUS
10
-7.92802
20
-6.74767
11
-7.92802
21
-6.74767
0
LINE
8
BLACK
6
CONTINUOUS
10
-7.92802
20
-6.74767
11
-7.92989
21
-6.76679
0
LINE
8
BLACK
6
CONTINUOUS
10
-7.92989
20
-6.76679
11
-7.9299
21
-6.7668
0
LINE
8
BLACK
6
CONTINUOUS
10
-7.9299
20
-6.7668
11
-7.92992
21
-6.76689
0
LINE
8
BLACK
6
CONTINUOUS
10
-7.92992
20
-6.76689
11
-7.92993
21
-6.76698
0
LINE
8
BLACK
6
CONTINUOUS
10
-7.92993
20
-6.76698
11
-7.93548
21
-6.78537
0
LINE
8
BLACK
6
CONTINUOUS
10
-7.93548
20
-6.78537
11
-7.93549
21
-6.78538
0
LINE
8
BLACK
6
CONTINUOUS
10
-7.93549
20
-6.78538
11
-7.93552
21
-6.78546
0
LINE
8
BLACK
6
CONTINUOUS
10
-7.93552
20
-6.78546
11
-7.93556
21
-6.78554
0
LINE
8
BLACK
6
CONTINUOUS
10
-7.93556
20
-6.78554
11
-7.94458
21
-6.8025
0
LINE
8
BLACK
6
CONTINUOUS
10
-7.94458
20
-6.8025
11
-7.94458
21
-6.80252
0
LINE
8
BLACK
6
CONTINUOUS
10
-7.94458
20
-6.80252
11
-7.94463
21
-6.80259
0
LINE
8
BLACK
6
CONTINUOUS
10
-7.94463
20
-6.80259
11
-7.94468
21
-6.80266
0
LINE
8
BLACK
6
CONTINUOUS
10
-7.94468
20
-6.80266
11
-7.95682
21
-6.81755
0
LINE
8
BLACK
6
CONTINUOUS
10
-7.95682
20
-6.81755
11
-7.95683
21
-6.81756
0
LINE
8
BLACK
6
CONTINUOUS
10
-7.95683
20
-6.81756
11
-7.9569
21
-6.81762
0
LINE
8
BLACK
6
CONTINUOUS
10
-7.9569
20
-6.81762
11
-7.95696
21
-6.81769
0
LINE
8
BLACK
6
CONTINUOUS
10
-7.95696
20
-6.81769
11
-7.97176
21
-6.82993
0
LINE
8
BLACK
6
CONTINUOUS
10
-7.97176
20
-6.82993
11
-7.97177
21
-6.82994
0
LINE
8
BLACK
6
CONTINUOUS
10
-7.97177
20
-6.82994
11
-7.97184
21
-6.82999
0
LINE
8
BLACK
6
CONTINUOUS
10
-7.97184
20
-6.82999
11
-7.97192
21
-6.83004
0
LINE
8
BLACK
6
CONTINUOUS
10
-7.97192
20
-6.83004
11
-7.98882
21
-6.83918
0
LINE
8
BLACK
6
CONTINUOUS
10
-7.98882
20
-6.83918
11
-7.98883
21
-6.83918
0
LINE
8
BLACK
6
CONTINUOUS
10
-7.98883
20
-6.83918
11
-7.98891
21
-6.83922
0
LINE
8
BLACK
6
CONTINUOUS
10
-7.98891
20
-6.83922
11
-7.98899
21
-6.83925
0
LINE
8
BLACK
6
CONTINUOUS
10
-7.98899
20
-6.83925
11
-8.00734
21
-6.84493
0
LINE
8
BLACK
6
CONTINUOUS
10
-8.00734
20
-6.84493
11
-8.00736
21
-6.84493
0
LINE
8
BLACK
6
CONTINUOUS
10
-8.00736
20
-6.84493
11
-8.00744
21
-6.84495
0
LINE
8
BLACK
6
CONTINUOUS
10
-8.00744
20
-6.84495
11
-8.00753
21
-6.84497
0
LINE
8
BLACK
6
CONTINUOUS
10
-8.00753
20
-6.84497
11
-8.02664
21
-6.84698
0
LINE
8
BLACK
6
CONTINUOUS
10
-8.02664
20
-6.84698
11
-8.02665
21
-6.84698
0
LINE
8
BLACK
6
CONTINUOUS
10
-8.02665
20
-6.84698
11
-8.02669
21
-6.84698
0
LINE
8
BLACK
6
CONTINUOUS
10
-8.02669
20
-6.84698
11
-8.02673
21
-6.84698
0
LINE
8
BLACK
6
CONTINUOUS
10
-8.02673
20
-6.84698
11
-8.02738
21
-6.84698
0
LINE
8
BLACK
6
CONTINUOUS
10
-8.02738
20
-6.84698
11
-8.02738
21
-6.84698
0
LINE
8
BLACK
6
CONTINUOUS
10
-8.02738
20
-6.84698
11
-10.7829
21
-6.84698
0
LINE
8
BLACK
6
CONTINUOUS
10
-10.7829
20
-6.84698
11
-14.5987
21
-7.86995
0
LINE
8
BLACK
6
CONTINUOUS
10
-26.1196
20
-2.15898
11
-26.1202
21
-2.15899
0
LINE
8
BLACK
6
CONTINUOUS
10
-26.1202
20
-2.15899
11
-26.1392
21
-2.16098
0
LINE
8
BLACK
6
CONTINUOUS
10
-26.1392
20
-2.16098
11
-26.1573
21
-2.1666
0
LINE
8
BLACK
6
CONTINUOUS
10
-26.1573
20
-2.1666
11
-26.1741
21
-2.17565
0
LINE
8
BLACK
6
CONTINUOUS
10
-26.1741
20
-2.17565
11
-26.1887
21
-2.18777
0
LINE
8
BLACK
6
CONTINUOUS
10
-26.1887
20
-2.18777
11
-26.2007
21
-2.2025
0
LINE
8
BLACK
6
CONTINUOUS
10
-26.2007
20
-2.2025
11
-26.2097
21
-2.2193
0
LINE
8
BLACK
6
CONTINUOUS
10
-26.2097
20
-2.2193
11
-26.2152
21
-2.2375
0
LINE
8
BLACK
6
CONTINUOUS
10
-26.2152
20
-2.2375
11
-26.217
21
-2.25647
0
LINE
8
BLACK
6
CONTINUOUS
10
-26.217
20
-2.25647
11
-26.217
21
-6.74757
0
LINE
8
BLACK
6
CONTINUOUS
10
-26.217
20
-6.74757
11
-26.217
21
-6.74821
0
LINE
8
BLACK
6
CONTINUOUS
10
-26.217
20
-6.74821
11
-26.215
21
-6.76717
0
LINE
8
BLACK
6
CONTINUOUS
10
-26.215
20
-6.76717
11
-26.2094
21
-6.78533
0
LINE
8
BLACK
6
CONTINUOUS
10
-26.2094
20
-6.78533
11
-26.2004
21
-6.80206
0
LINE
8
BLACK
6
CONTINUOUS
10
-26.2004
20
-6.80206
11
-26.1882
21
-6.81671
0
LINE
8
BLACK
6
CONTINUOUS
10
-26.1882
20
-6.81671
11
-26.1735
21
-6.82873
0
LINE
8
BLACK
6
CONTINUOUS
10
-26.1735
20
-6.82873
11
-26.1567
21
-6.83766
0
LINE
8
BLACK
6
CONTINUOUS
10
-26.1567
20
-6.83766
11
-26.1385
21
-6.84316
0
LINE
8
BLACK
6
CONTINUOUS
10
-26.1385
20
-6.84316
11
-26.1195
21
-6.84502
0
LINE
8
BLACK
6
CONTINUOUS
10
-26.1195
20
-6.84502
11
-19.397
21
-6.84502
0
LINE
8
BLACK
6
CONTINUOUS
10
-19.397
20
-6.84502
11
-19.3969
21
-6.84501
0
LINE
8
BLACK
6
CONTINUOUS
10
-19.3969
20
-6.84501
11
-19.3969
21
-6.84502
0
LINE
8
BLACK
6
CONTINUOUS
10
-19.3969
20
-6.84502
11
-19.3968
21
-6.84503
0
LINE
8
BLACK
6
CONTINUOUS
10
-19.3968
20
-6.84503
11
-19.3967
21
-6.84505
0
LINE
8
BLACK
6
CONTINUOUS
10
-19.3967
20
-6.84505
11
-15.5819
21
-7.86802
0
LINE
8
BLACK
6
CONTINUOUS
10
-15.5819
20
-7.86802
11
-14.5991
21
-7.86802
0
LINE
8
BLACK
6
CONTINUOUS
10
-14.5991
20
-7.86802
11
-10.7833
21
-6.84505
0
LINE
8
BLACK
6
CONTINUOUS
10
-10.7833
20
-6.84505
11
-10.7832
21
-6.84503
0
LINE
8
BLACK
6
CONTINUOUS
10
-10.7832
20
-6.84503
11
-10.7831
21
-6.84502
0
LINE
8
BLACK
6
CONTINUOUS
10
-10.7831
20
-6.84502
11
-10.7831
21
-6.84501
0
LINE
8
BLACK
6
CONTINUOUS
10
-10.7831
20
-6.84501
11
-10.783
21
-6.84502
0
LINE
8
BLACK
6
CONTINUOUS
10
-10.783
20
-6.84502
11
-8.02743
21
-6.84502
0
LINE
8
BLACK
6
CONTINUOUS
10
-8.02743
20
-6.84502
11
-8.02679
21
-6.84501
0
LINE
8
BLACK
6
CONTINUOUS
10
-8.02679
20
-6.84501
11
-8.00783
21
-6.84302
0
LINE
8
BLACK
6
CONTINUOUS
10
-8.00783
20
-6.84302
11
-7.98967
21
-6.8374
0
LINE
8
BLACK
6
CONTINUOUS
10
-7.98967
20
-6.8374
11
-7.97294
21
-6.82835
0
LINE
8
BLACK
6
CONTINUOUS
10
-7.97294
20
-6.82835
11
-7.95829
21
-6.81623
0
LINE
8
BLACK
6
CONTINUOUS
10
-7.95829
20
-6.81623
11
-7.94627
21
-6.8015
0
LINE
8
BLACK
6
CONTINUOUS
10
-7.94627
20
-6.8015
11
-7.93734
21
-6.7847
0
LINE
8
BLACK
6
CONTINUOUS
10
-7.93734
20
-6.7847
11
-7.93184
21
-6.7665
0
LINE
8
BLACK
6
CONTINUOUS
10
-7.93184
20
-6.7665
11
-7.92998
21
-6.74753
0
LINE
8
BLACK
6
CONTINUOUS
10
-7.92998
20
-6.74753
11
-7.92998
21
-2.25642
0
LINE
8
BLACK
6
CONTINUOUS
10
-7.92998
20
-2.25642
11
-7.92999
21
-2.25604
0
LINE
8
BLACK
6
CONTINUOUS
10
-7.92999
20
-2.25604
11
-7.93193
21
-2.23703
0
LINE
8
BLACK
6
CONTINUOUS
10
-7.93193
20
-2.23703
11
-7.93753
21
-2.2188
0
LINE
8
BLACK
6
CONTINUOUS
10
-7.93753
20
-2.2188
11
-7.94655
21
-2.20201
0
LINE
8
BLACK
6
CONTINUOUS
10
-7.94655
20
-2.20201
11
-7.95867
21
-2.18728
0
LINE
8
BLACK
6
CONTINUOUS
10
-7.95867
20
-2.18728
11
-7.97341
21
-2.1752
0
LINE
8
BLACK
6
CONTINUOUS
10
-7.97341
20
-2.1752
11
-7.99022
21
-2.1662
0
LINE
8
BLACK
6
CONTINUOUS
10
-7.99022
20
-2.1662
11
-8.00846
21
-2.16065
0
LINE
8
BLACK
6
CONTINUOUS
10
-8.00846
20
-2.16065
11
-8.02747
21
-2.15873
0
LINE
8
BLACK
6
CONTINUOUS
10
-8.02747
20
-2.15873
11
-26.1196
21
-2.15898
  0
ENDSEC
  0
EOF
