  0
SECTION
  2
HEADER
  9
$ANGBASE
  50
0.0
  9
$ANGDIR
  70
1
  9
$MEASUREMENT
  70
1
  0
ENDSEC
  0
SECTION
  2
TABLES
  0
TABLE
  2
LTYPE
  70
4
  0
LTYPE
  5
40F
  2
CONTINUOUS
  70
0
  3
Solid line
  72
65
  73
0
  40
0.0
  0
LTYPE
  5
410
  2
DASHDOT
 70
0
  3
Dash Dot ____ _ ____ _
 72
65
 73
4
 40
2.0
 49
1.25
 49
-0.25
 49
0.25
 49
-0.25
  0
LTYPE
  5
411
  2
DASHED
 70
0
  3
Dashed __ __ __ __ __
 72
65
 73
2
 40
0.75
 49
0.5
 49
-0.25
  0
LTYPE
  5
43B
  2
DOTTED
 70
0
  3
Dotted .  .  .  .
 72
65
 73
2
 40
0.2
 49
0.0
 49
-0.2
  0
ENDTAB
  0
TABLE
  2
STYLE
  70
4
  0
STYLE
  2
KICAD
  70
0
  40
0
  41
1
  42
1
  50
0
  71
0
  3
isocp.shx
  0
STYLE
  2
KICADB
  70
0
  40
0
  41
1
  42
1
  50
0
  71
0
  3
isocp.shx
  0
STYLE
  2
KICADI
  70
0
  40
0
  41
1
  42
1
  50
15
  71
0
  3
isocp.shx
  0
STYLE
  2
KICADBI
  70
0
  40
0
  41
1
  42
1
  50
15
  71
0
  3
isocp.shx
  0
ENDTAB
  0
TABLE
  2
LAYER
  70
1
  0
LAYER
  2
BLACK
  70
0
  62
7
  6
CONTINUOUS
  0
ENDTAB
  0
ENDSEC
  0
SECTION
  2
ENTITIES
0
LINE
8
BLACK
6
CONTINUOUS
10
-370.808
20
-199.897
11
-370.81
21
-199.897
0
LINE
8
BLACK
6
CONTINUOUS
10
-370.81
20
-199.897
11
-370.811
21
-199.897
0
LINE
8
BLACK
6
CONTINUOUS
10
-370.811
20
-199.897
11
-370.813
21
-199.898
0
LINE
8
BLACK
6
CONTINUOUS
10
-370.813
20
-199.898
11
-370.815
21
-199.898
0
LINE
8
BLACK
6
CONTINUOUS
10
-370.815
20
-199.898
11
-395.782
21
-199.898
0
LINE
8
BLACK
6
CONTINUOUS
10
-395.782
20
-199.898
11
-395.784
21
-199.898
0
LINE
8
BLACK
6
CONTINUOUS
10
-395.784
20
-199.898
11
-395.786
21
-199.897
0
LINE
8
BLACK
6
CONTINUOUS
10
-395.786
20
-199.897
11
-395.788
21
-199.897
0
LINE
8
BLACK
6
CONTINUOUS
10
-395.788
20
-199.897
11
-395.79
21
-199.897
0
LINE
8
BLACK
6
CONTINUOUS
10
-395.79
20
-199.897
11
-492.687
21
-173.913
0
LINE
8
BLACK
6
CONTINUOUS
10
-492.687
20
-173.913
11
-663.438
21
-173.913
0
LINE
8
BLACK
6
CONTINUOUS
10
-663.438
20
-173.913
11
-663.44
21
-173.913
0
LINE
8
BLACK
6
CONTINUOUS
10
-663.44
20
-173.913
11
-663.44
21
-173.913
0
LINE
8
BLACK
6
CONTINUOUS
10
-663.44
20
-173.913
11
-663.925
21
-173.866
0
LINE
8
BLACK
6
CONTINUOUS
10
-663.925
20
-173.866
11
-663.926
21
-173.866
0
LINE
8
BLACK
6
CONTINUOUS
10
-663.926
20
-173.866
11
-663.928
21
-173.865
0
LINE
8
BLACK
6
CONTINUOUS
10
-663.928
20
-173.865
11
-663.93
21
-173.865
0
LINE
8
BLACK
6
CONTINUOUS
10
-663.93
20
-173.865
11
-664.397
21
-173.724
0
LINE
8
BLACK
6
CONTINUOUS
10
-664.397
20
-173.724
11
-664.397
21
-173.724
0
LINE
8
BLACK
6
CONTINUOUS
10
-664.397
20
-173.724
11
-664.4
21
-173.723
0
LINE
8
BLACK
6
CONTINUOUS
10
-664.4
20
-173.723
11
-664.402
21
-173.722
0
LINE
8
BLACK
6
CONTINUOUS
10
-664.402
20
-173.722
11
-664.832
21
-173.493
0
LINE
8
BLACK
6
CONTINUOUS
10
-664.832
20
-173.493
11
-664.833
21
-173.493
0
LINE
8
BLACK
6
CONTINUOUS
10
-664.833
20
-173.493
11
-664.835
21
-173.491
0
LINE
8
BLACK
6
CONTINUOUS
10
-664.835
20
-173.491
11
-664.836
21
-173.49
0
LINE
8
BLACK
6
CONTINUOUS
10
-664.836
20
-173.49
11
-665.215
21
-173.182
0
LINE
8
BLACK
6
CONTINUOUS
10
-665.215
20
-173.182
11
-665.215
21
-173.181
0
LINE
8
BLACK
6
CONTINUOUS
10
-665.215
20
-173.181
11
-665.216
21
-173.18
0
LINE
8
BLACK
6
CONTINUOUS
10
-665.216
20
-173.18
11
-665.218
21
-173.178
0
LINE
8
BLACK
6
CONTINUOUS
10
-665.218
20
-173.178
11
-665.529
21
-172.802
0
LINE
8
BLACK
6
CONTINUOUS
10
-665.529
20
-172.802
11
-665.529
21
-172.802
0
LINE
8
BLACK
6
CONTINUOUS
10
-665.529
20
-172.802
11
-665.531
21
-172.8
0
LINE
8
BLACK
6
CONTINUOUS
10
-665.531
20
-172.8
11
-665.532
21
-172.798
0
LINE
8
BLACK
6
CONTINUOUS
10
-665.532
20
-172.798
11
-665.764
21
-172.369
0
LINE
8
BLACK
6
CONTINUOUS
10
-665.764
20
-172.369
11
-665.764
21
-172.369
0
LINE
8
BLACK
6
CONTINUOUS
10
-665.764
20
-172.369
11
-665.765
21
-172.367
0
LINE
8
BLACK
6
CONTINUOUS
10
-665.765
20
-172.367
11
-665.766
21
-172.365
0
LINE
8
BLACK
6
CONTINUOUS
10
-665.766
20
-172.365
11
-665.91
21
-171.898
0
LINE
8
BLACK
6
CONTINUOUS
10
-665.91
20
-171.898
11
-665.91
21
-171.898
0
LINE
8
BLACK
6
CONTINUOUS
10
-665.91
20
-171.898
11
-665.911
21
-171.896
0
LINE
8
BLACK
6
CONTINUOUS
10
-665.911
20
-171.896
11
-665.911
21
-171.894
0
LINE
8
BLACK
6
CONTINUOUS
10
-665.911
20
-171.894
11
-665.962
21
-171.408
0
LINE
8
BLACK
6
CONTINUOUS
10
-665.962
20
-171.408
11
-665.962
21
-171.408
0
LINE
8
BLACK
6
CONTINUOUS
10
-665.962
20
-171.408
11
-665.962
21
-171.407
0
LINE
8
BLACK
6
CONTINUOUS
10
-665.962
20
-171.407
11
-665.962
21
-171.406
0
LINE
8
BLACK
6
CONTINUOUS
10
-665.962
20
-171.406
11
-665.962
21
-171.39
0
LINE
8
BLACK
6
CONTINUOUS
10
-665.962
20
-171.39
11
-665.962
21
-171.39
0
LINE
8
BLACK
6
CONTINUOUS
10
-665.962
20
-171.39
11
-665.962
21
-171.389
0
LINE
8
BLACK
6
CONTINUOUS
10
-665.962
20
-171.389
11
-665.962
21
-171.388
0
LINE
8
BLACK
6
CONTINUOUS
10
-665.962
20
-171.388
11
-665.962
21
-171.388
0
LINE
8
BLACK
6
CONTINUOUS
10
-665.962
20
-171.388
11
-665.962
21
-57.312
0
LINE
8
BLACK
6
CONTINUOUS
10
-665.962
20
-57.312
11
-665.962
21
-57.3108
0
LINE
8
BLACK
6
CONTINUOUS
10
-665.962
20
-57.3108
11
-665.962
21
-57.3108
0
LINE
8
BLACK
6
CONTINUOUS
10
-665.962
20
-57.3108
11
-665.914
21
-56.8252
0
LINE
8
BLACK
6
CONTINUOUS
10
-665.914
20
-56.8252
11
-665.914
21
-56.8248
0
LINE
8
BLACK
6
CONTINUOUS
10
-665.914
20
-56.8248
11
-665.914
21
-56.8226
0
LINE
8
BLACK
6
CONTINUOUS
10
-665.914
20
-56.8226
11
-665.914
21
-56.8204
0
LINE
8
BLACK
6
CONTINUOUS
10
-665.914
20
-56.8204
11
-665.772
21
-56.3533
0
LINE
8
BLACK
6
CONTINUOUS
10
-665.772
20
-56.3533
11
-665.772
21
-56.353
0
LINE
8
BLACK
6
CONTINUOUS
10
-665.772
20
-56.353
11
-665.772
21
-56.3509
0
LINE
8
BLACK
6
CONTINUOUS
10
-665.772
20
-56.3509
11
-665.771
21
-56.3488
0
LINE
8
BLACK
6
CONTINUOUS
10
-665.771
20
-56.3488
11
-665.542
21
-55.918
0
LINE
8
BLACK
6
CONTINUOUS
10
-665.542
20
-55.918
11
-665.542
21
-55.918
0
LINE
8
BLACK
6
CONTINUOUS
10
-665.542
20
-55.918
11
-665.542
21
-55.918
0
LINE
8
BLACK
6
CONTINUOUS
10
-665.542
20
-55.918
11
-665.541
21
-55.9177
0
LINE
8
BLACK
6
CONTINUOUS
10
-665.541
20
-55.9177
11
-665.54
21
-55.9158
0
LINE
8
BLACK
6
CONTINUOUS
10
-665.54
20
-55.9158
11
-665.539
21
-55.9139
0
LINE
8
BLACK
6
CONTINUOUS
10
-665.539
20
-55.9139
11
-665.231
21
-55.5358
0
LINE
8
BLACK
6
CONTINUOUS
10
-665.231
20
-55.5358
11
-665.231
21
-55.5358
0
LINE
8
BLACK
6
CONTINUOUS
10
-665.231
20
-55.5358
11
-665.23
21
-55.5358
0
LINE
8
BLACK
6
CONTINUOUS
10
-665.23
20
-55.5358
11
-665.23
21
-55.5355
0
LINE
8
BLACK
6
CONTINUOUS
10
-665.23
20
-55.5355
11
-665.229
21
-55.534
0
LINE
8
BLACK
6
CONTINUOUS
10
-665.229
20
-55.534
11
-665.227
21
-55.5324
0
LINE
8
BLACK
6
CONTINUOUS
10
-665.227
20
-55.5324
11
-664.851
21
-55.2213
0
LINE
8
BLACK
6
CONTINUOUS
10
-664.851
20
-55.2213
11
-664.851
21
-55.2213
0
LINE
8
BLACK
6
CONTINUOUS
10
-664.851
20
-55.2213
11
-664.851
21
-55.2213
0
LINE
8
BLACK
6
CONTINUOUS
10
-664.851
20
-55.2213
11
-664.851
21
-55.2211
0
LINE
8
BLACK
6
CONTINUOUS
10
-664.851
20
-55.2211
11
-664.849
21
-55.2199
0
LINE
8
BLACK
6
CONTINUOUS
10
-664.849
20
-55.2199
11
-664.847
21
-55.2186
0
LINE
8
BLACK
6
CONTINUOUS
10
-664.847
20
-55.2186
11
-664.418
21
-54.9866
0
LINE
8
BLACK
6
CONTINUOUS
10
-664.418
20
-54.9866
11
-664.418
21
-54.9864
0
LINE
8
BLACK
6
CONTINUOUS
10
-664.418
20
-54.9864
11
-664.415
21
-54.9855
0
LINE
8
BLACK
6
CONTINUOUS
10
-664.415
20
-54.9855
11
-664.413
21
-54.9847
0
LINE
8
BLACK
6
CONTINUOUS
10
-664.413
20
-54.9847
11
-663.947
21
-54.8404
0
LINE
8
BLACK
6
CONTINUOUS
10
-663.947
20
-54.8404
11
-663.947
21
-54.8403
0
LINE
8
BLACK
6
CONTINUOUS
10
-663.947
20
-54.8403
11
-663.945
21
-54.8399
0
LINE
8
BLACK
6
CONTINUOUS
10
-663.945
20
-54.8399
11
-663.943
21
-54.8394
0
LINE
8
BLACK
6
CONTINUOUS
10
-663.943
20
-54.8394
11
-663.457
21
-54.7884
0
LINE
8
BLACK
6
CONTINUOUS
10
-663.457
20
-54.7884
11
-663.457
21
-54.7884
0
LINE
8
BLACK
6
CONTINUOUS
10
-663.457
20
-54.7884
11
-663.456
21
-54.7884
0
LINE
8
BLACK
6
CONTINUOUS
10
-663.456
20
-54.7884
11
-663.455
21
-54.7883
0
LINE
8
BLACK
6
CONTINUOUS
10
-663.455
20
-54.7883
11
-663.438
21
-54.7882
0
LINE
8
BLACK
6
CONTINUOUS
10
-663.438
20
-54.7882
11
-663.438
21
-54.7882
0
LINE
8
BLACK
6
CONTINUOUS
10
-663.438
20
-54.7882
11
-663.438
21
-54.7882
0
LINE
8
BLACK
6
CONTINUOUS
10
-663.438
20
-54.7882
11
-663.437
21
-54.7882
0
LINE
8
BLACK
6
CONTINUOUS
10
-663.437
20
-54.7882
11
-663.437
21
-54.7882
0
LINE
8
BLACK
6
CONTINUOUS
10
-663.437
20
-54.7882
11
-203.895
21
-54.7819
0
LINE
8
BLACK
6
CONTINUOUS
10
-203.895
20
-54.7819
11
-203.894
21
-54.782
0
LINE
8
BLACK
6
CONTINUOUS
10
-203.894
20
-54.782
11
-203.894
21
-54.782
0
LINE
8
BLACK
6
CONTINUOUS
10
-203.894
20
-54.782
11
-203.894
21
-54.782
0
LINE
8
BLACK
6
CONTINUOUS
10
-203.894
20
-54.782
11
-203.892
21
-54.7822
0
LINE
8
BLACK
6
CONTINUOUS
10
-203.892
20
-54.7822
11
-203.892
21
-54.7822
0
LINE
8
BLACK
6
CONTINUOUS
10
-203.892
20
-54.7822
11
-203.407
21
-54.831
0
LINE
8
BLACK
6
CONTINUOUS
10
-203.407
20
-54.831
11
-203.407
21
-54.831
0
LINE
8
BLACK
6
CONTINUOUS
10
-203.407
20
-54.831
11
-203.407
21
-54.831
0
LINE
8
BLACK
6
CONTINUOUS
10
-203.407
20
-54.831
11
-203.407
21
-54.831
0
LINE
8
BLACK
6
CONTINUOUS
10
-203.407
20
-54.831
11
-203.405
21
-54.8315
0
LINE
8
BLACK
6
CONTINUOUS
10
-203.405
20
-54.8315
11
-203.403
21
-54.8319
0
LINE
8
BLACK
6
CONTINUOUS
10
-203.403
20
-54.8319
11
-202.935
21
-54.9745
0
LINE
8
BLACK
6
CONTINUOUS
10
-202.935
20
-54.9745
11
-202.935
21
-54.9745
0
LINE
8
BLACK
6
CONTINUOUS
10
-202.935
20
-54.9745
11
-202.935
21
-54.9745
0
LINE
8
BLACK
6
CONTINUOUS
10
-202.935
20
-54.9745
11
-202.934
21
-54.9746
0
LINE
8
BLACK
6
CONTINUOUS
10
-202.934
20
-54.9746
11
-202.932
21
-54.9755
0
LINE
8
BLACK
6
CONTINUOUS
10
-202.932
20
-54.9755
11
-202.93
21
-54.9764
0
LINE
8
BLACK
6
CONTINUOUS
10
-202.93
20
-54.9764
11
-202.499
21
-55.2071
0
LINE
8
BLACK
6
CONTINUOUS
10
-202.499
20
-55.2071
11
-202.499
21
-55.2073
0
LINE
8
BLACK
6
CONTINUOUS
10
-202.499
20
-55.2073
11
-202.497
21
-55.2086
0
LINE
8
BLACK
6
CONTINUOUS
10
-202.497
20
-55.2086
11
-202.495
21
-55.2098
0
LINE
8
BLACK
6
CONTINUOUS
10
-202.495
20
-55.2098
11
-202.117
21
-55.5199
0
LINE
8
BLACK
6
CONTINUOUS
10
-202.117
20
-55.5199
11
-202.116
21
-55.5201
0
LINE
8
BLACK
6
CONTINUOUS
10
-202.116
20
-55.5201
11
-202.115
21
-55.5218
0
LINE
8
BLACK
6
CONTINUOUS
10
-202.115
20
-55.5218
11
-202.113
21
-55.5234
0
LINE
8
BLACK
6
CONTINUOUS
10
-202.113
20
-55.5234
11
-201.802
21
-55.9011
0
LINE
8
BLACK
6
CONTINUOUS
10
-201.802
20
-55.9011
11
-201.802
21
-55.9013
0
LINE
8
BLACK
6
CONTINUOUS
10
-201.802
20
-55.9013
11
-201.801
21
-55.9033
0
LINE
8
BLACK
6
CONTINUOUS
10
-201.801
20
-55.9033
11
-201.8
21
-55.9051
0
LINE
8
BLACK
6
CONTINUOUS
10
-201.8
20
-55.9051
11
-201.568
21
-56.336
0
LINE
8
BLACK
6
CONTINUOUS
10
-201.568
20
-56.336
11
-201.568
21
-56.3363
0
LINE
8
BLACK
6
CONTINUOUS
10
-201.568
20
-56.3363
11
-201.567
21
-56.3384
0
LINE
8
BLACK
6
CONTINUOUS
10
-201.567
20
-56.3384
11
-201.566
21
-56.3405
0
LINE
8
BLACK
6
CONTINUOUS
10
-201.566
20
-56.3405
11
-201.423
21
-56.8081
0
LINE
8
BLACK
6
CONTINUOUS
10
-201.423
20
-56.8081
11
-201.423
21
-56.8085
0
LINE
8
BLACK
6
CONTINUOUS
10
-201.423
20
-56.8085
11
-201.422
21
-56.8107
0
LINE
8
BLACK
6
CONTINUOUS
10
-201.422
20
-56.8107
11
-201.422
21
-56.8129
0
LINE
8
BLACK
6
CONTINUOUS
10
-201.422
20
-56.8129
11
-201.372
21
-57.2995
0
LINE
8
BLACK
6
CONTINUOUS
10
-201.372
20
-57.2995
11
-201.372
21
-57.2999
0
LINE
8
BLACK
6
CONTINUOUS
10
-201.372
20
-57.2999
11
-201.372
21
-57.3009
0
LINE
8
BLACK
6
CONTINUOUS
10
-201.372
20
-57.3009
11
-201.372
21
-57.302
0
LINE
8
BLACK
6
CONTINUOUS
10
-201.372
20
-57.302
11
-201.372
21
-57.312
0
LINE
8
BLACK
6
CONTINUOUS
10
-201.372
20
-57.312
11
-201.372
21
-57.312
0
LINE
8
BLACK
6
CONTINUOUS
10
-201.372
20
-57.312
11
-201.372
21
-171.39
0
LINE
8
BLACK
6
CONTINUOUS
10
-201.372
20
-171.39
11
-201.372
21
-171.391
0
LINE
8
BLACK
6
CONTINUOUS
10
-201.372
20
-171.391
11
-201.372
21
-171.391
0
LINE
8
BLACK
6
CONTINUOUS
10
-201.372
20
-171.391
11
-201.419
21
-171.876
0
LINE
8
BLACK
6
CONTINUOUS
10
-201.419
20
-171.876
11
-201.419
21
-171.877
0
LINE
8
BLACK
6
CONTINUOUS
10
-201.419
20
-171.877
11
-201.42
21
-171.879
0
LINE
8
BLACK
6
CONTINUOUS
10
-201.42
20
-171.879
11
-201.42
21
-171.881
0
LINE
8
BLACK
6
CONTINUOUS
10
-201.42
20
-171.881
11
-201.561
21
-172.348
0
LINE
8
BLACK
6
CONTINUOUS
10
-201.561
20
-172.348
11
-201.561
21
-172.349
0
LINE
8
BLACK
6
CONTINUOUS
10
-201.561
20
-172.349
11
-201.562
21
-172.351
0
LINE
8
BLACK
6
CONTINUOUS
10
-201.562
20
-172.351
11
-201.563
21
-172.353
0
LINE
8
BLACK
6
CONTINUOUS
10
-201.563
20
-172.353
11
-201.792
21
-172.784
0
LINE
8
BLACK
6
CONTINUOUS
10
-201.792
20
-172.784
11
-201.792
21
-172.784
0
LINE
8
BLACK
6
CONTINUOUS
10
-201.792
20
-172.784
11
-201.794
21
-172.786
0
LINE
8
BLACK
6
CONTINUOUS
10
-201.794
20
-172.786
11
-201.795
21
-172.788
0
LINE
8
BLACK
6
CONTINUOUS
10
-201.795
20
-172.788
11
-202.103
21
-173.166
0
LINE
8
BLACK
6
CONTINUOUS
10
-202.103
20
-173.166
11
-202.104
21
-173.166
0
LINE
8
BLACK
6
CONTINUOUS
10
-202.104
20
-173.166
11
-202.105
21
-173.168
0
LINE
8
BLACK
6
CONTINUOUS
10
-202.105
20
-173.168
11
-202.107
21
-173.169
0
LINE
8
BLACK
6
CONTINUOUS
10
-202.107
20
-173.169
11
-202.483
21
-173.48
0
LINE
8
BLACK
6
CONTINUOUS
10
-202.483
20
-173.48
11
-202.483
21
-173.48
0
LINE
8
BLACK
6
CONTINUOUS
10
-202.483
20
-173.48
11
-202.485
21
-173.482
0
LINE
8
BLACK
6
CONTINUOUS
10
-202.485
20
-173.482
11
-202.487
21
-173.483
0
LINE
8
BLACK
6
CONTINUOUS
10
-202.487
20
-173.483
11
-202.916
21
-173.715
0
LINE
8
BLACK
6
CONTINUOUS
10
-202.916
20
-173.715
11
-202.916
21
-173.715
0
LINE
8
BLACK
6
CONTINUOUS
10
-202.916
20
-173.715
11
-202.918
21
-173.716
0
LINE
8
BLACK
6
CONTINUOUS
10
-202.918
20
-173.716
11
-202.92
21
-173.717
0
LINE
8
BLACK
6
CONTINUOUS
10
-202.92
20
-173.717
11
-203.387
21
-173.861
0
LINE
8
BLACK
6
CONTINUOUS
10
-203.387
20
-173.861
11
-203.387
21
-173.861
0
LINE
8
BLACK
6
CONTINUOUS
10
-203.387
20
-173.861
11
-203.389
21
-173.862
0
LINE
8
BLACK
6
CONTINUOUS
10
-203.389
20
-173.862
11
-203.391
21
-173.862
0
LINE
8
BLACK
6
CONTINUOUS
10
-203.391
20
-173.862
11
-203.877
21
-173.913
0
LINE
8
BLACK
6
CONTINUOUS
10
-203.877
20
-173.913
11
-203.877
21
-173.913
0
LINE
8
BLACK
6
CONTINUOUS
10
-203.877
20
-173.913
11
-203.878
21
-173.913
0
LINE
8
BLACK
6
CONTINUOUS
10
-203.878
20
-173.913
11
-203.879
21
-173.913
0
LINE
8
BLACK
6
CONTINUOUS
10
-203.879
20
-173.913
11
-203.895
21
-173.913
0
LINE
8
BLACK
6
CONTINUOUS
10
-203.895
20
-173.913
11
-203.895
21
-173.913
0
LINE
8
BLACK
6
CONTINUOUS
10
-203.895
20
-173.913
11
-273.885
21
-173.913
0
LINE
8
BLACK
6
CONTINUOUS
10
-273.885
20
-173.913
11
-370.808
21
-199.897
0
LINE
8
BLACK
6
CONTINUOUS
10
-663.437
20
-54.8382
11
-663.453
21
-54.8383
0
LINE
8
BLACK
6
CONTINUOUS
10
-663.453
20
-54.8383
11
-663.935
21
-54.8889
0
LINE
8
BLACK
6
CONTINUOUS
10
-663.935
20
-54.8889
11
-664.396
21
-55.0317
0
LINE
8
BLACK
6
CONTINUOUS
10
-664.396
20
-55.0317
11
-664.821
21
-55.2614
0
LINE
8
BLACK
6
CONTINUOUS
10
-664.821
20
-55.2614
11
-665.193
21
-55.5693
0
LINE
8
BLACK
6
CONTINUOUS
10
-665.193
20
-55.5693
11
-665.499
21
-55.9436
0
LINE
8
BLACK
6
CONTINUOUS
10
-665.499
20
-55.9436
11
-665.725
21
-56.3701
0
LINE
8
BLACK
6
CONTINUOUS
10
-665.725
20
-56.3701
11
-665.865
21
-56.8325
0
LINE
8
BLACK
6
CONTINUOUS
10
-665.865
20
-56.8325
11
-665.912
21
-57.3144
0
LINE
8
BLACK
6
CONTINUOUS
10
-665.912
20
-57.3144
11
-665.912
21
-171.388
0
LINE
8
BLACK
6
CONTINUOUS
10
-665.912
20
-171.388
11
-665.912
21
-171.405
0
LINE
8
BLACK
6
CONTINUOUS
10
-665.912
20
-171.405
11
-665.862
21
-171.886
0
LINE
8
BLACK
6
CONTINUOUS
10
-665.862
20
-171.886
11
-665.719
21
-172.347
0
LINE
8
BLACK
6
CONTINUOUS
10
-665.719
20
-172.347
11
-665.489
21
-172.772
0
LINE
8
BLACK
6
CONTINUOUS
10
-665.489
20
-172.772
11
-665.181
21
-173.144
0
LINE
8
BLACK
6
CONTINUOUS
10
-665.181
20
-173.144
11
-664.807
21
-173.45
0
LINE
8
BLACK
6
CONTINUOUS
10
-664.807
20
-173.45
11
-664.38
21
-173.677
0
LINE
8
BLACK
6
CONTINUOUS
10
-664.38
20
-173.677
11
-663.918
21
-173.816
0
LINE
8
BLACK
6
CONTINUOUS
10
-663.918
20
-173.816
11
-663.436
21
-173.863
0
LINE
8
BLACK
6
CONTINUOUS
10
-663.436
20
-173.863
11
-492.684
21
-173.863
0
LINE
8
BLACK
6
CONTINUOUS
10
-492.684
20
-173.863
11
-492.682
21
-173.863
0
LINE
8
BLACK
6
CONTINUOUS
10
-492.682
20
-173.863
11
-492.681
21
-173.864
0
LINE
8
BLACK
6
CONTINUOUS
10
-492.681
20
-173.864
11
-492.679
21
-173.864
0
LINE
8
BLACK
6
CONTINUOUS
10
-492.679
20
-173.864
11
-492.677
21
-173.864
0
LINE
8
BLACK
6
CONTINUOUS
10
-492.677
20
-173.864
11
-395.78
21
-199.848
0
LINE
8
BLACK
6
CONTINUOUS
10
-395.78
20
-199.848
11
-370.818
21
-199.848
0
LINE
8
BLACK
6
CONTINUOUS
10
-370.818
20
-199.848
11
-273.895
21
-173.864
0
LINE
8
BLACK
6
CONTINUOUS
10
-273.895
20
-173.864
11
-273.893
21
-173.864
0
LINE
8
BLACK
6
CONTINUOUS
10
-273.893
20
-173.864
11
-273.891
21
-173.864
0
LINE
8
BLACK
6
CONTINUOUS
10
-273.891
20
-173.864
11
-273.89
21
-173.863
0
LINE
8
BLACK
6
CONTINUOUS
10
-273.89
20
-173.863
11
-273.888
21
-173.863
0
LINE
8
BLACK
6
CONTINUOUS
10
-273.888
20
-173.863
11
-203.897
21
-173.863
0
LINE
8
BLACK
6
CONTINUOUS
10
-203.897
20
-173.863
11
-203.88
21
-173.863
0
LINE
8
BLACK
6
CONTINUOUS
10
-203.88
20
-173.863
11
-203.399
21
-173.813
0
LINE
8
BLACK
6
CONTINUOUS
10
-203.399
20
-173.813
11
-202.938
21
-173.67
0
LINE
8
BLACK
6
CONTINUOUS
10
-202.938
20
-173.67
11
-202.513
21
-173.44
0
LINE
8
BLACK
6
CONTINUOUS
10
-202.513
20
-173.44
11
-202.141
21
-173.132
0
LINE
8
BLACK
6
CONTINUOUS
10
-202.141
20
-173.132
11
-201.835
21
-172.758
0
LINE
8
BLACK
6
CONTINUOUS
10
-201.835
20
-172.758
11
-201.608
21
-172.332
0
LINE
8
BLACK
6
CONTINUOUS
10
-201.608
20
-172.332
11
-201.469
21
-171.869
0
LINE
8
BLACK
6
CONTINUOUS
10
-201.469
20
-171.869
11
-201.422
21
-171.387
0
LINE
8
BLACK
6
CONTINUOUS
10
-201.422
20
-171.387
11
-201.422
21
-57.3131
0
LINE
8
BLACK
6
CONTINUOUS
10
-201.422
20
-57.3131
11
-201.422
21
-57.3034
0
LINE
8
BLACK
6
CONTINUOUS
10
-201.422
20
-57.3034
11
-201.471
21
-56.8205
0
LINE
8
BLACK
6
CONTINUOUS
10
-201.471
20
-56.8205
11
-201.613
21
-56.3575
0
LINE
8
BLACK
6
CONTINUOUS
10
-201.613
20
-56.3575
11
-201.842
21
-55.9309
0
LINE
8
BLACK
6
CONTINUOUS
10
-201.842
20
-55.9309
11
-202.15
21
-55.557
0
LINE
8
BLACK
6
CONTINUOUS
10
-202.15
20
-55.557
11
-202.525
21
-55.25
0
LINE
8
BLACK
6
CONTINUOUS
10
-202.525
20
-55.25
11
-202.952
21
-55.0216
0
LINE
8
BLACK
6
CONTINUOUS
10
-202.952
20
-55.0216
11
-203.415
21
-54.8805
0
LINE
8
BLACK
6
CONTINUOUS
10
-203.415
20
-54.8805
11
-203.898
21
-54.8319
0
LINE
8
BLACK
6
CONTINUOUS
10
-203.898
20
-54.8319
11
-663.437
21
-54.8382
  0
ENDSEC
  0
EOF
