  0
SECTION
  2
HEADER
  9
$ANGBASE
  50
0.0
  9
$ANGDIR
  70
1
  9
$MEASUREMENT
  70
1
  0
ENDSEC
  0
SECTION
  2
TABLES
  0
TABLE
  2
LTYPE
  70
4
  0
LTYPE
  5
40F
  2
CONTINUOUS
  70
0
  3
Solid line
  72
65
  73
0
  40
0.0
  0
LTYPE
  5
410
  2
DASHDOT
 70
0
  3
Dash Dot ____ _ ____ _
 72
65
 73
4
 40
2.0
 49
1.25
 49
-0.25
 49
0.25
 49
-0.25
  0
LTYPE
  5
411
  2
DASHED
 70
0
  3
Dashed __ __ __ __ __
 72
65
 73
2
 40
0.75
 49
0.5
 49
-0.25
  0
LTYPE
  5
43B
  2
DOTTED
 70
0
  3
Dotted .  .  .  .
 72
65
 73
2
 40
0.2
 49
0.0
 49
-0.2
  0
ENDTAB
  0
TABLE
  2
STYLE
  70
4
  0
STYLE
  2
KICAD
  70
0
  40
0
  41
1
  42
1
  50
0
  71
0
  3
isocp.shx
  0
STYLE
  2
KICADB
  70
0
  40
0
  41
1
  42
1
  50
0
  71
0
  3
isocp.shx
  0
STYLE
  2
KICADI
  70
0
  40
0
  41
1
  42
1
  50
15
  71
0
  3
isocp.shx
  0
STYLE
  2
KICADBI
  70
0
  40
0
  41
1
  42
1
  50
15
  71
0
  3
isocp.shx
  0
ENDTAB
  0
TABLE
  2
LAYER
  70
1
  0
LAYER
  2
BLACK
  70
0
  62
7
  6
CONTINUOUS
  0
ENDTAB
  0
ENDSEC
  0
SECTION
  2
ENTITIES
0
LINE
8
BLACK
6
CONTINUOUS
10
-372.158
20
-192.547
11
-373.317
21
-192.858
0
LINE
8
BLACK
6
CONTINUOUS
10
-373.317
20
-192.858
11
-373.55
21
-191.988
0
LINE
8
BLACK
6
CONTINUOUS
10
-373.55
20
-191.988
11
-372.391
21
-191.678
0
LINE
8
BLACK
6
CONTINUOUS
10
-372.391
20
-191.678
11
-372.158
21
-192.547
0
LINE
8
BLACK
6
CONTINUOUS
10
-393.047
20
-191.988
11
-393.28
21
-192.858
0
LINE
8
BLACK
6
CONTINUOUS
10
-393.28
20
-192.858
11
-394.439
21
-192.547
0
LINE
8
BLACK
6
CONTINUOUS
10
-394.439
20
-192.547
11
-394.206
21
-191.678
0
LINE
8
BLACK
6
CONTINUOUS
10
-394.206
20
-191.678
11
-393.047
21
-191.988
0
LINE
8
BLACK
6
CONTINUOUS
10
-373.012
20
-189.36
11
-374.171
21
-189.67
0
LINE
8
BLACK
6
CONTINUOUS
10
-374.171
20
-189.67
11
-374.404
21
-188.801
0
LINE
8
BLACK
6
CONTINUOUS
10
-374.404
20
-188.801
11
-373.245
21
-188.49
0
LINE
8
BLACK
6
CONTINUOUS
10
-373.245
20
-188.49
11
-373.012
21
-189.36
0
LINE
8
BLACK
6
CONTINUOUS
10
-392.193
20
-188.801
11
-392.426
21
-189.67
0
LINE
8
BLACK
6
CONTINUOUS
10
-392.426
20
-189.67
11
-393.585
21
-189.36
0
LINE
8
BLACK
6
CONTINUOUS
10
-393.585
20
-189.36
11
-393.352
21
-188.49
0
LINE
8
BLACK
6
CONTINUOUS
10
-393.352
20
-188.49
11
-392.193
21
-188.801
0
LINE
8
BLACK
6
CONTINUOUS
10
-411.448
20
-187.058
11
-411.681
21
-187.927
0
LINE
8
BLACK
6
CONTINUOUS
10
-411.681
20
-187.927
11
-412.84
21
-187.617
0
LINE
8
BLACK
6
CONTINUOUS
10
-412.84
20
-187.617
11
-412.607
21
-186.747
0
LINE
8
BLACK
6
CONTINUOUS
10
-412.607
20
-186.747
11
-411.448
21
-187.058
0
LINE
8
BLACK
6
CONTINUOUS
10
-410.594
20
-183.87
11
-410.827
21
-184.74
0
LINE
8
BLACK
6
CONTINUOUS
10
-410.827
20
-184.74
11
-411.986
21
-184.429
0
LINE
8
BLACK
6
CONTINUOUS
10
-411.986
20
-184.429
11
-411.753
21
-183.56
0
LINE
8
BLACK
6
CONTINUOUS
10
-411.753
20
-183.56
11
-410.594
21
-183.87
0
LINE
8
BLACK
6
CONTINUOUS
10
-322.788
20
-174.388
11
-323.947
21
-174.699
0
LINE
8
BLACK
6
CONTINUOUS
10
-323.947
20
-174.699
11
-324.18
21
-173.829
0
LINE
8
BLACK
6
CONTINUOUS
10
-324.18
20
-173.829
11
-323.021
21
-173.519
0
LINE
8
BLACK
6
CONTINUOUS
10
-323.021
20
-173.519
11
-322.788
21
-174.388
0
LINE
8
BLACK
6
CONTINUOUS
10
-388.117
20
-173.587
11
-388.35
21
-174.457
0
LINE
8
BLACK
6
CONTINUOUS
10
-388.35
20
-174.457
11
-389.509
21
-174.146
0
LINE
8
BLACK
6
CONTINUOUS
10
-389.509
20
-174.146
11
-389.276
21
-173.277
0
LINE
8
BLACK
6
CONTINUOUS
10
-389.276
20
-173.277
11
-388.117
21
-173.587
0
LINE
8
BLACK
6
CONTINUOUS
10
-377.089
20
-174.146
11
-378.248
21
-174.457
0
LINE
8
BLACK
6
CONTINUOUS
10
-378.248
20
-174.457
11
-378.481
21
-173.587
0
LINE
8
BLACK
6
CONTINUOUS
10
-378.481
20
-173.587
11
-377.321
21
-173.277
0
LINE
8
BLACK
6
CONTINUOUS
10
-377.321
20
-173.277
11
-377.089
21
-174.146
0
LINE
8
BLACK
6
CONTINUOUS
10
-447.017
20
-172.597
11
-447.25
21
-173.466
0
LINE
8
BLACK
6
CONTINUOUS
10
-447.25
20
-173.466
11
-448.409
21
-173.155
0
LINE
8
BLACK
6
CONTINUOUS
10
-448.409
20
-173.155
11
-448.176
21
-172.286
0
LINE
8
BLACK
6
CONTINUOUS
10
-448.176
20
-172.286
11
-447.017
21
-172.597
0
LINE
8
BLACK
6
CONTINUOUS
10
-323.642
20
-171.2
11
-324.801
21
-171.511
0
LINE
8
BLACK
6
CONTINUOUS
10
-324.801
20
-171.511
11
-325.034
21
-170.642
0
LINE
8
BLACK
6
CONTINUOUS
10
-325.034
20
-170.642
11
-323.875
21
-170.331
0
LINE
8
BLACK
6
CONTINUOUS
10
-323.875
20
-170.331
11
-323.642
21
-171.2
0
LINE
8
BLACK
6
CONTINUOUS
10
-377.943
20
-170.959
11
-379.102
21
-171.269
0
LINE
8
BLACK
6
CONTINUOUS
10
-379.102
20
-171.269
11
-379.335
21
-170.4
0
LINE
8
BLACK
6
CONTINUOUS
10
-379.335
20
-170.4
11
-378.176
21
-170.089
0
LINE
8
BLACK
6
CONTINUOUS
10
-378.176
20
-170.089
11
-377.943
21
-170.959
0
LINE
8
BLACK
6
CONTINUOUS
10
-387.263
20
-170.4
11
-387.496
21
-171.269
0
LINE
8
BLACK
6
CONTINUOUS
10
-387.496
20
-171.269
11
-388.655
21
-170.959
0
LINE
8
BLACK
6
CONTINUOUS
10
-388.655
20
-170.959
11
-388.422
21
-170.089
0
LINE
8
BLACK
6
CONTINUOUS
10
-388.422
20
-170.089
11
-387.263
21
-170.4
0
LINE
8
BLACK
6
CONTINUOUS
10
-446.163
20
-169.409
11
-446.396
21
-170.278
0
LINE
8
BLACK
6
CONTINUOUS
10
-446.396
20
-170.278
11
-447.555
21
-169.968
0
LINE
8
BLACK
6
CONTINUOUS
10
-447.555
20
-169.968
11
-447.322
21
-169.098
0
LINE
8
BLACK
6
CONTINUOUS
10
-447.322
20
-169.098
11
-446.163
21
-169.409
0
LINE
8
BLACK
6
CONTINUOUS
10
-358.688
20
-169.216
11
-359.847
21
-169.526
0
LINE
8
BLACK
6
CONTINUOUS
10
-359.847
20
-169.526
11
-360.08
21
-168.657
0
LINE
8
BLACK
6
CONTINUOUS
10
-360.08
20
-168.657
11
-358.921
21
-168.346
0
LINE
8
BLACK
6
CONTINUOUS
10
-358.921
20
-168.346
11
-358.688
21
-169.216
0
LINE
8
BLACK
6
CONTINUOUS
10
-406.518
20
-168.657
11
-406.751
21
-169.526
0
LINE
8
BLACK
6
CONTINUOUS
10
-406.751
20
-169.526
11
-407.91
21
-169.216
0
LINE
8
BLACK
6
CONTINUOUS
10
-407.91
20
-169.216
11
-407.677
21
-168.346
0
LINE
8
BLACK
6
CONTINUOUS
10
-407.677
20
-168.346
11
-406.518
21
-168.657
0
LINE
8
BLACK
6
CONTINUOUS
10
-272.094
20
-166.489
11
-273.294
21
-166.489
0
LINE
8
BLACK
6
CONTINUOUS
10
-273.294
20
-166.489
11
-273.294
21
-165.589
0
LINE
8
BLACK
6
CONTINUOUS
10
-273.294
20
-165.589
11
-272.094
21
-165.589
0
LINE
8
BLACK
6
CONTINUOUS
10
-272.094
20
-165.589
11
-272.094
21
-166.489
0
LINE
8
BLACK
6
CONTINUOUS
10
-224.498
20
-166.489
11
-225.698
21
-166.489
0
LINE
8
BLACK
6
CONTINUOUS
10
-225.698
20
-166.489
11
-225.698
21
-165.589
0
LINE
8
BLACK
6
CONTINUOUS
10
-225.698
20
-165.589
11
-224.498
21
-165.589
0
LINE
8
BLACK
6
CONTINUOUS
10
-224.498
20
-165.589
11
-224.498
21
-166.489
0
LINE
8
BLACK
6
CONTINUOUS
10
-248.298
20
-166.489
11
-249.498
21
-166.489
0
LINE
8
BLACK
6
CONTINUOUS
10
-249.498
20
-166.489
11
-249.498
21
-165.589
0
LINE
8
BLACK
6
CONTINUOUS
10
-249.498
20
-165.589
11
-248.298
21
-165.589
0
LINE
8
BLACK
6
CONTINUOUS
10
-248.298
20
-165.589
11
-248.298
21
-166.489
0
LINE
8
BLACK
6
CONTINUOUS
10
-565.375
20
-166.438
11
-566.575
21
-166.438
0
LINE
8
BLACK
6
CONTINUOUS
10
-566.575
20
-166.438
11
-566.575
21
-165.538
0
LINE
8
BLACK
6
CONTINUOUS
10
-566.575
20
-165.538
11
-565.375
21
-165.538
0
LINE
8
BLACK
6
CONTINUOUS
10
-565.375
20
-165.538
11
-565.375
21
-166.438
0
LINE
8
BLACK
6
CONTINUOUS
10
-503.368
20
-166.438
11
-504.568
21
-166.438
0
LINE
8
BLACK
6
CONTINUOUS
10
-504.568
20
-166.438
11
-504.568
21
-165.538
0
LINE
8
BLACK
6
CONTINUOUS
10
-504.568
20
-165.538
11
-503.368
21
-165.538
0
LINE
8
BLACK
6
CONTINUOUS
10
-503.368
20
-165.538
11
-503.368
21
-166.438
0
LINE
8
BLACK
6
CONTINUOUS
10
-479.619
20
-166.438
11
-480.819
21
-166.438
0
LINE
8
BLACK
6
CONTINUOUS
10
-480.819
20
-166.438
11
-480.819
21
-165.538
0
LINE
8
BLACK
6
CONTINUOUS
10
-480.819
20
-165.538
11
-479.619
21
-165.538
0
LINE
8
BLACK
6
CONTINUOUS
10
-479.619
20
-165.538
11
-479.619
21
-166.438
0
LINE
8
BLACK
6
CONTINUOUS
10
-627.288
20
-166.438
11
-628.488
21
-166.438
0
LINE
8
BLACK
6
CONTINUOUS
10
-628.488
20
-166.438
11
-628.488
21
-165.538
0
LINE
8
BLACK
6
CONTINUOUS
10
-628.488
20
-165.538
11
-627.288
21
-165.538
0
LINE
8
BLACK
6
CONTINUOUS
10
-627.288
20
-165.538
11
-627.288
21
-166.438
0
LINE
8
BLACK
6
CONTINUOUS
10
-546.262
20
-166.438
11
-547.462
21
-166.438
0
LINE
8
BLACK
6
CONTINUOUS
10
-547.462
20
-166.438
11
-547.462
21
-165.538
0
LINE
8
BLACK
6
CONTINUOUS
10
-547.462
20
-165.538
11
-546.262
21
-165.538
0
LINE
8
BLACK
6
CONTINUOUS
10
-546.262
20
-165.538
11
-546.262
21
-166.438
0
LINE
8
BLACK
6
CONTINUOUS
10
-527.212
20
-166.438
11
-528.412
21
-166.438
0
LINE
8
BLACK
6
CONTINUOUS
10
-528.412
20
-166.438
11
-528.412
21
-165.538
0
LINE
8
BLACK
6
CONTINUOUS
10
-528.412
20
-165.538
11
-527.212
21
-165.538
0
LINE
8
BLACK
6
CONTINUOUS
10
-527.212
20
-165.538
11
-527.212
21
-166.438
0
LINE
8
BLACK
6
CONTINUOUS
10
-405.664
20
-165.469
11
-405.896
21
-166.339
0
LINE
8
BLACK
6
CONTINUOUS
10
-405.896
20
-166.339
11
-407.056
21
-166.028
0
LINE
8
BLACK
6
CONTINUOUS
10
-407.056
20
-166.028
11
-406.823
21
-165.159
0
LINE
8
BLACK
6
CONTINUOUS
10
-406.823
20
-165.159
11
-405.664
21
-165.469
0
LINE
8
BLACK
6
CONTINUOUS
10
-359.542
20
-166.028
11
-360.701
21
-166.339
0
LINE
8
BLACK
6
CONTINUOUS
10
-360.701
20
-166.339
11
-360.934
21
-165.469
0
LINE
8
BLACK
6
CONTINUOUS
10
-360.934
20
-165.469
11
-359.775
21
-165.159
0
LINE
8
BLACK
6
CONTINUOUS
10
-359.775
20
-165.159
11
-359.542
21
-166.028
0
LINE
8
BLACK
6
CONTINUOUS
10
-224.498
20
-163.189
11
-225.698
21
-163.189
0
LINE
8
BLACK
6
CONTINUOUS
10
-225.698
20
-163.189
11
-225.698
21
-162.289
0
LINE
8
BLACK
6
CONTINUOUS
10
-225.698
20
-162.289
11
-224.498
21
-162.289
0
LINE
8
BLACK
6
CONTINUOUS
10
-224.498
20
-162.289
11
-224.498
21
-163.189
0
LINE
8
BLACK
6
CONTINUOUS
10
-272.094
20
-163.189
11
-273.294
21
-163.189
0
LINE
8
BLACK
6
CONTINUOUS
10
-273.294
20
-163.189
11
-273.294
21
-162.289
0
LINE
8
BLACK
6
CONTINUOUS
10
-273.294
20
-162.289
11
-272.094
21
-162.289
0
LINE
8
BLACK
6
CONTINUOUS
10
-272.094
20
-162.289
11
-272.094
21
-163.189
0
LINE
8
BLACK
6
CONTINUOUS
10
-248.298
20
-163.189
11
-249.498
21
-163.189
0
LINE
8
BLACK
6
CONTINUOUS
10
-249.498
20
-163.189
11
-249.498
21
-162.289
0
LINE
8
BLACK
6
CONTINUOUS
10
-249.498
20
-162.289
11
-248.298
21
-162.289
0
LINE
8
BLACK
6
CONTINUOUS
10
-248.298
20
-162.289
11
-248.298
21
-163.189
0
LINE
8
BLACK
6
CONTINUOUS
10
-565.375
20
-163.138
11
-566.575
21
-163.138
0
LINE
8
BLACK
6
CONTINUOUS
10
-566.575
20
-163.138
11
-566.575
21
-162.238
0
LINE
8
BLACK
6
CONTINUOUS
10
-566.575
20
-162.238
11
-565.375
21
-162.238
0
LINE
8
BLACK
6
CONTINUOUS
10
-565.375
20
-162.238
11
-565.375
21
-163.138
0
LINE
8
BLACK
6
CONTINUOUS
10
-546.262
20
-163.138
11
-547.462
21
-163.138
0
LINE
8
BLACK
6
CONTINUOUS
10
-547.462
20
-163.138
11
-547.462
21
-162.238
0
LINE
8
BLACK
6
CONTINUOUS
10
-547.462
20
-162.238
11
-546.262
21
-162.238
0
LINE
8
BLACK
6
CONTINUOUS
10
-546.262
20
-162.238
11
-546.262
21
-163.138
0
LINE
8
BLACK
6
CONTINUOUS
10
-503.368
20
-163.138
11
-504.568
21
-163.138
0
LINE
8
BLACK
6
CONTINUOUS
10
-504.568
20
-163.138
11
-504.568
21
-162.238
0
LINE
8
BLACK
6
CONTINUOUS
10
-504.568
20
-162.238
11
-503.368
21
-162.238
0
LINE
8
BLACK
6
CONTINUOUS
10
-503.368
20
-162.238
11
-503.368
21
-163.138
0
LINE
8
BLACK
6
CONTINUOUS
10
-527.212
20
-163.138
11
-528.412
21
-163.138
0
LINE
8
BLACK
6
CONTINUOUS
10
-528.412
20
-163.138
11
-528.412
21
-162.238
0
LINE
8
BLACK
6
CONTINUOUS
10
-528.412
20
-162.238
11
-527.212
21
-162.238
0
LINE
8
BLACK
6
CONTINUOUS
10
-527.212
20
-162.238
11
-527.212
21
-163.138
0
LINE
8
BLACK
6
CONTINUOUS
10
-479.619
20
-163.138
11
-480.819
21
-163.138
0
LINE
8
BLACK
6
CONTINUOUS
10
-480.819
20
-163.138
11
-480.819
21
-162.238
0
LINE
8
BLACK
6
CONTINUOUS
10
-480.819
20
-162.238
11
-479.619
21
-162.238
0
LINE
8
BLACK
6
CONTINUOUS
10
-479.619
20
-162.238
11
-479.619
21
-163.138
0
LINE
8
BLACK
6
CONTINUOUS
10
-627.288
20
-163.138
11
-628.488
21
-163.138
0
LINE
8
BLACK
6
CONTINUOUS
10
-628.488
20
-163.138
11
-628.488
21
-162.238
0
LINE
8
BLACK
6
CONTINUOUS
10
-628.488
20
-162.238
11
-627.288
21
-162.238
0
LINE
8
BLACK
6
CONTINUOUS
10
-627.288
20
-162.238
11
-627.288
21
-163.138
0
LINE
8
BLACK
6
CONTINUOUS
10
-341.519
20
-159.685
11
-342.679
21
-159.996
0
LINE
8
BLACK
6
CONTINUOUS
10
-342.679
20
-159.996
11
-342.911
21
-159.126
0
LINE
8
BLACK
6
CONTINUOUS
10
-342.911
20
-159.126
11
-341.752
21
-158.816
0
LINE
8
BLACK
6
CONTINUOUS
10
-341.752
20
-158.816
11
-341.519
21
-159.685
0
LINE
8
BLACK
6
CONTINUOUS
10
-423.686
20
-159.126
11
-423.919
21
-159.996
0
LINE
8
BLACK
6
CONTINUOUS
10
-423.919
20
-159.996
11
-425.078
21
-159.685
0
LINE
8
BLACK
6
CONTINUOUS
10
-425.078
20
-159.685
11
-424.845
21
-158.816
0
LINE
8
BLACK
6
CONTINUOUS
10
-424.845
20
-158.816
11
-423.686
21
-159.126
0
LINE
8
BLACK
6
CONTINUOUS
10
-589.188
20
-156.913
11
-590.388
21
-156.913
0
LINE
8
BLACK
6
CONTINUOUS
10
-590.388
20
-156.913
11
-590.388
21
-156.013
0
LINE
8
BLACK
6
CONTINUOUS
10
-590.388
20
-156.013
11
-589.188
21
-156.013
0
LINE
8
BLACK
6
CONTINUOUS
10
-589.188
20
-156.013
11
-589.188
21
-156.913
0
LINE
8
BLACK
6
CONTINUOUS
10
-342.373
20
-156.497
11
-343.533
21
-156.808
0
LINE
8
BLACK
6
CONTINUOUS
10
-343.533
20
-156.808
11
-343.766
21
-155.939
0
LINE
8
BLACK
6
CONTINUOUS
10
-343.766
20
-155.939
11
-342.606
21
-155.628
0
LINE
8
BLACK
6
CONTINUOUS
10
-342.606
20
-155.628
11
-342.373
21
-156.497
0
LINE
8
BLACK
6
CONTINUOUS
10
-422.832
20
-155.939
11
-423.065
21
-156.808
0
LINE
8
BLACK
6
CONTINUOUS
10
-423.065
20
-156.808
11
-424.224
21
-156.497
0
LINE
8
BLACK
6
CONTINUOUS
10
-424.224
20
-156.497
11
-423.991
21
-155.628
0
LINE
8
BLACK
6
CONTINUOUS
10
-423.991
20
-155.628
11
-422.832
21
-155.939
0
LINE
8
BLACK
6
CONTINUOUS
10
-619.563
20
-155.413
11
-620.463
21
-155.413
0
LINE
8
BLACK
6
CONTINUOUS
10
-620.463
20
-155.413
11
-620.463
21
-154.213
0
LINE
8
BLACK
6
CONTINUOUS
10
-620.463
20
-154.213
11
-619.563
21
-154.213
0
LINE
8
BLACK
6
CONTINUOUS
10
-619.563
20
-154.213
11
-619.563
21
-155.413
0
LINE
8
BLACK
6
CONTINUOUS
10
-616.263
20
-155.413
11
-617.163
21
-155.413
0
LINE
8
BLACK
6
CONTINUOUS
10
-617.163
20
-155.413
11
-617.163
21
-154.213
0
LINE
8
BLACK
6
CONTINUOUS
10
-617.163
20
-154.213
11
-616.263
21
-154.213
0
LINE
8
BLACK
6
CONTINUOUS
10
-616.263
20
-154.213
11
-616.263
21
-155.413
0
LINE
8
BLACK
6
CONTINUOUS
10
-644.839
20
-155.4
11
-645.739
21
-155.4
0
LINE
8
BLACK
6
CONTINUOUS
10
-645.739
20
-155.4
11
-645.739
21
-154.2
0
LINE
8
BLACK
6
CONTINUOUS
10
-645.739
20
-154.2
11
-644.839
21
-154.2
0
LINE
8
BLACK
6
CONTINUOUS
10
-644.839
20
-154.2
11
-644.839
21
-155.4
0
LINE
8
BLACK
6
CONTINUOUS
10
-648.139
20
-155.4
11
-649.039
21
-155.4
0
LINE
8
BLACK
6
CONTINUOUS
10
-649.039
20
-155.4
11
-649.039
21
-154.2
0
LINE
8
BLACK
6
CONTINUOUS
10
-649.039
20
-154.2
11
-648.139
21
-154.2
0
LINE
8
BLACK
6
CONTINUOUS
10
-648.139
20
-154.2
11
-648.139
21
-155.4
0
LINE
8
BLACK
6
CONTINUOUS
10
-589.188
20
-153.613
11
-590.388
21
-153.613
0
LINE
8
BLACK
6
CONTINUOUS
10
-590.388
20
-153.613
11
-590.388
21
-152.713
0
LINE
8
BLACK
6
CONTINUOUS
10
-590.388
20
-152.713
11
-589.188
21
-152.713
0
LINE
8
BLACK
6
CONTINUOUS
10
-589.188
20
-152.713
11
-589.188
21
-153.613
0
LINE
8
BLACK
6
CONTINUOUS
10
-401.587
20
-150.256
11
-401.82
21
-151.125
0
LINE
8
BLACK
6
CONTINUOUS
10
-401.82
20
-151.125
11
-402.979
21
-150.815
0
LINE
8
BLACK
6
CONTINUOUS
10
-402.979
20
-150.815
11
-402.746
21
-149.946
0
LINE
8
BLACK
6
CONTINUOUS
10
-402.746
20
-149.946
11
-401.587
21
-150.256
0
LINE
8
BLACK
6
CONTINUOUS
10
-363.618
20
-150.815
11
-364.777
21
-151.125
0
LINE
8
BLACK
6
CONTINUOUS
10
-364.777
20
-151.125
11
-365.01
21
-150.256
0
LINE
8
BLACK
6
CONTINUOUS
10
-365.01
20
-150.256
11
-363.851
21
-149.946
0
LINE
8
BLACK
6
CONTINUOUS
10
-363.851
20
-149.946
11
-363.618
21
-150.815
0
LINE
8
BLACK
6
CONTINUOUS
10
-440.854
20
-149.596
11
-441.087
21
-150.465
0
LINE
8
BLACK
6
CONTINUOUS
10
-441.087
20
-150.465
11
-442.246
21
-150.154
0
LINE
8
BLACK
6
CONTINUOUS
10
-442.246
20
-150.154
11
-442.013
21
-149.285
0
LINE
8
BLACK
6
CONTINUOUS
10
-442.013
20
-149.285
11
-440.854
21
-149.596
0
LINE
8
BLACK
6
CONTINUOUS
10
-324.351
20
-150.154
11
-325.51
21
-150.465
0
LINE
8
BLACK
6
CONTINUOUS
10
-325.51
20
-150.465
11
-325.743
21
-149.596
0
LINE
8
BLACK
6
CONTINUOUS
10
-325.743
20
-149.596
11
-324.584
21
-149.285
0
LINE
8
BLACK
6
CONTINUOUS
10
-324.584
20
-149.285
11
-324.351
21
-150.154
0
LINE
8
BLACK
6
CONTINUOUS
10
-460.488
20
-149.265
11
-460.721
21
-150.135
0
LINE
8
BLACK
6
CONTINUOUS
10
-460.721
20
-150.135
11
-461.88
21
-149.824
0
LINE
8
BLACK
6
CONTINUOUS
10
-461.88
20
-149.824
11
-461.647
21
-148.955
0
LINE
8
BLACK
6
CONTINUOUS
10
-461.647
20
-148.955
11
-460.488
21
-149.265
0
LINE
8
BLACK
6
CONTINUOUS
10
-304.718
20
-149.824
11
-305.877
21
-150.135
0
LINE
8
BLACK
6
CONTINUOUS
10
-305.877
20
-150.135
11
-306.11
21
-149.265
0
LINE
8
BLACK
6
CONTINUOUS
10
-306.11
20
-149.265
11
-304.951
21
-148.955
0
LINE
8
BLACK
6
CONTINUOUS
10
-304.951
20
-148.955
11
-304.718
21
-149.824
0
LINE
8
BLACK
6
CONTINUOUS
10
-400.733
20
-147.069
11
-400.966
21
-147.938
0
LINE
8
BLACK
6
CONTINUOUS
10
-400.966
20
-147.938
11
-402.125
21
-147.627
0
LINE
8
BLACK
6
CONTINUOUS
10
-402.125
20
-147.627
11
-401.892
21
-146.758
0
LINE
8
BLACK
6
CONTINUOUS
10
-401.892
20
-146.758
11
-400.733
21
-147.069
0
LINE
8
BLACK
6
CONTINUOUS
10
-364.472
20
-147.627
11
-365.631
21
-147.938
0
LINE
8
BLACK
6
CONTINUOUS
10
-365.631
20
-147.938
11
-365.864
21
-147.069
0
LINE
8
BLACK
6
CONTINUOUS
10
-365.864
20
-147.069
11
-364.705
21
-146.758
0
LINE
8
BLACK
6
CONTINUOUS
10
-364.705
20
-146.758
11
-364.472
21
-147.627
0
LINE
8
BLACK
6
CONTINUOUS
10
-262.703
20
-147.401
11
-263.903
21
-147.401
0
LINE
8
BLACK
6
CONTINUOUS
10
-263.903
20
-147.401
11
-263.903
21
-146.501
0
LINE
8
BLACK
6
CONTINUOUS
10
-263.903
20
-146.501
11
-262.703
21
-146.501
0
LINE
8
BLACK
6
CONTINUOUS
10
-262.703
20
-146.501
11
-262.703
21
-147.401
0
LINE
8
BLACK
6
CONTINUOUS
10
-281.753
20
-147.401
11
-282.953
21
-147.401
0
LINE
8
BLACK
6
CONTINUOUS
10
-282.953
20
-147.401
11
-282.953
21
-146.501
0
LINE
8
BLACK
6
CONTINUOUS
10
-282.953
20
-146.501
11
-281.753
21
-146.501
0
LINE
8
BLACK
6
CONTINUOUS
10
-281.753
20
-146.501
11
-281.753
21
-147.401
0
LINE
8
BLACK
6
CONTINUOUS
10
-219.84
20
-147.401
11
-221.04
21
-147.401
0
LINE
8
BLACK
6
CONTINUOUS
10
-221.04
20
-147.401
11
-221.04
21
-146.501
0
LINE
8
BLACK
6
CONTINUOUS
10
-221.04
20
-146.501
11
-219.84
21
-146.501
0
LINE
8
BLACK
6
CONTINUOUS
10
-219.84
20
-146.501
11
-219.84
21
-147.401
0
LINE
8
BLACK
6
CONTINUOUS
10
-484.286
20
-147.388
11
-485.486
21
-147.388
0
LINE
8
BLACK
6
CONTINUOUS
10
-485.486
20
-147.388
11
-485.486
21
-146.488
0
LINE
8
BLACK
6
CONTINUOUS
10
-485.486
20
-146.488
11
-484.286
21
-146.488
0
LINE
8
BLACK
6
CONTINUOUS
10
-484.286
20
-146.488
11
-484.286
21
-147.388
0
LINE
8
BLACK
6
CONTINUOUS
10
-503.336
20
-147.388
11
-504.536
21
-147.388
0
LINE
8
BLACK
6
CONTINUOUS
10
-504.536
20
-147.388
11
-504.536
21
-146.488
0
LINE
8
BLACK
6
CONTINUOUS
10
-504.536
20
-146.488
11
-503.336
21
-146.488
0
LINE
8
BLACK
6
CONTINUOUS
10
-503.336
20
-146.488
11
-503.336
21
-147.388
0
LINE
8
BLACK
6
CONTINUOUS
10
-546.262
20
-147.388
11
-547.462
21
-147.388
0
LINE
8
BLACK
6
CONTINUOUS
10
-547.462
20
-147.388
11
-547.462
21
-146.488
0
LINE
8
BLACK
6
CONTINUOUS
10
-547.462
20
-146.488
11
-546.262
21
-146.488
0
LINE
8
BLACK
6
CONTINUOUS
10
-546.262
20
-146.488
11
-546.262
21
-147.388
0
LINE
8
BLACK
6
CONTINUOUS
10
-646.338
20
-147.388
11
-647.538
21
-147.388
0
LINE
8
BLACK
6
CONTINUOUS
10
-647.538
20
-147.388
11
-647.538
21
-146.488
0
LINE
8
BLACK
6
CONTINUOUS
10
-647.538
20
-146.488
11
-646.338
21
-146.488
0
LINE
8
BLACK
6
CONTINUOUS
10
-646.338
20
-146.488
11
-646.338
21
-147.388
0
LINE
8
BLACK
6
CONTINUOUS
10
-608.238
20
-147.388
11
-609.438
21
-147.388
0
LINE
8
BLACK
6
CONTINUOUS
10
-609.438
20
-147.388
11
-609.438
21
-146.488
0
LINE
8
BLACK
6
CONTINUOUS
10
-609.438
20
-146.488
11
-608.238
21
-146.488
0
LINE
8
BLACK
6
CONTINUOUS
10
-608.238
20
-146.488
11
-608.238
21
-147.388
0
LINE
8
BLACK
6
CONTINUOUS
10
-627.288
20
-147.388
11
-628.488
21
-147.388
0
LINE
8
BLACK
6
CONTINUOUS
10
-628.488
20
-147.388
11
-628.488
21
-146.488
0
LINE
8
BLACK
6
CONTINUOUS
10
-628.488
20
-146.488
11
-627.288
21
-146.488
0
LINE
8
BLACK
6
CONTINUOUS
10
-627.288
20
-146.488
11
-627.288
21
-147.388
0
LINE
8
BLACK
6
CONTINUOUS
10
-325.205
20
-146.967
11
-326.364
21
-147.277
0
LINE
8
BLACK
6
CONTINUOUS
10
-326.364
20
-147.277
11
-326.597
21
-146.408
0
LINE
8
BLACK
6
CONTINUOUS
10
-326.597
20
-146.408
11
-325.438
21
-146.097
0
LINE
8
BLACK
6
CONTINUOUS
10
-325.438
20
-146.097
11
-325.205
21
-146.967
0
LINE
8
BLACK
6
CONTINUOUS
10
-440
20
-146.408
11
-440.233
21
-147.277
0
LINE
8
BLACK
6
CONTINUOUS
10
-440.233
20
-147.277
11
-441.392
21
-146.967
0
LINE
8
BLACK
6
CONTINUOUS
10
-441.392
20
-146.967
11
-441.159
21
-146.097
0
LINE
8
BLACK
6
CONTINUOUS
10
-441.159
20
-146.097
11
-440
21
-146.408
0
LINE
8
BLACK
6
CONTINUOUS
10
-459.634
20
-146.078
11
-459.867
21
-146.947
0
LINE
8
BLACK
6
CONTINUOUS
10
-459.867
20
-146.947
11
-461.026
21
-146.636
0
LINE
8
BLACK
6
CONTINUOUS
10
-461.026
20
-146.636
11
-460.793
21
-145.767
0
LINE
8
BLACK
6
CONTINUOUS
10
-460.793
20
-145.767
11
-459.634
21
-146.078
0
LINE
8
BLACK
6
CONTINUOUS
10
-305.572
20
-146.636
11
-306.731
21
-146.947
0
LINE
8
BLACK
6
CONTINUOUS
10
-306.731
20
-146.947
11
-306.964
21
-146.078
0
LINE
8
BLACK
6
CONTINUOUS
10
-306.964
20
-146.078
11
-305.805
21
-145.767
0
LINE
8
BLACK
6
CONTINUOUS
10
-305.805
20
-145.767
11
-305.572
21
-146.636
0
LINE
8
BLACK
6
CONTINUOUS
10
-219.84
20
-144.101
11
-221.04
21
-144.101
0
LINE
8
BLACK
6
CONTINUOUS
10
-221.04
20
-144.101
11
-221.04
21
-143.201
0
LINE
8
BLACK
6
CONTINUOUS
10
-221.04
20
-143.201
11
-219.84
21
-143.201
0
LINE
8
BLACK
6
CONTINUOUS
10
-219.84
20
-143.201
11
-219.84
21
-144.101
0
LINE
8
BLACK
6
CONTINUOUS
10
-281.753
20
-144.101
11
-282.953
21
-144.101
0
LINE
8
BLACK
6
CONTINUOUS
10
-282.953
20
-144.101
11
-282.953
21
-143.201
0
LINE
8
BLACK
6
CONTINUOUS
10
-282.953
20
-143.201
11
-281.753
21
-143.201
0
LINE
8
BLACK
6
CONTINUOUS
10
-281.753
20
-143.201
11
-281.753
21
-144.101
0
LINE
8
BLACK
6
CONTINUOUS
10
-262.703
20
-144.101
11
-263.903
21
-144.101
0
LINE
8
BLACK
6
CONTINUOUS
10
-263.903
20
-144.101
11
-263.903
21
-143.201
0
LINE
8
BLACK
6
CONTINUOUS
10
-263.903
20
-143.201
11
-262.703
21
-143.201
0
LINE
8
BLACK
6
CONTINUOUS
10
-262.703
20
-143.201
11
-262.703
21
-144.101
0
LINE
8
BLACK
6
CONTINUOUS
10
-646.338
20
-144.088
11
-647.538
21
-144.088
0
LINE
8
BLACK
6
CONTINUOUS
10
-647.538
20
-144.088
11
-647.538
21
-143.188
0
LINE
8
BLACK
6
CONTINUOUS
10
-647.538
20
-143.188
11
-646.338
21
-143.188
0
LINE
8
BLACK
6
CONTINUOUS
10
-646.338
20
-143.188
11
-646.338
21
-144.088
0
LINE
8
BLACK
6
CONTINUOUS
10
-503.336
20
-144.088
11
-504.536
21
-144.088
0
LINE
8
BLACK
6
CONTINUOUS
10
-504.536
20
-144.088
11
-504.536
21
-143.188
0
LINE
8
BLACK
6
CONTINUOUS
10
-504.536
20
-143.188
11
-503.336
21
-143.188
0
LINE
8
BLACK
6
CONTINUOUS
10
-503.336
20
-143.188
11
-503.336
21
-144.088
0
LINE
8
BLACK
6
CONTINUOUS
10
-546.262
20
-144.088
11
-547.462
21
-144.088
0
LINE
8
BLACK
6
CONTINUOUS
10
-547.462
20
-144.088
11
-547.462
21
-143.188
0
LINE
8
BLACK
6
CONTINUOUS
10
-547.462
20
-143.188
11
-546.262
21
-143.188
0
LINE
8
BLACK
6
CONTINUOUS
10
-546.262
20
-143.188
11
-546.262
21
-144.088
0
LINE
8
BLACK
6
CONTINUOUS
10
-627.288
20
-144.088
11
-628.488
21
-144.088
0
LINE
8
BLACK
6
CONTINUOUS
10
-628.488
20
-144.088
11
-628.488
21
-143.188
0
LINE
8
BLACK
6
CONTINUOUS
10
-628.488
20
-143.188
11
-627.288
21
-143.188
0
LINE
8
BLACK
6
CONTINUOUS
10
-627.288
20
-143.188
11
-627.288
21
-144.088
0
LINE
8
BLACK
6
CONTINUOUS
10
-484.286
20
-144.088
11
-485.486
21
-144.088
0
LINE
8
BLACK
6
CONTINUOUS
10
-485.486
20
-144.088
11
-485.486
21
-143.188
0
LINE
8
BLACK
6
CONTINUOUS
10
-485.486
20
-143.188
11
-484.286
21
-143.188
0
LINE
8
BLACK
6
CONTINUOUS
10
-484.286
20
-143.188
11
-484.286
21
-144.088
0
LINE
8
BLACK
6
CONTINUOUS
10
-608.238
20
-144.088
11
-609.438
21
-144.088
0
LINE
8
BLACK
6
CONTINUOUS
10
-609.438
20
-144.088
11
-609.438
21
-143.188
0
LINE
8
BLACK
6
CONTINUOUS
10
-609.438
20
-143.188
11
-608.238
21
-143.188
0
LINE
8
BLACK
6
CONTINUOUS
10
-608.238
20
-143.188
11
-608.238
21
-144.088
0
LINE
8
BLACK
6
CONTINUOUS
10
-418.755
20
-140.725
11
-418.988
21
-141.595
0
LINE
8
BLACK
6
CONTINUOUS
10
-418.988
20
-141.595
11
-420.147
21
-141.284
0
LINE
8
BLACK
6
CONTINUOUS
10
-420.147
20
-141.284
11
-419.915
21
-140.415
0
LINE
8
BLACK
6
CONTINUOUS
10
-419.915
20
-140.415
11
-418.755
21
-140.725
0
LINE
8
BLACK
6
CONTINUOUS
10
-346.45
20
-141.284
11
-347.609
21
-141.595
0
LINE
8
BLACK
6
CONTINUOUS
10
-347.609
20
-141.595
11
-347.842
21
-140.725
0
LINE
8
BLACK
6
CONTINUOUS
10
-347.842
20
-140.725
11
-346.683
21
-140.415
0
LINE
8
BLACK
6
CONTINUOUS
10
-346.683
20
-140.415
11
-346.45
21
-141.284
0
LINE
8
BLACK
6
CONTINUOUS
10
-347.304
20
-138.097
11
-348.463
21
-138.407
0
LINE
8
BLACK
6
CONTINUOUS
10
-348.463
20
-138.407
11
-348.696
21
-137.538
0
LINE
8
BLACK
6
CONTINUOUS
10
-348.696
20
-137.538
11
-347.537
21
-137.227
0
LINE
8
BLACK
6
CONTINUOUS
10
-347.537
20
-137.227
11
-347.304
21
-138.097
0
LINE
8
BLACK
6
CONTINUOUS
10
-417.901
20
-137.538
11
-418.134
21
-138.407
0
LINE
8
BLACK
6
CONTINUOUS
10
-418.134
20
-138.407
11
-419.293
21
-138.097
0
LINE
8
BLACK
6
CONTINUOUS
10
-419.293
20
-138.097
11
-419.06
21
-137.227
0
LINE
8
BLACK
6
CONTINUOUS
10
-419.06
20
-137.227
11
-417.901
21
-137.538
0
LINE
8
BLACK
6
CONTINUOUS
10
-368.549
20
-132.414
11
-369.708
21
-132.725
0
LINE
8
BLACK
6
CONTINUOUS
10
-369.708
20
-132.725
11
-369.941
21
-131.855
0
LINE
8
BLACK
6
CONTINUOUS
10
-369.941
20
-131.855
11
-368.782
21
-131.545
0
LINE
8
BLACK
6
CONTINUOUS
10
-368.782
20
-131.545
11
-368.549
21
-132.414
0
LINE
8
BLACK
6
CONTINUOUS
10
-396.657
20
-131.855
11
-396.89
21
-132.725
0
LINE
8
BLACK
6
CONTINUOUS
10
-396.89
20
-132.725
11
-398.049
21
-132.414
0
LINE
8
BLACK
6
CONTINUOUS
10
-398.049
20
-132.414
11
-397.816
21
-131.545
0
LINE
8
BLACK
6
CONTINUOUS
10
-397.816
20
-131.545
11
-396.657
21
-131.855
0
LINE
8
BLACK
6
CONTINUOUS
10
-435.924
20
-131.195
11
-436.157
21
-132.064
0
LINE
8
BLACK
6
CONTINUOUS
10
-436.157
20
-132.064
11
-437.316
21
-131.753
0
LINE
8
BLACK
6
CONTINUOUS
10
-437.316
20
-131.753
11
-437.083
21
-130.884
0
LINE
8
BLACK
6
CONTINUOUS
10
-437.083
20
-130.884
11
-435.924
21
-131.195
0
LINE
8
BLACK
6
CONTINUOUS
10
-329.282
20
-131.753
11
-330.441
21
-132.064
0
LINE
8
BLACK
6
CONTINUOUS
10
-330.441
20
-132.064
11
-330.674
21
-131.195
0
LINE
8
BLACK
6
CONTINUOUS
10
-330.674
20
-131.195
11
-329.515
21
-130.884
0
LINE
8
BLACK
6
CONTINUOUS
10
-329.515
20
-130.884
11
-329.282
21
-131.753
0
LINE
8
BLACK
6
CONTINUOUS
10
-455.557
20
-130.864
11
-455.79
21
-131.734
0
LINE
8
BLACK
6
CONTINUOUS
10
-455.79
20
-131.734
11
-456.949
21
-131.423
0
LINE
8
BLACK
6
CONTINUOUS
10
-456.949
20
-131.423
11
-456.716
21
-130.554
0
LINE
8
BLACK
6
CONTINUOUS
10
-456.716
20
-130.554
11
-455.557
21
-130.864
0
LINE
8
BLACK
6
CONTINUOUS
10
-309.648
20
-131.423
11
-310.807
21
-131.734
0
LINE
8
BLACK
6
CONTINUOUS
10
-310.807
20
-131.734
11
-311.04
21
-130.864
0
LINE
8
BLACK
6
CONTINUOUS
10
-311.04
20
-130.864
11
-309.881
21
-130.554
0
LINE
8
BLACK
6
CONTINUOUS
10
-309.881
20
-130.554
11
-309.648
21
-131.423
0
LINE
8
BLACK
6
CONTINUOUS
10
-369.403
20
-129.226
11
-370.562
21
-129.537
0
LINE
8
BLACK
6
CONTINUOUS
10
-370.562
20
-129.537
11
-370.795
21
-128.668
0
LINE
8
BLACK
6
CONTINUOUS
10
-370.795
20
-128.668
11
-369.636
21
-128.357
0
LINE
8
BLACK
6
CONTINUOUS
10
-369.636
20
-128.357
11
-369.403
21
-129.226
0
LINE
8
BLACK
6
CONTINUOUS
10
-395.803
20
-128.668
11
-396.035
21
-129.537
0
LINE
8
BLACK
6
CONTINUOUS
10
-396.035
20
-129.537
11
-397.195
21
-129.226
0
LINE
8
BLACK
6
CONTINUOUS
10
-397.195
20
-129.226
11
-396.962
21
-128.357
0
LINE
8
BLACK
6
CONTINUOUS
10
-396.962
20
-128.357
11
-395.803
21
-128.668
0
LINE
8
BLACK
6
CONTINUOUS
10
-435.07
20
-128.007
11
-435.302
21
-128.876
0
LINE
8
BLACK
6
CONTINUOUS
10
-435.302
20
-128.876
11
-436.462
21
-128.566
0
LINE
8
BLACK
6
CONTINUOUS
10
-436.462
20
-128.566
11
-436.229
21
-127.696
0
LINE
8
BLACK
6
CONTINUOUS
10
-436.229
20
-127.696
11
-435.07
21
-128.007
0
LINE
8
BLACK
6
CONTINUOUS
10
-330.136
20
-128.566
11
-331.295
21
-128.876
0
LINE
8
BLACK
6
CONTINUOUS
10
-331.295
20
-128.876
11
-331.528
21
-128.007
0
LINE
8
BLACK
6
CONTINUOUS
10
-331.528
20
-128.007
11
-330.369
21
-127.696
0
LINE
8
BLACK
6
CONTINUOUS
10
-330.369
20
-127.696
11
-330.136
21
-128.566
0
LINE
8
BLACK
6
CONTINUOUS
10
-454.703
20
-127.677
11
-454.936
21
-128.546
0
LINE
8
BLACK
6
CONTINUOUS
10
-454.936
20
-128.546
11
-456.095
21
-128.236
0
LINE
8
BLACK
6
CONTINUOUS
10
-456.095
20
-128.236
11
-455.862
21
-127.366
0
LINE
8
BLACK
6
CONTINUOUS
10
-455.862
20
-127.366
11
-454.703
21
-127.677
0
LINE
8
BLACK
6
CONTINUOUS
10
-310.502
20
-128.236
11
-311.661
21
-128.546
0
LINE
8
BLACK
6
CONTINUOUS
10
-311.661
20
-128.546
11
-311.894
21
-127.677
0
LINE
8
BLACK
6
CONTINUOUS
10
-311.894
20
-127.677
11
-310.735
21
-127.366
0
LINE
8
BLACK
6
CONTINUOUS
10
-310.735
20
-127.366
11
-310.502
21
-128.236
0
LINE
8
BLACK
6
CONTINUOUS
10
-262.703
20
-128.351
11
-263.903
21
-128.351
0
LINE
8
BLACK
6
CONTINUOUS
10
-263.903
20
-128.351
11
-263.903
21
-127.451
0
LINE
8
BLACK
6
CONTINUOUS
10
-263.903
20
-127.451
11
-262.703
21
-127.451
0
LINE
8
BLACK
6
CONTINUOUS
10
-262.703
20
-127.451
11
-262.703
21
-128.351
0
LINE
8
BLACK
6
CONTINUOUS
10
-243.653
20
-128.351
11
-244.853
21
-128.351
0
LINE
8
BLACK
6
CONTINUOUS
10
-244.853
20
-128.351
11
-244.853
21
-127.451
0
LINE
8
BLACK
6
CONTINUOUS
10
-244.853
20
-127.451
11
-243.653
21
-127.451
0
LINE
8
BLACK
6
CONTINUOUS
10
-243.653
20
-127.451
11
-243.653
21
-128.351
0
LINE
8
BLACK
6
CONTINUOUS
10
-281.753
20
-128.351
11
-282.953
21
-128.351
0
LINE
8
BLACK
6
CONTINUOUS
10
-282.953
20
-128.351
11
-282.953
21
-127.451
0
LINE
8
BLACK
6
CONTINUOUS
10
-282.953
20
-127.451
11
-281.753
21
-127.451
0
LINE
8
BLACK
6
CONTINUOUS
10
-281.753
20
-127.451
11
-281.753
21
-128.351
0
LINE
8
BLACK
6
CONTINUOUS
10
-646.338
20
-128.338
11
-647.538
21
-128.338
0
LINE
8
BLACK
6
CONTINUOUS
10
-647.538
20
-128.338
11
-647.538
21
-127.438
0
LINE
8
BLACK
6
CONTINUOUS
10
-647.538
20
-127.438
11
-646.338
21
-127.438
0
LINE
8
BLACK
6
CONTINUOUS
10
-646.338
20
-127.438
11
-646.338
21
-128.338
0
LINE
8
BLACK
6
CONTINUOUS
10
-608.238
20
-128.338
11
-609.438
21
-128.338
0
LINE
8
BLACK
6
CONTINUOUS
10
-609.438
20
-128.338
11
-609.438
21
-127.438
0
LINE
8
BLACK
6
CONTINUOUS
10
-609.438
20
-127.438
11
-608.238
21
-127.438
0
LINE
8
BLACK
6
CONTINUOUS
10
-608.238
20
-127.438
11
-608.238
21
-128.338
0
LINE
8
BLACK
6
CONTINUOUS
10
-498.542
20
-128.338
11
-499.742
21
-128.338
0
LINE
8
BLACK
6
CONTINUOUS
10
-499.742
20
-128.338
11
-499.742
21
-127.438
0
LINE
8
BLACK
6
CONTINUOUS
10
-499.742
20
-127.438
11
-498.542
21
-127.438
0
LINE
8
BLACK
6
CONTINUOUS
10
-498.542
20
-127.438
11
-498.542
21
-128.338
0
LINE
8
BLACK
6
CONTINUOUS
10
-479.523
20
-128.338
11
-480.724
21
-128.338
0
LINE
8
BLACK
6
CONTINUOUS
10
-480.724
20
-128.338
11
-480.724
21
-127.438
0
LINE
8
BLACK
6
CONTINUOUS
10
-480.724
20
-127.438
11
-479.523
21
-127.438
0
LINE
8
BLACK
6
CONTINUOUS
10
-479.523
20
-127.438
11
-479.523
21
-128.338
0
LINE
8
BLACK
6
CONTINUOUS
10
-627.288
20
-128.338
11
-628.488
21
-128.338
0
LINE
8
BLACK
6
CONTINUOUS
10
-628.488
20
-128.338
11
-628.488
21
-127.438
0
LINE
8
BLACK
6
CONTINUOUS
10
-628.488
20
-127.438
11
-627.288
21
-127.438
0
LINE
8
BLACK
6
CONTINUOUS
10
-627.288
20
-127.438
11
-627.288
21
-128.338
0
LINE
8
BLACK
6
CONTINUOUS
10
-262.703
20
-125.051
11
-263.903
21
-125.051
0
LINE
8
BLACK
6
CONTINUOUS
10
-263.903
20
-125.051
11
-263.903
21
-124.151
0
LINE
8
BLACK
6
CONTINUOUS
10
-263.903
20
-124.151
11
-262.703
21
-124.151
0
LINE
8
BLACK
6
CONTINUOUS
10
-262.703
20
-124.151
11
-262.703
21
-125.051
0
LINE
8
BLACK
6
CONTINUOUS
10
-281.753
20
-125.051
11
-282.953
21
-125.051
0
LINE
8
BLACK
6
CONTINUOUS
10
-282.953
20
-125.051
11
-282.953
21
-124.151
0
LINE
8
BLACK
6
CONTINUOUS
10
-282.953
20
-124.151
11
-281.753
21
-124.151
0
LINE
8
BLACK
6
CONTINUOUS
10
-281.753
20
-124.151
11
-281.753
21
-125.051
0
LINE
8
BLACK
6
CONTINUOUS
10
-243.653
20
-125.051
11
-244.853
21
-125.051
0
LINE
8
BLACK
6
CONTINUOUS
10
-244.853
20
-125.051
11
-244.853
21
-124.151
0
LINE
8
BLACK
6
CONTINUOUS
10
-244.853
20
-124.151
11
-243.653
21
-124.151
0
LINE
8
BLACK
6
CONTINUOUS
10
-243.653
20
-124.151
11
-243.653
21
-125.051
0
LINE
8
BLACK
6
CONTINUOUS
10
-608.238
20
-125.038
11
-609.438
21
-125.038
0
LINE
8
BLACK
6
CONTINUOUS
10
-609.438
20
-125.038
11
-609.438
21
-124.138
0
LINE
8
BLACK
6
CONTINUOUS
10
-609.438
20
-124.138
11
-608.238
21
-124.138
0
LINE
8
BLACK
6
CONTINUOUS
10
-608.238
20
-124.138
11
-608.238
21
-125.038
0
LINE
8
BLACK
6
CONTINUOUS
10
-646.338
20
-125.038
11
-647.538
21
-125.038
0
LINE
8
BLACK
6
CONTINUOUS
10
-647.538
20
-125.038
11
-647.538
21
-124.138
0
LINE
8
BLACK
6
CONTINUOUS
10
-647.538
20
-124.138
11
-646.338
21
-124.138
0
LINE
8
BLACK
6
CONTINUOUS
10
-646.338
20
-124.138
11
-646.338
21
-125.038
0
LINE
8
BLACK
6
CONTINUOUS
10
-479.523
20
-125.038
11
-480.724
21
-125.038
0
LINE
8
BLACK
6
CONTINUOUS
10
-480.724
20
-125.038
11
-480.724
21
-124.138
0
LINE
8
BLACK
6
CONTINUOUS
10
-480.724
20
-124.138
11
-479.523
21
-124.138
0
LINE
8
BLACK
6
CONTINUOUS
10
-479.523
20
-124.138
11
-479.523
21
-125.038
0
LINE
8
BLACK
6
CONTINUOUS
10
-498.542
20
-125.038
11
-499.742
21
-125.038
0
LINE
8
BLACK
6
CONTINUOUS
10
-499.742
20
-125.038
11
-499.742
21
-124.138
0
LINE
8
BLACK
6
CONTINUOUS
10
-499.742
20
-124.138
11
-498.542
21
-124.138
0
LINE
8
BLACK
6
CONTINUOUS
10
-498.542
20
-124.138
11
-498.542
21
-125.038
0
LINE
8
BLACK
6
CONTINUOUS
10
-627.288
20
-125.038
11
-628.488
21
-125.038
0
LINE
8
BLACK
6
CONTINUOUS
10
-628.488
20
-125.038
11
-628.488
21
-124.138
0
LINE
8
BLACK
6
CONTINUOUS
10
-628.488
20
-124.138
11
-627.288
21
-124.138
0
LINE
8
BLACK
6
CONTINUOUS
10
-627.288
20
-124.138
11
-627.288
21
-125.038
0
LINE
8
BLACK
6
CONTINUOUS
10
-413.825
20
-122.324
11
-414.058
21
-123.194
0
LINE
8
BLACK
6
CONTINUOUS
10
-414.058
20
-123.194
11
-415.217
21
-122.883
0
LINE
8
BLACK
6
CONTINUOUS
10
-415.217
20
-122.883
11
-414.984
21
-122.014
0
LINE
8
BLACK
6
CONTINUOUS
10
-414.984
20
-122.014
11
-413.825
21
-122.324
0
LINE
8
BLACK
6
CONTINUOUS
10
-351.38
20
-122.883
11
-352.54
21
-123.194
0
LINE
8
BLACK
6
CONTINUOUS
10
-352.54
20
-123.194
11
-352.772
21
-122.324
0
LINE
8
BLACK
6
CONTINUOUS
10
-352.772
20
-122.324
11
-351.613
21
-122.014
0
LINE
8
BLACK
6
CONTINUOUS
10
-351.613
20
-122.014
11
-351.38
21
-122.883
0
LINE
8
BLACK
6
CONTINUOUS
10
-412.971
20
-119.137
11
-413.204
21
-120.006
0
LINE
8
BLACK
6
CONTINUOUS
10
-413.204
20
-120.006
11
-414.363
21
-119.696
0
LINE
8
BLACK
6
CONTINUOUS
10
-414.363
20
-119.696
11
-414.13
21
-118.826
0
LINE
8
BLACK
6
CONTINUOUS
10
-414.13
20
-118.826
11
-412.971
21
-119.137
0
LINE
8
BLACK
6
CONTINUOUS
10
-352.235
20
-119.696
11
-353.394
21
-120.006
0
LINE
8
BLACK
6
CONTINUOUS
10
-353.394
20
-120.006
11
-353.627
21
-119.137
0
LINE
8
BLACK
6
CONTINUOUS
10
-353.627
20
-119.137
11
-352.467
21
-118.826
0
LINE
8
BLACK
6
CONTINUOUS
10
-352.467
20
-118.826
11
-352.235
21
-119.696
0
LINE
8
BLACK
6
CONTINUOUS
10
-589.188
20
-118.813
11
-590.388
21
-118.813
0
LINE
8
BLACK
6
CONTINUOUS
10
-590.388
20
-118.813
11
-590.388
21
-117.913
0
LINE
8
BLACK
6
CONTINUOUS
10
-590.388
20
-117.913
11
-589.188
21
-117.913
0
LINE
8
BLACK
6
CONTINUOUS
10
-589.188
20
-117.913
11
-589.188
21
-118.813
0
LINE
8
BLACK
6
CONTINUOUS
10
-589.188
20
-115.513
11
-590.388
21
-115.513
0
LINE
8
BLACK
6
CONTINUOUS
10
-590.388
20
-115.513
11
-590.388
21
-114.613
0
LINE
8
BLACK
6
CONTINUOUS
10
-590.388
20
-114.613
11
-589.188
21
-114.613
0
LINE
8
BLACK
6
CONTINUOUS
10
-589.188
20
-114.613
11
-589.188
21
-115.513
0
LINE
8
BLACK
6
CONTINUOUS
10
-391.726
20
-113.454
11
-391.959
21
-114.324
0
LINE
8
BLACK
6
CONTINUOUS
10
-391.959
20
-114.324
11
-393.118
21
-114.013
0
LINE
8
BLACK
6
CONTINUOUS
10
-393.118
20
-114.013
11
-392.885
21
-113.144
0
LINE
8
BLACK
6
CONTINUOUS
10
-392.885
20
-113.144
11
-391.726
21
-113.454
0
LINE
8
BLACK
6
CONTINUOUS
10
-373.479
20
-114.013
11
-374.638
21
-114.324
0
LINE
8
BLACK
6
CONTINUOUS
10
-374.638
20
-114.324
11
-374.871
21
-113.454
0
LINE
8
BLACK
6
CONTINUOUS
10
-374.871
20
-113.454
11
-373.712
21
-113.144
0
LINE
8
BLACK
6
CONTINUOUS
10
-373.712
20
-113.144
11
-373.479
21
-114.013
0
LINE
8
BLACK
6
CONTINUOUS
10
-430.993
20
-112.794
11
-431.226
21
-113.663
0
LINE
8
BLACK
6
CONTINUOUS
10
-431.226
20
-113.663
11
-432.385
21
-113.352
0
LINE
8
BLACK
6
CONTINUOUS
10
-432.385
20
-113.352
11
-432.152
21
-112.483
0
LINE
8
BLACK
6
CONTINUOUS
10
-432.152
20
-112.483
11
-430.993
21
-112.794
0
LINE
8
BLACK
6
CONTINUOUS
10
-334.212
20
-113.352
11
-335.371
21
-113.663
0
LINE
8
BLACK
6
CONTINUOUS
10
-335.371
20
-113.663
11
-335.604
21
-112.794
0
LINE
8
BLACK
6
CONTINUOUS
10
-335.604
20
-112.794
11
-334.445
21
-112.483
0
LINE
8
BLACK
6
CONTINUOUS
10
-334.445
20
-112.483
11
-334.212
21
-113.352
0
LINE
8
BLACK
6
CONTINUOUS
10
-450.627
20
-112.463
11
-450.86
21
-113.333
0
LINE
8
BLACK
6
CONTINUOUS
10
-450.86
20
-113.333
11
-452.019
21
-113.022
0
LINE
8
BLACK
6
CONTINUOUS
10
-452.019
20
-113.022
11
-451.786
21
-112.153
0
LINE
8
BLACK
6
CONTINUOUS
10
-451.786
20
-112.153
11
-450.627
21
-112.463
0
LINE
8
BLACK
6
CONTINUOUS
10
-314.579
20
-113.022
11
-315.738
21
-113.333
0
LINE
8
BLACK
6
CONTINUOUS
10
-315.738
20
-113.333
11
-315.971
21
-112.463
0
LINE
8
BLACK
6
CONTINUOUS
10
-315.971
20
-112.463
11
-314.812
21
-112.153
0
LINE
8
BLACK
6
CONTINUOUS
10
-314.812
20
-112.153
11
-314.579
21
-113.022
0
LINE
8
BLACK
6
CONTINUOUS
10
-374.333
20
-110.826
11
-375.492
21
-111.136
0
LINE
8
BLACK
6
CONTINUOUS
10
-375.492
20
-111.136
11
-375.725
21
-110.267
0
LINE
8
BLACK
6
CONTINUOUS
10
-375.725
20
-110.267
11
-374.566
21
-109.956
0
LINE
8
BLACK
6
CONTINUOUS
10
-374.566
20
-109.956
11
-374.333
21
-110.826
0
LINE
8
BLACK
6
CONTINUOUS
10
-390.872
20
-110.267
11
-391.105
21
-111.136
0
LINE
8
BLACK
6
CONTINUOUS
10
-391.105
20
-111.136
11
-392.264
21
-110.826
0
LINE
8
BLACK
6
CONTINUOUS
10
-392.264
20
-110.826
11
-392.031
21
-109.956
0
LINE
8
BLACK
6
CONTINUOUS
10
-392.031
20
-109.956
11
-390.872
21
-110.267
0
LINE
8
BLACK
6
CONTINUOUS
10
-430.139
20
-109.606
11
-430.372
21
-110.476
0
LINE
8
BLACK
6
CONTINUOUS
10
-430.372
20
-110.476
11
-431.531
21
-110.165
0
LINE
8
BLACK
6
CONTINUOUS
10
-431.531
20
-110.165
11
-431.298
21
-109.296
0
LINE
8
BLACK
6
CONTINUOUS
10
-431.298
20
-109.296
11
-430.139
21
-109.606
0
LINE
8
BLACK
6
CONTINUOUS
10
-335.066
20
-110.165
11
-336.225
21
-110.476
0
LINE
8
BLACK
6
CONTINUOUS
10
-336.225
20
-110.476
11
-336.458
21
-109.606
0
LINE
8
BLACK
6
CONTINUOUS
10
-336.458
20
-109.606
11
-335.299
21
-109.296
0
LINE
8
BLACK
6
CONTINUOUS
10
-335.299
20
-109.296
11
-335.066
21
-110.165
0
LINE
8
BLACK
6
CONTINUOUS
10
-449.773
20
-109.276
11
-450.006
21
-110.145
0
LINE
8
BLACK
6
CONTINUOUS
10
-450.006
20
-110.145
11
-451.165
21
-109.835
0
LINE
8
BLACK
6
CONTINUOUS
10
-451.165
20
-109.835
11
-450.932
21
-108.965
0
LINE
8
BLACK
6
CONTINUOUS
10
-450.932
20
-108.965
11
-449.773
21
-109.276
0
LINE
8
BLACK
6
CONTINUOUS
10
-315.433
20
-109.835
11
-316.592
21
-110.145
0
LINE
8
BLACK
6
CONTINUOUS
10
-316.592
20
-110.145
11
-316.825
21
-109.276
0
LINE
8
BLACK
6
CONTINUOUS
10
-316.825
20
-109.276
11
-315.666
21
-108.965
0
LINE
8
BLACK
6
CONTINUOUS
10
-315.666
20
-108.965
11
-315.433
21
-109.835
0
LINE
8
BLACK
6
CONTINUOUS
10
-286.515
20
-109.301
11
-287.715
21
-109.301
0
LINE
8
BLACK
6
CONTINUOUS
10
-287.715
20
-109.301
11
-287.715
21
-108.401
0
LINE
8
BLACK
6
CONTINUOUS
10
-287.715
20
-108.401
11
-286.515
21
-108.401
0
LINE
8
BLACK
6
CONTINUOUS
10
-286.515
20
-108.401
11
-286.515
21
-109.301
0
LINE
8
BLACK
6
CONTINUOUS
10
-229.365
20
-109.301
11
-230.565
21
-109.301
0
LINE
8
BLACK
6
CONTINUOUS
10
-230.565
20
-109.301
11
-230.565
21
-108.401
0
LINE
8
BLACK
6
CONTINUOUS
10
-230.565
20
-108.401
11
-229.365
21
-108.401
0
LINE
8
BLACK
6
CONTINUOUS
10
-229.365
20
-108.401
11
-229.365
21
-109.301
0
LINE
8
BLACK
6
CONTINUOUS
10
-267.465
20
-109.301
11
-268.665
21
-109.301
0
LINE
8
BLACK
6
CONTINUOUS
10
-268.665
20
-109.301
11
-268.665
21
-108.401
0
LINE
8
BLACK
6
CONTINUOUS
10
-268.665
20
-108.401
11
-267.465
21
-108.401
0
LINE
8
BLACK
6
CONTINUOUS
10
-267.465
20
-108.401
11
-267.465
21
-109.301
0
LINE
8
BLACK
6
CONTINUOUS
10
-248.415
20
-109.301
11
-249.615
21
-109.301
0
LINE
8
BLACK
6
CONTINUOUS
10
-249.615
20
-109.301
11
-249.615
21
-108.401
0
LINE
8
BLACK
6
CONTINUOUS
10
-249.615
20
-108.401
11
-248.415
21
-108.401
0
LINE
8
BLACK
6
CONTINUOUS
10
-248.415
20
-108.401
11
-248.415
21
-109.301
0
LINE
8
BLACK
6
CONTINUOUS
10
-608.238
20
-109.288
11
-609.438
21
-109.288
0
LINE
8
BLACK
6
CONTINUOUS
10
-609.438
20
-109.288
11
-609.438
21
-108.388
0
LINE
8
BLACK
6
CONTINUOUS
10
-609.438
20
-108.388
11
-608.238
21
-108.388
0
LINE
8
BLACK
6
CONTINUOUS
10
-608.238
20
-108.388
11
-608.238
21
-109.288
0
LINE
8
BLACK
6
CONTINUOUS
10
-493.874
20
-109.288
11
-495.075
21
-109.288
0
LINE
8
BLACK
6
CONTINUOUS
10
-495.075
20
-109.288
11
-495.075
21
-108.388
0
LINE
8
BLACK
6
CONTINUOUS
10
-495.075
20
-108.388
11
-493.874
21
-108.388
0
LINE
8
BLACK
6
CONTINUOUS
10
-493.874
20
-108.388
11
-493.874
21
-109.288
0
LINE
8
BLACK
6
CONTINUOUS
10
-474.761
20
-109.288
11
-475.961
21
-109.288
0
LINE
8
BLACK
6
CONTINUOUS
10
-475.961
20
-109.288
11
-475.961
21
-108.388
0
LINE
8
BLACK
6
CONTINUOUS
10
-475.961
20
-108.388
11
-474.761
21
-108.388
0
LINE
8
BLACK
6
CONTINUOUS
10
-474.761
20
-108.388
11
-474.761
21
-109.288
0
LINE
8
BLACK
6
CONTINUOUS
10
-646.338
20
-109.288
11
-647.538
21
-109.288
0
LINE
8
BLACK
6
CONTINUOUS
10
-647.538
20
-109.288
11
-647.538
21
-108.388
0
LINE
8
BLACK
6
CONTINUOUS
10
-647.538
20
-108.388
11
-646.338
21
-108.388
0
LINE
8
BLACK
6
CONTINUOUS
10
-646.338
20
-108.388
11
-646.338
21
-109.288
0
LINE
8
BLACK
6
CONTINUOUS
10
-627.288
20
-109.288
11
-628.488
21
-109.288
0
LINE
8
BLACK
6
CONTINUOUS
10
-628.488
20
-109.288
11
-628.488
21
-108.388
0
LINE
8
BLACK
6
CONTINUOUS
10
-628.488
20
-108.388
11
-627.288
21
-108.388
0
LINE
8
BLACK
6
CONTINUOUS
10
-627.288
20
-108.388
11
-627.288
21
-109.288
0
LINE
8
BLACK
6
CONTINUOUS
10
-267.465
20
-106.001
11
-268.665
21
-106.001
0
LINE
8
BLACK
6
CONTINUOUS
10
-268.665
20
-106.001
11
-268.665
21
-105.101
0
LINE
8
BLACK
6
CONTINUOUS
10
-268.665
20
-105.101
11
-267.465
21
-105.101
0
LINE
8
BLACK
6
CONTINUOUS
10
-267.465
20
-105.101
11
-267.465
21
-106.001
0
LINE
8
BLACK
6
CONTINUOUS
10
-286.515
20
-106.001
11
-287.715
21
-106.001
0
LINE
8
BLACK
6
CONTINUOUS
10
-287.715
20
-106.001
11
-287.715
21
-105.101
0
LINE
8
BLACK
6
CONTINUOUS
10
-287.715
20
-105.101
11
-286.515
21
-105.101
0
LINE
8
BLACK
6
CONTINUOUS
10
-286.515
20
-105.101
11
-286.515
21
-106.001
0
LINE
8
BLACK
6
CONTINUOUS
10
-248.415
20
-106.001
11
-249.615
21
-106.001
0
LINE
8
BLACK
6
CONTINUOUS
10
-249.615
20
-106.001
11
-249.615
21
-105.101
0
LINE
8
BLACK
6
CONTINUOUS
10
-249.615
20
-105.101
11
-248.415
21
-105.101
0
LINE
8
BLACK
6
CONTINUOUS
10
-248.415
20
-105.101
11
-248.415
21
-106.001
0
LINE
8
BLACK
6
CONTINUOUS
10
-229.365
20
-106.001
11
-230.565
21
-106.001
0
LINE
8
BLACK
6
CONTINUOUS
10
-230.565
20
-106.001
11
-230.565
21
-105.101
0
LINE
8
BLACK
6
CONTINUOUS
10
-230.565
20
-105.101
11
-229.365
21
-105.101
0
LINE
8
BLACK
6
CONTINUOUS
10
-229.365
20
-105.101
11
-229.365
21
-106.001
0
LINE
8
BLACK
6
CONTINUOUS
10
-627.288
20
-105.988
11
-628.488
21
-105.988
0
LINE
8
BLACK
6
CONTINUOUS
10
-628.488
20
-105.988
11
-628.488
21
-105.088
0
LINE
8
BLACK
6
CONTINUOUS
10
-628.488
20
-105.088
11
-627.288
21
-105.088
0
LINE
8
BLACK
6
CONTINUOUS
10
-627.288
20
-105.088
11
-627.288
21
-105.988
0
LINE
8
BLACK
6
CONTINUOUS
10
-646.338
20
-105.988
11
-647.538
21
-105.988
0
LINE
8
BLACK
6
CONTINUOUS
10
-647.538
20
-105.988
11
-647.538
21
-105.088
0
LINE
8
BLACK
6
CONTINUOUS
10
-647.538
20
-105.088
11
-646.338
21
-105.088
0
LINE
8
BLACK
6
CONTINUOUS
10
-646.338
20
-105.088
11
-646.338
21
-105.988
0
LINE
8
BLACK
6
CONTINUOUS
10
-474.761
20
-105.988
11
-475.961
21
-105.988
0
LINE
8
BLACK
6
CONTINUOUS
10
-475.961
20
-105.988
11
-475.961
21
-105.088
0
LINE
8
BLACK
6
CONTINUOUS
10
-475.961
20
-105.088
11
-474.761
21
-105.088
0
LINE
8
BLACK
6
CONTINUOUS
10
-474.761
20
-105.088
11
-474.761
21
-105.988
0
LINE
8
BLACK
6
CONTINUOUS
10
-493.874
20
-105.988
11
-495.075
21
-105.988
0
LINE
8
BLACK
6
CONTINUOUS
10
-495.075
20
-105.988
11
-495.075
21
-105.088
0
LINE
8
BLACK
6
CONTINUOUS
10
-495.075
20
-105.088
11
-493.874
21
-105.088
0
LINE
8
BLACK
6
CONTINUOUS
10
-493.874
20
-105.088
11
-493.874
21
-105.988
0
LINE
8
BLACK
6
CONTINUOUS
10
-608.238
20
-105.988
11
-609.438
21
-105.988
0
LINE
8
BLACK
6
CONTINUOUS
10
-609.438
20
-105.988
11
-609.438
21
-105.088
0
LINE
8
BLACK
6
CONTINUOUS
10
-609.438
20
-105.088
11
-608.238
21
-105.088
0
LINE
8
BLACK
6
CONTINUOUS
10
-608.238
20
-105.088
11
-608.238
21
-105.988
0
LINE
8
BLACK
6
CONTINUOUS
10
-408.894
20
-103.924
11
-409.127
21
-104.793
0
LINE
8
BLACK
6
CONTINUOUS
10
-409.127
20
-104.793
11
-410.286
21
-104.482
0
LINE
8
BLACK
6
CONTINUOUS
10
-410.286
20
-104.482
11
-410.054
21
-103.613
0
LINE
8
BLACK
6
CONTINUOUS
10
-410.054
20
-103.613
11
-408.894
21
-103.924
0
LINE
8
BLACK
6
CONTINUOUS
10
-356.311
20
-104.482
11
-357.47
21
-104.793
0
LINE
8
BLACK
6
CONTINUOUS
10
-357.47
20
-104.793
11
-357.703
21
-103.924
0
LINE
8
BLACK
6
CONTINUOUS
10
-357.703
20
-103.924
11
-356.544
21
-103.613
0
LINE
8
BLACK
6
CONTINUOUS
10
-356.544
20
-103.613
11
-356.311
21
-104.482
0
LINE
8
BLACK
6
CONTINUOUS
10
-408.04
20
-100.736
11
-408.273
21
-101.605
0
LINE
8
BLACK
6
CONTINUOUS
10
-408.273
20
-101.605
11
-409.432
21
-101.295
0
LINE
8
BLACK
6
CONTINUOUS
10
-409.432
20
-101.295
11
-409.199
21
-100.425
0
LINE
8
BLACK
6
CONTINUOUS
10
-409.199
20
-100.425
11
-408.04
21
-100.736
0
LINE
8
BLACK
6
CONTINUOUS
10
-357.165
20
-101.295
11
-358.324
21
-101.605
0
LINE
8
BLACK
6
CONTINUOUS
10
-358.324
20
-101.605
11
-358.557
21
-100.736
0
LINE
8
BLACK
6
CONTINUOUS
10
-358.557
20
-100.736
11
-357.398
21
-100.425
0
LINE
8
BLACK
6
CONTINUOUS
10
-357.398
20
-100.425
11
-357.165
21
-101.295
0
LINE
8
BLACK
6
CONTINUOUS
10
-339.143
20
-94.9516
11
-340.302
21
-95.2622
0
LINE
8
BLACK
6
CONTINUOUS
10
-340.302
20
-95.2622
11
-340.535
21
-94.3929
0
LINE
8
BLACK
6
CONTINUOUS
10
-340.535
20
-94.3929
11
-339.376
21
-94.0823
0
LINE
8
BLACK
6
CONTINUOUS
10
-339.376
20
-94.0823
11
-339.143
21
-94.9516
0
LINE
8
BLACK
6
CONTINUOUS
10
-426.063
20
-94.3929
11
-426.296
21
-95.2622
0
LINE
8
BLACK
6
CONTINUOUS
10
-426.296
20
-95.2622
11
-427.455
21
-94.9516
0
LINE
8
BLACK
6
CONTINUOUS
10
-427.455
20
-94.9516
11
-427.222
21
-94.0823
0
LINE
8
BLACK
6
CONTINUOUS
10
-427.222
20
-94.0823
11
-426.063
21
-94.3929
0
LINE
8
BLACK
6
CONTINUOUS
10
-445.696
20
-94.0626
11
-445.929
21
-94.9319
0
LINE
8
BLACK
6
CONTINUOUS
10
-445.929
20
-94.9319
11
-447.088
21
-94.6213
0
LINE
8
BLACK
6
CONTINUOUS
10
-447.088
20
-94.6213
11
-446.855
21
-93.752
0
LINE
8
BLACK
6
CONTINUOUS
10
-446.855
20
-93.752
11
-445.696
21
-94.0626
0
LINE
8
BLACK
6
CONTINUOUS
10
-319.509
20
-94.6213
11
-320.668
21
-94.9319
0
LINE
8
BLACK
6
CONTINUOUS
10
-320.668
20
-94.9319
11
-320.901
21
-94.0626
0
LINE
8
BLACK
6
CONTINUOUS
10
-320.901
20
-94.0626
11
-319.742
21
-93.752
0
LINE
8
BLACK
6
CONTINUOUS
10
-319.742
20
-93.752
11
-319.509
21
-94.6213
0
LINE
8
BLACK
6
CONTINUOUS
10
-425.209
20
-91.2053
11
-425.441
21
-92.0746
0
LINE
8
BLACK
6
CONTINUOUS
10
-425.441
20
-92.0746
11
-426.601
21
-91.7641
0
LINE
8
BLACK
6
CONTINUOUS
10
-426.601
20
-91.7641
11
-426.368
21
-90.8947
0
LINE
8
BLACK
6
CONTINUOUS
10
-426.368
20
-90.8947
11
-425.209
21
-91.2053
0
LINE
8
BLACK
6
CONTINUOUS
10
-339.997
20
-91.7641
11
-341.156
21
-92.0746
0
LINE
8
BLACK
6
CONTINUOUS
10
-341.156
20
-92.0746
11
-341.389
21
-91.2053
0
LINE
8
BLACK
6
CONTINUOUS
10
-341.389
20
-91.2053
11
-340.23
21
-90.8947
0
LINE
8
BLACK
6
CONTINUOUS
10
-340.23
20
-90.8947
11
-339.997
21
-91.7641
0
LINE
8
BLACK
6
CONTINUOUS
10
-444.842
20
-90.875
11
-445.075
21
-91.7444
0
LINE
8
BLACK
6
CONTINUOUS
10
-445.075
20
-91.7444
11
-446.234
21
-91.4338
0
LINE
8
BLACK
6
CONTINUOUS
10
-446.234
20
-91.4338
11
-446.001
21
-90.5644
0
LINE
8
BLACK
6
CONTINUOUS
10
-446.001
20
-90.5644
11
-444.842
21
-90.875
0
LINE
8
BLACK
6
CONTINUOUS
10
-320.363
20
-91.4338
11
-321.522
21
-91.7444
0
LINE
8
BLACK
6
CONTINUOUS
10
-321.522
20
-91.7444
11
-321.755
21
-90.875
0
LINE
8
BLACK
6
CONTINUOUS
10
-321.755
20
-90.875
11
-320.596
21
-90.5644
0
LINE
8
BLACK
6
CONTINUOUS
10
-320.596
20
-90.5644
11
-320.363
21
-91.4338
0
LINE
8
BLACK
6
CONTINUOUS
10
-379.642
20
-91.012
11
-380.801
21
-91.3225
0
LINE
8
BLACK
6
CONTINUOUS
10
-380.801
20
-91.3225
11
-381.034
21
-90.4532
0
LINE
8
BLACK
6
CONTINUOUS
10
-381.034
20
-90.4532
11
-379.875
21
-90.1426
0
LINE
8
BLACK
6
CONTINUOUS
10
-379.875
20
-90.1426
11
-379.642
21
-91.012
0
LINE
8
BLACK
6
CONTINUOUS
10
-385.563
20
-90.4532
11
-385.796
21
-91.3225
0
LINE
8
BLACK
6
CONTINUOUS
10
-385.796
20
-91.3225
11
-386.955
21
-91.012
0
LINE
8
BLACK
6
CONTINUOUS
10
-386.955
20
-91.012
11
-386.722
21
-90.1426
0
LINE
8
BLACK
6
CONTINUOUS
10
-386.722
20
-90.1426
11
-385.563
21
-90.4532
0
LINE
8
BLACK
6
CONTINUOUS
10
-257.94
20
-90.2507
11
-259.14
21
-90.2507
0
LINE
8
BLACK
6
CONTINUOUS
10
-259.14
20
-90.2507
11
-259.14
21
-89.3507
0
LINE
8
BLACK
6
CONTINUOUS
10
-259.14
20
-89.3507
11
-257.94
21
-89.3507
0
LINE
8
BLACK
6
CONTINUOUS
10
-257.94
20
-89.3507
11
-257.94
21
-90.2507
0
LINE
8
BLACK
6
CONTINUOUS
10
-238.89
20
-90.2507
11
-240.09
21
-90.2507
0
LINE
8
BLACK
6
CONTINUOUS
10
-240.09
20
-90.2507
11
-240.09
21
-89.3507
0
LINE
8
BLACK
6
CONTINUOUS
10
-240.09
20
-89.3507
11
-238.89
21
-89.3507
0
LINE
8
BLACK
6
CONTINUOUS
10
-238.89
20
-89.3507
11
-238.89
21
-90.2507
0
LINE
8
BLACK
6
CONTINUOUS
10
-296.04
20
-90.2507
11
-297.24
21
-90.2507
0
LINE
8
BLACK
6
CONTINUOUS
10
-297.24
20
-90.2507
11
-297.24
21
-89.3507
0
LINE
8
BLACK
6
CONTINUOUS
10
-297.24
20
-89.3507
11
-296.04
21
-89.3507
0
LINE
8
BLACK
6
CONTINUOUS
10
-296.04
20
-89.3507
11
-296.04
21
-90.2507
0
LINE
8
BLACK
6
CONTINUOUS
10
-276.99
20
-90.2507
11
-278.19
21
-90.2507
0
LINE
8
BLACK
6
CONTINUOUS
10
-278.19
20
-90.2507
11
-278.19
21
-89.3507
0
LINE
8
BLACK
6
CONTINUOUS
10
-278.19
20
-89.3507
11
-276.99
21
-89.3507
0
LINE
8
BLACK
6
CONTINUOUS
10
-276.99
20
-89.3507
11
-276.99
21
-90.2507
0
LINE
8
BLACK
6
CONTINUOUS
10
-646.338
20
-90.238
11
-647.538
21
-90.238
0
LINE
8
BLACK
6
CONTINUOUS
10
-647.538
20
-90.238
11
-647.538
21
-89.338
0
LINE
8
BLACK
6
CONTINUOUS
10
-647.538
20
-89.338
11
-646.338
21
-89.338
0
LINE
8
BLACK
6
CONTINUOUS
10
-646.338
20
-89.338
11
-646.338
21
-90.238
0
LINE
8
BLACK
6
CONTINUOUS
10
-608.238
20
-90.238
11
-609.438
21
-90.238
0
LINE
8
BLACK
6
CONTINUOUS
10
-609.438
20
-90.238
11
-609.438
21
-89.338
0
LINE
8
BLACK
6
CONTINUOUS
10
-609.438
20
-89.338
11
-608.238
21
-89.338
0
LINE
8
BLACK
6
CONTINUOUS
10
-608.238
20
-89.338
11
-608.238
21
-90.238
0
LINE
8
BLACK
6
CONTINUOUS
10
-589.188
20
-90.238
11
-590.388
21
-90.238
0
LINE
8
BLACK
6
CONTINUOUS
10
-590.388
20
-90.238
11
-590.388
21
-89.338
0
LINE
8
BLACK
6
CONTINUOUS
10
-590.388
20
-89.338
11
-589.188
21
-89.338
0
LINE
8
BLACK
6
CONTINUOUS
10
-589.188
20
-89.338
11
-589.188
21
-90.238
0
LINE
8
BLACK
6
CONTINUOUS
10
-565.375
20
-90.238
11
-566.575
21
-90.238
0
LINE
8
BLACK
6
CONTINUOUS
10
-566.575
20
-90.238
11
-566.575
21
-89.338
0
LINE
8
BLACK
6
CONTINUOUS
10
-566.575
20
-89.338
11
-565.375
21
-89.338
0
LINE
8
BLACK
6
CONTINUOUS
10
-565.375
20
-89.338
11
-565.375
21
-90.238
0
LINE
8
BLACK
6
CONTINUOUS
10
-469.998
20
-90.238
11
-471.198
21
-90.238
0
LINE
8
BLACK
6
CONTINUOUS
10
-471.198
20
-90.238
11
-471.198
21
-89.338
0
LINE
8
BLACK
6
CONTINUOUS
10
-471.198
20
-89.338
11
-469.998
21
-89.338
0
LINE
8
BLACK
6
CONTINUOUS
10
-469.998
20
-89.338
11
-469.998
21
-90.238
0
LINE
8
BLACK
6
CONTINUOUS
10
-627.288
20
-90.238
11
-628.488
21
-90.238
0
LINE
8
BLACK
6
CONTINUOUS
10
-628.488
20
-90.238
11
-628.488
21
-89.338
0
LINE
8
BLACK
6
CONTINUOUS
10
-628.488
20
-89.338
11
-627.288
21
-89.338
0
LINE
8
BLACK
6
CONTINUOUS
10
-627.288
20
-89.338
11
-627.288
21
-90.238
0
LINE
8
BLACK
6
CONTINUOUS
10
-489.112
20
-90.238
11
-490.312
21
-90.238
0
LINE
8
BLACK
6
CONTINUOUS
10
-490.312
20
-90.238
11
-490.312
21
-89.338
0
LINE
8
BLACK
6
CONTINUOUS
10
-490.312
20
-89.338
11
-489.112
21
-89.338
0
LINE
8
BLACK
6
CONTINUOUS
10
-489.112
20
-89.338
11
-489.112
21
-90.238
0
LINE
8
BLACK
6
CONTINUOUS
10
-542.077
20
-90.0678
11
-544.077
21
-90.0678
0
LINE
8
BLACK
6
CONTINUOUS
10
-544.077
20
-90.0678
11
-544.077
21
-86.8178
0
LINE
8
BLACK
6
CONTINUOUS
10
-544.077
20
-86.8178
11
-542.077
21
-86.8178
0
LINE
8
BLACK
6
CONTINUOUS
10
-542.077
20
-86.8178
11
-542.077
21
-90.0678
0
LINE
8
BLACK
6
CONTINUOUS
10
-544.617
20
-90.0678
11
-546.617
21
-90.0678
0
LINE
8
BLACK
6
CONTINUOUS
10
-546.617
20
-90.0678
11
-546.617
21
-86.8178
0
LINE
8
BLACK
6
CONTINUOUS
10
-546.617
20
-86.8178
11
-544.617
21
-86.8178
0
LINE
8
BLACK
6
CONTINUOUS
10
-544.617
20
-86.8178
11
-544.617
21
-90.0678
0
LINE
8
BLACK
6
CONTINUOUS
10
-547.157
20
-90.0678
11
-549.157
21
-90.0678
0
LINE
8
BLACK
6
CONTINUOUS
10
-549.157
20
-90.0678
11
-549.157
21
-86.8178
0
LINE
8
BLACK
6
CONTINUOUS
10
-549.157
20
-86.8178
11
-547.157
21
-86.8178
0
LINE
8
BLACK
6
CONTINUOUS
10
-547.157
20
-86.8178
11
-547.157
21
-90.0678
0
LINE
8
BLACK
6
CONTINUOUS
10
-549.697
20
-90.0678
11
-551.697
21
-90.0678
0
LINE
8
BLACK
6
CONTINUOUS
10
-551.697
20
-90.0678
11
-551.697
21
-86.8178
0
LINE
8
BLACK
6
CONTINUOUS
10
-551.697
20
-86.8178
11
-549.697
21
-86.8178
0
LINE
8
BLACK
6
CONTINUOUS
10
-549.697
20
-86.8178
11
-549.697
21
-90.0678
0
LINE
8
BLACK
6
CONTINUOUS
10
-552.237
20
-90.0678
11
-554.237
21
-90.0678
0
LINE
8
BLACK
6
CONTINUOUS
10
-554.237
20
-90.0678
11
-554.237
21
-86.8178
0
LINE
8
BLACK
6
CONTINUOUS
10
-554.237
20
-86.8178
11
-552.237
21
-86.8178
0
LINE
8
BLACK
6
CONTINUOUS
10
-552.237
20
-86.8178
11
-552.237
21
-90.0678
0
LINE
8
BLACK
6
CONTINUOUS
10
-384.709
20
-87.2656
11
-384.942
21
-88.135
0
LINE
8
BLACK
6
CONTINUOUS
10
-384.942
20
-88.135
11
-386.101
21
-87.8244
0
LINE
8
BLACK
6
CONTINUOUS
10
-386.101
20
-87.8244
11
-385.868
21
-86.9551
0
LINE
8
BLACK
6
CONTINUOUS
10
-385.868
20
-86.9551
11
-384.709
21
-87.2656
0
LINE
8
BLACK
6
CONTINUOUS
10
-380.496
20
-87.8244
11
-381.656
21
-88.135
0
LINE
8
BLACK
6
CONTINUOUS
10
-381.656
20
-88.135
11
-381.888
21
-87.2656
0
LINE
8
BLACK
6
CONTINUOUS
10
-381.888
20
-87.2656
11
-380.729
21
-86.9551
0
LINE
8
BLACK
6
CONTINUOUS
10
-380.729
20
-86.9551
11
-380.496
21
-87.8244
0
LINE
8
BLACK
6
CONTINUOUS
10
-555.93
20
-87.5378
11
-559.18
21
-87.5378
0
LINE
8
BLACK
6
CONTINUOUS
10
-559.18
20
-87.5378
11
-559.18
21
-85.5378
0
LINE
8
BLACK
6
CONTINUOUS
10
-559.18
20
-85.5378
11
-555.93
21
-85.5378
0
LINE
8
BLACK
6
CONTINUOUS
10
-555.93
20
-85.5378
11
-555.93
21
-87.5378
0
LINE
8
BLACK
6
CONTINUOUS
10
-537.134
20
-87.5378
11
-540.384
21
-87.5378
0
LINE
8
BLACK
6
CONTINUOUS
10
-540.384
20
-87.5378
11
-540.384
21
-85.5378
0
LINE
8
BLACK
6
CONTINUOUS
10
-540.384
20
-85.5378
11
-537.134
21
-85.5378
0
LINE
8
BLACK
6
CONTINUOUS
10
-537.134
20
-85.5378
11
-537.134
21
-87.5378
0
LINE
8
BLACK
6
CONTINUOUS
10
-238.89
20
-86.9507
11
-240.09
21
-86.9507
0
LINE
8
BLACK
6
CONTINUOUS
10
-240.09
20
-86.9507
11
-240.09
21
-86.0507
0
LINE
8
BLACK
6
CONTINUOUS
10
-240.09
20
-86.0507
11
-238.89
21
-86.0507
0
LINE
8
BLACK
6
CONTINUOUS
10
-238.89
20
-86.0507
11
-238.89
21
-86.9507
0
LINE
8
BLACK
6
CONTINUOUS
10
-257.94
20
-86.9507
11
-259.14
21
-86.9507
0
LINE
8
BLACK
6
CONTINUOUS
10
-259.14
20
-86.9507
11
-259.14
21
-86.0507
0
LINE
8
BLACK
6
CONTINUOUS
10
-259.14
20
-86.0507
11
-257.94
21
-86.0507
0
LINE
8
BLACK
6
CONTINUOUS
10
-257.94
20
-86.0507
11
-257.94
21
-86.9507
0
LINE
8
BLACK
6
CONTINUOUS
10
-296.04
20
-86.9507
11
-297.24
21
-86.9507
0
LINE
8
BLACK
6
CONTINUOUS
10
-297.24
20
-86.9507
11
-297.24
21
-86.0507
0
LINE
8
BLACK
6
CONTINUOUS
10
-297.24
20
-86.0507
11
-296.04
21
-86.0507
0
LINE
8
BLACK
6
CONTINUOUS
10
-296.04
20
-86.0507
11
-296.04
21
-86.9507
0
LINE
8
BLACK
6
CONTINUOUS
10
-276.99
20
-86.9507
11
-278.19
21
-86.9507
0
LINE
8
BLACK
6
CONTINUOUS
10
-278.19
20
-86.9507
11
-278.19
21
-86.0507
0
LINE
8
BLACK
6
CONTINUOUS
10
-278.19
20
-86.0507
11
-276.99
21
-86.0507
0
LINE
8
BLACK
6
CONTINUOUS
10
-276.99
20
-86.0507
11
-276.99
21
-86.9507
0
LINE
8
BLACK
6
CONTINUOUS
10
-589.188
20
-86.938
11
-590.388
21
-86.938
0
LINE
8
BLACK
6
CONTINUOUS
10
-590.388
20
-86.938
11
-590.388
21
-86.038
0
LINE
8
BLACK
6
CONTINUOUS
10
-590.388
20
-86.038
11
-589.188
21
-86.038
0
LINE
8
BLACK
6
CONTINUOUS
10
-589.188
20
-86.038
11
-589.188
21
-86.938
0
LINE
8
BLACK
6
CONTINUOUS
10
-627.288
20
-86.938
11
-628.488
21
-86.938
0
LINE
8
BLACK
6
CONTINUOUS
10
-628.488
20
-86.938
11
-628.488
21
-86.038
0
LINE
8
BLACK
6
CONTINUOUS
10
-628.488
20
-86.038
11
-627.288
21
-86.038
0
LINE
8
BLACK
6
CONTINUOUS
10
-627.288
20
-86.038
11
-627.288
21
-86.938
0
LINE
8
BLACK
6
CONTINUOUS
10
-565.375
20
-86.938
11
-566.575
21
-86.938
0
LINE
8
BLACK
6
CONTINUOUS
10
-566.575
20
-86.938
11
-566.575
21
-86.038
0
LINE
8
BLACK
6
CONTINUOUS
10
-566.575
20
-86.038
11
-565.375
21
-86.038
0
LINE
8
BLACK
6
CONTINUOUS
10
-565.375
20
-86.038
11
-565.375
21
-86.938
0
LINE
8
BLACK
6
CONTINUOUS
10
-646.338
20
-86.938
11
-647.538
21
-86.938
0
LINE
8
BLACK
6
CONTINUOUS
10
-647.538
20
-86.938
11
-647.538
21
-86.038
0
LINE
8
BLACK
6
CONTINUOUS
10
-647.538
20
-86.038
11
-646.338
21
-86.038
0
LINE
8
BLACK
6
CONTINUOUS
10
-646.338
20
-86.038
11
-646.338
21
-86.938
0
LINE
8
BLACK
6
CONTINUOUS
10
-608.238
20
-86.938
11
-609.438
21
-86.938
0
LINE
8
BLACK
6
CONTINUOUS
10
-609.438
20
-86.938
11
-609.438
21
-86.038
0
LINE
8
BLACK
6
CONTINUOUS
10
-609.438
20
-86.038
11
-608.238
21
-86.038
0
LINE
8
BLACK
6
CONTINUOUS
10
-608.238
20
-86.038
11
-608.238
21
-86.938
0
LINE
8
BLACK
6
CONTINUOUS
10
-489.112
20
-86.938
11
-490.312
21
-86.938
0
LINE
8
BLACK
6
CONTINUOUS
10
-490.312
20
-86.938
11
-490.312
21
-86.038
0
LINE
8
BLACK
6
CONTINUOUS
10
-490.312
20
-86.038
11
-489.112
21
-86.038
0
LINE
8
BLACK
6
CONTINUOUS
10
-489.112
20
-86.038
11
-489.112
21
-86.938
0
LINE
8
BLACK
6
CONTINUOUS
10
-469.998
20
-86.938
11
-471.198
21
-86.938
0
LINE
8
BLACK
6
CONTINUOUS
10
-471.198
20
-86.938
11
-471.198
21
-86.038
0
LINE
8
BLACK
6
CONTINUOUS
10
-471.198
20
-86.038
11
-469.998
21
-86.038
0
LINE
8
BLACK
6
CONTINUOUS
10
-469.998
20
-86.038
11
-469.998
21
-86.938
0
LINE
8
BLACK
6
CONTINUOUS
10
-555.93
20
-84.9978
11
-559.18
21
-84.9978
0
LINE
8
BLACK
6
CONTINUOUS
10
-559.18
20
-84.9978
11
-559.18
21
-82.9978
0
LINE
8
BLACK
6
CONTINUOUS
10
-559.18
20
-82.9978
11
-555.93
21
-82.9978
0
LINE
8
BLACK
6
CONTINUOUS
10
-555.93
20
-82.9978
11
-555.93
21
-84.9978
0
LINE
8
BLACK
6
CONTINUOUS
10
-537.134
20
-84.9978
11
-540.384
21
-84.9978
0
LINE
8
BLACK
6
CONTINUOUS
10
-540.384
20
-84.9978
11
-540.384
21
-82.9978
0
LINE
8
BLACK
6
CONTINUOUS
10
-540.384
20
-82.9978
11
-537.134
21
-82.9978
0
LINE
8
BLACK
6
CONTINUOUS
10
-537.134
20
-82.9978
11
-537.134
21
-84.9978
0
LINE
8
BLACK
6
CONTINUOUS
10
-555.93
20
-82.4578
11
-559.18
21
-82.4578
0
LINE
8
BLACK
6
CONTINUOUS
10
-559.18
20
-82.4578
11
-559.18
21
-80.4578
0
LINE
8
BLACK
6
CONTINUOUS
10
-559.18
20
-80.4578
11
-555.93
21
-80.4578
0
LINE
8
BLACK
6
CONTINUOUS
10
-555.93
20
-80.4578
11
-555.93
21
-82.4578
0
LINE
8
BLACK
6
CONTINUOUS
10
-537.134
20
-82.4578
11
-540.384
21
-82.4578
0
LINE
8
BLACK
6
CONTINUOUS
10
-540.384
20
-82.4578
11
-540.384
21
-80.4578
0
LINE
8
BLACK
6
CONTINUOUS
10
-540.384
20
-80.4578
11
-537.134
21
-80.4578
0
LINE
8
BLACK
6
CONTINUOUS
10
-537.134
20
-80.4578
11
-537.134
21
-82.4578
0
LINE
8
BLACK
6
CONTINUOUS
10
-402.731
20
-80.9225
11
-402.964
21
-81.7918
0
LINE
8
BLACK
6
CONTINUOUS
10
-402.964
20
-81.7918
11
-404.123
21
-81.4812
0
LINE
8
BLACK
6
CONTINUOUS
10
-404.123
20
-81.4812
11
-403.89
21
-80.6119
0
LINE
8
BLACK
6
CONTINUOUS
10
-403.89
20
-80.6119
11
-402.731
21
-80.9225
0
LINE
8
BLACK
6
CONTINUOUS
10
-362.474
20
-81.4812
11
-363.633
21
-81.7918
0
LINE
8
BLACK
6
CONTINUOUS
10
-363.633
20
-81.7918
11
-363.866
21
-80.9225
0
LINE
8
BLACK
6
CONTINUOUS
10
-363.866
20
-80.9225
11
-362.707
21
-80.6119
0
LINE
8
BLACK
6
CONTINUOUS
10
-362.707
20
-80.6119
11
-362.474
21
-81.4812
0
LINE
8
BLACK
6
CONTINUOUS
10
-555.93
20
-79.9178
11
-559.18
21
-79.9178
0
LINE
8
BLACK
6
CONTINUOUS
10
-559.18
20
-79.9178
11
-559.18
21
-77.9178
0
LINE
8
BLACK
6
CONTINUOUS
10
-559.18
20
-77.9178
11
-555.93
21
-77.9178
0
LINE
8
BLACK
6
CONTINUOUS
10
-555.93
20
-77.9178
11
-555.93
21
-79.9178
0
LINE
8
BLACK
6
CONTINUOUS
10
-537.134
20
-79.9178
11
-540.384
21
-79.9178
0
LINE
8
BLACK
6
CONTINUOUS
10
-540.384
20
-79.9178
11
-540.384
21
-77.9178
0
LINE
8
BLACK
6
CONTINUOUS
10
-540.384
20
-77.9178
11
-537.134
21
-77.9178
0
LINE
8
BLACK
6
CONTINUOUS
10
-537.134
20
-77.9178
11
-537.134
21
-79.9178
0
LINE
8
BLACK
6
CONTINUOUS
10
-363.328
20
-78.2937
11
-364.487
21
-78.6043
0
LINE
8
BLACK
6
CONTINUOUS
10
-364.487
20
-78.6043
11
-364.72
21
-77.7349
0
LINE
8
BLACK
6
CONTINUOUS
10
-364.72
20
-77.7349
11
-363.561
21
-77.4243
0
LINE
8
BLACK
6
CONTINUOUS
10
-363.561
20
-77.4243
11
-363.328
21
-78.2937
0
LINE
8
BLACK
6
CONTINUOUS
10
-401.877
20
-77.7349
11
-402.11
21
-78.6043
0
LINE
8
BLACK
6
CONTINUOUS
10
-402.11
20
-78.6043
11
-403.269
21
-78.2937
0
LINE
8
BLACK
6
CONTINUOUS
10
-403.269
20
-78.2937
11
-403.036
21
-77.4243
0
LINE
8
BLACK
6
CONTINUOUS
10
-403.036
20
-77.4243
11
-401.877
21
-77.7349
0
LINE
8
BLACK
6
CONTINUOUS
10
-555.93
20
-77.3778
11
-559.18
21
-77.3778
0
LINE
8
BLACK
6
CONTINUOUS
10
-559.18
20
-77.3778
11
-559.18
21
-75.3778
0
LINE
8
BLACK
6
CONTINUOUS
10
-559.18
20
-75.3778
11
-555.93
21
-75.3778
0
LINE
8
BLACK
6
CONTINUOUS
10
-555.93
20
-75.3778
11
-555.93
21
-77.3778
0
LINE
8
BLACK
6
CONTINUOUS
10
-537.134
20
-77.3778
11
-540.384
21
-77.3778
0
LINE
8
BLACK
6
CONTINUOUS
10
-540.384
20
-77.3778
11
-540.384
21
-75.3778
0
LINE
8
BLACK
6
CONTINUOUS
10
-540.384
20
-75.3778
11
-537.134
21
-75.3778
0
LINE
8
BLACK
6
CONTINUOUS
10
-537.134
20
-75.3778
11
-537.134
21
-77.3778
0
LINE
8
BLACK
6
CONTINUOUS
10
-555.93
20
-74.8378
11
-559.18
21
-74.8378
0
LINE
8
BLACK
6
CONTINUOUS
10
-559.18
20
-74.8378
11
-559.18
21
-72.8378
0
LINE
8
BLACK
6
CONTINUOUS
10
-559.18
20
-72.8378
11
-555.93
21
-72.8378
0
LINE
8
BLACK
6
CONTINUOUS
10
-555.93
20
-72.8378
11
-555.93
21
-74.8378
0
LINE
8
BLACK
6
CONTINUOUS
10
-537.134
20
-74.8378
11
-540.384
21
-74.8378
0
LINE
8
BLACK
6
CONTINUOUS
10
-540.384
20
-74.8378
11
-540.384
21
-72.8378
0
LINE
8
BLACK
6
CONTINUOUS
10
-540.384
20
-72.8378
11
-537.134
21
-72.8378
0
LINE
8
BLACK
6
CONTINUOUS
10
-537.134
20
-72.8378
11
-537.134
21
-74.8378
0
LINE
8
BLACK
6
CONTINUOUS
10
-555.93
20
-72.2978
11
-559.18
21
-72.2978
0
LINE
8
BLACK
6
CONTINUOUS
10
-559.18
20
-72.2978
11
-559.18
21
-70.2978
0
LINE
8
BLACK
6
CONTINUOUS
10
-559.18
20
-70.2978
11
-555.93
21
-70.2978
0
LINE
8
BLACK
6
CONTINUOUS
10
-555.93
20
-70.2978
11
-555.93
21
-72.2978
0
LINE
8
BLACK
6
CONTINUOUS
10
-537.134
20
-72.2978
11
-540.384
21
-72.2978
0
LINE
8
BLACK
6
CONTINUOUS
10
-540.384
20
-72.2978
11
-540.384
21
-70.2978
0
LINE
8
BLACK
6
CONTINUOUS
10
-540.384
20
-70.2978
11
-537.134
21
-70.2978
0
LINE
8
BLACK
6
CONTINUOUS
10
-537.134
20
-70.2978
11
-537.134
21
-72.2978
0
LINE
8
BLACK
6
CONTINUOUS
10
-345.306
20
-71.9505
11
-346.465
21
-72.2611
0
LINE
8
BLACK
6
CONTINUOUS
10
-346.465
20
-72.2611
11
-346.698
21
-71.3918
0
LINE
8
BLACK
6
CONTINUOUS
10
-346.698
20
-71.3918
11
-345.539
21
-71.0812
0
LINE
8
BLACK
6
CONTINUOUS
10
-345.539
20
-71.0812
11
-345.306
21
-71.9505
0
LINE
8
BLACK
6
CONTINUOUS
10
-419.9
20
-71.3918
11
-420.132
21
-72.2611
0
LINE
8
BLACK
6
CONTINUOUS
10
-420.132
20
-72.2611
11
-421.292
21
-71.9505
0
LINE
8
BLACK
6
CONTINUOUS
10
-421.292
20
-71.9505
11
-421.059
21
-71.0812
0
LINE
8
BLACK
6
CONTINUOUS
10
-421.059
20
-71.0812
11
-419.9
21
-71.3918
0
LINE
8
BLACK
6
CONTINUOUS
10
-439.533
20
-71.0615
11
-439.766
21
-71.9308
0
LINE
8
BLACK
6
CONTINUOUS
10
-439.766
20
-71.9308
11
-440.925
21
-71.6202
0
LINE
8
BLACK
6
CONTINUOUS
10
-440.925
20
-71.6202
11
-440.692
21
-70.7509
0
LINE
8
BLACK
6
CONTINUOUS
10
-440.692
20
-70.7509
11
-439.533
21
-71.0615
0
LINE
8
BLACK
6
CONTINUOUS
10
-325.672
20
-71.6202
11
-326.831
21
-71.9308
0
LINE
8
BLACK
6
CONTINUOUS
10
-326.831
20
-71.9308
11
-327.064
21
-71.0615
0
LINE
8
BLACK
6
CONTINUOUS
10
-327.064
20
-71.0615
11
-325.905
21
-70.7509
0
LINE
8
BLACK
6
CONTINUOUS
10
-325.905
20
-70.7509
11
-325.672
21
-71.6202
0
LINE
8
BLACK
6
CONTINUOUS
10
-537.134
20
-69.7578
11
-540.384
21
-69.7578
0
LINE
8
BLACK
6
CONTINUOUS
10
-540.384
20
-69.7578
11
-540.384
21
-67.7578
0
LINE
8
BLACK
6
CONTINUOUS
10
-540.384
20
-67.7578
11
-537.134
21
-67.7578
0
LINE
8
BLACK
6
CONTINUOUS
10
-537.134
20
-67.7578
11
-537.134
21
-69.7578
0
LINE
8
BLACK
6
CONTINUOUS
10
-555.93
20
-69.7578
11
-559.18
21
-69.7578
0
LINE
8
BLACK
6
CONTINUOUS
10
-559.18
20
-69.7578
11
-559.18
21
-67.7578
0
LINE
8
BLACK
6
CONTINUOUS
10
-559.18
20
-67.7578
11
-555.93
21
-67.7578
0
LINE
8
BLACK
6
CONTINUOUS
10
-555.93
20
-67.7578
11
-555.93
21
-69.7578
0
LINE
8
BLACK
6
CONTINUOUS
10
-419.045
20
-68.2042
11
-419.278
21
-69.0735
0
LINE
8
BLACK
6
CONTINUOUS
10
-419.278
20
-69.0735
11
-420.437
21
-68.763
0
LINE
8
BLACK
6
CONTINUOUS
10
-420.437
20
-68.763
11
-420.205
21
-67.8936
0
LINE
8
BLACK
6
CONTINUOUS
10
-420.205
20
-67.8936
11
-419.045
21
-68.2042
0
LINE
8
BLACK
6
CONTINUOUS
10
-346.16
20
-68.763
11
-347.319
21
-69.0735
0
LINE
8
BLACK
6
CONTINUOUS
10
-347.319
20
-69.0735
11
-347.552
21
-68.2042
0
LINE
8
BLACK
6
CONTINUOUS
10
-347.552
20
-68.2042
11
-346.393
21
-67.8936
0
LINE
8
BLACK
6
CONTINUOUS
10
-346.393
20
-67.8936
11
-346.16
21
-68.763
0
LINE
8
BLACK
6
CONTINUOUS
10
-438.679
20
-67.8739
11
-438.912
21
-68.7433
0
LINE
8
BLACK
6
CONTINUOUS
10
-438.912
20
-68.7433
11
-440.071
21
-68.4327
0
LINE
8
BLACK
6
CONTINUOUS
10
-440.071
20
-68.4327
11
-439.838
21
-67.5633
0
LINE
8
BLACK
6
CONTINUOUS
10
-439.838
20
-67.5633
11
-438.679
21
-67.8739
0
LINE
8
BLACK
6
CONTINUOUS
10
-326.526
20
-68.4327
11
-327.685
21
-68.7433
0
LINE
8
BLACK
6
CONTINUOUS
10
-327.685
20
-68.7433
11
-327.918
21
-67.8739
0
LINE
8
BLACK
6
CONTINUOUS
10
-327.918
20
-67.8739
11
-326.759
21
-67.5633
0
LINE
8
BLACK
6
CONTINUOUS
10
-326.759
20
-67.5633
11
-326.526
21
-68.4327
0
LINE
8
BLACK
6
CONTINUOUS
10
-537.134
20
-67.2178
11
-540.384
21
-67.2178
0
LINE
8
BLACK
6
CONTINUOUS
10
-540.384
20
-67.2178
11
-540.384
21
-65.2178
0
LINE
8
BLACK
6
CONTINUOUS
10
-540.384
20
-65.2178
11
-537.134
21
-65.2178
0
LINE
8
BLACK
6
CONTINUOUS
10
-537.134
20
-65.2178
11
-537.134
21
-67.2178
0
LINE
8
BLACK
6
CONTINUOUS
10
-555.93
20
-67.2178
11
-559.18
21
-67.2178
0
LINE
8
BLACK
6
CONTINUOUS
10
-559.18
20
-67.2178
11
-559.18
21
-65.2178
0
LINE
8
BLACK
6
CONTINUOUS
10
-559.18
20
-65.2178
11
-555.93
21
-65.2178
0
LINE
8
BLACK
6
CONTINUOUS
10
-555.93
20
-65.2178
11
-555.93
21
-67.2178
0
LINE
8
BLACK
6
CONTINUOUS
10
-465.299
20
-66.9255
11
-466.499
21
-66.9255
0
LINE
8
BLACK
6
CONTINUOUS
10
-466.499
20
-66.9255
11
-466.499
21
-66.0255
0
LINE
8
BLACK
6
CONTINUOUS
10
-466.499
20
-66.0255
11
-465.299
21
-66.0255
0
LINE
8
BLACK
6
CONTINUOUS
10
-465.299
20
-66.0255
11
-465.299
21
-66.9255
0
LINE
8
BLACK
6
CONTINUOUS
10
-219.84
20
-66.4382
11
-221.04
21
-66.4382
0
LINE
8
BLACK
6
CONTINUOUS
10
-221.04
20
-66.4382
11
-221.04
21
-65.5382
0
LINE
8
BLACK
6
CONTINUOUS
10
-221.04
20
-65.5382
11
-219.84
21
-65.5382
0
LINE
8
BLACK
6
CONTINUOUS
10
-219.84
20
-65.5382
11
-219.84
21
-66.4382
0
LINE
8
BLACK
6
CONTINUOUS
10
-296.04
20
-66.4382
11
-297.24
21
-66.4382
0
LINE
8
BLACK
6
CONTINUOUS
10
-297.24
20
-66.4382
11
-297.24
21
-65.5382
0
LINE
8
BLACK
6
CONTINUOUS
10
-297.24
20
-65.5382
11
-296.04
21
-65.5382
0
LINE
8
BLACK
6
CONTINUOUS
10
-296.04
20
-65.5382
11
-296.04
21
-66.4382
0
LINE
8
BLACK
6
CONTINUOUS
10
-238.89
20
-66.4382
11
-240.09
21
-66.4382
0
LINE
8
BLACK
6
CONTINUOUS
10
-240.09
20
-66.4382
11
-240.09
21
-65.5382
0
LINE
8
BLACK
6
CONTINUOUS
10
-240.09
20
-65.5382
11
-238.89
21
-65.5382
0
LINE
8
BLACK
6
CONTINUOUS
10
-238.89
20
-65.5382
11
-238.89
21
-66.4382
0
LINE
8
BLACK
6
CONTINUOUS
10
-276.99
20
-66.4382
11
-278.19
21
-66.4382
0
LINE
8
BLACK
6
CONTINUOUS
10
-278.19
20
-66.4382
11
-278.19
21
-65.5382
0
LINE
8
BLACK
6
CONTINUOUS
10
-278.19
20
-65.5382
11
-276.99
21
-65.5382
0
LINE
8
BLACK
6
CONTINUOUS
10
-276.99
20
-65.5382
11
-276.99
21
-66.4382
0
LINE
8
BLACK
6
CONTINUOUS
10
-512.924
20
-66.4255
11
-514.125
21
-66.4255
0
LINE
8
BLACK
6
CONTINUOUS
10
-514.125
20
-66.4255
11
-514.125
21
-65.5255
0
LINE
8
BLACK
6
CONTINUOUS
10
-514.125
20
-65.5255
11
-512.924
21
-65.5255
0
LINE
8
BLACK
6
CONTINUOUS
10
-512.924
20
-65.5255
11
-512.924
21
-66.4255
0
LINE
8
BLACK
6
CONTINUOUS
10
-484.349
20
-66.4255
11
-485.549
21
-66.4255
0
LINE
8
BLACK
6
CONTINUOUS
10
-485.549
20
-66.4255
11
-485.549
21
-65.5255
0
LINE
8
BLACK
6
CONTINUOUS
10
-485.549
20
-65.5255
11
-484.349
21
-65.5255
0
LINE
8
BLACK
6
CONTINUOUS
10
-484.349
20
-65.5255
11
-484.349
21
-66.4255
0
LINE
8
BLACK
6
CONTINUOUS
10
-537.134
20
-64.6778
11
-540.384
21
-64.6778
0
LINE
8
BLACK
6
CONTINUOUS
10
-540.384
20
-64.6778
11
-540.384
21
-62.6778
0
LINE
8
BLACK
6
CONTINUOUS
10
-540.384
20
-62.6778
11
-537.134
21
-62.6778
0
LINE
8
BLACK
6
CONTINUOUS
10
-537.134
20
-62.6778
11
-537.134
21
-64.6778
0
LINE
8
BLACK
6
CONTINUOUS
10
-555.93
20
-64.6778
11
-559.18
21
-64.6778
0
LINE
8
BLACK
6
CONTINUOUS
10
-559.18
20
-64.6778
11
-559.18
21
-62.6778
0
LINE
8
BLACK
6
CONTINUOUS
10
-559.18
20
-62.6778
11
-555.93
21
-62.6778
0
LINE
8
BLACK
6
CONTINUOUS
10
-555.93
20
-62.6778
11
-555.93
21
-64.6778
0
LINE
8
BLACK
6
CONTINUOUS
10
-465.299
20
-63.6255
11
-466.499
21
-63.6255
0
LINE
8
BLACK
6
CONTINUOUS
10
-466.499
20
-63.6255
11
-466.499
21
-62.7255
0
LINE
8
BLACK
6
CONTINUOUS
10
-466.499
20
-62.7255
11
-465.299
21
-62.7255
0
LINE
8
BLACK
6
CONTINUOUS
10
-465.299
20
-62.7255
11
-465.299
21
-63.6255
0
LINE
8
BLACK
6
CONTINUOUS
10
-276.99
20
-63.1382
11
-278.19
21
-63.1382
0
LINE
8
BLACK
6
CONTINUOUS
10
-278.19
20
-63.1382
11
-278.19
21
-62.2382
0
LINE
8
BLACK
6
CONTINUOUS
10
-278.19
20
-62.2382
11
-276.99
21
-62.2382
0
LINE
8
BLACK
6
CONTINUOUS
10
-276.99
20
-62.2382
11
-276.99
21
-63.1382
0
LINE
8
BLACK
6
CONTINUOUS
10
-296.04
20
-63.1382
11
-297.24
21
-63.1382
0
LINE
8
BLACK
6
CONTINUOUS
10
-297.24
20
-63.1382
11
-297.24
21
-62.2382
0
LINE
8
BLACK
6
CONTINUOUS
10
-297.24
20
-62.2382
11
-296.04
21
-62.2382
0
LINE
8
BLACK
6
CONTINUOUS
10
-296.04
20
-62.2382
11
-296.04
21
-63.1382
0
LINE
8
BLACK
6
CONTINUOUS
10
-238.89
20
-63.1382
11
-240.09
21
-63.1382
0
LINE
8
BLACK
6
CONTINUOUS
10
-240.09
20
-63.1382
11
-240.09
21
-62.2382
0
LINE
8
BLACK
6
CONTINUOUS
10
-240.09
20
-62.2382
11
-238.89
21
-62.2382
0
LINE
8
BLACK
6
CONTINUOUS
10
-238.89
20
-62.2382
11
-238.89
21
-63.1382
0
LINE
8
BLACK
6
CONTINUOUS
10
-219.84
20
-63.1382
11
-221.04
21
-63.1382
0
LINE
8
BLACK
6
CONTINUOUS
10
-221.04
20
-63.1382
11
-221.04
21
-62.2382
0
LINE
8
BLACK
6
CONTINUOUS
10
-221.04
20
-62.2382
11
-219.84
21
-62.2382
0
LINE
8
BLACK
6
CONTINUOUS
10
-219.84
20
-62.2382
11
-219.84
21
-63.1382
0
LINE
8
BLACK
6
CONTINUOUS
10
-484.349
20
-63.1255
11
-485.549
21
-63.1255
0
LINE
8
BLACK
6
CONTINUOUS
10
-485.549
20
-63.1255
11
-485.549
21
-62.2255
0
LINE
8
BLACK
6
CONTINUOUS
10
-485.549
20
-62.2255
11
-484.349
21
-62.2255
0
LINE
8
BLACK
6
CONTINUOUS
10
-484.349
20
-62.2255
11
-484.349
21
-63.1255
0
LINE
8
BLACK
6
CONTINUOUS
10
-512.924
20
-63.1255
11
-514.125
21
-63.1255
0
LINE
8
BLACK
6
CONTINUOUS
10
-514.125
20
-63.1255
11
-514.125
21
-62.2255
0
LINE
8
BLACK
6
CONTINUOUS
10
-514.125
20
-62.2255
11
-512.924
21
-62.2255
0
LINE
8
BLACK
6
CONTINUOUS
10
-512.924
20
-62.2255
11
-512.924
21
-63.1255
0
LINE
8
BLACK
6
CONTINUOUS
10
-555.93
20
-62.1378
11
-559.18
21
-62.1378
0
LINE
8
BLACK
6
CONTINUOUS
10
-559.18
20
-62.1378
11
-559.18
21
-60.1378
0
LINE
8
BLACK
6
CONTINUOUS
10
-559.18
20
-60.1378
11
-555.93
21
-60.1378
0
LINE
8
BLACK
6
CONTINUOUS
10
-555.93
20
-60.1378
11
-555.93
21
-62.1378
0
LINE
8
BLACK
6
CONTINUOUS
10
-537.134
20
-62.1378
11
-540.384
21
-62.1378
0
LINE
8
BLACK
6
CONTINUOUS
10
-540.384
20
-62.1378
11
-540.384
21
-60.1378
0
LINE
8
BLACK
6
CONTINUOUS
10
-540.384
20
-60.1378
11
-537.134
21
-60.1378
0
LINE
8
BLACK
6
CONTINUOUS
10
-537.134
20
-60.1378
11
-537.134
21
-62.1378
0
LINE
8
BLACK
6
CONTINUOUS
10
-555.93
20
-59.5978
11
-559.18
21
-59.5978
0
LINE
8
BLACK
6
CONTINUOUS
10
-559.18
20
-59.5978
11
-559.18
21
-57.5978
0
LINE
8
BLACK
6
CONTINUOUS
10
-559.18
20
-57.5978
11
-555.93
21
-57.5978
0
LINE
8
BLACK
6
CONTINUOUS
10
-555.93
20
-57.5978
11
-555.93
21
-59.5978
0
LINE
8
BLACK
6
CONTINUOUS
10
-537.134
20
-59.5978
11
-540.384
21
-59.5978
0
LINE
8
BLACK
6
CONTINUOUS
10
-540.384
20
-59.5978
11
-540.384
21
-57.5978
0
LINE
8
BLACK
6
CONTINUOUS
10
-540.384
20
-57.5978
11
-537.134
21
-57.5978
0
LINE
8
BLACK
6
CONTINUOUS
10
-537.134
20
-57.5978
11
-537.134
21
-59.5978
  0
ENDSEC
  0
EOF
