%TF.GenerationSoftware,KiCad,Pcbnew,(5.1.10)-1*%
%TF.CreationDate,2021-06-19T21:53:37-07:00*%
%TF.ProjectId,HSC_Alice,4853435f-416c-4696-9365-2e6b69636164,rev?*%
%TF.SameCoordinates,Original*%
%TF.FileFunction,Legend,Top*%
%TF.FilePolarity,Positive*%
%FSLAX46Y46*%
G04 Gerber Fmt 4.6, Leading zero omitted, Abs format (unit mm)*
G04 Created by KiCad (PCBNEW (5.1.10)-1) date 2021-06-19 21:53:37*
%MOMM*%
%LPD*%
G01*
G04 APERTURE LIST*
%ADD10C,0.381000*%
%ADD11C,0.150000*%
G04 APERTURE END LIST*
D10*
%TO.C,U2*%
X-554507400Y-57327800D02*
X-557047400Y-57327800D01*
X-557047400Y-54787800D02*
X-557047400Y-57327800D01*
X-539267400Y-54787800D02*
X-557047400Y-54787800D01*
X-539267400Y-57327800D02*
X-539267400Y-54787800D01*
D11*
G36*
X-543225832Y-63807160D02*
G01*
X-543225832Y-64007160D01*
X-543325832Y-64007160D01*
X-543325832Y-63807160D01*
X-543225832Y-63807160D01*
G37*
X-543225832Y-63807160D02*
X-543225832Y-64007160D01*
X-543325832Y-64007160D01*
X-543325832Y-63807160D01*
X-543225832Y-63807160D01*
G36*
X-543625832Y-63207160D02*
G01*
X-543625832Y-64007160D01*
X-543725832Y-64007160D01*
X-543725832Y-63207160D01*
X-543625832Y-63207160D01*
G37*
X-543625832Y-63207160D02*
X-543625832Y-64007160D01*
X-543725832Y-64007160D01*
X-543725832Y-63207160D01*
X-543625832Y-63207160D01*
G36*
X-543225832Y-63207160D02*
G01*
X-543225832Y-63307160D01*
X-543725832Y-63307160D01*
X-543725832Y-63207160D01*
X-543225832Y-63207160D01*
G37*
X-543225832Y-63207160D02*
X-543225832Y-63307160D01*
X-543725832Y-63307160D01*
X-543725832Y-63207160D01*
X-543225832Y-63207160D01*
G36*
X-543425832Y-63607160D02*
G01*
X-543425832Y-63707160D01*
X-543525832Y-63707160D01*
X-543525832Y-63607160D01*
X-543425832Y-63607160D01*
G37*
X-543425832Y-63607160D02*
X-543425832Y-63707160D01*
X-543525832Y-63707160D01*
X-543525832Y-63607160D01*
X-543425832Y-63607160D01*
G36*
X-543225832Y-63207160D02*
G01*
X-543225832Y-63507160D01*
X-543325832Y-63507160D01*
X-543325832Y-63207160D01*
X-543225832Y-63207160D01*
G37*
X-543225832Y-63207160D02*
X-543225832Y-63507160D01*
X-543325832Y-63507160D01*
X-543325832Y-63207160D01*
X-543225832Y-63207160D01*
D10*
X-554507400Y-59867800D02*
X-557047400Y-59867800D01*
X-554507400Y-57327800D02*
X-554507400Y-59867800D01*
X-539267400Y-87807800D02*
X-539267400Y-57327800D01*
X-557047400Y-87807800D02*
X-539267400Y-87807800D01*
X-557047400Y-57327800D02*
X-557047400Y-87807800D01*
D11*
X-543020209Y-83940657D02*
X-542905923Y-83978752D01*
X-542867828Y-84016847D01*
X-542829733Y-84093038D01*
X-542829733Y-84207323D01*
X-542867828Y-84283514D01*
X-542905923Y-84321609D01*
X-542982114Y-84359704D01*
X-543286876Y-84359704D01*
X-543286876Y-83559704D01*
X-543020209Y-83559704D01*
X-542944019Y-83597800D01*
X-542905923Y-83635895D01*
X-542867828Y-83712085D01*
X-542867828Y-83788276D01*
X-542905923Y-83864466D01*
X-542944019Y-83902561D01*
X-543020209Y-83940657D01*
X-543286876Y-83940657D01*
X-542524971Y-83635895D02*
X-542486876Y-83597800D01*
X-542410685Y-83559704D01*
X-542220209Y-83559704D01*
X-542144019Y-83597800D01*
X-542105923Y-83635895D01*
X-542067828Y-83712085D01*
X-542067828Y-83788276D01*
X-542105923Y-83902561D01*
X-542563066Y-84359704D01*
X-542067828Y-84359704D01*
X-542963066Y-76320657D02*
X-543229733Y-76320657D01*
X-543229733Y-76739704D02*
X-543229733Y-75939704D01*
X-542848780Y-75939704D01*
X-542620209Y-75939704D02*
X-542086876Y-75939704D01*
X-542429733Y-76739704D01*
X-542963066Y-73780657D02*
X-543229733Y-73780657D01*
X-543229733Y-74199704D02*
X-543229733Y-73399704D01*
X-542848780Y-73399704D01*
X-542201161Y-73399704D02*
X-542353542Y-73399704D01*
X-542429733Y-73437800D01*
X-542467828Y-73475895D01*
X-542544019Y-73590180D01*
X-542582114Y-73742561D01*
X-542582114Y-74047323D01*
X-542544019Y-74123514D01*
X-542505923Y-74161609D01*
X-542429733Y-74199704D01*
X-542277352Y-74199704D01*
X-542201161Y-74161609D01*
X-542163066Y-74123514D01*
X-542124971Y-74047323D01*
X-542124971Y-73856847D01*
X-542163066Y-73780657D01*
X-542201161Y-73742561D01*
X-542277352Y-73704466D01*
X-542429733Y-73704466D01*
X-542505923Y-73742561D01*
X-542544019Y-73780657D01*
X-542582114Y-73856847D01*
X-542963066Y-71240657D02*
X-543229733Y-71240657D01*
X-543229733Y-71659704D02*
X-543229733Y-70859704D01*
X-542848780Y-70859704D01*
X-542163066Y-70859704D02*
X-542544019Y-70859704D01*
X-542582114Y-71240657D01*
X-542544019Y-71202561D01*
X-542467828Y-71164466D01*
X-542277352Y-71164466D01*
X-542201161Y-71202561D01*
X-542163066Y-71240657D01*
X-542124971Y-71316847D01*
X-542124971Y-71507323D01*
X-542163066Y-71583514D01*
X-542201161Y-71621609D01*
X-542277352Y-71659704D01*
X-542467828Y-71659704D01*
X-542544019Y-71621609D01*
X-542582114Y-71583514D01*
X-543020209Y-58540657D02*
X-542905923Y-58578752D01*
X-542867828Y-58616847D01*
X-542829733Y-58693038D01*
X-542829733Y-58807323D01*
X-542867828Y-58883514D01*
X-542905923Y-58921609D01*
X-542982114Y-58959704D01*
X-543286876Y-58959704D01*
X-543286876Y-58159704D01*
X-543020209Y-58159704D01*
X-542944019Y-58197800D01*
X-542905923Y-58235895D01*
X-542867828Y-58312085D01*
X-542867828Y-58388276D01*
X-542905923Y-58464466D01*
X-542944019Y-58502561D01*
X-543020209Y-58540657D01*
X-543286876Y-58540657D01*
X-542334495Y-58159704D02*
X-542258304Y-58159704D01*
X-542182114Y-58197800D01*
X-542144019Y-58235895D01*
X-542105923Y-58312085D01*
X-542067828Y-58464466D01*
X-542067828Y-58654942D01*
X-542105923Y-58807323D01*
X-542144019Y-58883514D01*
X-542182114Y-58921609D01*
X-542258304Y-58959704D01*
X-542334495Y-58959704D01*
X-542410685Y-58921609D01*
X-542448780Y-58883514D01*
X-542486876Y-58807323D01*
X-542524971Y-58654942D01*
X-542524971Y-58464466D01*
X-542486876Y-58312085D01*
X-542448780Y-58235895D01*
X-542410685Y-58197800D01*
X-542334495Y-58159704D01*
X-543305923Y-60737800D02*
X-543382114Y-60699704D01*
X-543496400Y-60699704D01*
X-543610685Y-60737800D01*
X-543686876Y-60813990D01*
X-543724971Y-60890180D01*
X-543763066Y-61042561D01*
X-543763066Y-61156847D01*
X-543724971Y-61309228D01*
X-543686876Y-61385419D01*
X-543610685Y-61461609D01*
X-543496400Y-61499704D01*
X-543420209Y-61499704D01*
X-543305923Y-61461609D01*
X-543267828Y-61423514D01*
X-543267828Y-61156847D01*
X-543420209Y-61156847D01*
X-542924971Y-61499704D02*
X-542924971Y-60699704D01*
X-542467828Y-61499704D01*
X-542467828Y-60699704D01*
X-542086876Y-61499704D02*
X-542086876Y-60699704D01*
X-541896400Y-60699704D01*
X-541782114Y-60737800D01*
X-541705923Y-60813990D01*
X-541667828Y-60890180D01*
X-541629733Y-61042561D01*
X-541629733Y-61156847D01*
X-541667828Y-61309228D01*
X-541705923Y-61385419D01*
X-541782114Y-61461609D01*
X-541896400Y-61499704D01*
X-542086876Y-61499704D01*
X-542957613Y-63971609D02*
X-542843327Y-64009704D01*
X-542652851Y-64009704D01*
X-542576660Y-63971609D01*
X-542538565Y-63933514D01*
X-542500470Y-63857323D01*
X-542500470Y-63781133D01*
X-542538565Y-63704942D01*
X-542576660Y-63666847D01*
X-542652851Y-63628752D01*
X-542805232Y-63590657D01*
X-542881422Y-63552561D01*
X-542919518Y-63514466D01*
X-542957613Y-63438276D01*
X-542957613Y-63362085D01*
X-542919518Y-63285895D01*
X-542881422Y-63247800D01*
X-542805232Y-63209704D01*
X-542614756Y-63209704D01*
X-542500470Y-63247800D01*
X-542271899Y-63209704D02*
X-541814756Y-63209704D01*
X-542043327Y-64009704D02*
X-542043327Y-63209704D01*
X-543763066Y-65779704D02*
X-543496400Y-66579704D01*
X-543229733Y-65779704D01*
X-542505923Y-66503514D02*
X-542544019Y-66541609D01*
X-542658304Y-66579704D01*
X-542734495Y-66579704D01*
X-542848780Y-66541609D01*
X-542924971Y-66465419D01*
X-542963066Y-66389228D01*
X-543001161Y-66236847D01*
X-543001161Y-66122561D01*
X-542963066Y-65970180D01*
X-542924971Y-65893990D01*
X-542848780Y-65817800D01*
X-542734495Y-65779704D01*
X-542658304Y-65779704D01*
X-542544019Y-65817800D01*
X-542505923Y-65855895D01*
X-541705923Y-66503514D02*
X-541744019Y-66541609D01*
X-541858304Y-66579704D01*
X-541934495Y-66579704D01*
X-542048780Y-66541609D01*
X-542124971Y-66465419D01*
X-542163066Y-66389228D01*
X-542201161Y-66236847D01*
X-542201161Y-66122561D01*
X-542163066Y-65970180D01*
X-542124971Y-65893990D01*
X-542048780Y-65817800D01*
X-541934495Y-65779704D01*
X-541858304Y-65779704D01*
X-541744019Y-65817800D01*
X-541705923Y-65855895D01*
X-542963066Y-68700657D02*
X-543229733Y-68700657D01*
X-543229733Y-69119704D02*
X-543229733Y-68319704D01*
X-542848780Y-68319704D01*
X-542201161Y-68586371D02*
X-542201161Y-69119704D01*
X-542391638Y-68281609D02*
X-542582114Y-68853038D01*
X-542086876Y-68853038D01*
X-543020209Y-78860657D02*
X-542905923Y-78898752D01*
X-542867828Y-78936847D01*
X-542829733Y-79013038D01*
X-542829733Y-79127323D01*
X-542867828Y-79203514D01*
X-542905923Y-79241609D01*
X-542982114Y-79279704D01*
X-543286876Y-79279704D01*
X-543286876Y-78479704D01*
X-543020209Y-78479704D01*
X-542944019Y-78517800D01*
X-542905923Y-78555895D01*
X-542867828Y-78632085D01*
X-542867828Y-78708276D01*
X-542905923Y-78784466D01*
X-542944019Y-78822561D01*
X-543020209Y-78860657D01*
X-543286876Y-78860657D01*
X-542067828Y-79279704D02*
X-542524971Y-79279704D01*
X-542296400Y-79279704D02*
X-542296400Y-78479704D01*
X-542372590Y-78593990D01*
X-542448780Y-78670180D01*
X-542524971Y-78708276D01*
X-543020209Y-81400657D02*
X-542905923Y-81438752D01*
X-542867828Y-81476847D01*
X-542829733Y-81553038D01*
X-542829733Y-81667323D01*
X-542867828Y-81743514D01*
X-542905923Y-81781609D01*
X-542982114Y-81819704D01*
X-543286876Y-81819704D01*
X-543286876Y-81019704D01*
X-543020209Y-81019704D01*
X-542944019Y-81057800D01*
X-542905923Y-81095895D01*
X-542867828Y-81172085D01*
X-542867828Y-81248276D01*
X-542905923Y-81324466D01*
X-542944019Y-81362561D01*
X-543020209Y-81400657D01*
X-543286876Y-81400657D01*
X-542563066Y-81019704D02*
X-542067828Y-81019704D01*
X-542334495Y-81324466D01*
X-542220209Y-81324466D01*
X-542144019Y-81362561D01*
X-542105923Y-81400657D01*
X-542067828Y-81476847D01*
X-542067828Y-81667323D01*
X-542105923Y-81743514D01*
X-542144019Y-81781609D01*
X-542220209Y-81819704D01*
X-542448780Y-81819704D01*
X-542524971Y-81781609D01*
X-542563066Y-81743514D01*
X-554722391Y-85032097D02*
X-554675251Y-85126378D01*
X-554675251Y-85173519D01*
X-554698821Y-85244229D01*
X-554769532Y-85314940D01*
X-554840242Y-85338510D01*
X-554887383Y-85338510D01*
X-554958093Y-85314940D01*
X-555146655Y-85126378D01*
X-554651680Y-84631403D01*
X-554486689Y-84796395D01*
X-554463119Y-84867106D01*
X-554463119Y-84914246D01*
X-554486689Y-84984957D01*
X-554533829Y-85032097D01*
X-554604540Y-85055667D01*
X-554651680Y-85055667D01*
X-554722391Y-85032097D01*
X-554887383Y-84867106D01*
X-553921003Y-85362080D02*
X-554156706Y-85126378D01*
X-554415978Y-85338510D01*
X-554368838Y-85338510D01*
X-554298127Y-85362080D01*
X-554180276Y-85479932D01*
X-554156706Y-85550642D01*
X-554156706Y-85597783D01*
X-554180276Y-85668493D01*
X-554298127Y-85786344D01*
X-554368838Y-85809915D01*
X-554415978Y-85809915D01*
X-554486689Y-85786344D01*
X-554604540Y-85668493D01*
X-554628110Y-85597783D01*
X-554628110Y-85550642D01*
X-553942209Y-83940657D02*
X-553827923Y-83978752D01*
X-553789828Y-84016847D01*
X-553751733Y-84093038D01*
X-553751733Y-84207323D01*
X-553789828Y-84283514D01*
X-553827923Y-84321609D01*
X-553904114Y-84359704D01*
X-554208876Y-84359704D01*
X-554208876Y-83559704D01*
X-553942209Y-83559704D01*
X-553866019Y-83597800D01*
X-553827923Y-83635895D01*
X-553789828Y-83712085D01*
X-553789828Y-83788276D01*
X-553827923Y-83864466D01*
X-553866019Y-83902561D01*
X-553942209Y-83940657D01*
X-554208876Y-83940657D01*
X-553066019Y-83826371D02*
X-553066019Y-84359704D01*
X-553256495Y-83521609D02*
X-553446971Y-84093038D01*
X-552951733Y-84093038D01*
X-554170780Y-81400657D02*
X-553904114Y-81400657D01*
X-553789828Y-81819704D02*
X-554170780Y-81819704D01*
X-554170780Y-81019704D01*
X-553789828Y-81019704D01*
X-553104114Y-81019704D02*
X-553256495Y-81019704D01*
X-553332685Y-81057800D01*
X-553370780Y-81095895D01*
X-553446971Y-81210180D01*
X-553485066Y-81362561D01*
X-553485066Y-81667323D01*
X-553446971Y-81743514D01*
X-553408876Y-81781609D01*
X-553332685Y-81819704D01*
X-553180304Y-81819704D01*
X-553104114Y-81781609D01*
X-553066019Y-81743514D01*
X-553027923Y-81667323D01*
X-553027923Y-81476847D01*
X-553066019Y-81400657D01*
X-553104114Y-81362561D01*
X-553180304Y-81324466D01*
X-553332685Y-81324466D01*
X-553408876Y-81362561D01*
X-553446971Y-81400657D01*
X-553485066Y-81476847D01*
X-554208876Y-79279704D02*
X-554208876Y-78479704D01*
X-554018400Y-78479704D01*
X-553904114Y-78517800D01*
X-553827923Y-78593990D01*
X-553789828Y-78670180D01*
X-553751733Y-78822561D01*
X-553751733Y-78936847D01*
X-553789828Y-79089228D01*
X-553827923Y-79165419D01*
X-553904114Y-79241609D01*
X-554018400Y-79279704D01*
X-554208876Y-79279704D01*
X-553485066Y-78479704D02*
X-552951733Y-78479704D01*
X-553294590Y-79279704D01*
X-553751733Y-76663514D02*
X-553789828Y-76701609D01*
X-553904114Y-76739704D01*
X-553980304Y-76739704D01*
X-554094590Y-76701609D01*
X-554170780Y-76625419D01*
X-554208876Y-76549228D01*
X-554246971Y-76396847D01*
X-554246971Y-76282561D01*
X-554208876Y-76130180D01*
X-554170780Y-76053990D01*
X-554094590Y-75977800D01*
X-553980304Y-75939704D01*
X-553904114Y-75939704D01*
X-553789828Y-75977800D01*
X-553751733Y-76015895D01*
X-553066019Y-75939704D02*
X-553218400Y-75939704D01*
X-553294590Y-75977800D01*
X-553332685Y-76015895D01*
X-553408876Y-76130180D01*
X-553446971Y-76282561D01*
X-553446971Y-76587323D01*
X-553408876Y-76663514D01*
X-553370780Y-76701609D01*
X-553294590Y-76739704D01*
X-553142209Y-76739704D01*
X-553066019Y-76701609D01*
X-553027923Y-76663514D01*
X-552989828Y-76587323D01*
X-552989828Y-76396847D01*
X-553027923Y-76320657D01*
X-553066019Y-76282561D01*
X-553142209Y-76244466D01*
X-553294590Y-76244466D01*
X-553370780Y-76282561D01*
X-553408876Y-76320657D01*
X-553446971Y-76396847D01*
X-554208876Y-74199704D02*
X-554208876Y-73399704D01*
X-554018400Y-73399704D01*
X-553904114Y-73437800D01*
X-553827923Y-73513990D01*
X-553789828Y-73590180D01*
X-553751733Y-73742561D01*
X-553751733Y-73856847D01*
X-553789828Y-74009228D01*
X-553827923Y-74085419D01*
X-553904114Y-74161609D01*
X-554018400Y-74199704D01*
X-554208876Y-74199704D01*
X-553066019Y-73666371D02*
X-553066019Y-74199704D01*
X-553256495Y-73361609D02*
X-553446971Y-73933038D01*
X-552951733Y-73933038D01*
X-554227923Y-63277800D02*
X-554304114Y-63239704D01*
X-554418400Y-63239704D01*
X-554532685Y-63277800D01*
X-554608876Y-63353990D01*
X-554646971Y-63430180D01*
X-554685066Y-63582561D01*
X-554685066Y-63696847D01*
X-554646971Y-63849228D01*
X-554608876Y-63925419D01*
X-554532685Y-64001609D01*
X-554418400Y-64039704D01*
X-554342209Y-64039704D01*
X-554227923Y-64001609D01*
X-554189828Y-63963514D01*
X-554189828Y-63696847D01*
X-554342209Y-63696847D01*
X-553846971Y-64039704D02*
X-553846971Y-63239704D01*
X-553389828Y-64039704D01*
X-553389828Y-63239704D01*
X-553008876Y-64039704D02*
X-553008876Y-63239704D01*
X-552818400Y-63239704D01*
X-552704114Y-63277800D01*
X-552627923Y-63353990D01*
X-552589828Y-63430180D01*
X-552551733Y-63582561D01*
X-552551733Y-63696847D01*
X-552589828Y-63849228D01*
X-552627923Y-63925419D01*
X-552704114Y-64001609D01*
X-552818400Y-64039704D01*
X-553008876Y-64039704D01*
X-554227923Y-65817800D02*
X-554304114Y-65779704D01*
X-554418400Y-65779704D01*
X-554532685Y-65817800D01*
X-554608876Y-65893990D01*
X-554646971Y-65970180D01*
X-554685066Y-66122561D01*
X-554685066Y-66236847D01*
X-554646971Y-66389228D01*
X-554608876Y-66465419D01*
X-554532685Y-66541609D01*
X-554418400Y-66579704D01*
X-554342209Y-66579704D01*
X-554227923Y-66541609D01*
X-554189828Y-66503514D01*
X-554189828Y-66236847D01*
X-554342209Y-66236847D01*
X-553846971Y-66579704D02*
X-553846971Y-65779704D01*
X-553389828Y-66579704D01*
X-553389828Y-65779704D01*
X-553008876Y-66579704D02*
X-553008876Y-65779704D01*
X-552818400Y-65779704D01*
X-552704114Y-65817800D01*
X-552627923Y-65893990D01*
X-552589828Y-65970180D01*
X-552551733Y-66122561D01*
X-552551733Y-66236847D01*
X-552589828Y-66389228D01*
X-552627923Y-66465419D01*
X-552704114Y-66541609D01*
X-552818400Y-66579704D01*
X-553008876Y-66579704D01*
X-554208876Y-69119704D02*
X-554208876Y-68319704D01*
X-554018400Y-68319704D01*
X-553904114Y-68357800D01*
X-553827923Y-68433990D01*
X-553789828Y-68510180D01*
X-553751733Y-68662561D01*
X-553751733Y-68776847D01*
X-553789828Y-68929228D01*
X-553827923Y-69005419D01*
X-553904114Y-69081609D01*
X-554018400Y-69119704D01*
X-554208876Y-69119704D01*
X-552989828Y-69119704D02*
X-553446971Y-69119704D01*
X-553218400Y-69119704D02*
X-553218400Y-68319704D01*
X-553294590Y-68433990D01*
X-553370780Y-68510180D01*
X-553446971Y-68548276D01*
X-554208876Y-71659704D02*
X-554208876Y-70859704D01*
X-554018400Y-70859704D01*
X-553904114Y-70897800D01*
X-553827923Y-70973990D01*
X-553789828Y-71050180D01*
X-553751733Y-71202561D01*
X-553751733Y-71316847D01*
X-553789828Y-71469228D01*
X-553827923Y-71545419D01*
X-553904114Y-71621609D01*
X-554018400Y-71659704D01*
X-554208876Y-71659704D01*
X-553256495Y-70859704D02*
X-553180304Y-70859704D01*
X-553104114Y-70897800D01*
X-553066019Y-70935895D01*
X-553027923Y-71012085D01*
X-552989828Y-71164466D01*
X-552989828Y-71354942D01*
X-553027923Y-71507323D01*
X-553066019Y-71583514D01*
X-553104114Y-71621609D01*
X-553180304Y-71659704D01*
X-553256495Y-71659704D01*
X-553332685Y-71621609D01*
X-553370780Y-71583514D01*
X-553408876Y-71507323D01*
X-553446971Y-71354942D01*
X-553446971Y-71164466D01*
X-553408876Y-71012085D01*
X-553370780Y-70935895D01*
X-553332685Y-70897800D01*
X-553256495Y-70859704D01*
X-554208876Y-61499704D02*
X-554208876Y-60699704D01*
X-554018400Y-60699704D01*
X-553904114Y-60737800D01*
X-553827923Y-60813990D01*
X-553789828Y-60890180D01*
X-553751733Y-61042561D01*
X-553751733Y-61156847D01*
X-553789828Y-61309228D01*
X-553827923Y-61385419D01*
X-553904114Y-61461609D01*
X-554018400Y-61499704D01*
X-554208876Y-61499704D01*
X-553446971Y-60775895D02*
X-553408876Y-60737800D01*
X-553332685Y-60699704D01*
X-553142209Y-60699704D01*
X-553066019Y-60737800D01*
X-553027923Y-60775895D01*
X-552989828Y-60852085D01*
X-552989828Y-60928276D01*
X-553027923Y-61042561D01*
X-553485066Y-61499704D01*
X-552989828Y-61499704D01*
X-553919748Y-58159704D02*
X-553462605Y-58159704D01*
X-553691176Y-58959704D02*
X-553691176Y-58159704D01*
X-553272129Y-58159704D02*
X-552738795Y-58959704D01*
X-552738795Y-58159704D02*
X-553272129Y-58959704D01*
X-552281652Y-58159704D02*
X-552205462Y-58159704D01*
X-552129272Y-58197800D01*
X-552091176Y-58235895D01*
X-552053081Y-58312085D01*
X-552014986Y-58464466D01*
X-552014986Y-58654942D01*
X-552053081Y-58807323D01*
X-552091176Y-58883514D01*
X-552129272Y-58921609D01*
X-552205462Y-58959704D01*
X-552281652Y-58959704D01*
X-552357843Y-58921609D01*
X-552395938Y-58883514D01*
X-552434033Y-58807323D01*
X-552472129Y-58654942D01*
X-552472129Y-58464466D01*
X-552434033Y-58312085D01*
X-552395938Y-58235895D01*
X-552357843Y-58197800D01*
X-552281652Y-58159704D01*
X-551100700Y-58121609D02*
X-551786414Y-59150180D01*
X-550834033Y-58959704D02*
X-550834033Y-58159704D01*
X-550643557Y-58159704D01*
X-550529272Y-58197800D01*
X-550453081Y-58273990D01*
X-550414986Y-58350180D01*
X-550376891Y-58502561D01*
X-550376891Y-58616847D01*
X-550414986Y-58769228D01*
X-550453081Y-58845419D01*
X-550529272Y-58921609D01*
X-550643557Y-58959704D01*
X-550834033Y-58959704D01*
X-550110224Y-58159704D02*
X-549614986Y-58159704D01*
X-549881652Y-58464466D01*
X-549767367Y-58464466D01*
X-549691176Y-58502561D01*
X-549653081Y-58540657D01*
X-549614986Y-58616847D01*
X-549614986Y-58807323D01*
X-549653081Y-58883514D01*
X-549691176Y-58921609D01*
X-549767367Y-58959704D01*
X-549995938Y-58959704D01*
X-550072129Y-58921609D01*
X-550110224Y-58883514D01*
X-552940733Y-85117800D02*
X-552840733Y-85151133D01*
X-552807400Y-85184466D01*
X-552774066Y-85251133D01*
X-552774066Y-85351133D01*
X-552807400Y-85417800D01*
X-552840733Y-85451133D01*
X-552907400Y-85484466D01*
X-553174066Y-85484466D01*
X-553174066Y-84784466D01*
X-552940733Y-84784466D01*
X-552874066Y-84817800D01*
X-552840733Y-84851133D01*
X-552807400Y-84917800D01*
X-552807400Y-84984466D01*
X-552840733Y-85051133D01*
X-552874066Y-85084466D01*
X-552940733Y-85117800D01*
X-553174066Y-85117800D01*
X-552540733Y-84784466D02*
X-552074066Y-84784466D01*
X-552374066Y-85484466D01*
X-543890733Y-85117800D02*
X-544124066Y-85117800D01*
X-544124066Y-85484466D02*
X-544124066Y-84784466D01*
X-543790733Y-84784466D01*
X-543390733Y-84784466D02*
X-543324066Y-84784466D01*
X-543257400Y-84817800D01*
X-543224066Y-84851133D01*
X-543190733Y-84917800D01*
X-543157400Y-85051133D01*
X-543157400Y-85217800D01*
X-543190733Y-85351133D01*
X-543224066Y-85417800D01*
X-543257400Y-85451133D01*
X-543324066Y-85484466D01*
X-543390733Y-85484466D01*
X-543457400Y-85451133D01*
X-543490733Y-85417800D01*
X-543524066Y-85351133D01*
X-543557400Y-85217800D01*
X-543557400Y-85051133D01*
X-543524066Y-84917800D01*
X-543490733Y-84851133D01*
X-543457400Y-84817800D01*
X-543390733Y-84784466D01*
X-541993102Y-85432791D02*
X-541898821Y-85385651D01*
X-541851680Y-85385651D01*
X-541780970Y-85409221D01*
X-541710259Y-85479932D01*
X-541686689Y-85550642D01*
X-541686689Y-85597783D01*
X-541710259Y-85668493D01*
X-541898821Y-85857055D01*
X-542393796Y-85362080D01*
X-542228804Y-85197089D01*
X-542158093Y-85173519D01*
X-542110953Y-85173519D01*
X-542040242Y-85197089D01*
X-541993102Y-85244229D01*
X-541969532Y-85314940D01*
X-541969532Y-85362080D01*
X-541993102Y-85432791D01*
X-542158093Y-85597783D01*
X-541686689Y-84654974D02*
X-541780970Y-84749255D01*
X-541804540Y-84819965D01*
X-541804540Y-84867106D01*
X-541780970Y-84984957D01*
X-541710259Y-85102808D01*
X-541521697Y-85291370D01*
X-541450987Y-85314940D01*
X-541403846Y-85314940D01*
X-541333135Y-85291370D01*
X-541238855Y-85197089D01*
X-541215284Y-85126378D01*
X-541215284Y-85079238D01*
X-541238855Y-85008527D01*
X-541356706Y-84890676D01*
X-541427416Y-84867106D01*
X-541474557Y-84867106D01*
X-541545267Y-84890676D01*
X-541639548Y-84984957D01*
X-541663119Y-85055667D01*
X-541663119Y-85102808D01*
X-541639548Y-85173519D01*
X-548290733Y-85253514D02*
X-548328828Y-85291609D01*
X-548443114Y-85329704D01*
X-548519304Y-85329704D01*
X-548633590Y-85291609D01*
X-548709780Y-85215419D01*
X-548747876Y-85139228D01*
X-548785971Y-84986847D01*
X-548785971Y-84872561D01*
X-548747876Y-84720180D01*
X-548709780Y-84643990D01*
X-548633590Y-84567800D01*
X-548519304Y-84529704D01*
X-548443114Y-84529704D01*
X-548328828Y-84567800D01*
X-548290733Y-84605895D01*
X-548024066Y-84529704D02*
X-547490733Y-84529704D01*
X-547833590Y-85329704D01*
X-545884066Y-84910657D02*
X-546150733Y-84910657D01*
X-546150733Y-85329704D02*
X-546150733Y-84529704D01*
X-545769780Y-84529704D01*
X-545045971Y-85329704D02*
X-545503114Y-85329704D01*
X-545274542Y-85329704D02*
X-545274542Y-84529704D01*
X-545350733Y-84643990D01*
X-545426923Y-84720180D01*
X-545503114Y-84758276D01*
X-551287876Y-85329704D02*
X-551287876Y-84529704D01*
X-551097400Y-84529704D01*
X-550983114Y-84567800D01*
X-550906923Y-84643990D01*
X-550868828Y-84720180D01*
X-550830733Y-84872561D01*
X-550830733Y-84986847D01*
X-550868828Y-85139228D01*
X-550906923Y-85215419D01*
X-550983114Y-85291609D01*
X-551097400Y-85329704D01*
X-551287876Y-85329704D01*
X-550106923Y-84529704D02*
X-550487876Y-84529704D01*
X-550525971Y-84910657D01*
X-550487876Y-84872561D01*
X-550411685Y-84834466D01*
X-550221209Y-84834466D01*
X-550145019Y-84872561D01*
X-550106923Y-84910657D01*
X-550068828Y-84986847D01*
X-550068828Y-85177323D01*
X-550106923Y-85253514D01*
X-550145019Y-85291609D01*
X-550221209Y-85329704D01*
X-550411685Y-85329704D01*
X-550487876Y-85291609D01*
X-550525971Y-85253514D01*
%TD*%
M02*
